M48
; DRILL file {KiCad 8.0.4} date 2025-04-19T10:13:26-0700
; FORMAT={-:-/ absolute / inch / decimal}
; #@! TF.CreationDate,2025-04-19T10:13:26-07:00
; #@! TF.GenerationSoftware,Kicad,Pcbnew,8.0.4
; #@! TF.FileFunction,Plated,1,4,PTH
FMAT,2
INCH
; #@! TA.AperFunction,Plated,PTH,ViaDrill
T1C0.0118
; #@! TA.AperFunction,Plated,PTH,ComponentDrill
T2C0.0118
; #@! TA.AperFunction,Plated,PTH,ComponentDrill
T3C0.0236
; #@! TA.AperFunction,Plated,PTH,ComponentDrill
T4C0.0300
%
G90
G05
T1
X0.1249Y-6.2824
X0.1249Y-6.4044
X0.1485Y-1.184
X0.1604Y-6.1919
X0.1653Y-1.0186
X0.1653Y-1.0993
X0.1692Y-6.2844
X0.1704Y-6.3103
X0.1712Y-6.4783
X0.1741Y-6.3907
X0.1741Y-6.4167
X0.2194Y-0.9596
X0.2204Y-1.0186
X0.2204Y-1.0993
X0.2312Y-1.1564
X0.2598Y-6.1724
X0.2627Y-3.4989
X0.281Y-6.2976
X0.2893Y-1.1121
X0.2893Y-1.1938
X0.2942Y-3.5226
X0.2942Y-3.5541
X0.3011Y-6.3287
X0.3021Y-6.2194
X0.3021Y-6.4635
X0.3021Y-7.1564
X0.3031Y-6.3611
X0.306Y-6.3966
X0.3218Y-6.8533
X0.3218Y-7.4399
X0.3375Y-6.6446
X0.34Y-7.4056
X0.3415Y-6.4005
X0.3415Y-6.4438
X0.3444Y-1.1121
X0.3444Y-1.1938
X0.3533Y-6.2352
X0.3533Y-6.6092
X0.3651Y-6.2942
X0.3769Y-6.2548
X0.4Y-6.915
X0.4005Y-6.2352
X0.4012Y-1.112
X0.4084Y-1.306
X0.4122Y-3.5389
X0.4281Y-3.4596
X0.4281Y-6.2155
X0.4384Y-3.5366
X0.4478Y-1.1564
X0.4478Y-1.247
X0.4596Y-3.6722
X0.4635Y-3.558
X0.4753Y-7.1407
X0.4773Y-2.5541
X0.4778Y-2.4192
X0.495Y-6.3454
X0.5019Y-1.1554
X0.5029Y-1.2371
X0.5226Y-2.743
X0.5304Y-2.4871
X0.5344Y-6.3454
X0.5373Y-2.6928
X0.5393Y-2.6052
X0.5619Y-2.5659
X0.5816Y-3.558
X0.5934Y-1.2017
X0.5934Y-1.2834
X0.5934Y-2.6958
X0.5944Y-2.6062
X0.5974Y-3.4635
X0.6092Y-6.6131
X0.6367Y-2.8572
X0.6407Y-6.4241
X0.6446Y-6.617
X0.6446Y-6.9478
X0.6446Y-7.0422
X0.645Y-6.9812
X0.645Y-7.0088
X0.6485Y-1.2017
X0.6485Y-1.2834
X0.6485Y-6.4596
X0.6497Y-3.5373
X0.6564Y-2.4596
X0.665Y-7.131
X0.6675Y-3.5184
X0.6919Y-6.5107
X0.6958Y-6.5462
X0.6997Y-7.1682
X0.7027Y-2.5294
X0.7037Y-1.2824
X0.7037Y-2.433
X0.7037Y-2.7667
X0.7056Y-2.8602
X0.7194Y-1.1485
X0.7391Y-6.4635
X0.7489Y-1.2037
X0.7499Y-1.2863
X0.7509Y-1.0777
X0.7548Y-2.8592
X0.7568Y-2.4389
X0.7568Y-2.7676
X0.7588Y-2.5275
X0.7824Y-1.3651
X0.7824Y-3.5176
X0.8041Y-1.2037
X0.8044Y-3.54
X0.805Y-1.2854
X0.8257Y-2.8375
X0.8336Y-6.5934
X0.8415Y-6.6289
X0.8454Y-3.5501
X0.8533Y-1.1997
X0.8611Y-3.4877
X0.8611Y-6.6525
X0.872Y-2.6928
X0.873Y-2.5993
X0.8769Y-6.684
X0.8934Y-3.6062
X0.9005Y-2.5619
X0.9035Y-1.1751
X0.9044Y-1.2588
X0.9103Y-3.4702
X0.9123Y-2.7509
X0.9123Y-3.6446
X0.921Y-3.5383
X0.924Y-3.5657
X0.9281Y-2.6043
X0.9291Y-2.6919
X0.9438Y-6.4281
X0.9486Y-3.5374
X0.9586Y-1.1751
X0.9586Y-1.2578
X0.9709Y-3.6457
X0.9749Y-3.5348
X0.9776Y-3.5709
X1.0039Y-3.4679
X1.0205Y-3.5622
X1.0278Y-3.4937
X1.0304Y-3.4679
X1.0452Y-3.5176
X1.0462Y-3.5491
X1.0609Y-1.2342
X1.0619Y-1.1495
X1.0934Y-1.1407
X1.1092Y-1.3178
X1.117Y-1.1515
X1.117Y-1.2342
X1.1643Y-3.5491
X1.1672Y-3.5176
X1.184Y-3.4871
X1.2174Y-1.1357
X1.2174Y-1.2184
X1.234Y-3.6212
X1.2646Y-3.6069
X1.2726Y-1.1357
X1.2726Y-1.2174
X1.2863Y-3.5926
X1.3336Y-7.1682
X1.335Y-7.131
X1.3611Y-1.3218
X1.3649Y-6.8699
X1.369Y-6.8218
X1.3739Y-1.1269
X1.3739Y-1.2106
X1.4281Y-1.1259
X1.4281Y-1.2115
X1.4571Y-1.1865
X1.4832Y-1.2194
X1.4911Y-6.3296
X1.5147Y-1.0423
X1.5201Y-6.3499
X1.5324Y-1.1318
X1.5324Y-1.2155
X1.5501Y-6.5501
X1.5515Y-6.5165
X1.5856Y-1.2155
X1.5865Y-1.1328
X1.6218Y-1.1209
X1.6367Y-1.31
X1.6653Y-1.2775
X1.6672Y-1.1928
X1.7204Y-1.2765
X1.7214Y-1.1928
X1.7588Y-6.31
X1.7751Y-6.3499
X1.8001Y-1.3316
X1.8011Y-1.2499
X1.8015Y-6.4202
X1.8257Y-6.5541
X1.8515Y-6.5165
X1.8562Y-1.2489
X1.8572Y-1.3326
X1.8848Y-1.4044
X1.8966Y-1.5304
X1.9015Y-6.5165
X1.9241Y-6.5422
X1.9369Y-1.3326
X1.9369Y-1.4163
X1.9399Y-1.5107
X1.9515Y-6.5165
X1.9666Y-1.436
X1.98Y-6.35
X1.9911Y-1.117
X1.993Y-1.3326
X1.993Y-1.4153
X1.995Y-6.3139
X1.995Y-6.5501
X2.025Y-6.5338
X2.025Y-6.5613
X2.0324Y-1.3336
X2.0324Y-1.37
X2.0422Y-6.7863
X2.0422Y-6.8651
X2.0422Y-7.0501
X2.0462Y-6.9399
X2.0515Y-6.4265
X2.0744Y-1.1167
X2.0856Y-6.4202
X2.0964Y-1.0965
X2.1161Y-1.4025
X2.1166Y-1.3178
X2.185Y-6.6226
X2.185Y-6.6726
X2.185Y-6.7226
X2.185Y-6.7726
X2.185Y-6.8226
X2.185Y-6.8726
X2.185Y-6.9226
X2.185Y-6.9726
X2.185Y-7.0226
X2.185Y-7.0726
X2.2115Y-1.2509
X2.2165Y-1.3798
X2.2174Y-1.2952
X2.2651Y-6.5422
X2.2706Y-1.2796
X2.2745Y-1.3808
X2.3021Y-7.0659
X2.306Y-6.5304
X2.306Y-6.7548
X2.31Y-6.6643
X2.3336Y-6.5029
X2.3336Y-7.1328
X2.3641Y-1.3907
X2.3661Y-1.305
X2.4005Y-7.105
X2.4005Y-7.1367
X2.4202Y-1.3041
X2.4202Y-1.3917
X2.4714Y-1.3021
X2.5186Y-1.2932
X2.5196Y-1.3789
X2.5757Y-1.2932
X2.5767Y-1.3798
X2.612Y-1.356
X2.6249Y-1.2981
X2.6751Y-1.2991
X2.6762Y-1.436
X2.6781Y-1.3887
X2.7273Y-1.3897
X2.7293Y-1.3011
X2.747Y-1.0698
X2.7667Y-1.2981
X2.7901Y-1.0874
X2.8179Y-1.0949
X2.8198Y-1.3346
X2.8228Y-1.4222
X2.8552Y-1.1626
X2.8552Y-1.3336
X2.8749Y-1.4231
X2.9123Y-1.1446
X2.9281Y-1.4989
X2.935Y-1.4074
X2.9377Y-1.4332
X3.0501Y-1.4832
X3.0511Y-1.4015
X3.0586Y-1.4264
X3.1072Y-1.4251
X3.1111Y-1.5176
X3.1367Y-1.3415
X3.1495Y-1.4271
X3.1505Y-1.5176
X3.1987Y-1.538
X3.2076Y-1.3769
X3.2194Y-1.56
X3.2558Y-1.4802
X3.2745Y-1.3218
X3.2863Y-4.1328
X3.2863Y-4.4163
X3.2903Y-3.7667
X3.2952Y-1.4822
X3.3287Y-4.2106
X3.3336Y-4.4596
X3.3415Y-1.5304
X3.3611Y-3.7076
X3.3739Y-1.6604
X3.3789Y-1.5678
X3.3887Y-4.5186
X3.3903Y-4.294
X3.3932Y-3.6125
X3.4044Y-3.4556
X3.4168Y-3.4905
X3.4193Y-3.6101
X3.4261Y-1.6613
X3.43Y-1.5698
X3.432Y-4.558
X3.4431Y-3.4925
X3.4438Y-4.4911
X3.4445Y-4.3163
X3.4449Y-4.2726
X3.4449Y-4.4474
X3.445Y-4.36
X3.445Y-4.4037
X3.4481Y-3.6104
X3.4563Y-1.7043
X3.4576Y-1.6771
X3.465Y-4.2945
X3.465Y-4.3381
X3.465Y-4.3819
X3.465Y-4.4255
X3.4674Y-4.4675
X3.4674Y-4.5147
X3.4753Y-1.4556
X3.4753Y-3.6092
X3.4763Y-3.4925
X3.4832Y-7.1997
X3.4989Y-7.1604
X3.5048Y-6.1938
X3.5065Y-3.4925
X3.5068Y-3.5737
X3.5347Y-3.4925
X3.555Y-4.155
X3.5698Y-6.1604
X3.5708Y-1.7381
X3.5737Y-1.68
X3.5737Y-3.4556
X3.5816Y-4.5501
X3.5856Y-6.1919
X3.5895Y-4.2391
X3.59Y-4.155
X3.5974Y-4.0107
X3.6013Y-4.4674
X3.6013Y-4.4934
X3.6013Y-4.5194
X3.6043Y-1.7529
X3.6092Y-1.6643
X3.62Y-3.84
X3.62Y-3.9
X3.62Y-3.96
X3.6289Y-3.8021
X3.6407Y-2.0265
X3.6446Y-1.7027
X3.6525Y-1.9123
X3.6604Y-2.121
X3.6604Y-7.1407
X3.6612Y-7.0102
X3.6612Y-7.105
X3.665Y-3.87
X3.665Y-3.93
X3.665Y-3.99
X3.6706Y-1.59
X3.6879Y-1.7046
X3.6879Y-2.0265
X3.6879Y-3.3415
X3.6919Y-6.1525
X3.6958Y-6.1919
X3.6958Y-6.2194
X3.6997Y-7.0107
X3.7037Y-4.0934
X3.7037Y-6.2548
X3.7155Y-4.5304
X3.7207Y-2.0505
X3.7211Y-4.1761
X3.7233Y-1.5659
X3.7233Y-1.7696
X3.7314Y-3.3023
X3.7316Y-2.0241
X3.745Y-4.02
X3.75Y-3.3406
X3.752Y-2.0402
X3.7548Y-1.8159
X3.7578Y-1.9123
X3.7667Y-3.5974
X3.7702Y-3.3205
X3.7706Y-3.2548
X3.7724Y-2.0606
X3.7779Y-2.0873
X3.7824Y-1.7303
X3.7824Y-1.8139
X3.7903Y-4.0816
X3.799Y-4.028
X3.8Y-3.635
X3.8037Y-2.0918
X3.812Y-4.002
X3.82Y-4.05
X3.8277Y-1.9192
X3.8296Y-1.8533
X3.83Y-3.59
X3.86Y-3.635
X3.89Y-3.59
X3.8995Y-1.996
X3.9084Y-1.9005
X3.92Y-3.635
X3.9389Y-1.9448
X3.9389Y-2.0245
X3.945Y-3.945
X3.945Y-3.995
X3.945Y-4.045
X3.95Y-3.59
X3.9793Y-1.9281
X3.98Y-3.635
X3.9837Y-2.16
X3.9837Y-2.186
X3.995Y-3.945
X3.995Y-3.995
X3.995Y-4.045
X4.01Y-3.59
X4.0107Y-2.0924
X4.0206Y-1.997
X4.0264Y-2.2953
X4.04Y-3.635
X4.045Y-3.945
X4.045Y-3.995
X4.045Y-4.045
X4.045Y-4.31
X4.0462Y-2.3454
X4.0531Y-2.0432
X4.064Y-1.8646
X4.0659Y-2.2627
X4.07Y-3.59
X4.0777Y-4.3218
X4.0856Y-2.5518
X4.0898Y-2.3514
X4.0974Y-2.5186
X4.0993Y-2.1102
X4.1Y-3.635
X4.1072Y-2.2046
X4.1092Y-1.9438
X4.117Y-1.81
X4.1249Y-2.495
X4.13Y-3.59
X4.1302Y-3.2604
X4.1302Y-3.2863
X4.1302Y-3.3178
X4.1328Y-3.373
X4.1328Y-3.4635
X4.1367Y-2.1102
X4.1367Y-3.2194
X4.16Y-3.635
X4.1617Y-2.0173
X4.1663Y-2.1869
X4.1673Y-2.0513
X4.1761Y-1.9517
X4.184Y-2.5619
X4.19Y-3.59
X4.2017Y-2.1869
X4.2155Y-2.5619
X4.22Y-3.635
X4.2509Y-2.1338
X4.2509Y-2.3887
X4.2509Y-3.6564
X4.2627Y-2.5737
X4.2794Y-2.2302
X4.2854Y-2.1348
X4.3149Y-2.2647
X4.3454Y-2.1997
X4.355Y-3.8
X4.355Y-3.86
X4.355Y-3.92
X4.355Y-3.98
X4.355Y-4.04
X4.355Y-4.1
X4.355Y-4.16
X4.355Y-4.22
X4.355Y-4.28
X4.3611Y-4.3493
X4.373Y-3.7706
X4.3779Y-2.3296
X4.4Y-3.83
X4.4Y-3.89
X4.4Y-3.95
X4.4Y-4.01
X4.4Y-4.07
X4.4Y-4.13
X4.4Y-4.19
X4.4Y-4.25
X4.4Y-4.31
X4.4094Y-2.2332
X4.4143Y-2.3808
X4.4241Y-4.2785
X4.431Y-2.2794
X4.4674Y-2.2706
X4.4753Y-2.1092
X4.477Y-2.4518
X4.4835Y-3.8454
X4.4941Y-2.2997
X4.5029Y-2.4497
X4.5094Y-3.8454
X4.5285Y-2.3749
X4.5354Y-3.8454
X4.5451Y-2.4709
X4.5698Y-3.8454
X4.5895Y-2.4271
X4.6003Y-2.5226
X4.621Y-2.3808
X4.6289Y-2.4251
X4.6357Y-2.5226
X4.6367Y-2.2745
X4.6958Y-2.4359
X4.7322Y-2.56
X4.7371Y-2.4655
X4.7785Y-2.68
X4.7814Y-2.4655
X4.7844Y-2.56
X4.8326Y-2.5856
X4.8769Y-2.5344
X4.8956Y-2.6308
X4.9104Y-2.4919
X4.9163Y-2.5363
X4.947Y-2.3826
X4.9556Y-2.5895
X4.9556Y-2.6643
X4.9832Y-2.3533
X5.0009Y-2.7046
X5.0039Y-2.6062
X5.0452Y-2.6052
X5.0531Y-2.7007
X5.0895Y-2.6564
X5.117Y-2.8926
X5.1387Y-2.5728
X5.1426Y-2.6761
X5.1948Y-2.6761
X5.2273Y-2.6092
X5.2391Y-2.7352
X5.2696Y-2.7548
X5.2706Y-2.6594
X5.2785Y-2.5974
X5.2794Y-2.5019
X5.2942Y-2.4556
X5.3218Y-2.7558
X5.3237Y-2.6604
X5.3326Y-2.5974
X5.3336Y-2.5019
X5.3667Y-2.5702
X5.3769Y-2.9005
X5.3848Y-2.6879
X5.3952Y-2.5262
X5.4064Y-2.7361
X5.4074Y-2.8326
X5.4198Y-2.9592
X5.4274Y-2.8658
X5.4399Y-2.5678
X5.4419Y-2.4694
X5.4596Y-2.7361
X5.4606Y-2.8336
X5.4674Y-2.7706
X5.496Y-2.5669
X5.496Y-2.8631
X5.497Y-2.4704
X5.498Y-2.8956
X5.5777Y-2.2233
X5.5885Y-2.3956
X5.6003Y-2.494
X5.6003Y-2.716
X5.6092Y-3.247
X5.6161Y-2.8533
X5.6161Y-2.8857
X5.617Y-3.1485
X5.6249Y-3.5698
X5.6328Y-2.3926
X5.6466Y-2.494
X5.6643Y-2.8926
X5.6643Y-2.9871
X5.6879Y-3.0264
X5.6968Y-3.2283
X5.7027Y-3.1968
X5.7027Y-3.3533
X5.7037Y-3.3848
X5.7076Y-2.8533
X5.7174Y-2.5216
X5.7204Y-2.9881
X5.7214Y-2.8956
X5.7253Y-2.3041
X5.7273Y-2.4044
X5.728Y-2.7967
X5.7332Y-3.1111
X5.747Y-2.6879
X5.7619Y-2.5851
X5.7647Y-2.3001
X5.7667Y-2.4586
X5.7785Y-2.4035
X5.7883Y-3.0147
X5.7893Y-3.1092
X5.805Y-2.4566
X5.806Y-2.2352
X5.8139Y-2.3808
X5.8208Y-3.5363
X5.8218Y-2.9074
X5.8218Y-3.0029
X5.8237Y-3.2293
X5.8237Y-3.3523
X5.8257Y-3.1997
X5.8267Y-3.3857
X5.8296Y-1.9596
X5.8395Y-2.5176
X5.8405Y-2.5915
X5.8485Y-2.9979
X5.8493Y-3.5363
X5.8513Y-3.434
X5.8533Y-2.2007
X5.871Y-2.3021
X5.8759Y-2.6535
X5.8789Y-2.9074
X5.8808Y-3.0039
X5.8848Y-3.431
X5.9005Y-2.2007
X5.9005Y-2.8454
X5.9044Y-2.3001
X5.9079Y-2.9496
X5.9153Y-3.5974
X5.9172Y-3.5639
X5.9202Y-2.4517
X5.9202Y-3.7194
X5.9212Y-2.559
X5.9359Y-2.1564
X5.9366Y-2.21
X5.9474Y-2.5135
X5.9586Y-2.618
X5.9674Y-2.2391
X5.9802Y-2.9123
X5.9812Y-3.0058
X5.9822Y-2.1062
X5.993Y-2.2037
X5.997Y-2.6003
X6.0058Y-3.7194
X6.0078Y-3.0028
X6.0078Y-3.6889
X6.0216Y-2.6938
X6.0265Y-2.0265
X6.0324Y-2.1072
X6.0334Y-2.6003
X6.0344Y-2.2046
X6.0344Y-2.9113
X6.0344Y-3.0068
X6.0403Y-3.5944
X6.0413Y-3.5639
X6.0422Y-2.8651
X6.0531Y-2.6958
X6.058Y-2.2509
X6.0777Y-2.4596
X6.0822Y-2.376
X6.0924Y-3.6535
X6.0944Y-3.8169
X6.0954Y-3.8493
X6.1003Y-2.0029
X6.1013Y-2.1289
X6.1052Y-3.1092
X6.1104Y-2.4725
X6.1249Y-2.1023
X6.1298Y-2.9251
X6.1318Y-3.7096
X6.1328Y-1.7903
X6.1338Y-3.0157
X6.1357Y-2.0048
X6.1367Y-2.7824
X6.1446Y-2.5708
X6.1456Y-3.9507
X6.1466Y-3.9822
X6.1485Y-2.6623
X6.1584Y-2.1023
X6.1682Y-1.9793
X6.1761Y-4.2194
X6.1889Y-3.0137
X6.1899Y-2.9222
X6.1958Y-3.3021
X6.1978Y-2.6604
X6.1997Y-2.5659
X6.2184Y-3.8503
X6.2204Y-3.8159
X6.2273Y-1.9054
X6.2352Y-2.058
X6.242Y-2.0039
X6.2627Y-3.0186
X6.2667Y-3.4714
X6.2667Y-3.7391
X6.2667Y-4.0629
X6.2716Y-3.9812
X6.2726Y-3.9527
X6.2735Y-1.9074
X6.2834Y-2.0058
X6.2903Y-2.9419
X6.3011Y-2.5718
X6.306Y-2.6633
X6.3107Y-3.2365
X6.3218Y-4.0137
X6.3336Y-1.8375
X6.3375Y-2.1013
X6.3434Y-2.9448
X6.3465Y-3.2739
X6.3562Y-4.0107
X6.3572Y-2.5728
X6.3582Y-2.6653
X6.369Y-1.8169
X6.369Y-4.1033
X6.373Y-3.0186
X6.3907Y-1.9202
X6.4044Y-1.8178
X6.4084Y-3.0216
X6.4143Y-4.1003
X6.4163Y-1.5659
X6.424Y-3.1997
X6.4241Y-1.7667
X6.4271Y-1.9212
X6.4448Y-2.9537
X6.4468Y-4.0334
X6.4556Y-1.9871
X6.4586Y-2.5708
X6.4615Y-2.6623
X6.4714Y-1.8533
X6.4714Y-3.369
X6.4901Y-2.9556
X6.4989Y-4.1328
X6.5009Y-4.0354
X6.5058Y-1.8208
X6.5117Y-2.6653
X6.5117Y-3.0521
X6.5127Y-1.7243
X6.5127Y-2.5728
X6.5481Y-1.7233
X6.5521Y-1.8188
X6.5678Y-3.3961
X6.5696Y-2.3087
X6.5816Y-3.9596
X6.6033Y-3.06
X6.6052Y-2.9674
X6.6072Y-4.2145
X6.6141Y-2.5698
X6.6151Y-2.6633
X6.617Y-4.121
X6.6436Y-1.6653
X6.6525Y-1.7617
X6.6525Y-3.31
X6.6564Y-1.432
X6.6584Y-2.9684
X6.6584Y-3.058
X6.6613Y-4.1682
X6.6643Y-4.1289
X6.6682Y-2.5728
X6.6712Y-2.6604
X6.6722Y-3.6997
X6.6751Y-4.248
X6.684Y-1.8651
X6.6889Y-1.6613
X6.6997Y-1.7617
X6.7076Y-4.1741
X6.7115Y-3.5619
X6.7145Y-3.0983
X6.7273Y-3.1643
X6.7352Y-1.6682
X6.743Y-1.5816
X6.758Y-2.0171
X6.7598Y-4.1771
X6.7637Y-4.2657
X6.7676Y-2.5619
X6.7735Y-3.0334
X6.7745Y-4.0698
X6.7785Y-2.6722
X6.8001Y-3.1239
X6.8031Y-1.6239
X6.806Y-1.7194
X6.8139Y-2.9832
X6.8228Y-4.2873
X6.8237Y-2.5649
X6.8287Y-2.6653
X6.8326Y-3.0481
X6.8464Y-1.7184
X6.8513Y-1.623
X6.8533Y-4.2293
X6.8607Y-3.431
X6.8828Y-3.1751
X6.8857Y-3.0796
X6.9064Y-4.2293
X6.9084Y-4.3169
X6.9231Y-2.6318
X6.9271Y-2.5432
X6.9369Y-3.0826
X6.9389Y-3.1751
X6.9438Y-4.6052
X6.9546Y-1.5728
X6.9606Y-1.6692
X6.9606Y-4.3572
X6.9793Y-1.8848
X6.9802Y-2.6318
X6.9822Y-2.5413
X6.9852Y-1.5728
X6.992Y-4.305
X6.9989Y-1.427
X7.0048Y-1.6682
X7.0107Y-2.8493
X7.0133Y-1.5324
X7.0133Y-2.1568
X7.0133Y-2.3299
X7.0186Y-3.2253
X7.0304Y-4.0856
X7.0442Y-4.306
X7.0462Y-4.3946
X7.058Y-3.1328
X7.0587Y-1.6545
X7.0619Y-1.6092
X7.0629Y-3.2243
X7.0816Y-2.6013
X7.0865Y-2.5078
X7.0932Y-1.6985
X7.0944Y-1.5117
X7.1018Y-1.6016
X7.1102Y-3.1367
X7.122Y-1.8533
X7.1387Y-2.5117
X7.1407Y-2.6023
X7.1426Y-3.2972
X7.1446Y-1.369
X7.1466Y-4.3415
X7.1466Y-4.4291
X7.1495Y-1.6043
X7.1525Y-1.5147
X7.1605Y-1.8877
X7.1879Y-2.6328
X7.1928Y-3.2972
X7.1938Y-3.2086
X7.1987Y-4.3444
X7.1997Y-0.743
X7.2008Y-1.499
X7.2233Y-0.9714
X7.2283Y-2.5481
X7.2302Y-2.4478
X7.2352Y-1.7627
X7.2381Y-4.4143
X7.2539Y-3.2243
X7.2539Y-3.6427
X7.2548Y-1.494
X7.2548Y-1.5836
X7.2588Y-0.3375
X7.2588Y-0.8139
X7.2622Y-2.7663
X7.2824Y-2.4019
X7.2824Y-2.4487
X7.2834Y-2.5462
X7.2922Y-4.3562
X7.2952Y-4.4487
X7.309Y-1.493
X7.31Y-1.5856
X7.3139Y-0.4005
X7.3139Y-0.4635
X7.3139Y-0.5265
X7.3139Y-0.5895
X7.3139Y-0.6485
X7.3139Y-0.7115
X7.3139Y-0.7745
X7.3139Y-0.8375
X7.3139Y-0.9005
X7.3178Y-2.7942
X7.3228Y-3.2115
X7.3247Y-3.31
X7.3375Y-0.9635
X7.3474Y-3.8347
X7.3474Y-4.3602
X7.3474Y-4.4468
X7.3651Y-0.3336
X7.3651Y-0.369
X7.3651Y-0.432
X7.3651Y-0.495
X7.3651Y-0.558
X7.3651Y-0.621
X7.3651Y-0.68
X7.3651Y-0.743
X7.3651Y-0.806
X7.3651Y-0.869
X7.3651Y-0.932
X7.3739Y-3.2174
X7.3769Y-1.5895
X7.3769Y-2.8966
X7.3779Y-3.308
X7.3867Y-2.4497
X7.3867Y-2.5462
X7.3887Y-0.9674
X7.4061Y-1.7276
X7.4061Y-2.376
X7.4123Y-1.243
X7.4163Y-1.4842
X7.4172Y-1.5757
X7.432Y-1.3415
X7.4409Y-2.5442
X7.4419Y-2.4497
X7.4468Y-4.3848
X7.4478Y-3.9871
X7.4478Y-4.4704
X7.4517Y-1.6643
X7.4586Y-3.3454
X7.4617Y-1.7829
X7.4641Y-1.8318
X7.4704Y-1.5777
X7.4714Y-1.0619
X7.4714Y-1.4832
X7.4793Y-1.3843
X7.4911Y-1.0147
X7.492Y-3.2499
X7.4989Y-3.3464
X7.5005Y-1.6863
X7.5019Y-4.4714
X7.5029Y-4.3848
X7.5068Y-0.3296
X7.5068Y-1.4674
X7.5107Y-1.247
X7.5186Y-1.1367
X7.526Y-1.495
X7.5309Y-1.2671
X7.5324Y-3.2509
X7.5334Y-2.5442
X7.5344Y-2.4448
X7.5422Y-1.8257
X7.5501Y-1.0856
X7.5541Y-1.2903
X7.5541Y-1.4753
X7.5564Y-1.6608
X7.5737Y-1.5846
X7.5747Y-1.495
X7.5816Y-1.3104
X7.5856Y-1.1367
X7.5856Y-1.6608
X7.5885Y-2.4419
X7.5895Y-2.5432
X7.5905Y-2.4054
X7.6018Y-1.3389
X7.6043Y-4.4123
X7.6072Y-4.498
X7.6131Y-1.0856
X7.6131Y-3.2804
X7.617Y-1.4517
X7.6249Y-0.3493
X7.6249Y-2.3434
X7.6269Y-1.5856
X7.6289Y-3.3749
X7.6308Y-1.492
X7.6446Y-1.1367
X7.6513Y-1.4359
X7.6564Y-0.3769
X7.6594Y-4.4123
X7.6643Y-4.498
X7.6756Y-1.4517
X7.6761Y-1.0856
X7.68Y-3.3759
X7.6806Y-2.3434
X7.683Y-2.4369
X7.684Y-0.6919
X7.684Y-0.7548
X7.6879Y-0.4596
X7.6993Y-1.4359
X7.7027Y-3.2765
X7.7076Y-1.1367
X7.7115Y-4.5147
X7.7194Y-1.4719
X7.7322Y-1.5718
X7.7391Y-1.0856
X7.747Y-1.7613
X7.7512Y-2.5217
X7.7529Y-4.4704
X7.7667Y-0.6919
X7.7667Y-0.7509
X7.7686Y-2.3326
X7.7686Y-2.4251
X7.7706Y-1.1367
X7.7854Y-3.3562
X7.7863Y-1.4719
X7.7873Y-1.5737
X7.7873Y-3.4438
X7.7903Y-1.4202
X7.7962Y-4.4694
X7.8021Y-1.0856
X7.806Y-4.806
X7.8135Y-1.4085
X7.8178Y-3.4527
X7.8211Y-1.4793
X7.8218Y-1.6441
X7.8237Y-2.3306
X7.8252Y-1.4537
X7.8257Y-1.5422
X7.8277Y-2.4271
X7.8281Y-1.3871
X7.8336Y-1.1367
X7.8336Y-3.3552
X7.8365Y-4.5147
X7.8461Y-1.6291
X7.8611Y-1.2981
X7.8651Y-1.0856
X7.873Y-2.2233
X7.8808Y-0.5265
X7.8848Y-1.2706
X7.8887Y-2.0934
X7.8887Y-3.3808
X7.896Y-1.7074
X7.8966Y-1.1367
X7.8985Y-4.6584
X7.8995Y-4.5639
X7.8996Y-1.561
X7.9044Y-2.5107
X7.9113Y-3.4537
X7.9113Y-3.5363
X7.9163Y-4.0107
X7.9241Y-0.719
X7.9251Y-4.6584
X7.9281Y-1.0856
X7.9291Y-2.3434
X7.932Y-1.3926
X7.932Y-2.4438
X7.9359Y-1.4606
X7.9359Y-1.5531
X7.9389Y-4.5629
X7.9527Y-0.7031
X7.9674Y-1.302
X7.9724Y-3.4635
X7.9753Y-0.3178
X7.9793Y-1.1564
X7.9802Y-3.4989
X7.9852Y-2.4419
X7.9871Y-2.0171
X7.9871Y-2.3454
X7.997Y-0.6003
X8.001Y-4.1296
X8.0054Y-3.1587
X8.0071Y-0.911
X8.0117Y-4.6289
X8.0127Y-4.5363
X8.025Y-0.3213
X8.0252Y-0.4422
X8.0257Y-0.4019
X8.0261Y-0.3616
X8.0294Y-3.5098
X8.0304Y-0.4824
X8.0324Y-1.4438
X8.0344Y-0.9674
X8.0344Y-1.1092
X8.0344Y-3.6043
X8.0373Y-1.5393
X8.0481Y-0.422
X8.0485Y-0.4623
X8.0487Y-0.3415
X8.0487Y-0.3817
X8.0552Y-4.2017
X8.0629Y-4.5344
X8.0649Y-4.6298
X8.0659Y-3.0895
X8.0698Y-2.9359
X8.0723Y-0.9117
X8.0737Y-2.3218
X8.0757Y-2.5009
X8.0777Y-0.7155
X8.0777Y-0.7785
X8.0777Y-0.8415
X8.0826Y-1.5383
X8.0836Y-1.4438
X8.0856Y-3.5107
X8.0905Y-3.6003
X8.0933Y-2.5719
X8.0934Y-0.6452
X8.0954Y-2.3985
X8.0974Y-0.3218
X8.1001Y-4.2293
X8.1013Y-1.9753
X8.1052Y-0.4989
X8.1052Y-3.6643
X8.1131Y-0.9084
X8.1145Y-3.5569
X8.121Y-1.3966
X8.1257Y-0.6939
X8.1268Y-4.5372
X8.1269Y-2.4999
X8.1289Y-0.747
X8.1289Y-0.81
X8.1289Y-0.873
X8.1417Y-0.6733
X8.1417Y-2.4005
X8.1446Y-1.5068
X8.1477Y-1.9432
X8.1574Y-4.5993
X8.1594Y-1.4694
X8.1869Y-3.5196
X8.1909Y-3.6141
X8.1911Y-3.6431
X8.2115Y-4.5964
X8.2135Y-1.4694
X8.2293Y-2.5127
X8.2319Y-1.7302
X8.2322Y-2.4163
X8.2352Y-0.5777
X8.2371Y-3.5186
X8.2411Y-3.6131
X8.245Y-4.5245
X8.247Y-0.3218
X8.2509Y-1.4084
X8.2588Y-2.8257
X8.2616Y-1.7312
X8.2627Y-1.2548
X8.2667Y-1.4753
X8.2667Y-3.6879
X8.2667Y-3.6879
X8.273Y-3.1367
X8.2753Y-4.306
X8.2785Y-1.1052
X8.2786Y-2.7663
X8.2809Y-2.1843
X8.2863Y-2.5117
X8.2873Y-4.5718
X8.2989Y-2.2802
X8.3042Y-1.7722
X8.3119Y-4.4871
X8.3178Y-0.3218
X8.3178Y-1.4084
X8.3242Y-2.4044
X8.3242Y-2.4329
X8.3257Y-1.3808
X8.3262Y-1.5024
X8.3296Y-6.5501
X8.3336Y-3.4714
X8.3356Y-4.5718
X8.3359Y-4.4393
X8.3362Y-1.5291
X8.3375Y-2.5058
X8.338Y-2.716
X8.3424Y-3.5373
X8.3464Y-3.6279
X8.3479Y-2.3289
X8.3493Y-2.3848
X8.3493Y-6.6367
X8.3508Y-2.3548
X8.3517Y-6.5817
X8.3549Y-4.3602
X8.357Y-3.3099
X8.3582Y-4.4822
X8.3611Y-0.5659
X8.365Y-6.6093
X8.373Y-0.3218
X8.3739Y-3.6762
X8.3887Y-1.6682
X8.3946Y-3.5403
X8.4015Y-3.6328
X8.4024Y-4.3848
X8.4162Y-3.3187
X8.4202Y-3.8257
X8.4241Y-3.7785
X8.425Y-6.5817
X8.425Y-6.6093
X8.4281Y-0.3178
X8.4291Y-4.4527
X8.433Y-4.5275
X8.4347Y-3.7466
X8.4359Y-2.5226
X8.4359Y-3.7194
X8.4359Y-6.5462
X8.4372Y-3.2935
X8.4373Y-3.6796
X8.4385Y-2.4202
X8.4517Y-6.6485
X8.4607Y-1.5954
X8.4714Y-0.3218
X8.4842Y-4.4458
X8.4852Y-4.5235
X8.5029Y-1.4871
X8.5029Y-3.6761
X8.5039Y-1.3779
X8.5062Y-1.2082
X8.5062Y-1.2875
X8.5067Y-3.7136
X8.5068Y-3.7509
X8.5068Y-3.7824
X8.5068Y-3.5619
X8.5105Y-2.9606
X8.5122Y-2.4345
X8.5147Y-3.3505
X8.5195Y-0.3245
X8.5375Y-3.0897
X8.5432Y-3.5737
X8.5467Y-0.3232
X8.5472Y-2.4172
X8.5472Y-3.6692
X8.5481Y-2.5196
X8.5511Y-1.3887
X8.5511Y-1.4743
X8.5541Y-3.806
X8.5737Y-0.3218
X8.5737Y-3.0147
X8.5776Y-1.5281
X8.5856Y-1.5777
X8.5895Y-1.3178
X8.5895Y-2.4182
X8.5906Y-2.3089
X8.5924Y-2.5167
X8.5956Y-2.2325
X8.5974Y-1.1525
X8.5978Y-1.5073
X8.5999Y-0.3192
X8.611Y-1.9699
X8.6121Y-4.435
X8.6142Y-2.2701
X8.6162Y-2.1929
X8.62Y-4.5235
X8.6279Y-0.3188
X8.6289Y-1.5422
X8.6367Y-3.5708
X8.6377Y-3.6633
X8.6385Y-2.2145
X8.6559Y-0.3183
X8.6567Y-1.3899
X8.6643Y-4.7352
X8.6663Y-4.4359
X8.6682Y-1.4394
X8.6722Y-1.5462
X8.6751Y-4.5216
X8.684Y-0.3178
X8.685Y-3.5698
X8.6879Y-3.7981
X8.6909Y-3.6613
X8.6978Y-2.4222
X8.7066Y-2.5196
X8.7146Y-0.2864
X8.7233Y-1.5462
X8.7312Y-1.4399
X8.7354Y-3.6783
X8.7363Y-0.3065
X8.747Y-2.4222
X8.7509Y-0.2636
X8.7509Y-2.3336
X8.7509Y-2.5186
X8.7578Y-3.4852
X8.7588Y-0.4911
X8.7617Y-2.1525
X8.7627Y-2.7785
X8.7667Y-1.5226
X8.7686Y-4.4291
X8.7686Y-4.5176
X8.7706Y-0.1249
X8.7706Y-1.4359
X8.7745Y-0.1741
X8.7745Y-0.2031
X8.7745Y-0.2435
X8.7745Y-0.2838
X8.7804Y-3.5757
X8.7824Y-2.1249
X8.7934Y-0.4792
X8.7981Y-0.1611
X8.806Y-1.869
X8.8119Y-3.4832
X8.8129Y-1.4074
X8.8139Y-1.494
X8.8194Y-0.4792
X8.8208Y-4.43
X8.8218Y-3.5767
X8.8228Y-4.5196
X8.8442Y-3.4819
X8.8454Y-0.4792
X8.8454Y-4.0068
X8.8523Y-2.43
X8.8582Y-2.5235
X8.8594Y-3.3505
X8.8637Y-0.2416
X8.867Y-1.4074
X8.868Y-1.495
X8.869Y-3.306
X8.8694Y-3.4241
X8.873Y-0.1249
X8.8793Y-1.9497
X8.8808Y-0.4871
X8.8887Y-3.6525
X8.8985Y-0.3228
X8.9005Y-0.2913
X8.9025Y-4.4832
X8.9044Y-2.4291
X8.9089Y-3.4628
X8.9094Y-2.5285
X8.9192Y-3.497
X8.9192Y-4.3966
X8.9212Y-3.5924
X8.9281Y-0.2076
X8.9399Y-1.6958
X8.9546Y-1.3395
X8.9556Y-5.7824
X8.9596Y-1.4359
X8.9596Y-2.5186
X8.9606Y-2.559
X8.9645Y-0.3503
X8.9684Y-3.498
X8.9714Y-1.3139
X8.9753Y-4.3966
X8.9793Y-3.5905
X8.9832Y-0.1328
X8.9976Y-3.4974
X9.0009Y-1.3405
X9.0068Y-0.4044
X9.0068Y-4.4753
X9.0107Y-0.435
X9.0117Y-1.434
X9.0147Y-1.2194
X9.0196Y-4.4416
X9.025Y-5.715
X9.025Y-5.855
X9.0265Y-0.5462
X9.0265Y-4.2352
X9.0275Y-3.4861
X9.0314Y-0.2824
X9.0354Y-2.4783
X9.0403Y-4.4733
X9.0472Y-2.5816
X9.0501Y-1.4163
X9.0541Y-2.31
X9.058Y-0.1761
X9.0619Y-0.8848
X9.0638Y-4.2291
X9.0708Y-3.5432
X9.0728Y-4.4005
X9.0777Y-0.5413
X9.0787Y-0.5737
X9.0905Y-1.3543
X9.0924Y-1.2637
X9.0934Y-4.247
X9.0944Y-3.4497
X9.0974Y-1.1367
X9.1151Y-3.5442
X9.1249Y-0.2667
X9.1249Y-0.3611
X9.1249Y-4.4044
X9.1259Y-2.6436
X9.1289Y-2.5363
X9.1344Y-1.4421
X9.1417Y-0.4369
X9.1426Y-1.2627
X9.1426Y-1.3543
X9.1446Y-1.0501
X9.1554Y-4.4891
X9.1564Y-7.0107
X9.1604Y-1.2273
X9.1682Y-2.058
X9.1692Y-0.6771
X9.1761Y-1.8139
X9.1761Y-2.5354
X9.18Y-2.6387
X9.1844Y-0.4281
X9.1879Y-0.3178
X9.1879Y-2.8296
X9.1924Y-0.4689
X9.2007Y-4.4852
X9.2037Y-0.4005
X9.2046Y-0.7509
X9.2074Y-0.4901
X9.2081Y-0.4482
X9.2106Y-0.5413
X9.2106Y-0.5728
X9.2115Y-1.3218
X9.2155Y-3.8611
X9.2184Y-3.4783
X9.22Y-5.54
X9.22Y-5.6
X9.22Y-5.66
X9.22Y-5.705
X9.2214Y-1.1987
X9.2233Y-5.4871
X9.2233Y-7.1761
X9.2283Y-4.4044
X9.2336Y-0.5292
X9.2348Y-0.4988
X9.2352Y-3.3857
X9.243Y-1.2922
X9.247Y-0.7785
X9.2484Y-1.0462
X9.2509Y-0.9163
X9.2548Y-1.1987
X9.2578Y-2.4635
X9.258Y-7.0422
X9.258Y-7.105
X9.2588Y-3.5501
X9.2607Y-2.56
X9.2617Y-0.9399
X9.2627Y-3.4802
X9.265Y-5.57
X9.265Y-5.63
X9.2686Y-1.1436
X9.2706Y-1.1131
X9.2716Y-3.3818
X9.2741Y-0.5457
X9.2745Y-0.5197
X9.2785Y-1.2932
X9.2823Y-0.5707
X9.2854Y-4.4054
X9.2913Y-0.6791
X9.2932Y-0.7106
X9.3Y-5.835
X9.3109Y-4.4842
X9.3149Y-2.1274
X9.3159Y-2.5619
X9.3169Y-2.4665
X9.3211Y-5.9011
X9.325Y-5.795
X9.3257Y-7.0344
X9.3266Y-0.9359
X9.327Y-5.7003
X9.3272Y-0.6557
X9.3287Y-3.3336
X9.3296Y-1.0373
X9.3296Y-5.9832
X9.3306Y-0.7804
X9.3306Y-3.4241
X9.3316Y-0.8808
X9.3336Y-7.1761
X9.349Y-5.7192
X9.3513Y-4.4793
X9.3533Y-5.5029
X9.3562Y-1.0767
X9.3572Y-6.1092
X9.369Y-5.2745
X9.3759Y-4.3917
X9.3795Y-2.2631
X9.3887Y-1.4241
X9.3936Y-1.12
X9.3985Y-1.2233
X9.4Y-5.335
X9.4005Y-1.2578
X9.4035Y-3.4261
X9.4074Y-2.4773
X9.4074Y-2.5777
X9.4123Y-0.8572
X9.4163Y-3.4911
X9.42Y-1.0135
X9.4203Y-0.9842
X9.4291Y-3.3277
X9.4291Y-4.3907
X9.43Y-5.29
X9.4399Y-5.9753
X9.4478Y-0.6564
X9.4517Y-1.18
X9.4556Y-1.6249
X9.4586Y-2.4812
X9.46Y-5.335
X9.4615Y-2.5796
X9.4635Y-4.4714
X9.4724Y-1.3779
X9.4743Y-1.3474
X9.49Y-5.29
X9.4911Y-4.6367
X9.5039Y-4.4674
X9.5048Y-4.3887
X9.5088Y-3.435
X9.5098Y-3.3356
X9.52Y-5.335
X9.5235Y-1.2519
X9.5235Y-1.5334
X9.5255Y-1.4999
X9.5344Y-0.8769
X9.545Y-5.645
X9.545Y-5.695
X9.545Y-5.745
X9.55Y-5.29
X9.5501Y-3.4871
X9.5541Y-1.2509
X9.5659Y-1.6476
X9.5659Y-2.493
X9.5659Y-3.3346
X9.5668Y-3.8374
X9.5669Y-1.68
X9.5678Y-2.5895
X9.5688Y-3.4291
X9.58Y-5.335
X9.595Y-5.645
X9.595Y-5.695
X9.595Y-5.745
X9.5964Y-1.3808
X9.6072Y-4.3867
X9.61Y-5.29
X9.6136Y-1.3296
X9.618Y-2.5905
X9.619Y-4.4556
X9.6367Y-2.4832
X9.6387Y-1.8228
X9.6397Y-1.7913
X9.64Y-5.335
X9.6446Y-1.3021
X9.6448Y-4.4589
X9.645Y-5.645
X9.645Y-5.695
X9.645Y-5.745
X9.6461Y-6.0139
X9.6485Y-1.5009
X9.6485Y-1.5324
X9.6564Y-3.309
X9.6564Y-3.4005
X9.6565Y-2.2833
X9.6682Y-6.0462
X9.67Y-5.29
X9.6781Y-4.3946
X9.6844Y-6.0139
X9.6928Y-1.6781
X9.6968Y-1.6476
X9.7Y-5.335
X9.7096Y-3.307
X9.7155Y-3.4015
X9.716Y-3.883
X9.7194Y-2.4861
X9.7194Y-2.5856
X9.7194Y-3.6407
X9.7233Y-1.1879
X9.7273Y-1.9064
X9.7293Y-1.9409
X9.73Y-5.29
X9.7302Y-4.3926
X9.738Y-1.6461
X9.76Y-5.335
X9.7607Y-4.4714
X9.7647Y-1.8228
X9.7676Y-1.7922
X9.7746Y-2.5865
X9.7755Y-2.4871
X9.7824Y-3.4989
X9.7843Y-1.7455
X9.79Y-5.29
X9.7922Y-4.4822
X9.806Y-6.0383
X9.8129Y-3.31
X9.8149Y-3.4005
X9.82Y-5.335
X9.8346Y-4.4231
X9.845Y-6.0835
X9.845Y-6.1272
X9.845Y-6.1708
X9.845Y-6.2145
X9.8481Y-1.6822
X9.8483Y-1.9133
X9.8513Y-1.8749
X9.8572Y-5.2863
X9.8614Y-4.1296
X9.865Y-6.149
X9.865Y-6.1927
X9.865Y-6.2364
X9.8652Y-6.0616
X9.8655Y-6.1053
X9.8661Y-3.4025
X9.87Y-3.31
X9.8759Y-2.4527
X9.8769Y-2.5521
X9.8789Y-4.4251
X9.8936Y-1.9379
X9.8946Y-2.0422
X9.9113Y-4.4783
X9.9123Y-1.7391
X9.9163Y-1.806
X9.9271Y-4.56
X9.9281Y-2.4527
X9.9281Y-2.5511
X9.9438Y-1.5186
X9.9478Y-2.8769
X9.9487Y-1.9369
X9.9517Y-2.0422
X9.955Y-5.5
X9.955Y-5.56
X9.955Y-5.62
X9.955Y-5.68
X9.955Y-5.74
X9.955Y-5.8
X9.955Y-5.86
X9.955Y-5.92
X9.955Y-5.98
X9.9596Y-3.2516
X9.9596Y-4.3399
X9.9635Y-4.6682
X9.9655Y-3.4192
X9.9677Y-4.1552
X9.9684Y-3.3267
X9.9714Y-4.4989
X9.9753Y-6.0541
X9.9812Y-2.0718
X9.9837Y-4.6952
X9.9842Y-2.1052
X9.9861Y-1.8907
X9.995Y-5.4674
X9.9999Y-1.7962
X10.0Y-5.53
X10.0Y-5.59
X10.0Y-5.65
X10.0Y-5.71
X10.0Y-5.77
X10.0Y-5.83
X10.0Y-5.89
X10.0Y-5.95
X10.0Y-6.01
X10.0009Y-1.9763
X10.0147Y-3.4871
X10.0186Y-4.5029
X10.0226Y-4.6411
X10.0235Y-3.3247
X10.0235Y-3.4133
X10.0324Y-2.4537
X10.0344Y-2.5531
X10.0363Y-1.7342
X10.0409Y-2.1727
X10.0428Y-1.8811
X10.0462Y-4.5462
X10.0816Y-2.4566
X10.0826Y-2.2145
X10.0836Y-2.181
X10.0856Y-1.6663
X10.0865Y-2.5521
X10.0924Y-1.8316
X10.0964Y-4.6082
X10.1013Y-5.0029
X10.1023Y-4.7096
X10.1052Y-2.0718
X10.1052Y-3.7588
X10.1072Y-2.1043
X10.1151Y-1.9428
X10.117Y-1.9064
X10.117Y-4.0304
X10.119Y-3.4635
X10.1239Y-1.618
X10.1239Y-1.7716
X10.1239Y-3.368
X10.1495Y-3.7893
X10.1525Y-1.9281
X10.1554Y-3.7588
X10.1564Y-4.617
X10.1604Y-4.682
X10.1613Y-2.6328
X10.1653Y-3.9035
X10.1653Y-3.9369
X10.1663Y-2.5334
X10.1692Y-3.4625
X10.1692Y-4.7233
X10.1712Y-3.369
X10.1722Y-1.7115
X10.1791Y-2.3159
X10.183Y-2.3493
X10.184Y-4.2037
X10.2007Y-2.7174
X10.2037Y-2.184
X10.2046Y-2.6869
X10.2056Y-2.2155
X10.2066Y-3.6151
X10.2076Y-2.5324
X10.2086Y-1.6663
X10.2106Y-3.6485
X10.2155Y-3.1249
X10.2155Y-3.5422
X10.2155Y-4.0275
X10.2165Y-3.2233
X10.2174Y-2.6338
X10.2224Y-3.0688
X10.2233Y-2.808
X10.2233Y-4.1239
X10.2243Y-2.9084
X10.2253Y-2.9724
X10.2263Y-3.306
X10.2273Y-3.4478
X10.2283Y-3.4783
X10.2391Y-4.7568
X10.2401Y-1.5157
X10.2415Y-4.3235
X10.242Y-4.6269
X10.243Y-4.8021
X10.244Y-4.5413
X10.248Y-2.0865
X10.2489Y-2.185
X10.2548Y-3.37
X10.2568Y-1.6151
X10.2617Y-4.6554
X10.2676Y-4.1958
X10.2676Y-4.2293
X10.2755Y-1.5167
X10.2765Y-3.7607
X10.2775Y-4.0324
X10.2775Y-4.5373
X10.2794Y-3.7913
X10.2883Y-1.6151
X10.2903Y-4.6997
X10.2913Y-3.9369
X10.2922Y-3.121
X10.2922Y-3.9025
X10.2962Y-2.809
X10.2972Y-2.9094
X10.2972Y-2.9665
X10.3001Y-2.3159
X10.3011Y-3.2184
X10.3021Y-2.0865
X10.3031Y-2.3493
X10.3031Y-3.0688
X10.305Y-2.1859
X10.306Y-4.6003
X10.3109Y-2.5511
X10.3119Y-2.6476
X10.3139Y-3.8572
X10.3139Y-4.0924
X10.3159Y-2.496
X10.3169Y-3.4143
X10.3171Y-4.3508
X10.3247Y-2.6869
X10.3247Y-2.7204
X10.3247Y-4.8277
X10.3267Y-3.5117
X10.3296Y-1.2588
X10.3296Y-3.6161
X10.3296Y-3.6466
X10.3316Y-4.7322
X10.3336Y-4.6919
X10.3375Y-1.7155
X10.3395Y-2.3936
X10.3424Y-2.494
X10.3454Y-4.3375
X10.3464Y-3.3415
X10.3493Y-4.306
X10.3503Y-3.307
X10.3572Y-4.9556
X10.3602Y-2.5511
X10.3602Y-4.4901
X10.3631Y-1.4281
X10.3651Y-4.0659
X10.367Y-2.6495
X10.373Y-2.1672
X10.373Y-2.3946
X10.3759Y-3.5088
X10.3759Y-4.8296
X10.3867Y-4.7342
X10.3956Y-1.5226
X10.3966Y-1.4281
X10.3985Y-4.2273
X10.3995Y-4.1978
X10.4044Y-4.5895
X10.4064Y-3.4379
X10.4074Y-2.5728
X10.4084Y-3.3769
X10.4094Y-4.9084
X10.4123Y-4.8769
X10.4143Y-4.492
X10.4241Y-2.3178
X10.4291Y-1.5226
X10.433Y-4.435
X10.435Y-2.1003
X10.435Y-4.4733
X10.4389Y-2.6407
X10.4399Y-2.1928
X10.4438Y-2.4084
X10.4448Y-4.2942
X10.4478Y-4.8139
X10.4566Y-4.9409
X10.4596Y-2.699
X10.4596Y-3.4389
X10.4596Y-4.558
X10.4645Y-3.5383
X10.4733Y-1.309
X10.4733Y-2.6751
X10.4773Y-2.5472
X10.4791Y-4.704
X10.4832Y-2.2312
X10.4832Y-3.617
X10.4861Y-4.3316
X10.495Y-2.0856
X10.495Y-4.8415
X10.496Y-2.1357
X10.498Y-1.4005
X10.5029Y-5.0363
X10.5039Y-5.0029
X10.512Y-4.4345
X10.5157Y-1.31
X10.5265Y-4.6121
X10.5285Y-4.6417
X10.5297Y-4.733
X10.5304Y-2.6082
X10.5304Y-2.7411
X10.5344Y-1.5147
X10.5383Y-1.3985
X10.5481Y-2.2981
X10.5491Y-2.6535
X10.5511Y-2.5088
X10.5511Y-3.4468
X10.5511Y-3.5403
X10.5541Y-2.2115
X10.5629Y-4.4694
X10.5688Y-2.7883
X10.5698Y-4.432
X10.5718Y-2.8257
X10.5737Y-5.3611
X10.5856Y-3.369
X10.5856Y-4.9478
X10.5905Y-1.242
X10.5934Y-2.3483
X10.5934Y-2.4428
X10.5934Y-5.5344
X10.5954Y-2.7027
X10.5974Y-5.1131
X10.5983Y-5.1495
X10.6066Y-3.4478
X10.6102Y-3.5403
X10.6131Y-2.2755
X10.6141Y-4.7243
X10.6161Y-4.5511
X10.617Y-5.243
X10.618Y-4.7558
X10.621Y-5.621
X10.6249Y-5.8296
X10.6289Y-1.3336
X10.6298Y-5.0363
X10.6328Y-4.8178
X10.6348Y-1.244
X10.6357Y-4.4546
X10.6357Y-5.0039
X10.6402Y-5.8808
X10.6407Y-2.4163
X10.6446Y-0.3887
X10.6446Y-5.9871
X10.6476Y-4.5777
X10.6495Y-4.6082
X10.6519Y-4.8857
X10.6525Y-2.2273
X10.6525Y-5.617
X10.6564Y-2.7115
X10.6564Y-2.9793
X10.6584Y-2.3228
X10.6604Y-2.7686
X10.6653Y-1.3336
X10.6722Y-2.5895
X10.6743Y-5.5934
X10.6751Y-2.4773
X10.6771Y-2.5088
X10.6879Y-4.4576
X10.6879Y-5.182
X10.6928Y-2.8267
X10.6978Y-2.4615
X10.6997Y-0.6682
X10.7007Y-4.5531
X10.7056Y-4.8316
X10.7076Y-3.4507
X10.7086Y-3.5403
X10.7086Y-5.3336
X10.7115Y-5.3651
X10.7115Y-5.6485
X10.7138Y-5.1841
X10.7145Y-5.494
X10.7155Y-5.1152
X10.7165Y-5.5294
X10.7194Y-2.3887
X10.7194Y-6.0698
X10.7253Y-5.805
X10.7302Y-2.8395
X10.7312Y-4.9556
X10.7323Y-0.4651
X10.7361Y-2.9359
X10.7371Y-4.9212
X10.7411Y-2.5334
X10.7411Y-4.7253
X10.742Y-4.7568
X10.743Y-0.621
X10.743Y-5.6131
X10.746Y-5.2499
X10.7558Y-1.1997
X10.7577Y-0.4794
X10.7607Y-4.4655
X10.7617Y-3.4487
X10.7627Y-5.8808
X10.7627Y-5.9714
X10.7657Y-3.5383
X10.7667Y-1.4202
X10.7676Y-1.2893
X10.7706Y-3.0107
X10.7717Y-0.6199
X10.7745Y-2.743
X10.7785Y-0.496
X10.7785Y-0.9753
X10.7785Y-2.4419
X10.7804Y-2.5334
X10.7834Y-2.934
X10.7834Y-5.9291
X10.7844Y-2.8375
X10.7981Y-3.6013
X10.7991Y-5.1456
X10.8006Y-0.6186
X10.8011Y-6.0245
X10.8031Y-1.2007
X10.8031Y-5.247
X10.8041Y-4.9645
X10.806Y-2.369
X10.806Y-5.617
X10.8081Y-4.9222
X10.81Y-0.495
X10.81Y-6.0501
X10.8129Y-1.2913
X10.8129Y-6.0777
X10.8139Y-4.9901
X10.8218Y-4.4537
X10.8218Y-4.7233
X10.8243Y-2.6535
X10.8257Y-6.181
X10.8267Y-4.5452
X10.8267Y-4.8503
X10.8277Y-4.8857
X10.8336Y-0.6131
X10.8342Y-5.028
X10.8356Y-5.5275
X10.8365Y-5.3444
X10.8375Y-0.495
X10.8375Y-5.3739
X10.8415Y-5.496
X10.8415Y-6.2706
X10.8416Y-5.6487
X10.8483Y-3.4655
X10.8543Y-5.809
X10.8611Y-4.3493
X10.8631Y-2.8857
X10.8641Y-3.56
X10.8651Y-0.495
X10.8651Y-6.0265
X10.869Y-0.6092
X10.8716Y-5.6446
X10.873Y-5.8336
X10.8739Y-6.0787
X10.8769Y-6.181
X10.8789Y-5.5895
X10.8798Y-4.5314
X10.8798Y-5.5609
X10.8798Y-6.2972
X10.8808Y-0.432
X10.8828Y-2.4783
X10.8838Y-5.996
X10.8848Y-2.5728
X10.8907Y-5.1161
X10.8917Y-1.1653
X10.8917Y-5.3946
X10.8966Y-5.4291
X10.8966Y-5.9438
X10.9005Y-0.6083
X10.9015Y-3.5609
X10.9044Y-5.2706
X10.9113Y-1.2548
X10.9113Y-5.0481
X10.9123Y-4.2509
X10.9143Y-5.3655
X10.9153Y-2.8857
X10.9163Y-2.9714
X10.9182Y-3.4635
X10.9182Y-5.2076
X10.9281Y-2.5728
X10.9281Y-4.5895
X10.9281Y-6.2991
X10.93Y-2.4812
X10.932Y-3.6505
X10.932Y-3.747
X10.933Y-1.1663
X10.934Y-3.622
X10.935Y-6.2027
X10.9359Y-4.9409
X10.9379Y-4.9743
X10.9478Y-3.0698
X10.9516Y-6.0383
X10.9537Y-1.2539
X10.9575Y-5.3578
X10.9615Y-4.435
X10.9615Y-4.5285
X10.9635Y-0.6367
X10.9714Y-3.432
X10.9763Y-2.9222
X10.9793Y-6.0619
X10.9812Y-5.0481
X10.9832Y-5.5161
X10.9871Y-2.5068
X10.9871Y-5.6761
X10.9911Y-4.121
X10.9911Y-5.2086
X10.992Y-5.7184
X10.997Y-2.9901
X11.0041Y-4.9301
X11.0117Y-5.3926
X11.0137Y-1.0629
X11.0147Y-5.431
X11.0157Y-3.5836
X11.0167Y-4.5255
X11.0176Y-4.4379
X11.0176Y-6.2667
X11.0186Y-5.5462
X11.0186Y-6.369
X11.0245Y-5.1151
X11.0275Y-5.2667
X11.0344Y-2.5983
X11.0415Y-6.0355
X11.0442Y-1.0649
X11.0451Y-5.3575
X11.0491Y-1.1515
X11.0501Y-2.4556
X11.0501Y-3.6338
X11.0501Y-3.7145
X11.0511Y-6.2667
X11.0541Y-6.4635
X11.0546Y-3.8308
X11.056Y-2.9517
X11.056Y-3.748
X11.058Y-3.0383
X11.0609Y-6.367
X11.0659Y-3.8966
X11.0659Y-5.6298
X11.0764Y-0.8024
X11.0806Y-2.5088
X11.0816Y-2.7863
X11.0816Y-4.9714
X11.0846Y-2.5964
X11.0865Y-3.0915
X11.0924Y-1.1525
X11.0954Y-0.9556
X11.1033Y-6.3976
X11.1052Y-5.3887
X11.1062Y-6.4291
X11.1121Y-5.68
X11.12Y-3.0048
X11.1216Y-5.7099
X11.1239Y-4.43
X11.1261Y-6.013
X11.1279Y-4.5216
X11.1308Y-5.8592
X11.1319Y-3.9403
X11.1357Y-3.8513
X11.1367Y-3.8838
X11.1387Y-3.1594
X11.1407Y-2.6092
X11.1417Y-3.6751
X11.1426Y-0.9517
X11.1466Y-1.0413
X11.1487Y-0.8709
X11.1518Y-5.2325
X11.1564Y-1.1328
X11.1579Y-6.151
X11.1584Y-3.0698
X11.1594Y-5.7548
X11.1643Y-5.6485
X11.1672Y-4.4291
X11.1672Y-5.8582
X11.1672Y-6.4615
X11.1761Y-2.6682
X11.1771Y-4.5206
X11.1782Y-0.7024
X11.18Y-3.306
X11.18Y-3.743
X11.181Y-6.367
X11.1948Y-3.2076
X11.1968Y-1.0393
X11.1997Y-6.121
X11.2017Y-5.7578
X11.2037Y-4.3375
X11.2115Y-1.1446
X11.2125Y-3.1417
X11.2132Y-5.8227
X11.2135Y-2.5757
X11.2204Y-2.7391
X11.2205Y-0.9226
X11.2224Y-3.8198
X11.2519Y-2.8021
X11.2526Y-5.0066
X11.2548Y-0.8415
X11.2548Y-3.2667
X11.2568Y-0.8966
X11.2588Y-3.1771
X11.2588Y-3.9645
X11.2617Y-3.8749
X11.2647Y-0.996
X11.2657Y-2.6377
X11.2667Y-5.8228
X11.2667Y-5.9163
X11.2794Y-6.4133
X11.2863Y-4.4153
X11.2903Y-4.5029
X11.2942Y-5.9793
X11.2942Y-6.5068
X11.2981Y-0.8936
X11.305Y-3.8985
X11.306Y-3.307
X11.307Y-2.7046
X11.3129Y-5.9123
X11.3169Y-0.994
X11.3218Y-2.8808
X11.3218Y-3.2381
X11.3257Y-3.8336
X11.3267Y-6.4153
X11.3296Y-5.8225
X11.3326Y-6.5098
X11.3365Y-4.4172
X11.3365Y-4.5039
X11.3405Y-2.7696
X11.3415Y-3.4596
X11.3415Y-4.8808
X11.3433Y-5.8694
X11.3464Y-4.0481
X11.3483Y-4.0796
X11.3503Y-3.8985
X11.3533Y-3.3818
X11.3533Y-4.1367
X11.3611Y-3.2155
X11.3611Y-5.6525
X11.3651Y-5.2863
X11.3666Y-2.6403
X11.369Y-5.1525
X11.369Y-6.6249
X11.37Y-3.2883
X11.3702Y-6.5068
X11.371Y-2.8808
X11.373Y-6.3454
X11.3808Y-3.9625
X11.3839Y-6.1162
X11.3848Y-0.7785
X11.3848Y-0.7785
X11.3848Y-4.7824
X11.3848Y-5.9389
X11.3867Y-0.8228
X11.3887Y-5.8474
X11.3926Y-6.5299
X11.3936Y-2.7893
X11.3972Y-3.3768
X11.3973Y-5.7706
X11.4035Y-0.9192
X11.4044Y-3.4291
X11.4054Y-3.4625
X11.4128Y-6.1889
X11.4149Y-5.3281
X11.4149Y-5.372
X11.4202Y-2.6761
X11.4212Y-2.8848
X11.4241Y-0.8247
X11.4281Y-2.5777
X11.4291Y-3.3562
X11.4351Y-5.5378
X11.4359Y-5.5654
X11.4359Y-5.8474
X11.4359Y-5.9379
X11.4359Y-6.3169
X11.4389Y-6.3503
X11.4389Y-6.681
X11.4419Y-6.7106
X11.4448Y-0.9222
X11.4468Y-6.06
X11.4468Y-6.2214
X11.4468Y-6.4074
X11.4478Y-6.1909
X11.4487Y-6.0944
X11.4507Y-6.498
X11.4527Y-4.4123
X11.4543Y-6.5637
X11.4566Y-4.5048
X11.4566Y-5.6239
X11.4576Y-5.6731
X11.4596Y-2.7981
X11.4674Y-4.7115
X11.4714Y-4.3572
X11.4715Y-6.2494
X11.4752Y-0.9055
X11.4763Y-4.0747
X11.4783Y-4.0462
X11.4793Y-3.4015
X11.4793Y-5.372
X11.4793Y-6.4074
X11.4842Y-6.4989
X11.4881Y-5.4133
X11.4881Y-5.743
X11.4881Y-5.8454
X11.4901Y-4.8306
X11.4901Y-4.8631
X11.4911Y-4.9566
X11.4911Y-4.9861
X11.492Y-4.7332
X11.495Y-2.9674
X11.495Y-3.556
X11.4973Y-4.2225
X11.498Y-3.5875
X11.4989Y-6.5481
X11.4999Y-6.5777
X11.5019Y-4.5039
X11.5029Y-4.4143
X11.5068Y-4.6102
X11.5078Y-4.5767
X11.5078Y-5.2863
X11.5137Y-5.0541
X11.5147Y-5.1919
X11.5157Y-0.7037
X11.5157Y-5.1525
X11.5196Y-4.0826
X11.5215Y-2.8035
X11.5235Y-2.9044
X11.5294Y-3.4694
X11.5311Y-4.2942
X11.5363Y-4.184
X11.5403Y-3.7096
X11.5403Y-3.7401
X11.5481Y-0.8031
X11.5501Y-5.6023
X11.557Y-0.7056
X11.558Y-6.3503
X11.559Y-4.0796
X11.56Y-5.8454
X11.56Y-6.3178
X11.5659Y-2.8035
X11.5669Y-6.1919
X11.5678Y-6.682
X11.5688Y-6.7145
X11.5698Y-6.2253
X11.5733Y-5.5645
X11.5737Y-6.0905
X11.5747Y-6.058
X11.5757Y-5.746
X11.5777Y-2.9064
X11.5777Y-5.5029
X11.5787Y-5.9241
X11.5787Y-6.0127
X11.5796Y-4.183
X11.5816Y-3.3651
X11.5816Y-3.9281
X11.5846Y-5.682
X11.5944Y-6.4015
X11.5968Y-5.8761
X11.5974Y-5.0541
X11.5983Y-5.2873
X11.5983Y-5.4153
X11.5993Y-5.1505
X11.5993Y-5.1938
X11.6003Y-3.8415
X11.6023Y-0.7893
X11.6052Y-5.3759
X11.6062Y-4.8296
X11.6092Y-6.495
X11.6102Y-4.8621
X11.6151Y-4.7342
X11.6161Y-4.7037
X11.6161Y-4.9566
X11.617Y-4.9871
X11.6191Y-3.5836
X11.62Y-6.5481
X11.621Y-0.6407
X11.623Y-6.5787
X11.6239Y-4.1948
X11.6289Y-4.2312
X11.6289Y-4.6102
X11.6298Y-4.5294
X11.6328Y-6.2509
X11.6328Y-6.743
X11.6348Y-4.5757
X11.6367Y-3.9015
X11.6407Y-3.5541
X11.6407Y-6.4025
X11.6417Y-5.9369
X11.6436Y-0.6712
X11.6446Y-5.9842
X11.6554Y-2.9487
X11.6584Y-6.4911
X11.6613Y-4.435
X11.6613Y-4.5275
X11.6672Y-3.7076
X11.6672Y-3.7401
X11.6722Y-3.6249
X11.6761Y-5.7233
X11.6771Y-3.9054
X11.68Y-6.1318
X11.683Y-4.1554
X11.684Y-5.1997
X11.6869Y-6.0354
X11.6879Y-2.8552
X11.6879Y-4.6643
X11.6899Y-3.809
X11.6948Y-2.9468
X11.6968Y-0.745
X11.6987Y-4.243
X11.6997Y-4.9005
X11.6997Y-5.9556
X11.7037Y-6.3375
X11.7043Y-2.3768
X11.7046Y-2.3475
X11.7115Y-5.0186
X11.7115Y-5.3848
X11.7322Y-6.4891
X11.7352Y-6.1879
X11.7371Y-6.0403
X11.7391Y-4.4478
X11.7391Y-6.2352
X11.7391Y-6.4054
X11.746Y-0.743
X11.747Y-6.6407
X11.7479Y-2.8533
X11.7499Y-6.0856
X11.7529Y-4.3109
X11.7588Y-4.0221
X11.7589Y-5.8035
X11.7676Y-0.6958
X11.7785Y-6.12
X11.7785Y-6.4891
X11.7854Y-4.5157
X11.7873Y-4.3513
X11.7893Y-6.4025
X11.7922Y-4.6111
X11.7981Y-4.1013
X11.7983Y-6.3522
X11.8011Y-3.9192
X11.8021Y-3.5501
X11.806Y-4.0659
X11.81Y-2.8021
X11.81Y-3.3926
X11.81Y-3.7627
X11.8109Y-3.0363
X11.8119Y-6.2135
X11.8296Y-4.5127
X11.8306Y-6.12
X11.8316Y-2.9419
X11.8346Y-4.6102
X11.8356Y-4.3464
X11.8375Y-4.248
X11.8454Y-3.0344
X11.8464Y-3.9861
X11.8483Y-3.9527
X11.8503Y-0.6289
X11.8503Y-0.7302
X11.8572Y-4.6485
X11.871Y-2.9419
X11.8838Y-6.5009
X11.8848Y-0.4044
X11.8995Y-0.6289
X11.8995Y-6.4035
X11.9005Y-6.0895
X11.9025Y-4.3592
X11.9044Y-3.091
X11.9064Y-0.7302
X11.9143Y-4.1791
X11.9153Y-0.4928
X11.9202Y-4.4438
X11.9222Y-6.2174
X11.9239Y-0.4292
X11.9239Y-3.4851
X11.9291Y-4.1328
X11.932Y-0.869
X11.9379Y-4.2903
X11.9468Y-4.5462
X11.9497Y-4.247
X11.9527Y-6.5009
X11.9586Y-6.1249
X11.9674Y-0.4596
X11.9694Y-3.0304
X11.9694Y-6.2174
X11.9714Y-4.0304
X11.9793Y-3.806
X11.9822Y-0.7863
X11.9832Y-4.5432
X11.9842Y-0.6899
X11.9851Y-3.1455
X11.9854Y-3.6427
X11.9871Y-0.8611
X11.9947Y-3.4852
X11.998Y-4.1397
X11.998Y-6.1249
X12.0058Y-3.1249
X12.0098Y-3.0285
X12.0147Y-4.4615
X12.0147Y-6.4202
X12.0206Y-4.5728
X12.0245Y-4.3749
X12.0265Y-4.3454
X12.0324Y-4.2302
X12.0332Y-0.8246
X12.0344Y-0.6869
X12.0344Y-4.6879
X12.0363Y-0.7893
X12.056Y-4.622
X12.0655Y-4.2825
X12.0659Y-0.6604
X12.0836Y-6.246
X12.0846Y-6.4163
X12.0856Y-6.5058
X12.0865Y-3.1397
X12.0878Y-3.185
X12.0895Y-3.0383
X12.1011Y-3.5604
X12.1052Y-6.6289
X12.1082Y-6.1515
X12.1131Y-3.3808
X12.1141Y-4.621
X12.117Y-2.2548
X12.117Y-2.8808
X12.12Y-6.5048
X12.121Y-1.6997
X12.1249Y-4.2548
X12.1249Y-6.247
X12.1269Y-4.3552
X12.1279Y-3.1417
X12.1289Y-3.2785
X12.1357Y-6.4163
X12.1397Y-0.7007
X12.1397Y-0.7991
X12.1515Y-4.5472
X12.1544Y-3.1987
X12.1604Y-3.2283
X12.1682Y-6.1131
X12.1741Y-6.18
X12.1754Y-3.4492
X12.1761Y-4.2588
X12.1771Y-4.3533
X12.1869Y-0.7017
X12.1889Y-4.8112
X12.1909Y-0.7972
X12.1958Y-3.5383
X12.1958Y-3.6792
X12.2056Y-4.557
X12.2096Y-4.6564
X12.2172Y-3.6979
X12.2174Y-3.5239
X12.2174Y-6.5078
X12.2194Y-6.4123
X12.2214Y-6.2135
X12.2233Y-3.0856
X12.2377Y-3.5401
X12.2391Y-3.684
X12.2411Y-6.309
X12.245Y-4.556
X12.2499Y-4.6564
X12.2517Y-4.022
X12.2519Y-4.1025
X12.2524Y-4.0533
X12.2533Y-4.1724
X12.2548Y-4.1997
X12.2562Y-4.4926
X12.2627Y-3.1485
X12.2667Y-0.6722
X12.2676Y-3.3434
X12.2706Y-6.2174
X12.2735Y-6.4133
X12.2735Y-6.5088
X12.2745Y-4.1367
X12.2765Y-6.309
X12.2873Y-3.2273
X12.2883Y-4.31
X12.2903Y-0.7165
X12.2922Y-0.8109
X12.2952Y-4.2135
X12.2993Y-6.5481
X12.3218Y-4.8218
X12.3236Y-4.4167
X12.3237Y-4.2994
X12.3243Y-5.3078
X12.3257Y-4.5856
X12.3296Y-3.1879
X12.3296Y-3.3592
X12.3306Y-3.2696
X12.3346Y-0.8129
X12.3375Y-0.7184
X12.3395Y-3.4113
X12.3454Y-3.5098
X12.3464Y-4.7342
X12.3533Y-6.6485
X12.3602Y-4.6397
X12.3631Y-4.2893
X12.371Y-6.4104
X12.373Y-6.5088
X12.3739Y-6.3562
X12.3769Y-4.7332
X12.3808Y-3.2735
X12.3808Y-4.3651
X12.3838Y-6.2657
X12.3985Y-4.1476
X12.3985Y-4.6387
X12.3998Y-6.6247
X12.4074Y-3.4113
X12.4084Y-4.9753
X12.4133Y-4.7972
X12.4149Y-4.7498
X12.4153Y-4.8277
X12.4231Y-6.2647
X12.4241Y-3.5747
X12.4241Y-6.3562
X12.4261Y-6.5078
X12.43Y-3.4655
X12.43Y-6.4123
X12.4359Y-4.2381
X12.4369Y-4.1525
X12.4389Y-0.7578
X12.4399Y-0.8543
X12.4399Y-5.2509
X12.4556Y-4.5344
X12.4635Y-3.4241
X12.4674Y-0.2942
X12.4704Y-3.4812
X12.4714Y-0.8926
X12.4733Y-6.497
X12.4783Y-0.1899
X12.4793Y-0.1052
X12.4832Y-0.2224
X12.4881Y-0.7617
X12.4881Y-0.8513
X12.493Y-4.2283
X12.495Y-4.2745
X12.5037Y-4.9579
X12.5107Y-0.5265
X12.5117Y-6.5609
X12.5147Y-6.3995
X12.5204Y-4.1944
X12.5235Y-3.4822
X12.5275Y-3.5531
X12.5324Y-0.3306
X12.5344Y-0.3641
X12.5373Y-6.3119
X12.5383Y-4.7952
X12.5383Y-4.8267
X12.5395Y-4.8836
X12.5432Y-0.6978
X12.5433Y-3.6102
X12.559Y-6.4615
X12.5619Y-3.373
X12.5669Y-3.5511
X12.5678Y-6.4044
X12.5688Y-4.9783
X12.5698Y-4.2253
X12.5698Y-6.2076
X12.5777Y-1.3336
X12.5777Y-4.8828
X12.5836Y-6.6131
X12.5846Y-0.6938
X12.5856Y-5.0856
X12.5856Y-6.6456
X12.5885Y-5.0511
X12.5905Y-0.7854
X12.5905Y-4.1357
X12.5905Y-6.3178
X12.5934Y-3.4773
X12.5934Y-3.6919
X12.6013Y-6.5245
X12.6052Y-1.0211
X12.6055Y-4.8193
X12.606Y-1.3188
X12.6092Y-0.1928
X12.6092Y-0.2243
X12.6111Y-0.6466
X12.6111Y-4.8808
X12.6161Y-0.495
X12.6161Y-4.2253
X12.617Y-0.4606
X12.6249Y-0.1131
X12.632Y-1.0211
X12.632Y-1.3188
X12.6328Y-4.9438
X12.6357Y-0.7844
X12.6367Y-5.1151
X12.6446Y-4.1387
X12.6446Y-6.2981
X12.6466Y-3.4793
X12.6485Y-0.5669
X12.6554Y-6.7509
X12.658Y-1.0211
X12.658Y-1.3188
X12.6584Y-6.432
X12.6633Y-5.0167
X12.6682Y-0.3602
X12.6712Y-0.3316
X12.6722Y-4.5895
X12.6761Y-3.5521
X12.68Y-6.3356
X12.684Y-1.0211
X12.684Y-1.3188
X12.6879Y-6.43
X12.6928Y-6.8178
X12.7037Y-0.7706
X12.7046Y-1.5827
X12.7063Y-5.0633
X12.7076Y-4.0816
X12.7086Y-5.2224
X12.7115Y-3.6013
X12.7125Y-6.6476
X12.7135Y-0.43
X12.7145Y-6.3336
X12.7155Y-6.617
X12.7184Y-4.1318
X12.7185Y-5.387
X12.7194Y-3.5491
X12.7194Y-3.6879
X12.7214Y-4.2194
X12.7273Y-7.0068
X12.7406Y-5.0212
X12.742Y-0.6495
X12.742Y-6.4733
X12.744Y-5.2253
X12.745Y-0.4901
X12.747Y-3.4163
X12.748Y-6.4999
X12.7509Y-0.6102
X12.7519Y-3.4793
X12.7617Y-5.1298
X12.7667Y-0.3651
X12.7667Y-4.2824
X12.7706Y-4.1308
X12.7785Y-6.7391
X12.7814Y-4.2233
X12.7863Y-6.3966
X12.7873Y-6.7844
X12.7903Y-5.1289
X12.7913Y-5.3641
X12.7981Y-0.5816
X12.7991Y-6.9153
X12.8011Y-6.8198
X12.806Y-3.4753
X12.8306Y-5.3651
X12.8336Y-3.557
X12.84Y-0.93
X12.84Y-0.99
X12.84Y-1.05
X12.84Y-1.11
X12.84Y-1.17
X12.84Y-1.23
X12.84Y-1.29
X12.84Y-1.35
X12.84Y-1.41
X12.8405Y-5.2706
X12.8415Y-6.7706
X12.8444Y-6.8208
X12.8513Y-6.9733
X12.8611Y-1.4832
X12.8611Y-5.4153
X12.8643Y-3.6045
X12.8651Y-3.435
X12.8661Y-6.6239
X12.868Y-6.5009
X12.871Y-6.4684
X12.872Y-4.1298
X12.8808Y-6.8818
X12.8818Y-4.2214
X12.8818Y-6.5373
X12.8828Y-5.2686
X12.8838Y-5.5039
X12.885Y-0.96
X12.885Y-1.02
X12.885Y-1.08
X12.885Y-1.14
X12.885Y-1.2
X12.885Y-1.26
X12.885Y-1.32
X12.885Y-1.38
X12.885Y-1.44
X12.8946Y-3.5137
X12.9005Y-3.684
X12.9133Y-7.0363
X12.9202Y-4.1279
X12.9202Y-6.6249
X12.9281Y-5.684
X12.9281Y-7.2076
X12.932Y-4.2233
X12.932Y-6.873
X12.935Y-5.3946
X12.9399Y-6.9438
X12.9428Y-6.5413
X12.9442Y-4.2582
X12.9497Y-3.5127
X12.9615Y-7.0826
X12.9635Y-3.4832
X12.9714Y-4.6525
X12.9745Y-0.8347
X12.9748Y-0.8784
X12.975Y-0.7036
X12.975Y-0.7473
X12.975Y-0.791
X12.9753Y-4.1328
X12.9793Y-1.5107
X12.9802Y-7.0078
X12.9842Y-3.5865
X12.9852Y-5.4468
X12.995Y-0.7255
X12.995Y-0.7692
X12.995Y-0.8128
X12.995Y-0.8565
X12.9989Y-1.6485
X13.0029Y-4.9281
X13.0068Y-5.0934
X13.0107Y-7.0304
X13.0147Y-5.6003
X13.0186Y-5.2273
X13.02Y-1.605
X13.0206Y-7.1525
X13.0265Y-3.4123
X13.0294Y-4.1259
X13.0324Y-4.2165
X13.0334Y-5.5048
X13.0334Y-6.6249
X13.0422Y-6.4556
X13.0422Y-7.057
X13.05Y-1.65
X13.0521Y-3.5964
X13.0541Y-6.5147
X13.057Y-7.1919
X13.058Y-0.8966
X13.073Y-4.0533
X13.0777Y-3.7548
X13.0793Y-3.5067
X13.08Y-1.605
X13.0836Y-4.1269
X13.0846Y-7.122
X13.0865Y-4.2184
X13.0865Y-5.5088
X13.0875Y-6.6289
X13.0924Y-5.5531
X13.1032Y-4.022
X13.1048Y-5.719
X13.1052Y-3.5078
X13.1072Y-3.5964
X13.1092Y-6.5304
X13.11Y-1.65
X13.1239Y-7.2676
X13.1367Y-4.2824
X13.1375Y-3.4288
X13.14Y-1.605
X13.1407Y-0.8848
X13.1426Y-7.1781
X13.1446Y-3.3178
X13.1446Y-5.5885
X13.1446Y-6.6121
X13.1476Y-5.6919
X13.1552Y-5.1505
X13.1565Y-3.4098
X13.1659Y-3.3029
X13.17Y-1.65
X13.1731Y-6.6702
X13.1748Y-3.3914
X13.182Y-5.5924
X13.182Y-5.6928
X13.1843Y-3.2846
X13.1869Y-4.1594
X13.1889Y-7.245
X13.1919Y-7.1604
X13.1928Y-4.2539
X13.195Y-0.93
X13.195Y-1.195
X13.195Y-1.245
X13.195Y-1.295
X13.2Y-1.605
X13.2115Y-4.6367
X13.2125Y-3.5275
X13.2135Y-3.6121
X13.2204Y-6.6712
X13.23Y-1.65
X13.242Y-4.1604
X13.245Y-1.195
X13.245Y-1.245
X13.245Y-1.295
X13.246Y-3.6627
X13.246Y-4.2548
X13.26Y-1.605
X13.2647Y-3.5265
X13.2657Y-6.6151
X13.2667Y-3.6151
X13.2667Y-5.7755
X13.2716Y-6.7775
X13.2834Y-5.6791
X13.2857Y-4.9913
X13.29Y-1.65
X13.2903Y-4.9281
X13.295Y-1.195
X13.295Y-1.245
X13.295Y-1.295
X13.3021Y-3.5422
X13.3021Y-4.1446
X13.3021Y-5.7716
X13.305Y-6.683
X13.306Y-3.7273
X13.306Y-5.5698
X13.309Y-6.7745
X13.3178Y-3.8218
X13.32Y-1.605
X13.3218Y-5.68
X13.3356Y-4.1869
X13.3365Y-4.2804
X13.3375Y-6.8808
X13.3454Y-3.6997
X13.3483Y-3.6111
X13.35Y-1.65
X13.3513Y-6.685
X13.3651Y-6.6249
X13.38Y-1.605
X13.3897Y-4.1859
X13.3917Y-3.6121
X13.3917Y-4.2794
X13.3926Y-1.0167
X13.3936Y-5.8651
X13.3956Y-6.8917
X13.3966Y-5.7686
X13.3971Y-5.4928
X13.3983Y-5.3946
X13.4005Y-3.6978
X13.4044Y-5.2037
X13.41Y-1.65
X13.4192Y-6.7972
X13.4193Y-1.2607
X13.4202Y-4.68
X13.4222Y-5.8621
X13.425Y-1.19
X13.4251Y-6.8907
X13.4281Y-0.8592
X13.431Y-5.7696
X13.44Y-1.605
X13.4438Y-1.2115
X13.4517Y-6.7952
X13.4623Y-5.0633
X13.4674Y-4.3454
X13.4674Y-5.4005
X13.4694Y-1.1466
X13.4714Y-1.2352
X13.4714Y-4.9714
X13.4724Y-6.9615
X13.4753Y-3.8218
X13.4793Y-1.6407
X13.4832Y-1.4556
X13.4871Y-4.2598
X13.4881Y-4.1702
X13.4899Y-5.1289
X13.4953Y-5.2981
X13.4989Y-3.7076
X13.4999Y-3.619
X13.5068Y-3.7509
X13.52Y-1.0639
X13.5226Y-4.8454
X13.5265Y-0.8611
X13.5265Y-5.7903
X13.5285Y-5.9566
X13.5373Y-6.9074
X13.5442Y-4.1712
X13.5442Y-4.2617
X13.5481Y-1.1761
X13.5501Y-5.868
X13.551Y-5.0167
X13.5511Y-3.621
X13.5541Y-3.7066
X13.5591Y-4.8023
X13.5623Y-4.3037
X13.5737Y-6.0619
X13.575Y-1.34
X13.5796Y-5.9576
X13.5914Y-7.0521
X13.5934Y-5.87
X13.5934Y-7.0974
X13.5974Y-6.9133
X13.5983Y-6.9537
X13.6013Y-1.4084
X13.6131Y-7.1485
X13.6141Y-5.9842
X13.617Y-0.869
X13.625Y-1.31
X13.625Y-1.37
X13.6335Y-4.3243
X13.6338Y-4.1083
X13.6367Y-3.7233
X13.6367Y-6.8651
X13.6446Y-4.1466
X13.6446Y-5.8021
X13.6466Y-1.0875
X13.6476Y-4.2381
X13.6505Y-6.0363
X13.6525Y-3.618
X13.6731Y-7.0048
X13.682Y-6.0314
X13.6997Y-4.2391
X13.6997Y-7.1485
X13.7007Y-7.182
X13.7017Y-4.1466
X13.7037Y-3.619
X13.7135Y-7.0541
X13.7352Y-5.9714
X13.7391Y-4.2627
X13.743Y-3.7233
X13.743Y-4.1485
X13.7509Y-3.7903
X13.7617Y-7.2135
X13.7775Y-6.12
X13.7804Y-7.117
X13.8001Y-3.7568
X13.8031Y-3.6584
X13.8041Y-4.1338
X13.806Y-4.2194
X13.807Y-6.0314
X13.8119Y-6.118
X13.8139Y-5.9714
X13.8395Y-7.2509
X13.8474Y-6.0304
X13.8533Y-3.6623
X13.8552Y-3.7539
X13.8592Y-4.2184
X13.8611Y-4.1318
X13.873Y-6.3021
X13.8739Y-6.1495
X13.8739Y-6.181
X13.8917Y-7.1938
X13.8966Y-6.0501
X13.9123Y-3.6446
X13.9143Y-3.745
X13.9163Y-4.2391
X13.9257Y-3.7854
X13.935Y-6.2125
X13.9517Y-3.8572
X13.9546Y-3.6781
X13.9566Y-4.2204
X13.9566Y-6.12
X13.9615Y-4.1298
X13.9674Y-7.1249
X13.9674Y-7.2037
X13.9724Y-3.7706
X13.9763Y-6.2765
X13.9773Y-6.308
X13.9807Y-7.2349
X13.9853Y-4.1004
X14.0048Y-3.6771
X14.0137Y-4.1289
X14.0157Y-4.2194
X14.0226Y-4.0816
X14.0737Y-6.3946
X14.0757Y-6.4261
X14.0816Y-6.4911
X14.1003Y-3.7302
X14.1023Y-3.8287
X14.1033Y-6.305
X14.1062Y-6.2775
X14.1131Y-4.2194
X14.1141Y-4.1289
X14.1417Y-6.4517
X14.1446Y-6.2981
X14.1495Y-3.7312
X14.1525Y-3.8257
X14.1682Y-4.1289
X14.1692Y-4.2204
X14.1692Y-6.3552
X14.215Y-1.2097
X14.235Y-1.2336
T2
X1.7804Y-6.8411
X1.7804Y-6.8962
X1.808Y-6.8135
X1.808Y-6.8686
X1.808Y-6.9237
X1.8356Y-6.8411
X1.8356Y-6.8962
X1.8631Y-6.8135
X1.8631Y-6.8686
X1.8631Y-6.9237
X1.8907Y-6.8411
X1.8907Y-6.8962
T4
X2.8281Y-7.295
X2.9619Y-7.295
T3
G00X0.0655Y-6.8249
M15
G01X0.0419Y-6.8249
M16
G05
G00X0.0655Y-7.1651
M15
G01X0.0419Y-7.1651
M16
G05
G00X0.2399Y-6.8249
M15
G01X0.1966Y-6.8249
M16
G05
G00X0.2399Y-7.1651
M15
G01X0.1966Y-7.1651
M16
G05
M30
