%TF.GenerationSoftware,KiCad,Pcbnew,8.0.4*%
%TF.CreationDate,2024-11-21T15:50:00-08:00*%
%TF.ProjectId,traffic_paradise,74726166-6669-4635-9f70-617261646973,rev?*%
%TF.SameCoordinates,Original*%
%TF.FileFunction,Other,Comment*%
%FSLAX46Y46*%
G04 Gerber Fmt 4.6, Leading zero omitted, Abs format (unit mm)*
G04 Created by KiCad (PCBNEW 8.0.4) date 2024-11-21 15:50:00*
%MOMM*%
%LPD*%
G01*
G04 APERTURE LIST*
%ADD10C,0.150000*%
G04 APERTURE END LIST*
D10*
X11357294Y-60163809D02*
X10557294Y-60163809D01*
X10557294Y-60163809D02*
X11357294Y-59706666D01*
X11357294Y-59706666D02*
X10557294Y-59706666D01*
X11357294Y-59211429D02*
X11319199Y-59287619D01*
X11319199Y-59287619D02*
X11281103Y-59325714D01*
X11281103Y-59325714D02*
X11204913Y-59363810D01*
X11204913Y-59363810D02*
X10976341Y-59363810D01*
X10976341Y-59363810D02*
X10900151Y-59325714D01*
X10900151Y-59325714D02*
X10862056Y-59287619D01*
X10862056Y-59287619D02*
X10823960Y-59211429D01*
X10823960Y-59211429D02*
X10823960Y-59097143D01*
X10823960Y-59097143D02*
X10862056Y-59020952D01*
X10862056Y-59020952D02*
X10900151Y-58982857D01*
X10900151Y-58982857D02*
X10976341Y-58944762D01*
X10976341Y-58944762D02*
X11204913Y-58944762D01*
X11204913Y-58944762D02*
X11281103Y-58982857D01*
X11281103Y-58982857D02*
X11319199Y-59020952D01*
X11319199Y-59020952D02*
X11357294Y-59097143D01*
X11357294Y-59097143D02*
X11357294Y-59211429D01*
X10938246Y-57725714D02*
X10938246Y-57992380D01*
X11357294Y-57992380D02*
X10557294Y-57992380D01*
X10557294Y-57992380D02*
X10557294Y-57611428D01*
X11281103Y-57306666D02*
X11319199Y-57268571D01*
X11319199Y-57268571D02*
X11357294Y-57306666D01*
X11357294Y-57306666D02*
X11319199Y-57344762D01*
X11319199Y-57344762D02*
X11281103Y-57306666D01*
X11281103Y-57306666D02*
X11357294Y-57306666D01*
X11281103Y-56468571D02*
X11319199Y-56506667D01*
X11319199Y-56506667D02*
X11357294Y-56620952D01*
X11357294Y-56620952D02*
X11357294Y-56697143D01*
X11357294Y-56697143D02*
X11319199Y-56811429D01*
X11319199Y-56811429D02*
X11243008Y-56887619D01*
X11243008Y-56887619D02*
X11166818Y-56925714D01*
X11166818Y-56925714D02*
X11014437Y-56963810D01*
X11014437Y-56963810D02*
X10900151Y-56963810D01*
X10900151Y-56963810D02*
X10747770Y-56925714D01*
X10747770Y-56925714D02*
X10671579Y-56887619D01*
X10671579Y-56887619D02*
X10595389Y-56811429D01*
X10595389Y-56811429D02*
X10557294Y-56697143D01*
X10557294Y-56697143D02*
X10557294Y-56620952D01*
X10557294Y-56620952D02*
X10595389Y-56506667D01*
X10595389Y-56506667D02*
X10633484Y-56468571D01*
X10823960Y-55782857D02*
X11357294Y-55782857D01*
X10823960Y-56125714D02*
X11243008Y-56125714D01*
X11243008Y-56125714D02*
X11319199Y-56087619D01*
X11319199Y-56087619D02*
X11357294Y-56011429D01*
X11357294Y-56011429D02*
X11357294Y-55897143D01*
X11357294Y-55897143D02*
X11319199Y-55820952D01*
X11319199Y-55820952D02*
X11281103Y-55782857D01*
X10823960Y-54906666D02*
X10823960Y-54601904D01*
X10557294Y-54792380D02*
X11243008Y-54792380D01*
X11243008Y-54792380D02*
X11319199Y-54754285D01*
X11319199Y-54754285D02*
X11357294Y-54678095D01*
X11357294Y-54678095D02*
X11357294Y-54601904D01*
X11357294Y-54335237D02*
X10823960Y-54335237D01*
X10976341Y-54335237D02*
X10900151Y-54297142D01*
X10900151Y-54297142D02*
X10862056Y-54259047D01*
X10862056Y-54259047D02*
X10823960Y-54182856D01*
X10823960Y-54182856D02*
X10823960Y-54106666D01*
X11357294Y-53497142D02*
X10938246Y-53497142D01*
X10938246Y-53497142D02*
X10862056Y-53535237D01*
X10862056Y-53535237D02*
X10823960Y-53611428D01*
X10823960Y-53611428D02*
X10823960Y-53763809D01*
X10823960Y-53763809D02*
X10862056Y-53839999D01*
X11319199Y-53497142D02*
X11357294Y-53573333D01*
X11357294Y-53573333D02*
X11357294Y-53763809D01*
X11357294Y-53763809D02*
X11319199Y-53839999D01*
X11319199Y-53839999D02*
X11243008Y-53878095D01*
X11243008Y-53878095D02*
X11166818Y-53878095D01*
X11166818Y-53878095D02*
X11090627Y-53839999D01*
X11090627Y-53839999D02*
X11052532Y-53763809D01*
X11052532Y-53763809D02*
X11052532Y-53573333D01*
X11052532Y-53573333D02*
X11014437Y-53497142D01*
X11319199Y-52773332D02*
X11357294Y-52849523D01*
X11357294Y-52849523D02*
X11357294Y-53001904D01*
X11357294Y-53001904D02*
X11319199Y-53078094D01*
X11319199Y-53078094D02*
X11281103Y-53116189D01*
X11281103Y-53116189D02*
X11204913Y-53154285D01*
X11204913Y-53154285D02*
X10976341Y-53154285D01*
X10976341Y-53154285D02*
X10900151Y-53116189D01*
X10900151Y-53116189D02*
X10862056Y-53078094D01*
X10862056Y-53078094D02*
X10823960Y-53001904D01*
X10823960Y-53001904D02*
X10823960Y-52849523D01*
X10823960Y-52849523D02*
X10862056Y-52773332D01*
X11357294Y-52430475D02*
X10557294Y-52430475D01*
X11052532Y-52354285D02*
X11357294Y-52125713D01*
X10823960Y-52125713D02*
X11128722Y-52430475D01*
X11319199Y-51820952D02*
X11357294Y-51744761D01*
X11357294Y-51744761D02*
X11357294Y-51592380D01*
X11357294Y-51592380D02*
X11319199Y-51516190D01*
X11319199Y-51516190D02*
X11243008Y-51478094D01*
X11243008Y-51478094D02*
X11204913Y-51478094D01*
X11204913Y-51478094D02*
X11128722Y-51516190D01*
X11128722Y-51516190D02*
X11090627Y-51592380D01*
X11090627Y-51592380D02*
X11090627Y-51706666D01*
X11090627Y-51706666D02*
X11052532Y-51782856D01*
X11052532Y-51782856D02*
X10976341Y-51820952D01*
X10976341Y-51820952D02*
X10938246Y-51820952D01*
X10938246Y-51820952D02*
X10862056Y-51782856D01*
X10862056Y-51782856D02*
X10823960Y-51706666D01*
X10823960Y-51706666D02*
X10823960Y-51592380D01*
X10823960Y-51592380D02*
X10862056Y-51516190D01*
X11357294Y-55163809D02*
X10557294Y-55163809D01*
X10557294Y-55163809D02*
X11357294Y-54706666D01*
X11357294Y-54706666D02*
X10557294Y-54706666D01*
X11357294Y-54211429D02*
X11319199Y-54287619D01*
X11319199Y-54287619D02*
X11281103Y-54325714D01*
X11281103Y-54325714D02*
X11204913Y-54363810D01*
X11204913Y-54363810D02*
X10976341Y-54363810D01*
X10976341Y-54363810D02*
X10900151Y-54325714D01*
X10900151Y-54325714D02*
X10862056Y-54287619D01*
X10862056Y-54287619D02*
X10823960Y-54211429D01*
X10823960Y-54211429D02*
X10823960Y-54097143D01*
X10823960Y-54097143D02*
X10862056Y-54020952D01*
X10862056Y-54020952D02*
X10900151Y-53982857D01*
X10900151Y-53982857D02*
X10976341Y-53944762D01*
X10976341Y-53944762D02*
X11204913Y-53944762D01*
X11204913Y-53944762D02*
X11281103Y-53982857D01*
X11281103Y-53982857D02*
X11319199Y-54020952D01*
X11319199Y-54020952D02*
X11357294Y-54097143D01*
X11357294Y-54097143D02*
X11357294Y-54211429D01*
X10938246Y-52725714D02*
X10938246Y-52992380D01*
X11357294Y-52992380D02*
X10557294Y-52992380D01*
X10557294Y-52992380D02*
X10557294Y-52611428D01*
X11281103Y-52306666D02*
X11319199Y-52268571D01*
X11319199Y-52268571D02*
X11357294Y-52306666D01*
X11357294Y-52306666D02*
X11319199Y-52344762D01*
X11319199Y-52344762D02*
X11281103Y-52306666D01*
X11281103Y-52306666D02*
X11357294Y-52306666D01*
X11281103Y-51468571D02*
X11319199Y-51506667D01*
X11319199Y-51506667D02*
X11357294Y-51620952D01*
X11357294Y-51620952D02*
X11357294Y-51697143D01*
X11357294Y-51697143D02*
X11319199Y-51811429D01*
X11319199Y-51811429D02*
X11243008Y-51887619D01*
X11243008Y-51887619D02*
X11166818Y-51925714D01*
X11166818Y-51925714D02*
X11014437Y-51963810D01*
X11014437Y-51963810D02*
X10900151Y-51963810D01*
X10900151Y-51963810D02*
X10747770Y-51925714D01*
X10747770Y-51925714D02*
X10671579Y-51887619D01*
X10671579Y-51887619D02*
X10595389Y-51811429D01*
X10595389Y-51811429D02*
X10557294Y-51697143D01*
X10557294Y-51697143D02*
X10557294Y-51620952D01*
X10557294Y-51620952D02*
X10595389Y-51506667D01*
X10595389Y-51506667D02*
X10633484Y-51468571D01*
X10823960Y-50782857D02*
X11357294Y-50782857D01*
X10823960Y-51125714D02*
X11243008Y-51125714D01*
X11243008Y-51125714D02*
X11319199Y-51087619D01*
X11319199Y-51087619D02*
X11357294Y-51011429D01*
X11357294Y-51011429D02*
X11357294Y-50897143D01*
X11357294Y-50897143D02*
X11319199Y-50820952D01*
X11319199Y-50820952D02*
X11281103Y-50782857D01*
X10823960Y-49906666D02*
X10823960Y-49601904D01*
X10557294Y-49792380D02*
X11243008Y-49792380D01*
X11243008Y-49792380D02*
X11319199Y-49754285D01*
X11319199Y-49754285D02*
X11357294Y-49678095D01*
X11357294Y-49678095D02*
X11357294Y-49601904D01*
X11357294Y-49335237D02*
X10823960Y-49335237D01*
X10976341Y-49335237D02*
X10900151Y-49297142D01*
X10900151Y-49297142D02*
X10862056Y-49259047D01*
X10862056Y-49259047D02*
X10823960Y-49182856D01*
X10823960Y-49182856D02*
X10823960Y-49106666D01*
X11357294Y-48497142D02*
X10938246Y-48497142D01*
X10938246Y-48497142D02*
X10862056Y-48535237D01*
X10862056Y-48535237D02*
X10823960Y-48611428D01*
X10823960Y-48611428D02*
X10823960Y-48763809D01*
X10823960Y-48763809D02*
X10862056Y-48839999D01*
X11319199Y-48497142D02*
X11357294Y-48573333D01*
X11357294Y-48573333D02*
X11357294Y-48763809D01*
X11357294Y-48763809D02*
X11319199Y-48839999D01*
X11319199Y-48839999D02*
X11243008Y-48878095D01*
X11243008Y-48878095D02*
X11166818Y-48878095D01*
X11166818Y-48878095D02*
X11090627Y-48839999D01*
X11090627Y-48839999D02*
X11052532Y-48763809D01*
X11052532Y-48763809D02*
X11052532Y-48573333D01*
X11052532Y-48573333D02*
X11014437Y-48497142D01*
X11319199Y-47773332D02*
X11357294Y-47849523D01*
X11357294Y-47849523D02*
X11357294Y-48001904D01*
X11357294Y-48001904D02*
X11319199Y-48078094D01*
X11319199Y-48078094D02*
X11281103Y-48116189D01*
X11281103Y-48116189D02*
X11204913Y-48154285D01*
X11204913Y-48154285D02*
X10976341Y-48154285D01*
X10976341Y-48154285D02*
X10900151Y-48116189D01*
X10900151Y-48116189D02*
X10862056Y-48078094D01*
X10862056Y-48078094D02*
X10823960Y-48001904D01*
X10823960Y-48001904D02*
X10823960Y-47849523D01*
X10823960Y-47849523D02*
X10862056Y-47773332D01*
X11357294Y-47430475D02*
X10557294Y-47430475D01*
X11052532Y-47354285D02*
X11357294Y-47125713D01*
X10823960Y-47125713D02*
X11128722Y-47430475D01*
X11319199Y-46820952D02*
X11357294Y-46744761D01*
X11357294Y-46744761D02*
X11357294Y-46592380D01*
X11357294Y-46592380D02*
X11319199Y-46516190D01*
X11319199Y-46516190D02*
X11243008Y-46478094D01*
X11243008Y-46478094D02*
X11204913Y-46478094D01*
X11204913Y-46478094D02*
X11128722Y-46516190D01*
X11128722Y-46516190D02*
X11090627Y-46592380D01*
X11090627Y-46592380D02*
X11090627Y-46706666D01*
X11090627Y-46706666D02*
X11052532Y-46782856D01*
X11052532Y-46782856D02*
X10976341Y-46820952D01*
X10976341Y-46820952D02*
X10938246Y-46820952D01*
X10938246Y-46820952D02*
X10862056Y-46782856D01*
X10862056Y-46782856D02*
X10823960Y-46706666D01*
X10823960Y-46706666D02*
X10823960Y-46592380D01*
X10823960Y-46592380D02*
X10862056Y-46516190D01*
X10957296Y-55697142D02*
X10157296Y-55697142D01*
X10957296Y-55239999D02*
X10500153Y-55582857D01*
X10157296Y-55239999D02*
X10614439Y-55697142D01*
X10538248Y-54897142D02*
X10538248Y-54630476D01*
X10957296Y-54516190D02*
X10957296Y-54897142D01*
X10957296Y-54897142D02*
X10157296Y-54897142D01*
X10157296Y-54897142D02*
X10157296Y-54516190D01*
X10538248Y-54173332D02*
X10538248Y-53906666D01*
X10957296Y-53792380D02*
X10957296Y-54173332D01*
X10957296Y-54173332D02*
X10157296Y-54173332D01*
X10157296Y-54173332D02*
X10157296Y-53792380D01*
X10957296Y-53449522D02*
X10157296Y-53449522D01*
X10157296Y-53449522D02*
X10157296Y-53144760D01*
X10157296Y-53144760D02*
X10195391Y-53068570D01*
X10195391Y-53068570D02*
X10233486Y-53030475D01*
X10233486Y-53030475D02*
X10309677Y-52992379D01*
X10309677Y-52992379D02*
X10423962Y-52992379D01*
X10423962Y-52992379D02*
X10500153Y-53030475D01*
X10500153Y-53030475D02*
X10538248Y-53068570D01*
X10538248Y-53068570D02*
X10576343Y-53144760D01*
X10576343Y-53144760D02*
X10576343Y-53449522D01*
X10652534Y-52649522D02*
X10652534Y-52039999D01*
X10157296Y-51506665D02*
X10157296Y-51354284D01*
X10157296Y-51354284D02*
X10195391Y-51278094D01*
X10195391Y-51278094D02*
X10271581Y-51201903D01*
X10271581Y-51201903D02*
X10423962Y-51163808D01*
X10423962Y-51163808D02*
X10690629Y-51163808D01*
X10690629Y-51163808D02*
X10843010Y-51201903D01*
X10843010Y-51201903D02*
X10919201Y-51278094D01*
X10919201Y-51278094D02*
X10957296Y-51354284D01*
X10957296Y-51354284D02*
X10957296Y-51506665D01*
X10957296Y-51506665D02*
X10919201Y-51582856D01*
X10919201Y-51582856D02*
X10843010Y-51659046D01*
X10843010Y-51659046D02*
X10690629Y-51697142D01*
X10690629Y-51697142D02*
X10423962Y-51697142D01*
X10423962Y-51697142D02*
X10271581Y-51659046D01*
X10271581Y-51659046D02*
X10195391Y-51582856D01*
X10195391Y-51582856D02*
X10157296Y-51506665D01*
X10157296Y-50820951D02*
X10804915Y-50820951D01*
X10804915Y-50820951D02*
X10881105Y-50782856D01*
X10881105Y-50782856D02*
X10919201Y-50744761D01*
X10919201Y-50744761D02*
X10957296Y-50668570D01*
X10957296Y-50668570D02*
X10957296Y-50516189D01*
X10957296Y-50516189D02*
X10919201Y-50439999D01*
X10919201Y-50439999D02*
X10881105Y-50401904D01*
X10881105Y-50401904D02*
X10804915Y-50363808D01*
X10804915Y-50363808D02*
X10157296Y-50363808D01*
X10157296Y-50097142D02*
X10157296Y-49639999D01*
X10957296Y-49868571D02*
X10157296Y-49868571D01*
X10157296Y-48839999D02*
X10157296Y-48306665D01*
X10157296Y-48306665D02*
X10957296Y-48839999D01*
X10957296Y-48839999D02*
X10957296Y-48306665D01*
X10157296Y-47849522D02*
X10157296Y-47697141D01*
X10157296Y-47697141D02*
X10195391Y-47620951D01*
X10195391Y-47620951D02*
X10271581Y-47544760D01*
X10271581Y-47544760D02*
X10423962Y-47506665D01*
X10423962Y-47506665D02*
X10690629Y-47506665D01*
X10690629Y-47506665D02*
X10843010Y-47544760D01*
X10843010Y-47544760D02*
X10919201Y-47620951D01*
X10919201Y-47620951D02*
X10957296Y-47697141D01*
X10957296Y-47697141D02*
X10957296Y-47849522D01*
X10957296Y-47849522D02*
X10919201Y-47925713D01*
X10919201Y-47925713D02*
X10843010Y-48001903D01*
X10843010Y-48001903D02*
X10690629Y-48039999D01*
X10690629Y-48039999D02*
X10423962Y-48039999D01*
X10423962Y-48039999D02*
X10271581Y-48001903D01*
X10271581Y-48001903D02*
X10195391Y-47925713D01*
X10195391Y-47925713D02*
X10157296Y-47849522D01*
X10957296Y-47163808D02*
X10157296Y-47163808D01*
X10157296Y-47163808D02*
X10957296Y-46706665D01*
X10957296Y-46706665D02*
X10157296Y-46706665D01*
X10538248Y-46325713D02*
X10538248Y-46059047D01*
X10957296Y-45944761D02*
X10957296Y-46325713D01*
X10957296Y-46325713D02*
X10157296Y-46325713D01*
X10157296Y-46325713D02*
X10157296Y-45944761D01*
X10957296Y-60697142D02*
X10157296Y-60697142D01*
X10957296Y-60239999D02*
X10500153Y-60582857D01*
X10157296Y-60239999D02*
X10614439Y-60697142D01*
X10538248Y-59897142D02*
X10538248Y-59630476D01*
X10957296Y-59516190D02*
X10957296Y-59897142D01*
X10957296Y-59897142D02*
X10157296Y-59897142D01*
X10157296Y-59897142D02*
X10157296Y-59516190D01*
X10538248Y-59173332D02*
X10538248Y-58906666D01*
X10957296Y-58792380D02*
X10957296Y-59173332D01*
X10957296Y-59173332D02*
X10157296Y-59173332D01*
X10157296Y-59173332D02*
X10157296Y-58792380D01*
X10957296Y-58449522D02*
X10157296Y-58449522D01*
X10157296Y-58449522D02*
X10157296Y-58144760D01*
X10157296Y-58144760D02*
X10195391Y-58068570D01*
X10195391Y-58068570D02*
X10233486Y-58030475D01*
X10233486Y-58030475D02*
X10309677Y-57992379D01*
X10309677Y-57992379D02*
X10423962Y-57992379D01*
X10423962Y-57992379D02*
X10500153Y-58030475D01*
X10500153Y-58030475D02*
X10538248Y-58068570D01*
X10538248Y-58068570D02*
X10576343Y-58144760D01*
X10576343Y-58144760D02*
X10576343Y-58449522D01*
X10652534Y-57649522D02*
X10652534Y-57039999D01*
X10157296Y-56506665D02*
X10157296Y-56354284D01*
X10157296Y-56354284D02*
X10195391Y-56278094D01*
X10195391Y-56278094D02*
X10271581Y-56201903D01*
X10271581Y-56201903D02*
X10423962Y-56163808D01*
X10423962Y-56163808D02*
X10690629Y-56163808D01*
X10690629Y-56163808D02*
X10843010Y-56201903D01*
X10843010Y-56201903D02*
X10919201Y-56278094D01*
X10919201Y-56278094D02*
X10957296Y-56354284D01*
X10957296Y-56354284D02*
X10957296Y-56506665D01*
X10957296Y-56506665D02*
X10919201Y-56582856D01*
X10919201Y-56582856D02*
X10843010Y-56659046D01*
X10843010Y-56659046D02*
X10690629Y-56697142D01*
X10690629Y-56697142D02*
X10423962Y-56697142D01*
X10423962Y-56697142D02*
X10271581Y-56659046D01*
X10271581Y-56659046D02*
X10195391Y-56582856D01*
X10195391Y-56582856D02*
X10157296Y-56506665D01*
X10157296Y-55820951D02*
X10804915Y-55820951D01*
X10804915Y-55820951D02*
X10881105Y-55782856D01*
X10881105Y-55782856D02*
X10919201Y-55744761D01*
X10919201Y-55744761D02*
X10957296Y-55668570D01*
X10957296Y-55668570D02*
X10957296Y-55516189D01*
X10957296Y-55516189D02*
X10919201Y-55439999D01*
X10919201Y-55439999D02*
X10881105Y-55401904D01*
X10881105Y-55401904D02*
X10804915Y-55363808D01*
X10804915Y-55363808D02*
X10157296Y-55363808D01*
X10157296Y-55097142D02*
X10157296Y-54639999D01*
X10957296Y-54868571D02*
X10157296Y-54868571D01*
X10157296Y-53839999D02*
X10157296Y-53306665D01*
X10157296Y-53306665D02*
X10957296Y-53839999D01*
X10957296Y-53839999D02*
X10957296Y-53306665D01*
X10157296Y-52849522D02*
X10157296Y-52697141D01*
X10157296Y-52697141D02*
X10195391Y-52620951D01*
X10195391Y-52620951D02*
X10271581Y-52544760D01*
X10271581Y-52544760D02*
X10423962Y-52506665D01*
X10423962Y-52506665D02*
X10690629Y-52506665D01*
X10690629Y-52506665D02*
X10843010Y-52544760D01*
X10843010Y-52544760D02*
X10919201Y-52620951D01*
X10919201Y-52620951D02*
X10957296Y-52697141D01*
X10957296Y-52697141D02*
X10957296Y-52849522D01*
X10957296Y-52849522D02*
X10919201Y-52925713D01*
X10919201Y-52925713D02*
X10843010Y-53001903D01*
X10843010Y-53001903D02*
X10690629Y-53039999D01*
X10690629Y-53039999D02*
X10423962Y-53039999D01*
X10423962Y-53039999D02*
X10271581Y-53001903D01*
X10271581Y-53001903D02*
X10195391Y-52925713D01*
X10195391Y-52925713D02*
X10157296Y-52849522D01*
X10957296Y-52163808D02*
X10157296Y-52163808D01*
X10157296Y-52163808D02*
X10957296Y-51706665D01*
X10957296Y-51706665D02*
X10157296Y-51706665D01*
X10538248Y-51325713D02*
X10538248Y-51059047D01*
X10957296Y-50944761D02*
X10957296Y-51325713D01*
X10957296Y-51325713D02*
X10157296Y-51325713D01*
X10157296Y-51325713D02*
X10157296Y-50944761D01*
X39542857Y-196832295D02*
X39542857Y-196032295D01*
X40000000Y-196832295D02*
X39657142Y-196375152D01*
X40000000Y-196032295D02*
X39542857Y-196489438D01*
X40342857Y-196413247D02*
X40609523Y-196413247D01*
X40723809Y-196832295D02*
X40342857Y-196832295D01*
X40342857Y-196832295D02*
X40342857Y-196032295D01*
X40342857Y-196032295D02*
X40723809Y-196032295D01*
X41066667Y-196413247D02*
X41333333Y-196413247D01*
X41447619Y-196832295D02*
X41066667Y-196832295D01*
X41066667Y-196832295D02*
X41066667Y-196032295D01*
X41066667Y-196032295D02*
X41447619Y-196032295D01*
X41790477Y-196832295D02*
X41790477Y-196032295D01*
X41790477Y-196032295D02*
X42095239Y-196032295D01*
X42095239Y-196032295D02*
X42171429Y-196070390D01*
X42171429Y-196070390D02*
X42209524Y-196108485D01*
X42209524Y-196108485D02*
X42247620Y-196184676D01*
X42247620Y-196184676D02*
X42247620Y-196298961D01*
X42247620Y-196298961D02*
X42209524Y-196375152D01*
X42209524Y-196375152D02*
X42171429Y-196413247D01*
X42171429Y-196413247D02*
X42095239Y-196451342D01*
X42095239Y-196451342D02*
X41790477Y-196451342D01*
X42590477Y-196527533D02*
X43200001Y-196527533D01*
X43733334Y-196032295D02*
X43885715Y-196032295D01*
X43885715Y-196032295D02*
X43961905Y-196070390D01*
X43961905Y-196070390D02*
X44038096Y-196146580D01*
X44038096Y-196146580D02*
X44076191Y-196298961D01*
X44076191Y-196298961D02*
X44076191Y-196565628D01*
X44076191Y-196565628D02*
X44038096Y-196718009D01*
X44038096Y-196718009D02*
X43961905Y-196794200D01*
X43961905Y-196794200D02*
X43885715Y-196832295D01*
X43885715Y-196832295D02*
X43733334Y-196832295D01*
X43733334Y-196832295D02*
X43657143Y-196794200D01*
X43657143Y-196794200D02*
X43580953Y-196718009D01*
X43580953Y-196718009D02*
X43542857Y-196565628D01*
X43542857Y-196565628D02*
X43542857Y-196298961D01*
X43542857Y-196298961D02*
X43580953Y-196146580D01*
X43580953Y-196146580D02*
X43657143Y-196070390D01*
X43657143Y-196070390D02*
X43733334Y-196032295D01*
X44419048Y-196032295D02*
X44419048Y-196679914D01*
X44419048Y-196679914D02*
X44457143Y-196756104D01*
X44457143Y-196756104D02*
X44495238Y-196794200D01*
X44495238Y-196794200D02*
X44571429Y-196832295D01*
X44571429Y-196832295D02*
X44723810Y-196832295D01*
X44723810Y-196832295D02*
X44800000Y-196794200D01*
X44800000Y-196794200D02*
X44838095Y-196756104D01*
X44838095Y-196756104D02*
X44876191Y-196679914D01*
X44876191Y-196679914D02*
X44876191Y-196032295D01*
X45142857Y-196032295D02*
X45600000Y-196032295D01*
X45371428Y-196832295D02*
X45371428Y-196032295D01*
X46400000Y-196032295D02*
X46933334Y-196032295D01*
X46933334Y-196032295D02*
X46400000Y-196832295D01*
X46400000Y-196832295D02*
X46933334Y-196832295D01*
X47390477Y-196032295D02*
X47542858Y-196032295D01*
X47542858Y-196032295D02*
X47619048Y-196070390D01*
X47619048Y-196070390D02*
X47695239Y-196146580D01*
X47695239Y-196146580D02*
X47733334Y-196298961D01*
X47733334Y-196298961D02*
X47733334Y-196565628D01*
X47733334Y-196565628D02*
X47695239Y-196718009D01*
X47695239Y-196718009D02*
X47619048Y-196794200D01*
X47619048Y-196794200D02*
X47542858Y-196832295D01*
X47542858Y-196832295D02*
X47390477Y-196832295D01*
X47390477Y-196832295D02*
X47314286Y-196794200D01*
X47314286Y-196794200D02*
X47238096Y-196718009D01*
X47238096Y-196718009D02*
X47200000Y-196565628D01*
X47200000Y-196565628D02*
X47200000Y-196298961D01*
X47200000Y-196298961D02*
X47238096Y-196146580D01*
X47238096Y-196146580D02*
X47314286Y-196070390D01*
X47314286Y-196070390D02*
X47390477Y-196032295D01*
X48076191Y-196832295D02*
X48076191Y-196032295D01*
X48076191Y-196032295D02*
X48533334Y-196832295D01*
X48533334Y-196832295D02*
X48533334Y-196032295D01*
X48914286Y-196413247D02*
X49180952Y-196413247D01*
X49295238Y-196832295D02*
X48914286Y-196832295D01*
X48914286Y-196832295D02*
X48914286Y-196032295D01*
X48914286Y-196032295D02*
X49295238Y-196032295D01*
X42240475Y-187123723D02*
X42621428Y-187123723D01*
X42164285Y-187352295D02*
X42430952Y-186552295D01*
X42430952Y-186552295D02*
X42697618Y-187352295D01*
X42964285Y-186818961D02*
X42964285Y-187352295D01*
X42964285Y-186895152D02*
X43002380Y-186857057D01*
X43002380Y-186857057D02*
X43078570Y-186818961D01*
X43078570Y-186818961D02*
X43192856Y-186818961D01*
X43192856Y-186818961D02*
X43269047Y-186857057D01*
X43269047Y-186857057D02*
X43307142Y-186933247D01*
X43307142Y-186933247D02*
X43307142Y-187352295D01*
X43573809Y-186818961D02*
X43878571Y-186818961D01*
X43688095Y-186552295D02*
X43688095Y-187238009D01*
X43688095Y-187238009D02*
X43726190Y-187314200D01*
X43726190Y-187314200D02*
X43802380Y-187352295D01*
X43802380Y-187352295D02*
X43878571Y-187352295D01*
X44450000Y-187314200D02*
X44373809Y-187352295D01*
X44373809Y-187352295D02*
X44221428Y-187352295D01*
X44221428Y-187352295D02*
X44145238Y-187314200D01*
X44145238Y-187314200D02*
X44107142Y-187238009D01*
X44107142Y-187238009D02*
X44107142Y-186933247D01*
X44107142Y-186933247D02*
X44145238Y-186857057D01*
X44145238Y-186857057D02*
X44221428Y-186818961D01*
X44221428Y-186818961D02*
X44373809Y-186818961D01*
X44373809Y-186818961D02*
X44450000Y-186857057D01*
X44450000Y-186857057D02*
X44488095Y-186933247D01*
X44488095Y-186933247D02*
X44488095Y-187009438D01*
X44488095Y-187009438D02*
X44107142Y-187085628D01*
X44830952Y-186818961D02*
X44830952Y-187352295D01*
X44830952Y-186895152D02*
X44869047Y-186857057D01*
X44869047Y-186857057D02*
X44945237Y-186818961D01*
X44945237Y-186818961D02*
X45059523Y-186818961D01*
X45059523Y-186818961D02*
X45135714Y-186857057D01*
X45135714Y-186857057D02*
X45173809Y-186933247D01*
X45173809Y-186933247D02*
X45173809Y-187352295D01*
X45554762Y-186818961D02*
X45554762Y-187352295D01*
X45554762Y-186895152D02*
X45592857Y-186857057D01*
X45592857Y-186857057D02*
X45669047Y-186818961D01*
X45669047Y-186818961D02*
X45783333Y-186818961D01*
X45783333Y-186818961D02*
X45859524Y-186857057D01*
X45859524Y-186857057D02*
X45897619Y-186933247D01*
X45897619Y-186933247D02*
X45897619Y-187352295D01*
X46621429Y-187352295D02*
X46621429Y-186933247D01*
X46621429Y-186933247D02*
X46583334Y-186857057D01*
X46583334Y-186857057D02*
X46507143Y-186818961D01*
X46507143Y-186818961D02*
X46354762Y-186818961D01*
X46354762Y-186818961D02*
X46278572Y-186857057D01*
X46621429Y-187314200D02*
X46545238Y-187352295D01*
X46545238Y-187352295D02*
X46354762Y-187352295D01*
X46354762Y-187352295D02*
X46278572Y-187314200D01*
X46278572Y-187314200D02*
X46240476Y-187238009D01*
X46240476Y-187238009D02*
X46240476Y-187161819D01*
X46240476Y-187161819D02*
X46278572Y-187085628D01*
X46278572Y-187085628D02*
X46354762Y-187047533D01*
X46354762Y-187047533D02*
X46545238Y-187047533D01*
X46545238Y-187047533D02*
X46621429Y-187009438D01*
X48422295Y-158567142D02*
X47622295Y-158567142D01*
X48422295Y-158109999D02*
X47965152Y-158452857D01*
X47622295Y-158109999D02*
X48079438Y-158567142D01*
X48003247Y-157767142D02*
X48003247Y-157500476D01*
X48422295Y-157386190D02*
X48422295Y-157767142D01*
X48422295Y-157767142D02*
X47622295Y-157767142D01*
X47622295Y-157767142D02*
X47622295Y-157386190D01*
X48003247Y-157043332D02*
X48003247Y-156776666D01*
X48422295Y-156662380D02*
X48422295Y-157043332D01*
X48422295Y-157043332D02*
X47622295Y-157043332D01*
X47622295Y-157043332D02*
X47622295Y-156662380D01*
X48422295Y-156319522D02*
X47622295Y-156319522D01*
X47622295Y-156319522D02*
X47622295Y-156014760D01*
X47622295Y-156014760D02*
X47660390Y-155938570D01*
X47660390Y-155938570D02*
X47698485Y-155900475D01*
X47698485Y-155900475D02*
X47774676Y-155862379D01*
X47774676Y-155862379D02*
X47888961Y-155862379D01*
X47888961Y-155862379D02*
X47965152Y-155900475D01*
X47965152Y-155900475D02*
X48003247Y-155938570D01*
X48003247Y-155938570D02*
X48041342Y-156014760D01*
X48041342Y-156014760D02*
X48041342Y-156319522D01*
X48117533Y-155519522D02*
X48117533Y-154909999D01*
X47622295Y-154376665D02*
X47622295Y-154224284D01*
X47622295Y-154224284D02*
X47660390Y-154148094D01*
X47660390Y-154148094D02*
X47736580Y-154071903D01*
X47736580Y-154071903D02*
X47888961Y-154033808D01*
X47888961Y-154033808D02*
X48155628Y-154033808D01*
X48155628Y-154033808D02*
X48308009Y-154071903D01*
X48308009Y-154071903D02*
X48384200Y-154148094D01*
X48384200Y-154148094D02*
X48422295Y-154224284D01*
X48422295Y-154224284D02*
X48422295Y-154376665D01*
X48422295Y-154376665D02*
X48384200Y-154452856D01*
X48384200Y-154452856D02*
X48308009Y-154529046D01*
X48308009Y-154529046D02*
X48155628Y-154567142D01*
X48155628Y-154567142D02*
X47888961Y-154567142D01*
X47888961Y-154567142D02*
X47736580Y-154529046D01*
X47736580Y-154529046D02*
X47660390Y-154452856D01*
X47660390Y-154452856D02*
X47622295Y-154376665D01*
X47622295Y-153690951D02*
X48269914Y-153690951D01*
X48269914Y-153690951D02*
X48346104Y-153652856D01*
X48346104Y-153652856D02*
X48384200Y-153614761D01*
X48384200Y-153614761D02*
X48422295Y-153538570D01*
X48422295Y-153538570D02*
X48422295Y-153386189D01*
X48422295Y-153386189D02*
X48384200Y-153309999D01*
X48384200Y-153309999D02*
X48346104Y-153271904D01*
X48346104Y-153271904D02*
X48269914Y-153233808D01*
X48269914Y-153233808D02*
X47622295Y-153233808D01*
X47622295Y-152967142D02*
X47622295Y-152509999D01*
X48422295Y-152738571D02*
X47622295Y-152738571D01*
X47622295Y-151709999D02*
X47622295Y-151176665D01*
X47622295Y-151176665D02*
X48422295Y-151709999D01*
X48422295Y-151709999D02*
X48422295Y-151176665D01*
X47622295Y-150719522D02*
X47622295Y-150567141D01*
X47622295Y-150567141D02*
X47660390Y-150490951D01*
X47660390Y-150490951D02*
X47736580Y-150414760D01*
X47736580Y-150414760D02*
X47888961Y-150376665D01*
X47888961Y-150376665D02*
X48155628Y-150376665D01*
X48155628Y-150376665D02*
X48308009Y-150414760D01*
X48308009Y-150414760D02*
X48384200Y-150490951D01*
X48384200Y-150490951D02*
X48422295Y-150567141D01*
X48422295Y-150567141D02*
X48422295Y-150719522D01*
X48422295Y-150719522D02*
X48384200Y-150795713D01*
X48384200Y-150795713D02*
X48308009Y-150871903D01*
X48308009Y-150871903D02*
X48155628Y-150909999D01*
X48155628Y-150909999D02*
X47888961Y-150909999D01*
X47888961Y-150909999D02*
X47736580Y-150871903D01*
X47736580Y-150871903D02*
X47660390Y-150795713D01*
X47660390Y-150795713D02*
X47622295Y-150719522D01*
X48422295Y-150033808D02*
X47622295Y-150033808D01*
X47622295Y-150033808D02*
X48422295Y-149576665D01*
X48422295Y-149576665D02*
X47622295Y-149576665D01*
X48003247Y-149195713D02*
X48003247Y-148929047D01*
X48422295Y-148814761D02*
X48422295Y-149195713D01*
X48422295Y-149195713D02*
X47622295Y-149195713D01*
X47622295Y-149195713D02*
X47622295Y-148814761D01*
X48422295Y-163567142D02*
X47622295Y-163567142D01*
X48422295Y-163109999D02*
X47965152Y-163452857D01*
X47622295Y-163109999D02*
X48079438Y-163567142D01*
X48003247Y-162767142D02*
X48003247Y-162500476D01*
X48422295Y-162386190D02*
X48422295Y-162767142D01*
X48422295Y-162767142D02*
X47622295Y-162767142D01*
X47622295Y-162767142D02*
X47622295Y-162386190D01*
X48003247Y-162043332D02*
X48003247Y-161776666D01*
X48422295Y-161662380D02*
X48422295Y-162043332D01*
X48422295Y-162043332D02*
X47622295Y-162043332D01*
X47622295Y-162043332D02*
X47622295Y-161662380D01*
X48422295Y-161319522D02*
X47622295Y-161319522D01*
X47622295Y-161319522D02*
X47622295Y-161014760D01*
X47622295Y-161014760D02*
X47660390Y-160938570D01*
X47660390Y-160938570D02*
X47698485Y-160900475D01*
X47698485Y-160900475D02*
X47774676Y-160862379D01*
X47774676Y-160862379D02*
X47888961Y-160862379D01*
X47888961Y-160862379D02*
X47965152Y-160900475D01*
X47965152Y-160900475D02*
X48003247Y-160938570D01*
X48003247Y-160938570D02*
X48041342Y-161014760D01*
X48041342Y-161014760D02*
X48041342Y-161319522D01*
X48117533Y-160519522D02*
X48117533Y-159909999D01*
X47622295Y-159376665D02*
X47622295Y-159224284D01*
X47622295Y-159224284D02*
X47660390Y-159148094D01*
X47660390Y-159148094D02*
X47736580Y-159071903D01*
X47736580Y-159071903D02*
X47888961Y-159033808D01*
X47888961Y-159033808D02*
X48155628Y-159033808D01*
X48155628Y-159033808D02*
X48308009Y-159071903D01*
X48308009Y-159071903D02*
X48384200Y-159148094D01*
X48384200Y-159148094D02*
X48422295Y-159224284D01*
X48422295Y-159224284D02*
X48422295Y-159376665D01*
X48422295Y-159376665D02*
X48384200Y-159452856D01*
X48384200Y-159452856D02*
X48308009Y-159529046D01*
X48308009Y-159529046D02*
X48155628Y-159567142D01*
X48155628Y-159567142D02*
X47888961Y-159567142D01*
X47888961Y-159567142D02*
X47736580Y-159529046D01*
X47736580Y-159529046D02*
X47660390Y-159452856D01*
X47660390Y-159452856D02*
X47622295Y-159376665D01*
X47622295Y-158690951D02*
X48269914Y-158690951D01*
X48269914Y-158690951D02*
X48346104Y-158652856D01*
X48346104Y-158652856D02*
X48384200Y-158614761D01*
X48384200Y-158614761D02*
X48422295Y-158538570D01*
X48422295Y-158538570D02*
X48422295Y-158386189D01*
X48422295Y-158386189D02*
X48384200Y-158309999D01*
X48384200Y-158309999D02*
X48346104Y-158271904D01*
X48346104Y-158271904D02*
X48269914Y-158233808D01*
X48269914Y-158233808D02*
X47622295Y-158233808D01*
X47622295Y-157967142D02*
X47622295Y-157509999D01*
X48422295Y-157738571D02*
X47622295Y-157738571D01*
X47622295Y-156709999D02*
X47622295Y-156176665D01*
X47622295Y-156176665D02*
X48422295Y-156709999D01*
X48422295Y-156709999D02*
X48422295Y-156176665D01*
X47622295Y-155719522D02*
X47622295Y-155567141D01*
X47622295Y-155567141D02*
X47660390Y-155490951D01*
X47660390Y-155490951D02*
X47736580Y-155414760D01*
X47736580Y-155414760D02*
X47888961Y-155376665D01*
X47888961Y-155376665D02*
X48155628Y-155376665D01*
X48155628Y-155376665D02*
X48308009Y-155414760D01*
X48308009Y-155414760D02*
X48384200Y-155490951D01*
X48384200Y-155490951D02*
X48422295Y-155567141D01*
X48422295Y-155567141D02*
X48422295Y-155719522D01*
X48422295Y-155719522D02*
X48384200Y-155795713D01*
X48384200Y-155795713D02*
X48308009Y-155871903D01*
X48308009Y-155871903D02*
X48155628Y-155909999D01*
X48155628Y-155909999D02*
X47888961Y-155909999D01*
X47888961Y-155909999D02*
X47736580Y-155871903D01*
X47736580Y-155871903D02*
X47660390Y-155795713D01*
X47660390Y-155795713D02*
X47622295Y-155719522D01*
X48422295Y-155033808D02*
X47622295Y-155033808D01*
X47622295Y-155033808D02*
X48422295Y-154576665D01*
X48422295Y-154576665D02*
X47622295Y-154576665D01*
X48003247Y-154195713D02*
X48003247Y-153929047D01*
X48422295Y-153814761D02*
X48422295Y-154195713D01*
X48422295Y-154195713D02*
X47622295Y-154195713D01*
X47622295Y-154195713D02*
X47622295Y-153814761D01*
X48822295Y-158033809D02*
X48022295Y-158033809D01*
X48022295Y-158033809D02*
X48822295Y-157576666D01*
X48822295Y-157576666D02*
X48022295Y-157576666D01*
X48822295Y-157081429D02*
X48784200Y-157157619D01*
X48784200Y-157157619D02*
X48746104Y-157195714D01*
X48746104Y-157195714D02*
X48669914Y-157233810D01*
X48669914Y-157233810D02*
X48441342Y-157233810D01*
X48441342Y-157233810D02*
X48365152Y-157195714D01*
X48365152Y-157195714D02*
X48327057Y-157157619D01*
X48327057Y-157157619D02*
X48288961Y-157081429D01*
X48288961Y-157081429D02*
X48288961Y-156967143D01*
X48288961Y-156967143D02*
X48327057Y-156890952D01*
X48327057Y-156890952D02*
X48365152Y-156852857D01*
X48365152Y-156852857D02*
X48441342Y-156814762D01*
X48441342Y-156814762D02*
X48669914Y-156814762D01*
X48669914Y-156814762D02*
X48746104Y-156852857D01*
X48746104Y-156852857D02*
X48784200Y-156890952D01*
X48784200Y-156890952D02*
X48822295Y-156967143D01*
X48822295Y-156967143D02*
X48822295Y-157081429D01*
X48403247Y-155595714D02*
X48403247Y-155862380D01*
X48822295Y-155862380D02*
X48022295Y-155862380D01*
X48022295Y-155862380D02*
X48022295Y-155481428D01*
X48746104Y-155176666D02*
X48784200Y-155138571D01*
X48784200Y-155138571D02*
X48822295Y-155176666D01*
X48822295Y-155176666D02*
X48784200Y-155214762D01*
X48784200Y-155214762D02*
X48746104Y-155176666D01*
X48746104Y-155176666D02*
X48822295Y-155176666D01*
X48746104Y-154338571D02*
X48784200Y-154376667D01*
X48784200Y-154376667D02*
X48822295Y-154490952D01*
X48822295Y-154490952D02*
X48822295Y-154567143D01*
X48822295Y-154567143D02*
X48784200Y-154681429D01*
X48784200Y-154681429D02*
X48708009Y-154757619D01*
X48708009Y-154757619D02*
X48631819Y-154795714D01*
X48631819Y-154795714D02*
X48479438Y-154833810D01*
X48479438Y-154833810D02*
X48365152Y-154833810D01*
X48365152Y-154833810D02*
X48212771Y-154795714D01*
X48212771Y-154795714D02*
X48136580Y-154757619D01*
X48136580Y-154757619D02*
X48060390Y-154681429D01*
X48060390Y-154681429D02*
X48022295Y-154567143D01*
X48022295Y-154567143D02*
X48022295Y-154490952D01*
X48022295Y-154490952D02*
X48060390Y-154376667D01*
X48060390Y-154376667D02*
X48098485Y-154338571D01*
X48288961Y-153652857D02*
X48822295Y-153652857D01*
X48288961Y-153995714D02*
X48708009Y-153995714D01*
X48708009Y-153995714D02*
X48784200Y-153957619D01*
X48784200Y-153957619D02*
X48822295Y-153881429D01*
X48822295Y-153881429D02*
X48822295Y-153767143D01*
X48822295Y-153767143D02*
X48784200Y-153690952D01*
X48784200Y-153690952D02*
X48746104Y-153652857D01*
X48288961Y-152776666D02*
X48288961Y-152471904D01*
X48022295Y-152662380D02*
X48708009Y-152662380D01*
X48708009Y-152662380D02*
X48784200Y-152624285D01*
X48784200Y-152624285D02*
X48822295Y-152548095D01*
X48822295Y-152548095D02*
X48822295Y-152471904D01*
X48822295Y-152205237D02*
X48288961Y-152205237D01*
X48441342Y-152205237D02*
X48365152Y-152167142D01*
X48365152Y-152167142D02*
X48327057Y-152129047D01*
X48327057Y-152129047D02*
X48288961Y-152052856D01*
X48288961Y-152052856D02*
X48288961Y-151976666D01*
X48822295Y-151367142D02*
X48403247Y-151367142D01*
X48403247Y-151367142D02*
X48327057Y-151405237D01*
X48327057Y-151405237D02*
X48288961Y-151481428D01*
X48288961Y-151481428D02*
X48288961Y-151633809D01*
X48288961Y-151633809D02*
X48327057Y-151709999D01*
X48784200Y-151367142D02*
X48822295Y-151443333D01*
X48822295Y-151443333D02*
X48822295Y-151633809D01*
X48822295Y-151633809D02*
X48784200Y-151709999D01*
X48784200Y-151709999D02*
X48708009Y-151748095D01*
X48708009Y-151748095D02*
X48631819Y-151748095D01*
X48631819Y-151748095D02*
X48555628Y-151709999D01*
X48555628Y-151709999D02*
X48517533Y-151633809D01*
X48517533Y-151633809D02*
X48517533Y-151443333D01*
X48517533Y-151443333D02*
X48479438Y-151367142D01*
X48784200Y-150643332D02*
X48822295Y-150719523D01*
X48822295Y-150719523D02*
X48822295Y-150871904D01*
X48822295Y-150871904D02*
X48784200Y-150948094D01*
X48784200Y-150948094D02*
X48746104Y-150986189D01*
X48746104Y-150986189D02*
X48669914Y-151024285D01*
X48669914Y-151024285D02*
X48441342Y-151024285D01*
X48441342Y-151024285D02*
X48365152Y-150986189D01*
X48365152Y-150986189D02*
X48327057Y-150948094D01*
X48327057Y-150948094D02*
X48288961Y-150871904D01*
X48288961Y-150871904D02*
X48288961Y-150719523D01*
X48288961Y-150719523D02*
X48327057Y-150643332D01*
X48822295Y-150300475D02*
X48022295Y-150300475D01*
X48517533Y-150224285D02*
X48822295Y-149995713D01*
X48288961Y-149995713D02*
X48593723Y-150300475D01*
X48784200Y-149690952D02*
X48822295Y-149614761D01*
X48822295Y-149614761D02*
X48822295Y-149462380D01*
X48822295Y-149462380D02*
X48784200Y-149386190D01*
X48784200Y-149386190D02*
X48708009Y-149348094D01*
X48708009Y-149348094D02*
X48669914Y-149348094D01*
X48669914Y-149348094D02*
X48593723Y-149386190D01*
X48593723Y-149386190D02*
X48555628Y-149462380D01*
X48555628Y-149462380D02*
X48555628Y-149576666D01*
X48555628Y-149576666D02*
X48517533Y-149652856D01*
X48517533Y-149652856D02*
X48441342Y-149690952D01*
X48441342Y-149690952D02*
X48403247Y-149690952D01*
X48403247Y-149690952D02*
X48327057Y-149652856D01*
X48327057Y-149652856D02*
X48288961Y-149576666D01*
X48288961Y-149576666D02*
X48288961Y-149462380D01*
X48288961Y-149462380D02*
X48327057Y-149386190D01*
X48822295Y-163033809D02*
X48022295Y-163033809D01*
X48022295Y-163033809D02*
X48822295Y-162576666D01*
X48822295Y-162576666D02*
X48022295Y-162576666D01*
X48822295Y-162081429D02*
X48784200Y-162157619D01*
X48784200Y-162157619D02*
X48746104Y-162195714D01*
X48746104Y-162195714D02*
X48669914Y-162233810D01*
X48669914Y-162233810D02*
X48441342Y-162233810D01*
X48441342Y-162233810D02*
X48365152Y-162195714D01*
X48365152Y-162195714D02*
X48327057Y-162157619D01*
X48327057Y-162157619D02*
X48288961Y-162081429D01*
X48288961Y-162081429D02*
X48288961Y-161967143D01*
X48288961Y-161967143D02*
X48327057Y-161890952D01*
X48327057Y-161890952D02*
X48365152Y-161852857D01*
X48365152Y-161852857D02*
X48441342Y-161814762D01*
X48441342Y-161814762D02*
X48669914Y-161814762D01*
X48669914Y-161814762D02*
X48746104Y-161852857D01*
X48746104Y-161852857D02*
X48784200Y-161890952D01*
X48784200Y-161890952D02*
X48822295Y-161967143D01*
X48822295Y-161967143D02*
X48822295Y-162081429D01*
X48403247Y-160595714D02*
X48403247Y-160862380D01*
X48822295Y-160862380D02*
X48022295Y-160862380D01*
X48022295Y-160862380D02*
X48022295Y-160481428D01*
X48746104Y-160176666D02*
X48784200Y-160138571D01*
X48784200Y-160138571D02*
X48822295Y-160176666D01*
X48822295Y-160176666D02*
X48784200Y-160214762D01*
X48784200Y-160214762D02*
X48746104Y-160176666D01*
X48746104Y-160176666D02*
X48822295Y-160176666D01*
X48746104Y-159338571D02*
X48784200Y-159376667D01*
X48784200Y-159376667D02*
X48822295Y-159490952D01*
X48822295Y-159490952D02*
X48822295Y-159567143D01*
X48822295Y-159567143D02*
X48784200Y-159681429D01*
X48784200Y-159681429D02*
X48708009Y-159757619D01*
X48708009Y-159757619D02*
X48631819Y-159795714D01*
X48631819Y-159795714D02*
X48479438Y-159833810D01*
X48479438Y-159833810D02*
X48365152Y-159833810D01*
X48365152Y-159833810D02*
X48212771Y-159795714D01*
X48212771Y-159795714D02*
X48136580Y-159757619D01*
X48136580Y-159757619D02*
X48060390Y-159681429D01*
X48060390Y-159681429D02*
X48022295Y-159567143D01*
X48022295Y-159567143D02*
X48022295Y-159490952D01*
X48022295Y-159490952D02*
X48060390Y-159376667D01*
X48060390Y-159376667D02*
X48098485Y-159338571D01*
X48288961Y-158652857D02*
X48822295Y-158652857D01*
X48288961Y-158995714D02*
X48708009Y-158995714D01*
X48708009Y-158995714D02*
X48784200Y-158957619D01*
X48784200Y-158957619D02*
X48822295Y-158881429D01*
X48822295Y-158881429D02*
X48822295Y-158767143D01*
X48822295Y-158767143D02*
X48784200Y-158690952D01*
X48784200Y-158690952D02*
X48746104Y-158652857D01*
X48288961Y-157776666D02*
X48288961Y-157471904D01*
X48022295Y-157662380D02*
X48708009Y-157662380D01*
X48708009Y-157662380D02*
X48784200Y-157624285D01*
X48784200Y-157624285D02*
X48822295Y-157548095D01*
X48822295Y-157548095D02*
X48822295Y-157471904D01*
X48822295Y-157205237D02*
X48288961Y-157205237D01*
X48441342Y-157205237D02*
X48365152Y-157167142D01*
X48365152Y-157167142D02*
X48327057Y-157129047D01*
X48327057Y-157129047D02*
X48288961Y-157052856D01*
X48288961Y-157052856D02*
X48288961Y-156976666D01*
X48822295Y-156367142D02*
X48403247Y-156367142D01*
X48403247Y-156367142D02*
X48327057Y-156405237D01*
X48327057Y-156405237D02*
X48288961Y-156481428D01*
X48288961Y-156481428D02*
X48288961Y-156633809D01*
X48288961Y-156633809D02*
X48327057Y-156709999D01*
X48784200Y-156367142D02*
X48822295Y-156443333D01*
X48822295Y-156443333D02*
X48822295Y-156633809D01*
X48822295Y-156633809D02*
X48784200Y-156709999D01*
X48784200Y-156709999D02*
X48708009Y-156748095D01*
X48708009Y-156748095D02*
X48631819Y-156748095D01*
X48631819Y-156748095D02*
X48555628Y-156709999D01*
X48555628Y-156709999D02*
X48517533Y-156633809D01*
X48517533Y-156633809D02*
X48517533Y-156443333D01*
X48517533Y-156443333D02*
X48479438Y-156367142D01*
X48784200Y-155643332D02*
X48822295Y-155719523D01*
X48822295Y-155719523D02*
X48822295Y-155871904D01*
X48822295Y-155871904D02*
X48784200Y-155948094D01*
X48784200Y-155948094D02*
X48746104Y-155986189D01*
X48746104Y-155986189D02*
X48669914Y-156024285D01*
X48669914Y-156024285D02*
X48441342Y-156024285D01*
X48441342Y-156024285D02*
X48365152Y-155986189D01*
X48365152Y-155986189D02*
X48327057Y-155948094D01*
X48327057Y-155948094D02*
X48288961Y-155871904D01*
X48288961Y-155871904D02*
X48288961Y-155719523D01*
X48288961Y-155719523D02*
X48327057Y-155643332D01*
X48822295Y-155300475D02*
X48022295Y-155300475D01*
X48517533Y-155224285D02*
X48822295Y-154995713D01*
X48288961Y-154995713D02*
X48593723Y-155300475D01*
X48784200Y-154690952D02*
X48822295Y-154614761D01*
X48822295Y-154614761D02*
X48822295Y-154462380D01*
X48822295Y-154462380D02*
X48784200Y-154386190D01*
X48784200Y-154386190D02*
X48708009Y-154348094D01*
X48708009Y-154348094D02*
X48669914Y-154348094D01*
X48669914Y-154348094D02*
X48593723Y-154386190D01*
X48593723Y-154386190D02*
X48555628Y-154462380D01*
X48555628Y-154462380D02*
X48555628Y-154576666D01*
X48555628Y-154576666D02*
X48517533Y-154652856D01*
X48517533Y-154652856D02*
X48441342Y-154690952D01*
X48441342Y-154690952D02*
X48403247Y-154690952D01*
X48403247Y-154690952D02*
X48327057Y-154652856D01*
X48327057Y-154652856D02*
X48288961Y-154576666D01*
X48288961Y-154576666D02*
X48288961Y-154462380D01*
X48288961Y-154462380D02*
X48327057Y-154386190D01*
X57312295Y-158567142D02*
X56512295Y-158567142D01*
X57312295Y-158109999D02*
X56855152Y-158452857D01*
X56512295Y-158109999D02*
X56969438Y-158567142D01*
X56893247Y-157767142D02*
X56893247Y-157500476D01*
X57312295Y-157386190D02*
X57312295Y-157767142D01*
X57312295Y-157767142D02*
X56512295Y-157767142D01*
X56512295Y-157767142D02*
X56512295Y-157386190D01*
X56893247Y-157043332D02*
X56893247Y-156776666D01*
X57312295Y-156662380D02*
X57312295Y-157043332D01*
X57312295Y-157043332D02*
X56512295Y-157043332D01*
X56512295Y-157043332D02*
X56512295Y-156662380D01*
X57312295Y-156319522D02*
X56512295Y-156319522D01*
X56512295Y-156319522D02*
X56512295Y-156014760D01*
X56512295Y-156014760D02*
X56550390Y-155938570D01*
X56550390Y-155938570D02*
X56588485Y-155900475D01*
X56588485Y-155900475D02*
X56664676Y-155862379D01*
X56664676Y-155862379D02*
X56778961Y-155862379D01*
X56778961Y-155862379D02*
X56855152Y-155900475D01*
X56855152Y-155900475D02*
X56893247Y-155938570D01*
X56893247Y-155938570D02*
X56931342Y-156014760D01*
X56931342Y-156014760D02*
X56931342Y-156319522D01*
X57007533Y-155519522D02*
X57007533Y-154909999D01*
X56512295Y-154376665D02*
X56512295Y-154224284D01*
X56512295Y-154224284D02*
X56550390Y-154148094D01*
X56550390Y-154148094D02*
X56626580Y-154071903D01*
X56626580Y-154071903D02*
X56778961Y-154033808D01*
X56778961Y-154033808D02*
X57045628Y-154033808D01*
X57045628Y-154033808D02*
X57198009Y-154071903D01*
X57198009Y-154071903D02*
X57274200Y-154148094D01*
X57274200Y-154148094D02*
X57312295Y-154224284D01*
X57312295Y-154224284D02*
X57312295Y-154376665D01*
X57312295Y-154376665D02*
X57274200Y-154452856D01*
X57274200Y-154452856D02*
X57198009Y-154529046D01*
X57198009Y-154529046D02*
X57045628Y-154567142D01*
X57045628Y-154567142D02*
X56778961Y-154567142D01*
X56778961Y-154567142D02*
X56626580Y-154529046D01*
X56626580Y-154529046D02*
X56550390Y-154452856D01*
X56550390Y-154452856D02*
X56512295Y-154376665D01*
X56512295Y-153690951D02*
X57159914Y-153690951D01*
X57159914Y-153690951D02*
X57236104Y-153652856D01*
X57236104Y-153652856D02*
X57274200Y-153614761D01*
X57274200Y-153614761D02*
X57312295Y-153538570D01*
X57312295Y-153538570D02*
X57312295Y-153386189D01*
X57312295Y-153386189D02*
X57274200Y-153309999D01*
X57274200Y-153309999D02*
X57236104Y-153271904D01*
X57236104Y-153271904D02*
X57159914Y-153233808D01*
X57159914Y-153233808D02*
X56512295Y-153233808D01*
X56512295Y-152967142D02*
X56512295Y-152509999D01*
X57312295Y-152738571D02*
X56512295Y-152738571D01*
X56512295Y-151709999D02*
X56512295Y-151176665D01*
X56512295Y-151176665D02*
X57312295Y-151709999D01*
X57312295Y-151709999D02*
X57312295Y-151176665D01*
X56512295Y-150719522D02*
X56512295Y-150567141D01*
X56512295Y-150567141D02*
X56550390Y-150490951D01*
X56550390Y-150490951D02*
X56626580Y-150414760D01*
X56626580Y-150414760D02*
X56778961Y-150376665D01*
X56778961Y-150376665D02*
X57045628Y-150376665D01*
X57045628Y-150376665D02*
X57198009Y-150414760D01*
X57198009Y-150414760D02*
X57274200Y-150490951D01*
X57274200Y-150490951D02*
X57312295Y-150567141D01*
X57312295Y-150567141D02*
X57312295Y-150719522D01*
X57312295Y-150719522D02*
X57274200Y-150795713D01*
X57274200Y-150795713D02*
X57198009Y-150871903D01*
X57198009Y-150871903D02*
X57045628Y-150909999D01*
X57045628Y-150909999D02*
X56778961Y-150909999D01*
X56778961Y-150909999D02*
X56626580Y-150871903D01*
X56626580Y-150871903D02*
X56550390Y-150795713D01*
X56550390Y-150795713D02*
X56512295Y-150719522D01*
X57312295Y-150033808D02*
X56512295Y-150033808D01*
X56512295Y-150033808D02*
X57312295Y-149576665D01*
X57312295Y-149576665D02*
X56512295Y-149576665D01*
X56893247Y-149195713D02*
X56893247Y-148929047D01*
X57312295Y-148814761D02*
X57312295Y-149195713D01*
X57312295Y-149195713D02*
X56512295Y-149195713D01*
X56512295Y-149195713D02*
X56512295Y-148814761D01*
X57712295Y-163033809D02*
X56912295Y-163033809D01*
X56912295Y-163033809D02*
X57712295Y-162576666D01*
X57712295Y-162576666D02*
X56912295Y-162576666D01*
X57712295Y-162081429D02*
X57674200Y-162157619D01*
X57674200Y-162157619D02*
X57636104Y-162195714D01*
X57636104Y-162195714D02*
X57559914Y-162233810D01*
X57559914Y-162233810D02*
X57331342Y-162233810D01*
X57331342Y-162233810D02*
X57255152Y-162195714D01*
X57255152Y-162195714D02*
X57217057Y-162157619D01*
X57217057Y-162157619D02*
X57178961Y-162081429D01*
X57178961Y-162081429D02*
X57178961Y-161967143D01*
X57178961Y-161967143D02*
X57217057Y-161890952D01*
X57217057Y-161890952D02*
X57255152Y-161852857D01*
X57255152Y-161852857D02*
X57331342Y-161814762D01*
X57331342Y-161814762D02*
X57559914Y-161814762D01*
X57559914Y-161814762D02*
X57636104Y-161852857D01*
X57636104Y-161852857D02*
X57674200Y-161890952D01*
X57674200Y-161890952D02*
X57712295Y-161967143D01*
X57712295Y-161967143D02*
X57712295Y-162081429D01*
X57293247Y-160595714D02*
X57293247Y-160862380D01*
X57712295Y-160862380D02*
X56912295Y-160862380D01*
X56912295Y-160862380D02*
X56912295Y-160481428D01*
X57636104Y-160176666D02*
X57674200Y-160138571D01*
X57674200Y-160138571D02*
X57712295Y-160176666D01*
X57712295Y-160176666D02*
X57674200Y-160214762D01*
X57674200Y-160214762D02*
X57636104Y-160176666D01*
X57636104Y-160176666D02*
X57712295Y-160176666D01*
X57636104Y-159338571D02*
X57674200Y-159376667D01*
X57674200Y-159376667D02*
X57712295Y-159490952D01*
X57712295Y-159490952D02*
X57712295Y-159567143D01*
X57712295Y-159567143D02*
X57674200Y-159681429D01*
X57674200Y-159681429D02*
X57598009Y-159757619D01*
X57598009Y-159757619D02*
X57521819Y-159795714D01*
X57521819Y-159795714D02*
X57369438Y-159833810D01*
X57369438Y-159833810D02*
X57255152Y-159833810D01*
X57255152Y-159833810D02*
X57102771Y-159795714D01*
X57102771Y-159795714D02*
X57026580Y-159757619D01*
X57026580Y-159757619D02*
X56950390Y-159681429D01*
X56950390Y-159681429D02*
X56912295Y-159567143D01*
X56912295Y-159567143D02*
X56912295Y-159490952D01*
X56912295Y-159490952D02*
X56950390Y-159376667D01*
X56950390Y-159376667D02*
X56988485Y-159338571D01*
X57178961Y-158652857D02*
X57712295Y-158652857D01*
X57178961Y-158995714D02*
X57598009Y-158995714D01*
X57598009Y-158995714D02*
X57674200Y-158957619D01*
X57674200Y-158957619D02*
X57712295Y-158881429D01*
X57712295Y-158881429D02*
X57712295Y-158767143D01*
X57712295Y-158767143D02*
X57674200Y-158690952D01*
X57674200Y-158690952D02*
X57636104Y-158652857D01*
X57178961Y-157776666D02*
X57178961Y-157471904D01*
X56912295Y-157662380D02*
X57598009Y-157662380D01*
X57598009Y-157662380D02*
X57674200Y-157624285D01*
X57674200Y-157624285D02*
X57712295Y-157548095D01*
X57712295Y-157548095D02*
X57712295Y-157471904D01*
X57712295Y-157205237D02*
X57178961Y-157205237D01*
X57331342Y-157205237D02*
X57255152Y-157167142D01*
X57255152Y-157167142D02*
X57217057Y-157129047D01*
X57217057Y-157129047D02*
X57178961Y-157052856D01*
X57178961Y-157052856D02*
X57178961Y-156976666D01*
X57712295Y-156367142D02*
X57293247Y-156367142D01*
X57293247Y-156367142D02*
X57217057Y-156405237D01*
X57217057Y-156405237D02*
X57178961Y-156481428D01*
X57178961Y-156481428D02*
X57178961Y-156633809D01*
X57178961Y-156633809D02*
X57217057Y-156709999D01*
X57674200Y-156367142D02*
X57712295Y-156443333D01*
X57712295Y-156443333D02*
X57712295Y-156633809D01*
X57712295Y-156633809D02*
X57674200Y-156709999D01*
X57674200Y-156709999D02*
X57598009Y-156748095D01*
X57598009Y-156748095D02*
X57521819Y-156748095D01*
X57521819Y-156748095D02*
X57445628Y-156709999D01*
X57445628Y-156709999D02*
X57407533Y-156633809D01*
X57407533Y-156633809D02*
X57407533Y-156443333D01*
X57407533Y-156443333D02*
X57369438Y-156367142D01*
X57674200Y-155643332D02*
X57712295Y-155719523D01*
X57712295Y-155719523D02*
X57712295Y-155871904D01*
X57712295Y-155871904D02*
X57674200Y-155948094D01*
X57674200Y-155948094D02*
X57636104Y-155986189D01*
X57636104Y-155986189D02*
X57559914Y-156024285D01*
X57559914Y-156024285D02*
X57331342Y-156024285D01*
X57331342Y-156024285D02*
X57255152Y-155986189D01*
X57255152Y-155986189D02*
X57217057Y-155948094D01*
X57217057Y-155948094D02*
X57178961Y-155871904D01*
X57178961Y-155871904D02*
X57178961Y-155719523D01*
X57178961Y-155719523D02*
X57217057Y-155643332D01*
X57712295Y-155300475D02*
X56912295Y-155300475D01*
X57407533Y-155224285D02*
X57712295Y-154995713D01*
X57178961Y-154995713D02*
X57483723Y-155300475D01*
X57674200Y-154690952D02*
X57712295Y-154614761D01*
X57712295Y-154614761D02*
X57712295Y-154462380D01*
X57712295Y-154462380D02*
X57674200Y-154386190D01*
X57674200Y-154386190D02*
X57598009Y-154348094D01*
X57598009Y-154348094D02*
X57559914Y-154348094D01*
X57559914Y-154348094D02*
X57483723Y-154386190D01*
X57483723Y-154386190D02*
X57445628Y-154462380D01*
X57445628Y-154462380D02*
X57445628Y-154576666D01*
X57445628Y-154576666D02*
X57407533Y-154652856D01*
X57407533Y-154652856D02*
X57331342Y-154690952D01*
X57331342Y-154690952D02*
X57293247Y-154690952D01*
X57293247Y-154690952D02*
X57217057Y-154652856D01*
X57217057Y-154652856D02*
X57178961Y-154576666D01*
X57178961Y-154576666D02*
X57178961Y-154462380D01*
X57178961Y-154462380D02*
X57217057Y-154386190D01*
X57712295Y-158033809D02*
X56912295Y-158033809D01*
X56912295Y-158033809D02*
X57712295Y-157576666D01*
X57712295Y-157576666D02*
X56912295Y-157576666D01*
X57712295Y-157081429D02*
X57674200Y-157157619D01*
X57674200Y-157157619D02*
X57636104Y-157195714D01*
X57636104Y-157195714D02*
X57559914Y-157233810D01*
X57559914Y-157233810D02*
X57331342Y-157233810D01*
X57331342Y-157233810D02*
X57255152Y-157195714D01*
X57255152Y-157195714D02*
X57217057Y-157157619D01*
X57217057Y-157157619D02*
X57178961Y-157081429D01*
X57178961Y-157081429D02*
X57178961Y-156967143D01*
X57178961Y-156967143D02*
X57217057Y-156890952D01*
X57217057Y-156890952D02*
X57255152Y-156852857D01*
X57255152Y-156852857D02*
X57331342Y-156814762D01*
X57331342Y-156814762D02*
X57559914Y-156814762D01*
X57559914Y-156814762D02*
X57636104Y-156852857D01*
X57636104Y-156852857D02*
X57674200Y-156890952D01*
X57674200Y-156890952D02*
X57712295Y-156967143D01*
X57712295Y-156967143D02*
X57712295Y-157081429D01*
X57293247Y-155595714D02*
X57293247Y-155862380D01*
X57712295Y-155862380D02*
X56912295Y-155862380D01*
X56912295Y-155862380D02*
X56912295Y-155481428D01*
X57636104Y-155176666D02*
X57674200Y-155138571D01*
X57674200Y-155138571D02*
X57712295Y-155176666D01*
X57712295Y-155176666D02*
X57674200Y-155214762D01*
X57674200Y-155214762D02*
X57636104Y-155176666D01*
X57636104Y-155176666D02*
X57712295Y-155176666D01*
X57636104Y-154338571D02*
X57674200Y-154376667D01*
X57674200Y-154376667D02*
X57712295Y-154490952D01*
X57712295Y-154490952D02*
X57712295Y-154567143D01*
X57712295Y-154567143D02*
X57674200Y-154681429D01*
X57674200Y-154681429D02*
X57598009Y-154757619D01*
X57598009Y-154757619D02*
X57521819Y-154795714D01*
X57521819Y-154795714D02*
X57369438Y-154833810D01*
X57369438Y-154833810D02*
X57255152Y-154833810D01*
X57255152Y-154833810D02*
X57102771Y-154795714D01*
X57102771Y-154795714D02*
X57026580Y-154757619D01*
X57026580Y-154757619D02*
X56950390Y-154681429D01*
X56950390Y-154681429D02*
X56912295Y-154567143D01*
X56912295Y-154567143D02*
X56912295Y-154490952D01*
X56912295Y-154490952D02*
X56950390Y-154376667D01*
X56950390Y-154376667D02*
X56988485Y-154338571D01*
X57178961Y-153652857D02*
X57712295Y-153652857D01*
X57178961Y-153995714D02*
X57598009Y-153995714D01*
X57598009Y-153995714D02*
X57674200Y-153957619D01*
X57674200Y-153957619D02*
X57712295Y-153881429D01*
X57712295Y-153881429D02*
X57712295Y-153767143D01*
X57712295Y-153767143D02*
X57674200Y-153690952D01*
X57674200Y-153690952D02*
X57636104Y-153652857D01*
X57178961Y-152776666D02*
X57178961Y-152471904D01*
X56912295Y-152662380D02*
X57598009Y-152662380D01*
X57598009Y-152662380D02*
X57674200Y-152624285D01*
X57674200Y-152624285D02*
X57712295Y-152548095D01*
X57712295Y-152548095D02*
X57712295Y-152471904D01*
X57712295Y-152205237D02*
X57178961Y-152205237D01*
X57331342Y-152205237D02*
X57255152Y-152167142D01*
X57255152Y-152167142D02*
X57217057Y-152129047D01*
X57217057Y-152129047D02*
X57178961Y-152052856D01*
X57178961Y-152052856D02*
X57178961Y-151976666D01*
X57712295Y-151367142D02*
X57293247Y-151367142D01*
X57293247Y-151367142D02*
X57217057Y-151405237D01*
X57217057Y-151405237D02*
X57178961Y-151481428D01*
X57178961Y-151481428D02*
X57178961Y-151633809D01*
X57178961Y-151633809D02*
X57217057Y-151709999D01*
X57674200Y-151367142D02*
X57712295Y-151443333D01*
X57712295Y-151443333D02*
X57712295Y-151633809D01*
X57712295Y-151633809D02*
X57674200Y-151709999D01*
X57674200Y-151709999D02*
X57598009Y-151748095D01*
X57598009Y-151748095D02*
X57521819Y-151748095D01*
X57521819Y-151748095D02*
X57445628Y-151709999D01*
X57445628Y-151709999D02*
X57407533Y-151633809D01*
X57407533Y-151633809D02*
X57407533Y-151443333D01*
X57407533Y-151443333D02*
X57369438Y-151367142D01*
X57674200Y-150643332D02*
X57712295Y-150719523D01*
X57712295Y-150719523D02*
X57712295Y-150871904D01*
X57712295Y-150871904D02*
X57674200Y-150948094D01*
X57674200Y-150948094D02*
X57636104Y-150986189D01*
X57636104Y-150986189D02*
X57559914Y-151024285D01*
X57559914Y-151024285D02*
X57331342Y-151024285D01*
X57331342Y-151024285D02*
X57255152Y-150986189D01*
X57255152Y-150986189D02*
X57217057Y-150948094D01*
X57217057Y-150948094D02*
X57178961Y-150871904D01*
X57178961Y-150871904D02*
X57178961Y-150719523D01*
X57178961Y-150719523D02*
X57217057Y-150643332D01*
X57712295Y-150300475D02*
X56912295Y-150300475D01*
X57407533Y-150224285D02*
X57712295Y-149995713D01*
X57178961Y-149995713D02*
X57483723Y-150300475D01*
X57674200Y-149690952D02*
X57712295Y-149614761D01*
X57712295Y-149614761D02*
X57712295Y-149462380D01*
X57712295Y-149462380D02*
X57674200Y-149386190D01*
X57674200Y-149386190D02*
X57598009Y-149348094D01*
X57598009Y-149348094D02*
X57559914Y-149348094D01*
X57559914Y-149348094D02*
X57483723Y-149386190D01*
X57483723Y-149386190D02*
X57445628Y-149462380D01*
X57445628Y-149462380D02*
X57445628Y-149576666D01*
X57445628Y-149576666D02*
X57407533Y-149652856D01*
X57407533Y-149652856D02*
X57331342Y-149690952D01*
X57331342Y-149690952D02*
X57293247Y-149690952D01*
X57293247Y-149690952D02*
X57217057Y-149652856D01*
X57217057Y-149652856D02*
X57178961Y-149576666D01*
X57178961Y-149576666D02*
X57178961Y-149462380D01*
X57178961Y-149462380D02*
X57217057Y-149386190D01*
X57312295Y-163567142D02*
X56512295Y-163567142D01*
X57312295Y-163109999D02*
X56855152Y-163452857D01*
X56512295Y-163109999D02*
X56969438Y-163567142D01*
X56893247Y-162767142D02*
X56893247Y-162500476D01*
X57312295Y-162386190D02*
X57312295Y-162767142D01*
X57312295Y-162767142D02*
X56512295Y-162767142D01*
X56512295Y-162767142D02*
X56512295Y-162386190D01*
X56893247Y-162043332D02*
X56893247Y-161776666D01*
X57312295Y-161662380D02*
X57312295Y-162043332D01*
X57312295Y-162043332D02*
X56512295Y-162043332D01*
X56512295Y-162043332D02*
X56512295Y-161662380D01*
X57312295Y-161319522D02*
X56512295Y-161319522D01*
X56512295Y-161319522D02*
X56512295Y-161014760D01*
X56512295Y-161014760D02*
X56550390Y-160938570D01*
X56550390Y-160938570D02*
X56588485Y-160900475D01*
X56588485Y-160900475D02*
X56664676Y-160862379D01*
X56664676Y-160862379D02*
X56778961Y-160862379D01*
X56778961Y-160862379D02*
X56855152Y-160900475D01*
X56855152Y-160900475D02*
X56893247Y-160938570D01*
X56893247Y-160938570D02*
X56931342Y-161014760D01*
X56931342Y-161014760D02*
X56931342Y-161319522D01*
X57007533Y-160519522D02*
X57007533Y-159909999D01*
X56512295Y-159376665D02*
X56512295Y-159224284D01*
X56512295Y-159224284D02*
X56550390Y-159148094D01*
X56550390Y-159148094D02*
X56626580Y-159071903D01*
X56626580Y-159071903D02*
X56778961Y-159033808D01*
X56778961Y-159033808D02*
X57045628Y-159033808D01*
X57045628Y-159033808D02*
X57198009Y-159071903D01*
X57198009Y-159071903D02*
X57274200Y-159148094D01*
X57274200Y-159148094D02*
X57312295Y-159224284D01*
X57312295Y-159224284D02*
X57312295Y-159376665D01*
X57312295Y-159376665D02*
X57274200Y-159452856D01*
X57274200Y-159452856D02*
X57198009Y-159529046D01*
X57198009Y-159529046D02*
X57045628Y-159567142D01*
X57045628Y-159567142D02*
X56778961Y-159567142D01*
X56778961Y-159567142D02*
X56626580Y-159529046D01*
X56626580Y-159529046D02*
X56550390Y-159452856D01*
X56550390Y-159452856D02*
X56512295Y-159376665D01*
X56512295Y-158690951D02*
X57159914Y-158690951D01*
X57159914Y-158690951D02*
X57236104Y-158652856D01*
X57236104Y-158652856D02*
X57274200Y-158614761D01*
X57274200Y-158614761D02*
X57312295Y-158538570D01*
X57312295Y-158538570D02*
X57312295Y-158386189D01*
X57312295Y-158386189D02*
X57274200Y-158309999D01*
X57274200Y-158309999D02*
X57236104Y-158271904D01*
X57236104Y-158271904D02*
X57159914Y-158233808D01*
X57159914Y-158233808D02*
X56512295Y-158233808D01*
X56512295Y-157967142D02*
X56512295Y-157509999D01*
X57312295Y-157738571D02*
X56512295Y-157738571D01*
X56512295Y-156709999D02*
X56512295Y-156176665D01*
X56512295Y-156176665D02*
X57312295Y-156709999D01*
X57312295Y-156709999D02*
X57312295Y-156176665D01*
X56512295Y-155719522D02*
X56512295Y-155567141D01*
X56512295Y-155567141D02*
X56550390Y-155490951D01*
X56550390Y-155490951D02*
X56626580Y-155414760D01*
X56626580Y-155414760D02*
X56778961Y-155376665D01*
X56778961Y-155376665D02*
X57045628Y-155376665D01*
X57045628Y-155376665D02*
X57198009Y-155414760D01*
X57198009Y-155414760D02*
X57274200Y-155490951D01*
X57274200Y-155490951D02*
X57312295Y-155567141D01*
X57312295Y-155567141D02*
X57312295Y-155719522D01*
X57312295Y-155719522D02*
X57274200Y-155795713D01*
X57274200Y-155795713D02*
X57198009Y-155871903D01*
X57198009Y-155871903D02*
X57045628Y-155909999D01*
X57045628Y-155909999D02*
X56778961Y-155909999D01*
X56778961Y-155909999D02*
X56626580Y-155871903D01*
X56626580Y-155871903D02*
X56550390Y-155795713D01*
X56550390Y-155795713D02*
X56512295Y-155719522D01*
X57312295Y-155033808D02*
X56512295Y-155033808D01*
X56512295Y-155033808D02*
X57312295Y-154576665D01*
X57312295Y-154576665D02*
X56512295Y-154576665D01*
X56893247Y-154195713D02*
X56893247Y-153929047D01*
X57312295Y-153814761D02*
X57312295Y-154195713D01*
X57312295Y-154195713D02*
X56512295Y-154195713D01*
X56512295Y-154195713D02*
X56512295Y-153814761D01*
M02*
