%TF.GenerationSoftware,KiCad,Pcbnew,8.0.4*%
%TF.CreationDate,2025-04-19T07:58:29-07:00*%
%TF.ProjectId,traffic_paradise,74726166-6669-4635-9f70-617261646973,rev?*%
%TF.SameCoordinates,Original*%
%TF.FileFunction,Paste,Top*%
%TF.FilePolarity,Positive*%
%FSLAX46Y46*%
G04 Gerber Fmt 4.6, Leading zero omitted, Abs format (unit mm)*
G04 Created by KiCad (PCBNEW 8.0.4) date 2025-04-19 07:58:29*
%MOMM*%
%LPD*%
G01*
G04 APERTURE LIST*
G04 Aperture macros list*
%AMRoundRect*
0 Rectangle with rounded corners*
0 $1 Rounding radius*
0 $2 $3 $4 $5 $6 $7 $8 $9 X,Y pos of 4 corners*
0 Add a 4 corners polygon primitive as box body*
4,1,4,$2,$3,$4,$5,$6,$7,$8,$9,$2,$3,0*
0 Add four circle primitives for the rounded corners*
1,1,$1+$1,$2,$3*
1,1,$1+$1,$4,$5*
1,1,$1+$1,$6,$7*
1,1,$1+$1,$8,$9*
0 Add four rect primitives between the rounded corners*
20,1,$1+$1,$2,$3,$4,$5,0*
20,1,$1+$1,$4,$5,$6,$7,0*
20,1,$1+$1,$6,$7,$8,$9,0*
20,1,$1+$1,$8,$9,$2,$3,0*%
G04 Aperture macros list end*
%ADD10C,0.010000*%
%ADD11RoundRect,0.080000X-0.220000X-0.120000X0.220000X-0.120000X0.220000X0.120000X-0.220000X0.120000X0*%
%ADD12RoundRect,0.135000X0.135000X0.185000X-0.135000X0.185000X-0.135000X-0.185000X0.135000X-0.185000X0*%
%ADD13RoundRect,0.150000X-0.512500X-0.150000X0.512500X-0.150000X0.512500X0.150000X-0.512500X0.150000X0*%
%ADD14RoundRect,0.135000X-0.185000X0.135000X-0.185000X-0.135000X0.185000X-0.135000X0.185000X0.135000X0*%
%ADD15RoundRect,0.140000X-0.170000X0.140000X-0.170000X-0.140000X0.170000X-0.140000X0.170000X0.140000X0*%
%ADD16RoundRect,0.135000X0.185000X-0.135000X0.185000X0.135000X-0.185000X0.135000X-0.185000X-0.135000X0*%
%ADD17RoundRect,0.135000X-0.135000X-0.185000X0.135000X-0.185000X0.135000X0.185000X-0.135000X0.185000X0*%
%ADD18RoundRect,0.140000X-0.140000X-0.170000X0.140000X-0.170000X0.140000X0.170000X-0.140000X0.170000X0*%
%ADD19RoundRect,0.200000X0.275000X-0.200000X0.275000X0.200000X-0.275000X0.200000X-0.275000X-0.200000X0*%
%ADD20RoundRect,0.140000X0.140000X0.170000X-0.140000X0.170000X-0.140000X-0.170000X0.140000X-0.170000X0*%
%ADD21R,0.840000X0.220000*%
%ADD22R,0.220000X0.840000*%
%ADD23RoundRect,0.200000X0.200000X0.275000X-0.200000X0.275000X-0.200000X-0.275000X0.200000X-0.275000X0*%
%ADD24RoundRect,0.140000X0.170000X-0.140000X0.170000X0.140000X-0.170000X0.140000X-0.170000X-0.140000X0*%
%ADD25RoundRect,0.200000X-0.275000X0.200000X-0.275000X-0.200000X0.275000X-0.200000X0.275000X0.200000X0*%
%ADD26R,0.900000X0.900000*%
%ADD27R,1.500000X0.900000*%
%ADD28R,0.900000X1.500000*%
%ADD29RoundRect,0.200000X-0.200000X-0.275000X0.200000X-0.275000X0.200000X0.275000X-0.200000X0.275000X0*%
%ADD30R,1.100000X1.800000*%
%ADD31R,1.092200X0.990600*%
%ADD32RoundRect,0.243750X-0.243750X-0.456250X0.243750X-0.456250X0.243750X0.456250X-0.243750X0.456250X0*%
%ADD33R,1.450000X0.600000*%
%ADD34R,1.450000X0.300000*%
%ADD35RoundRect,0.225000X0.225000X0.250000X-0.225000X0.250000X-0.225000X-0.250000X0.225000X-0.250000X0*%
%ADD36R,1.800000X1.100000*%
%ADD37RoundRect,0.250000X0.375000X0.625000X-0.375000X0.625000X-0.375000X-0.625000X0.375000X-0.625000X0*%
%ADD38RoundRect,0.250000X-0.625000X0.375000X-0.625000X-0.375000X0.625000X-0.375000X0.625000X0.375000X0*%
%ADD39R,1.473200X0.355600*%
%ADD40RoundRect,0.375000X-0.625000X-0.375000X0.625000X-0.375000X0.625000X0.375000X-0.625000X0.375000X0*%
%ADD41RoundRect,0.500000X-0.500000X-1.400000X0.500000X-1.400000X0.500000X1.400000X-0.500000X1.400000X0*%
G04 APERTURE END LIST*
D10*
%TO.C,U7*%
X335938000Y-31138000D02*
X334278000Y-31138000D01*
X334278000Y-29478000D01*
X335938000Y-29478000D01*
X335938000Y-31138000D01*
G36*
X335938000Y-31138000D02*
G01*
X334278000Y-31138000D01*
X334278000Y-29478000D01*
X335938000Y-29478000D01*
X335938000Y-31138000D01*
G37*
X335938000Y-33768000D02*
X334278000Y-33768000D01*
X334278000Y-32108000D01*
X335938000Y-32108000D01*
X335938000Y-33768000D01*
G36*
X335938000Y-33768000D02*
G01*
X334278000Y-33768000D01*
X334278000Y-32108000D01*
X335938000Y-32108000D01*
X335938000Y-33768000D01*
G37*
X338568000Y-31138000D02*
X336908000Y-31138000D01*
X336908000Y-29478000D01*
X338568000Y-29478000D01*
X338568000Y-31138000D01*
G36*
X338568000Y-31138000D02*
G01*
X336908000Y-31138000D01*
X336908000Y-29478000D01*
X338568000Y-29478000D01*
X338568000Y-31138000D01*
G37*
X338568000Y-33768000D02*
X336908000Y-33768000D01*
X336908000Y-32108000D01*
X338568000Y-32108000D01*
X338568000Y-33768000D01*
G36*
X338568000Y-33768000D02*
G01*
X336908000Y-33768000D01*
X336908000Y-32108000D01*
X338568000Y-32108000D01*
X338568000Y-33768000D01*
G37*
%TO.C,U6*%
X243228000Y-144168000D02*
X241568000Y-144168000D01*
X241568000Y-142508000D01*
X243228000Y-142508000D01*
X243228000Y-144168000D01*
G36*
X243228000Y-144168000D02*
G01*
X241568000Y-144168000D01*
X241568000Y-142508000D01*
X243228000Y-142508000D01*
X243228000Y-144168000D01*
G37*
X243228000Y-146798000D02*
X241568000Y-146798000D01*
X241568000Y-145138000D01*
X243228000Y-145138000D01*
X243228000Y-146798000D01*
G36*
X243228000Y-146798000D02*
G01*
X241568000Y-146798000D01*
X241568000Y-145138000D01*
X243228000Y-145138000D01*
X243228000Y-146798000D01*
G37*
X245858000Y-144168000D02*
X244198000Y-144168000D01*
X244198000Y-142508000D01*
X245858000Y-142508000D01*
X245858000Y-144168000D01*
G36*
X245858000Y-144168000D02*
G01*
X244198000Y-144168000D01*
X244198000Y-142508000D01*
X245858000Y-142508000D01*
X245858000Y-144168000D01*
G37*
X245858000Y-146798000D02*
X244198000Y-146798000D01*
X244198000Y-145138000D01*
X245858000Y-145138000D01*
X245858000Y-146798000D01*
G36*
X245858000Y-146798000D02*
G01*
X244198000Y-146798000D01*
X244198000Y-145138000D01*
X245858000Y-145138000D01*
X245858000Y-146798000D01*
G37*
%TO.C,U12*%
X195888000Y-17888000D02*
X194228000Y-17888000D01*
X194228000Y-16228000D01*
X195888000Y-16228000D01*
X195888000Y-17888000D01*
G36*
X195888000Y-17888000D02*
G01*
X194228000Y-17888000D01*
X194228000Y-16228000D01*
X195888000Y-16228000D01*
X195888000Y-17888000D01*
G37*
X195888000Y-20518000D02*
X194228000Y-20518000D01*
X194228000Y-18858000D01*
X195888000Y-18858000D01*
X195888000Y-20518000D01*
G36*
X195888000Y-20518000D02*
G01*
X194228000Y-20518000D01*
X194228000Y-18858000D01*
X195888000Y-18858000D01*
X195888000Y-20518000D01*
G37*
X198518000Y-17888000D02*
X196858000Y-17888000D01*
X196858000Y-16228000D01*
X198518000Y-16228000D01*
X198518000Y-17888000D01*
G36*
X198518000Y-17888000D02*
G01*
X196858000Y-17888000D01*
X196858000Y-16228000D01*
X198518000Y-16228000D01*
X198518000Y-17888000D01*
G37*
X198518000Y-20518000D02*
X196858000Y-20518000D01*
X196858000Y-18858000D01*
X198518000Y-18858000D01*
X198518000Y-20518000D01*
G36*
X198518000Y-20518000D02*
G01*
X196858000Y-20518000D01*
X196858000Y-18858000D01*
X198518000Y-18858000D01*
X198518000Y-20518000D01*
G37*
%TO.C,U5*%
X100988000Y-100988000D02*
X99328000Y-100988000D01*
X99328000Y-99328000D01*
X100988000Y-99328000D01*
X100988000Y-100988000D01*
G36*
X100988000Y-100988000D02*
G01*
X99328000Y-100988000D01*
X99328000Y-99328000D01*
X100988000Y-99328000D01*
X100988000Y-100988000D01*
G37*
X100988000Y-103618000D02*
X99328000Y-103618000D01*
X99328000Y-101958000D01*
X100988000Y-101958000D01*
X100988000Y-103618000D01*
G36*
X100988000Y-103618000D02*
G01*
X99328000Y-103618000D01*
X99328000Y-101958000D01*
X100988000Y-101958000D01*
X100988000Y-103618000D01*
G37*
X103618000Y-100988000D02*
X101958000Y-100988000D01*
X101958000Y-99328000D01*
X103618000Y-99328000D01*
X103618000Y-100988000D01*
G36*
X103618000Y-100988000D02*
G01*
X101958000Y-100988000D01*
X101958000Y-99328000D01*
X103618000Y-99328000D01*
X103618000Y-100988000D01*
G37*
X103618000Y-103618000D02*
X101958000Y-103618000D01*
X101958000Y-101958000D01*
X103618000Y-101958000D01*
X103618000Y-103618000D01*
G36*
X103618000Y-103618000D02*
G01*
X101958000Y-103618000D01*
X101958000Y-101958000D01*
X103618000Y-101958000D01*
X103618000Y-103618000D01*
G37*
%TD*%
D11*
%TO.C,LED229*%
X315634600Y-164458600D03*
X315634600Y-163658600D03*
X314234600Y-163658600D03*
X314234600Y-164458600D03*
%TD*%
%TO.C,LED245*%
X269406600Y-89173000D03*
X269406600Y-88373000D03*
X268006600Y-88373000D03*
X268006600Y-89173000D03*
%TD*%
%TO.C,LED307*%
X354699800Y-157092600D03*
X354699800Y-156292600D03*
X353299800Y-156292600D03*
X353299800Y-157092600D03*
%TD*%
D12*
%TO.C,R183*%
X187583000Y-16473000D03*
X186563000Y-16473000D03*
%TD*%
D11*
%TO.C,LED257*%
X304661800Y-78555800D03*
X304661800Y-77755800D03*
X303261800Y-77755800D03*
X303261800Y-78555800D03*
%TD*%
D13*
%TO.C,U3*%
X11435500Y-176723000D03*
X11435500Y-177673000D03*
X11435500Y-178623000D03*
X13710500Y-178623000D03*
X13710500Y-177673000D03*
X13710500Y-176723000D03*
%TD*%
D11*
%TO.C,LED383*%
X292873000Y-170473000D03*
X292873000Y-169673000D03*
X291473000Y-169673000D03*
X291473000Y-170473000D03*
%TD*%
D14*
%TO.C,R162*%
X194973000Y-25073000D03*
X194973000Y-26093000D03*
%TD*%
D11*
%TO.C,LED398*%
X298023000Y-17923000D03*
X298023000Y-17123000D03*
X296623000Y-17123000D03*
X296623000Y-17923000D03*
%TD*%
%TO.C,LED330*%
X333922600Y-183915000D03*
X333922600Y-183115000D03*
X332522600Y-183115000D03*
X332522600Y-183915000D03*
%TD*%
%TO.C,LED375*%
X293873000Y-136873000D03*
X293873000Y-136073000D03*
X292473000Y-136073000D03*
X292473000Y-136873000D03*
%TD*%
%TO.C,LED336*%
X153273000Y-55173000D03*
X153273000Y-54373000D03*
X151873000Y-54373000D03*
X151873000Y-55173000D03*
%TD*%
%TO.C,LED160*%
X254319000Y-116097000D03*
X254319000Y-115297000D03*
X252919000Y-115297000D03*
X252919000Y-116097000D03*
%TD*%
%TO.C,LED41*%
X145302200Y-75152200D03*
X145302200Y-74352200D03*
X143902200Y-74352200D03*
X143902200Y-75152200D03*
%TD*%
%TO.C,LED31*%
X111723400Y-58337400D03*
X111723400Y-57537400D03*
X110323400Y-57537400D03*
X110323400Y-58337400D03*
%TD*%
D14*
%TO.C,R119*%
X332232000Y-38225000D03*
X332232000Y-39245000D03*
%TD*%
D15*
%TO.C,C9*%
X32766000Y-172367000D03*
X32766000Y-173327000D03*
%TD*%
D14*
%TO.C,R129*%
X340614000Y-40257000D03*
X340614000Y-41277000D03*
%TD*%
D11*
%TO.C,LED212*%
X287440600Y-149523400D03*
X287440600Y-148723400D03*
X286040600Y-148723400D03*
X286040600Y-149523400D03*
%TD*%
%TO.C,LED1*%
X5602200Y-27298600D03*
X5602200Y-26498600D03*
X4202200Y-26498600D03*
X4202200Y-27298600D03*
%TD*%
%TO.C,LED295*%
X343981000Y-107511800D03*
X343981000Y-106711800D03*
X342581000Y-106711800D03*
X342581000Y-107511800D03*
%TD*%
D16*
%TO.C,R57*%
X238760000Y-138051000D03*
X238760000Y-137031000D03*
%TD*%
D12*
%TO.C,R174*%
X187573000Y-21273000D03*
X186553000Y-21273000D03*
%TD*%
D11*
%TO.C,LED172*%
X261380200Y-69056200D03*
X261380200Y-68256200D03*
X259980200Y-68256200D03*
X259980200Y-69056200D03*
%TD*%
%TO.C,LED220*%
X315533000Y-160699400D03*
X315533000Y-159899400D03*
X314133000Y-159899400D03*
X314133000Y-160699400D03*
%TD*%
%TO.C,LED371*%
X294073000Y-123473000D03*
X294073000Y-122673000D03*
X292673000Y-122673000D03*
X292673000Y-123473000D03*
%TD*%
D12*
%TO.C,R12*%
X95633000Y-101346000D03*
X94613000Y-101346000D03*
%TD*%
D11*
%TO.C,LED5*%
X20435800Y-32023000D03*
X20435800Y-31223000D03*
X19035800Y-31223000D03*
X19035800Y-32023000D03*
%TD*%
%TO.C,LED182*%
X265342600Y-110712200D03*
X265342600Y-109912200D03*
X263942600Y-109912200D03*
X263942600Y-110712200D03*
%TD*%
D17*
%TO.C,R42*%
X108075000Y-96520000D03*
X109095000Y-96520000D03*
%TD*%
D11*
%TO.C,LED266*%
X302782200Y-103955800D03*
X302782200Y-103155800D03*
X301382200Y-103155800D03*
X301382200Y-103955800D03*
%TD*%
%TO.C,LED335*%
X150073000Y-57573000D03*
X150073000Y-56773000D03*
X148673000Y-56773000D03*
X148673000Y-57573000D03*
%TD*%
%TO.C,LED249*%
X283021000Y-95116600D03*
X283021000Y-94316600D03*
X281621000Y-94316600D03*
X281621000Y-95116600D03*
%TD*%
%TO.C,LED70*%
X198743800Y-60826600D03*
X198743800Y-60026600D03*
X197343800Y-60026600D03*
X197343800Y-60826600D03*
%TD*%
D14*
%TO.C,R164*%
X196573000Y-25073000D03*
X196573000Y-26093000D03*
%TD*%
D11*
%TO.C,LED49*%
X153735000Y-67684600D03*
X153735000Y-66884600D03*
X152335000Y-66884600D03*
X152335000Y-67684600D03*
%TD*%
%TO.C,LED341*%
X170073000Y-43873000D03*
X170073000Y-43073000D03*
X168673000Y-43073000D03*
X168673000Y-43873000D03*
%TD*%
%TO.C,LED56*%
X147080200Y-82010200D03*
X147080200Y-81210200D03*
X145680200Y-81210200D03*
X145680200Y-82010200D03*
%TD*%
D14*
%TO.C,R122*%
X334518000Y-40257000D03*
X334518000Y-41277000D03*
%TD*%
D18*
%TO.C,C5*%
X8410000Y-175133000D03*
X9370000Y-175133000D03*
%TD*%
D17*
%TO.C,R83*%
X250315000Y-139700000D03*
X251335000Y-139700000D03*
%TD*%
D11*
%TO.C,LED116*%
X224143800Y-114065000D03*
X224143800Y-113265000D03*
X222743800Y-113265000D03*
X222743800Y-114065000D03*
%TD*%
D12*
%TO.C,R176*%
X187573000Y-22873000D03*
X186553000Y-22873000D03*
%TD*%
D11*
%TO.C,LED368*%
X300573000Y-116273000D03*
X300573000Y-115473000D03*
X299173000Y-115473000D03*
X299173000Y-116273000D03*
%TD*%
%TO.C,LED113*%
X212510600Y-115487400D03*
X212510600Y-114687400D03*
X211110600Y-114687400D03*
X211110600Y-115487400D03*
%TD*%
%TO.C,LED57*%
X147080200Y-85972600D03*
X147080200Y-85172600D03*
X145680200Y-85172600D03*
X145680200Y-85972600D03*
%TD*%
%TO.C,LED137*%
X248273800Y-64890600D03*
X248273800Y-64090600D03*
X246873800Y-64090600D03*
X246873800Y-64890600D03*
%TD*%
%TO.C,LED183*%
X267323800Y-114065000D03*
X267323800Y-113265000D03*
X265923800Y-113265000D03*
X265923800Y-114065000D03*
%TD*%
%TO.C,LED86*%
X178982600Y-110915400D03*
X178982600Y-110115400D03*
X177582600Y-110115400D03*
X177582600Y-110915400D03*
%TD*%
%TO.C,LED45*%
X161202600Y-76269800D03*
X161202600Y-75469800D03*
X159802600Y-75469800D03*
X159802600Y-76269800D03*
%TD*%
%TO.C,LED107*%
X223889800Y-90087400D03*
X223889800Y-89287400D03*
X222489800Y-89287400D03*
X222489800Y-90087400D03*
%TD*%
D17*
%TO.C,R82*%
X252347000Y-140462000D03*
X253367000Y-140462000D03*
%TD*%
D14*
%TO.C,R133*%
X339090000Y-40257000D03*
X339090000Y-41277000D03*
%TD*%
D11*
%TO.C,LED139*%
X256198600Y-64027000D03*
X256198600Y-63227000D03*
X254798600Y-63227000D03*
X254798600Y-64027000D03*
%TD*%
D12*
%TO.C,R126*%
X327789000Y-35814000D03*
X326769000Y-35814000D03*
%TD*%
D11*
%TO.C,LED222*%
X322899000Y-162528200D03*
X322899000Y-161728200D03*
X321499000Y-161728200D03*
X321499000Y-162528200D03*
%TD*%
D14*
%TO.C,R161*%
X198973000Y-27073000D03*
X198973000Y-28093000D03*
%TD*%
D11*
%TO.C,LED181*%
X263158200Y-107410200D03*
X263158200Y-106610200D03*
X261758200Y-106610200D03*
X261758200Y-107410200D03*
%TD*%
%TO.C,LED129*%
X245276600Y-42640200D03*
X245276600Y-41840200D03*
X243876600Y-41840200D03*
X243876600Y-42640200D03*
%TD*%
%TO.C,LED195*%
X274334200Y-136366200D03*
X274334200Y-135566200D03*
X272934200Y-135566200D03*
X272934200Y-136366200D03*
%TD*%
%TO.C,LED387*%
X261448000Y-40173000D03*
X261448000Y-39373000D03*
X260048000Y-39373000D03*
X260048000Y-40173000D03*
%TD*%
%TO.C,LED274*%
X304611000Y-110661400D03*
X304611000Y-109861400D03*
X303211000Y-109861400D03*
X303211000Y-110661400D03*
%TD*%
D14*
%TO.C,R167*%
X194173000Y-27063000D03*
X194173000Y-28083000D03*
%TD*%
D11*
%TO.C,LED255*%
X297753000Y-74136200D03*
X297753000Y-73336200D03*
X296353000Y-73336200D03*
X296353000Y-74136200D03*
%TD*%
D14*
%TO.C,R158*%
X201373000Y-25073000D03*
X201373000Y-26093000D03*
%TD*%
D11*
%TO.C,LED380*%
X292973000Y-158073000D03*
X292973000Y-157273000D03*
X291573000Y-157273000D03*
X291573000Y-158073000D03*
%TD*%
D16*
%TO.C,R31*%
X104902000Y-92839000D03*
X104902000Y-91819000D03*
%TD*%
D17*
%TO.C,R39*%
X110107000Y-98806000D03*
X111127000Y-98806000D03*
%TD*%
D11*
%TO.C,LED24*%
X89981000Y-43808600D03*
X89981000Y-43008600D03*
X88581000Y-43008600D03*
X88581000Y-43808600D03*
%TD*%
D12*
%TO.C,R14*%
X93728000Y-97536000D03*
X92708000Y-97536000D03*
%TD*%
D11*
%TO.C,LED4*%
X16473400Y-31972200D03*
X16473400Y-31172200D03*
X15073400Y-31172200D03*
X15073400Y-31972200D03*
%TD*%
%TO.C,LED275*%
X304357000Y-114623800D03*
X304357000Y-113823800D03*
X302957000Y-113823800D03*
X302957000Y-114623800D03*
%TD*%
D12*
%TO.C,R180*%
X189583000Y-14173000D03*
X188563000Y-14173000D03*
%TD*%
D11*
%TO.C,LED283*%
X328944200Y-90798600D03*
X328944200Y-89998600D03*
X327544200Y-89998600D03*
X327544200Y-90798600D03*
%TD*%
%TO.C,LED14*%
X53760600Y-34969400D03*
X53760600Y-34169400D03*
X52360600Y-34169400D03*
X52360600Y-34969400D03*
%TD*%
%TO.C,LED272*%
X297499000Y-107003800D03*
X297499000Y-106203800D03*
X296099000Y-106203800D03*
X296099000Y-107003800D03*
%TD*%
%TO.C,LED174*%
X261227800Y-77133400D03*
X261227800Y-76333400D03*
X259827800Y-76333400D03*
X259827800Y-77133400D03*
%TD*%
%TO.C,LED13*%
X50611000Y-35325000D03*
X50611000Y-34525000D03*
X49211000Y-34525000D03*
X49211000Y-35325000D03*
%TD*%
%TO.C,LED83*%
X168416200Y-106445000D03*
X168416200Y-105645000D03*
X167016200Y-105645000D03*
X167016200Y-106445000D03*
%TD*%
%TO.C,LED111*%
X204890600Y-116808200D03*
X204890600Y-116008200D03*
X203490600Y-116008200D03*
X203490600Y-116808200D03*
%TD*%
%TO.C,LED65*%
X181319400Y-65347800D03*
X181319400Y-64547800D03*
X179919400Y-64547800D03*
X179919400Y-65347800D03*
%TD*%
%TO.C,LED168*%
X277636200Y-64585800D03*
X277636200Y-63785800D03*
X276236200Y-63785800D03*
X276236200Y-64585800D03*
%TD*%
D19*
%TO.C,R71*%
X235712000Y-151193000D03*
X235712000Y-149543000D03*
%TD*%
D11*
%TO.C,LED394*%
X283823000Y-25723000D03*
X283823000Y-24923000D03*
X282423000Y-24923000D03*
X282423000Y-25723000D03*
%TD*%
D14*
%TO.C,R170*%
X190973000Y-27073000D03*
X190973000Y-28093000D03*
%TD*%
D11*
%TO.C,LED296*%
X347994200Y-106902200D03*
X347994200Y-106102200D03*
X346594200Y-106102200D03*
X346594200Y-106902200D03*
%TD*%
%TO.C,LED308*%
X351448600Y-154705000D03*
X351448600Y-153905000D03*
X350048600Y-153905000D03*
X350048600Y-154705000D03*
%TD*%
%TO.C,LED326*%
X19242000Y-90147000D03*
X19242000Y-89347000D03*
X17842000Y-89347000D03*
X17842000Y-90147000D03*
%TD*%
%TO.C,LED104*%
X213323400Y-91459000D03*
X213323400Y-90659000D03*
X211923400Y-90659000D03*
X211923400Y-91459000D03*
%TD*%
D12*
%TO.C,R11*%
X95633000Y-99822000D03*
X94613000Y-99822000D03*
%TD*%
D11*
%TO.C,LED294*%
X340069400Y-107918200D03*
X340069400Y-107118200D03*
X338669400Y-107118200D03*
X338669400Y-107918200D03*
%TD*%
%TO.C,LED287*%
X344285800Y-93440200D03*
X344285800Y-92640200D03*
X342885800Y-92640200D03*
X342885800Y-93440200D03*
%TD*%
D20*
%TO.C,C19*%
X335125000Y-24384000D03*
X334165000Y-24384000D03*
%TD*%
D11*
%TO.C,LED78*%
X183402200Y-83026200D03*
X183402200Y-82226200D03*
X182002200Y-82226200D03*
X182002200Y-83026200D03*
%TD*%
%TO.C,LED50*%
X157494200Y-66871800D03*
X157494200Y-66071800D03*
X156094200Y-66071800D03*
X156094200Y-66871800D03*
%TD*%
D12*
%TO.C,R102*%
X329821000Y-27432000D03*
X328801000Y-27432000D03*
%TD*%
D11*
%TO.C,LED271*%
X294044600Y-105429000D03*
X294044600Y-104629000D03*
X292644600Y-104629000D03*
X292644600Y-105429000D03*
%TD*%
%TO.C,LED151*%
X254573000Y-86023400D03*
X254573000Y-85223400D03*
X253173000Y-85223400D03*
X253173000Y-86023400D03*
%TD*%
%TO.C,LED391*%
X274698000Y-32023000D03*
X274698000Y-31223000D03*
X273298000Y-31223000D03*
X273298000Y-32023000D03*
%TD*%
%TO.C,LED374*%
X294173000Y-133473000D03*
X294173000Y-132673000D03*
X292773000Y-132673000D03*
X292773000Y-133473000D03*
%TD*%
D12*
%TO.C,R101*%
X327789000Y-23622000D03*
X326769000Y-23622000D03*
%TD*%
D11*
%TO.C,LED248*%
X279871400Y-92729000D03*
X279871400Y-91929000D03*
X278471400Y-91929000D03*
X278471400Y-92729000D03*
%TD*%
D21*
%TO.C,U7*%
X339868000Y-34423000D03*
X339868000Y-34023000D03*
X339868000Y-33623000D03*
X339868000Y-33223000D03*
X339868000Y-32823000D03*
X339868000Y-32423000D03*
X339868000Y-32023000D03*
X339868000Y-31623000D03*
X339868000Y-31223000D03*
X339868000Y-30823000D03*
X339868000Y-30423000D03*
X339868000Y-30023000D03*
X339868000Y-29623000D03*
X339868000Y-29223000D03*
X339868000Y-28823000D03*
D22*
X339223000Y-28178000D03*
X338823000Y-28178000D03*
X338423000Y-28178000D03*
X338023000Y-28178000D03*
X337623000Y-28178000D03*
X337223000Y-28178000D03*
X336823000Y-28178000D03*
X336423000Y-28178000D03*
X336023000Y-28178000D03*
X335623000Y-28178000D03*
X335223000Y-28178000D03*
X334823000Y-28178000D03*
X334423000Y-28178000D03*
X334023000Y-28178000D03*
X333623000Y-28178000D03*
D21*
X332978000Y-28823000D03*
X332978000Y-29223000D03*
X332978000Y-29623000D03*
X332978000Y-30023000D03*
X332978000Y-30423000D03*
X332978000Y-30823000D03*
X332978000Y-31223000D03*
X332978000Y-31623000D03*
X332978000Y-32023000D03*
X332978000Y-32423000D03*
X332978000Y-32823000D03*
X332978000Y-33223000D03*
X332978000Y-33623000D03*
X332978000Y-34023000D03*
X332978000Y-34423000D03*
D22*
X333623000Y-35068000D03*
X334023000Y-35068000D03*
X334423000Y-35068000D03*
X334823000Y-35068000D03*
X335223000Y-35068000D03*
X335623000Y-35068000D03*
X336023000Y-35068000D03*
X336423000Y-35068000D03*
X336823000Y-35068000D03*
X337223000Y-35068000D03*
X337623000Y-35068000D03*
X338023000Y-35068000D03*
X338423000Y-35068000D03*
X338823000Y-35068000D03*
X339223000Y-35068000D03*
%TD*%
D12*
%TO.C,R110*%
X329821000Y-28956000D03*
X328801000Y-28956000D03*
%TD*%
%TO.C,R114*%
X329821000Y-30480000D03*
X328801000Y-30480000D03*
%TD*%
%TO.C,R171*%
X189573000Y-18873000D03*
X188553000Y-18873000D03*
%TD*%
D14*
%TO.C,R20*%
X49530000Y-161288000D03*
X49530000Y-162308000D03*
%TD*%
D12*
%TO.C,R105*%
X327789000Y-29718000D03*
X326769000Y-29718000D03*
%TD*%
D11*
%TO.C,LED379*%
X293073000Y-154673000D03*
X293073000Y-153873000D03*
X291673000Y-153873000D03*
X291673000Y-154673000D03*
%TD*%
%TO.C,LED85*%
X175528200Y-108934200D03*
X175528200Y-108134200D03*
X174128200Y-108134200D03*
X174128200Y-108934200D03*
%TD*%
%TO.C,LED259*%
X311113400Y-82010200D03*
X311113400Y-81210200D03*
X309713400Y-81210200D03*
X309713400Y-82010200D03*
%TD*%
%TO.C,LED126*%
X241009400Y-31718200D03*
X241009400Y-30918200D03*
X239609400Y-30918200D03*
X239609400Y-31718200D03*
%TD*%
%TO.C,LED310*%
X344895400Y-150590200D03*
X344895400Y-149790200D03*
X343495400Y-149790200D03*
X343495400Y-150590200D03*
%TD*%
%TO.C,LED55*%
X147029400Y-78200200D03*
X147029400Y-77400200D03*
X145629400Y-77400200D03*
X145629400Y-78200200D03*
%TD*%
%TO.C,LED211*%
X283884600Y-147897800D03*
X283884600Y-147097800D03*
X282484600Y-147097800D03*
X282484600Y-147897800D03*
%TD*%
%TO.C,LED150*%
X250610600Y-85667800D03*
X250610600Y-84867800D03*
X249210600Y-84867800D03*
X249210600Y-85667800D03*
%TD*%
D17*
%TO.C,R46*%
X110107000Y-104902000D03*
X111127000Y-104902000D03*
%TD*%
D11*
%TO.C,LED152*%
X258332200Y-87141000D03*
X258332200Y-86341000D03*
X256932200Y-86341000D03*
X256932200Y-87141000D03*
%TD*%
D12*
%TO.C,R182*%
X189583000Y-15773000D03*
X188563000Y-15773000D03*
%TD*%
D23*
%TO.C,R7*%
X15198000Y-162973000D03*
X13548000Y-162973000D03*
%TD*%
D24*
%TO.C,C27*%
X202273000Y-15553000D03*
X202273000Y-14593000D03*
%TD*%
D25*
%TO.C,R149*%
X204173000Y-13823000D03*
X204173000Y-15473000D03*
%TD*%
D14*
%TO.C,R156*%
X199773000Y-25073000D03*
X199773000Y-26093000D03*
%TD*%
D11*
%TO.C,LED112*%
X208548200Y-116046200D03*
X208548200Y-115246200D03*
X207148200Y-115246200D03*
X207148200Y-116046200D03*
%TD*%
%TO.C,LED184*%
X269660600Y-117468600D03*
X269660600Y-116668600D03*
X268260600Y-116668600D03*
X268260600Y-117468600D03*
%TD*%
%TO.C,LED15*%
X57723000Y-34359800D03*
X57723000Y-33559800D03*
X56323000Y-33559800D03*
X56323000Y-34359800D03*
%TD*%
D16*
%TO.C,R75*%
X244856000Y-138051000D03*
X244856000Y-137031000D03*
%TD*%
D11*
%TO.C,LED314*%
X355766600Y-95015000D03*
X355766600Y-94215000D03*
X354366600Y-94215000D03*
X354366600Y-95015000D03*
%TD*%
D12*
%TO.C,R70*%
X235841000Y-144907000D03*
X234821000Y-144907000D03*
%TD*%
D11*
%TO.C,LED316*%
X357290600Y-160191400D03*
X357290600Y-159391400D03*
X355890600Y-159391400D03*
X355890600Y-160191400D03*
%TD*%
D12*
%TO.C,R64*%
X57533000Y-169418000D03*
X56513000Y-169418000D03*
%TD*%
D11*
%TO.C,LED215*%
X297549800Y-154908200D03*
X297549800Y-154108200D03*
X296149800Y-154108200D03*
X296149800Y-154908200D03*
%TD*%
%TO.C,LED406*%
X322823000Y-12573000D03*
X322823000Y-11773000D03*
X321423000Y-11773000D03*
X321423000Y-12573000D03*
%TD*%
%TO.C,LED154*%
X231814600Y-113404600D03*
X231814600Y-112604600D03*
X230414600Y-112604600D03*
X230414600Y-113404600D03*
%TD*%
D17*
%TO.C,R150*%
X202663000Y-19773000D03*
X203683000Y-19773000D03*
%TD*%
D11*
%TO.C,LED201*%
X277636200Y-159124600D03*
X277636200Y-158324600D03*
X276236200Y-158324600D03*
X276236200Y-159124600D03*
%TD*%
%TO.C,LED153*%
X261989800Y-88360200D03*
X261989800Y-87560200D03*
X260589800Y-87560200D03*
X260589800Y-88360200D03*
%TD*%
%TO.C,LED173*%
X261278600Y-73018600D03*
X261278600Y-72218600D03*
X259878600Y-72218600D03*
X259878600Y-73018600D03*
%TD*%
D15*
%TO.C,C31*%
X56896000Y-181003000D03*
X56896000Y-181963000D03*
%TD*%
D17*
%TO.C,R93*%
X252347000Y-146558000D03*
X253367000Y-146558000D03*
%TD*%
D11*
%TO.C,LED19*%
X73064600Y-35426600D03*
X73064600Y-34626600D03*
X71664600Y-34626600D03*
X71664600Y-35426600D03*
%TD*%
%TO.C,LED306*%
X341390200Y-148202600D03*
X341390200Y-147402600D03*
X339990200Y-147402600D03*
X339990200Y-148202600D03*
%TD*%
D26*
%TO.C,U13*%
X48023000Y-175863000D03*
X48023000Y-174463000D03*
X48023000Y-173063000D03*
X46623000Y-175863000D03*
X46623000Y-174463000D03*
X46623000Y-173063000D03*
X45223000Y-175863000D03*
X45223000Y-174463000D03*
X45223000Y-173063000D03*
D27*
X53873000Y-182183000D03*
X53873000Y-180913000D03*
X53873000Y-179643000D03*
X53873000Y-178373000D03*
X53873000Y-177103000D03*
X53873000Y-175833000D03*
X53873000Y-174563000D03*
X53873000Y-173293000D03*
X53873000Y-172023000D03*
X53873000Y-170753000D03*
X53873000Y-169483000D03*
X53873000Y-168213000D03*
X53873000Y-166943000D03*
X53873000Y-165673000D03*
D28*
X52108000Y-164423000D03*
X50838000Y-164423000D03*
X49568000Y-164423000D03*
X48298000Y-164423000D03*
X47028000Y-164423000D03*
X45758000Y-164423000D03*
X44488000Y-164423000D03*
X43218000Y-164423000D03*
X41948000Y-164423000D03*
X40678000Y-164423000D03*
X39408000Y-164423000D03*
X38138000Y-164423000D03*
D27*
X36373000Y-165673000D03*
X36373000Y-166943000D03*
X36373000Y-168213000D03*
X36373000Y-169483000D03*
X36373000Y-170753000D03*
X36373000Y-172023000D03*
X36373000Y-173293000D03*
X36373000Y-174563000D03*
X36373000Y-175833000D03*
X36373000Y-177103000D03*
X36373000Y-178373000D03*
X36373000Y-179643000D03*
X36373000Y-180913000D03*
X36373000Y-182183000D03*
%TD*%
D11*
%TO.C,LED327*%
X28767000Y-90147000D03*
X28767000Y-89347000D03*
X27367000Y-89347000D03*
X27367000Y-90147000D03*
%TD*%
%TO.C,LED409*%
X19273000Y-71873000D03*
X19273000Y-71073000D03*
X17873000Y-71073000D03*
X17873000Y-71873000D03*
%TD*%
%TO.C,LED268*%
X309335400Y-109797800D03*
X309335400Y-108997800D03*
X307935400Y-108997800D03*
X307935400Y-109797800D03*
%TD*%
D16*
%TO.C,R66*%
X241808000Y-138051000D03*
X241808000Y-137031000D03*
%TD*%
D20*
%TO.C,C25*%
X194393000Y-10603000D03*
X193433000Y-10603000D03*
%TD*%
D18*
%TO.C,C16*%
X245011000Y-150876000D03*
X245971000Y-150876000D03*
%TD*%
D11*
%TO.C,LED284*%
X332906600Y-90646200D03*
X332906600Y-89846200D03*
X331506600Y-89846200D03*
X331506600Y-90646200D03*
%TD*%
%TO.C,LED6*%
X24347400Y-31311800D03*
X24347400Y-30511800D03*
X22947400Y-30511800D03*
X22947400Y-31311800D03*
%TD*%
D15*
%TO.C,C18*%
X238633000Y-149888000D03*
X238633000Y-150848000D03*
%TD*%
D11*
%TO.C,LED44*%
X157189400Y-75863400D03*
X157189400Y-75063400D03*
X155789400Y-75063400D03*
X155789400Y-75863400D03*
%TD*%
D20*
%TO.C,C26*%
X194373000Y-11673000D03*
X193413000Y-11673000D03*
%TD*%
D11*
%TO.C,LED251*%
X288151800Y-100704600D03*
X288151800Y-99904600D03*
X286751800Y-99904600D03*
X286751800Y-100704600D03*
%TD*%
%TO.C,LED361*%
X271473000Y-114873000D03*
X271473000Y-114073000D03*
X270073000Y-114073000D03*
X270073000Y-114873000D03*
%TD*%
D17*
%TO.C,R44*%
X110107000Y-106426000D03*
X111127000Y-106426000D03*
%TD*%
D11*
%TO.C,LED22*%
X83935800Y-39236600D03*
X83935800Y-38436600D03*
X82535800Y-38436600D03*
X82535800Y-39236600D03*
%TD*%
%TO.C,LED20*%
X76773000Y-36290200D03*
X76773000Y-35490200D03*
X75373000Y-35490200D03*
X75373000Y-36290200D03*
%TD*%
D29*
%TO.C,R3*%
X13548000Y-159873000D03*
X15198000Y-159873000D03*
%TD*%
D12*
%TO.C,R175*%
X189573000Y-22073000D03*
X188553000Y-22073000D03*
%TD*%
D17*
%TO.C,R52*%
X110107000Y-109474000D03*
X111127000Y-109474000D03*
%TD*%
D11*
%TO.C,LED3*%
X12765000Y-30803800D03*
X12765000Y-30003800D03*
X11365000Y-30003800D03*
X11365000Y-30803800D03*
%TD*%
%TO.C,LED350*%
X205373000Y-38273000D03*
X205373000Y-37473000D03*
X203973000Y-37473000D03*
X203973000Y-38273000D03*
%TD*%
%TO.C,LED53*%
X169381400Y-66871800D03*
X169381400Y-66071800D03*
X167981400Y-66071800D03*
X167981400Y-66871800D03*
%TD*%
%TO.C,LED155*%
X235777000Y-113506200D03*
X235777000Y-112706200D03*
X234377000Y-112706200D03*
X234377000Y-113506200D03*
%TD*%
%TO.C,LED297*%
X352007400Y-106495800D03*
X352007400Y-105695800D03*
X350607400Y-105695800D03*
X350607400Y-106495800D03*
%TD*%
D12*
%TO.C,R72*%
X235841000Y-140716000D03*
X234821000Y-140716000D03*
%TD*%
D11*
%TO.C,LED208*%
X278906200Y-137839400D03*
X278906200Y-137039400D03*
X277506200Y-137039400D03*
X277506200Y-137839400D03*
%TD*%
D17*
%TO.C,R85*%
X252347000Y-145034000D03*
X253367000Y-145034000D03*
%TD*%
D24*
%TO.C,C22*%
X341503000Y-27023000D03*
X341503000Y-26063000D03*
%TD*%
D11*
%TO.C,LED286*%
X340374200Y-93237000D03*
X340374200Y-92437000D03*
X338974200Y-92437000D03*
X338974200Y-93237000D03*
%TD*%
%TO.C,LED148*%
X242939800Y-86429800D03*
X242939800Y-85629800D03*
X241539800Y-85629800D03*
X241539800Y-86429800D03*
%TD*%
D16*
%TO.C,R17*%
X98044000Y-94871000D03*
X98044000Y-93851000D03*
%TD*%
D17*
%TO.C,R84*%
X250315000Y-145796000D03*
X251335000Y-145796000D03*
%TD*%
D11*
%TO.C,LED322*%
X341695000Y-174263000D03*
X341695000Y-173463000D03*
X340295000Y-173463000D03*
X340295000Y-174263000D03*
%TD*%
%TO.C,LED239*%
X281547800Y-76473000D03*
X281547800Y-75673000D03*
X280147800Y-75673000D03*
X280147800Y-76473000D03*
%TD*%
%TO.C,LED376*%
X293073000Y-140473000D03*
X293073000Y-139673000D03*
X291673000Y-139673000D03*
X291673000Y-140473000D03*
%TD*%
%TO.C,LED125*%
X237707400Y-29025800D03*
X237707400Y-28225800D03*
X236307400Y-28225800D03*
X236307400Y-29025800D03*
%TD*%
%TO.C,LED312*%
X355969800Y-106445000D03*
X355969800Y-105645000D03*
X354569800Y-105645000D03*
X354569800Y-106445000D03*
%TD*%
%TO.C,LED372*%
X294173000Y-126673000D03*
X294173000Y-125873000D03*
X292773000Y-125873000D03*
X292773000Y-126673000D03*
%TD*%
%TO.C,LED61*%
X157087800Y-97758200D03*
X157087800Y-96958200D03*
X155687800Y-96958200D03*
X155687800Y-97758200D03*
%TD*%
D12*
%TO.C,R106*%
X57533000Y-177038000D03*
X56513000Y-177038000D03*
%TD*%
D11*
%TO.C,LED367*%
X296873000Y-114273000D03*
X296873000Y-113473000D03*
X295473000Y-113473000D03*
X295473000Y-114273000D03*
%TD*%
D17*
%TO.C,R40*%
X108075000Y-98044000D03*
X109095000Y-98044000D03*
%TD*%
D11*
%TO.C,LED381*%
X292773000Y-161273000D03*
X292773000Y-160473000D03*
X291373000Y-160473000D03*
X291373000Y-161273000D03*
%TD*%
D14*
%TO.C,R131*%
X337566000Y-40257000D03*
X337566000Y-41277000D03*
%TD*%
D24*
%TO.C,C21*%
X342646000Y-27023000D03*
X342646000Y-26063000D03*
%TD*%
D11*
%TO.C,LED138*%
X252185400Y-63976200D03*
X252185400Y-63176200D03*
X250785400Y-63176200D03*
X250785400Y-63976200D03*
%TD*%
%TO.C,LED317*%
X359881400Y-163239400D03*
X359881400Y-162439400D03*
X358481400Y-162439400D03*
X358481400Y-163239400D03*
%TD*%
D30*
%TO.C,SW3*%
X8436999Y-63383000D03*
X8436999Y-57183000D03*
X12137001Y-63383000D03*
X12137001Y-57183000D03*
%TD*%
D11*
%TO.C,LED311*%
X359881400Y-106445000D03*
X359881400Y-105645000D03*
X358481400Y-105645000D03*
X358481400Y-106445000D03*
%TD*%
D14*
%TO.C,R135*%
X336042000Y-40257000D03*
X336042000Y-41277000D03*
%TD*%
D11*
%TO.C,LED413*%
X6673000Y-164173000D03*
X6673000Y-163373000D03*
X5273000Y-163373000D03*
X5273000Y-164173000D03*
%TD*%
D17*
%TO.C,R92*%
X252347000Y-141986000D03*
X253367000Y-141986000D03*
%TD*%
D16*
%TO.C,R76*%
X244094000Y-136019000D03*
X244094000Y-134999000D03*
%TD*%
D12*
%TO.C,R74*%
X235841000Y-142240000D03*
X234821000Y-142240000D03*
%TD*%
D31*
%TO.C,D4*%
X59346200Y-160073000D03*
X56399800Y-160073000D03*
%TD*%
D11*
%TO.C,LED386*%
X258448000Y-42673000D03*
X258448000Y-41873000D03*
X257048000Y-41873000D03*
X257048000Y-42673000D03*
%TD*%
%TO.C,LED9*%
X36285400Y-30092600D03*
X36285400Y-29292600D03*
X34885400Y-29292600D03*
X34885400Y-30092600D03*
%TD*%
D12*
%TO.C,R186*%
X189583000Y-9373000D03*
X188563000Y-9373000D03*
%TD*%
D11*
%TO.C,LED293*%
X336411800Y-107257800D03*
X336411800Y-106457800D03*
X335011800Y-106457800D03*
X335011800Y-107257800D03*
%TD*%
%TO.C,LED214*%
X294806600Y-152012600D03*
X294806600Y-151212600D03*
X293406600Y-151212600D03*
X293406600Y-152012600D03*
%TD*%
%TO.C,LED385*%
X256273000Y-45698000D03*
X256273000Y-44898000D03*
X254873000Y-44898000D03*
X254873000Y-45698000D03*
%TD*%
D12*
%TO.C,R125*%
X329821000Y-36576000D03*
X328801000Y-36576000D03*
%TD*%
D11*
%TO.C,LED146*%
X235269000Y-87547400D03*
X235269000Y-86747400D03*
X233869000Y-86747400D03*
X233869000Y-87547400D03*
%TD*%
D32*
%TO.C,D3*%
X5031500Y-166243000D03*
X6906500Y-166243000D03*
%TD*%
D15*
%TO.C,C1*%
X55626000Y-181003000D03*
X55626000Y-181963000D03*
%TD*%
D14*
%TO.C,R130*%
X339852000Y-38225000D03*
X339852000Y-39245000D03*
%TD*%
D11*
%TO.C,LED332*%
X139573000Y-64373000D03*
X139573000Y-63573000D03*
X138173000Y-63573000D03*
X138173000Y-64373000D03*
%TD*%
D12*
%TO.C,R168*%
X189573000Y-23673000D03*
X188553000Y-23673000D03*
%TD*%
D11*
%TO.C,LED71*%
X202757000Y-61233000D03*
X202757000Y-60433000D03*
X201357000Y-60433000D03*
X201357000Y-61233000D03*
%TD*%
%TO.C,LED334*%
X146773000Y-60173000D03*
X146773000Y-59373000D03*
X145373000Y-59373000D03*
X145373000Y-60173000D03*
%TD*%
%TO.C,LED64*%
X177306200Y-66109800D03*
X177306200Y-65309800D03*
X175906200Y-65309800D03*
X175906200Y-66109800D03*
%TD*%
%TO.C,LED346*%
X189773000Y-39273000D03*
X189773000Y-38473000D03*
X188373000Y-38473000D03*
X188373000Y-39273000D03*
%TD*%
%TO.C,LED223*%
X325997800Y-165119000D03*
X325997800Y-164319000D03*
X324597800Y-164319000D03*
X324597800Y-165119000D03*
%TD*%
D12*
%TO.C,R18*%
X57533000Y-171958000D03*
X56513000Y-171958000D03*
%TD*%
D11*
%TO.C,LED280*%
X317463400Y-90036600D03*
X317463400Y-89236600D03*
X316063400Y-89236600D03*
X316063400Y-90036600D03*
%TD*%
D12*
%TO.C,R112*%
X329821000Y-32004000D03*
X328801000Y-32004000D03*
%TD*%
D11*
%TO.C,LED76*%
X176239400Y-79876600D03*
X176239400Y-79076600D03*
X174839400Y-79076600D03*
X174839400Y-79876600D03*
%TD*%
%TO.C,LED269*%
X313094600Y-108578600D03*
X313094600Y-107778600D03*
X311694600Y-107778600D03*
X311694600Y-108578600D03*
%TD*%
%TO.C,LED366*%
X292273000Y-113673000D03*
X292273000Y-112873000D03*
X290873000Y-112873000D03*
X290873000Y-113673000D03*
%TD*%
D20*
%TO.C,C24*%
X57453000Y-179473000D03*
X56493000Y-179473000D03*
%TD*%
D11*
%TO.C,LED159*%
X250915400Y-114065000D03*
X250915400Y-113265000D03*
X249515400Y-113265000D03*
X249515400Y-114065000D03*
%TD*%
%TO.C,LED147*%
X238977400Y-86175800D03*
X238977400Y-85375800D03*
X237577400Y-85375800D03*
X237577400Y-86175800D03*
%TD*%
D33*
%TO.C,J2*%
X6458000Y-174423000D03*
X6458000Y-175223000D03*
D34*
X6458000Y-176423000D03*
X6458000Y-177423000D03*
X6458000Y-177923000D03*
X6458000Y-178923000D03*
D33*
X6458000Y-180123000D03*
X6458000Y-180923000D03*
X6458000Y-180923000D03*
X6458000Y-180123000D03*
D34*
X6458000Y-179423000D03*
X6458000Y-178423000D03*
X6458000Y-176923000D03*
X6458000Y-175923000D03*
D33*
X6458000Y-175223000D03*
X6458000Y-174423000D03*
%TD*%
D11*
%TO.C,LED221*%
X319190600Y-161817000D03*
X319190600Y-161017000D03*
X317790600Y-161017000D03*
X317790600Y-161817000D03*
%TD*%
%TO.C,LED94*%
X222315000Y-63163400D03*
X222315000Y-62363400D03*
X220915000Y-62363400D03*
X220915000Y-63163400D03*
%TD*%
%TO.C,LED142*%
X266612600Y-66262200D03*
X266612600Y-65462200D03*
X265212600Y-65462200D03*
X265212600Y-66262200D03*
%TD*%
D17*
%TO.C,R81*%
X250315000Y-141224000D03*
X251335000Y-141224000D03*
%TD*%
D24*
%TO.C,C2*%
X9779000Y-188087000D03*
X9779000Y-187127000D03*
%TD*%
D16*
%TO.C,R34*%
X107188000Y-94871000D03*
X107188000Y-93851000D03*
%TD*%
D11*
%TO.C,LED101*%
X201690200Y-89122200D03*
X201690200Y-88322200D03*
X200290200Y-88322200D03*
X200290200Y-89122200D03*
%TD*%
%TO.C,LED97*%
X233135400Y-66211400D03*
X233135400Y-65411400D03*
X231735400Y-65411400D03*
X231735400Y-66211400D03*
%TD*%
%TO.C,LED388*%
X264823000Y-37823000D03*
X264823000Y-37023000D03*
X263423000Y-37023000D03*
X263423000Y-37823000D03*
%TD*%
%TO.C,LED74*%
X169127400Y-76981000D03*
X169127400Y-76181000D03*
X167727400Y-76181000D03*
X167727400Y-76981000D03*
%TD*%
%TO.C,LED234*%
X328791800Y-178022200D03*
X328791800Y-177222200D03*
X327391800Y-177222200D03*
X327391800Y-178022200D03*
%TD*%
%TO.C,LED320*%
X336056200Y-168675000D03*
X336056200Y-167875000D03*
X334656200Y-167875000D03*
X334656200Y-168675000D03*
%TD*%
D14*
%TO.C,R140*%
X39370000Y-161288000D03*
X39370000Y-162308000D03*
%TD*%
D17*
%TO.C,R45*%
X108075000Y-105664000D03*
X109095000Y-105664000D03*
%TD*%
D11*
%TO.C,LED246*%
X273369000Y-89173000D03*
X273369000Y-88373000D03*
X271969000Y-88373000D03*
X271969000Y-89173000D03*
%TD*%
D16*
%TO.C,R58*%
X247142000Y-136019000D03*
X247142000Y-134999000D03*
%TD*%
D11*
%TO.C,LED179*%
X260465800Y-99942600D03*
X260465800Y-99142600D03*
X259065800Y-99142600D03*
X259065800Y-99942600D03*
%TD*%
%TO.C,LED35*%
X124931400Y-66008200D03*
X124931400Y-65208200D03*
X123531400Y-65208200D03*
X123531400Y-66008200D03*
%TD*%
%TO.C,LED328*%
X9773000Y-90173000D03*
X9773000Y-89373000D03*
X8373000Y-89373000D03*
X8373000Y-90173000D03*
%TD*%
%TO.C,LED10*%
X40298600Y-30245000D03*
X40298600Y-29445000D03*
X38898600Y-29445000D03*
X38898600Y-30245000D03*
%TD*%
D20*
%TO.C,C20*%
X335125000Y-25400000D03*
X334165000Y-25400000D03*
%TD*%
D11*
%TO.C,LED40*%
X141847800Y-73526600D03*
X141847800Y-72726600D03*
X140447800Y-72726600D03*
X140447800Y-73526600D03*
%TD*%
%TO.C,LED189*%
X279160200Y-133927800D03*
X279160200Y-133127800D03*
X277760200Y-133127800D03*
X277760200Y-133927800D03*
%TD*%
D14*
%TO.C,R124*%
X332994000Y-40257000D03*
X332994000Y-41277000D03*
%TD*%
D11*
%TO.C,LED165*%
X268644600Y-57677000D03*
X268644600Y-56877000D03*
X267244600Y-56877000D03*
X267244600Y-57677000D03*
%TD*%
%TO.C,LED194*%
X274334200Y-132454600D03*
X274334200Y-131654600D03*
X272934200Y-131654600D03*
X272934200Y-132454600D03*
%TD*%
%TO.C,LED288*%
X348248200Y-93440200D03*
X348248200Y-92640200D03*
X346848200Y-92640200D03*
X346848200Y-93440200D03*
%TD*%
%TO.C,LED265*%
X300039000Y-101212600D03*
X300039000Y-100412600D03*
X298639000Y-100412600D03*
X298639000Y-101212600D03*
%TD*%
%TO.C,LED351*%
X208673000Y-36573000D03*
X208673000Y-35773000D03*
X207273000Y-35773000D03*
X207273000Y-36573000D03*
%TD*%
%TO.C,LED114*%
X216219000Y-114369800D03*
X216219000Y-113569800D03*
X214819000Y-113569800D03*
X214819000Y-114369800D03*
%TD*%
%TO.C,LED136*%
X244260600Y-64941400D03*
X244260600Y-64141400D03*
X242860600Y-64141400D03*
X242860600Y-64941400D03*
%TD*%
D14*
%TO.C,R123*%
X333756000Y-38225000D03*
X333756000Y-39245000D03*
%TD*%
D11*
%TO.C,LED80*%
X191123800Y-84194600D03*
X191123800Y-83394600D03*
X189723800Y-83394600D03*
X189723800Y-84194600D03*
%TD*%
%TO.C,LED37*%
X131973000Y-67176600D03*
X131973000Y-66376600D03*
X130573000Y-66376600D03*
X130573000Y-67176600D03*
%TD*%
%TO.C,LED254*%
X294044600Y-73018600D03*
X294044600Y-72218600D03*
X292644600Y-72218600D03*
X292644600Y-73018600D03*
%TD*%
D16*
%TO.C,R55*%
X240284000Y-137924000D03*
X240284000Y-136904000D03*
%TD*%
D11*
%TO.C,LED73*%
X165165000Y-76727000D03*
X165165000Y-75927000D03*
X163765000Y-75927000D03*
X163765000Y-76727000D03*
%TD*%
%TO.C,LED329*%
X331433400Y-180867000D03*
X331433400Y-180067000D03*
X330033400Y-180067000D03*
X330033400Y-180867000D03*
%TD*%
%TO.C,LED157*%
X243498600Y-112998200D03*
X243498600Y-112198200D03*
X242098600Y-112198200D03*
X242098600Y-112998200D03*
%TD*%
%TO.C,LED161*%
X257214600Y-118789400D03*
X257214600Y-117989400D03*
X255814600Y-117989400D03*
X255814600Y-118789400D03*
%TD*%
%TO.C,LED357*%
X232273000Y-33673000D03*
X232273000Y-32873000D03*
X230873000Y-32873000D03*
X230873000Y-33673000D03*
%TD*%
%TO.C,LED396*%
X290748000Y-22523000D03*
X290748000Y-21723000D03*
X289348000Y-21723000D03*
X289348000Y-22523000D03*
%TD*%
D16*
%TO.C,R26*%
X98806000Y-92839000D03*
X98806000Y-91819000D03*
%TD*%
D11*
%TO.C,LED88*%
X186653400Y-112236200D03*
X186653400Y-111436200D03*
X185253400Y-111436200D03*
X185253400Y-112236200D03*
%TD*%
%TO.C,LED359*%
X260873000Y-116873000D03*
X260873000Y-116073000D03*
X259473000Y-116073000D03*
X259473000Y-116873000D03*
%TD*%
%TO.C,LED382*%
X294273000Y-167073000D03*
X294273000Y-166273000D03*
X292873000Y-166273000D03*
X292873000Y-167073000D03*
%TD*%
D12*
%TO.C,R107*%
X57533000Y-175768000D03*
X56513000Y-175768000D03*
%TD*%
D11*
%TO.C,LED256*%
X301207400Y-76320600D03*
X301207400Y-75520600D03*
X299807400Y-75520600D03*
X299807400Y-76320600D03*
%TD*%
%TO.C,LED362*%
X275573000Y-114673000D03*
X275573000Y-113873000D03*
X274173000Y-113873000D03*
X274173000Y-114673000D03*
%TD*%
%TO.C,LED344*%
X181573000Y-39973000D03*
X181573000Y-39173000D03*
X180173000Y-39173000D03*
X180173000Y-39973000D03*
%TD*%
%TO.C,LED411*%
X19273000Y-63473000D03*
X19273000Y-62673000D03*
X17873000Y-62673000D03*
X17873000Y-63473000D03*
%TD*%
%TO.C,LED276*%
X307673000Y-116473000D03*
X307673000Y-115673000D03*
X306273000Y-115673000D03*
X306273000Y-116473000D03*
%TD*%
%TO.C,LED30*%
X108827800Y-55797400D03*
X108827800Y-54997400D03*
X107427800Y-54997400D03*
X107427800Y-55797400D03*
%TD*%
%TO.C,LED226*%
X303645800Y-164458600D03*
X303645800Y-163658600D03*
X302245800Y-163658600D03*
X302245800Y-164458600D03*
%TD*%
%TO.C,LED324*%
X347486200Y-179647800D03*
X347486200Y-178847800D03*
X346086200Y-178847800D03*
X346086200Y-179647800D03*
%TD*%
%TO.C,LED298*%
X320105000Y-125647400D03*
X320105000Y-124847400D03*
X318705000Y-124847400D03*
X318705000Y-125647400D03*
%TD*%
D17*
%TO.C,R151*%
X202663000Y-18173000D03*
X203683000Y-18173000D03*
%TD*%
D11*
%TO.C,LED414*%
X6673000Y-161573000D03*
X6673000Y-160773000D03*
X5273000Y-160773000D03*
X5273000Y-161573000D03*
%TD*%
%TO.C,LED236*%
X270829000Y-71850200D03*
X270829000Y-71050200D03*
X269429000Y-71050200D03*
X269429000Y-71850200D03*
%TD*%
%TO.C,LED108*%
X227852200Y-90443000D03*
X227852200Y-89643000D03*
X226452200Y-89643000D03*
X226452200Y-90443000D03*
%TD*%
%TO.C,LED392*%
X278348000Y-31123000D03*
X278348000Y-30323000D03*
X276948000Y-30323000D03*
X276948000Y-31123000D03*
%TD*%
%TO.C,LED134*%
X258281400Y-56254600D03*
X258281400Y-55454600D03*
X256881400Y-55454600D03*
X256881400Y-56254600D03*
%TD*%
%TO.C,LED405*%
X322798000Y-16148000D03*
X322798000Y-15348000D03*
X321398000Y-15348000D03*
X321398000Y-16148000D03*
%TD*%
%TO.C,LED163*%
X261735800Y-54679800D03*
X261735800Y-53879800D03*
X260335800Y-53879800D03*
X260335800Y-54679800D03*
%TD*%
D17*
%TO.C,R145*%
X342263000Y-34036000D03*
X343283000Y-34036000D03*
%TD*%
D12*
%TO.C,R177*%
X187583000Y-11773000D03*
X186563000Y-11773000D03*
%TD*%
D11*
%TO.C,LED395*%
X287423000Y-24348000D03*
X287423000Y-23548000D03*
X286023000Y-23548000D03*
X286023000Y-24348000D03*
%TD*%
%TO.C,LED289*%
X320511400Y-106546600D03*
X320511400Y-105746600D03*
X319111400Y-105746600D03*
X319111400Y-106546600D03*
%TD*%
D17*
%TO.C,R155*%
X202663000Y-21373000D03*
X203683000Y-21373000D03*
%TD*%
D12*
%TO.C,R179*%
X187583000Y-13373000D03*
X186563000Y-13373000D03*
%TD*%
D11*
%TO.C,LED149*%
X246648200Y-85617000D03*
X246648200Y-84817000D03*
X245248200Y-84817000D03*
X245248200Y-85617000D03*
%TD*%
D16*
%TO.C,R28*%
X102616000Y-94871000D03*
X102616000Y-93851000D03*
%TD*%
D17*
%TO.C,R51*%
X108075000Y-101092000D03*
X109095000Y-101092000D03*
%TD*%
D11*
%TO.C,LED384*%
X255948000Y-49373000D03*
X255948000Y-48573000D03*
X254548000Y-48573000D03*
X254548000Y-49373000D03*
%TD*%
%TO.C,LED202*%
X281039800Y-160851800D03*
X281039800Y-160051800D03*
X279639800Y-160051800D03*
X279639800Y-160851800D03*
%TD*%
%TO.C,LED393*%
X281273000Y-28548000D03*
X281273000Y-27748000D03*
X279873000Y-27748000D03*
X279873000Y-28548000D03*
%TD*%
%TO.C,LED355*%
X225273000Y-37273000D03*
X225273000Y-36473000D03*
X223873000Y-36473000D03*
X223873000Y-37273000D03*
%TD*%
%TO.C,LED389*%
X267298000Y-34848000D03*
X267298000Y-34048000D03*
X265898000Y-34048000D03*
X265898000Y-34848000D03*
%TD*%
D25*
%TO.C,R115*%
X344424000Y-25083000D03*
X344424000Y-26733000D03*
%TD*%
D12*
%TO.C,R172*%
X187573000Y-19673000D03*
X186553000Y-19673000D03*
%TD*%
D11*
%TO.C,LED110*%
X201233000Y-117519400D03*
X201233000Y-116719400D03*
X199833000Y-116719400D03*
X199833000Y-117519400D03*
%TD*%
%TO.C,LED224*%
X328182200Y-167557400D03*
X328182200Y-166757400D03*
X326782200Y-166757400D03*
X326782200Y-167557400D03*
%TD*%
D16*
%TO.C,R30*%
X101092000Y-94871000D03*
X101092000Y-93851000D03*
%TD*%
D11*
%TO.C,LED270*%
X316498200Y-106902200D03*
X316498200Y-106102200D03*
X315098200Y-106102200D03*
X315098200Y-106902200D03*
%TD*%
%TO.C,LED63*%
X161456600Y-103549400D03*
X161456600Y-102749400D03*
X160056600Y-102749400D03*
X160056600Y-103549400D03*
%TD*%
D17*
%TO.C,R91*%
X250315000Y-142748000D03*
X251335000Y-142748000D03*
%TD*%
D11*
%TO.C,LED66*%
X184977000Y-63874600D03*
X184977000Y-63074600D03*
X183577000Y-63074600D03*
X183577000Y-63874600D03*
%TD*%
%TO.C,LED300*%
X324677000Y-131946600D03*
X324677000Y-131146600D03*
X323277000Y-131146600D03*
X323277000Y-131946600D03*
%TD*%
D18*
%TO.C,C12*%
X102771000Y-107696000D03*
X103731000Y-107696000D03*
%TD*%
D15*
%TO.C,C10*%
X32766000Y-164747000D03*
X32766000Y-165707000D03*
%TD*%
D11*
%TO.C,LED43*%
X153277800Y-75558600D03*
X153277800Y-74758600D03*
X151877800Y-74758600D03*
X151877800Y-75558600D03*
%TD*%
D15*
%TO.C,C13*%
X95250000Y-106073000D03*
X95250000Y-107033000D03*
%TD*%
D12*
%TO.C,R16*%
X95633000Y-98298000D03*
X94613000Y-98298000D03*
%TD*%
D11*
%TO.C,LED117*%
X227973000Y-113173000D03*
X227973000Y-112373000D03*
X226573000Y-112373000D03*
X226573000Y-113173000D03*
%TD*%
%TO.C,LED285*%
X336970600Y-91103400D03*
X336970600Y-90303400D03*
X335570600Y-90303400D03*
X335570600Y-91103400D03*
%TD*%
%TO.C,LED261*%
X314923400Y-88309400D03*
X314923400Y-87509400D03*
X313523400Y-87509400D03*
X313523400Y-88309400D03*
%TD*%
%TO.C,LED7*%
X28360600Y-30702200D03*
X28360600Y-29902200D03*
X26960600Y-29902200D03*
X26960600Y-30702200D03*
%TD*%
%TO.C,LED397*%
X293923000Y-19548000D03*
X293923000Y-18748000D03*
X292523000Y-18748000D03*
X292523000Y-19548000D03*
%TD*%
D12*
%TO.C,R111*%
X327789000Y-28194000D03*
X326769000Y-28194000D03*
%TD*%
D11*
%TO.C,LED169*%
X281547800Y-65195400D03*
X281547800Y-64395400D03*
X280147800Y-64395400D03*
X280147800Y-65195400D03*
%TD*%
D16*
%TO.C,R61*%
X242570000Y-136019000D03*
X242570000Y-134999000D03*
%TD*%
D17*
%TO.C,R98*%
X252347000Y-151130000D03*
X253367000Y-151130000D03*
%TD*%
D11*
%TO.C,LED39*%
X138698200Y-71139000D03*
X138698200Y-70339000D03*
X137298200Y-70339000D03*
X137298200Y-71139000D03*
%TD*%
%TO.C,LED25*%
X93740200Y-44977000D03*
X93740200Y-44177000D03*
X92340200Y-44177000D03*
X92340200Y-44977000D03*
%TD*%
%TO.C,LED258*%
X308471800Y-79013000D03*
X308471800Y-78213000D03*
X307071800Y-78213000D03*
X307071800Y-79013000D03*
%TD*%
%TO.C,LED87*%
X182894200Y-111829800D03*
X182894200Y-111029800D03*
X181494200Y-111029800D03*
X181494200Y-111829800D03*
%TD*%
%TO.C,LED164*%
X265698200Y-54933800D03*
X265698200Y-54133800D03*
X264298200Y-54133800D03*
X264298200Y-54933800D03*
%TD*%
%TO.C,LED277*%
X311469000Y-117468600D03*
X311469000Y-116668600D03*
X310069000Y-116668600D03*
X310069000Y-117468600D03*
%TD*%
D17*
%TO.C,R54*%
X110107000Y-107950000D03*
X111127000Y-107950000D03*
%TD*%
D15*
%TO.C,C17*%
X237490000Y-149888000D03*
X237490000Y-150848000D03*
%TD*%
D11*
%TO.C,LED263*%
X295365400Y-94964200D03*
X295365400Y-94164200D03*
X293965400Y-94164200D03*
X293965400Y-94964200D03*
%TD*%
D24*
%TO.C,C28*%
X201273000Y-15553000D03*
X201273000Y-14593000D03*
%TD*%
D11*
%TO.C,LED187*%
X276925000Y-126714200D03*
X276925000Y-125914200D03*
X275525000Y-125914200D03*
X275525000Y-126714200D03*
%TD*%
%TO.C,LED378*%
X293573000Y-147673000D03*
X293573000Y-146873000D03*
X292173000Y-146873000D03*
X292173000Y-147673000D03*
%TD*%
%TO.C,LED122*%
X235116600Y-18002200D03*
X235116600Y-17202200D03*
X233716600Y-17202200D03*
X233716600Y-18002200D03*
%TD*%
D19*
%TO.C,R27*%
X93472000Y-108013000D03*
X93472000Y-106363000D03*
%TD*%
D11*
%TO.C,LED92*%
X214339400Y-63061800D03*
X214339400Y-62261800D03*
X212939400Y-62261800D03*
X212939400Y-63061800D03*
%TD*%
%TO.C,LED102*%
X205398600Y-90747800D03*
X205398600Y-89947800D03*
X203998600Y-89947800D03*
X203998600Y-90747800D03*
%TD*%
%TO.C,LED105*%
X217082600Y-92373400D03*
X217082600Y-91573400D03*
X215682600Y-91573400D03*
X215682600Y-92373400D03*
%TD*%
%TO.C,LED238*%
X277890200Y-74745800D03*
X277890200Y-73945800D03*
X276490200Y-73945800D03*
X276490200Y-74745800D03*
%TD*%
%TO.C,LED120*%
X231154200Y-11042600D03*
X231154200Y-10242600D03*
X229754200Y-10242600D03*
X229754200Y-11042600D03*
%TD*%
%TO.C,LED8*%
X32323000Y-30295800D03*
X32323000Y-29495800D03*
X30923000Y-29495800D03*
X30923000Y-30295800D03*
%TD*%
%TO.C,LED213*%
X291098200Y-150133000D03*
X291098200Y-149333000D03*
X289698200Y-149333000D03*
X289698200Y-150133000D03*
%TD*%
%TO.C,LED176*%
X261989800Y-84804200D03*
X261989800Y-84004200D03*
X260589800Y-84004200D03*
X260589800Y-84804200D03*
%TD*%
%TO.C,LED158*%
X247156200Y-113252200D03*
X247156200Y-112452200D03*
X245756200Y-112452200D03*
X245756200Y-113252200D03*
%TD*%
%TO.C,LED141*%
X263209000Y-66465400D03*
X263209000Y-65665400D03*
X261809000Y-65665400D03*
X261809000Y-66465400D03*
%TD*%
%TO.C,LED331*%
X135473000Y-65173000D03*
X135473000Y-64373000D03*
X134073000Y-64373000D03*
X134073000Y-65173000D03*
%TD*%
%TO.C,LED333*%
X143373000Y-62473000D03*
X143373000Y-61673000D03*
X141973000Y-61673000D03*
X141973000Y-62473000D03*
%TD*%
%TO.C,LED407*%
X320748000Y-9273000D03*
X320748000Y-8473000D03*
X319348000Y-8473000D03*
X319348000Y-9273000D03*
%TD*%
%TO.C,LED98*%
X236589800Y-64281000D03*
X236589800Y-63481000D03*
X235189800Y-63481000D03*
X235189800Y-64281000D03*
%TD*%
%TO.C,LED62*%
X158408600Y-101212600D03*
X158408600Y-100412600D03*
X157008600Y-100412600D03*
X157008600Y-101212600D03*
%TD*%
%TO.C,LED353*%
X217173000Y-36773000D03*
X217173000Y-35973000D03*
X215773000Y-35973000D03*
X215773000Y-36773000D03*
%TD*%
%TO.C,LED82*%
X165165000Y-104159000D03*
X165165000Y-103359000D03*
X163765000Y-103359000D03*
X163765000Y-104159000D03*
%TD*%
%TO.C,LED47*%
X147435800Y-64077800D03*
X147435800Y-63277800D03*
X146035800Y-63277800D03*
X146035800Y-64077800D03*
%TD*%
%TO.C,LED11*%
X43702200Y-31769000D03*
X43702200Y-30969000D03*
X42302200Y-30969000D03*
X42302200Y-31769000D03*
%TD*%
D16*
%TO.C,R138*%
X33909000Y-175516000D03*
X33909000Y-174496000D03*
%TD*%
D11*
%TO.C,LED230*%
X319139800Y-165779400D03*
X319139800Y-164979400D03*
X317739800Y-164979400D03*
X317739800Y-165779400D03*
%TD*%
%TO.C,LED241*%
X286627800Y-82264200D03*
X286627800Y-81464200D03*
X285227800Y-81464200D03*
X285227800Y-82264200D03*
%TD*%
%TO.C,LED282*%
X325286600Y-89935000D03*
X325286600Y-89135000D03*
X323886600Y-89135000D03*
X323886600Y-89935000D03*
%TD*%
%TO.C,LED29*%
X105068600Y-55289400D03*
X105068600Y-54489400D03*
X103668600Y-54489400D03*
X103668600Y-55289400D03*
%TD*%
%TO.C,LED178*%
X260161000Y-96285000D03*
X260161000Y-95485000D03*
X258761000Y-95485000D03*
X258761000Y-96285000D03*
%TD*%
%TO.C,LED145*%
X231560600Y-89223800D03*
X231560600Y-88423800D03*
X230160600Y-88423800D03*
X230160600Y-89223800D03*
%TD*%
%TO.C,LED402*%
X313473000Y-19848000D03*
X313473000Y-19048000D03*
X312073000Y-19048000D03*
X312073000Y-19848000D03*
%TD*%
%TO.C,LED358*%
X235673000Y-32073000D03*
X235673000Y-31273000D03*
X234273000Y-31273000D03*
X234273000Y-32073000D03*
%TD*%
%TO.C,LED192*%
X269051000Y-127882600D03*
X269051000Y-127082600D03*
X267651000Y-127082600D03*
X267651000Y-127882600D03*
%TD*%
D12*
%TO.C,R116*%
X327789000Y-34290000D03*
X326769000Y-34290000D03*
%TD*%
D14*
%TO.C,R147*%
X45720000Y-161288000D03*
X45720000Y-162308000D03*
%TD*%
D11*
%TO.C,LED318*%
X353836200Y-184270600D03*
X353836200Y-183470600D03*
X352436200Y-183470600D03*
X352436200Y-184270600D03*
%TD*%
D16*
%TO.C,R35*%
X105664000Y-94871000D03*
X105664000Y-93851000D03*
%TD*%
D11*
%TO.C,LED127*%
X242889000Y-35020200D03*
X242889000Y-34220200D03*
X241489000Y-34220200D03*
X241489000Y-35020200D03*
%TD*%
D16*
%TO.C,R56*%
X239522000Y-136019000D03*
X239522000Y-134999000D03*
%TD*%
D12*
%TO.C,R100*%
X329821000Y-24384000D03*
X328801000Y-24384000D03*
%TD*%
D11*
%TO.C,LED128*%
X244209800Y-38931800D03*
X244209800Y-38131800D03*
X242809800Y-38131800D03*
X242809800Y-38931800D03*
%TD*%
D35*
%TO.C,C3*%
X15888000Y-181229000D03*
X14338000Y-181229000D03*
%TD*%
D17*
%TO.C,R88*%
X252347000Y-149606000D03*
X253367000Y-149606000D03*
%TD*%
D18*
%TO.C,C11*%
X102771000Y-108712000D03*
X103731000Y-108712000D03*
%TD*%
D11*
%TO.C,LED185*%
X271946600Y-120821400D03*
X271946600Y-120021400D03*
X270546600Y-120021400D03*
X270546600Y-120821400D03*
%TD*%
%TO.C,LED278*%
X315025000Y-119551400D03*
X315025000Y-118751400D03*
X313625000Y-118751400D03*
X313625000Y-119551400D03*
%TD*%
D12*
%TO.C,R69*%
X235841000Y-143764000D03*
X234821000Y-143764000D03*
%TD*%
D23*
%TO.C,R4*%
X19073000Y-162873000D03*
X17423000Y-162873000D03*
%TD*%
D11*
%TO.C,LED408*%
X319373000Y-5723000D03*
X319373000Y-4923000D03*
X317973000Y-4923000D03*
X317973000Y-5723000D03*
%TD*%
%TO.C,LED401*%
X309648000Y-19523000D03*
X309648000Y-18723000D03*
X308248000Y-18723000D03*
X308248000Y-19523000D03*
%TD*%
%TO.C,LED216*%
X300343800Y-157041800D03*
X300343800Y-156241800D03*
X298943800Y-156241800D03*
X298943800Y-157041800D03*
%TD*%
D21*
%TO.C,U6*%
X240268000Y-141853000D03*
X240268000Y-142253000D03*
X240268000Y-142653000D03*
X240268000Y-143053000D03*
X240268000Y-143453000D03*
X240268000Y-143853000D03*
X240268000Y-144253000D03*
X240268000Y-144653000D03*
X240268000Y-145053000D03*
X240268000Y-145453000D03*
X240268000Y-145853000D03*
X240268000Y-146253000D03*
X240268000Y-146653000D03*
X240268000Y-147053000D03*
X240268000Y-147453000D03*
D22*
X240913000Y-148098000D03*
X241313000Y-148098000D03*
X241713000Y-148098000D03*
X242113000Y-148098000D03*
X242513000Y-148098000D03*
X242913000Y-148098000D03*
X243313000Y-148098000D03*
X243713000Y-148098000D03*
X244113000Y-148098000D03*
X244513000Y-148098000D03*
X244913000Y-148098000D03*
X245313000Y-148098000D03*
X245713000Y-148098000D03*
X246113000Y-148098000D03*
X246513000Y-148098000D03*
D21*
X247158000Y-147453000D03*
X247158000Y-147053000D03*
X247158000Y-146653000D03*
X247158000Y-146253000D03*
X247158000Y-145853000D03*
X247158000Y-145453000D03*
X247158000Y-145053000D03*
X247158000Y-144653000D03*
X247158000Y-144253000D03*
X247158000Y-143853000D03*
X247158000Y-143453000D03*
X247158000Y-143053000D03*
X247158000Y-142653000D03*
X247158000Y-142253000D03*
X247158000Y-141853000D03*
D22*
X246513000Y-141208000D03*
X246113000Y-141208000D03*
X245713000Y-141208000D03*
X245313000Y-141208000D03*
X244913000Y-141208000D03*
X244513000Y-141208000D03*
X244113000Y-141208000D03*
X243713000Y-141208000D03*
X243313000Y-141208000D03*
X242913000Y-141208000D03*
X242513000Y-141208000D03*
X242113000Y-141208000D03*
X241713000Y-141208000D03*
X241313000Y-141208000D03*
X240913000Y-141208000D03*
%TD*%
D14*
%TO.C,R128*%
X341376000Y-38225000D03*
X341376000Y-39245000D03*
%TD*%
D11*
%TO.C,LED188*%
X278957000Y-129914600D03*
X278957000Y-129114600D03*
X277557000Y-129114600D03*
X277557000Y-129914600D03*
%TD*%
D23*
%TO.C,R1*%
X19063199Y-159873000D03*
X17413199Y-159873000D03*
%TD*%
D11*
%TO.C,LED81*%
X195086200Y-84905800D03*
X195086200Y-84105800D03*
X193686200Y-84105800D03*
X193686200Y-84905800D03*
%TD*%
D16*
%TO.C,R60*%
X245618000Y-136019000D03*
X245618000Y-134999000D03*
%TD*%
D17*
%TO.C,R6*%
X8380000Y-179324000D03*
X9400000Y-179324000D03*
%TD*%
D11*
%TO.C,LED38*%
X135243800Y-69157800D03*
X135243800Y-68357800D03*
X133843800Y-68357800D03*
X133843800Y-69157800D03*
%TD*%
%TO.C,LED347*%
X193773000Y-39473000D03*
X193773000Y-38673000D03*
X192373000Y-38673000D03*
X192373000Y-39473000D03*
%TD*%
D12*
%TO.C,R181*%
X187583000Y-14973000D03*
X186563000Y-14973000D03*
%TD*%
D11*
%TO.C,LED69*%
X195086200Y-61080600D03*
X195086200Y-60280600D03*
X193686200Y-60280600D03*
X193686200Y-61080600D03*
%TD*%
D12*
%TO.C,R139*%
X57533000Y-168148000D03*
X56513000Y-168148000D03*
%TD*%
%TO.C,R62*%
X57533000Y-174498000D03*
X56513000Y-174498000D03*
%TD*%
D17*
%TO.C,R90*%
X252347000Y-143510000D03*
X253367000Y-143510000D03*
%TD*%
D11*
%TO.C,LED103*%
X209310200Y-91001800D03*
X209310200Y-90201800D03*
X207910200Y-90201800D03*
X207910200Y-91001800D03*
%TD*%
%TO.C,LED243*%
X291961800Y-88106200D03*
X291961800Y-87306200D03*
X290561800Y-87306200D03*
X290561800Y-88106200D03*
%TD*%
%TO.C,LED315*%
X351956600Y-94608600D03*
X351956600Y-93808600D03*
X350556600Y-93808600D03*
X350556600Y-94608600D03*
%TD*%
D16*
%TO.C,R67*%
X241046000Y-136019000D03*
X241046000Y-134999000D03*
%TD*%
D11*
%TO.C,LED77*%
X180049400Y-81146600D03*
X180049400Y-80346600D03*
X178649400Y-80346600D03*
X178649400Y-81146600D03*
%TD*%
%TO.C,LED340*%
X166473000Y-45373000D03*
X166473000Y-44573000D03*
X165073000Y-44573000D03*
X165073000Y-45373000D03*
%TD*%
%TO.C,LED299*%
X321933800Y-129101800D03*
X321933800Y-128301800D03*
X320533800Y-128301800D03*
X320533800Y-129101800D03*
%TD*%
%TO.C,LED227*%
X307760600Y-164458600D03*
X307760600Y-163658600D03*
X306360600Y-163658600D03*
X306360600Y-164458600D03*
%TD*%
D12*
%TO.C,R104*%
X329821000Y-25908000D03*
X328801000Y-25908000D03*
%TD*%
D14*
%TO.C,R21*%
X48260000Y-161288000D03*
X48260000Y-162308000D03*
%TD*%
D11*
%TO.C,LED348*%
X197773000Y-39173000D03*
X197773000Y-38373000D03*
X196373000Y-38373000D03*
X196373000Y-39173000D03*
%TD*%
%TO.C,LED156*%
X239485400Y-113150600D03*
X239485400Y-112350600D03*
X238085400Y-112350600D03*
X238085400Y-113150600D03*
%TD*%
D15*
%TO.C,C14*%
X96393000Y-106073000D03*
X96393000Y-107033000D03*
%TD*%
D17*
%TO.C,R47*%
X108075000Y-104140000D03*
X109095000Y-104140000D03*
%TD*%
D16*
%TO.C,R29*%
X101854000Y-92839000D03*
X101854000Y-91819000D03*
%TD*%
D11*
%TO.C,LED206*%
X295873400Y-164204600D03*
X295873400Y-163404600D03*
X294473400Y-163404600D03*
X294473400Y-164204600D03*
%TD*%
D16*
%TO.C,R79*%
X248666000Y-136019000D03*
X248666000Y-134999000D03*
%TD*%
D17*
%TO.C,R96*%
X252347000Y-152654000D03*
X253367000Y-152654000D03*
%TD*%
D11*
%TO.C,LED319*%
X350331000Y-182391000D03*
X350331000Y-181591000D03*
X348931000Y-181591000D03*
X348931000Y-182391000D03*
%TD*%
%TO.C,LED68*%
X192749400Y-63722200D03*
X192749400Y-62922200D03*
X191349400Y-62922200D03*
X191349400Y-63722200D03*
%TD*%
%TO.C,LED363*%
X279873000Y-114273000D03*
X279873000Y-113473000D03*
X278473000Y-113473000D03*
X278473000Y-114273000D03*
%TD*%
D14*
%TO.C,R163*%
X195773000Y-27073000D03*
X195773000Y-28093000D03*
%TD*%
D11*
%TO.C,LED342*%
X174073000Y-42873000D03*
X174073000Y-42073000D03*
X172673000Y-42073000D03*
X172673000Y-42873000D03*
%TD*%
%TO.C,LED58*%
X149315400Y-88919000D03*
X149315400Y-88119000D03*
X147915400Y-88119000D03*
X147915400Y-88919000D03*
%TD*%
%TO.C,LED36*%
X128385800Y-67837000D03*
X128385800Y-67037000D03*
X126985800Y-67037000D03*
X126985800Y-67837000D03*
%TD*%
D16*
%TO.C,R77*%
X243332000Y-138051000D03*
X243332000Y-137031000D03*
%TD*%
D11*
%TO.C,LED60*%
X154852600Y-94456200D03*
X154852600Y-93656200D03*
X153452600Y-93656200D03*
X153452600Y-94456200D03*
%TD*%
%TO.C,LED400*%
X305773000Y-19198000D03*
X305773000Y-18398000D03*
X304373000Y-18398000D03*
X304373000Y-19198000D03*
%TD*%
%TO.C,LED95*%
X226277400Y-63315800D03*
X226277400Y-62515800D03*
X224877400Y-62515800D03*
X224877400Y-63315800D03*
%TD*%
D12*
%TO.C,R187*%
X187583000Y-10173000D03*
X186563000Y-10173000D03*
%TD*%
D11*
%TO.C,LED115*%
X220232200Y-114166600D03*
X220232200Y-113366600D03*
X218832200Y-113366600D03*
X218832200Y-114166600D03*
%TD*%
%TO.C,LED290*%
X324423000Y-106495800D03*
X324423000Y-105695800D03*
X323023000Y-105695800D03*
X323023000Y-106495800D03*
%TD*%
D16*
%TO.C,R78*%
X249428000Y-138051000D03*
X249428000Y-137031000D03*
%TD*%
D12*
%TO.C,R118*%
X327789000Y-32766000D03*
X326769000Y-32766000D03*
%TD*%
D11*
%TO.C,LED144*%
X263412200Y-62503000D03*
X263412200Y-61703000D03*
X262012200Y-61703000D03*
X262012200Y-62503000D03*
%TD*%
%TO.C,LED313*%
X359119400Y-96386600D03*
X359119400Y-95586600D03*
X357719400Y-95586600D03*
X357719400Y-96386600D03*
%TD*%
D12*
%TO.C,R15*%
X93601000Y-99060000D03*
X92581000Y-99060000D03*
%TD*%
D11*
%TO.C,LED42*%
X149315400Y-75457000D03*
X149315400Y-74657000D03*
X147915400Y-74657000D03*
X147915400Y-75457000D03*
%TD*%
%TO.C,LED203*%
X284341800Y-163239400D03*
X284341800Y-162439400D03*
X282941800Y-162439400D03*
X282941800Y-163239400D03*
%TD*%
%TO.C,LED291*%
X328436200Y-106445000D03*
X328436200Y-105645000D03*
X327036200Y-105645000D03*
X327036200Y-106445000D03*
%TD*%
%TO.C,LED309*%
X347994200Y-152469800D03*
X347994200Y-151669800D03*
X346594200Y-151669800D03*
X346594200Y-152469800D03*
%TD*%
D17*
%TO.C,R89*%
X250315000Y-148844000D03*
X251335000Y-148844000D03*
%TD*%
%TO.C,R95*%
X250315000Y-147320000D03*
X251335000Y-147320000D03*
%TD*%
D11*
%TO.C,LED23*%
X87085400Y-41471800D03*
X87085400Y-40671800D03*
X85685400Y-40671800D03*
X85685400Y-41471800D03*
%TD*%
%TO.C,LED75*%
X172835800Y-78606600D03*
X172835800Y-77806600D03*
X171435800Y-77806600D03*
X171435800Y-78606600D03*
%TD*%
D16*
%TO.C,R32*%
X104140000Y-94871000D03*
X104140000Y-93851000D03*
%TD*%
D11*
%TO.C,LED244*%
X265698200Y-89071400D03*
X265698200Y-88271400D03*
X264298200Y-88271400D03*
X264298200Y-89071400D03*
%TD*%
%TO.C,LED323*%
X344590600Y-176904600D03*
X344590600Y-176104600D03*
X343190600Y-176104600D03*
X343190600Y-176904600D03*
%TD*%
D17*
%TO.C,R49*%
X108075000Y-102616000D03*
X109095000Y-102616000D03*
%TD*%
D11*
%TO.C,LED253*%
X290133000Y-72409000D03*
X290133000Y-71609000D03*
X288733000Y-71609000D03*
X288733000Y-72409000D03*
%TD*%
%TO.C,LED339*%
X163273000Y-47873000D03*
X163273000Y-47073000D03*
X161873000Y-47073000D03*
X161873000Y-47873000D03*
%TD*%
D12*
%TO.C,R117*%
X329821000Y-33528000D03*
X328801000Y-33528000D03*
%TD*%
D36*
%TO.C,SW2*%
X30913000Y-169363000D03*
X24713000Y-169363000D03*
X30913000Y-165663000D03*
X24713000Y-165663000D03*
%TD*%
D17*
%TO.C,R94*%
X252347000Y-148082000D03*
X253367000Y-148082000D03*
%TD*%
D12*
%TO.C,R103*%
X327789000Y-26670000D03*
X326769000Y-26670000D03*
%TD*%
D14*
%TO.C,R120*%
X331470000Y-40257000D03*
X331470000Y-41277000D03*
%TD*%
D11*
%TO.C,LED217*%
X304357000Y-157143400D03*
X304357000Y-156343400D03*
X302957000Y-156343400D03*
X302957000Y-157143400D03*
%TD*%
D21*
%TO.C,U12*%
X199818000Y-21173000D03*
X199818000Y-20773000D03*
X199818000Y-20373000D03*
X199818000Y-19973000D03*
X199818000Y-19573000D03*
X199818000Y-19173000D03*
X199818000Y-18773000D03*
X199818000Y-18373000D03*
X199818000Y-17973000D03*
X199818000Y-17573000D03*
X199818000Y-17173000D03*
X199818000Y-16773000D03*
X199818000Y-16373000D03*
X199818000Y-15973000D03*
X199818000Y-15573000D03*
D22*
X199173000Y-14928000D03*
X198773000Y-14928000D03*
X198373000Y-14928000D03*
X197973000Y-14928000D03*
X197573000Y-14928000D03*
X197173000Y-14928000D03*
X196773000Y-14928000D03*
X196373000Y-14928000D03*
X195973000Y-14928000D03*
X195573000Y-14928000D03*
X195173000Y-14928000D03*
X194773000Y-14928000D03*
X194373000Y-14928000D03*
X193973000Y-14928000D03*
X193573000Y-14928000D03*
D21*
X192928000Y-15573000D03*
X192928000Y-15973000D03*
X192928000Y-16373000D03*
X192928000Y-16773000D03*
X192928000Y-17173000D03*
X192928000Y-17573000D03*
X192928000Y-17973000D03*
X192928000Y-18373000D03*
X192928000Y-18773000D03*
X192928000Y-19173000D03*
X192928000Y-19573000D03*
X192928000Y-19973000D03*
X192928000Y-20373000D03*
X192928000Y-20773000D03*
X192928000Y-21173000D03*
D22*
X193573000Y-21818000D03*
X193973000Y-21818000D03*
X194373000Y-21818000D03*
X194773000Y-21818000D03*
X195173000Y-21818000D03*
X195573000Y-21818000D03*
X195973000Y-21818000D03*
X196373000Y-21818000D03*
X196773000Y-21818000D03*
X197173000Y-21818000D03*
X197573000Y-21818000D03*
X197973000Y-21818000D03*
X198373000Y-21818000D03*
X198773000Y-21818000D03*
X199173000Y-21818000D03*
%TD*%
D11*
%TO.C,LED100*%
X198489800Y-86785400D03*
X198489800Y-85985400D03*
X197089800Y-85985400D03*
X197089800Y-86785400D03*
%TD*%
D12*
%TO.C,R173*%
X189573000Y-20473000D03*
X188553000Y-20473000D03*
%TD*%
D11*
%TO.C,LED27*%
X99277400Y-49853800D03*
X99277400Y-49053800D03*
X97877400Y-49053800D03*
X97877400Y-49853800D03*
%TD*%
D17*
%TO.C,R146*%
X344295000Y-34798000D03*
X345315000Y-34798000D03*
%TD*%
D11*
%TO.C,LED210*%
X281395400Y-144646600D03*
X281395400Y-143846600D03*
X279995400Y-143846600D03*
X279995400Y-144646600D03*
%TD*%
%TO.C,LED338*%
X159573000Y-50073000D03*
X159573000Y-49273000D03*
X158173000Y-49273000D03*
X158173000Y-50073000D03*
%TD*%
D14*
%TO.C,R169*%
X191773000Y-25073000D03*
X191773000Y-26093000D03*
%TD*%
D11*
%TO.C,LED180*%
X261024600Y-103955800D03*
X261024600Y-103155800D03*
X259624600Y-103155800D03*
X259624600Y-103955800D03*
%TD*%
D36*
%TO.C,SW1*%
X30913000Y-176983000D03*
X24713000Y-176983000D03*
X30913000Y-173283000D03*
X24713000Y-173283000D03*
%TD*%
D11*
%TO.C,LED262*%
X294298600Y-91103400D03*
X294298600Y-90303400D03*
X292898600Y-90303400D03*
X292898600Y-91103400D03*
%TD*%
%TO.C,LED93*%
X218352600Y-63112600D03*
X218352600Y-62312600D03*
X216952600Y-62312600D03*
X216952600Y-63112600D03*
%TD*%
%TO.C,LED79*%
X187415400Y-83280200D03*
X187415400Y-82480200D03*
X186015400Y-82480200D03*
X186015400Y-83280200D03*
%TD*%
%TO.C,LED177*%
X261481800Y-92627400D03*
X261481800Y-91827400D03*
X260081800Y-91827400D03*
X260081800Y-92627400D03*
%TD*%
%TO.C,LED17*%
X65393800Y-34359800D03*
X65393800Y-33559800D03*
X63993800Y-33559800D03*
X63993800Y-34359800D03*
%TD*%
D16*
%TO.C,R36*%
X106426000Y-92839000D03*
X106426000Y-91819000D03*
%TD*%
D17*
%TO.C,R41*%
X110107000Y-97282000D03*
X111127000Y-97282000D03*
%TD*%
D11*
%TO.C,LED281*%
X321273400Y-89935000D03*
X321273400Y-89135000D03*
X319873400Y-89135000D03*
X319873400Y-89935000D03*
%TD*%
%TO.C,LED369*%
X294573000Y-117073000D03*
X294573000Y-116273000D03*
X293173000Y-116273000D03*
X293173000Y-117073000D03*
%TD*%
%TO.C,LED99*%
X240298200Y-64636600D03*
X240298200Y-63836600D03*
X238898200Y-63836600D03*
X238898200Y-64636600D03*
%TD*%
%TO.C,LED360*%
X264473000Y-115673000D03*
X264473000Y-114873000D03*
X263073000Y-114873000D03*
X263073000Y-115673000D03*
%TD*%
%TO.C,LED186*%
X274080200Y-124072600D03*
X274080200Y-123272600D03*
X272680200Y-123272600D03*
X272680200Y-124072600D03*
%TD*%
%TO.C,LED410*%
X15073000Y-67673000D03*
X15073000Y-66873000D03*
X13673000Y-66873000D03*
X13673000Y-67673000D03*
%TD*%
D16*
%TO.C,R24*%
X100330000Y-92839000D03*
X100330000Y-91819000D03*
%TD*%
D14*
%TO.C,R148*%
X46990000Y-161288000D03*
X46990000Y-162308000D03*
%TD*%
D11*
%TO.C,LED91*%
X210427800Y-63011000D03*
X210427800Y-62211000D03*
X209027800Y-62211000D03*
X209027800Y-63011000D03*
%TD*%
D17*
%TO.C,R37*%
X110107000Y-100330000D03*
X111127000Y-100330000D03*
%TD*%
D11*
%TO.C,LED84*%
X171769000Y-107664200D03*
X171769000Y-106864200D03*
X170369000Y-106864200D03*
X170369000Y-107664200D03*
%TD*%
D18*
%TO.C,C15*%
X245011000Y-151892000D03*
X245971000Y-151892000D03*
%TD*%
D11*
%TO.C,LED190*%
X263666200Y-121888200D03*
X263666200Y-121088200D03*
X262266200Y-121088200D03*
X262266200Y-121888200D03*
%TD*%
%TO.C,LED260*%
X313907400Y-84651800D03*
X313907400Y-83851800D03*
X312507400Y-83851800D03*
X312507400Y-84651800D03*
%TD*%
%TO.C,LED200*%
X276213800Y-156076600D03*
X276213800Y-155276600D03*
X274813800Y-155276600D03*
X274813800Y-156076600D03*
%TD*%
D16*
%TO.C,R59*%
X246380000Y-138051000D03*
X246380000Y-137031000D03*
%TD*%
D11*
%TO.C,LED264*%
X296991000Y-98367800D03*
X296991000Y-97567800D03*
X295591000Y-97567800D03*
X295591000Y-98367800D03*
%TD*%
%TO.C,LED106*%
X220740200Y-92221000D03*
X220740200Y-91421000D03*
X219340200Y-91421000D03*
X219340200Y-92221000D03*
%TD*%
D12*
%TO.C,R19*%
X57533000Y-170688000D03*
X56513000Y-170688000D03*
%TD*%
D11*
%TO.C,LED207*%
X299835800Y-164153800D03*
X299835800Y-163353800D03*
X298435800Y-163353800D03*
X298435800Y-164153800D03*
%TD*%
%TO.C,LED399*%
X302348000Y-17723000D03*
X302348000Y-16923000D03*
X300948000Y-16923000D03*
X300948000Y-17723000D03*
%TD*%
D12*
%TO.C,R127*%
X329821000Y-35052000D03*
X328801000Y-35052000D03*
%TD*%
D17*
%TO.C,R87*%
X250315000Y-150368000D03*
X251335000Y-150368000D03*
%TD*%
D11*
%TO.C,LED240*%
X283884600Y-79470200D03*
X283884600Y-78670200D03*
X282484600Y-78670200D03*
X282484600Y-79470200D03*
%TD*%
D21*
%TO.C,U5*%
X98028000Y-98673000D03*
X98028000Y-99073000D03*
X98028000Y-99473000D03*
X98028000Y-99873000D03*
X98028000Y-100273000D03*
X98028000Y-100673000D03*
X98028000Y-101073000D03*
X98028000Y-101473000D03*
X98028000Y-101873000D03*
X98028000Y-102273000D03*
X98028000Y-102673000D03*
X98028000Y-103073000D03*
X98028000Y-103473000D03*
X98028000Y-103873000D03*
X98028000Y-104273000D03*
D22*
X98673000Y-104918000D03*
X99073000Y-104918000D03*
X99473000Y-104918000D03*
X99873000Y-104918000D03*
X100273000Y-104918000D03*
X100673000Y-104918000D03*
X101073000Y-104918000D03*
X101473000Y-104918000D03*
X101873000Y-104918000D03*
X102273000Y-104918000D03*
X102673000Y-104918000D03*
X103073000Y-104918000D03*
X103473000Y-104918000D03*
X103873000Y-104918000D03*
X104273000Y-104918000D03*
D21*
X104918000Y-104273000D03*
X104918000Y-103873000D03*
X104918000Y-103473000D03*
X104918000Y-103073000D03*
X104918000Y-102673000D03*
X104918000Y-102273000D03*
X104918000Y-101873000D03*
X104918000Y-101473000D03*
X104918000Y-101073000D03*
X104918000Y-100673000D03*
X104918000Y-100273000D03*
X104918000Y-99873000D03*
X104918000Y-99473000D03*
X104918000Y-99073000D03*
X104918000Y-98673000D03*
D22*
X104273000Y-98028000D03*
X103873000Y-98028000D03*
X103473000Y-98028000D03*
X103073000Y-98028000D03*
X102673000Y-98028000D03*
X102273000Y-98028000D03*
X101873000Y-98028000D03*
X101473000Y-98028000D03*
X101073000Y-98028000D03*
X100673000Y-98028000D03*
X100273000Y-98028000D03*
X99873000Y-98028000D03*
X99473000Y-98028000D03*
X99073000Y-98028000D03*
X98673000Y-98028000D03*
%TD*%
D17*
%TO.C,R2*%
X8253000Y-172720000D03*
X9273000Y-172720000D03*
%TD*%
%TO.C,R53*%
X108075000Y-108712000D03*
X109095000Y-108712000D03*
%TD*%
D11*
%TO.C,LED373*%
X294173000Y-130073000D03*
X294173000Y-129273000D03*
X292773000Y-129273000D03*
X292773000Y-130073000D03*
%TD*%
%TO.C,LED273*%
X300699400Y-109645400D03*
X300699400Y-108845400D03*
X299299400Y-108845400D03*
X299299400Y-109645400D03*
%TD*%
%TO.C,LED292*%
X332347800Y-106394200D03*
X332347800Y-105594200D03*
X330947800Y-105594200D03*
X330947800Y-106394200D03*
%TD*%
D14*
%TO.C,R165*%
X192573000Y-27073000D03*
X192573000Y-28093000D03*
%TD*%
D11*
%TO.C,LED130*%
X247156200Y-46297800D03*
X247156200Y-45497800D03*
X245756200Y-45497800D03*
X245756200Y-46297800D03*
%TD*%
D12*
%TO.C,R68*%
X237873000Y-143002000D03*
X236853000Y-143002000D03*
%TD*%
D37*
%TO.C,F2*%
X59273000Y-163373000D03*
X56473000Y-163373000D03*
%TD*%
D11*
%TO.C,LED404*%
X320498000Y-19198000D03*
X320498000Y-18398000D03*
X319098000Y-18398000D03*
X319098000Y-19198000D03*
%TD*%
%TO.C,LED237*%
X273927800Y-73780600D03*
X273927800Y-72980600D03*
X272527800Y-72980600D03*
X272527800Y-73780600D03*
%TD*%
%TO.C,LED250*%
X285154600Y-98672600D03*
X285154600Y-97872600D03*
X283754600Y-97872600D03*
X283754600Y-98672600D03*
%TD*%
%TO.C,LED143*%
X270270200Y-63722200D03*
X270270200Y-62922200D03*
X268870200Y-62922200D03*
X268870200Y-63722200D03*
%TD*%
%TO.C,LED167*%
X273927800Y-63569800D03*
X273927800Y-62769800D03*
X272527800Y-62769800D03*
X272527800Y-63569800D03*
%TD*%
%TO.C,LED175*%
X261126200Y-81045000D03*
X261126200Y-80245000D03*
X259726200Y-80245000D03*
X259726200Y-81045000D03*
%TD*%
%TO.C,LED228*%
X311773800Y-164458600D03*
X311773800Y-163658600D03*
X310373800Y-163658600D03*
X310373800Y-164458600D03*
%TD*%
%TO.C,LED12*%
X47156600Y-33191400D03*
X47156600Y-32391400D03*
X45756600Y-32391400D03*
X45756600Y-33191400D03*
%TD*%
%TO.C,LED390*%
X270723000Y-33098000D03*
X270723000Y-32298000D03*
X269323000Y-32298000D03*
X269323000Y-33098000D03*
%TD*%
%TO.C,LED365*%
X288073000Y-113673000D03*
X288073000Y-112873000D03*
X286673000Y-112873000D03*
X286673000Y-113673000D03*
%TD*%
%TO.C,LED337*%
X156373000Y-52573000D03*
X156373000Y-51773000D03*
X154973000Y-51773000D03*
X154973000Y-52573000D03*
%TD*%
D12*
%TO.C,R185*%
X187573000Y-18073000D03*
X186553000Y-18073000D03*
%TD*%
D11*
%TO.C,LED205*%
X291860200Y-164306200D03*
X291860200Y-163506200D03*
X290460200Y-163506200D03*
X290460200Y-164306200D03*
%TD*%
%TO.C,LED235*%
X268238200Y-68954600D03*
X268238200Y-68154600D03*
X266838200Y-68154600D03*
X266838200Y-68954600D03*
%TD*%
%TO.C,LED403*%
X317248000Y-20898000D03*
X317248000Y-20098000D03*
X315848000Y-20098000D03*
X315848000Y-20898000D03*
%TD*%
D16*
%TO.C,R23*%
X96520000Y-94871000D03*
X96520000Y-93851000D03*
%TD*%
D11*
%TO.C,LED247*%
X277331400Y-89630200D03*
X277331400Y-88830200D03*
X275931400Y-88830200D03*
X275931400Y-89630200D03*
%TD*%
%TO.C,LED267*%
X304865000Y-106902200D03*
X304865000Y-106102200D03*
X303465000Y-106102200D03*
X303465000Y-106902200D03*
%TD*%
%TO.C,LED343*%
X177973000Y-41573000D03*
X177973000Y-40773000D03*
X176573000Y-40773000D03*
X176573000Y-41573000D03*
%TD*%
D16*
%TO.C,R80*%
X247904000Y-138051000D03*
X247904000Y-137031000D03*
%TD*%
D11*
%TO.C,LED356*%
X228873000Y-35673000D03*
X228873000Y-34873000D03*
X227473000Y-34873000D03*
X227473000Y-35673000D03*
%TD*%
%TO.C,LED89*%
X190565000Y-112896600D03*
X190565000Y-112096600D03*
X189165000Y-112096600D03*
X189165000Y-112896600D03*
%TD*%
%TO.C,LED193*%
X271540200Y-130727400D03*
X271540200Y-129927400D03*
X270140200Y-129927400D03*
X270140200Y-130727400D03*
%TD*%
%TO.C,LED28*%
X102173000Y-52343000D03*
X102173000Y-51543000D03*
X100773000Y-51543000D03*
X100773000Y-52343000D03*
%TD*%
D32*
%TO.C,D2*%
X5031500Y-168783000D03*
X6906500Y-168783000D03*
%TD*%
D11*
%TO.C,LED121*%
X232932200Y-14547800D03*
X232932200Y-13747800D03*
X231532200Y-13747800D03*
X231532200Y-14547800D03*
%TD*%
D17*
%TO.C,R152*%
X204663000Y-18973000D03*
X205683000Y-18973000D03*
%TD*%
D11*
%TO.C,LED242*%
X289371000Y-85109000D03*
X289371000Y-84309000D03*
X287971000Y-84309000D03*
X287971000Y-85109000D03*
%TD*%
D17*
%TO.C,R86*%
X250315000Y-144272000D03*
X251335000Y-144272000D03*
%TD*%
D11*
%TO.C,LED170*%
X285154600Y-67024200D03*
X285154600Y-66224200D03*
X283754600Y-66224200D03*
X283754600Y-67024200D03*
%TD*%
D14*
%TO.C,R132*%
X338328000Y-38225000D03*
X338328000Y-39245000D03*
%TD*%
D24*
%TO.C,C29*%
X33909000Y-173327000D03*
X33909000Y-172367000D03*
%TD*%
D11*
%TO.C,LED252*%
X290488600Y-103600200D03*
X290488600Y-102800200D03*
X289088600Y-102800200D03*
X289088600Y-103600200D03*
%TD*%
D17*
%TO.C,R5*%
X8380000Y-176149000D03*
X9400000Y-176149000D03*
%TD*%
D12*
%TO.C,R188*%
X189583000Y-10973000D03*
X188563000Y-10973000D03*
%TD*%
D38*
%TO.C,F1*%
X9144000Y-180972000D03*
X9144000Y-183772000D03*
%TD*%
D17*
%TO.C,R97*%
X250315000Y-151892000D03*
X251335000Y-151892000D03*
%TD*%
D11*
%TO.C,LED118*%
X225871000Y-5403800D03*
X225871000Y-4603800D03*
X224471000Y-4603800D03*
X224471000Y-5403800D03*
%TD*%
%TO.C,LED377*%
X293273000Y-144073000D03*
X293273000Y-143273000D03*
X291873000Y-143273000D03*
X291873000Y-144073000D03*
%TD*%
%TO.C,LED132*%
X252744200Y-51022200D03*
X252744200Y-50222200D03*
X251344200Y-50222200D03*
X251344200Y-51022200D03*
%TD*%
%TO.C,LED162*%
X260673000Y-119873000D03*
X260673000Y-119073000D03*
X259273000Y-119073000D03*
X259273000Y-119873000D03*
%TD*%
%TO.C,LED96*%
X229833400Y-64687400D03*
X229833400Y-63887400D03*
X228433400Y-63887400D03*
X228433400Y-64687400D03*
%TD*%
D14*
%TO.C,R160*%
X198173000Y-25073000D03*
X198173000Y-26093000D03*
%TD*%
D11*
%TO.C,LED219*%
X311773800Y-159480200D03*
X311773800Y-158680200D03*
X310373800Y-158680200D03*
X310373800Y-159480200D03*
%TD*%
D16*
%TO.C,R25*%
X99568000Y-94871000D03*
X99568000Y-93851000D03*
%TD*%
D31*
%TO.C,D1*%
X2717800Y-185293000D03*
X5664200Y-185293000D03*
%TD*%
D11*
%TO.C,LED279*%
X317565000Y-122599400D03*
X317565000Y-121799400D03*
X316165000Y-121799400D03*
X316165000Y-122599400D03*
%TD*%
D17*
%TO.C,R38*%
X108075000Y-99568000D03*
X109095000Y-99568000D03*
%TD*%
D11*
%TO.C,LED191*%
X266612600Y-124631400D03*
X266612600Y-123831400D03*
X265212600Y-123831400D03*
X265212600Y-124631400D03*
%TD*%
D16*
%TO.C,R22*%
X97282000Y-92839000D03*
X97282000Y-91819000D03*
%TD*%
D11*
%TO.C,LED302*%
X328842600Y-138804600D03*
X328842600Y-138004600D03*
X327442600Y-138004600D03*
X327442600Y-138804600D03*
%TD*%
D12*
%TO.C,R113*%
X327789000Y-31242000D03*
X326769000Y-31242000D03*
%TD*%
D11*
%TO.C,LED16*%
X61482200Y-34664600D03*
X61482200Y-33864600D03*
X60082200Y-33864600D03*
X60082200Y-34664600D03*
%TD*%
%TO.C,LED301*%
X326658200Y-135451800D03*
X326658200Y-134651800D03*
X325258200Y-134651800D03*
X325258200Y-135451800D03*
%TD*%
%TO.C,LED59*%
X152515800Y-91306600D03*
X152515800Y-90506600D03*
X151115800Y-90506600D03*
X151115800Y-91306600D03*
%TD*%
%TO.C,LED412*%
X23573000Y-67673000D03*
X23573000Y-66873000D03*
X22173000Y-66873000D03*
X22173000Y-67673000D03*
%TD*%
%TO.C,LED131*%
X249340600Y-48990200D03*
X249340600Y-48190200D03*
X247940600Y-48190200D03*
X247940600Y-48990200D03*
%TD*%
D12*
%TO.C,R65*%
X57533000Y-178308000D03*
X56513000Y-178308000D03*
%TD*%
D17*
%TO.C,R50*%
X110107000Y-101854000D03*
X111127000Y-101854000D03*
%TD*%
%TO.C,R48*%
X110107000Y-103378000D03*
X111127000Y-103378000D03*
%TD*%
D11*
%TO.C,LED18*%
X69356200Y-34563000D03*
X69356200Y-33763000D03*
X67956200Y-33763000D03*
X67956200Y-34563000D03*
%TD*%
%TO.C,LED325*%
X6673000Y-158973000D03*
X6673000Y-158173000D03*
X5273000Y-158173000D03*
X5273000Y-158973000D03*
%TD*%
%TO.C,LED32*%
X114314200Y-61436200D03*
X114314200Y-60636200D03*
X112914200Y-60636200D03*
X112914200Y-61436200D03*
%TD*%
%TO.C,LED34*%
X121527800Y-64230200D03*
X121527800Y-63430200D03*
X120127800Y-63430200D03*
X120127800Y-64230200D03*
%TD*%
D12*
%TO.C,R184*%
X189573000Y-17273000D03*
X188553000Y-17273000D03*
%TD*%
D14*
%TO.C,R136*%
X335280000Y-38225000D03*
X335280000Y-39245000D03*
%TD*%
D11*
%TO.C,LED48*%
X150534600Y-66617800D03*
X150534600Y-65817800D03*
X149134600Y-65817800D03*
X149134600Y-66617800D03*
%TD*%
%TO.C,LED305*%
X338291400Y-145916600D03*
X338291400Y-145116600D03*
X336891400Y-145116600D03*
X336891400Y-145916600D03*
%TD*%
D12*
%TO.C,R63*%
X57533000Y-173228000D03*
X56513000Y-173228000D03*
%TD*%
%TO.C,R99*%
X327789000Y-25146000D03*
X326769000Y-25146000D03*
%TD*%
D11*
%TO.C,LED197*%
X274385000Y-144443400D03*
X274385000Y-143643400D03*
X272985000Y-143643400D03*
X272985000Y-144443400D03*
%TD*%
%TO.C,LED67*%
X188990200Y-63823800D03*
X188990200Y-63023800D03*
X187590200Y-63023800D03*
X187590200Y-63823800D03*
%TD*%
%TO.C,LED171*%
X287186600Y-70326200D03*
X287186600Y-69526200D03*
X285786600Y-69526200D03*
X285786600Y-70326200D03*
%TD*%
D14*
%TO.C,R159*%
X197373000Y-27073000D03*
X197373000Y-28093000D03*
%TD*%
D12*
%TO.C,R73*%
X237873000Y-141478000D03*
X236853000Y-141478000D03*
%TD*%
D14*
%TO.C,R134*%
X336804000Y-38225000D03*
X336804000Y-39245000D03*
%TD*%
D11*
%TO.C,LED52*%
X165419000Y-66871800D03*
X165419000Y-66071800D03*
X164019000Y-66071800D03*
X164019000Y-66871800D03*
%TD*%
%TO.C,LED303*%
X331687400Y-141446200D03*
X331687400Y-140646200D03*
X330287400Y-140646200D03*
X330287400Y-141446200D03*
%TD*%
D14*
%TO.C,R157*%
X200573000Y-27073000D03*
X200573000Y-28093000D03*
%TD*%
D11*
%TO.C,LED199*%
X275655000Y-152215800D03*
X275655000Y-151415800D03*
X274255000Y-151415800D03*
X274255000Y-152215800D03*
%TD*%
%TO.C,LED21*%
X80227400Y-37814200D03*
X80227400Y-37014200D03*
X78827400Y-37014200D03*
X78827400Y-37814200D03*
%TD*%
%TO.C,LED218*%
X308319400Y-157854600D03*
X308319400Y-157054600D03*
X306919400Y-157054600D03*
X306919400Y-157854600D03*
%TD*%
D17*
%TO.C,R153*%
X204663000Y-22173000D03*
X205683000Y-22173000D03*
%TD*%
%TO.C,R43*%
X108075000Y-107188000D03*
X109095000Y-107188000D03*
%TD*%
D11*
%TO.C,LED2*%
X8751800Y-29686200D03*
X8751800Y-28886200D03*
X7351800Y-28886200D03*
X7351800Y-29686200D03*
%TD*%
D12*
%TO.C,R178*%
X189583000Y-12573000D03*
X188563000Y-12573000D03*
%TD*%
D16*
%TO.C,R33*%
X103378000Y-92839000D03*
X103378000Y-91819000D03*
%TD*%
D11*
%TO.C,LED90*%
X194578200Y-113557000D03*
X194578200Y-112757000D03*
X193178200Y-112757000D03*
X193178200Y-113557000D03*
%TD*%
D39*
%TO.C,U1*%
X19292001Y-169623001D03*
X19292001Y-168973000D03*
X19292001Y-168322999D03*
X19292001Y-167673000D03*
X19292001Y-167023001D03*
X19292001Y-166373000D03*
X19292001Y-165723001D03*
X13653999Y-165722999D03*
X13653999Y-166373000D03*
X13653999Y-167022999D03*
X13653999Y-167673000D03*
X13653999Y-168322999D03*
X13653999Y-168973000D03*
X13653999Y-169622999D03*
%TD*%
D11*
%TO.C,LED370*%
X294173000Y-120273000D03*
X294173000Y-119473000D03*
X292773000Y-119473000D03*
X292773000Y-120273000D03*
%TD*%
%TO.C,LED109*%
X198235800Y-115081000D03*
X198235800Y-114281000D03*
X196835800Y-114281000D03*
X196835800Y-115081000D03*
%TD*%
D17*
%TO.C,R154*%
X204663000Y-20573000D03*
X205683000Y-20573000D03*
%TD*%
D11*
%TO.C,LED54*%
X173343800Y-66821000D03*
X173343800Y-66021000D03*
X171943800Y-66021000D03*
X171943800Y-66821000D03*
%TD*%
%TO.C,LED209*%
X278855400Y-142005000D03*
X278855400Y-141205000D03*
X277455400Y-141205000D03*
X277455400Y-142005000D03*
%TD*%
%TO.C,LED225*%
X332398600Y-167608200D03*
X332398600Y-166808200D03*
X330998600Y-166808200D03*
X330998600Y-167608200D03*
%TD*%
%TO.C,LED198*%
X274740600Y-148405800D03*
X274740600Y-147605800D03*
X273340600Y-147605800D03*
X273340600Y-148405800D03*
%TD*%
%TO.C,LED304*%
X334989400Y-143732200D03*
X334989400Y-142932200D03*
X333589400Y-142932200D03*
X333589400Y-143732200D03*
%TD*%
%TO.C,LED135*%
X260821400Y-59658200D03*
X260821400Y-58858200D03*
X259421400Y-58858200D03*
X259421400Y-59658200D03*
%TD*%
%TO.C,LED51*%
X161456600Y-66922600D03*
X161456600Y-66122600D03*
X160056600Y-66122600D03*
X160056600Y-66922600D03*
%TD*%
D12*
%TO.C,R13*%
X93601000Y-100584000D03*
X92581000Y-100584000D03*
%TD*%
D11*
%TO.C,LED33*%
X117768600Y-63265000D03*
X117768600Y-62465000D03*
X116368600Y-62465000D03*
X116368600Y-63265000D03*
%TD*%
D17*
%TO.C,R109*%
X344295000Y-33274000D03*
X345315000Y-33274000D03*
%TD*%
D11*
%TO.C,LED345*%
X185673000Y-39473000D03*
X185673000Y-38673000D03*
X184273000Y-38673000D03*
X184273000Y-39473000D03*
%TD*%
D40*
%TO.C,U2*%
X12217000Y-183501000D03*
X12217000Y-185801000D03*
D41*
X18517000Y-185801000D03*
D40*
X12217000Y-188101000D03*
%TD*%
D11*
%TO.C,LED123*%
X236996200Y-21558200D03*
X236996200Y-20758200D03*
X235596200Y-20758200D03*
X235596200Y-21558200D03*
%TD*%
%TO.C,LED232*%
X323813400Y-172383400D03*
X323813400Y-171583400D03*
X322413400Y-171583400D03*
X322413400Y-172383400D03*
%TD*%
%TO.C,LED124*%
X236894600Y-25520600D03*
X236894600Y-24720600D03*
X235494600Y-24720600D03*
X235494600Y-25520600D03*
%TD*%
%TO.C,LED26*%
X96381800Y-47821800D03*
X96381800Y-47021800D03*
X94981800Y-47021800D03*
X94981800Y-47821800D03*
%TD*%
%TO.C,LED166*%
X271337000Y-60623400D03*
X271337000Y-59823400D03*
X269937000Y-59823400D03*
X269937000Y-60623400D03*
%TD*%
%TO.C,LED196*%
X274385000Y-140379400D03*
X274385000Y-139579400D03*
X272985000Y-139579400D03*
X272985000Y-140379400D03*
%TD*%
%TO.C,LED364*%
X283873000Y-114073000D03*
X283873000Y-113273000D03*
X282473000Y-113273000D03*
X282473000Y-114073000D03*
%TD*%
D14*
%TO.C,R166*%
X193373000Y-25073000D03*
X193373000Y-26093000D03*
%TD*%
D11*
%TO.C,LED354*%
X221273000Y-38273000D03*
X221273000Y-37473000D03*
X219873000Y-37473000D03*
X219873000Y-38273000D03*
%TD*%
D14*
%TO.C,R121*%
X330708000Y-38225000D03*
X330708000Y-39245000D03*
%TD*%
D11*
%TO.C,LED233*%
X326353400Y-174872600D03*
X326353400Y-174072600D03*
X324953400Y-174072600D03*
X324953400Y-174872600D03*
%TD*%
%TO.C,LED119*%
X228411000Y-8197800D03*
X228411000Y-7397800D03*
X227011000Y-7397800D03*
X227011000Y-8197800D03*
%TD*%
%TO.C,LED72*%
X206473000Y-62673000D03*
X206473000Y-61873000D03*
X205073000Y-61873000D03*
X205073000Y-62673000D03*
%TD*%
%TO.C,LED204*%
X287897800Y-164560200D03*
X287897800Y-163760200D03*
X286497800Y-163760200D03*
X286497800Y-164560200D03*
%TD*%
%TO.C,LED352*%
X212973000Y-37373000D03*
X212973000Y-36573000D03*
X211573000Y-36573000D03*
X211573000Y-37373000D03*
%TD*%
%TO.C,LED133*%
X255792200Y-53409800D03*
X255792200Y-52609800D03*
X254392200Y-52609800D03*
X254392200Y-53409800D03*
%TD*%
%TO.C,LED231*%
X321984600Y-168827400D03*
X321984600Y-168027400D03*
X320584600Y-168027400D03*
X320584600Y-168827400D03*
%TD*%
%TO.C,LED349*%
X201573000Y-38673000D03*
X201573000Y-37873000D03*
X200173000Y-37873000D03*
X200173000Y-38673000D03*
%TD*%
%TO.C,LED140*%
X259449800Y-66109800D03*
X259449800Y-65309800D03*
X258049800Y-65309800D03*
X258049800Y-66109800D03*
%TD*%
%TO.C,LED321*%
X338748600Y-171316600D03*
X338748600Y-170516600D03*
X337348600Y-170516600D03*
X337348600Y-171316600D03*
%TD*%
M02*
