M48
; DRILL file {KiCad 8.0.4} date 2025-01-21T10:49:53-0800
; FORMAT={-:-/ absolute / inch / decimal}
; #@! TF.CreationDate,2025-01-21T10:49:53-08:00
; #@! TF.GenerationSoftware,Kicad,Pcbnew,8.0.4
; #@! TF.FileFunction,Plated,1,4,PTH
FMAT,2
INCH
; #@! TA.AperFunction,Plated,PTH,ViaDrill
T1C0.0118
; #@! TA.AperFunction,Plated,PTH,ComponentDrill
T2C0.0118
; #@! TA.AperFunction,Plated,PTH,ComponentDrill
T3C0.0236
; #@! TA.AperFunction,Plated,PTH,ComponentDrill
T4C0.0300
%
G90
G05
T1
X0.1299Y-6.2874
X0.1299Y-6.4094
X0.1535Y-1.189
X0.1654Y-6.1969
X0.1703Y-1.0236
X0.1703Y-1.1043
X0.1742Y-6.2894
X0.1754Y-6.3153
X0.1762Y-6.4833
X0.1791Y-6.3957
X0.1791Y-6.4217
X0.2244Y-0.9646
X0.2254Y-1.0236
X0.2254Y-1.1043
X0.2298Y-6.0945
X0.2504Y-6.1177
X0.2648Y-6.189
X0.2677Y-3.5039
X0.2694Y-6.1354
X0.286Y-6.3026
X0.2943Y-1.1171
X0.2943Y-1.1988
X0.2992Y-3.5276
X0.2992Y-3.5591
X0.3061Y-6.3337
X0.3071Y-6.122
X0.3071Y-6.4685
X0.3071Y-7.1614
X0.3081Y-6.3661
X0.311Y-6.2244
X0.3268Y-6.8583
X0.3268Y-7.4449
X0.345Y-7.4106
X0.3465Y-6.4055
X0.3465Y-6.4488
X0.3494Y-1.1171
X0.3494Y-1.1988
X0.405Y-6.92
X0.4062Y-1.117
X0.4134Y-1.311
X0.4172Y-3.5439
X0.4331Y-3.4646
X0.4434Y-3.5416
X0.4528Y-1.1614
X0.4528Y-1.252
X0.4567Y-6.6024
X0.46Y-6.55
X0.46Y-6.65
X0.4646Y-3.6772
X0.4685Y-3.563
X0.4803Y-7.1457
X0.4823Y-2.5591
X0.4828Y-2.4242
X0.5069Y-1.1604
X0.5079Y-1.2421
X0.52Y-7.11
X0.5276Y-2.748
X0.5354Y-2.4921
X0.5423Y-2.6978
X0.5443Y-2.6102
X0.5669Y-2.5709
X0.5866Y-3.563
X0.5866Y-6.2953
X0.5984Y-1.2067
X0.5984Y-1.2884
X0.5984Y-2.7008
X0.5994Y-2.6112
X0.6024Y-3.4685
X0.6417Y-2.8622
X0.6496Y-6.9528
X0.6496Y-7.0472
X0.65Y-6.9862
X0.65Y-7.0138
X0.6535Y-1.2067
X0.6535Y-1.2884
X0.6547Y-3.5423
X0.6614Y-2.4646
X0.67Y-7.136
X0.6725Y-3.5234
X0.7047Y-7.1732
X0.7077Y-2.5344
X0.7087Y-2.438
X0.7087Y-2.7717
X0.7106Y-2.8652
X0.7539Y-1.2087
X0.7549Y-1.2913
X0.7559Y-1.0827
X0.7598Y-2.8642
X0.7618Y-2.4439
X0.7618Y-2.7726
X0.7638Y-2.5325
X0.7874Y-1.3701
X0.7874Y-3.5226
X0.8091Y-1.2087
X0.8094Y-3.545
X0.81Y-1.2904
X0.8307Y-2.8425
X0.8504Y-3.5551
X0.8661Y-3.4927
X0.877Y-2.6978
X0.878Y-2.6043
X0.8984Y-3.6112
X0.9055Y-2.5669
X0.9085Y-1.1801
X0.9094Y-1.2638
X0.9153Y-3.4752
X0.9173Y-2.7559
X0.9173Y-3.6496
X0.926Y-3.5433
X0.9331Y-2.6093
X0.9341Y-2.6969
X0.9536Y-3.5424
X0.9546Y-3.6255
X0.9636Y-1.1801
X0.9636Y-1.2628
X0.9799Y-3.5398
X0.9909Y-3.4736
X1.0129Y-3.6013
X1.0145Y-3.4973
X1.0354Y-3.4729
X1.0502Y-3.5226
X1.0512Y-3.5541
X1.0519Y-3.5833
X1.0659Y-1.2392
X1.0669Y-1.1545
X1.0984Y-1.1457
X1.1142Y-1.3228
X1.122Y-1.1565
X1.122Y-1.2392
X1.1378Y-6.2953
X1.1693Y-3.5541
X1.1722Y-3.5226
X1.189Y-3.4921
X1.2224Y-1.1407
X1.2224Y-1.2234
X1.239Y-3.6262
X1.2696Y-3.6119
X1.2776Y-1.1407
X1.2776Y-1.2224
X1.2913Y-3.5976
X1.3228Y-7.1929
X1.34Y-7.136
X1.3661Y-1.3268
X1.3699Y-6.8749
X1.374Y-6.8268
X1.3789Y-1.1319
X1.3789Y-1.2156
X1.4331Y-1.1309
X1.4331Y-1.2165
X1.4621Y-1.1915
X1.4882Y-1.2244
X1.4961Y-6.3346
X1.5197Y-1.0473
X1.5251Y-6.3549
X1.5374Y-1.1368
X1.5374Y-1.2205
X1.5551Y-6.5551
X1.5565Y-6.5215
X1.5906Y-1.2205
X1.5915Y-1.1378
X1.6268Y-1.1259
X1.6417Y-1.315
X1.6703Y-1.2825
X1.6722Y-1.1978
X1.7254Y-1.2815
X1.7264Y-1.1978
X1.7638Y-6.315
X1.7801Y-6.3549
X1.8051Y-1.3366
X1.8061Y-1.2549
X1.8065Y-6.5215
X1.8307Y-6.5591
X1.8565Y-6.5215
X1.8612Y-1.2539
X1.8622Y-1.3376
X1.8898Y-1.4094
X1.9016Y-1.5354
X1.9065Y-6.5215
X1.9331Y-6.5512
X1.9419Y-1.3376
X1.9419Y-1.4213
X1.9449Y-1.5157
X1.9565Y-6.5215
X1.9716Y-1.441
X1.985Y-6.355
X1.998Y-1.3376
X1.998Y-1.4203
X2.0Y-6.3189
X2.0Y-6.5551
X2.0103Y-1.1403
X2.03Y-6.5388
X2.03Y-6.5663
X2.0374Y-1.3386
X2.0374Y-1.375
X2.0472Y-6.7913
X2.0472Y-6.8701
X2.0472Y-7.0551
X2.0512Y-6.9449
X2.0565Y-6.4315
X2.0794Y-1.1217
X2.0906Y-6.4252
X2.1014Y-1.1015
X2.1211Y-1.4075
X2.1216Y-1.3228
X2.19Y-6.6276
X2.19Y-6.6776
X2.19Y-6.7276
X2.19Y-6.7776
X2.19Y-6.8276
X2.19Y-6.8776
X2.19Y-6.9276
X2.19Y-6.9776
X2.19Y-7.0276
X2.19Y-7.0776
X2.2165Y-1.2559
X2.2215Y-1.3848
X2.2224Y-1.3002
X2.2701Y-6.5472
X2.2756Y-1.2846
X2.2795Y-1.3858
X2.3071Y-7.0709
X2.311Y-6.5354
X2.311Y-6.7598
X2.315Y-6.6693
X2.3386Y-6.5079
X2.3386Y-7.1378
X2.3691Y-1.3957
X2.3711Y-1.31
X2.4055Y-7.11
X2.4055Y-7.1417
X2.4252Y-1.3091
X2.4252Y-1.3967
X2.5236Y-1.2982
X2.5246Y-1.3839
X2.5807Y-1.2982
X2.5817Y-1.3848
X2.617Y-1.361
X2.6801Y-1.3041
X2.6812Y-1.441
X2.6831Y-1.3937
X2.7323Y-1.3947
X2.7343Y-1.3061
X2.752Y-1.0748
X2.7951Y-1.0924
X2.8229Y-1.0999
X2.8248Y-1.3396
X2.8278Y-1.4272
X2.8602Y-1.1676
X2.8602Y-1.3386
X2.8799Y-1.4281
X2.9173Y-1.1496
X2.9331Y-1.5039
X2.94Y-1.4124
X2.9427Y-1.4382
X3.0551Y-1.4882
X3.0561Y-1.4065
X3.0636Y-1.4314
X3.1122Y-1.4301
X3.1161Y-1.5226
X3.1417Y-1.3465
X3.1545Y-1.4321
X3.1555Y-1.5226
X3.2037Y-1.543
X3.2126Y-1.3819
X3.2244Y-1.565
X3.2608Y-1.4852
X3.2913Y-4.1378
X3.2913Y-4.4213
X3.2953Y-3.7717
X3.3002Y-1.4872
X3.3337Y-4.2156
X3.3386Y-4.4646
X3.3465Y-1.5354
X3.3661Y-3.7126
X3.3789Y-1.6654
X3.3839Y-1.5728
X3.3937Y-4.5236
X3.3953Y-4.299
X3.3982Y-3.6175
X3.4094Y-3.4606
X3.4218Y-3.4955
X3.4243Y-3.6151
X3.4311Y-1.6663
X3.435Y-1.5748
X3.437Y-4.563
X3.4481Y-3.4975
X3.4488Y-4.4961
X3.4495Y-4.3213
X3.4499Y-4.2776
X3.4499Y-4.4524
X3.45Y-4.365
X3.45Y-4.4087
X3.4531Y-3.6154
X3.4613Y-1.7093
X3.4626Y-1.6821
X3.47Y-4.2995
X3.47Y-4.3431
X3.47Y-4.3869
X3.47Y-4.4305
X3.4724Y-4.4725
X3.4724Y-4.5197
X3.4803Y-3.6142
X3.4813Y-3.4975
X3.4882Y-7.2047
X3.5039Y-7.1654
X3.5115Y-3.4975
X3.5118Y-3.5787
X3.5397Y-3.4975
X3.56Y-4.16
X3.5758Y-1.7431
X3.5787Y-1.685
X3.5787Y-3.4606
X3.5866Y-4.5551
X3.595Y-4.16
X3.6024Y-4.0157
X3.6024Y-4.126
X3.6063Y-4.4724
X3.6063Y-4.4984
X3.6063Y-4.5244
X3.6093Y-1.7579
X3.625Y-3.845
X3.625Y-3.905
X3.625Y-3.965
X3.6339Y-3.8071
X3.6457Y-2.0315
X3.6496Y-1.7077
X3.6575Y-1.9173
X3.6575Y-7.1693
X3.6654Y-2.126
X3.6662Y-7.0152
X3.6662Y-7.11
X3.67Y-3.875
X3.67Y-3.935
X3.67Y-3.995
X3.6756Y-1.595
X3.6929Y-1.7096
X3.6929Y-2.0315
X3.6929Y-3.3465
X3.7205Y-4.5354
X3.7244Y-4.1181
X3.7257Y-2.0555
X3.7261Y-4.1811
X3.7283Y-1.5709
X3.7283Y-1.7746
X3.7283Y-7.0118
X3.7323Y-7.1772
X3.7364Y-3.3073
X3.7366Y-2.0291
X3.75Y-4.025
X3.755Y-3.3456
X3.757Y-2.0452
X3.7598Y-1.8209
X3.7628Y-1.9173
X3.7717Y-3.6024
X3.7752Y-3.3255
X3.7756Y-3.2598
X3.7774Y-2.0656
X3.7829Y-2.0923
X3.7874Y-1.7353
X3.7874Y-1.8189
X3.7953Y-4.0866
X3.804Y-4.033
X3.805Y-3.64
X3.8087Y-2.0968
X3.817Y-4.007
X3.825Y-4.055
X3.8327Y-1.9242
X3.8346Y-1.8583
X3.835Y-3.595
X3.865Y-3.64
X3.895Y-3.595
X3.9045Y-2.001
X3.9134Y-1.9055
X3.925Y-3.64
X3.9439Y-1.9498
X3.9439Y-2.0295
X3.95Y-3.95
X3.95Y-4.0
X3.95Y-4.05
X3.955Y-3.595
X3.9843Y-1.9331
X3.985Y-3.64
X3.9887Y-2.165
X3.9887Y-2.191
X4.0Y-3.95
X4.0Y-4.0
X4.0Y-4.05
X4.015Y-3.595
X4.0157Y-2.0974
X4.0256Y-2.002
X4.0314Y-2.3003
X4.045Y-3.64
X4.05Y-3.95
X4.05Y-4.0
X4.05Y-4.05
X4.05Y-4.315
X4.0512Y-2.3504
X4.0581Y-2.0482
X4.069Y-1.8696
X4.075Y-3.595
X4.0827Y-4.3268
X4.0906Y-2.5568
X4.0948Y-2.3564
X4.1024Y-2.5236
X4.1043Y-2.1152
X4.105Y-3.64
X4.1122Y-2.2096
X4.1142Y-1.9488
X4.122Y-1.815
X4.1299Y-2.5
X4.135Y-3.595
X4.1352Y-3.2654
X4.1352Y-3.2913
X4.1352Y-3.3228
X4.1378Y-3.3622
X4.1378Y-3.4843
X4.1417Y-2.1152
X4.1417Y-3.2244
X4.165Y-3.64
X4.1667Y-2.0223
X4.1713Y-2.1919
X4.1723Y-2.0563
X4.1811Y-1.9567
X4.1811Y-4.1299
X4.189Y-2.5669
X4.195Y-3.595
X4.2067Y-2.1919
X4.2205Y-2.5669
X4.225Y-3.64
X4.2559Y-2.1388
X4.2559Y-2.3937
X4.2559Y-3.6614
X4.2677Y-2.5787
X4.2844Y-2.2352
X4.2904Y-2.1398
X4.3199Y-2.2697
X4.36Y-3.805
X4.36Y-3.865
X4.36Y-3.925
X4.36Y-3.985
X4.36Y-4.045
X4.36Y-4.105
X4.36Y-4.165
X4.36Y-4.225
X4.36Y-4.285
X4.3661Y-4.3543
X4.378Y-3.7756
X4.3829Y-2.3346
X4.405Y-3.835
X4.405Y-3.895
X4.405Y-3.955
X4.405Y-4.015
X4.405Y-4.075
X4.405Y-4.135
X4.405Y-4.195
X4.405Y-4.255
X4.405Y-4.315
X4.4144Y-2.2382
X4.4193Y-2.3858
X4.4291Y-4.2835
X4.436Y-2.2844
X4.4803Y-2.1142
X4.482Y-2.4568
X4.4885Y-3.8504
X4.4991Y-2.3047
X4.5079Y-2.4547
X4.5144Y-3.8504
X4.5335Y-2.3799
X4.5404Y-3.8504
X4.5501Y-2.4759
X4.5748Y-3.8504
X4.5945Y-2.4321
X4.6053Y-2.5276
X4.6339Y-2.4301
X4.6407Y-2.5276
X4.7372Y-2.565
X4.7421Y-2.4705
X4.7835Y-2.685
X4.7864Y-2.4705
X4.7894Y-2.565
X4.8376Y-2.5906
X4.8819Y-2.5394
X4.9006Y-2.6358
X4.9154Y-2.4969
X4.9213Y-2.5413
X4.952Y-2.3876
X4.9882Y-2.3583
X5.0059Y-2.7096
X5.0089Y-2.6112
X5.0502Y-2.6102
X5.0581Y-2.7057
X5.122Y-2.8976
X5.1437Y-2.5778
X5.1476Y-2.6811
X5.1998Y-2.6811
X5.2323Y-2.6142
X5.2441Y-2.7402
X5.2746Y-2.7598
X5.2756Y-2.6644
X5.2835Y-2.6024
X5.2844Y-2.5069
X5.2992Y-2.4606
X5.3268Y-2.7608
X5.3287Y-2.6654
X5.3376Y-2.6024
X5.3386Y-2.5069
X5.3717Y-2.5752
X5.3819Y-2.9055
X5.4002Y-2.5312
X5.4114Y-2.7411
X5.4124Y-2.8376
X5.4248Y-2.9642
X5.4324Y-2.8708
X5.4449Y-2.5728
X5.4469Y-2.4744
X5.4646Y-2.7411
X5.4656Y-2.8386
X5.501Y-2.5719
X5.501Y-2.8681
X5.502Y-2.4754
X5.503Y-2.9006
X5.5827Y-2.2283
X5.5935Y-2.4006
X5.6053Y-2.499
X5.6053Y-2.721
X5.6142Y-3.252
X5.6211Y-2.8583
X5.6211Y-2.8907
X5.622Y-3.1535
X5.6299Y-3.5748
X5.6378Y-2.3976
X5.6516Y-2.499
X5.6693Y-2.8976
X5.6693Y-2.9921
X5.6929Y-3.0314
X5.7018Y-3.2333
X5.7077Y-3.2018
X5.7077Y-3.3583
X5.7087Y-3.3898
X5.7224Y-2.5266
X5.7254Y-2.9931
X5.7264Y-2.9006
X5.7303Y-2.3091
X5.7323Y-2.4094
X5.733Y-2.8017
X5.7382Y-3.1161
X5.752Y-2.6929
X5.7669Y-2.5901
X5.7697Y-2.3051
X5.7717Y-2.4636
X5.7835Y-2.4085
X5.7933Y-3.0197
X5.7943Y-3.1142
X5.81Y-2.4616
X5.811Y-2.2402
X5.8189Y-2.3858
X5.8258Y-3.5413
X5.8268Y-2.9124
X5.8268Y-3.0079
X5.8287Y-3.2343
X5.8287Y-3.3573
X5.8307Y-3.2047
X5.8317Y-3.3907
X5.8346Y-1.9646
X5.8445Y-2.5226
X5.8455Y-2.5965
X5.8535Y-3.0029
X5.8543Y-3.5413
X5.8563Y-3.439
X5.8583Y-2.2057
X5.876Y-2.3071
X5.8809Y-2.6585
X5.8839Y-2.9124
X5.8858Y-3.0089
X5.8898Y-3.436
X5.9055Y-2.2057
X5.9055Y-2.8504
X5.9094Y-2.3051
X5.9129Y-2.9546
X5.9203Y-3.6024
X5.9222Y-3.5689
X5.9252Y-2.4567
X5.9252Y-3.7244
X5.9262Y-2.564
X5.9416Y-2.215
X5.9524Y-2.5185
X5.9636Y-2.623
X5.9852Y-2.9173
X5.9862Y-3.0108
X5.9872Y-2.1112
X5.998Y-2.2087
X6.002Y-2.6053
X6.0108Y-3.7244
X6.0128Y-3.0078
X6.0128Y-3.6939
X6.0266Y-2.6988
X6.0374Y-2.1122
X6.0384Y-2.6053
X6.0394Y-2.2096
X6.0394Y-2.9163
X6.0394Y-3.0118
X6.0453Y-3.5994
X6.0463Y-3.5689
X6.0472Y-2.8701
X6.0581Y-2.7008
X6.063Y-2.2559
X6.0827Y-2.4646
X6.0872Y-2.381
X6.0974Y-3.6585
X6.0994Y-3.8219
X6.1004Y-3.8543
X6.1053Y-2.0079
X6.1102Y-3.1142
X6.1154Y-2.4775
X6.1299Y-2.1073
X6.1348Y-2.9301
X6.1368Y-3.7146
X6.1378Y-1.7953
X6.1388Y-3.0207
X6.1407Y-2.0098
X6.1496Y-2.5758
X6.1506Y-3.9557
X6.1516Y-3.9872
X6.1535Y-2.6673
X6.1634Y-2.1073
X6.1709Y-2.8017
X6.1811Y-4.2244
X6.1939Y-3.0187
X6.1949Y-2.9272
X6.2008Y-3.3071
X6.2028Y-2.6654
X6.2047Y-2.5709
X6.2234Y-3.8553
X6.2254Y-3.8209
X6.2323Y-1.9104
X6.247Y-2.0089
X6.2598Y-3.5079
X6.2677Y-3.0236
X6.2717Y-3.7441
X6.2717Y-4.0679
X6.2766Y-3.9862
X6.2776Y-3.9577
X6.2785Y-1.9124
X6.2884Y-2.0108
X6.2953Y-2.9469
X6.3061Y-2.5768
X6.311Y-2.6683
X6.3157Y-3.2415
X6.3268Y-4.0187
X6.3425Y-2.1063
X6.3484Y-2.9498
X6.3515Y-3.2789
X6.3612Y-4.0157
X6.3622Y-2.5778
X6.3632Y-2.6703
X6.374Y-1.8219
X6.374Y-4.1083
X6.378Y-3.0236
X6.3957Y-1.9252
X6.4094Y-1.8228
X6.4134Y-3.0266
X6.4193Y-4.1053
X6.4213Y-1.5709
X6.429Y-3.2047
X6.4321Y-1.9262
X6.4498Y-2.9587
X6.4518Y-4.0384
X6.4606Y-1.9921
X6.4636Y-2.5758
X6.4665Y-2.6673
X6.4764Y-3.374
X6.4951Y-2.9606
X6.5039Y-4.1378
X6.5059Y-4.0404
X6.5108Y-1.8258
X6.5167Y-2.6703
X6.5167Y-3.0571
X6.5177Y-1.7293
X6.5177Y-2.5778
X6.5531Y-1.7283
X6.5571Y-1.8238
X6.5728Y-3.4011
X6.5746Y-2.3137
X6.5866Y-3.9646
X6.6083Y-3.065
X6.6102Y-2.9724
X6.6122Y-4.2195
X6.6191Y-2.5748
X6.6201Y-2.6683
X6.622Y-4.126
X6.6486Y-1.6703
X6.6575Y-1.7667
X6.6575Y-3.315
X6.6614Y-1.437
X6.6634Y-2.9734
X6.6634Y-3.063
X6.6663Y-4.1732
X6.6693Y-4.1339
X6.6732Y-2.5778
X6.6762Y-2.6654
X6.6772Y-3.7047
X6.6801Y-4.253
X6.689Y-1.8701
X6.6939Y-1.6663
X6.7047Y-1.7667
X6.7126Y-4.1791
X6.7165Y-3.5669
X6.7195Y-3.1033
X6.7323Y-3.1693
X6.763Y-2.0221
X6.7648Y-4.1821
X6.7687Y-4.2707
X6.7726Y-2.5669
X6.7785Y-3.0384
X6.7795Y-4.0748
X6.7835Y-2.6772
X6.8051Y-3.1289
X6.8081Y-1.6289
X6.811Y-1.7244
X6.8189Y-2.9882
X6.8278Y-4.2923
X6.8287Y-2.5699
X6.8337Y-2.6703
X6.8376Y-3.0531
X6.8514Y-1.7234
X6.8563Y-1.628
X6.8583Y-4.2343
X6.8657Y-3.436
X6.8878Y-3.1801
X6.8907Y-3.0846
X6.9114Y-4.2343
X6.9134Y-4.3219
X6.9281Y-2.6368
X6.9321Y-2.5482
X6.9419Y-3.0876
X6.9439Y-3.1801
X6.9488Y-4.6102
X6.9596Y-1.5778
X6.9656Y-1.6742
X6.9656Y-4.3622
X6.9843Y-1.8898
X6.9852Y-2.6368
X6.9872Y-2.5463
X6.9902Y-1.5778
X6.997Y-4.31
X7.0039Y-1.432
X7.0098Y-1.6732
X7.0157Y-2.8543
X7.0183Y-1.5374
X7.0183Y-2.1618
X7.0183Y-2.3349
X7.0236Y-3.2303
X7.0354Y-4.0906
X7.0492Y-4.311
X7.0512Y-4.3996
X7.063Y-3.1378
X7.0637Y-1.6595
X7.0679Y-3.2293
X7.0866Y-2.6063
X7.0915Y-2.5128
X7.0982Y-1.7035
X7.0994Y-1.5167
X7.0994Y-1.6093
X7.1152Y-3.1417
X7.127Y-1.9482
X7.1437Y-2.5167
X7.1457Y-2.6073
X7.1476Y-3.3022
X7.1496Y-1.374
X7.1516Y-4.3465
X7.1516Y-4.4341
X7.1545Y-1.5167
X7.1545Y-1.6093
X7.1655Y-2.0423
X7.1929Y-2.6378
X7.1978Y-3.3022
X7.1988Y-3.2136
X7.2037Y-4.3494
X7.2047Y-0.748
X7.2058Y-1.504
X7.2283Y-0.9764
X7.2333Y-2.5531
X7.2352Y-2.4528
X7.2402Y-1.7677
X7.2431Y-4.4193
X7.2589Y-3.2293
X7.2589Y-3.6477
X7.2598Y-1.499
X7.2598Y-1.5886
X7.2638Y-0.3425
X7.2638Y-0.8189
X7.2672Y-2.7713
X7.2874Y-2.4069
X7.2874Y-2.4537
X7.2884Y-2.5512
X7.2972Y-4.3612
X7.3002Y-4.4537
X7.314Y-1.498
X7.315Y-1.5906
X7.3189Y-0.4055
X7.3189Y-0.4685
X7.3189Y-0.5315
X7.3189Y-0.5945
X7.3189Y-0.6535
X7.3189Y-0.7165
X7.3189Y-0.7795
X7.3189Y-0.8425
X7.3189Y-0.9055
X7.3228Y-2.7992
X7.3278Y-3.2165
X7.3297Y-3.315
X7.3425Y-0.9685
X7.3524Y-3.8397
X7.3524Y-4.3652
X7.3524Y-4.4518
X7.3701Y-0.3386
X7.3701Y-0.374
X7.3701Y-0.437
X7.3701Y-0.5
X7.3701Y-0.563
X7.3701Y-0.626
X7.3701Y-0.685
X7.3701Y-0.748
X7.3701Y-0.811
X7.3701Y-0.874
X7.3701Y-0.937
X7.3789Y-3.2224
X7.3819Y-2.9016
X7.3829Y-3.313
X7.3917Y-2.4547
X7.3917Y-2.5512
X7.3937Y-0.9724
X7.4111Y-1.7326
X7.4111Y-2.381
X7.4173Y-1.248
X7.4213Y-1.4892
X7.4222Y-1.5807
X7.437Y-1.3465
X7.4459Y-2.5492
X7.4469Y-2.4547
X7.4518Y-4.3898
X7.4528Y-3.9921
X7.4528Y-4.4754
X7.4567Y-1.6693
X7.4636Y-3.3504
X7.4667Y-1.7879
X7.4691Y-1.8368
X7.4754Y-1.5827
X7.4764Y-1.0669
X7.4764Y-1.4882
X7.4843Y-1.3893
X7.4961Y-1.0197
X7.497Y-3.2549
X7.5039Y-3.3514
X7.5055Y-1.6913
X7.5069Y-4.4764
X7.5079Y-4.3898
X7.5118Y-0.3346
X7.5118Y-1.4724
X7.5157Y-1.252
X7.5236Y-1.1417
X7.531Y-1.5
X7.5359Y-1.2721
X7.5374Y-3.2559
X7.5384Y-2.5492
X7.5394Y-2.4498
X7.5472Y-1.8307
X7.5551Y-1.0906
X7.5591Y-1.2953
X7.5591Y-1.4803
X7.5614Y-1.6658
X7.5787Y-1.5896
X7.5797Y-1.5
X7.5866Y-1.3154
X7.5906Y-1.1417
X7.5906Y-1.6658
X7.5935Y-2.4469
X7.5945Y-2.5482
X7.5955Y-2.4104
X7.6068Y-1.3439
X7.6093Y-4.4173
X7.6122Y-4.503
X7.6181Y-1.0906
X7.6181Y-3.2854
X7.6299Y-0.3543
X7.6299Y-2.3484
X7.6319Y-1.5906
X7.6339Y-3.3799
X7.6358Y-1.497
X7.6496Y-1.1417
X7.6563Y-1.4409
X7.6614Y-0.3819
X7.6644Y-4.4173
X7.6693Y-4.503
X7.6806Y-1.4567
X7.6811Y-1.0906
X7.685Y-3.3809
X7.6856Y-2.3484
X7.688Y-2.4419
X7.689Y-0.6969
X7.689Y-0.7598
X7.6929Y-0.4646
X7.7043Y-1.4409
X7.7077Y-3.2815
X7.7126Y-1.1417
X7.7165Y-4.5197
X7.7244Y-1.4769
X7.7372Y-1.5768
X7.7441Y-1.0906
X7.752Y-1.7663
X7.7562Y-2.5267
X7.7579Y-4.4754
X7.7717Y-0.6969
X7.7717Y-0.7559
X7.7736Y-2.3376
X7.7736Y-2.4301
X7.7756Y-1.1417
X7.7904Y-3.3612
X7.7913Y-1.4769
X7.7923Y-1.5787
X7.7923Y-3.4488
X7.7953Y-1.4252
X7.8012Y-4.4744
X7.8071Y-1.0906
X7.811Y-4.811
X7.8185Y-1.4135
X7.8228Y-3.4577
X7.8261Y-1.4843
X7.8268Y-1.6491
X7.8287Y-2.3356
X7.8302Y-1.4587
X7.8327Y-2.4321
X7.8331Y-1.3921
X7.8386Y-1.1417
X7.8386Y-3.3602
X7.8415Y-4.5197
X7.8511Y-1.6341
X7.8661Y-1.3031
X7.8701Y-1.0906
X7.878Y-2.2283
X7.8858Y-0.5315
X7.8898Y-1.2756
X7.8937Y-2.0984
X7.8937Y-3.3858
X7.901Y-1.7124
X7.9016Y-1.1417
X7.9035Y-4.6634
X7.9045Y-4.5689
X7.9046Y-1.566
X7.9094Y-2.5157
X7.9163Y-3.4587
X7.9163Y-3.5413
X7.9213Y-4.0157
X7.9291Y-0.724
X7.9301Y-4.6634
X7.9331Y-1.0906
X7.9341Y-2.3484
X7.937Y-2.4488
X7.9409Y-1.4656
X7.9409Y-1.5581
X7.9439Y-4.5679
X7.9577Y-0.7081
X7.9724Y-1.307
X7.9774Y-3.4685
X7.9803Y-0.3228
X7.9843Y-1.1614
X7.9852Y-3.5039
X7.9902Y-2.4469
X7.9921Y-2.0221
X7.9921Y-2.3504
X8.002Y-0.6053
X8.006Y-4.1346
X8.0104Y-3.1637
X8.0121Y-0.916
X8.0167Y-4.6339
X8.0177Y-4.5413
X8.03Y-0.3263
X8.0302Y-0.4472
X8.0307Y-0.4069
X8.0311Y-0.3666
X8.0344Y-3.5148
X8.0354Y-0.4874
X8.0374Y-1.4488
X8.0394Y-0.9724
X8.0394Y-1.1142
X8.0394Y-3.6093
X8.0423Y-1.5443
X8.0531Y-0.427
X8.0535Y-0.4673
X8.0537Y-0.3465
X8.0537Y-0.3867
X8.0602Y-4.2067
X8.0679Y-4.5394
X8.0699Y-4.6348
X8.0709Y-3.0945
X8.0748Y-2.9409
X8.0773Y-0.9167
X8.0787Y-2.3268
X8.0807Y-2.5059
X8.0827Y-0.7205
X8.0827Y-0.7835
X8.0827Y-0.8465
X8.0876Y-1.5433
X8.0886Y-1.4488
X8.0906Y-3.5157
X8.0955Y-3.6053
X8.0983Y-2.5769
X8.0984Y-0.6502
X8.1004Y-2.4035
X8.1024Y-0.3268
X8.1051Y-4.2343
X8.1063Y-1.9803
X8.1102Y-0.5039
X8.1102Y-3.6693
X8.1181Y-0.9134
X8.1195Y-3.5619
X8.126Y-1.4016
X8.1307Y-0.6989
X8.1318Y-4.5422
X8.1319Y-2.5049
X8.1339Y-0.752
X8.1339Y-0.815
X8.1339Y-0.878
X8.1467Y-0.6783
X8.1467Y-2.4055
X8.1527Y-1.9482
X8.1624Y-4.6043
X8.1644Y-1.4744
X8.1919Y-3.5246
X8.1959Y-3.6191
X8.1961Y-3.6481
X8.2165Y-4.6014
X8.2185Y-1.4744
X8.2343Y-2.5177
X8.2369Y-1.7352
X8.2372Y-2.4213
X8.2402Y-0.5827
X8.2421Y-3.5236
X8.2461Y-3.6181
X8.25Y-4.5295
X8.252Y-0.3268
X8.2559Y-1.4134
X8.2638Y-2.8307
X8.2666Y-1.7362
X8.2677Y-1.2598
X8.2717Y-3.6929
X8.2717Y-3.6929
X8.278Y-3.1417
X8.2803Y-4.311
X8.2835Y-1.1102
X8.2836Y-2.7713
X8.2859Y-2.1893
X8.2913Y-2.5167
X8.2923Y-4.5768
X8.3039Y-2.2852
X8.3092Y-1.7772
X8.3169Y-4.4921
X8.3228Y-0.3268
X8.3228Y-1.4134
X8.3292Y-2.4094
X8.3292Y-2.4379
X8.3307Y-1.3858
X8.3312Y-1.5074
X8.3346Y-6.5551
X8.3386Y-3.4764
X8.3406Y-4.5768
X8.3409Y-4.4443
X8.3412Y-1.5341
X8.3425Y-2.5108
X8.343Y-2.721
X8.3474Y-3.5423
X8.3514Y-3.6329
X8.3529Y-2.3339
X8.3543Y-2.3898
X8.3543Y-6.6417
X8.3558Y-2.3598
X8.3567Y-6.5867
X8.3599Y-4.3652
X8.362Y-3.3149
X8.3632Y-4.4872
X8.3661Y-0.5709
X8.37Y-6.6143
X8.378Y-0.3268
X8.3789Y-3.6812
X8.3937Y-1.6732
X8.3996Y-3.5453
X8.4065Y-3.6378
X8.4074Y-4.3898
X8.4212Y-3.3237
X8.4252Y-3.8307
X8.4291Y-3.7835
X8.43Y-6.5867
X8.43Y-6.6143
X8.4331Y-0.3228
X8.4341Y-4.4577
X8.438Y-4.5325
X8.4397Y-3.7516
X8.4409Y-2.5276
X8.4409Y-3.7244
X8.4409Y-6.5512
X8.4422Y-3.2985
X8.4423Y-3.6846
X8.4435Y-2.4252
X8.4567Y-6.6535
X8.4657Y-1.6004
X8.4764Y-0.3268
X8.4892Y-4.4508
X8.4902Y-4.5285
X8.5079Y-1.4921
X8.5079Y-3.6811
X8.5089Y-1.3829
X8.5112Y-1.2132
X8.5112Y-1.2925
X8.5117Y-3.7186
X8.5118Y-3.7559
X8.5118Y-3.7874
X8.5118Y-3.5669
X8.5155Y-2.9656
X8.5172Y-2.4395
X8.5197Y-3.3555
X8.5245Y-0.3295
X8.5425Y-3.0947
X8.5482Y-3.5787
X8.5517Y-0.3282
X8.5522Y-2.4222
X8.5522Y-3.6742
X8.5531Y-2.5246
X8.5561Y-1.3937
X8.5561Y-1.4793
X8.5591Y-3.811
X8.5787Y-0.3268
X8.5787Y-3.0197
X8.5826Y-1.5331
X8.5945Y-1.3228
X8.5945Y-2.4232
X8.5956Y-2.3139
X8.5974Y-2.5217
X8.6006Y-2.2375
X8.6024Y-1.1575
X8.6028Y-1.5123
X8.6049Y-0.3242
X8.616Y-1.9749
X8.6171Y-4.44
X8.6192Y-2.2751
X8.6212Y-2.1979
X8.625Y-4.5285
X8.6329Y-0.3238
X8.6339Y-1.5472
X8.6417Y-3.5758
X8.6427Y-3.6683
X8.6435Y-2.2195
X8.6609Y-0.3233
X8.6617Y-1.3949
X8.6693Y-4.7402
X8.6713Y-4.4409
X8.6732Y-1.4444
X8.6772Y-1.5512
X8.6801Y-4.5266
X8.689Y-0.3228
X8.69Y-3.5748
X8.6929Y-3.8031
X8.6959Y-3.6663
X8.7028Y-2.4272
X8.7116Y-2.5246
X8.7196Y-0.2914
X8.7283Y-1.5512
X8.7362Y-1.4449
X8.7404Y-3.6833
X8.7413Y-0.3115
X8.752Y-2.4272
X8.7559Y-0.2686
X8.7559Y-2.5236
X8.7628Y-3.4902
X8.7667Y-2.1575
X8.7677Y-2.7835
X8.7736Y-4.4341
X8.7736Y-4.5226
X8.7756Y-0.1299
X8.7756Y-1.4409
X8.7795Y-0.1791
X8.7795Y-0.2081
X8.7795Y-0.2485
X8.7795Y-0.2888
X8.7854Y-3.5807
X8.7874Y-2.1299
X8.7984Y-0.4842
X8.8031Y-0.1661
X8.811Y-0.5591
X8.811Y-1.874
X8.8169Y-3.4882
X8.8179Y-1.4124
X8.8189Y-1.499
X8.8244Y-0.4842
X8.8258Y-4.435
X8.8268Y-3.5817
X8.8278Y-4.5246
X8.8492Y-3.4869
X8.8504Y-0.4842
X8.8504Y-4.0118
X8.8573Y-2.435
X8.8632Y-2.5285
X8.8644Y-3.3555
X8.8687Y-0.2466
X8.872Y-1.4124
X8.873Y-1.5
X8.874Y-3.311
X8.8744Y-3.4291
X8.878Y-0.1299
X8.8843Y-1.9547
X8.8937Y-3.6575
X8.9035Y-0.3278
X8.9055Y-0.2963
X8.9075Y-4.4882
X8.9094Y-2.4341
X8.9139Y-3.4678
X8.9144Y-2.5335
X8.9242Y-3.502
X8.9242Y-4.4016
X8.9262Y-3.5974
X8.9331Y-0.2126
X8.9449Y-1.7008
X8.9596Y-1.3445
X8.9606Y-5.7874
X8.9646Y-1.4409
X8.9646Y-2.5236
X8.9656Y-2.564
X8.9695Y-0.3553
X8.9734Y-3.503
X8.9803Y-4.4016
X8.9843Y-3.5955
X8.9882Y-0.1378
X9.0026Y-3.5024
X9.0059Y-1.3455
X9.0118Y-0.4094
X9.0118Y-4.4803
X9.0157Y-0.44
X9.0167Y-1.439
X9.0197Y-1.2244
X9.0246Y-4.4466
X9.03Y-5.72
X9.03Y-5.86
X9.0315Y-4.2402
X9.0325Y-3.4911
X9.0364Y-0.2874
X9.0404Y-2.4833
X9.0453Y-4.4783
X9.0522Y-2.5866
X9.063Y-0.1811
X9.0688Y-4.2341
X9.0758Y-3.5482
X9.0778Y-4.4055
X9.0807Y-2.336
X9.0827Y-0.5463
X9.0837Y-0.5787
X9.0955Y-1.3593
X9.0974Y-1.2687
X9.0984Y-4.252
X9.0994Y-3.4547
X9.1024Y-1.1417
X9.1201Y-3.5492
X9.1299Y-0.2717
X9.1299Y-0.3661
X9.1299Y-4.4094
X9.1309Y-2.6486
X9.1339Y-2.5413
X9.1394Y-1.4471
X9.1467Y-0.4419
X9.1476Y-1.2677
X9.1476Y-1.3593
X9.1496Y-1.0551
X9.1535Y-0.878
X9.1604Y-4.4941
X9.1614Y-7.0157
X9.1732Y-2.063
X9.1742Y-0.6821
X9.1811Y-1.8189
X9.1811Y-2.5404
X9.185Y-2.6437
X9.1894Y-0.4331
X9.1929Y-0.3228
X9.1929Y-2.8346
X9.1974Y-0.4739
X9.2057Y-4.4902
X9.2096Y-0.7559
X9.2124Y-0.4951
X9.2131Y-0.4532
X9.2156Y-0.5463
X9.2156Y-0.5778
X9.2205Y-3.8661
X9.2234Y-3.4833
X9.225Y-5.545
X9.225Y-5.605
X9.225Y-5.665
X9.225Y-5.71
X9.2264Y-1.2037
X9.2283Y-5.4921
X9.2283Y-7.1811
X9.2333Y-4.4094
X9.2386Y-0.5342
X9.2398Y-0.5038
X9.2402Y-0.7953
X9.2402Y-3.3907
X9.248Y-1.2972
X9.2534Y-1.0512
X9.2559Y-0.8937
X9.2598Y-1.2037
X9.2628Y-2.4685
X9.263Y-7.0472
X9.263Y-7.11
X9.2638Y-3.5551
X9.2657Y-2.565
X9.2667Y-0.9449
X9.2677Y-3.4852
X9.27Y-5.575
X9.27Y-5.635
X9.2736Y-1.1486
X9.2756Y-1.1181
X9.2766Y-3.3868
X9.2791Y-0.5507
X9.2795Y-0.5247
X9.2835Y-1.2982
X9.2873Y-0.5757
X9.2904Y-4.4104
X9.2963Y-0.6841
X9.2982Y-0.7156
X9.305Y-5.84
X9.3159Y-4.4892
X9.3199Y-2.1324
X9.3209Y-2.5669
X9.3219Y-2.4715
X9.3261Y-5.9061
X9.33Y-5.8
X9.3307Y-7.0394
X9.332Y-5.7053
X9.3322Y-0.6607
X9.3337Y-3.3386
X9.3346Y-1.0423
X9.3346Y-5.9882
X9.3356Y-0.7854
X9.3356Y-0.9291
X9.3356Y-3.4291
X9.3366Y-0.8858
X9.3386Y-7.1811
X9.354Y-5.7242
X9.3563Y-4.4843
X9.3583Y-5.5079
X9.3612Y-1.0817
X9.3622Y-6.1142
X9.374Y-5.2795
X9.3809Y-4.3967
X9.3845Y-2.2681
X9.3937Y-1.4291
X9.3986Y-1.125
X9.4035Y-1.2283
X9.405Y-5.34
X9.4055Y-1.2628
X9.4085Y-3.4311
X9.4124Y-2.4823
X9.4124Y-2.5827
X9.4173Y-0.8622
X9.4213Y-3.4961
X9.425Y-1.0185
X9.4253Y-0.9892
X9.4341Y-3.3327
X9.4341Y-4.3957
X9.435Y-5.295
X9.4449Y-5.9803
X9.4528Y-0.6614
X9.4567Y-1.185
X9.4606Y-1.6299
X9.4636Y-2.4862
X9.465Y-5.34
X9.4665Y-2.5846
X9.4685Y-4.4764
X9.4774Y-1.3829
X9.4793Y-1.3524
X9.495Y-5.295
X9.4961Y-4.6417
X9.5089Y-4.4724
X9.5098Y-4.3937
X9.5138Y-3.44
X9.5148Y-3.3406
X9.525Y-5.34
X9.5285Y-1.2569
X9.5285Y-1.5384
X9.5305Y-1.5049
X9.5394Y-0.8819
X9.55Y-5.65
X9.55Y-5.7
X9.55Y-5.75
X9.555Y-5.295
X9.5551Y-3.4921
X9.5591Y-1.2559
X9.5709Y-1.6526
X9.5709Y-2.498
X9.5709Y-3.3396
X9.5718Y-3.8424
X9.5719Y-1.685
X9.5728Y-2.5945
X9.5738Y-3.4341
X9.585Y-5.34
X9.6Y-5.65
X9.6Y-5.7
X9.6Y-5.75
X9.6014Y-1.3858
X9.6122Y-4.3917
X9.615Y-5.295
X9.6186Y-1.3346
X9.623Y-2.5955
X9.624Y-4.4606
X9.6417Y-2.4882
X9.6437Y-1.8278
X9.6447Y-1.7963
X9.645Y-5.34
X9.6496Y-1.3071
X9.6498Y-4.4639
X9.65Y-5.65
X9.65Y-5.7
X9.65Y-5.75
X9.6511Y-6.0189
X9.6535Y-1.5059
X9.6535Y-1.5374
X9.6614Y-3.314
X9.6614Y-3.4055
X9.6615Y-2.2883
X9.6732Y-6.0512
X9.675Y-5.295
X9.6831Y-4.3996
X9.6894Y-6.0189
X9.6978Y-1.6831
X9.7018Y-1.6526
X9.705Y-5.34
X9.7146Y-3.312
X9.7205Y-3.4065
X9.721Y-3.888
X9.7244Y-2.4911
X9.7244Y-2.5906
X9.7244Y-3.6457
X9.7283Y-1.1929
X9.7323Y-1.9114
X9.7343Y-1.9459
X9.735Y-5.295
X9.7352Y-4.3976
X9.743Y-1.6511
X9.765Y-5.34
X9.7657Y-4.4764
X9.7697Y-1.8278
X9.7726Y-1.7972
X9.7796Y-2.5915
X9.7805Y-2.4921
X9.7874Y-3.5039
X9.7893Y-1.7505
X9.795Y-5.295
X9.7972Y-4.4872
X9.811Y-6.0433
X9.8179Y-3.315
X9.8199Y-3.4055
X9.825Y-5.34
X9.8396Y-4.4281
X9.85Y-6.0885
X9.85Y-6.1322
X9.85Y-6.1758
X9.85Y-6.2195
X9.8531Y-1.6872
X9.8533Y-1.9183
X9.8563Y-1.8799
X9.8622Y-5.2913
X9.8664Y-4.1346
X9.87Y-6.154
X9.87Y-6.1977
X9.87Y-6.2414
X9.8702Y-6.0666
X9.8705Y-6.1103
X9.8711Y-3.4075
X9.875Y-3.315
X9.8809Y-2.4577
X9.8819Y-2.5571
X9.8839Y-4.4301
X9.8986Y-1.9429
X9.8996Y-2.0472
X9.9163Y-4.4833
X9.9173Y-1.7441
X9.9213Y-1.811
X9.9321Y-4.565
X9.9331Y-2.4577
X9.9331Y-2.5561
X9.9488Y-1.5236
X9.9528Y-2.8819
X9.9537Y-1.9419
X9.9567Y-2.0472
X9.96Y-5.505
X9.96Y-5.565
X9.96Y-5.625
X9.96Y-5.685
X9.96Y-5.745
X9.96Y-5.805
X9.96Y-5.865
X9.96Y-5.925
X9.96Y-5.985
X9.9646Y-3.2566
X9.9646Y-4.3449
X9.9685Y-4.6732
X9.9705Y-3.4242
X9.9727Y-4.1602
X9.9734Y-3.3317
X9.9764Y-4.5039
X9.9803Y-6.0591
X9.9862Y-2.0768
X9.9887Y-4.7002
X9.9892Y-2.1102
X9.9911Y-1.8957
X10.0Y-5.4724
X10.0049Y-1.8012
X10.005Y-5.535
X10.005Y-5.595
X10.005Y-5.655
X10.005Y-5.715
X10.005Y-5.775
X10.005Y-5.835
X10.005Y-5.895
X10.005Y-5.955
X10.005Y-6.015
X10.0059Y-1.9813
X10.0197Y-3.4921
X10.0236Y-4.5079
X10.0276Y-4.6461
X10.0285Y-3.3297
X10.0285Y-3.4183
X10.0374Y-2.4587
X10.0394Y-2.5581
X10.0413Y-1.7392
X10.0459Y-2.1777
X10.0478Y-1.8861
X10.0512Y-4.5512
X10.0866Y-2.4616
X10.0876Y-2.2195
X10.0886Y-2.186
X10.0906Y-1.6713
X10.0915Y-2.5571
X10.0974Y-1.8366
X10.1014Y-4.6132
X10.1063Y-5.0079
X10.1073Y-4.7146
X10.1102Y-2.0768
X10.1102Y-3.7638
X10.1122Y-2.1093
X10.1201Y-1.9478
X10.122Y-1.9114
X10.122Y-4.0354
X10.124Y-3.4685
X10.1289Y-1.623
X10.1289Y-1.7766
X10.1289Y-3.373
X10.1545Y-3.7943
X10.1575Y-1.9331
X10.1604Y-3.7638
X10.1614Y-4.622
X10.1654Y-4.687
X10.1663Y-2.6378
X10.1703Y-3.9085
X10.1703Y-3.9419
X10.1713Y-2.5384
X10.1742Y-3.4675
X10.1742Y-4.7283
X10.1762Y-3.374
X10.1772Y-1.7165
X10.1841Y-2.3209
X10.188Y-2.3543
X10.189Y-4.2087
X10.2057Y-2.7224
X10.2087Y-2.189
X10.2096Y-2.6919
X10.2106Y-2.2205
X10.2116Y-3.6201
X10.2126Y-2.5374
X10.2136Y-1.6713
X10.2156Y-3.6535
X10.2205Y-3.1299
X10.2205Y-3.5472
X10.2205Y-4.0325
X10.2215Y-3.2283
X10.2224Y-2.6388
X10.2274Y-3.0738
X10.2283Y-2.813
X10.2283Y-4.1289
X10.2293Y-2.9134
X10.2303Y-2.9774
X10.2313Y-3.311
X10.2323Y-3.4528
X10.2333Y-3.4833
X10.2441Y-4.7618
X10.2451Y-1.5207
X10.2465Y-4.3285
X10.247Y-4.6319
X10.248Y-4.8071
X10.249Y-4.5463
X10.253Y-2.0915
X10.2539Y-2.19
X10.2598Y-3.375
X10.2618Y-1.6201
X10.2667Y-4.6604
X10.2726Y-4.2008
X10.2726Y-4.2343
X10.2805Y-1.5217
X10.2815Y-3.7657
X10.2825Y-4.0374
X10.2825Y-4.5423
X10.2844Y-3.7963
X10.2933Y-1.6201
X10.2953Y-4.7047
X10.2963Y-3.9419
X10.2972Y-3.126
X10.2972Y-3.9075
X10.3012Y-2.814
X10.3022Y-2.9144
X10.3022Y-2.9715
X10.3051Y-2.3209
X10.3061Y-3.2234
X10.3071Y-2.0915
X10.3081Y-2.3543
X10.3081Y-3.0738
X10.31Y-2.1909
X10.311Y-4.6053
X10.3159Y-2.5561
X10.3169Y-2.6526
X10.3189Y-3.8622
X10.3189Y-4.0974
X10.3209Y-2.501
X10.3219Y-3.4193
X10.3221Y-4.3558
X10.3297Y-2.6919
X10.3297Y-2.7254
X10.3297Y-4.8327
X10.3317Y-3.5167
X10.3346Y-1.2638
X10.3346Y-3.6211
X10.3346Y-3.6516
X10.3366Y-4.7372
X10.3386Y-4.6969
X10.3425Y-1.7205
X10.3445Y-2.3986
X10.3474Y-2.499
X10.3504Y-4.3425
X10.3514Y-3.3465
X10.3543Y-4.311
X10.3553Y-3.312
X10.3622Y-4.9606
X10.3652Y-2.5561
X10.3652Y-4.4951
X10.3681Y-1.4331
X10.3701Y-4.0709
X10.372Y-2.6545
X10.378Y-2.1722
X10.378Y-2.3996
X10.3809Y-3.5138
X10.3809Y-4.8346
X10.3917Y-4.7392
X10.4006Y-1.5276
X10.4016Y-1.4331
X10.4035Y-4.2323
X10.4045Y-4.2028
X10.4094Y-4.5945
X10.4114Y-3.4429
X10.4124Y-2.5778
X10.4134Y-3.3819
X10.4144Y-4.9134
X10.4173Y-4.8819
X10.4193Y-4.497
X10.4291Y-2.3228
X10.4341Y-1.5276
X10.438Y-4.44
X10.44Y-2.1053
X10.44Y-4.4783
X10.4439Y-2.6457
X10.4449Y-2.1978
X10.4488Y-2.4134
X10.4498Y-4.2992
X10.4528Y-4.8189
X10.4616Y-4.9459
X10.4646Y-2.704
X10.4646Y-3.4439
X10.4646Y-4.563
X10.4695Y-3.5433
X10.4783Y-1.314
X10.4783Y-2.6801
X10.4823Y-2.5522
X10.4841Y-4.709
X10.4882Y-2.2362
X10.4882Y-3.622
X10.4911Y-4.3366
X10.5Y-2.0906
X10.5Y-4.8465
X10.501Y-2.1407
X10.503Y-1.4055
X10.5079Y-5.0413
X10.5089Y-5.0079
X10.517Y-4.4395
X10.5207Y-1.315
X10.5315Y-4.6171
X10.5335Y-4.6467
X10.5347Y-4.738
X10.5354Y-2.6132
X10.5354Y-2.7461
X10.5394Y-1.5197
X10.5433Y-1.4035
X10.5531Y-2.3031
X10.5541Y-2.6585
X10.5561Y-2.5138
X10.5561Y-3.4518
X10.5561Y-3.5453
X10.5591Y-2.2165
X10.5679Y-4.4744
X10.5738Y-2.7933
X10.5748Y-4.437
X10.5768Y-2.8307
X10.5787Y-5.3661
X10.5906Y-3.374
X10.5906Y-4.9528
X10.5955Y-1.247
X10.5984Y-2.3533
X10.5984Y-2.4478
X10.5984Y-5.5394
X10.6004Y-2.7077
X10.6024Y-5.1181
X10.6033Y-5.1545
X10.6116Y-3.4528
X10.6152Y-3.5453
X10.6181Y-2.2805
X10.6191Y-4.7293
X10.6211Y-4.5561
X10.622Y-5.248
X10.623Y-4.7608
X10.626Y-5.626
X10.6299Y-5.8346
X10.6339Y-1.3386
X10.6348Y-5.0413
X10.6378Y-4.8228
X10.6398Y-1.249
X10.6407Y-4.4596
X10.6407Y-5.0089
X10.6452Y-5.8858
X10.6457Y-2.4213
X10.6496Y-0.3937
X10.6496Y-5.9921
X10.6526Y-4.5827
X10.6545Y-4.6132
X10.6569Y-4.8907
X10.6575Y-2.2323
X10.6575Y-5.622
X10.6614Y-2.7165
X10.6614Y-2.9843
X10.6634Y-2.3278
X10.6654Y-2.7736
X10.6703Y-1.3386
X10.6772Y-2.5945
X10.6793Y-5.5984
X10.6801Y-2.4823
X10.6821Y-2.5138
X10.6929Y-4.4626
X10.6929Y-5.187
X10.6978Y-2.8317
X10.7028Y-2.4665
X10.7047Y-0.6732
X10.7057Y-4.5581
X10.7106Y-4.8366
X10.7126Y-3.4557
X10.7136Y-3.5453
X10.7136Y-5.3386
X10.7165Y-5.3701
X10.7165Y-5.6535
X10.7188Y-5.1891
X10.7195Y-5.499
X10.7205Y-5.1202
X10.7215Y-5.5344
X10.7244Y-2.3937
X10.7244Y-6.0748
X10.7303Y-5.81
X10.7352Y-2.8445
X10.7362Y-4.9606
X10.7373Y-0.4701
X10.7411Y-2.9409
X10.7421Y-4.9262
X10.7461Y-2.5384
X10.7461Y-4.7303
X10.747Y-4.7618
X10.748Y-0.626
X10.748Y-5.6181
X10.751Y-5.2549
X10.7608Y-1.2047
X10.7627Y-0.4844
X10.7657Y-4.4705
X10.7667Y-3.4537
X10.7677Y-5.8858
X10.7677Y-5.9764
X10.7707Y-3.5433
X10.7717Y-1.4252
X10.7726Y-1.2943
X10.7756Y-3.0157
X10.7767Y-0.6249
X10.7795Y-2.748
X10.7835Y-0.501
X10.7835Y-0.9803
X10.7835Y-2.4469
X10.7854Y-2.5384
X10.7884Y-2.939
X10.7884Y-5.9341
X10.7894Y-2.8425
X10.8031Y-3.6063
X10.8041Y-5.1506
X10.8056Y-0.6236
X10.8061Y-6.0295
X10.8081Y-1.2057
X10.8081Y-5.252
X10.8091Y-4.9695
X10.811Y-2.374
X10.811Y-5.622
X10.8131Y-4.9272
X10.815Y-0.5
X10.815Y-6.0551
X10.8179Y-1.2963
X10.8179Y-6.0827
X10.8189Y-4.9951
X10.8268Y-4.4587
X10.8268Y-4.7283
X10.8293Y-2.6585
X10.8307Y-6.186
X10.8317Y-4.5502
X10.8317Y-4.8553
X10.8327Y-4.8907
X10.8386Y-0.6181
X10.8392Y-5.033
X10.8406Y-5.5325
X10.8415Y-5.3494
X10.8425Y-0.5
X10.8425Y-5.3789
X10.8465Y-5.501
X10.8465Y-6.2756
X10.8466Y-5.6537
X10.8533Y-3.4705
X10.8593Y-5.814
X10.8661Y-4.3543
X10.8681Y-2.8907
X10.8691Y-3.565
X10.8701Y-0.5
X10.8701Y-6.0315
X10.874Y-0.6142
X10.8766Y-5.6496
X10.878Y-5.8386
X10.8789Y-6.0837
X10.8819Y-6.186
X10.8839Y-5.5945
X10.8848Y-4.5364
X10.8848Y-5.5659
X10.8848Y-6.3022
X10.8858Y-0.437
X10.8878Y-2.4833
X10.8888Y-6.001
X10.8898Y-2.5778
X10.8957Y-5.1211
X10.8967Y-1.1703
X10.8967Y-5.3996
X10.8976Y-4.9134
X10.9016Y-5.4341
X10.9016Y-5.9488
X10.9055Y-0.6133
X10.9065Y-3.5659
X10.9094Y-5.2756
X10.9163Y-1.2598
X10.9163Y-5.0531
X10.9173Y-4.2559
X10.9193Y-5.3705
X10.9203Y-2.8907
X10.9213Y-2.9764
X10.9232Y-3.4685
X10.9232Y-5.2126
X10.9331Y-2.5778
X10.9331Y-4.5945
X10.9331Y-6.3041
X10.935Y-2.4862
X10.937Y-3.6555
X10.937Y-3.752
X10.938Y-1.1713
X10.939Y-3.627
X10.94Y-6.2077
X10.9409Y-4.9459
X10.9429Y-4.9793
X10.9528Y-3.0748
X10.9566Y-6.0176
X10.9587Y-1.2589
X10.9625Y-5.3628
X10.9665Y-4.44
X10.9665Y-4.5335
X10.9685Y-0.6417
X10.9764Y-3.437
X10.9813Y-2.9272
X10.9843Y-6.0669
X10.9862Y-5.0531
X10.9882Y-5.5211
X10.9921Y-2.5118
X10.9921Y-5.6811
X10.9961Y-4.126
X10.9961Y-5.2136
X10.997Y-5.7234
X11.002Y-2.9951
X11.0091Y-4.9351
X11.0167Y-5.3976
X11.0187Y-1.0679
X11.0197Y-5.436
X11.0207Y-3.5886
X11.0217Y-4.5305
X11.0226Y-4.4429
X11.0226Y-6.2717
X11.0236Y-5.5512
X11.0236Y-6.374
X11.0295Y-5.1201
X11.0325Y-5.2717
X11.0394Y-2.6033
X11.0465Y-6.0405
X11.0492Y-1.0699
X11.0501Y-5.3625
X11.0541Y-1.1565
X11.0551Y-2.4606
X11.0551Y-3.6388
X11.0551Y-3.7195
X11.0561Y-6.2717
X11.0591Y-6.4685
X11.0596Y-3.8358
X11.061Y-2.9567
X11.061Y-3.753
X11.063Y-3.0433
X11.0659Y-6.372
X11.0709Y-3.9016
X11.0709Y-5.6348
X11.0814Y-0.8074
X11.0856Y-2.5138
X11.0866Y-2.7913
X11.0866Y-4.9764
X11.0896Y-2.6014
X11.0915Y-3.0965
X11.0974Y-1.1575
X11.1004Y-0.9606
X11.1083Y-6.4026
X11.1102Y-5.3937
X11.1112Y-6.4341
X11.1171Y-5.685
X11.125Y-3.0098
X11.1266Y-5.7149
X11.1289Y-4.435
X11.1311Y-6.018
X11.1329Y-4.5266
X11.1358Y-5.8642
X11.1369Y-3.9453
X11.1407Y-3.8563
X11.1417Y-3.8888
X11.1437Y-3.1644
X11.1457Y-2.6142
X11.1467Y-3.6801
X11.1476Y-0.9567
X11.1516Y-1.0463
X11.1537Y-0.8759
X11.1568Y-5.2375
X11.1614Y-1.1378
X11.1634Y-3.0748
X11.1644Y-5.7598
X11.1693Y-5.6535
X11.1722Y-4.4341
X11.1722Y-5.8632
X11.1722Y-6.4665
X11.1811Y-2.6732
X11.1821Y-4.5256
X11.1832Y-0.7074
X11.185Y-3.311
X11.185Y-3.748
X11.186Y-6.372
X11.1998Y-3.2126
X11.2018Y-1.0443
X11.2047Y-6.126
X11.2067Y-5.7628
X11.2087Y-4.3425
X11.2143Y-6.2077
X11.2165Y-1.1496
X11.2175Y-3.1467
X11.2182Y-5.8277
X11.2185Y-2.5807
X11.2254Y-2.7441
X11.2255Y-0.9276
X11.2274Y-3.8248
X11.2569Y-2.8071
X11.2576Y-5.0116
X11.2598Y-0.8465
X11.2598Y-3.2717
X11.2618Y-0.9016
X11.2638Y-3.1821
X11.2638Y-3.9695
X11.2667Y-3.8799
X11.2697Y-1.001
X11.2707Y-2.6427
X11.2717Y-5.8278
X11.2717Y-5.9213
X11.2844Y-6.4183
X11.2913Y-4.4203
X11.2953Y-4.5079
X11.2992Y-5.9843
X11.2992Y-6.5118
X11.3031Y-0.8986
X11.31Y-3.9035
X11.311Y-3.312
X11.312Y-2.7096
X11.3179Y-5.9173
X11.3189Y-5.8287
X11.3219Y-0.999
X11.3268Y-2.8858
X11.3268Y-3.2431
X11.3307Y-3.8386
X11.3317Y-6.4203
X11.3376Y-6.5148
X11.3415Y-4.4222
X11.3415Y-4.5089
X11.3455Y-2.7746
X11.3465Y-3.4646
X11.3465Y-4.8858
X11.3483Y-5.8744
X11.3514Y-4.0531
X11.3533Y-4.0846
X11.3553Y-3.9035
X11.3583Y-3.3868
X11.3583Y-4.1417
X11.3661Y-3.2205
X11.3661Y-5.6575
X11.3701Y-5.2913
X11.3716Y-2.6453
X11.374Y-5.1575
X11.374Y-6.6299
X11.375Y-3.2933
X11.3752Y-6.5118
X11.376Y-2.8858
X11.378Y-6.3504
X11.3858Y-3.9675
X11.3889Y-6.1212
X11.3898Y-0.7835
X11.3898Y-0.7835
X11.3898Y-4.7874
X11.3898Y-5.9439
X11.3917Y-0.8278
X11.3937Y-5.8524
X11.3976Y-6.5349
X11.3986Y-2.7943
X11.4022Y-3.3818
X11.4023Y-5.7756
X11.4085Y-0.9242
X11.4094Y-3.4341
X11.4104Y-3.4675
X11.4178Y-6.1939
X11.4199Y-5.3331
X11.4199Y-5.377
X11.4252Y-2.6811
X11.4262Y-2.8898
X11.4291Y-0.8297
X11.4341Y-3.3612
X11.4401Y-5.5428
X11.4409Y-5.5704
X11.4409Y-5.8524
X11.4409Y-5.9429
X11.4409Y-6.3219
X11.4439Y-6.3553
X11.4439Y-6.686
X11.4469Y-6.7156
X11.4498Y-0.9272
X11.4518Y-6.065
X11.4518Y-6.2264
X11.4518Y-6.4124
X11.4528Y-6.1959
X11.4537Y-6.0994
X11.4557Y-6.503
X11.4577Y-4.4173
X11.4593Y-6.5687
X11.4616Y-4.5098
X11.4616Y-5.6289
X11.4626Y-5.6781
X11.4646Y-2.8031
X11.4724Y-4.7165
X11.4764Y-4.3622
X11.4765Y-6.2544
X11.4802Y-0.9105
X11.4813Y-4.0797
X11.4833Y-4.0512
X11.4843Y-3.4065
X11.4843Y-5.377
X11.4843Y-6.4124
X11.4892Y-6.5039
X11.4931Y-5.4183
X11.4931Y-5.748
X11.4931Y-5.8504
X11.4951Y-4.8356
X11.4951Y-4.8681
X11.4961Y-4.9616
X11.4961Y-4.9911
X11.497Y-4.7382
X11.5Y-2.9724
X11.5Y-3.561
X11.5023Y-4.2275
X11.503Y-3.5925
X11.5039Y-6.5531
X11.5049Y-6.5827
X11.5069Y-4.5089
X11.5079Y-4.4193
X11.5118Y-4.6152
X11.5128Y-4.5817
X11.5128Y-5.2913
X11.5187Y-5.0591
X11.5197Y-5.1969
X11.5207Y-0.7087
X11.5207Y-5.1575
X11.5246Y-4.0876
X11.5265Y-2.8085
X11.5285Y-2.9094
X11.5344Y-3.4744
X11.5361Y-4.2992
X11.5413Y-4.189
X11.5453Y-3.7146
X11.5453Y-3.7451
X11.5531Y-0.8081
X11.5551Y-5.6073
X11.562Y-0.7106
X11.563Y-6.3553
X11.564Y-4.0846
X11.565Y-5.8504
X11.565Y-6.3228
X11.5709Y-2.8085
X11.5719Y-6.1969
X11.5728Y-6.687
X11.5738Y-6.7195
X11.5748Y-6.2303
X11.5783Y-5.5695
X11.5787Y-6.0955
X11.5797Y-6.063
X11.5807Y-5.751
X11.5827Y-2.9114
X11.5827Y-5.5079
X11.5837Y-5.9291
X11.5837Y-6.0177
X11.5846Y-4.188
X11.5866Y-3.3701
X11.5866Y-3.9331
X11.5896Y-5.687
X11.5994Y-6.4065
X11.6018Y-5.8811
X11.6024Y-5.0591
X11.6033Y-5.2923
X11.6033Y-5.4203
X11.6043Y-5.1555
X11.6043Y-5.1988
X11.6053Y-3.8465
X11.6073Y-0.7943
X11.6102Y-5.3809
X11.6112Y-4.8346
X11.6142Y-6.5
X11.6152Y-4.8671
X11.6201Y-4.7392
X11.6211Y-4.7087
X11.6211Y-4.9616
X11.622Y-4.9921
X11.6241Y-3.5886
X11.625Y-6.5531
X11.626Y-0.6457
X11.628Y-6.5837
X11.6289Y-4.1998
X11.6339Y-4.2362
X11.6339Y-4.6152
X11.6348Y-4.5344
X11.6378Y-6.2559
X11.6378Y-6.748
X11.6398Y-4.5807
X11.6417Y-3.9065
X11.6457Y-3.5591
X11.6457Y-6.4075
X11.6467Y-5.9419
X11.6486Y-0.6762
X11.6496Y-5.9892
X11.6604Y-2.9537
X11.6634Y-6.4961
X11.6663Y-4.44
X11.6663Y-4.5325
X11.6722Y-3.7126
X11.6722Y-3.7451
X11.6772Y-3.6299
X11.6811Y-5.7283
X11.6821Y-3.9104
X11.685Y-6.1368
X11.688Y-4.1604
X11.689Y-5.2047
X11.6919Y-6.0404
X11.6929Y-2.8602
X11.6929Y-4.6693
X11.6949Y-3.814
X11.6998Y-2.9518
X11.7018Y-0.75
X11.7037Y-4.248
X11.7047Y-5.9606
X11.7087Y-6.3425
X11.7093Y-2.3818
X11.7096Y-2.3525
X11.7165Y-4.878
X11.7165Y-5.0236
X11.7165Y-5.3898
X11.7372Y-6.4941
X11.7402Y-6.1929
X11.7421Y-6.0453
X11.7441Y-4.4528
X11.7441Y-6.2402
X11.7441Y-6.4104
X11.751Y-0.748
X11.752Y-6.6457
X11.7529Y-2.8583
X11.7549Y-6.0906
X11.7579Y-4.3159
X11.7639Y-5.8085
X11.7726Y-0.7008
X11.7795Y-4.0271
X11.7835Y-6.125
X11.7835Y-6.4941
X11.7904Y-4.5207
X11.7923Y-4.3563
X11.7943Y-6.4075
X11.7972Y-4.6161
X11.8031Y-4.1063
X11.8033Y-6.3572
X11.8061Y-3.9242
X11.8071Y-3.5551
X11.811Y-4.0709
X11.815Y-2.8071
X11.815Y-3.3976
X11.815Y-3.7677
X11.8159Y-3.0413
X11.8169Y-6.2185
X11.8346Y-4.5177
X11.8356Y-6.125
X11.8366Y-2.9469
X11.8396Y-4.6152
X11.8406Y-4.3514
X11.8425Y-4.253
X11.8504Y-3.0394
X11.8514Y-3.9911
X11.8533Y-3.9577
X11.8553Y-0.6339
X11.8553Y-0.7352
X11.8622Y-4.6535
X11.876Y-2.9469
X11.8888Y-6.5059
X11.8898Y-0.4094
X11.9045Y-0.6339
X11.9045Y-6.4085
X11.9055Y-6.0945
X11.9075Y-4.3642
X11.9094Y-3.096
X11.9114Y-0.7352
X11.9193Y-4.1841
X11.9203Y-0.4978
X11.9252Y-4.4488
X11.9272Y-6.2224
X11.9289Y-0.4342
X11.9289Y-3.4901
X11.9341Y-4.1378
X11.9429Y-4.2953
X11.9518Y-4.5512
X11.9547Y-4.252
X11.9577Y-6.5059
X11.9636Y-6.1299
X11.9724Y-0.4646
X11.9744Y-3.0354
X11.9744Y-6.2224
X11.9764Y-4.0354
X11.9843Y-3.811
X11.9872Y-0.7913
X11.9882Y-4.5482
X11.9892Y-0.6949
X11.9901Y-3.1505
X11.9904Y-3.6477
X11.9921Y-0.9685
X11.9997Y-3.4902
X12.003Y-4.1447
X12.003Y-6.1299
X12.0108Y-3.1299
X12.0148Y-3.0335
X12.0197Y-4.4665
X12.0197Y-6.4252
X12.0256Y-4.5778
X12.0295Y-4.3799
X12.0315Y-4.3504
X12.0343Y-1.0
X12.0374Y-4.2352
X12.0382Y-0.8296
X12.0394Y-0.6919
X12.0394Y-4.6929
X12.0413Y-0.7943
X12.061Y-4.627
X12.0705Y-4.2875
X12.0709Y-0.6654
X12.0886Y-6.251
X12.0896Y-6.4213
X12.0906Y-6.5108
X12.0915Y-3.1447
X12.0928Y-3.19
X12.0945Y-3.0433
X12.1061Y-3.5654
X12.1102Y-6.6339
X12.1132Y-6.1565
X12.1181Y-3.3858
X12.1191Y-4.626
X12.122Y-2.2598
X12.122Y-2.8858
X12.125Y-6.5098
X12.126Y-1.7047
X12.1299Y-4.2598
X12.1299Y-6.252
X12.1319Y-4.3602
X12.1329Y-3.1467
X12.1339Y-3.2835
X12.1407Y-6.4213
X12.1447Y-0.7057
X12.1447Y-0.8041
X12.1565Y-4.5522
X12.1594Y-3.2037
X12.1654Y-3.2333
X12.1732Y-6.1181
X12.1791Y-6.185
X12.1804Y-3.4542
X12.1811Y-4.2638
X12.1821Y-4.3583
X12.1919Y-0.7067
X12.1939Y-4.8162
X12.1959Y-0.8022
X12.2008Y-3.5433
X12.2008Y-3.6842
X12.2106Y-4.562
X12.2146Y-4.6614
X12.2222Y-3.7029
X12.2224Y-3.5289
X12.2224Y-6.5128
X12.2244Y-6.4173
X12.2264Y-6.2185
X12.2283Y-3.0906
X12.2427Y-3.5451
X12.2441Y-3.689
X12.2461Y-6.314
X12.25Y-4.561
X12.2549Y-4.6614
X12.2567Y-4.027
X12.2569Y-4.1075
X12.2574Y-4.0583
X12.2583Y-4.1774
X12.2598Y-4.2047
X12.2612Y-4.4976
X12.2677Y-3.1535
X12.2717Y-0.6772
X12.2726Y-3.3484
X12.2756Y-6.2224
X12.2785Y-6.4183
X12.2785Y-6.5138
X12.2795Y-4.1417
X12.2815Y-6.314
X12.2923Y-3.2323
X12.2933Y-4.315
X12.2953Y-0.7215
X12.2972Y-0.8159
X12.3002Y-4.2185
X12.3043Y-6.5531
X12.3268Y-4.8268
X12.3286Y-4.4217
X12.3287Y-4.3044
X12.3293Y-5.3128
X12.3307Y-4.5906
X12.3346Y-3.1929
X12.3346Y-3.3642
X12.3356Y-3.2746
X12.3396Y-0.8179
X12.3425Y-0.7234
X12.3445Y-3.4163
X12.3504Y-3.5148
X12.3514Y-4.7392
X12.3583Y-6.6535
X12.3652Y-4.6447
X12.3681Y-4.2943
X12.3701Y-0.9291
X12.376Y-6.4154
X12.378Y-6.5138
X12.3789Y-6.3612
X12.3819Y-4.7382
X12.3858Y-3.2785
X12.3858Y-4.3701
X12.3888Y-6.2707
X12.4035Y-4.1526
X12.4035Y-4.6437
X12.4048Y-6.6297
X12.4124Y-3.4163
X12.4134Y-4.9803
X12.4183Y-4.8022
X12.4199Y-4.7548
X12.4203Y-4.8327
X12.4281Y-6.2697
X12.4291Y-3.5797
X12.4291Y-6.3612
X12.4311Y-6.5128
X12.435Y-3.4705
X12.435Y-6.4173
X12.4409Y-4.2431
X12.4419Y-4.1575
X12.4439Y-0.7628
X12.4449Y-0.8593
X12.4449Y-5.2559
X12.4606Y-4.5394
X12.4685Y-3.4291
X12.4724Y-0.2992
X12.4754Y-3.4862
X12.4783Y-6.502
X12.4833Y-0.1949
X12.4843Y-0.1102
X12.4882Y-0.2274
X12.4931Y-0.7667
X12.4931Y-0.8563
X12.498Y-4.2333
X12.5Y-1.3858
X12.5Y-4.2795
X12.5087Y-4.9629
X12.5157Y-0.5315
X12.5167Y-6.5659
X12.5197Y-6.4045
X12.5254Y-4.1994
X12.5285Y-3.4872
X12.5325Y-3.5581
X12.5374Y-0.3356
X12.5394Y-0.3691
X12.5423Y-6.3169
X12.5433Y-4.8002
X12.5433Y-4.8317
X12.5445Y-4.8886
X12.5482Y-0.7028
X12.5483Y-3.6152
X12.564Y-6.4665
X12.5669Y-3.378
X12.5719Y-3.5561
X12.5728Y-6.4094
X12.5738Y-4.9833
X12.5748Y-4.2303
X12.5748Y-6.2126
X12.5827Y-4.8878
X12.5886Y-6.6181
X12.5896Y-0.6988
X12.5906Y-5.0906
X12.5906Y-6.6506
X12.5935Y-5.0561
X12.5955Y-0.7904
X12.5955Y-4.1407
X12.5955Y-6.3228
X12.5984Y-3.4823
X12.5984Y-3.6969
X12.6063Y-6.5295
X12.6102Y-1.0261
X12.6105Y-4.8243
X12.611Y-1.3238
X12.6142Y-0.1978
X12.6142Y-0.2293
X12.6161Y-0.6516
X12.6161Y-4.8858
X12.6211Y-0.5
X12.6211Y-4.2303
X12.622Y-0.4656
X12.6299Y-0.1181
X12.637Y-1.0261
X12.637Y-1.3238
X12.6378Y-4.9488
X12.6407Y-0.7894
X12.6417Y-5.1201
X12.6496Y-4.1437
X12.6496Y-6.3031
X12.6516Y-3.4843
X12.6535Y-0.5719
X12.6604Y-6.7559
X12.663Y-1.0261
X12.663Y-1.3238
X12.6634Y-6.437
X12.6683Y-5.0217
X12.6732Y-0.3652
X12.6762Y-0.3366
X12.6772Y-4.5945
X12.6811Y-3.5571
X12.685Y-6.3406
X12.689Y-1.0261
X12.689Y-1.3238
X12.6929Y-6.435
X12.6978Y-6.8228
X12.7087Y-0.7756
X12.7096Y-1.5877
X12.7113Y-5.0683
X12.7126Y-4.0866
X12.7136Y-5.2274
X12.7165Y-3.6063
X12.7175Y-6.6526
X12.7185Y-0.435
X12.7195Y-6.3386
X12.7205Y-6.622
X12.7234Y-4.1368
X12.7235Y-5.392
X12.7244Y-3.5541
X12.7244Y-3.6929
X12.7264Y-4.2244
X12.7323Y-7.0118
X12.7456Y-5.0262
X12.747Y-0.6545
X12.747Y-6.4783
X12.749Y-5.2303
X12.75Y-0.4951
X12.752Y-3.4213
X12.753Y-6.5049
X12.7559Y-0.6152
X12.7569Y-3.4843
X12.7667Y-5.1348
X12.7717Y-0.3701
X12.7717Y-4.2874
X12.7756Y-4.1358
X12.7835Y-6.7441
X12.7864Y-4.2283
X12.7913Y-6.4016
X12.7923Y-6.7894
X12.7953Y-5.1339
X12.7963Y-5.3691
X12.8031Y-0.5866
X12.8041Y-6.9203
X12.8061Y-6.8248
X12.811Y-3.4803
X12.8356Y-5.3701
X12.8386Y-3.562
X12.845Y-0.935
X12.845Y-0.995
X12.845Y-1.055
X12.845Y-1.115
X12.845Y-1.175
X12.845Y-1.235
X12.845Y-1.295
X12.845Y-1.355
X12.845Y-1.415
X12.8455Y-5.2756
X12.8465Y-6.7756
X12.8494Y-6.8258
X12.8563Y-6.9783
X12.8661Y-1.4882
X12.8661Y-5.4203
X12.8693Y-3.6095
X12.8711Y-6.6289
X12.873Y-6.5059
X12.876Y-6.4734
X12.877Y-4.1348
X12.8858Y-6.8868
X12.8868Y-4.2264
X12.8868Y-6.5423
X12.8878Y-5.2736
X12.8888Y-5.5089
X12.89Y-0.965
X12.89Y-1.025
X12.89Y-1.085
X12.89Y-1.145
X12.89Y-1.205
X12.89Y-1.265
X12.89Y-1.325
X12.89Y-1.385
X12.89Y-1.445
X12.8996Y-3.5187
X12.9055Y-3.689
X12.9183Y-7.0413
X12.9252Y-4.1329
X12.9252Y-6.6299
X12.9331Y-5.689
X12.9331Y-7.2126
X12.937Y-4.2283
X12.937Y-6.878
X12.94Y-5.3996
X12.9449Y-6.9488
X12.9478Y-6.5463
X12.9492Y-4.2632
X12.9547Y-3.5177
X12.9665Y-7.0876
X12.9685Y-3.4882
X12.9764Y-4.6575
X12.9795Y-0.8397
X12.9798Y-0.8834
X12.98Y-0.7086
X12.98Y-0.7523
X12.98Y-0.796
X12.9803Y-4.1378
X12.9843Y-1.5157
X12.9852Y-7.0128
X12.9892Y-3.5915
X12.9902Y-5.4518
X13.0Y-0.7305
X13.0Y-0.7742
X13.0Y-0.8178
X13.0Y-0.8615
X13.0039Y-1.6535
X13.0079Y-4.9331
X13.0118Y-5.0984
X13.0157Y-7.0354
X13.0197Y-5.6053
X13.0236Y-5.2323
X13.025Y-1.61
X13.0256Y-7.1575
X13.0315Y-3.4173
X13.0344Y-4.1309
X13.0374Y-4.2215
X13.0384Y-5.5098
X13.0384Y-6.6299
X13.0472Y-6.4606
X13.0472Y-7.062
X13.055Y-1.655
X13.0571Y-3.6014
X13.0591Y-6.5197
X13.062Y-7.1969
X13.063Y-0.9016
X13.078Y-4.0583
X13.0827Y-3.7598
X13.0843Y-3.5117
X13.085Y-1.61
X13.0886Y-4.1319
X13.0896Y-7.127
X13.0915Y-4.2234
X13.0915Y-5.5138
X13.0925Y-6.6339
X13.0974Y-5.5581
X13.1082Y-4.027
X13.1098Y-5.724
X13.1102Y-3.5128
X13.1122Y-3.6014
X13.1135Y-3.1704
X13.1142Y-6.5354
X13.115Y-1.655
X13.1289Y-7.2726
X13.1417Y-4.2874
X13.1425Y-3.4338
X13.145Y-1.61
X13.1457Y-0.8898
X13.1476Y-7.1831
X13.1496Y-3.3228
X13.1496Y-5.5935
X13.1496Y-6.6171
X13.1526Y-5.6969
X13.1602Y-5.1555
X13.1615Y-3.4148
X13.1709Y-3.3079
X13.175Y-1.655
X13.1781Y-6.6752
X13.1798Y-3.3964
X13.187Y-5.5974
X13.187Y-5.6978
X13.1893Y-3.2896
X13.1919Y-4.1644
X13.1939Y-7.25
X13.1969Y-7.1654
X13.1978Y-4.2589
X13.2Y-0.935
X13.2Y-1.2
X13.2Y-1.25
X13.2Y-1.3
X13.205Y-1.61
X13.2165Y-4.6417
X13.2175Y-3.5325
X13.2185Y-3.6171
X13.2254Y-6.6762
X13.235Y-1.655
X13.247Y-4.1654
X13.25Y-1.2
X13.25Y-1.25
X13.25Y-1.3
X13.251Y-3.6677
X13.251Y-4.2598
X13.2559Y-3.5
X13.265Y-1.61
X13.2697Y-3.5315
X13.2707Y-6.6201
X13.2717Y-3.6201
X13.2717Y-5.7805
X13.2766Y-6.7825
X13.2884Y-5.6841
X13.2907Y-4.9963
X13.295Y-1.655
X13.2953Y-4.9331
X13.3Y-1.2
X13.3Y-1.25
X13.3Y-1.3
X13.3071Y-4.1496
X13.3071Y-5.7766
X13.31Y-6.688
X13.311Y-3.7323
X13.311Y-5.5748
X13.314Y-6.7795
X13.3228Y-3.8268
X13.325Y-1.61
X13.3268Y-5.685
X13.3406Y-4.1919
X13.3415Y-4.2854
X13.3425Y-6.8858
X13.3504Y-3.7047
X13.3533Y-3.6161
X13.355Y-1.655
X13.3563Y-6.69
X13.3701Y-6.6299
X13.385Y-1.61
X13.3947Y-4.1909
X13.3967Y-3.6171
X13.3967Y-4.2844
X13.3976Y-1.0217
X13.3986Y-5.8701
X13.4006Y-6.8967
X13.4016Y-5.7736
X13.4021Y-5.4978
X13.4033Y-5.3996
X13.4055Y-3.7028
X13.4094Y-5.2087
X13.415Y-1.655
X13.4242Y-6.8022
X13.4243Y-1.2657
X13.4252Y-4.685
X13.4272Y-5.8671
X13.43Y-1.195
X13.4301Y-6.8957
X13.4331Y-0.8642
X13.436Y-5.7746
X13.445Y-1.61
X13.4488Y-1.2165
X13.4567Y-6.8002
X13.4673Y-5.0683
X13.4724Y-4.3504
X13.4724Y-5.4055
X13.4744Y-1.1516
X13.4764Y-1.2402
X13.4764Y-4.9764
X13.4774Y-6.9665
X13.4803Y-3.8268
X13.4843Y-1.6457
X13.4882Y-1.4606
X13.4921Y-4.2648
X13.4931Y-4.1752
X13.4949Y-5.1339
X13.5003Y-5.3031
X13.5039Y-3.7126
X13.5049Y-3.624
X13.5118Y-3.7559
X13.525Y-1.0689
X13.5276Y-4.8504
X13.5315Y-0.8661
X13.5315Y-5.7953
X13.5335Y-5.9616
X13.5423Y-6.9124
X13.5492Y-4.1762
X13.5492Y-4.2667
X13.5531Y-1.1811
X13.5551Y-5.873
X13.556Y-5.0217
X13.5561Y-3.626
X13.5591Y-3.7116
X13.5641Y-4.8073
X13.5673Y-4.3087
X13.5787Y-6.0669
X13.58Y-1.345
X13.5846Y-5.9626
X13.5964Y-7.0571
X13.5984Y-5.875
X13.5984Y-7.1024
X13.6024Y-6.9183
X13.6033Y-6.9587
X13.6063Y-1.4134
X13.6181Y-7.1535
X13.6191Y-5.9892
X13.622Y-0.874
X13.63Y-1.315
X13.63Y-1.375
X13.6385Y-4.3293
X13.6388Y-4.1133
X13.6417Y-3.7283
X13.6417Y-6.8701
X13.6496Y-4.1516
X13.6496Y-5.8071
X13.6516Y-1.0925
X13.6526Y-4.2431
X13.6555Y-6.0413
X13.6575Y-3.623
X13.6781Y-7.0098
X13.687Y-6.0364
X13.7047Y-4.2441
X13.7047Y-7.1535
X13.7057Y-7.187
X13.7067Y-4.1516
X13.7087Y-3.624
X13.7185Y-7.0591
X13.7402Y-5.9764
X13.7441Y-4.2677
X13.748Y-3.7283
X13.748Y-4.1535
X13.7559Y-3.7953
X13.7667Y-7.2185
X13.7825Y-6.125
X13.7854Y-7.122
X13.8051Y-3.7618
X13.8081Y-3.6634
X13.8091Y-4.1388
X13.811Y-4.2244
X13.812Y-6.0364
X13.8169Y-6.123
X13.8189Y-5.9764
X13.8445Y-7.2559
X13.8524Y-6.0354
X13.8583Y-3.6673
X13.8602Y-3.7589
X13.8642Y-4.2234
X13.8661Y-4.1368
X13.878Y-6.3071
X13.8789Y-6.1545
X13.8789Y-6.186
X13.8967Y-7.1988
X13.9016Y-6.0551
X13.9173Y-3.6496
X13.9193Y-3.75
X13.9213Y-4.2441
X13.9307Y-3.7904
X13.94Y-6.2175
X13.9567Y-3.8622
X13.9596Y-3.6831
X13.9616Y-4.2254
X13.9616Y-6.125
X13.9665Y-4.1348
X13.9724Y-7.1299
X13.9724Y-7.2087
X13.9774Y-3.7756
X13.9813Y-6.2815
X13.9823Y-6.313
X13.9857Y-7.2399
X13.9903Y-4.1054
X14.0098Y-3.6821
X14.0187Y-4.1339
X14.0207Y-4.2244
X14.0276Y-4.0866
X14.0787Y-6.3996
X14.0807Y-6.4311
X14.0866Y-6.4961
X14.1053Y-3.7352
X14.1073Y-3.8337
X14.1083Y-6.31
X14.1112Y-6.2825
X14.1181Y-4.2244
X14.1191Y-4.1339
X14.1467Y-6.4567
X14.1496Y-6.3031
X14.1545Y-3.7362
X14.1575Y-3.8307
X14.1732Y-4.1339
X14.1742Y-4.2254
X14.1742Y-6.3602
X14.22Y-1.2147
X14.24Y-1.2386
T2
X1.7854Y-6.8461
X1.7854Y-6.9012
X1.813Y-6.8185
X1.813Y-6.8736
X1.813Y-6.9287
X1.8406Y-6.8461
X1.8406Y-6.9012
X1.8681Y-6.8185
X1.8681Y-6.8736
X1.8681Y-6.9287
X1.8957Y-6.8461
X1.8957Y-6.9012
T4
X2.8331Y-7.3
X2.9669Y-7.3
T3
G00X0.0705Y-6.8299
M15
G01X0.0469Y-6.8299
M16
G05
G00X0.0705Y-7.1701
M15
G01X0.0469Y-7.1701
M16
G05
G00X0.2449Y-6.8299
M15
G01X0.2016Y-6.8299
M16
G05
G00X0.2449Y-7.1701
M15
G01X0.2016Y-7.1701
M16
G05
M30
