M48
; DRILL file {KiCad 8.0.4} date 2024-11-21T15:50:00-0800
; FORMAT={-:-/ absolute / inch / decimal}
; #@! TF.CreationDate,2024-11-21T15:50:00-08:00
; #@! TF.GenerationSoftware,Kicad,Pcbnew,8.0.4
; #@! TF.FileFunction,Plated,1,4,PTH
FMAT,2
INCH
; #@! TA.AperFunction,Plated,PTH,ComponentDrill
T1C0.0079
; #@! TA.AperFunction,Plated,PTH,ViaDrill
T2C0.0118
; #@! TA.AperFunction,Plated,PTH,ComponentDrill
T3C0.0236
; #@! TA.AperFunction,Plated,PTH,ComponentDrill
T4C0.0300
; #@! TA.AperFunction,Plated,PTH,ComponentDrill
T5C0.0472
%
G90
G05
T1
X1.7167Y-6.8558
X1.7167Y-6.9158
X1.7468Y-6.8258
X1.7468Y-6.8858
X1.7468Y-6.9459
X1.7768Y-6.8558
X1.7768Y-6.9158
X1.8068Y-6.8258
X1.8068Y-6.8858
X1.8068Y-6.9459
X1.8368Y-6.8558
X1.8368Y-6.9158
T2
X0.256Y-1.0483
X0.29Y-7.17
X0.31Y-6.87
X0.345Y-7.4106
X0.3799Y-6.4701
X0.3801Y-1.1774
X0.3806Y-1.1496
X0.405Y-6.92
X0.46Y-6.35
X0.46Y-6.55
X0.46Y-6.65
X0.4978Y-2.165
X0.52Y-7.11
X0.5312Y-1.2414
X0.5373Y-1.1962
X0.6318Y-1.2856
X0.6552Y-6.9702
X0.6757Y-7.0116
X0.68Y-7.1377
X0.6835Y-1.2357
X0.7544Y-1.1963
X0.8393Y-1.2428
X0.855Y-7.11
X0.9751Y-7.1701
X0.9939Y-1.2126
X1.025Y-2.765
X1.0372Y-1.1972
X1.1Y-2.765
X1.1152Y-6.93
X1.134Y-6.74
X1.1597Y-1.1779
X1.175Y-2.765
X1.194Y-6.784
X1.2081Y-6.953
X1.23Y-2.91
X1.25Y-2.765
X1.3001Y-6.6151
X1.3001Y-7.1377
X1.3074Y-1.1604
X1.34Y-6.5248
X1.345Y-6.93
X1.349Y-1.1583
X1.349Y-1.1897
X1.457Y-6.858
X1.457Y-6.8857
X1.459Y-6.774
X1.4598Y-6.5748
X1.4598Y-6.6248
X1.4598Y-6.6748
X1.4637Y-1.1897
X1.4969Y-6.6972
X1.5614Y-6.2917
X1.5629Y-6.2521
X1.565Y-6.366
X1.5748Y-6.4173
X1.5846Y-6.2303
X1.5945Y-6.1319
X1.6064Y-6.3091
X1.6214Y-1.1643
X1.6437Y-5.7087
X1.6437Y-5.9154
X1.6535Y-6.0433
X1.7323Y-6.1909
X1.7323Y-6.2894
X1.7402Y-6.3406
X1.7421Y-5.7579
X1.7421Y-6.2402
X1.7554Y-1.2243
X1.7717Y-6.3583
X1.7723Y-6.2802
X1.7913Y-5.9055
X1.8406Y-5.9547
X1.8701Y-5.8071
X1.8799Y-5.7283
X1.8914Y-1.2803
X1.8964Y-1.3842
X1.9193Y-5.8661
X1.9291Y-6.4173
X1.9783Y-5.6398
X2.0274Y-1.3643
X2.0323Y-5.9398
X2.0626Y-5.8114
X2.1514Y-1.3503
X2.155Y-6.72
X2.155Y-6.77
X2.155Y-6.875
X2.155Y-6.925
X2.155Y-7.075
X2.1594Y-6.8248
X2.1594Y-6.9793
X2.165Y-6.575
X2.165Y-6.665
X2.1654Y-6.4961
X2.1654Y-6.5354
X2.1921Y-1.3459
X2.2343Y-5.7776
X2.2441Y-5.8661
X2.2539Y-5.8148
X2.2736Y-5.8661
X2.28Y-7.0
X2.3Y-7.1377
X2.3074Y-1.3263
X2.3222Y-5.9639
X2.3677Y-6.96
X2.3679Y-6.8971
X2.37Y-7.0241
X2.395Y-7.1377
X2.4Y-6.5748
X2.4311Y-5.6398
X2.4508Y-5.7874
X2.4508Y-6.0433
X2.4508Y-6.5551
X2.4554Y-1.3383
X2.4606Y-5.8366
X2.4606Y-5.8957
X2.4606Y-5.9722
X2.4876Y-1.334
X2.6094Y-1.3263
X2.651Y-1.3343
X2.651Y-1.3657
X2.7264Y-6.5846
X2.7654Y-1.3343
X2.7657Y-1.3657
X2.9116Y-1.3687
X3.0586Y-1.4007
X3.1355Y-1.4453
X3.2914Y-1.4932
X3.3665Y-1.5803
X3.4495Y-4.3213
X3.4499Y-4.2776
X3.4499Y-4.4524
X3.45Y-4.365
X3.45Y-4.4087
X3.47Y-4.2995
X3.47Y-4.3431
X3.47Y-4.3869
X3.47Y-4.4305
X3.4708Y-1.6766
X3.51Y-6.6082
X3.5122Y-1.8003
X3.5146Y-1.7519
X3.535Y-6.6318
X3.5431Y-1.6722
X3.5981Y-1.7299
X3.625Y-3.845
X3.625Y-3.905
X3.625Y-3.965
X3.6662Y-7.0152
X3.6662Y-7.11
X3.67Y-3.875
X3.67Y-3.935
X3.67Y-3.995
X3.6933Y-1.802
X3.6938Y-7.015
X3.6938Y-7.1377
X3.7261Y-4.1811
X3.75Y-4.025
X3.755Y-4.265
X3.7996Y-1.8211
X3.804Y-4.033
X3.805Y-3.64
X3.817Y-4.007
X3.825Y-4.055
X3.8286Y-1.9363
X3.8286Y-1.9677
X3.835Y-3.595
X3.865Y-3.64
X3.895Y-3.595
X3.925Y-3.64
X3.9426Y-2.0343
X3.9426Y-2.0657
X3.9434Y-1.9677
X3.95Y-3.95
X3.95Y-4.0
X3.95Y-4.05
X3.955Y-3.595
X3.985Y-3.64
X4.0Y-3.95
X4.0Y-4.0
X4.0Y-4.05
X4.0072Y-2.089
X4.015Y-3.595
X4.045Y-3.64
X4.05Y-3.95
X4.05Y-4.0
X4.05Y-4.05
X4.05Y-4.315
X4.0574Y-2.0657
X4.075Y-3.595
X4.105Y-3.64
X4.135Y-3.595
X4.1461Y-2.2085
X4.165Y-3.64
X4.1737Y-2.1771
X4.195Y-3.595
X4.225Y-3.64
X4.2385Y-2.1232
X4.36Y-3.805
X4.36Y-3.865
X4.36Y-3.925
X4.36Y-3.985
X4.36Y-4.045
X4.36Y-4.105
X4.36Y-4.165
X4.36Y-4.225
X4.36Y-4.285
X4.405Y-3.835
X4.405Y-3.895
X4.405Y-3.955
X4.405Y-4.015
X4.405Y-4.075
X4.405Y-4.135
X4.405Y-4.195
X4.405Y-4.255
X4.405Y-4.315
X4.4334Y-2.2971
X4.4839Y-2.3706
X4.6715Y-2.4956
X4.6965Y-2.5099
X4.7855Y-2.5598
X4.9533Y-2.5679
X4.9872Y-2.4902
X5.078Y-2.6127
X5.109Y-2.6183
X5.109Y-2.6497
X5.1598Y-2.8532
X5.2237Y-2.6497
X5.2256Y-2.6122
X5.38Y-2.7662
X5.4656Y-2.7484
X5.512Y-2.8458
X5.5363Y-2.5704
X5.6Y-2.3963
X5.615Y-2.4277
X5.6436Y-2.8667
X5.6483Y-2.9106
X5.6976Y-2.4524
X5.7256Y-2.9052
X5.7937Y-2.9525
X5.7956Y-3.1756
X5.7956Y-3.3316
X5.8231Y-2.683
X5.8538Y-3.0172
X5.8611Y-3.4518
X5.905Y-2.6501
X5.9136Y-2.9784
X5.9191Y-2.5694
X5.925Y-3.5683
X5.925Y-3.5997
X5.9496Y-2.9825
X5.9603Y-2.6125
X5.9874Y-3.5461
X6.0398Y-3.5997
X6.0486Y-2.6966
X6.0697Y-2.9479
X6.0994Y-2.6717
X6.1093Y-2.9748
X6.1202Y-2.6435
X6.1234Y-3.7456
X6.134Y-2.8
X6.1449Y-2.931
X6.1814Y-3.7963
X6.1921Y-3.8825
X6.2242Y-2.9861
X6.2441Y-3.8865
X6.2657Y-2.9774
X6.2757Y-2.6397
X6.3246Y-2.9593
X6.3918Y-2.635
X6.4226Y-2.9943
X6.4226Y-3.0257
X6.5108Y-2.9679
X6.5374Y-3.0257
X6.5374Y-4.0664
X6.5478Y-2.6457
X6.5486Y-2.618
X6.5506Y-4.1643
X6.5506Y-4.1957
X6.6629Y-2.664
X6.6654Y-4.1957
X6.6663Y-4.1597
X6.6863Y-2.9816
X6.6933Y-3.0356
X6.7236Y-4.0536
X6.7434Y-2.6365
X6.7972Y-4.2264
X6.8395Y-3.0969
X6.8537Y-2.6559
X6.8566Y-3.1197
X6.9006Y-2.5763
X6.9006Y-2.6077
X6.9243Y-4.3262
X6.957Y-4.3277
X6.9663Y-3.0158
X7.0083Y-3.1755
X7.0154Y-2.6077
X7.0582Y-2.5811
X7.0662Y-2.8116
X7.0816Y-4.3831
X7.088Y-4.3419
X7.0936Y-3.1415
X7.0941Y-4.054
X7.1404Y-3.2279
X7.1405Y-3.2639
X7.1945Y-4.346
X7.2359Y-4.401
X7.2876Y-2.5457
X7.2977Y-3.2807
X7.3612Y-3.2299
X7.4435Y-2.5444
X7.4807Y-4.3956
X7.5087Y-2.5137
X7.5307Y-3.2622
X7.5974Y-4.3671
X7.6208Y-2.4658
X7.6236Y-2.5031
X7.6558Y-2.428
X7.6629Y-3.2936
X7.6827Y-3.5749
X7.7246Y-4.5043
X7.7246Y-4.5357
X7.7346Y-3.3903
X7.7346Y-3.4217
X7.7926Y-2.5121
X7.8394Y-4.5357
X7.8494Y-3.4217
X7.9401Y-3.4555
X7.9444Y-4.5329
X8.012Y-2.4437
X8.0341Y-2.3921
X8.0423Y-3.5079
X8.0558Y-3.6017
X8.0584Y-4.436
X8.079Y-4.6296
X8.0986Y-3.4223
X8.1215Y-3.5717
X8.2046Y-2.4543
X8.2046Y-2.4857
X8.2156Y-4.6039
X8.2456Y-4.5422
X8.2785Y-3.5894
X8.2818Y-4.5439
X8.3194Y-2.4857
X8.4016Y-4.5243
X8.4334Y-3.5841
X8.5214Y-2.5088
X8.5296Y-2.4077
X8.5474Y-4.4763
X8.5812Y-3.6245
X8.6647Y-2.4907
X8.7058Y-4.4759
X8.711Y-3.5778
X8.7259Y-2.5131
X8.788Y-2.4687
X8.8102Y-2.4908
X8.8484Y-3.5353
X8.8581Y-4.481
X8.9434Y-2.4977
X8.9756Y-0.2743
X9.0203Y-0.4049
X9.0366Y-3.4863
X9.0366Y-3.5177
X9.0466Y-4.4383
X9.0466Y-4.4698
X9.0782Y-6.6082
X9.0841Y-2.5448
X9.0982Y-2.585
X9.1Y-6.6318
X9.1356Y-0.4215
X9.1514Y-3.5177
X9.1614Y-4.4698
X9.1694Y-0.5203
X9.1826Y-3.4517
X9.2111Y-2.5641
X9.225Y-5.545
X9.225Y-5.605
X9.225Y-5.665
X9.225Y-5.71
X9.2353Y-0.6637
X9.263Y-7.0472
X9.263Y-7.11
X9.27Y-5.575
X9.27Y-5.635
X9.2907Y-7.1377
X9.2907Y-7.0472
X9.2945Y-0.928
X9.2974Y-3.4236
X9.305Y-5.84
X9.3169Y-0.7973
X9.32Y-6.1
X9.3261Y-5.9061
X9.3299Y-5.7702
X9.3299Y-5.7409
X9.33Y-5.8
X9.3316Y-0.9515
X9.332Y-5.7053
X9.3493Y-4.4423
X9.354Y-5.7242
X9.3935Y-1.1054
X9.405Y-5.34
X9.4086Y-1.2223
X9.4086Y-1.2537
X9.435Y-5.295
X9.465Y-5.34
X9.4732Y-3.4275
X9.487Y-4.4383
X9.495Y-5.295
X9.5234Y-1.2537
X9.525Y-5.34
X9.5366Y-2.5303
X9.5366Y-2.5617
X9.55Y-5.65
X9.55Y-5.7
X9.55Y-5.75
X9.555Y-2.6
X9.555Y-5.295
X9.585Y-5.34
X9.5978Y-1.4845
X9.6Y-5.65
X9.6Y-5.7
X9.6Y-5.75
X9.615Y-5.295
X9.645Y-5.34
X9.65Y-5.65
X9.65Y-5.7
X9.65Y-5.75
X9.6511Y-6.0189
X9.6535Y-3.4366
X9.6536Y-4.3357
X9.6587Y-4.4105
X9.675Y-5.295
X9.705Y-5.34
X9.7319Y-1.5968
X9.7327Y-1.7699
X9.735Y-5.295
X9.7456Y-3.3492
X9.7468Y-4.4063
X9.7541Y-1.8762
X9.763Y-3.4815
X9.765Y-5.34
X9.7765Y-2.5864
X9.795Y-5.295
X9.8012Y-2.5066
X9.8182Y-1.8741
X9.825Y-5.34
X9.8309Y-1.7843
X9.8482Y-2.5216
X9.85Y-6.0885
X9.85Y-6.1322
X9.85Y-6.1758
X9.85Y-6.2195
X9.8698Y-1.9823
X9.87Y-6.154
X9.87Y-6.1977
X9.87Y-6.2414
X9.8702Y-6.0666
X9.8705Y-6.1103
X9.9115Y-4.4489
X9.9368Y-3.3619
X9.9407Y-4.5225
X9.96Y-5.505
X9.96Y-5.565
X9.96Y-5.625
X9.96Y-5.685
X9.96Y-5.745
X9.96Y-5.805
X9.96Y-5.865
X9.96Y-5.925
X9.96Y-5.985
X9.9645Y-2.4968
X9.9804Y-3.4343
X9.9899Y-2.0763
X10.005Y-5.535
X10.005Y-5.595
X10.005Y-5.655
X10.005Y-5.715
X10.005Y-5.775
X10.005Y-5.835
X10.005Y-5.895
X10.005Y-5.955
X10.005Y-6.015
X10.0063Y-2.5257
X10.0367Y-3.4182
X10.0554Y-4.6269
X10.0728Y-2.0497
X10.0904Y-3.431
X10.1191Y-4.6243
X10.1265Y-2.1251
X10.1757Y-3.3784
X10.1886Y-2.3223
X10.1886Y-2.3537
X10.1915Y-3.5775
X10.1966Y-4.0663
X10.1966Y-4.0978
X10.2138Y-3.6477
X10.2246Y-2.1263
X10.2246Y-2.1577
X10.2284Y-2.5502
X10.2345Y-3.3396
X10.2359Y-3.5939
X10.2389Y-3.3687
X10.2493Y-2.6021
X10.2634Y-3.8814
X10.2745Y-3.3858
X10.281Y-2.9636
X10.2856Y-3.1375
X10.2918Y-4.6885
X10.2962Y-3.5526
X10.2976Y-3.2903
X10.3022Y-2.5493
X10.3034Y-2.3537
X10.3114Y-4.0978
X10.3213Y-2.8281
X10.3279Y-2.6639
X10.3346Y-3.4094
X10.3394Y-2.1577
X10.3664Y-2.109
X10.3708Y-2.1686
X10.3979Y-2.6009
X10.4105Y-2.4686
X10.4208Y-2.6403
X10.4299Y-4.3106
X10.4414Y-2.1871
X10.4621Y-4.8538
X10.4806Y-2.6883
X10.4806Y-2.7197
X10.4844Y-2.2076
X10.5069Y-4.4428
X10.5247Y-3.5124
X10.5449Y-4.5752
X10.5643Y-2.5462
X10.5654Y-2.4605
X10.5664Y-4.6595
X10.5727Y-4.9897
X10.5804Y-2.2181
X10.5954Y-2.7197
X10.599Y-4.5769
X10.6281Y-5.0936
X10.6656Y-2.3383
X10.6676Y-2.8603
X10.6708Y-4.8264
X10.6824Y-3.4885
X10.6981Y-2.8046
X10.7046Y-2.8849
X10.7206Y-5.1883
X10.7226Y-5.6602
X10.7226Y-5.6917
X10.7478Y-4.7409
X10.7493Y-5.3162
X10.7516Y-5.4738
X10.7547Y-2.5856
X10.7622Y-2.46
X10.7653Y-5.7649
X10.7655Y-4.817
X10.7726Y-5.9663
X10.7726Y-5.9978
X10.7896Y-5.2473
X10.8193Y-2.9009
X10.8374Y-5.6602
X10.8374Y-5.6917
X10.8383Y-5.518
X10.8386Y-3.5023
X10.8386Y-3.5337
X10.8451Y-2.5119
X10.8576Y-5.9374
X10.8576Y-6.0204
X10.89Y-5.845
X10.9006Y-5.4002
X10.9006Y-5.4317
X10.9014Y-4.9355
X10.9076Y-5.0205
X10.9094Y-6.1183
X10.9106Y-5.2463
X10.9106Y-5.2778
X10.9236Y-3.4758
X10.9534Y-3.5337
X10.9654Y-6.2383
X10.9751Y-2.9317
X10.9856Y-6.2918
X10.999Y-5.3615
X11.0033Y-2.5338
X11.0088Y-5.5457
X11.0154Y-5.4317
X11.0254Y-5.2778
X11.0444Y-3.5656
X11.0566Y-5.7163
X11.0625Y-3.7183
X11.0994Y-6.3063
X11.1186Y-5.7632
X11.1207Y-2.99
X11.1396Y-3.6923
X11.143Y-5.6925
X11.159Y-3.0814
X11.1827Y-5.7666
X11.2075Y-2.5931
X11.2118Y-3.1917
X11.2245Y-5.8603
X11.2294Y-6.4002
X11.2674Y-3.922
X11.2885Y-3.2703
X11.3022Y-2.7164
X11.3221Y-3.9133
X11.3426Y-2.8243
X11.3426Y-2.8557
X11.3515Y-5.6906
X11.3515Y-5.8603
X11.3694Y-6.4522
X11.3989Y-6.4023
X11.4033Y-3.2955
X11.4048Y-3.4706
X11.4149Y-5.8578
X11.4574Y-2.8557
X11.5066Y-3.5603
X11.5066Y-3.5917
X11.5124Y-3.363
X11.5254Y-6.4422
X11.5663Y-6.4202
X11.5847Y-6.0062
X11.6042Y-4.1769
X11.6106Y-3.6893
X11.6157Y-2.835
X11.6214Y-3.5917
X11.6304Y-6.061
X11.6326Y-4.1863
X11.6326Y-4.2178
X11.6336Y-3.77
X11.6649Y-6.4114
X11.6961Y-6.0522
X11.7258Y-3.8307
X11.7276Y-2.8634
X11.7474Y-4.2178
X11.7564Y-3.9321
X11.7597Y-2.9358
X11.7943Y-3.9371
X11.8436Y-4.1285
X11.8635Y-2.9494
X11.8746Y-6.4483
X11.8746Y-6.4798
X11.9026Y-6.1602
X11.9026Y-6.1917
X11.9135Y-3.0361
X11.9137Y-4.0393
X11.9379Y-6.4265
X11.9462Y-4.417
X11.9467Y-3.0222
X11.9773Y-6.2487
X11.9876Y-4.4604
X11.9889Y-4.3026
X11.9894Y-6.4798
X11.9996Y-3.0374
X12.0076Y-4.1563
X12.0174Y-6.1917
X12.03Y-3.363
X12.0303Y-3.0843
X12.0586Y-6.2221
X12.0638Y-3.5569
X12.1041Y-4.5405
X12.1125Y-4.2677
X12.1151Y-4.6364
X12.1436Y-6.2462
X12.1438Y-6.3546
X12.1496Y-3.0554
X12.1531Y-3.1423
X12.165Y-4.2251
X12.181Y-4.7024
X12.1871Y-4.27
X12.1935Y-6.2782
X12.1935Y-6.4474
X12.2449Y-3.7414
X12.2535Y-3.1734
X12.3016Y-6.3058
X12.3094Y-6.2762
X12.3098Y-6.4474
X12.3464Y-6.4629
X12.3621Y-4.2447
X12.3635Y-3.2774
X12.3917Y-3.5108
X12.3925Y-4.6536
X12.4035Y-3.4214
X12.4576Y-3.4867
X12.4656Y-4.1558
X12.5035Y-3.4894
X12.5226Y-4.9202
X12.5226Y-4.9517
X12.5367Y-6.3207
X12.5475Y-6.433
X12.5548Y-6.5582
X12.6304Y-4.8974
X12.6374Y-4.9517
X12.6533Y-4.1683
X12.6588Y-6.6766
X12.6869Y-6.7338
X12.6915Y-4.1958
X12.6951Y-6.4262
X12.7045Y-6.5983
X12.7184Y-5.1424
X12.7219Y-6.452
X12.7266Y-3.5143
X12.7266Y-3.5457
X12.7509Y-6.7282
X12.8168Y-5.2721
X12.8317Y-6.8364
X12.8336Y-6.5324
X12.8414Y-3.5457
X12.845Y-0.935
X12.845Y-0.995
X12.845Y-1.055
X12.845Y-1.115
X12.845Y-1.175
X12.845Y-1.235
X12.845Y-1.295
X12.845Y-1.355
X12.845Y-1.415
X12.8505Y-4.1702
X12.8695Y-3.5773
X12.8842Y-5.1402
X12.89Y-0.965
X12.89Y-1.025
X12.89Y-1.085
X12.89Y-1.145
X12.89Y-1.205
X12.89Y-1.265
X12.89Y-1.325
X12.89Y-1.385
X12.89Y-1.445
X12.9129Y-5.1917
X12.9256Y-6.5442
X12.9288Y-5.4156
X12.9356Y-4.1379
X12.9401Y-5.2211
X12.9722Y-4.1958
X12.9795Y-0.8397
X12.9798Y-0.8834
X12.98Y-0.7086
X12.98Y-0.7523
X12.98Y-0.796
X12.9821Y-5.4506
X12.9877Y-5.3327
X12.9905Y-3.5878
X13.0Y-0.7305
X13.0Y-0.7742
X13.0Y-0.8178
X13.0Y-0.8615
X13.0046Y-4.1622
X13.0046Y-4.1937
X13.0066Y-6.5992
X13.0148Y-3.5726
X13.025Y-1.61
X13.0415Y-6.4619
X13.055Y-1.655
X13.0583Y-4.1179
X13.0636Y-5.516
X13.0666Y-7.2143
X13.0666Y-7.2457
X13.085Y-1.61
X13.115Y-1.655
X13.1194Y-4.1937
X13.13Y-0.985
X13.145Y-1.61
X13.1516Y-7.1835
X13.175Y-1.655
X13.1814Y-7.2457
X13.1863Y-3.5842
X13.1863Y-3.5512
X13.1936Y-5.605
X13.2Y-0.935
X13.2Y-1.2
X13.2Y-1.25
X13.2Y-1.3
X13.205Y-1.61
X13.235Y-1.655
X13.25Y-1.2
X13.25Y-1.25
X13.25Y-1.3
X13.265Y-1.61
X13.2737Y-3.6185
X13.2863Y-3.6491
X13.2867Y-4.1977
X13.2868Y-5.6734
X13.295Y-1.655
X13.3Y-1.2
X13.3Y-1.25
X13.3Y-1.3
X13.3156Y-6.6987
X13.325Y-1.61
X13.355Y-1.655
X13.3724Y-4.1988
X13.374Y-3.6961
X13.385Y-1.61
X13.3947Y-6.8083
X13.4067Y-3.6177
X13.415Y-1.655
X13.4242Y-4.229
X13.4243Y-1.2657
X13.4252Y-6.8885
X13.43Y-1.195
X13.445Y-1.61
X13.4576Y-6.8078
X13.4646Y-1.2403
X13.4744Y-1.1516
X13.5062Y-3.6027
X13.525Y-1.0689
X13.538Y-5.8765
X13.5389Y-6.9922
X13.5531Y-1.1811
X13.5627Y-5.9561
X13.565Y-6.8266
X13.5773Y-4.2048
X13.5893Y-3.6584
X13.6065Y-5.782
X13.6116Y-5.9181
X13.6196Y-4.2149
X13.6199Y-6.0074
X13.64Y-1.17
X13.6516Y-1.0925
X13.6564Y-7.0956
X13.6936Y-3.6303
X13.7361Y-5.985
X13.7362Y-4.1823
X13.7757Y-7.1324
X13.7766Y-3.6983
X13.7766Y-3.7297
X13.8086Y-6.1179
X13.8914Y-3.7297
X13.9266Y-3.721
X13.9332Y-6.1088
X13.9446Y-7.2016
X13.9546Y-6.1323
X13.9736Y-3.6694
X13.9866Y-6.2802
X13.9866Y-6.3117
X14.0498Y-4.1707
X14.0582Y-3.7717
X14.0624Y-4.1984
X14.068Y-6.2538
X14.1014Y-6.3117
X14.1289Y-3.8506
T4
X2.5642Y-6.5256
X2.5665Y-5.6669
X2.5665Y-6.2402
X2.5665Y-6.3878
X2.5689Y-5.8126
X2.5689Y-5.9504
X2.5689Y-6.098
X2.8642Y-6.5256
X2.8665Y-5.6669
X2.8665Y-6.2402
X2.8665Y-6.3878
X2.8689Y-5.8126
X2.8689Y-5.9504
X2.8689Y-6.098
T5
X2.6181Y-6.7618
X2.815Y-6.7618
X3.0413Y-5.689
X3.0413Y-5.9547
X3.0413Y-6.2303
X3.0413Y-6.5059
X3.4646Y-3.6004
X3.4646Y-3.7795
X9.065Y-5.8661
X9.065Y-6.0433
X13.7894Y-0.9035
X13.7894Y-1.0827
T3
G00X0.0705Y-6.8299
M15
G01X0.0469Y-6.8299
M16
G05
G00X0.0705Y-7.1701
M15
G01X0.0469Y-7.1701
M16
G05
G00X0.2449Y-6.8299
M15
G01X0.2016Y-6.8299
M16
G05
G00X0.2449Y-7.1701
M15
G01X0.2016Y-7.1701
M16
G05
M30
