M48
; DRILL file {KiCad 8.0.4} date 2025-03-15T10:33:55-0700
; FORMAT={-:-/ absolute / inch / decimal}
; #@! TF.CreationDate,2025-03-15T10:33:55-07:00
; #@! TF.GenerationSoftware,Kicad,Pcbnew,8.0.4
; #@! TF.FileFunction,Plated,1,4,PTH
FMAT,2
INCH
; #@! TA.AperFunction,Plated,PTH,ViaDrill
T1C0.0118
; #@! TA.AperFunction,Plated,PTH,ComponentDrill
T2C0.0118
; #@! TA.AperFunction,Plated,PTH,ComponentDrill
T3C0.0236
; #@! TA.AperFunction,Plated,PTH,ComponentDrill
T4C0.0300
%
G90
G05
T1
X-7.0896Y-2.5373
X-7.0896Y-2.6594
X-7.066Y2.5611
X-7.0542Y-2.4468
X-7.0493Y2.7265
X-7.0493Y2.6457
X-7.0454Y-2.5393
X-7.0442Y-2.5652
X-7.0434Y-2.7332
X-7.0404Y-2.6456
X-7.0404Y-2.6716
X-6.9952Y2.7855
X-6.9942Y2.7265
X-6.9942Y2.6457
X-6.9833Y2.5887
X-6.9548Y-2.4273
X-6.9519Y0.2461
X-6.9336Y-2.5525
X-6.9253Y2.633
X-6.9253Y2.5513
X-6.9204Y0.2225
X-6.9204Y0.191
X-6.9135Y-2.5836
X-6.9125Y-2.4743
X-6.9125Y-2.7184
X-6.9125Y-3.4113
X-6.9115Y-2.6161
X-6.9085Y-2.6515
X-6.8928Y-3.1082
X-6.8928Y-3.6948
X-6.877Y-2.8995
X-6.8746Y-3.6605
X-6.8731Y-2.6554
X-6.8731Y-2.6987
X-6.8702Y2.633
X-6.8702Y2.5513
X-6.8613Y-2.4901
X-6.8613Y-2.8641
X-6.8495Y-2.5491
X-6.8377Y-2.5098
X-6.8146Y-3.1699
X-6.8141Y-2.4901
X-6.8134Y2.6331
X-6.8062Y2.4391
X-6.8023Y0.2062
X-6.7865Y0.2855
X-6.7865Y-2.4704
X-6.7761Y0.2085
X-6.7668Y2.5887
X-6.7668Y2.4981
X-6.755Y0.0729
X-6.7511Y0.1871
X-6.7393Y-3.3956
X-6.7373Y1.191
X-6.7367Y1.3259
X-6.7196Y-2.6003
X-6.7127Y2.5896
X-6.7117Y2.508
X-6.692Y1.002
X-6.6841Y1.258
X-6.6802Y-2.6003
X-6.6772Y1.0522
X-6.6753Y1.1398
X-6.6526Y1.1792
X-6.633Y0.1871
X-6.6211Y2.5434
X-6.6211Y2.4617
X-6.6211Y1.0493
X-6.6202Y1.1389
X-6.6172Y0.2816
X-6.6054Y-2.868
X-6.5778Y0.8879
X-6.5739Y-2.6791
X-6.57Y-2.872
X-6.57Y-3.2027
X-6.57Y-3.2972
X-6.5696Y-3.2361
X-6.5696Y-3.2637
X-6.566Y2.5434
X-6.566Y2.4617
X-6.566Y-2.7145
X-6.5649Y0.2078
X-6.5581Y1.2855
X-6.5496Y-3.3859
X-6.5471Y0.2267
X-6.5227Y-2.7657
X-6.5188Y-2.8011
X-6.5148Y-3.4231
X-6.5119Y1.2156
X-6.5109Y2.4627
X-6.5109Y1.3121
X-6.5109Y0.9784
X-6.5089Y0.8849
X-6.4952Y2.5965
X-6.4755Y-2.7184
X-6.4656Y2.5414
X-6.4646Y2.4587
X-6.4637Y2.6674
X-6.4597Y0.8859
X-6.4578Y1.3062
X-6.4578Y0.9774
X-6.4558Y1.2176
X-6.4322Y2.38
X-6.4322Y0.2275
X-6.4105Y2.5414
X-6.4102Y0.2051
X-6.4095Y2.4597
X-6.3889Y0.9076
X-6.381Y-2.8483
X-6.3731Y-2.8838
X-6.3692Y0.195
X-6.3613Y2.5454
X-6.3535Y0.2573
X-6.3534Y-2.9074
X-6.3426Y1.0522
X-6.3416Y1.1457
X-6.3377Y-2.9389
X-6.3212Y0.1389
X-6.3141Y1.1831
X-6.3111Y2.57
X-6.3101Y2.4863
X-6.3043Y0.2749
X-6.3022Y0.9942
X-6.3022Y0.1005
X-6.2935Y0.2068
X-6.2865Y1.1408
X-6.2855Y1.0532
X-6.2707Y-2.683
X-6.2659Y0.2077
X-6.265Y0.1246
X-6.256Y2.57
X-6.256Y2.4873
X-6.2397Y0.2103
X-6.2286Y0.2764
X-6.2067Y0.1488
X-6.205Y0.2528
X-6.1841Y0.2772
X-6.1694Y0.2274
X-6.1684Y0.1959
X-6.1677Y0.1667
X-6.1536Y2.5109
X-6.1526Y2.5956
X-6.1211Y2.6044
X-6.1054Y2.4272
X-6.0975Y2.5936
X-6.0975Y2.5109
X-6.0503Y0.1959
X-6.0473Y0.2274
X-6.0306Y0.258
X-5.9971Y2.6093
X-5.9971Y2.5267
X-5.9805Y0.1238
X-5.9499Y0.1381
X-5.942Y2.6093
X-5.942Y2.5276
X-5.9282Y0.1524
X-5.881Y-3.4231
X-5.8796Y-3.3859
X-5.8534Y2.4233
X-5.8496Y-3.1248
X-5.8456Y-3.0767
X-5.8406Y2.6182
X-5.8406Y2.5345
X-5.7865Y2.6192
X-5.7865Y2.5335
X-5.7574Y2.5586
X-5.7314Y2.5257
X-5.7235Y-2.5846
X-5.6999Y2.7028
X-5.6945Y-2.6048
X-5.6822Y2.6133
X-5.6822Y2.5296
X-5.6644Y-2.805
X-5.6631Y-2.7714
X-5.629Y2.5296
X-5.628Y2.6123
X-5.5928Y2.6242
X-5.5778Y2.4351
X-5.5493Y2.4676
X-5.5473Y2.5522
X-5.4942Y2.4686
X-5.4932Y2.5522
X-5.4558Y-2.5649
X-5.4395Y-2.6048
X-5.4144Y2.4135
X-5.4135Y2.4952
X-5.4131Y-2.6751
X-5.3889Y-2.809
X-5.3631Y-2.7714
X-5.3583Y2.4961
X-5.3574Y2.4125
X-5.3298Y2.3406
X-5.318Y2.2146
X-5.3131Y-2.7714
X-5.2904Y-2.7972
X-5.2776Y2.4125
X-5.2776Y2.3288
X-5.2747Y2.2343
X-5.2631Y-2.7714
X-5.248Y2.3091
X-5.2346Y-2.6049
X-5.2235Y2.628
X-5.2215Y2.4125
X-5.2215Y2.3298
X-5.2196Y-2.5688
X-5.2196Y-2.805
X-5.1896Y-2.7887
X-5.1896Y-2.8163
X-5.1822Y2.4115
X-5.1822Y2.3751
X-5.1723Y-3.0413
X-5.1723Y-3.12
X-5.1723Y-3.305
X-5.1684Y-3.1948
X-5.1631Y-2.6814
X-5.1401Y2.6284
X-5.129Y-2.6751
X-5.1181Y2.6486
X-5.0985Y2.3426
X-5.098Y2.4272
X-5.0296Y-2.8775
X-5.0296Y-2.9275
X-5.0296Y-2.9775
X-5.0296Y-3.0275
X-5.0296Y-3.0775
X-5.0296Y-3.1275
X-5.0296Y-3.1775
X-5.0296Y-3.2275
X-5.0296Y-3.2775
X-5.0296Y-3.3275
X-5.003Y2.4942
X-4.9981Y2.3652
X-4.9971Y2.4499
X-4.9495Y-2.7972
X-4.944Y2.4654
X-4.94Y2.3643
X-4.9125Y-3.3208
X-4.9085Y-2.7854
X-4.9085Y-3.0098
X-4.9046Y-2.9192
X-4.881Y-2.7578
X-4.881Y-3.3877
X-4.8505Y2.3544
X-4.8485Y2.44
X-4.8141Y-3.3599
X-4.8141Y-3.3917
X-4.7944Y2.441
X-4.7944Y2.3534
X-4.7432Y2.443
X-4.6959Y2.4519
X-4.695Y2.3662
X-4.6389Y2.4519
X-4.6379Y2.3652
X-4.6026Y2.3891
X-4.5896Y2.4469
X-4.5394Y2.4459
X-4.5384Y2.3091
X-4.5365Y2.3564
X-4.4873Y2.3554
X-4.4853Y2.444
X-4.4676Y2.6753
X-4.4479Y2.4469
X-4.4244Y2.6577
X-4.3966Y2.6502
X-4.3948Y2.4105
X-4.3918Y2.3229
X-4.3593Y2.5824
X-4.3593Y2.4115
X-4.3396Y2.3219
X-4.3022Y2.6005
X-4.2865Y2.2461
X-4.2796Y2.3377
X-4.2769Y2.3118
X-4.1644Y2.2619
X-4.1635Y2.3436
X-4.156Y2.3187
X-4.1074Y2.32
X-4.1034Y2.2274
X-4.0778Y2.4036
X-4.065Y2.318
X-4.0641Y2.2274
X-4.0159Y2.2071
X-4.007Y2.3682
X-3.9952Y2.1851
X-3.9587Y2.2648
X-3.94Y2.4233
X-3.9282Y-0.3877
X-3.9282Y-0.6712
X-3.9243Y-0.0216
X-3.9194Y2.2629
X-3.8859Y-0.4655
X-3.881Y-0.7145
X-3.8731Y2.2146
X-3.8534Y0.0375
X-3.8406Y2.0847
X-3.8357Y2.1772
X-3.8259Y-0.7735
X-3.8243Y-0.5489
X-3.8214Y0.1325
X-3.8101Y0.2894
X-3.7978Y0.2546
X-3.7953Y0.135
X-3.7885Y2.0837
X-3.7845Y2.1753
X-3.7826Y-0.8129
X-3.7715Y0.2525
X-3.7707Y-0.746
X-3.7701Y-0.5712
X-3.7697Y-0.5276
X-3.7696Y-0.7023
X-3.7696Y-0.6149
X-3.7696Y-0.6586
X-3.7665Y0.1347
X-3.7582Y2.0408
X-3.757Y2.068
X-3.7496Y-0.5494
X-3.7496Y-0.5931
X-3.7496Y-0.6368
X-3.7496Y-0.6804
X-3.7471Y-0.7224
X-3.7471Y-0.7696
X-3.7393Y2.2894
X-3.7393Y0.1359
X-3.7383Y0.2525
X-3.7314Y-3.4546
X-3.7156Y-3.4153
X-3.7097Y-2.4487
X-3.7081Y0.2525
X-3.7078Y0.1713
X-3.6799Y0.2525
X-3.6596Y-0.4099
X-3.6448Y-2.4153
X-3.6438Y2.007
X-3.6408Y2.065
X-3.6408Y0.2894
X-3.633Y-0.805
X-3.629Y-2.4468
X-3.6251Y-0.494
X-3.6246Y-0.4099
X-3.6172Y-0.2657
X-3.6133Y-0.7224
X-3.6133Y-0.7483
X-3.6133Y-0.7743
X-3.6103Y1.9922
X-3.6054Y2.0808
X-3.5946Y-0.0949
X-3.5946Y-0.1549
X-3.5946Y-0.2149
X-3.5857Y-0.057
X-3.5739Y1.7186
X-3.57Y2.0424
X-3.5621Y1.8328
X-3.5542Y1.6241
X-3.5542Y-3.3956
X-3.5534Y-3.2651
X-3.5534Y-3.3599
X-3.5496Y-0.1249
X-3.5496Y-0.1849
X-3.5496Y-0.2449
X-3.5439Y2.1551
X-3.5267Y2.0404
X-3.5267Y1.7186
X-3.5267Y0.4036
X-3.5227Y-2.4074
X-3.5188Y-2.4468
X-3.5188Y-2.4743
X-3.5148Y-3.2657
X-3.5109Y-0.3483
X-3.5109Y-2.5098
X-3.4991Y-0.7854
X-3.4939Y1.6945
X-3.4935Y-0.431
X-3.4912Y2.1792
X-3.4912Y1.9755
X-3.4832Y0.4428
X-3.4829Y1.721
X-3.4696Y-0.2749
X-3.4645Y0.4045
X-3.4625Y1.7049
X-3.4597Y1.9292
X-3.4568Y1.8328
X-3.4479Y0.1477
X-3.4444Y0.4246
X-3.444Y0.4902
X-3.4421Y1.6845
X-3.4367Y1.6578
X-3.4322Y2.0148
X-3.4322Y1.9312
X-3.4243Y-0.3365
X-3.4156Y-0.2829
X-3.4146Y0.1101
X-3.4109Y1.6532
X-3.4026Y-0.2569
X-3.3946Y-0.3049
X-3.3869Y1.8259
X-3.3849Y1.8918
X-3.3846Y0.1551
X-3.3546Y0.1101
X-3.3246Y0.1551
X-3.315Y1.7491
X-3.3062Y1.8446
X-3.2946Y0.1101
X-3.2757Y1.8003
X-3.2757Y1.7206
X-3.2696Y-0.1999
X-3.2696Y-0.2499
X-3.2696Y-0.2999
X-3.2646Y0.1551
X-3.2353Y1.817
X-3.2346Y0.1101
X-3.2309Y1.5851
X-3.2309Y1.5591
X-3.2196Y-0.1999
X-3.2196Y-0.2499
X-3.2196Y-0.2999
X-3.2046Y0.1551
X-3.2038Y1.6526
X-3.194Y1.7481
X-3.1881Y1.4498
X-3.1746Y0.1101
X-3.1696Y-0.1999
X-3.1696Y-0.2499
X-3.1696Y-0.2999
X-3.1696Y-0.5649
X-3.1684Y1.3997
X-3.1615Y1.7019
X-3.1506Y1.8805
X-3.1487Y1.4824
X-3.1446Y0.1551
X-3.1369Y-0.5767
X-3.129Y1.1933
X-3.1247Y1.3936
X-3.1172Y1.2265
X-3.1152Y1.6349
X-3.1146Y0.1101
X-3.1074Y1.5404
X-3.1054Y1.8013
X-3.0975Y1.9351
X-3.0896Y1.2501
X-3.0846Y0.1551
X-3.0843Y0.4847
X-3.0843Y0.4587
X-3.0843Y0.4272
X-3.0818Y0.3721
X-3.0818Y0.2816
X-3.0778Y1.6349
X-3.0778Y0.5257
X-3.0546Y0.1101
X-3.0528Y1.7278
X-3.0483Y1.5581
X-3.0472Y1.6937
X-3.0385Y1.7934
X-3.0306Y1.1831
X-3.0246Y0.1551
X-3.0129Y1.5581
X-2.9991Y1.1831
X-2.9946Y0.1101
X-2.9637Y1.6113
X-2.9637Y1.3564
X-2.9637Y0.0887
X-2.9519Y1.1713
X-2.9351Y1.5148
X-2.9292Y1.6103
X-2.8997Y1.4804
X-2.8692Y1.5454
X-2.8596Y-0.0549
X-2.8596Y-0.1149
X-2.8596Y-0.1749
X-2.8596Y-0.2349
X-2.8596Y-0.2949
X-2.8596Y-0.3549
X-2.8596Y-0.4149
X-2.8596Y-0.4749
X-2.8596Y-0.5349
X-2.8534Y-0.6043
X-2.8416Y-0.0255
X-2.8367Y1.4154
X-2.8146Y-0.0849
X-2.8146Y-0.1449
X-2.8146Y-0.2049
X-2.8146Y-0.2649
X-2.8146Y-0.3249
X-2.8146Y-0.3849
X-2.8146Y-0.4449
X-2.8146Y-0.5049
X-2.8146Y-0.5649
X-2.8052Y1.5119
X-2.8003Y1.3643
X-2.7904Y-0.5334
X-2.7835Y1.4656
X-2.7471Y1.4745
X-2.7393Y1.6359
X-2.7376Y1.2933
X-2.7311Y-0.1003
X-2.7204Y1.4454
X-2.7117Y1.2954
X-2.7051Y-0.1003
X-2.6861Y1.3702
X-2.6791Y-0.1003
X-2.6694Y1.2742
X-2.6448Y-0.1003
X-2.6251Y1.318
X-2.6143Y1.2225
X-2.5936Y1.3643
X-2.5857Y1.32
X-2.5788Y1.2225
X-2.5778Y1.4706
X-2.5188Y1.3091
X-2.4824Y1.1851
X-2.4774Y1.2796
X-2.4361Y1.065
X-2.4331Y1.2796
X-2.4302Y1.1851
X-2.382Y1.1595
X-2.3377Y1.2107
X-2.319Y1.1143
X-2.3041Y1.2532
X-2.2983Y1.2087
X-2.2676Y1.3625
X-2.2589Y1.1556
X-2.2589Y1.0808
X-2.2314Y1.3918
X-2.2137Y1.0404
X-2.2107Y1.1389
X-2.1694Y1.1398
X-2.1615Y1.0444
X-2.1251Y1.0887
X-2.0975Y0.8524
X-2.0759Y1.1723
X-2.0719Y1.069
X-2.0198Y1.069
X-1.9873Y1.1359
X-1.9755Y1.0099
X-1.945Y0.9902
X-1.944Y1.0857
X-1.9361Y1.1477
X-1.9351Y1.2432
X-1.9204Y1.2894
X-1.8928Y0.9893
X-1.8908Y1.0847
X-1.882Y1.1477
X-1.881Y1.2432
X-1.8479Y1.1749
X-1.8377Y0.8446
X-1.8298Y1.0572
X-1.8194Y1.2189
X-1.8081Y1.0089
X-1.8072Y0.9125
X-1.7948Y0.7858
X-1.7872Y0.8792
X-1.7747Y1.1772
X-1.7727Y1.2757
X-1.755Y1.0089
X-1.754Y0.9115
X-1.7471Y0.9745
X-1.7186Y1.1782
X-1.7186Y0.882
X-1.7176Y1.2747
X-1.7166Y0.8495
X-1.6369Y1.5217
X-1.6261Y1.3495
X-1.6143Y1.2511
X-1.6143Y1.0291
X-1.6054Y0.4981
X-1.5985Y0.8918
X-1.5985Y0.8593
X-1.5975Y0.5965
X-1.5896Y0.1753
X-1.5818Y1.3524
X-1.568Y1.2511
X-1.5503Y0.8524
X-1.5503Y0.758
X-1.5267Y0.7186
X-1.5178Y0.5168
X-1.5119Y0.5483
X-1.5119Y0.3918
X-1.5109Y0.3603
X-1.507Y0.8918
X-1.4971Y1.2235
X-1.4942Y0.757
X-1.4932Y0.8495
X-1.4893Y1.441
X-1.4873Y1.3406
X-1.4866Y0.9484
X-1.4814Y0.6339
X-1.4676Y1.0572
X-1.4526Y1.16
X-1.4499Y1.445
X-1.4479Y1.2865
X-1.4361Y1.3416
X-1.4263Y0.7304
X-1.4253Y0.6359
X-1.4095Y1.2885
X-1.4085Y1.5099
X-1.4007Y1.3643
X-1.3938Y0.2087
X-1.3928Y0.8377
X-1.3928Y0.7422
X-1.3908Y0.5158
X-1.3908Y0.3928
X-1.3889Y0.5454
X-1.3879Y0.3593
X-1.3849Y1.7855
X-1.3751Y1.2274
X-1.3741Y1.1536
X-1.366Y0.7472
X-1.3652Y0.2087
X-1.3633Y0.3111
X-1.3613Y1.5444
X-1.3436Y1.443
X-1.3387Y1.0916
X-1.3357Y0.8377
X-1.3337Y0.7412
X-1.3298Y0.3141
X-1.3141Y1.5444
X-1.3141Y0.8997
X-1.3101Y1.445
X-1.3067Y0.7955
X-1.2993Y0.1477
X-1.2973Y0.1812
X-1.2944Y1.2934
X-1.2944Y0.0257
X-1.2934Y1.1861
X-1.2786Y1.5887
X-1.278Y1.5351
X-1.2672Y1.2316
X-1.256Y1.127
X-1.2471Y1.506
X-1.2343Y0.8328
X-1.2333Y0.7393
X-1.2324Y1.6389
X-1.2215Y1.5414
X-1.2176Y1.1448
X-1.2087Y0.0257
X-1.2068Y0.7423
X-1.2068Y0.0562
X-1.193Y1.0513
X-1.1881Y1.7186
X-1.1822Y1.6379
X-1.1812Y1.1448
X-1.1802Y1.5404
X-1.1802Y0.8337
X-1.1802Y0.7383
X-1.1743Y0.1507
X-1.1733Y0.1812
X-1.1723Y0.88
X-1.1615Y1.0493
X-1.1566Y1.4942
X-1.1369Y1.2855
X-1.1324Y1.3691
X-1.1221Y0.0916
X-1.1202Y-0.0718
X-1.1192Y-0.1043
X-1.1143Y1.7422
X-1.1133Y1.6162
X-1.1093Y0.6359
X-1.1041Y1.2726
X-1.0896Y1.6428
X-1.0847Y0.82
X-1.0828Y0.0355
X-1.0818Y1.9548
X-1.0808Y0.7294
X-1.0788Y1.7402
X-1.0778Y0.9627
X-1.07Y1.1743
X-1.069Y-0.2056
X-1.068Y-0.2371
X-1.066Y1.0828
X-1.0562Y1.6428
X-1.0463Y1.7658
X-1.0385Y-0.4743
X-1.0257Y0.7314
X-1.0247Y0.8229
X-1.0188Y0.443
X-1.0168Y1.0847
X-1.0148Y1.1792
X-0.9961Y-0.1052
X-0.9942Y-0.0708
X-0.9873Y1.8396
X-0.9794Y1.6871
X-0.9725Y1.7412
X-0.9519Y0.7265
X-0.9479Y0.2737
X-0.9479Y0.006
X-0.9479Y-0.3178
X-0.943Y-0.2361
X-0.942Y-0.2076
X-0.941Y1.8377
X-0.9312Y1.7393
X-0.9243Y0.8032
X-0.9135Y1.1733
X-0.9085Y1.0818
X-0.9039Y0.5085
X-0.8928Y-0.2686
X-0.881Y1.9076
X-0.877Y1.6438
X-0.8711Y0.8003
X-0.8681Y0.4712
X-0.8583Y-0.2657
X-0.8574Y1.1723
X-0.8564Y1.0798
X-0.8456Y1.9282
X-0.8456Y-0.3582
X-0.8416Y0.7265
X-0.8239Y1.8249
X-0.8101Y1.9272
X-0.8062Y0.7235
X-0.8003Y-0.3552
X-0.7983Y2.1792
X-0.7906Y0.5454
X-0.7904Y1.9784
X-0.7875Y1.8239
X-0.7698Y0.7914
X-0.7678Y-0.2883
X-0.7589Y1.758
X-0.756Y1.1743
X-0.753Y1.0828
X-0.7432Y1.8918
X-0.7432Y0.3761
X-0.7245Y0.7894
X-0.7156Y-0.3877
X-0.7137Y-0.2903
X-0.7087Y1.9243
X-0.7028Y1.0798
X-0.7028Y0.693
X-0.7019Y2.0207
X-0.7019Y1.1723
X-0.6664Y2.0217
X-0.6625Y1.9263
X-0.6468Y0.349
X-0.645Y1.4364
X-0.633Y-0.2145
X-0.6113Y0.6851
X-0.6093Y0.7776
X-0.6074Y-0.4694
X-0.6005Y1.1753
X-0.5995Y1.0818
X-0.5975Y-0.3759
X-0.5709Y2.0798
X-0.5621Y1.9833
X-0.5621Y0.4351
X-0.5581Y2.3131
X-0.5562Y0.7767
X-0.5562Y0.6871
X-0.5532Y-0.4231
X-0.5503Y-0.3838
X-0.5463Y1.1723
X-0.5434Y1.0847
X-0.5424Y0.0454
X-0.5394Y-0.5029
X-0.5306Y1.88
X-0.5257Y2.0837
X-0.5148Y1.9833
X-0.507Y-0.4291
X-0.503Y0.1831
X-0.5001Y0.6467
X-0.4873Y0.5808
X-0.4794Y2.0769
X-0.4715Y2.1635
X-0.4566Y1.728
X-0.4548Y-0.432
X-0.4509Y-0.5206
X-0.4469Y1.1831
X-0.441Y0.7117
X-0.44Y-0.3247
X-0.4361Y1.0729
X-0.4144Y0.6211
X-0.4115Y2.1211
X-0.4085Y2.0257
X-0.4007Y0.7619
X-0.3918Y-0.5422
X-0.3908Y1.1802
X-0.3859Y1.0798
X-0.382Y0.6969
X-0.3682Y2.0267
X-0.3633Y2.1221
X-0.3613Y-0.4842
X-0.3539Y0.3141
X-0.3318Y0.57
X-0.3288Y0.6654
X-0.3081Y-0.4842
X-0.3062Y-0.5718
X-0.2914Y1.1133
X-0.2875Y1.2019
X-0.2776Y0.6625
X-0.2757Y0.57
X-0.2707Y-0.8602
X-0.2599Y2.1723
X-0.254Y2.0759
X-0.254Y-0.6121
X-0.2353Y1.8603
X-0.2343Y1.1133
X-0.2324Y1.2038
X-0.2294Y2.1723
X-0.2225Y-0.56
X-0.2156Y2.3181
X-0.2097Y2.0769
X-0.2038Y0.8957
X-0.2013Y2.2127
X-0.2013Y1.5883
X-0.2013Y1.4152
X-0.1959Y0.5198
X-0.1841Y-0.3405
X-0.1704Y-0.5609
X-0.1684Y-0.6495
X-0.1566Y0.6123
X-0.1559Y2.0906
X-0.1526Y2.1359
X-0.1517Y0.5207
X-0.133Y1.1438
X-0.128Y1.2373
X-0.1214Y2.0466
X-0.1202Y2.2333
X-0.1127Y2.1434
X-0.1044Y0.6083
X-0.0926Y1.8918
X-0.0759Y1.2333
X-0.0739Y1.1428
X-0.0719Y0.4479
X-0.07Y2.3761
X-0.068Y-0.5964
X-0.068Y-0.684
X-0.065Y2.1408
X-0.0621Y2.2304
X-0.0541Y1.8574
X-0.0267Y1.1123
X-0.0217Y0.4479
X-0.0207Y0.5365
X-0.0158Y-0.5993
X-0.0148Y3.002
X-0.0137Y2.2461
X0.0088Y2.7737
X0.0137Y1.1969
X0.0157Y1.2973
X0.0206Y1.9824
X0.0235Y-0.6692
X0.0393Y0.5207
X0.0393Y0.1024
X0.0403Y2.2511
X0.0403Y2.1615
X0.0442Y3.4076
X0.0442Y2.9312
X0.0476Y0.9788
X0.0678Y1.3431
X0.0678Y1.2963
X0.0688Y1.1989
X0.0777Y-0.6111
X0.0806Y-0.7037
X0.0944Y2.252
X0.0954Y2.1595
X0.0993Y3.3446
X0.0993Y3.2816
X0.0993Y3.2186
X0.0993Y3.1556
X0.0993Y3.0965
X0.0993Y3.0335
X0.0993Y2.9706
X0.0993Y2.9076
X0.0993Y2.8446
X0.1033Y0.9509
X0.1082Y0.5335
X0.1102Y0.4351
X0.123Y2.7816
X0.1328Y-0.0896
X0.1328Y-0.6151
X0.1328Y-0.7017
X0.1505Y3.4115
X0.1505Y3.3761
X0.1505Y3.3131
X0.1505Y3.2501
X0.1505Y3.1871
X0.1505Y3.1241
X0.1505Y3.065
X0.1505Y3.002
X0.1505Y2.9391
X0.1505Y2.8761
X0.1505Y2.8131
X0.1594Y0.5276
X0.1623Y2.1556
X0.1623Y0.8485
X0.1633Y0.4371
X0.1722Y1.2954
X0.1722Y1.1989
X0.1741Y2.7776
X0.1915Y2.0175
X0.1915Y1.3691
X0.1978Y2.502
X0.2017Y2.2609
X0.2027Y2.1694
X0.2174Y2.4036
X0.2263Y1.2009
X0.2273Y1.2954
X0.2322Y-0.6397
X0.2332Y-0.242
X0.2332Y-0.7253
X0.2371Y2.0808
X0.244Y0.3997
X0.2471Y1.9622
X0.2495Y1.9133
X0.2558Y2.1674
X0.2568Y2.6831
X0.2568Y2.2619
X0.2647Y2.3608
X0.2765Y2.7304
X0.2775Y0.4952
X0.2844Y0.3987
X0.2859Y2.0587
X0.2873Y-0.7263
X0.2883Y-0.6397
X0.2922Y3.4154
X0.2922Y2.2776
X0.2962Y2.4981
X0.3041Y2.6083
X0.3115Y2.2501
X0.3163Y2.478
X0.3178Y0.4942
X0.3188Y1.2009
X0.3198Y1.3003
X0.3277Y1.9194
X0.3356Y2.6595
X0.3395Y2.4548
X0.3395Y2.2698
X0.3418Y2.0843
X0.3592Y2.1605
X0.3602Y2.2501
X0.367Y2.4347
X0.371Y2.6083
X0.371Y2.0843
X0.3739Y1.3032
X0.3749Y1.2019
X0.3759Y1.3396
X0.3872Y2.4062
X0.3897Y-0.6672
X0.3926Y-0.7529
X0.3985Y2.6595
X0.3985Y0.4646
X0.4025Y2.2934
X0.4104Y3.3957
X0.4104Y1.4017
X0.4123Y2.1595
X0.4143Y0.3702
X0.4163Y2.253
X0.43Y2.6083
X0.4367Y2.3091
X0.4419Y3.3682
X0.4448Y-0.6672
X0.4497Y-0.7529
X0.4611Y2.2934
X0.4615Y2.6595
X0.4655Y0.3692
X0.466Y1.4017
X0.4684Y1.3081
X0.4694Y3.0532
X0.4694Y2.9902
X0.4733Y3.2855
X0.4847Y2.3091
X0.4881Y0.4686
X0.493Y2.6083
X0.497Y-0.7696
X0.5048Y2.2732
X0.5176Y2.1733
X0.5245Y2.6595
X0.5324Y1.9838
X0.5367Y1.2234
X0.5383Y-0.7253
X0.5521Y3.0532
X0.5521Y2.9942
X0.5541Y1.4125
X0.5541Y1.32
X0.556Y2.6083
X0.5708Y0.3889
X0.5718Y2.2732
X0.5728Y2.1713
X0.5728Y0.3013
X0.5757Y2.3249
X0.5816Y-0.7243
X0.5875Y2.6595
X0.5915Y-1.0609
X0.5989Y2.3366
X0.6033Y0.2924
X0.6066Y2.2657
X0.6072Y2.1009
X0.6092Y1.4144
X0.6107Y2.2914
X0.6111Y2.2028
X0.6131Y1.318
X0.6136Y2.358
X0.619Y2.6083
X0.619Y0.3898
X0.622Y-0.7696
X0.6316Y2.116
X0.6466Y2.4469
X0.6505Y2.6595
X0.6584Y1.5217
X0.6663Y3.2186
X0.6702Y2.4745
X0.6741Y1.6517
X0.6741Y0.3643
X0.6815Y2.0377
X0.682Y2.6083
X0.684Y-0.9133
X0.685Y-0.8188
X0.685Y2.1841
X0.6899Y1.2343
X0.6968Y0.2914
X0.6968Y0.2087
X0.7017Y-0.2657
X0.7096Y3.0261
X0.7106Y-0.9133
X0.7135Y2.6595
X0.7145Y1.4017
X0.7174Y2.3524
X0.7174Y1.3013
X0.7214Y2.2845
X0.7214Y2.192
X0.7243Y-0.8178
X0.7381Y3.042
X0.7529Y2.443
X0.7578Y0.2816
X0.7607Y3.4272
X0.7647Y2.5887
X0.7657Y0.2461
X0.7706Y1.3032
X0.7726Y1.728
X0.7726Y1.3997
X0.7824Y3.1448
X0.7865Y-0.3845
X0.7908Y0.5863
X0.7925Y2.8341
X0.7972Y-0.8838
X0.7981Y-0.7913
X0.8104Y3.4238
X0.8106Y3.3029
X0.8112Y3.3432
X0.8115Y3.3835
X0.8149Y0.2353
X0.8159Y3.2626
X0.8178Y2.3013
X0.8198Y2.7776
X0.8198Y2.6359
X0.8198Y0.1408
X0.8228Y2.2058
X0.8336Y3.3231
X0.834Y3.2828
X0.8341Y3.4036
X0.8342Y3.3633
X0.8406Y-0.4567
X0.8483Y-0.7893
X0.8503Y-0.8848
X0.8513Y0.6556
X0.8552Y0.8091
X0.8577Y2.8334
X0.8592Y1.4233
X0.8611Y1.2442
X0.8631Y3.0296
X0.8631Y2.9666
X0.8631Y2.9036
X0.868Y2.2068
X0.869Y2.3013
X0.871Y0.2343
X0.8759Y0.1448
X0.8787Y1.1732
X0.8789Y3.0999
X0.8808Y1.3465
X0.8828Y3.4233
X0.8855Y-0.4842
X0.8867Y1.7698
X0.8907Y3.2461
X0.8907Y0.0808
X0.8985Y2.8367
X0.8999Y0.1882
X0.9064Y2.3485
X0.9112Y3.0512
X0.9122Y-0.7922
X0.9123Y1.2452
X0.9143Y2.9981
X0.9143Y2.9351
X0.9143Y2.8721
X0.9271Y3.0717
X0.9271Y1.3446
X0.93Y2.2383
X0.9332Y1.8019
X0.9428Y-0.8543
X0.9448Y2.2757
X0.9724Y0.2255
X0.9763Y0.131
X0.9766Y0.1019
X0.997Y-0.8513
X0.9989Y2.2757
X1.0147Y1.2324
X1.0173Y2.0148
X1.0176Y1.3288
X1.0206Y3.1674
X1.0226Y0.2265
X1.0265Y0.132
X1.0304Y-0.7794
X1.0324Y3.4233
X1.0363Y2.3367
X1.0442Y0.9194
X1.047Y2.0139
X1.0481Y2.4902
X1.0521Y2.2698
X1.0521Y0.0572
X1.0521Y0.0572
X1.0584Y0.6083
X1.0607Y-0.5609
X1.0639Y2.6398
X1.064Y0.9788
X1.0663Y1.5607
X1.0718Y1.2333
X1.0728Y-0.8267
X1.0843Y1.4649
X1.0897Y1.9729
X1.0974Y-0.742
X1.1033Y3.4233
X1.1033Y2.3367
X1.1096Y1.3406
X1.1096Y1.3121
X1.1111Y2.3643
X1.1116Y2.2427
X1.1151Y-2.805
X1.119Y0.2737
X1.121Y-0.8267
X1.1214Y-0.6942
X1.1216Y2.216
X1.123Y1.2393
X1.1234Y1.0291
X1.1279Y0.2078
X1.1318Y0.1172
X1.1333Y1.4161
X1.1348Y1.3603
X1.1348Y-2.8917
X1.1363Y1.3903
X1.1371Y-2.8366
X1.1404Y-0.6151
X1.1424Y0.4352
X1.1436Y-0.7371
X1.1466Y3.1792
X1.1504Y-2.8642
X1.1584Y3.4233
X1.1594Y0.0689
X1.1741Y2.0769
X1.18Y0.2048
X1.1869Y0.1123
X1.1879Y-0.6397
X1.2017Y0.4264
X1.2056Y-0.0806
X1.2096Y-0.0334
X1.2104Y-2.8366
X1.2104Y-2.8642
X1.2135Y3.4272
X1.2145Y-0.7076
X1.2184Y-0.7824
X1.2201Y-0.0016
X1.2214Y1.2225
X1.2214Y0.0257
X1.2214Y-2.8011
X1.2226Y0.4516
X1.2228Y0.0654
X1.2239Y1.3249
X1.2371Y-2.9035
X1.2461Y2.1496
X1.2568Y3.4233
X1.2696Y-0.7007
X1.2706Y-0.7785
X1.2883Y2.258
X1.2883Y0.069
X1.2893Y2.3672
X1.2917Y2.5369
X1.2917Y2.4575
X1.2921Y0.0315
X1.2922Y-0.0058
X1.2922Y-0.0373
X1.2922Y0.1831
X1.2959Y0.7845
X1.2976Y1.3106
X1.3001Y0.3945
X1.305Y3.4205
X1.323Y0.6554
X1.3287Y0.1713
X1.3321Y3.4219
X1.3326Y1.3278
X1.3326Y0.0759
X1.3336Y1.2255
X1.3365Y2.3564
X1.3365Y2.2707
X1.3395Y-0.0609
X1.3592Y3.4233
X1.3592Y0.7304
X1.363Y2.217
X1.371Y2.1674
X1.3749Y2.4272
X1.3749Y1.3269
X1.376Y1.4362
X1.3779Y1.2284
X1.381Y1.5126
X1.3828Y2.5926
X1.3833Y2.2378
X1.3854Y3.4259
X1.3964Y1.7752
X1.3976Y-0.6899
X1.3996Y1.475
X1.4017Y1.5522
X1.4054Y-0.7785
X1.4133Y3.4263
X1.4143Y2.2028
X1.4222Y0.1743
X1.4231Y0.0818
X1.424Y1.5306
X1.4414Y3.4268
X1.4422Y2.3551
X1.4497Y-0.9901
X1.4517Y-0.6909
X1.4537Y2.3057
X1.4576Y2.1989
X1.4606Y-0.7765
X1.4694Y3.4272
X1.4704Y0.1753
X1.4733Y-0.0531
X1.4763Y0.0837
X1.4832Y1.3229
X1.492Y1.2255
X1.5001Y3.4587
X1.5088Y2.1989
X1.5167Y2.3052
X1.5208Y0.0667
X1.5217Y3.4386
X1.5324Y1.3229
X1.5363Y3.4814
X1.5363Y1.4115
X1.5363Y1.2265
X1.5432Y0.2599
X1.5442Y3.254
X1.5471Y1.5926
X1.5481Y0.9666
X1.5521Y2.2225
X1.5541Y-0.684
X1.5541Y-0.7726
X1.556Y3.6202
X1.556Y2.3091
X1.56Y3.5709
X1.56Y3.542
X1.56Y3.5016
X1.56Y3.4613
X1.5659Y0.1694
X1.5678Y1.6202
X1.5789Y3.2659
X1.5836Y3.584
X1.5915Y1.8761
X1.5974Y0.2619
X1.5983Y2.3377
X1.5993Y2.2511
X1.6048Y3.2659
X1.6062Y-0.685
X1.6072Y0.1684
X1.6082Y-0.7745
X1.6296Y0.2632
X1.6308Y3.2659
X1.6308Y-0.2617
X1.6377Y1.315
X1.6436Y1.2215
X1.6448Y0.3945
X1.6491Y3.5034
X1.6525Y2.3377
X1.6535Y2.2501
X1.6544Y0.4391
X1.6549Y0.3209
X1.6584Y3.6202
X1.6647Y1.7954
X1.6663Y3.258
X1.6741Y0.0926
X1.684Y3.4223
X1.6859Y3.4538
X1.6879Y-0.7381
X1.6899Y1.316
X1.6944Y0.2823
X1.6948Y1.2166
X1.7046Y0.2481
X1.7046Y-0.6515
X1.7066Y0.1526
X1.7135Y3.5375
X1.7253Y2.0493
X1.7401Y2.4056
X1.7411Y-2.0373
X1.745Y2.3091
X1.745Y1.2265
X1.746Y1.1861
X1.7499Y3.3948
X1.7539Y0.2471
X1.7568Y2.4312
X1.7607Y-0.6515
X1.7647Y0.1546
X1.7686Y3.6123
X1.7831Y0.2477
X1.7863Y2.4046
X1.7922Y3.3406
X1.7922Y-0.7302
X1.7962Y3.3101
X1.7972Y2.3111
X1.8001Y2.5257
X1.8051Y-0.6965
X1.8104Y-1.9699
X1.8104Y-2.1099
X1.8119Y3.1989
X1.8119Y-0.4901
X1.8129Y0.2589
X1.8169Y3.4627
X1.8208Y1.2668
X1.8257Y-0.7283
X1.8326Y1.1635
X1.8356Y2.3288
X1.8395Y1.4351
X1.8434Y3.569
X1.8474Y2.8603
X1.8492Y-0.4841
X1.8562Y0.2019
X1.8582Y-0.6554
X1.8631Y3.2038
X1.8641Y3.1713
X1.8759Y2.3908
X1.8779Y2.4814
X1.8789Y-0.5019
X1.8798Y0.2954
X1.8828Y2.6083
X1.9005Y0.2009
X1.9104Y3.4784
X1.9104Y3.3839
X1.9104Y-0.6594
X1.9113Y1.1015
X1.9143Y1.2087
X1.9198Y2.3029
X1.9271Y3.3081
X1.9281Y2.4824
X1.9281Y2.3908
X1.93Y2.695
X1.9409Y-0.744
X1.9419Y-3.2657
X1.9458Y2.5178
X1.9537Y1.6871
X1.9546Y3.068
X1.9615Y1.9312
X1.9615Y1.2097
X1.9655Y1.1064
X1.9699Y3.317
X1.9733Y3.4272
X1.9733Y0.9154
X1.9778Y3.2762
X1.9861Y-0.7401
X1.9891Y3.3446
X1.9901Y2.9942
X1.9928Y3.255
X1.9935Y3.2969
X1.996Y3.2038
X1.996Y3.1723
X1.997Y2.4233
X2.0009Y-0.1161
X2.0039Y0.2668
X2.0054Y-1.7949
X2.0054Y-1.8549
X2.0054Y-1.9149
X2.0054Y-1.9599
X2.0068Y2.5463
X2.0088Y-1.742
X2.0088Y-3.431
X2.0137Y-0.6594
X2.019Y3.2159
X2.0202Y3.2463
X2.0206Y0.3593
X2.0285Y2.4528
X2.0324Y2.9666
X2.0339Y2.6989
X2.0363Y2.8288
X2.0403Y2.5463
X2.0432Y1.2816
X2.0434Y-3.2971
X2.0434Y-3.3599
X2.0442Y0.195
X2.0462Y1.1851
X2.0472Y2.8052
X2.0481Y0.2648
X2.0504Y-1.8249
X2.0504Y-1.8849
X2.0541Y2.6015
X2.056Y2.632
X2.057Y0.3633
X2.0595Y3.1994
X2.06Y3.2254
X2.0639Y2.4519
X2.0678Y3.1744
X2.0708Y-0.6604
X2.0767Y3.066
X2.0787Y3.0345
X2.0854Y-2.0899
X2.0964Y-0.7391
X2.1003Y1.6177
X2.1013Y1.1831
X2.1023Y1.2786
X2.1065Y-2.156
X2.1104Y-2.0499
X2.1111Y-3.2893
X2.112Y2.8091
X2.1124Y-1.9552
X2.1126Y3.0894
X2.1141Y0.4115
X2.1151Y2.7078
X2.1151Y-2.2381
X2.1161Y2.9646
X2.1161Y0.3209
X2.117Y2.8643
X2.119Y-3.431
X2.1344Y-1.9741
X2.1367Y-0.7342
X2.1387Y-1.7578
X2.1417Y2.6684
X2.1426Y-2.3641
X2.1544Y-1.5294
X2.1613Y-0.6466
X2.1649Y1.482
X2.1741Y2.3209
X2.1791Y2.6251
X2.184Y2.5217
X2.1854Y-1.5899
X2.1859Y2.4873
X2.1889Y0.319
X2.1928Y1.2678
X2.1928Y1.1674
X2.1978Y2.8879
X2.2017Y0.254
X2.2054Y2.7316
X2.2057Y2.7609
X2.2145Y0.4174
X2.2145Y-0.6456
X2.2154Y-1.5449
X2.2253Y-2.2302
X2.2332Y3.0887
X2.2371Y2.565
X2.2411Y2.1202
X2.244Y1.2639
X2.2454Y-1.5899
X2.247Y1.1654
X2.2489Y-0.7263
X2.2578Y2.3672
X2.2598Y2.3977
X2.2754Y-1.5449
X2.2765Y-0.8917
X2.2893Y-0.7224
X2.2903Y-0.6436
X2.2942Y0.3101
X2.2952Y0.4095
X2.3054Y-1.5899
X2.309Y2.4932
X2.309Y2.2117
X2.3109Y2.2452
X2.3198Y2.8682
X2.3304Y-1.8999
X2.3304Y-1.9499
X2.3304Y-1.9999
X2.3354Y-1.5449
X2.3356Y0.258
X2.3395Y2.4942
X2.3513Y2.0975
X2.3513Y1.252
X2.3513Y0.4105
X2.3522Y-0.0923
X2.3523Y2.065
X2.3533Y1.1556
X2.3543Y0.316
X2.3654Y-1.5899
X2.3804Y-1.8999
X2.3804Y-1.9499
X2.3804Y-1.9999
X2.3818Y2.3643
X2.3926Y-0.6417
X2.3954Y-1.5449
X2.399Y2.4154
X2.4035Y1.1546
X2.4044Y-0.7106
X2.4222Y1.2619
X2.4241Y1.9223
X2.4251Y1.9538
X2.4254Y-1.5899
X2.43Y2.443
X2.4302Y-0.7138
X2.4304Y-1.8999
X2.4304Y-1.9499
X2.4304Y-1.9999
X2.4315Y-2.2688
X2.434Y2.2442
X2.434Y2.2127
X2.4419Y0.4361
X2.4419Y0.3446
X2.4419Y1.4617
X2.4537Y-2.3011
X2.4554Y-1.5449
X2.4635Y-0.6495
X2.4698Y-2.2688
X2.4783Y2.067
X2.4822Y2.0975
X2.4854Y-1.5899
X2.495Y0.4381
X2.5009Y0.3436
X2.5014Y-0.1379
X2.5048Y1.2589
X2.5048Y1.1595
X2.5048Y0.1044
X2.5088Y2.5572
X2.5127Y1.8387
X2.5147Y1.8042
X2.5154Y-1.5449
X2.5157Y-0.6476
X2.5234Y2.099
X2.5454Y-1.5899
X2.5462Y-0.7263
X2.5501Y1.9223
X2.5531Y1.9528
X2.56Y1.1585
X2.5609Y1.258
X2.5678Y0.2461
X2.5697Y1.9995
X2.5754Y-1.5449
X2.5777Y-0.7371
X2.5915Y-2.2932
X2.5983Y0.4351
X2.6003Y0.3446
X2.6054Y-1.5899
X2.62Y-0.6781
X2.6304Y-2.3384
X2.6304Y-2.3821
X2.6304Y-2.4257
X2.6304Y-2.4694
X2.6336Y2.0629
X2.6338Y1.8318
X2.6367Y1.8702
X2.6426Y-1.5413
X2.6469Y-0.3845
X2.6504Y-2.4039
X2.6504Y-2.4476
X2.6505Y-2.4913
X2.6506Y-2.3165
X2.6509Y-2.3602
X2.6515Y0.3426
X2.6554Y0.4351
X2.6613Y1.2924
X2.6623Y1.193
X2.6643Y-0.68
X2.6791Y1.8072
X2.68Y1.7028
X2.6968Y-0.7332
X2.6978Y2.006
X2.7017Y1.9391
X2.7125Y-0.8149
X2.7135Y1.2924
X2.7135Y1.194
X2.7293Y2.2265
X2.7332Y0.8682
X2.7342Y1.8081
X2.7371Y1.7028
X2.7404Y-1.7549
X2.7404Y-1.8149
X2.7404Y-1.8749
X2.7404Y-1.9349
X2.7404Y-1.9949
X2.7404Y-2.0549
X2.7404Y-2.1149
X2.7404Y-2.1749
X2.7404Y-2.2349
X2.7451Y0.4935
X2.7451Y-0.5948
X2.7489Y-0.9231
X2.7509Y0.3259
X2.7531Y-0.4101
X2.7539Y0.4184
X2.7568Y-0.7539
X2.7607Y-2.309
X2.7667Y1.6733
X2.7692Y-0.9502
X2.7696Y1.6398
X2.7716Y1.8544
X2.7804Y-1.7224
X2.7854Y1.9489
X2.7854Y-1.7849
X2.7854Y-1.8449
X2.7854Y-1.9049
X2.7854Y-1.9649
X2.7854Y-2.0249
X2.7854Y-2.0849
X2.7854Y-2.1449
X2.7854Y-2.2049
X2.7854Y-2.2649
X2.7863Y1.7688
X2.8001Y0.258
X2.8041Y-0.7578
X2.808Y-0.896
X2.809Y0.4204
X2.809Y0.3318
X2.8178Y1.2914
X2.8198Y1.192
X2.8218Y2.0109
X2.8264Y1.5724
X2.8282Y1.8639
X2.8316Y-0.8011
X2.867Y1.2885
X2.868Y1.5306
X2.869Y1.5641
X2.871Y2.0788
X2.872Y1.193
X2.8779Y1.9135
X2.8818Y-0.8631
X2.8867Y-1.2578
X2.8877Y-0.9645
X2.8907Y1.6733
X2.8907Y-0.0137
X2.8926Y1.6408
X2.9005Y1.8022
X2.9025Y1.8387
X2.9025Y-0.2854
X2.9044Y0.2816
X2.9094Y2.127
X2.9094Y1.9735
X2.9094Y0.377
X2.935Y-0.0442
X2.9379Y1.817
X2.9409Y-0.0137
X2.9419Y-0.872
X2.9458Y-0.9369
X2.9468Y1.1123
X2.9507Y-0.1584
X2.9507Y-0.1919
X2.9517Y1.2117
X2.9546Y0.2826
X2.9546Y-0.9783
X2.9566Y0.3761
X2.9576Y2.0335
X2.9645Y1.4292
X2.9684Y1.3957
X2.9694Y-0.4586
X2.9861Y1.0276
X2.9891Y1.5611
X2.9901Y1.0581
X2.9911Y1.5296
X2.992Y0.13
X2.993Y1.2127
X2.994Y2.0788
X2.996Y0.0965
X3.0009Y0.6202
X3.0009Y0.2028
X3.0009Y-0.2824
X3.0019Y0.5217
X3.0029Y1.1113
X3.0078Y0.6763
X3.0088Y0.9371
X3.0088Y-0.3789
X3.0098Y0.8367
X3.0107Y0.7727
X3.0117Y0.4391
X3.0127Y0.2973
X3.0137Y0.2668
X3.0245Y-1.0117
X3.0255Y2.2294
X3.027Y-0.5784
X3.0275Y-0.8818
X3.0285Y-1.057
X3.0294Y-0.7962
X3.0334Y1.6585
X3.0344Y1.5601
X3.0403Y0.3751
X3.0422Y2.13
X3.0472Y-0.9104
X3.0531Y-0.4507
X3.0531Y-0.4842
X3.0609Y2.2284
X3.0619Y-0.0157
X3.0629Y-0.2873
X3.0629Y-0.7922
X3.0649Y-0.0462
X3.0737Y2.13
X3.0757Y-0.9546
X3.0767Y-0.1919
X3.0777Y0.6241
X3.0777Y-0.1574
X3.0816Y0.9361
X3.0826Y0.8357
X3.0826Y0.7786
X3.0856Y1.4292
X3.0865Y0.5267
X3.0875Y1.6585
X3.0885Y1.3957
X3.0885Y0.6763
X3.0905Y1.5591
X3.0915Y-0.8552
X3.0964Y1.194
X3.0974Y1.0975
X3.0993Y-0.1121
X3.0993Y-0.3474
X3.1013Y1.2491
X3.1023Y0.3308
X3.1026Y-0.6057
X3.1102Y1.0581
X3.1102Y1.0247
X3.1102Y-1.0826
X3.1121Y0.2333
X3.1151Y2.4863
X3.1151Y0.129
X3.1151Y0.0985
X3.117Y-0.9871
X3.119Y-0.9468
X3.123Y2.0296
X3.1249Y1.3515
X3.1279Y1.2511
X3.1308Y-0.5924
X3.1318Y0.4036
X3.1348Y-0.5609
X3.1357Y0.4381
X3.1426Y-1.2106
X3.1456Y1.194
X3.1456Y-0.745
X3.1485Y2.317
X3.1505Y-0.3208
X3.1525Y1.0956
X3.1584Y1.5778
X3.1584Y1.3505
X3.1613Y0.2363
X3.1613Y-1.0846
X3.1722Y-0.9891
X3.181Y2.2225
X3.182Y2.317
X3.184Y-0.4822
X3.185Y-0.4527
X3.1899Y-0.8444
X3.1919Y0.3072
X3.1928Y1.1723
X3.1938Y0.3682
X3.1948Y-1.1633
X3.1978Y-1.1318
X3.1997Y-0.747
X3.2096Y1.4272
X3.2145Y2.2225
X3.2184Y-0.6899
X3.2204Y1.6448
X3.2204Y-0.7283
X3.2243Y1.1044
X3.2253Y1.5522
X3.2293Y1.3367
X3.2302Y-0.5491
X3.2332Y-1.0688
X3.242Y-1.1958
X3.245Y1.046
X3.245Y0.3062
X3.245Y-0.8129
X3.2499Y0.2068
X3.2588Y2.4361
X3.2588Y1.07
X3.2627Y1.1979
X3.2645Y-0.9589
X3.2686Y1.5139
X3.2686Y0.128
X3.2716Y-0.5865
X3.2804Y1.6595
X3.2804Y-1.0964
X3.2814Y1.6093
X3.2834Y2.3446
X3.2883Y-1.2913
X3.2893Y-1.2578
X3.2974Y-0.6894
X3.3011Y2.4351
X3.3119Y-0.867
X3.3139Y-0.8966
X3.3151Y-0.988
X3.3159Y1.1369
X3.3159Y1.004
X3.3198Y2.2304
X3.3237Y2.3465
X3.3336Y1.4469
X3.3346Y1.0916
X3.3365Y1.2363
X3.3365Y0.2983
X3.3365Y0.2048
X3.3395Y1.5335
X3.3483Y-0.7243
X3.3543Y0.9568
X3.3552Y-0.6869
X3.3572Y0.9194
X3.3592Y-1.6161
X3.371Y0.3761
X3.371Y-1.2027
X3.3759Y2.503
X3.3789Y1.3967
X3.3789Y1.3022
X3.3789Y-1.7893
X3.3808Y1.0424
X3.3828Y-1.368
X3.3838Y-1.4044
X3.392Y0.2973
X3.3956Y0.2048
X3.3985Y1.4696
X3.3995Y-0.9793
X3.4015Y-0.806
X3.4025Y-1.498
X3.4035Y-1.0107
X3.4064Y-1.8759
X3.4104Y-2.0846
X3.4143Y2.4115
X3.4153Y-1.2913
X3.4182Y-1.0728
X3.4202Y2.5011
X3.4212Y-0.7096
X3.4212Y-1.2588
X3.4256Y-2.1357
X3.4261Y1.3288
X3.43Y3.3564
X3.43Y-2.242
X3.433Y-0.8326
X3.435Y-0.8631
X3.4374Y-1.1407
X3.4379Y1.5178
X3.4379Y-1.872
X3.4419Y1.0335
X3.4419Y0.7658
X3.4438Y1.4223
X3.4458Y0.9765
X3.4507Y2.4115
X3.4576Y1.1556
X3.4598Y-1.8483
X3.4606Y1.2678
X3.4625Y1.2363
X3.4733Y-0.7125
X3.4733Y-1.4369
X3.4783Y0.9184
X3.4832Y1.2835
X3.4852Y3.0769
X3.4861Y-0.808
X3.4911Y-1.0865
X3.493Y0.2944
X3.494Y0.2048
X3.494Y-1.5885
X3.497Y-1.62
X3.497Y-1.9035
X3.4993Y-1.439
X3.4999Y-1.7489
X3.5009Y-1.3702
X3.5019Y-1.7844
X3.5048Y1.3564
X3.5048Y-2.3247
X3.5107Y-2.06
X3.5157Y0.9056
X3.5167Y-1.2106
X3.5178Y3.28
X3.5216Y0.8091
X3.5226Y-1.1761
X3.5265Y1.2117
X3.5265Y-0.9802
X3.5275Y-1.0117
X3.5285Y3.1241
X3.5285Y-1.868
X3.5314Y-1.5048
X3.5413Y2.5454
X3.5431Y3.2657
X3.5462Y-0.7204
X3.5472Y0.2963
X3.5481Y-2.1357
X3.5481Y-2.2263
X3.5511Y0.2068
X3.5521Y2.3249
X3.5531Y2.4558
X3.556Y0.7343
X3.5571Y3.1252
X3.56Y1.002
X3.5639Y3.2491
X3.5639Y2.7698
X3.5639Y1.3032
X3.5659Y1.2117
X3.5688Y0.8111
X3.5688Y-2.184
X3.5698Y0.9076
X3.5836Y0.1438
X3.5846Y-1.4005
X3.586Y3.1265
X3.5865Y-2.2794
X3.5885Y2.5444
X3.5885Y-1.5019
X3.5895Y-1.2194
X3.5915Y1.3761
X3.5915Y-1.872
X3.5935Y-1.1771
X3.5954Y3.2501
X3.5954Y-2.305
X3.5983Y2.4538
X3.5983Y-2.3326
X3.5993Y-1.245
X3.6072Y-0.7086
X3.6072Y-0.9783
X3.6097Y1.0916
X3.6111Y-2.4359
X3.6121Y-0.8001
X3.6121Y-1.1052
X3.6131Y-1.1407
X3.619Y3.132
X3.6196Y-1.2829
X3.621Y-1.7824
X3.622Y-1.5993
X3.623Y3.2501
X3.623Y-1.6289
X3.6269Y-1.7509
X3.6269Y-2.5255
X3.627Y-1.9036
X3.6338Y0.2796
X3.6397Y-2.0639
X3.6466Y-0.6043
X3.6485Y0.8593
X3.6495Y0.1851
X3.6505Y3.2501
X3.6505Y-2.2814
X3.6544Y3.1359
X3.657Y-1.8996
X3.6584Y-2.0885
X3.6594Y-2.3336
X3.6623Y-2.4359
X3.6643Y-1.8444
X3.6653Y-0.7863
X3.6653Y-1.8159
X3.6653Y-2.5521
X3.6663Y3.3131
X3.6682Y1.2668
X3.6692Y-2.2509
X3.6702Y1.1723
X3.6761Y-1.371
X3.6771Y2.5798
X3.6771Y-1.6495
X3.682Y-1.684
X3.682Y-2.1987
X3.6859Y3.1368
X3.6869Y0.1841
X3.6899Y-1.5255
X3.6968Y2.4902
X3.6968Y-1.3031
X3.6978Y-0.5058
X3.6998Y-1.6204
X3.7007Y0.8593
X3.7017Y0.7737
X3.7037Y0.2816
X3.7037Y-1.4625
X3.7135Y1.1723
X3.7135Y-0.8444
X3.7135Y-2.5541
X3.7155Y1.2639
X3.7174Y0.0946
X3.7174Y-0.0019
X3.7184Y2.5788
X3.7194Y0.1231
X3.7204Y-2.4576
X3.7214Y-1.1958
X3.7233Y-1.2293
X3.7332Y0.6753
X3.737Y-2.2932
X3.7391Y2.4912
X3.743Y-1.6127
X3.747Y-0.6899
X3.747Y-0.7834
X3.7489Y3.1083
X3.7568Y0.3131
X3.7617Y0.8229
X3.7647Y-2.3169
X3.7667Y-1.3031
X3.7686Y-1.771
X3.7726Y1.2383
X3.7726Y-1.931
X3.7765Y-0.3759
X3.7765Y-1.4635
X3.7775Y-1.9733
X3.7824Y0.755
X3.7896Y-1.185
X3.7972Y-1.6476
X3.7991Y2.6822
X3.8001Y-1.6859
X3.8011Y0.1615
X3.8021Y-0.7804
X3.8031Y-0.6928
X3.8031Y-2.5216
X3.8041Y-1.8011
X3.8041Y-2.6239
X3.81Y-1.37
X3.8129Y-1.5216
X3.8198Y1.1467
X3.8269Y-2.2904
X3.8296Y2.6802
X3.8305Y-1.6124
X3.8346Y2.5936
X3.8356Y1.2894
X3.8356Y0.1113
X3.8356Y0.0306
X3.8365Y-2.5216
X3.8395Y-2.7184
X3.84Y-0.0857
X3.8415Y0.7934
X3.8415Y-0.0029
X3.8434Y0.7068
X3.8464Y-2.622
X3.8513Y-0.1515
X3.8513Y-1.8848
X3.8619Y2.9427
X3.8661Y1.2363
X3.867Y0.9587
X3.867Y-1.2263
X3.87Y1.1487
X3.872Y0.6536
X3.8779Y2.5926
X3.8808Y2.7894
X3.8887Y-2.6525
X3.8907Y-1.6436
X3.8917Y-2.684
X3.8976Y-1.935
X3.9054Y0.7403
X3.907Y-1.9648
X3.9094Y-0.685
X3.9115Y-2.2679
X3.9133Y-0.7765
X3.9163Y-2.1141
X3.9173Y-0.1952
X3.9212Y-0.1062
X3.9222Y-0.1387
X3.9241Y0.5857
X3.9261Y1.1359
X3.9271Y0.07
X3.9281Y2.7934
X3.932Y2.7038
X3.9341Y2.8742
X3.9372Y-1.4874
X3.9419Y2.6123
X3.9434Y-2.4059
X3.9438Y0.6753
X3.9448Y-2.0098
X3.9497Y-1.9035
X3.9527Y-0.684
X3.9527Y-2.1131
X3.9527Y-2.7165
X3.9615Y1.0769
X3.9625Y-0.7755
X3.9637Y3.0427
X3.9655Y0.4391
X3.9655Y0.002
X3.9665Y-2.622
X3.9802Y0.5375
X3.9822Y2.7058
X3.9852Y-2.3759
X3.9871Y-2.0127
X3.9891Y-0.5924
X3.997Y2.6005
X3.998Y0.6034
X3.9986Y-2.0776
X3.9989Y1.1694
X4.0058Y1.006
X4.0059Y2.8225
X4.0078Y-0.0747
X4.0373Y0.943
X4.038Y-1.2615
X4.0403Y2.9036
X4.0403Y0.4784
X4.0422Y2.8485
X4.0442Y0.568
X4.0442Y-0.2194
X4.0472Y-0.1298
X4.0501Y2.7491
X4.0511Y1.1074
X4.0521Y-2.0777
X4.0521Y-2.1712
X4.0649Y-2.6682
X4.0718Y-0.6702
X4.0757Y-0.7578
X4.0796Y-2.2342
X4.0796Y-2.7617
X4.0836Y2.8515
X4.0905Y-0.1535
X4.0915Y0.4381
X4.0924Y1.0404
X4.0983Y-2.1672
X4.1023Y2.7511
X4.1072Y0.8643
X4.1072Y0.507
X4.1111Y-0.0885
X4.1121Y-2.6702
X4.1151Y-2.0775
X4.118Y-2.7647
X4.122Y-0.6722
X4.122Y-0.7588
X4.1259Y0.9755
X4.1269Y0.2855
X4.1269Y-1.1357
X4.1287Y-2.1244
X4.1318Y-0.3031
X4.1338Y-0.3346
X4.1357Y-0.1535
X4.1387Y0.3633
X4.1387Y-0.3917
X4.1466Y0.5296
X4.1466Y-1.9074
X4.1505Y-1.5413
X4.152Y1.1047
X4.1544Y-1.4074
X4.1544Y-2.8798
X4.1554Y0.4568
X4.1557Y-2.7617
X4.1564Y0.8643
X4.1584Y-2.6003
X4.1663Y-0.2174
X4.1694Y-2.3711
X4.1702Y2.9666
X4.1702Y2.9666
X4.1702Y-1.0373
X4.1702Y-2.1938
X4.1722Y2.9223
X4.1741Y-2.1023
X4.1781Y-2.7848
X4.1791Y0.9558
X4.1826Y0.3683
X4.1828Y-2.0255
X4.1889Y2.8259
X4.1899Y0.316
X4.1909Y0.2826
X4.1982Y-2.4438
X4.2004Y-1.5831
X4.2004Y-1.6269
X4.2056Y1.069
X4.2066Y0.8603
X4.2096Y2.9204
X4.2135Y1.1674
X4.2145Y0.3889
X4.2205Y-1.7927
X4.2214Y-1.8203
X4.2214Y-2.1023
X4.2214Y-2.1928
X4.2214Y-2.5718
X4.2243Y-2.6052
X4.2243Y-2.9359
X4.2273Y-2.9655
X4.2302Y2.8229
X4.2322Y-2.3149
X4.2322Y-2.4763
X4.2322Y-2.6623
X4.2332Y-2.4458
X4.2342Y-2.3493
X4.2361Y-2.7529
X4.2381Y-0.6672
X4.2397Y-2.8186
X4.242Y-0.7598
X4.242Y-1.8789
X4.243Y-1.9281
X4.245Y0.9469
X4.2529Y-0.9665
X4.2568Y-0.6121
X4.257Y-2.5043
X4.2606Y2.8396
X4.2617Y-0.3296
X4.2637Y-0.3011
X4.2647Y0.3436
X4.2647Y-1.6269
X4.2647Y-2.6623
X4.2696Y-2.7539
X4.2735Y-1.6682
X4.2735Y-1.998
X4.2735Y-2.1003
X4.2755Y-1.0856
X4.2755Y-1.118
X4.2765Y-1.2115
X4.2765Y-1.2411
X4.2775Y-0.9881
X4.2804Y0.7776
X4.2804Y0.1891
X4.2827Y-0.4774
X4.2834Y0.1576
X4.2844Y-2.8031
X4.2854Y-2.8326
X4.2873Y-0.7588
X4.2883Y-0.6692
X4.2922Y-0.8651
X4.2932Y-0.8316
X4.2932Y-1.5413
X4.2991Y-1.309
X4.3001Y-1.4468
X4.3011Y3.0414
X4.3011Y-1.4074
X4.305Y-0.3375
X4.3069Y0.9416
X4.309Y0.8406
X4.3149Y0.2757
X4.3165Y-0.5491
X4.3218Y-0.4389
X4.3257Y0.0355
X4.3257Y0.005
X4.3336Y2.942
X4.3356Y-1.8572
X4.3424Y3.0394
X4.3434Y-2.6052
X4.3444Y-0.3346
X4.3454Y-2.1003
X4.3454Y-2.5728
X4.3513Y0.9416
X4.3523Y-2.4468
X4.3533Y-2.9369
X4.3543Y-2.9694
X4.3552Y-2.4802
X4.3588Y-1.8195
X4.3592Y-2.3454
X4.3602Y-2.3129
X4.3611Y-2.0009
X4.3631Y0.8387
X4.3631Y-1.7578
X4.3641Y-2.1791
X4.3641Y-2.2676
X4.3651Y-0.4379
X4.367Y0.38
X4.367Y-0.183
X4.37Y-1.9369
X4.3798Y-2.6564
X4.3822Y-2.1311
X4.3828Y-1.309
X4.3838Y-1.5422
X4.3838Y-1.6702
X4.3848Y-1.4054
X4.3848Y-1.4487
X4.3857Y-0.0964
X4.3877Y2.9558
X4.3907Y-1.6308
X4.3916Y-1.0846
X4.3946Y-2.7499
X4.3956Y-1.117
X4.4005Y-0.9891
X4.4015Y-0.9586
X4.4015Y-1.2115
X4.4025Y-1.242
X4.4045Y0.1615
X4.4054Y-2.8031
X4.4064Y3.1044
X4.4084Y-2.8336
X4.4094Y-0.4497
X4.4143Y-0.4861
X4.4143Y-0.8651
X4.4153Y-0.7844
X4.4182Y-2.5058
X4.4182Y-2.998
X4.4202Y-0.8306
X4.4222Y-0.1564
X4.4261Y0.191
X4.4261Y-2.6574
X4.4271Y-2.1919
X4.4291Y3.0739
X4.43Y-2.2391
X4.4409Y0.7963
X4.4438Y-2.746
X4.4468Y-0.6899
X4.4468Y-0.7824
X4.4527Y0.0375
X4.4527Y0.005
X4.4576Y0.1202
X4.4615Y-1.9783
X4.4625Y-0.1604
X4.4655Y-2.3867
X4.4684Y-0.4104
X4.4694Y-1.4546
X4.4724Y-2.2903
X4.4733Y0.8898
X4.4733Y-0.9192
X4.4753Y-0.0639
X4.4802Y0.7983
X4.4822Y3.0001
X4.4842Y-0.498
X4.4852Y-1.1554
X4.4852Y-2.2106
X4.4891Y-2.5924
X4.4897Y1.3683
X4.49Y1.3976
X4.497Y-1.2735
X4.497Y-1.6397
X4.5176Y-2.744
X4.5206Y-2.4428
X4.5226Y-2.2952
X4.5245Y-0.7027
X4.5245Y-2.4901
X4.5245Y-2.6604
X4.5314Y3.002
X4.5324Y-2.8956
X4.5333Y0.8918
X4.5354Y-2.3405
X4.5383Y-0.5659
X4.5442Y-0.277
X4.5443Y-2.0584
X4.5531Y3.0493
X4.5639Y-2.3749
X4.5639Y-2.744
X4.5708Y-0.7706
X4.5728Y-0.6062
X4.5747Y-2.6574
X4.5777Y-0.8661
X4.5836Y-0.3562
X4.5838Y-2.6071
X4.5865Y-0.1741
X4.5875Y0.195
X4.5915Y-0.3208
X4.5954Y0.943
X4.5954Y0.3524
X4.5954Y-0.0176
X4.5964Y0.7087
X4.5974Y-2.4684
X4.6151Y-0.7676
X4.6161Y-2.3749
X4.617Y0.8032
X4.62Y-0.8651
X4.621Y-0.6013
X4.623Y-0.5029
X4.6308Y0.7107
X4.6318Y-0.2411
X4.6338Y-0.2076
X4.6357Y3.1162
X4.6357Y3.0148
X4.6426Y-0.9035
X4.6564Y0.8032
X4.6692Y-2.7558
X4.6702Y3.3406
X4.685Y3.1162
X4.685Y-2.6584
X4.6859Y-2.3444
X4.6879Y-0.6141
X4.6899Y0.6541
X4.6919Y3.0148
X4.6997Y-0.434
X4.7007Y3.2523
X4.7056Y-0.6987
X4.7076Y-2.4724
X4.7093Y3.3159
X4.7093Y0.2599
X4.7145Y-0.3877
X4.7174Y2.8761
X4.7233Y-0.5452
X4.7322Y-0.8011
X4.7352Y-0.5019
X4.7381Y-2.7558
X4.744Y-2.3798
X4.7529Y3.2855
X4.7548Y0.7146
X4.7548Y-2.4724
X4.7568Y-0.2854
X4.7647Y-0.0609
X4.7676Y2.9587
X4.7686Y-0.7981
X4.7696Y3.0552
X4.7706Y0.5995
X4.7709Y0.1024
X4.7726Y2.8839
X4.7802Y0.2599
X4.7834Y-0.3946
X4.7834Y-2.3798
X4.7913Y0.6202
X4.7952Y0.7166
X4.8001Y-0.7165
X4.8001Y-2.6751
X4.806Y-0.8277
X4.81Y-0.6298
X4.8119Y-0.6003
X4.8178Y-0.4852
X4.8186Y2.9205
X4.8198Y3.0581
X4.8198Y-0.9428
X4.8218Y2.9558
X4.8415Y-0.8769
X4.8509Y-0.5374
X4.8513Y3.0847
X4.869Y-2.5009
X4.87Y-2.6712
X4.871Y-2.7607
X4.872Y0.6054
X4.8732Y0.5601
X4.8749Y0.7068
X4.8866Y0.1846
X4.8907Y-2.8838
X4.8936Y-2.4064
X4.8985Y0.3643
X4.8995Y-0.8759
X4.9025Y1.4902
X4.9025Y0.8643
X4.9054Y-2.7598
X4.9064Y2.0454
X4.9104Y-0.5098
X4.9104Y-2.5019
X4.9123Y-0.6102
X4.9133Y0.6034
X4.9143Y0.4666
X4.9212Y-2.6712
X4.9251Y3.0444
X4.9251Y2.9459
X4.9369Y-0.8021
X4.9399Y0.5463
X4.9458Y0.5168
X4.9537Y-2.368
X4.9596Y-2.435
X4.9608Y0.2958
X4.9615Y-0.5137
X4.9625Y-0.6082
X4.9724Y3.0434
X4.9743Y-1.0661
X4.9763Y2.9479
X4.9812Y0.2068
X4.9812Y0.0659
X4.9911Y-0.8119
X4.995Y-0.9113
X5.0026Y0.0471
X5.0028Y0.2212
X5.0029Y-2.7627
X5.0048Y-2.6672
X5.0068Y-2.4684
X5.0088Y0.6595
X5.0231Y0.2049
X5.0245Y0.0611
X5.0265Y-2.5639
X5.0304Y-0.8109
X5.0354Y-0.9113
X5.0371Y-0.2769
X5.0373Y-0.3574
X5.0378Y-0.3082
X5.0387Y-0.4274
X5.0403Y-0.4546
X5.0416Y-0.7475
X5.0481Y0.5965
X5.0521Y3.0729
X5.0531Y0.4017
X5.056Y-2.4724
X5.059Y-2.6682
X5.059Y-2.7637
X5.06Y-0.3917
X5.0619Y-2.5639
X5.0728Y0.5178
X5.0737Y-0.5649
X5.0757Y3.0286
X5.0777Y2.9341
X5.0806Y-0.4684
X5.0847Y-2.8031
X5.1072Y-1.0767
X5.1091Y-0.6716
X5.1091Y-0.5544
X5.1098Y-1.5627
X5.1111Y-0.8405
X5.1151Y0.5572
X5.1151Y0.3859
X5.1161Y0.4755
X5.12Y2.9322
X5.123Y3.0267
X5.1249Y0.3337
X5.1308Y0.2353
X5.1318Y-0.9891
X5.1387Y-2.9035
X5.1456Y-0.8946
X5.1485Y-0.5442
X5.1564Y-2.6653
X5.1584Y-2.7637
X5.1594Y-2.6111
X5.1623Y-0.9881
X5.1663Y0.4715
X5.1663Y-0.62
X5.1692Y-2.5206
X5.184Y-0.4025
X5.184Y-0.8936
X5.1852Y-2.8797
X5.1928Y0.3337
X5.1938Y-1.2302
X5.1987Y-1.0521
X5.2004Y-1.0048
X5.2007Y-1.0826
X5.2086Y-2.5196
X5.2096Y0.1704
X5.2096Y-2.6111
X5.2115Y-2.7627
X5.2155Y0.2796
X5.2155Y-2.6672
X5.2214Y-0.493
X5.2224Y-0.4074
X5.2243Y2.9873
X5.2253Y2.8908
X5.2253Y-1.5058
X5.2411Y-0.7893
X5.2489Y0.3209
X5.2529Y3.4509
X5.2558Y0.2639
X5.2568Y2.8524
X5.2588Y-2.7519
X5.2637Y3.5552
X5.2647Y3.6398
X5.2686Y3.5227
X5.2735Y2.9833
X5.2735Y2.8938
X5.2785Y-0.4832
X5.2804Y-0.5294
X5.2892Y-1.2128
X5.2962Y3.2186
X5.2972Y-2.8159
X5.3001Y-2.6544
X5.3058Y-0.4493
X5.309Y0.2629
X5.3129Y0.192
X5.3178Y3.4144
X5.3198Y3.381
X5.3228Y-2.5669
X5.3237Y-1.0501
X5.3237Y-1.0816
X5.325Y-1.1385
X5.3287Y3.0473
X5.3288Y0.1349
X5.3444Y-2.7165
X5.3474Y0.3721
X5.3523Y0.194
X5.3533Y-2.6594
X5.3543Y-1.2332
X5.3552Y-0.4802
X5.3552Y-2.4625
X5.3631Y2.4115
X5.3631Y-1.1377
X5.369Y-2.868
X5.37Y3.0513
X5.371Y-1.3405
X5.371Y-2.9005
X5.3739Y-1.306
X5.3759Y2.9597
X5.3759Y-0.3907
X5.3759Y-2.5728
X5.3789Y0.2678
X5.3789Y0.0532
X5.3867Y-2.7794
X5.3907Y2.724
X5.3909Y-1.0742
X5.3915Y2.4262
X5.3946Y3.5522
X5.3946Y3.5207
X5.3966Y3.0985
X5.3966Y-1.1357
X5.4015Y3.2501
X5.4015Y-0.4802
X5.4025Y3.2845
X5.4104Y3.632
X5.4174Y2.724
X5.4174Y2.4262
X5.4182Y-1.1987
X5.4212Y2.9607
X5.4222Y-1.37
X5.43Y-0.3936
X5.43Y-2.5531
X5.432Y0.2658
X5.434Y3.1782
X5.4409Y-3.0058
X5.4434Y2.724
X5.4434Y2.4262
X5.4438Y-2.6869
X5.4487Y-1.2716
X5.4537Y3.3849
X5.4566Y3.4135
X5.4576Y-0.8444
X5.4615Y0.193
X5.4655Y-2.5905
X5.4694Y2.724
X5.4694Y2.4262
X5.4733Y-2.685
X5.4783Y-3.0728
X5.4891Y2.9745
X5.49Y2.1624
X5.4918Y-1.3183
X5.493Y-0.3365
X5.494Y-1.4773
X5.497Y0.1438
X5.498Y-2.9025
X5.4989Y3.315
X5.4999Y-2.5885
X5.5009Y-2.872
X5.5039Y-0.3867
X5.5039Y-1.6419
X5.5048Y0.1959
X5.5048Y0.0572
X5.5068Y-0.4743
X5.5127Y-3.2617
X5.5261Y-1.2761
X5.5275Y3.0956
X5.5275Y-2.7283
X5.5294Y-1.4802
X5.5304Y3.255
X5.5324Y0.3288
X5.5334Y-2.7548
X5.5363Y3.1349
X5.5373Y0.2658
X5.5472Y-1.3848
X5.5521Y3.38
X5.5521Y-0.5373
X5.556Y-0.3857
X5.5639Y-2.994
X5.5669Y-0.4783
X5.5718Y-2.6515
X5.5728Y-3.0393
X5.5757Y-1.3838
X5.5767Y-1.619
X5.5836Y3.1635
X5.5846Y-3.1702
X5.5865Y-3.0747
X5.5915Y0.2698
X5.6161Y-1.62
X5.619Y0.1881
X5.6254Y2.8151
X5.6254Y2.7551
X5.6254Y2.6951
X5.6254Y2.6351
X5.6254Y2.5751
X5.6254Y2.5151
X5.6254Y2.4551
X5.6254Y2.3951
X5.6254Y2.3351
X5.6259Y-1.5255
X5.6269Y-3.0255
X5.6298Y-3.0757
X5.6367Y-3.2283
X5.6466Y2.2619
X5.6466Y-1.6702
X5.6498Y0.1406
X5.6505Y0.31
X5.6515Y-2.8789
X5.6535Y-2.7558
X5.6564Y-2.7233
X5.6574Y-0.3848
X5.6663Y-3.1367
X5.6672Y-0.4763
X5.6672Y-2.7922
X5.6682Y-1.5235
X5.6692Y-1.7588
X5.6704Y2.7851
X5.6704Y2.7251
X5.6704Y2.6651
X5.6704Y2.6051
X5.6704Y2.5451
X5.6704Y2.4851
X5.6704Y2.4251
X5.6704Y2.3651
X5.6704Y2.3051
X5.68Y0.2314
X5.6859Y0.0611
X5.6987Y-3.2913
X5.7056Y-0.3828
X5.7056Y-2.8798
X5.7135Y-1.9389
X5.7135Y-3.4625
X5.7174Y-0.4783
X5.7174Y-3.1279
X5.7204Y-1.6495
X5.7253Y-3.1987
X5.7283Y-2.7962
X5.7296Y-0.5131
X5.7352Y0.2324
X5.747Y-3.3375
X5.7489Y0.2619
X5.7568Y-0.9074
X5.7599Y2.9104
X5.7603Y2.8667
X5.7604Y3.0414
X5.7604Y2.9978
X5.7604Y2.9541
X5.7607Y-0.3877
X5.7647Y2.2343
X5.7657Y-3.2627
X5.7696Y0.1585
X5.7706Y-1.7017
X5.7804Y3.0196
X5.7804Y2.9759
X5.7804Y2.9322
X5.7804Y2.8886
X5.7844Y2.0965
X5.7883Y-1.183
X5.7922Y-1.3483
X5.7962Y-3.2854
X5.8001Y-1.8552
X5.8041Y-1.4822
X5.8054Y2.1401
X5.806Y-3.4074
X5.8119Y0.3328
X5.8149Y-0.3808
X5.8178Y-0.4714
X5.8188Y-1.7598
X5.8188Y-2.8798
X5.8277Y-2.7106
X5.8277Y-3.3119
X5.8354Y2.0951
X5.8375Y0.1487
X5.8395Y-2.7696
X5.8424Y-3.4468
X5.8434Y2.8485
X5.8584Y-0.3082
X5.8631Y-0.0098
X5.8647Y0.2384
X5.8654Y2.1401
X5.869Y-0.3818
X5.87Y-3.3769
X5.872Y-0.4733
X5.872Y-1.7637
X5.873Y-2.8838
X5.8779Y-1.808
X5.8886Y-0.2769
X5.8902Y-1.9739
X5.8907Y0.2373
X5.8926Y0.1487
X5.8946Y-2.7854
X5.8954Y2.0951
X5.9094Y-3.5226
X5.9222Y-0.5373
X5.9229Y0.3163
X5.9254Y2.1401
X5.9261Y2.8603
X5.9281Y-3.433
X5.93Y0.4272
X5.93Y-1.8434
X5.93Y-2.867
X5.933Y-1.9468
X5.9406Y-1.4054
X5.9419Y0.3353
X5.9513Y0.4421
X5.9554Y2.0951
X5.9586Y-2.9251
X5.9602Y0.3536
X5.9674Y-1.8474
X5.9674Y-1.9478
X5.9697Y0.4605
X5.9724Y-0.4143
X5.9743Y-3.4999
X5.9773Y-3.4153
X5.9783Y-0.5088
X5.9804Y2.8151
X5.9804Y2.5501
X5.9804Y2.5001
X5.9804Y2.4501
X5.9854Y2.1401
X5.997Y-0.8917
X5.998Y0.2176
X5.9989Y0.133
X6.0058Y-2.9261
X6.0154Y2.0951
X6.0275Y-0.4153
X6.0304Y2.5501
X6.0304Y2.5001
X6.0304Y2.4501
X6.0314Y0.0824
X6.0314Y-0.5098
X6.0454Y2.1401
X6.0501Y0.2186
X6.0511Y-2.87
X6.0521Y0.13
X6.0521Y-2.0304
X6.057Y-3.0324
X6.0688Y-1.934
X6.0711Y-1.2462
X6.0754Y2.0951
X6.0757Y-1.183
X6.0804Y2.5501
X6.0804Y2.5001
X6.0804Y2.4501
X6.0875Y0.2028
X6.0875Y-0.3995
X6.0875Y-2.0265
X6.0905Y-2.9379
X6.0915Y0.0178
X6.0915Y-1.8247
X6.0944Y-3.0294
X6.1033Y-0.0767
X6.1054Y2.1401
X6.1072Y-1.935
X6.121Y-0.4419
X6.122Y-0.5354
X6.123Y-3.1357
X6.1308Y0.0454
X6.1338Y0.1339
X6.1354Y2.0951
X6.1367Y-2.9399
X6.1505Y-2.8798
X6.1654Y2.1401
X6.1751Y-0.4409
X6.1771Y0.133
X6.1771Y-0.5344
X6.1781Y2.7284
X6.1791Y-2.12
X6.181Y-3.1466
X6.182Y-2.0235
X6.1825Y-1.7478
X6.1838Y-1.6495
X6.1859Y0.0473
X6.1899Y-1.4586
X6.1954Y2.0951
X6.2046Y-3.0521
X6.2047Y2.4843
X6.2056Y-0.935
X6.2076Y-2.117
X6.2104Y2.5551
X6.2106Y-3.1456
X6.2135Y2.8859
X6.2165Y-2.0245
X6.2254Y2.1401
X6.2293Y2.5335
X6.2371Y-3.0501
X6.2477Y-1.3183
X6.2529Y-0.6003
X6.2529Y-1.6554
X6.2548Y2.5985
X6.2568Y2.5099
X6.2568Y-1.2263
X6.2578Y-3.2165
X6.2607Y-0.0767
X6.2647Y2.1044
X6.2686Y2.2894
X6.2726Y-0.5147
X6.2735Y-0.4251
X6.2753Y-1.3838
X6.2807Y-1.553
X6.2844Y0.0375
X6.2854Y0.1261
X6.2922Y-0.0058
X6.3054Y2.6812
X6.308Y-1.1003
X6.3119Y2.8839
X6.3119Y-2.0452
X6.3139Y-2.2115
X6.3228Y-3.1623
X6.3296Y-0.4261
X6.3296Y-0.5167
X6.3336Y2.569
X6.3356Y-2.123
X6.3365Y-1.2716
X6.3365Y0.1241
X6.3395Y0.0385
X6.3446Y-1.0572
X6.3478Y-0.5587
X6.3592Y-2.3169
X6.3604Y2.4051
X6.3651Y-2.2125
X6.3769Y-3.307
X6.3789Y-2.1249
X6.3789Y-3.3523
X6.3828Y-3.1682
X6.3838Y-3.2086
X6.3867Y2.3367
X6.3985Y-3.4035
X6.3995Y-2.2391
X6.4025Y2.8761
X6.4104Y2.4351
X6.4104Y2.3751
X6.4189Y-0.5792
X6.4192Y-0.3632
X6.4222Y0.0217
X6.4222Y-3.12
X6.43Y-0.4015
X6.43Y-2.057
X6.432Y2.6576
X6.433Y-0.493
X6.4359Y-2.2913
X6.4379Y0.127
X6.4586Y-3.2598
X6.4674Y-2.2863
X6.4852Y-0.494
X6.4852Y-3.4035
X6.4861Y-3.4369
X6.4871Y-0.4015
X6.4891Y0.1261
X6.4989Y-3.309
X6.5206Y-2.2263
X6.5245Y-0.5176
X6.5285Y0.0217
X6.5285Y-0.4035
X6.5363Y-0.0452
X6.5472Y-3.4684
X6.5629Y-2.3749
X6.5659Y-3.372
X6.5856Y-0.0117
X6.5885Y0.0867
X6.5895Y-0.3887
X6.5915Y-0.4743
X6.5924Y-2.2863
X6.5974Y-2.373
X6.5993Y-2.2263
X6.6249Y-3.5058
X6.6328Y-2.2854
X6.6387Y0.0828
X6.6407Y-0.0088
X6.6446Y-0.4733
X6.6466Y-0.3867
X6.6584Y-2.557
X6.6594Y-2.4044
X6.6594Y-2.4359
X6.6771Y-3.4487
X6.682Y-2.305
X6.6978Y0.1005
X6.6997Y0.0001
X6.7017Y-0.494
X6.7111Y-0.0403
X6.7204Y-2.4674
X6.7371Y-0.1121
X6.7401Y0.067
X6.742Y-0.4753
X6.742Y-2.3749
X6.747Y-0.3848
X6.7529Y-3.3798
X6.7529Y-3.4586
X6.7578Y-0.0255
X6.7617Y-2.5314
X6.7627Y-2.5629
X6.7662Y-3.4898
X6.7707Y-0.3554
X6.7903Y0.068
X6.7991Y-0.3838
X6.8011Y-0.4743
X6.808Y-0.3365
X6.8592Y-2.6495
X6.8611Y-2.681
X6.867Y-2.746
X6.8857Y0.0148
X6.8877Y-0.0836
X6.8887Y-2.56
X6.8917Y-2.5324
X6.8985Y-0.4743
X6.8995Y-0.3838
X6.9271Y-2.7066
X6.93Y-2.5531
X6.935Y0.0139
X6.9379Y-0.0806
X6.9537Y-0.3838
X6.9546Y-0.4753
X6.9546Y-2.6102
X7.0004Y2.5354
X7.0204Y2.5114
T2
X-5.4341Y-3.096
X-5.4341Y-3.1511
X-5.4066Y-3.0684
X-5.4066Y-3.1235
X-5.4066Y-3.1787
X-5.379Y-3.096
X-5.379Y-3.1511
X-5.3515Y-3.0684
X-5.3515Y-3.1235
X-5.3515Y-3.1787
X-5.3239Y-3.096
X-5.3239Y-3.1511
T4
X-4.3865Y-3.5499
X-4.2526Y-3.5499
T3
G00X-7.1491Y-3.0798
M15
G01X-7.1727Y-3.0798
M16
G05
G00X-7.1491Y-3.42
M15
G01X-7.1727Y-3.42
M16
G05
G00X-6.9747Y-3.0798
M15
G01X-7.018Y-3.0798
M16
G05
G00X-6.9747Y-3.42
M15
G01X-7.018Y-3.42
M16
G05
M30
