%TF.GenerationSoftware,KiCad,Pcbnew,8.0.3*%
%TF.CreationDate,2024-08-30T14:51:48-07:00*%
%TF.ProjectId,traffic_paradise,74726166-6669-4635-9f70-617261646973,rev?*%
%TF.SameCoordinates,Original*%
%TF.FileFunction,Soldermask,Top*%
%TF.FilePolarity,Negative*%
%FSLAX46Y46*%
G04 Gerber Fmt 4.6, Leading zero omitted, Abs format (unit mm)*
G04 Created by KiCad (PCBNEW 8.0.3) date 2024-08-30 14:51:48*
%MOMM*%
%LPD*%
G01*
G04 APERTURE LIST*
G04 Aperture macros list*
%AMRoundRect*
0 Rectangle with rounded corners*
0 $1 Rounding radius*
0 $2 $3 $4 $5 $6 $7 $8 $9 X,Y pos of 4 corners*
0 Add a 4 corners polygon primitive as box body*
4,1,4,$2,$3,$4,$5,$6,$7,$8,$9,$2,$3,0*
0 Add four circle primitives for the rounded corners*
1,1,$1+$1,$2,$3*
1,1,$1+$1,$4,$5*
1,1,$1+$1,$6,$7*
1,1,$1+$1,$8,$9*
0 Add four rect primitives between the rounded corners*
20,1,$1+$1,$2,$3,$4,$5,0*
20,1,$1+$1,$4,$5,$6,$7,0*
20,1,$1+$1,$6,$7,$8,$9,0*
20,1,$1+$1,$8,$9,$2,$3,0*%
G04 Aperture macros list end*
%ADD10C,0.010000*%
%ADD11RoundRect,0.080000X-0.220000X-0.120000X0.220000X-0.120000X0.220000X0.120000X-0.220000X0.120000X0*%
%ADD12RoundRect,0.150000X0.587500X0.150000X-0.587500X0.150000X-0.587500X-0.150000X0.587500X-0.150000X0*%
%ADD13RoundRect,0.150000X-0.512500X-0.150000X0.512500X-0.150000X0.512500X0.150000X-0.512500X0.150000X0*%
%ADD14RoundRect,0.200000X0.200000X0.275000X-0.200000X0.275000X-0.200000X-0.275000X0.200000X-0.275000X0*%
%ADD15RoundRect,0.135000X-0.185000X0.135000X-0.185000X-0.135000X0.185000X-0.135000X0.185000X0.135000X0*%
%ADD16RoundRect,0.140000X-0.170000X0.140000X-0.170000X-0.140000X0.170000X-0.140000X0.170000X0.140000X0*%
%ADD17RoundRect,0.135000X0.185000X-0.135000X0.185000X0.135000X-0.185000X0.135000X-0.185000X-0.135000X0*%
%ADD18RoundRect,0.135000X0.135000X0.185000X-0.135000X0.185000X-0.135000X-0.185000X0.135000X-0.185000X0*%
%ADD19RoundRect,0.135000X-0.135000X-0.185000X0.135000X-0.185000X0.135000X0.185000X-0.135000X0.185000X0*%
%ADD20RoundRect,0.140000X-0.140000X-0.170000X0.140000X-0.170000X0.140000X0.170000X-0.140000X0.170000X0*%
%ADD21R,3.350000X3.350000*%
%ADD22RoundRect,0.062500X-0.062500X-0.337500X0.062500X-0.337500X0.062500X0.337500X-0.062500X0.337500X0*%
%ADD23RoundRect,0.062500X-0.337500X-0.062500X0.337500X-0.062500X0.337500X0.062500X-0.337500X0.062500X0*%
%ADD24RoundRect,0.200000X0.275000X-0.200000X0.275000X0.200000X-0.275000X0.200000X-0.275000X-0.200000X0*%
%ADD25RoundRect,0.140000X0.140000X0.170000X-0.140000X0.170000X-0.140000X-0.170000X0.140000X-0.170000X0*%
%ADD26RoundRect,0.102000X2.625000X2.625000X-2.625000X2.625000X-2.625000X-2.625000X2.625000X-2.625000X0*%
%ADD27RoundRect,0.225000X-0.250000X0.225000X-0.250000X-0.225000X0.250000X-0.225000X0.250000X0.225000X0*%
%ADD28RoundRect,0.140000X0.170000X-0.140000X0.170000X0.140000X-0.170000X0.140000X-0.170000X-0.140000X0*%
%ADD29R,1.100000X1.800000*%
%ADD30RoundRect,0.243750X-0.243750X-0.456250X0.243750X-0.456250X0.243750X0.456250X-0.243750X0.456250X0*%
%ADD31O,1.600000X1.000000*%
%ADD32O,2.100000X1.000000*%
%ADD33R,1.450000X0.600000*%
%ADD34R,1.450000X0.300000*%
%ADD35C,0.650000*%
%ADD36R,1.500000X0.900000*%
%ADD37R,0.900000X1.500000*%
%ADD38C,0.600000*%
%ADD39R,4.200000X4.200000*%
%ADD40RoundRect,0.200000X-0.275000X0.200000X-0.275000X-0.200000X0.275000X-0.200000X0.275000X0.200000X0*%
%ADD41RoundRect,0.225000X0.225000X0.250000X-0.225000X0.250000X-0.225000X-0.250000X0.225000X-0.250000X0*%
%ADD42RoundRect,0.102000X-2.625000X-2.625000X2.625000X-2.625000X2.625000X2.625000X-2.625000X2.625000X0*%
%ADD43RoundRect,0.243750X-0.456250X0.243750X-0.456250X-0.243750X0.456250X-0.243750X0.456250X0.243750X0*%
%ADD44RoundRect,0.243750X0.456250X-0.243750X0.456250X0.243750X-0.456250X0.243750X-0.456250X-0.243750X0*%
%ADD45RoundRect,0.250000X-0.625000X0.375000X-0.625000X-0.375000X0.625000X-0.375000X0.625000X0.375000X0*%
%ADD46RoundRect,0.243750X0.243750X0.456250X-0.243750X0.456250X-0.243750X-0.456250X0.243750X-0.456250X0*%
%ADD47RoundRect,0.250000X-1.000000X-0.650000X1.000000X-0.650000X1.000000X0.650000X-1.000000X0.650000X0*%
%ADD48RoundRect,0.375000X-0.625000X-0.375000X0.625000X-0.375000X0.625000X0.375000X-0.625000X0.375000X0*%
%ADD49RoundRect,0.500000X-0.500000X-1.400000X0.500000X-1.400000X0.500000X1.400000X-0.500000X1.400000X0*%
G04 APERTURE END LIST*
D10*
%TO.C,U7*%
X333575000Y-29110000D02*
X332635000Y-29110000D01*
X332635000Y-28790000D01*
X333575000Y-28790000D01*
X333575000Y-29110000D01*
G36*
X333575000Y-29110000D02*
G01*
X332635000Y-29110000D01*
X332635000Y-28790000D01*
X333575000Y-28790000D01*
X333575000Y-29110000D01*
G37*
X333575000Y-29510000D02*
X332635000Y-29510000D01*
X332635000Y-29190000D01*
X333575000Y-29190000D01*
X333575000Y-29510000D01*
G36*
X333575000Y-29510000D02*
G01*
X332635000Y-29510000D01*
X332635000Y-29190000D01*
X333575000Y-29190000D01*
X333575000Y-29510000D01*
G37*
X333575000Y-29910000D02*
X332635000Y-29910000D01*
X332635000Y-29590000D01*
X333575000Y-29590000D01*
X333575000Y-29910000D01*
G36*
X333575000Y-29910000D02*
G01*
X332635000Y-29910000D01*
X332635000Y-29590000D01*
X333575000Y-29590000D01*
X333575000Y-29910000D01*
G37*
X333575000Y-30310000D02*
X332635000Y-30310000D01*
X332635000Y-29990000D01*
X333575000Y-29990000D01*
X333575000Y-30310000D01*
G36*
X333575000Y-30310000D02*
G01*
X332635000Y-30310000D01*
X332635000Y-29990000D01*
X333575000Y-29990000D01*
X333575000Y-30310000D01*
G37*
X333575000Y-30710000D02*
X332635000Y-30710000D01*
X332635000Y-30390000D01*
X333575000Y-30390000D01*
X333575000Y-30710000D01*
G36*
X333575000Y-30710000D02*
G01*
X332635000Y-30710000D01*
X332635000Y-30390000D01*
X333575000Y-30390000D01*
X333575000Y-30710000D01*
G37*
X333575000Y-31110000D02*
X332635000Y-31110000D01*
X332635000Y-30790000D01*
X333575000Y-30790000D01*
X333575000Y-31110000D01*
G36*
X333575000Y-31110000D02*
G01*
X332635000Y-31110000D01*
X332635000Y-30790000D01*
X333575000Y-30790000D01*
X333575000Y-31110000D01*
G37*
X333575000Y-31510000D02*
X332635000Y-31510000D01*
X332635000Y-31190000D01*
X333575000Y-31190000D01*
X333575000Y-31510000D01*
G36*
X333575000Y-31510000D02*
G01*
X332635000Y-31510000D01*
X332635000Y-31190000D01*
X333575000Y-31190000D01*
X333575000Y-31510000D01*
G37*
X333575000Y-31910000D02*
X332635000Y-31910000D01*
X332635000Y-31590000D01*
X333575000Y-31590000D01*
X333575000Y-31910000D01*
G36*
X333575000Y-31910000D02*
G01*
X332635000Y-31910000D01*
X332635000Y-31590000D01*
X333575000Y-31590000D01*
X333575000Y-31910000D01*
G37*
X333575000Y-32310000D02*
X332635000Y-32310000D01*
X332635000Y-31990000D01*
X333575000Y-31990000D01*
X333575000Y-32310000D01*
G36*
X333575000Y-32310000D02*
G01*
X332635000Y-32310000D01*
X332635000Y-31990000D01*
X333575000Y-31990000D01*
X333575000Y-32310000D01*
G37*
X333575000Y-32710000D02*
X332635000Y-32710000D01*
X332635000Y-32390000D01*
X333575000Y-32390000D01*
X333575000Y-32710000D01*
G36*
X333575000Y-32710000D02*
G01*
X332635000Y-32710000D01*
X332635000Y-32390000D01*
X333575000Y-32390000D01*
X333575000Y-32710000D01*
G37*
X333575000Y-33110000D02*
X332635000Y-33110000D01*
X332635000Y-32790000D01*
X333575000Y-32790000D01*
X333575000Y-33110000D01*
G36*
X333575000Y-33110000D02*
G01*
X332635000Y-33110000D01*
X332635000Y-32790000D01*
X333575000Y-32790000D01*
X333575000Y-33110000D01*
G37*
X333575000Y-33510000D02*
X332635000Y-33510000D01*
X332635000Y-33190000D01*
X333575000Y-33190000D01*
X333575000Y-33510000D01*
G36*
X333575000Y-33510000D02*
G01*
X332635000Y-33510000D01*
X332635000Y-33190000D01*
X333575000Y-33190000D01*
X333575000Y-33510000D01*
G37*
X333575000Y-33910000D02*
X332635000Y-33910000D01*
X332635000Y-33590000D01*
X333575000Y-33590000D01*
X333575000Y-33910000D01*
G36*
X333575000Y-33910000D02*
G01*
X332635000Y-33910000D01*
X332635000Y-33590000D01*
X333575000Y-33590000D01*
X333575000Y-33910000D01*
G37*
X333575000Y-34310000D02*
X332635000Y-34310000D01*
X332635000Y-33990000D01*
X333575000Y-33990000D01*
X333575000Y-34310000D01*
G36*
X333575000Y-34310000D02*
G01*
X332635000Y-34310000D01*
X332635000Y-33990000D01*
X333575000Y-33990000D01*
X333575000Y-34310000D01*
G37*
X333575000Y-34710000D02*
X332635000Y-34710000D01*
X332635000Y-34390000D01*
X333575000Y-34390000D01*
X333575000Y-34710000D01*
G36*
X333575000Y-34710000D02*
G01*
X332635000Y-34710000D01*
X332635000Y-34390000D01*
X333575000Y-34390000D01*
X333575000Y-34710000D01*
G37*
X333910000Y-28775000D02*
X333590000Y-28775000D01*
X333590000Y-27835000D01*
X333910000Y-27835000D01*
X333910000Y-28775000D01*
G36*
X333910000Y-28775000D02*
G01*
X333590000Y-28775000D01*
X333590000Y-27835000D01*
X333910000Y-27835000D01*
X333910000Y-28775000D01*
G37*
X333910000Y-35665000D02*
X333590000Y-35665000D01*
X333590000Y-34725000D01*
X333910000Y-34725000D01*
X333910000Y-35665000D01*
G36*
X333910000Y-35665000D02*
G01*
X333590000Y-35665000D01*
X333590000Y-34725000D01*
X333910000Y-34725000D01*
X333910000Y-35665000D01*
G37*
X334310000Y-28775000D02*
X333990000Y-28775000D01*
X333990000Y-27835000D01*
X334310000Y-27835000D01*
X334310000Y-28775000D01*
G36*
X334310000Y-28775000D02*
G01*
X333990000Y-28775000D01*
X333990000Y-27835000D01*
X334310000Y-27835000D01*
X334310000Y-28775000D01*
G37*
X334310000Y-35665000D02*
X333990000Y-35665000D01*
X333990000Y-34725000D01*
X334310000Y-34725000D01*
X334310000Y-35665000D01*
G36*
X334310000Y-35665000D02*
G01*
X333990000Y-35665000D01*
X333990000Y-34725000D01*
X334310000Y-34725000D01*
X334310000Y-35665000D01*
G37*
X334710000Y-28775000D02*
X334390000Y-28775000D01*
X334390000Y-27835000D01*
X334710000Y-27835000D01*
X334710000Y-28775000D01*
G36*
X334710000Y-28775000D02*
G01*
X334390000Y-28775000D01*
X334390000Y-27835000D01*
X334710000Y-27835000D01*
X334710000Y-28775000D01*
G37*
X334710000Y-35665000D02*
X334390000Y-35665000D01*
X334390000Y-34725000D01*
X334710000Y-34725000D01*
X334710000Y-35665000D01*
G36*
X334710000Y-35665000D02*
G01*
X334390000Y-35665000D01*
X334390000Y-34725000D01*
X334710000Y-34725000D01*
X334710000Y-35665000D01*
G37*
X335110000Y-28775000D02*
X334790000Y-28775000D01*
X334790000Y-27835000D01*
X335110000Y-27835000D01*
X335110000Y-28775000D01*
G36*
X335110000Y-28775000D02*
G01*
X334790000Y-28775000D01*
X334790000Y-27835000D01*
X335110000Y-27835000D01*
X335110000Y-28775000D01*
G37*
X335110000Y-35665000D02*
X334790000Y-35665000D01*
X334790000Y-34725000D01*
X335110000Y-34725000D01*
X335110000Y-35665000D01*
G36*
X335110000Y-35665000D02*
G01*
X334790000Y-35665000D01*
X334790000Y-34725000D01*
X335110000Y-34725000D01*
X335110000Y-35665000D01*
G37*
X335510000Y-28775000D02*
X335190000Y-28775000D01*
X335190000Y-27835000D01*
X335510000Y-27835000D01*
X335510000Y-28775000D01*
G36*
X335510000Y-28775000D02*
G01*
X335190000Y-28775000D01*
X335190000Y-27835000D01*
X335510000Y-27835000D01*
X335510000Y-28775000D01*
G37*
X335510000Y-35665000D02*
X335190000Y-35665000D01*
X335190000Y-34725000D01*
X335510000Y-34725000D01*
X335510000Y-35665000D01*
G36*
X335510000Y-35665000D02*
G01*
X335190000Y-35665000D01*
X335190000Y-34725000D01*
X335510000Y-34725000D01*
X335510000Y-35665000D01*
G37*
X335910000Y-28775000D02*
X335590000Y-28775000D01*
X335590000Y-27835000D01*
X335910000Y-27835000D01*
X335910000Y-28775000D01*
G36*
X335910000Y-28775000D02*
G01*
X335590000Y-28775000D01*
X335590000Y-27835000D01*
X335910000Y-27835000D01*
X335910000Y-28775000D01*
G37*
X335910000Y-35665000D02*
X335590000Y-35665000D01*
X335590000Y-34725000D01*
X335910000Y-34725000D01*
X335910000Y-35665000D01*
G36*
X335910000Y-35665000D02*
G01*
X335590000Y-35665000D01*
X335590000Y-34725000D01*
X335910000Y-34725000D01*
X335910000Y-35665000D01*
G37*
X336310000Y-28775000D02*
X335990000Y-28775000D01*
X335990000Y-27835000D01*
X336310000Y-27835000D01*
X336310000Y-28775000D01*
G36*
X336310000Y-28775000D02*
G01*
X335990000Y-28775000D01*
X335990000Y-27835000D01*
X336310000Y-27835000D01*
X336310000Y-28775000D01*
G37*
X336310000Y-35665000D02*
X335990000Y-35665000D01*
X335990000Y-34725000D01*
X336310000Y-34725000D01*
X336310000Y-35665000D01*
G36*
X336310000Y-35665000D02*
G01*
X335990000Y-35665000D01*
X335990000Y-34725000D01*
X336310000Y-34725000D01*
X336310000Y-35665000D01*
G37*
X336710000Y-28775000D02*
X336390000Y-28775000D01*
X336390000Y-27835000D01*
X336710000Y-27835000D01*
X336710000Y-28775000D01*
G36*
X336710000Y-28775000D02*
G01*
X336390000Y-28775000D01*
X336390000Y-27835000D01*
X336710000Y-27835000D01*
X336710000Y-28775000D01*
G37*
X336710000Y-35665000D02*
X336390000Y-35665000D01*
X336390000Y-34725000D01*
X336710000Y-34725000D01*
X336710000Y-35665000D01*
G36*
X336710000Y-35665000D02*
G01*
X336390000Y-35665000D01*
X336390000Y-34725000D01*
X336710000Y-34725000D01*
X336710000Y-35665000D01*
G37*
X337110000Y-28775000D02*
X336790000Y-28775000D01*
X336790000Y-27835000D01*
X337110000Y-27835000D01*
X337110000Y-28775000D01*
G36*
X337110000Y-28775000D02*
G01*
X336790000Y-28775000D01*
X336790000Y-27835000D01*
X337110000Y-27835000D01*
X337110000Y-28775000D01*
G37*
X337110000Y-35665000D02*
X336790000Y-35665000D01*
X336790000Y-34725000D01*
X337110000Y-34725000D01*
X337110000Y-35665000D01*
G36*
X337110000Y-35665000D02*
G01*
X336790000Y-35665000D01*
X336790000Y-34725000D01*
X337110000Y-34725000D01*
X337110000Y-35665000D01*
G37*
X337510000Y-28775000D02*
X337190000Y-28775000D01*
X337190000Y-27835000D01*
X337510000Y-27835000D01*
X337510000Y-28775000D01*
G36*
X337510000Y-28775000D02*
G01*
X337190000Y-28775000D01*
X337190000Y-27835000D01*
X337510000Y-27835000D01*
X337510000Y-28775000D01*
G37*
X337510000Y-35665000D02*
X337190000Y-35665000D01*
X337190000Y-34725000D01*
X337510000Y-34725000D01*
X337510000Y-35665000D01*
G36*
X337510000Y-35665000D02*
G01*
X337190000Y-35665000D01*
X337190000Y-34725000D01*
X337510000Y-34725000D01*
X337510000Y-35665000D01*
G37*
X337910000Y-28775000D02*
X337590000Y-28775000D01*
X337590000Y-27835000D01*
X337910000Y-27835000D01*
X337910000Y-28775000D01*
G36*
X337910000Y-28775000D02*
G01*
X337590000Y-28775000D01*
X337590000Y-27835000D01*
X337910000Y-27835000D01*
X337910000Y-28775000D01*
G37*
X337910000Y-35665000D02*
X337590000Y-35665000D01*
X337590000Y-34725000D01*
X337910000Y-34725000D01*
X337910000Y-35665000D01*
G36*
X337910000Y-35665000D02*
G01*
X337590000Y-35665000D01*
X337590000Y-34725000D01*
X337910000Y-34725000D01*
X337910000Y-35665000D01*
G37*
X338310000Y-28775000D02*
X337990000Y-28775000D01*
X337990000Y-27835000D01*
X338310000Y-27835000D01*
X338310000Y-28775000D01*
G36*
X338310000Y-28775000D02*
G01*
X337990000Y-28775000D01*
X337990000Y-27835000D01*
X338310000Y-27835000D01*
X338310000Y-28775000D01*
G37*
X338310000Y-35665000D02*
X337990000Y-35665000D01*
X337990000Y-34725000D01*
X338310000Y-34725000D01*
X338310000Y-35665000D01*
G36*
X338310000Y-35665000D02*
G01*
X337990000Y-35665000D01*
X337990000Y-34725000D01*
X338310000Y-34725000D01*
X338310000Y-35665000D01*
G37*
X338710000Y-28775000D02*
X338390000Y-28775000D01*
X338390000Y-27835000D01*
X338710000Y-27835000D01*
X338710000Y-28775000D01*
G36*
X338710000Y-28775000D02*
G01*
X338390000Y-28775000D01*
X338390000Y-27835000D01*
X338710000Y-27835000D01*
X338710000Y-28775000D01*
G37*
X338710000Y-35665000D02*
X338390000Y-35665000D01*
X338390000Y-34725000D01*
X338710000Y-34725000D01*
X338710000Y-35665000D01*
G36*
X338710000Y-35665000D02*
G01*
X338390000Y-35665000D01*
X338390000Y-34725000D01*
X338710000Y-34725000D01*
X338710000Y-35665000D01*
G37*
X339110000Y-28775000D02*
X338790000Y-28775000D01*
X338790000Y-27835000D01*
X339110000Y-27835000D01*
X339110000Y-28775000D01*
G36*
X339110000Y-28775000D02*
G01*
X338790000Y-28775000D01*
X338790000Y-27835000D01*
X339110000Y-27835000D01*
X339110000Y-28775000D01*
G37*
X339110000Y-35665000D02*
X338790000Y-35665000D01*
X338790000Y-34725000D01*
X339110000Y-34725000D01*
X339110000Y-35665000D01*
G36*
X339110000Y-35665000D02*
G01*
X338790000Y-35665000D01*
X338790000Y-34725000D01*
X339110000Y-34725000D01*
X339110000Y-35665000D01*
G37*
X339510000Y-28775000D02*
X339190000Y-28775000D01*
X339190000Y-27835000D01*
X339510000Y-27835000D01*
X339510000Y-28775000D01*
G36*
X339510000Y-28775000D02*
G01*
X339190000Y-28775000D01*
X339190000Y-27835000D01*
X339510000Y-27835000D01*
X339510000Y-28775000D01*
G37*
X339510000Y-35665000D02*
X339190000Y-35665000D01*
X339190000Y-34725000D01*
X339510000Y-34725000D01*
X339510000Y-35665000D01*
G36*
X339510000Y-35665000D02*
G01*
X339190000Y-35665000D01*
X339190000Y-34725000D01*
X339510000Y-34725000D01*
X339510000Y-35665000D01*
G37*
X340465000Y-29110000D02*
X339525000Y-29110000D01*
X339525000Y-28790000D01*
X340465000Y-28790000D01*
X340465000Y-29110000D01*
G36*
X340465000Y-29110000D02*
G01*
X339525000Y-29110000D01*
X339525000Y-28790000D01*
X340465000Y-28790000D01*
X340465000Y-29110000D01*
G37*
X340465000Y-29510000D02*
X339525000Y-29510000D01*
X339525000Y-29190000D01*
X340465000Y-29190000D01*
X340465000Y-29510000D01*
G36*
X340465000Y-29510000D02*
G01*
X339525000Y-29510000D01*
X339525000Y-29190000D01*
X340465000Y-29190000D01*
X340465000Y-29510000D01*
G37*
X340465000Y-29910000D02*
X339525000Y-29910000D01*
X339525000Y-29590000D01*
X340465000Y-29590000D01*
X340465000Y-29910000D01*
G36*
X340465000Y-29910000D02*
G01*
X339525000Y-29910000D01*
X339525000Y-29590000D01*
X340465000Y-29590000D01*
X340465000Y-29910000D01*
G37*
X340465000Y-30310000D02*
X339525000Y-30310000D01*
X339525000Y-29990000D01*
X340465000Y-29990000D01*
X340465000Y-30310000D01*
G36*
X340465000Y-30310000D02*
G01*
X339525000Y-30310000D01*
X339525000Y-29990000D01*
X340465000Y-29990000D01*
X340465000Y-30310000D01*
G37*
X340465000Y-30710000D02*
X339525000Y-30710000D01*
X339525000Y-30390000D01*
X340465000Y-30390000D01*
X340465000Y-30710000D01*
G36*
X340465000Y-30710000D02*
G01*
X339525000Y-30710000D01*
X339525000Y-30390000D01*
X340465000Y-30390000D01*
X340465000Y-30710000D01*
G37*
X340465000Y-31110000D02*
X339525000Y-31110000D01*
X339525000Y-30790000D01*
X340465000Y-30790000D01*
X340465000Y-31110000D01*
G36*
X340465000Y-31110000D02*
G01*
X339525000Y-31110000D01*
X339525000Y-30790000D01*
X340465000Y-30790000D01*
X340465000Y-31110000D01*
G37*
X340465000Y-31510000D02*
X339525000Y-31510000D01*
X339525000Y-31190000D01*
X340465000Y-31190000D01*
X340465000Y-31510000D01*
G36*
X340465000Y-31510000D02*
G01*
X339525000Y-31510000D01*
X339525000Y-31190000D01*
X340465000Y-31190000D01*
X340465000Y-31510000D01*
G37*
X340465000Y-31910000D02*
X339525000Y-31910000D01*
X339525000Y-31590000D01*
X340465000Y-31590000D01*
X340465000Y-31910000D01*
G36*
X340465000Y-31910000D02*
G01*
X339525000Y-31910000D01*
X339525000Y-31590000D01*
X340465000Y-31590000D01*
X340465000Y-31910000D01*
G37*
X340465000Y-32310000D02*
X339525000Y-32310000D01*
X339525000Y-31990000D01*
X340465000Y-31990000D01*
X340465000Y-32310000D01*
G36*
X340465000Y-32310000D02*
G01*
X339525000Y-32310000D01*
X339525000Y-31990000D01*
X340465000Y-31990000D01*
X340465000Y-32310000D01*
G37*
X340465000Y-32710000D02*
X339525000Y-32710000D01*
X339525000Y-32390000D01*
X340465000Y-32390000D01*
X340465000Y-32710000D01*
G36*
X340465000Y-32710000D02*
G01*
X339525000Y-32710000D01*
X339525000Y-32390000D01*
X340465000Y-32390000D01*
X340465000Y-32710000D01*
G37*
X340465000Y-33110000D02*
X339525000Y-33110000D01*
X339525000Y-32790000D01*
X340465000Y-32790000D01*
X340465000Y-33110000D01*
G36*
X340465000Y-33110000D02*
G01*
X339525000Y-33110000D01*
X339525000Y-32790000D01*
X340465000Y-32790000D01*
X340465000Y-33110000D01*
G37*
X340465000Y-33510000D02*
X339525000Y-33510000D01*
X339525000Y-33190000D01*
X340465000Y-33190000D01*
X340465000Y-33510000D01*
G36*
X340465000Y-33510000D02*
G01*
X339525000Y-33510000D01*
X339525000Y-33190000D01*
X340465000Y-33190000D01*
X340465000Y-33510000D01*
G37*
X340465000Y-33910000D02*
X339525000Y-33910000D01*
X339525000Y-33590000D01*
X340465000Y-33590000D01*
X340465000Y-33910000D01*
G36*
X340465000Y-33910000D02*
G01*
X339525000Y-33910000D01*
X339525000Y-33590000D01*
X340465000Y-33590000D01*
X340465000Y-33910000D01*
G37*
X340465000Y-34310000D02*
X339525000Y-34310000D01*
X339525000Y-33990000D01*
X340465000Y-33990000D01*
X340465000Y-34310000D01*
G36*
X340465000Y-34310000D02*
G01*
X339525000Y-34310000D01*
X339525000Y-33990000D01*
X340465000Y-33990000D01*
X340465000Y-34310000D01*
G37*
X340465000Y-34710000D02*
X339525000Y-34710000D01*
X339525000Y-34390000D01*
X340465000Y-34390000D01*
X340465000Y-34710000D01*
G36*
X340465000Y-34710000D02*
G01*
X339525000Y-34710000D01*
X339525000Y-34390000D01*
X340465000Y-34390000D01*
X340465000Y-34710000D01*
G37*
%TO.C,U6*%
X247755000Y-147740000D02*
X246815000Y-147740000D01*
X246815000Y-147420000D01*
X247755000Y-147420000D01*
X247755000Y-147740000D01*
G36*
X247755000Y-147740000D02*
G01*
X246815000Y-147740000D01*
X246815000Y-147420000D01*
X247755000Y-147420000D01*
X247755000Y-147740000D01*
G37*
X247755000Y-147340000D02*
X246815000Y-147340000D01*
X246815000Y-147020000D01*
X247755000Y-147020000D01*
X247755000Y-147340000D01*
G36*
X247755000Y-147340000D02*
G01*
X246815000Y-147340000D01*
X246815000Y-147020000D01*
X247755000Y-147020000D01*
X247755000Y-147340000D01*
G37*
X247755000Y-146940000D02*
X246815000Y-146940000D01*
X246815000Y-146620000D01*
X247755000Y-146620000D01*
X247755000Y-146940000D01*
G36*
X247755000Y-146940000D02*
G01*
X246815000Y-146940000D01*
X246815000Y-146620000D01*
X247755000Y-146620000D01*
X247755000Y-146940000D01*
G37*
X247755000Y-146540000D02*
X246815000Y-146540000D01*
X246815000Y-146220000D01*
X247755000Y-146220000D01*
X247755000Y-146540000D01*
G36*
X247755000Y-146540000D02*
G01*
X246815000Y-146540000D01*
X246815000Y-146220000D01*
X247755000Y-146220000D01*
X247755000Y-146540000D01*
G37*
X247755000Y-146140000D02*
X246815000Y-146140000D01*
X246815000Y-145820000D01*
X247755000Y-145820000D01*
X247755000Y-146140000D01*
G36*
X247755000Y-146140000D02*
G01*
X246815000Y-146140000D01*
X246815000Y-145820000D01*
X247755000Y-145820000D01*
X247755000Y-146140000D01*
G37*
X247755000Y-145740000D02*
X246815000Y-145740000D01*
X246815000Y-145420000D01*
X247755000Y-145420000D01*
X247755000Y-145740000D01*
G36*
X247755000Y-145740000D02*
G01*
X246815000Y-145740000D01*
X246815000Y-145420000D01*
X247755000Y-145420000D01*
X247755000Y-145740000D01*
G37*
X247755000Y-145340000D02*
X246815000Y-145340000D01*
X246815000Y-145020000D01*
X247755000Y-145020000D01*
X247755000Y-145340000D01*
G36*
X247755000Y-145340000D02*
G01*
X246815000Y-145340000D01*
X246815000Y-145020000D01*
X247755000Y-145020000D01*
X247755000Y-145340000D01*
G37*
X247755000Y-144940000D02*
X246815000Y-144940000D01*
X246815000Y-144620000D01*
X247755000Y-144620000D01*
X247755000Y-144940000D01*
G36*
X247755000Y-144940000D02*
G01*
X246815000Y-144940000D01*
X246815000Y-144620000D01*
X247755000Y-144620000D01*
X247755000Y-144940000D01*
G37*
X247755000Y-144540000D02*
X246815000Y-144540000D01*
X246815000Y-144220000D01*
X247755000Y-144220000D01*
X247755000Y-144540000D01*
G36*
X247755000Y-144540000D02*
G01*
X246815000Y-144540000D01*
X246815000Y-144220000D01*
X247755000Y-144220000D01*
X247755000Y-144540000D01*
G37*
X247755000Y-144140000D02*
X246815000Y-144140000D01*
X246815000Y-143820000D01*
X247755000Y-143820000D01*
X247755000Y-144140000D01*
G36*
X247755000Y-144140000D02*
G01*
X246815000Y-144140000D01*
X246815000Y-143820000D01*
X247755000Y-143820000D01*
X247755000Y-144140000D01*
G37*
X247755000Y-143740000D02*
X246815000Y-143740000D01*
X246815000Y-143420000D01*
X247755000Y-143420000D01*
X247755000Y-143740000D01*
G36*
X247755000Y-143740000D02*
G01*
X246815000Y-143740000D01*
X246815000Y-143420000D01*
X247755000Y-143420000D01*
X247755000Y-143740000D01*
G37*
X247755000Y-143340000D02*
X246815000Y-143340000D01*
X246815000Y-143020000D01*
X247755000Y-143020000D01*
X247755000Y-143340000D01*
G36*
X247755000Y-143340000D02*
G01*
X246815000Y-143340000D01*
X246815000Y-143020000D01*
X247755000Y-143020000D01*
X247755000Y-143340000D01*
G37*
X247755000Y-142940000D02*
X246815000Y-142940000D01*
X246815000Y-142620000D01*
X247755000Y-142620000D01*
X247755000Y-142940000D01*
G36*
X247755000Y-142940000D02*
G01*
X246815000Y-142940000D01*
X246815000Y-142620000D01*
X247755000Y-142620000D01*
X247755000Y-142940000D01*
G37*
X247755000Y-142540000D02*
X246815000Y-142540000D01*
X246815000Y-142220000D01*
X247755000Y-142220000D01*
X247755000Y-142540000D01*
G36*
X247755000Y-142540000D02*
G01*
X246815000Y-142540000D01*
X246815000Y-142220000D01*
X247755000Y-142220000D01*
X247755000Y-142540000D01*
G37*
X247755000Y-142140000D02*
X246815000Y-142140000D01*
X246815000Y-141820000D01*
X247755000Y-141820000D01*
X247755000Y-142140000D01*
G36*
X247755000Y-142140000D02*
G01*
X246815000Y-142140000D01*
X246815000Y-141820000D01*
X247755000Y-141820000D01*
X247755000Y-142140000D01*
G37*
X246800000Y-148695000D02*
X246480000Y-148695000D01*
X246480000Y-147755000D01*
X246800000Y-147755000D01*
X246800000Y-148695000D01*
G36*
X246800000Y-148695000D02*
G01*
X246480000Y-148695000D01*
X246480000Y-147755000D01*
X246800000Y-147755000D01*
X246800000Y-148695000D01*
G37*
X246800000Y-141805000D02*
X246480000Y-141805000D01*
X246480000Y-140865000D01*
X246800000Y-140865000D01*
X246800000Y-141805000D01*
G36*
X246800000Y-141805000D02*
G01*
X246480000Y-141805000D01*
X246480000Y-140865000D01*
X246800000Y-140865000D01*
X246800000Y-141805000D01*
G37*
X246400000Y-148695000D02*
X246080000Y-148695000D01*
X246080000Y-147755000D01*
X246400000Y-147755000D01*
X246400000Y-148695000D01*
G36*
X246400000Y-148695000D02*
G01*
X246080000Y-148695000D01*
X246080000Y-147755000D01*
X246400000Y-147755000D01*
X246400000Y-148695000D01*
G37*
X246400000Y-141805000D02*
X246080000Y-141805000D01*
X246080000Y-140865000D01*
X246400000Y-140865000D01*
X246400000Y-141805000D01*
G36*
X246400000Y-141805000D02*
G01*
X246080000Y-141805000D01*
X246080000Y-140865000D01*
X246400000Y-140865000D01*
X246400000Y-141805000D01*
G37*
X246000000Y-148695000D02*
X245680000Y-148695000D01*
X245680000Y-147755000D01*
X246000000Y-147755000D01*
X246000000Y-148695000D01*
G36*
X246000000Y-148695000D02*
G01*
X245680000Y-148695000D01*
X245680000Y-147755000D01*
X246000000Y-147755000D01*
X246000000Y-148695000D01*
G37*
X246000000Y-141805000D02*
X245680000Y-141805000D01*
X245680000Y-140865000D01*
X246000000Y-140865000D01*
X246000000Y-141805000D01*
G36*
X246000000Y-141805000D02*
G01*
X245680000Y-141805000D01*
X245680000Y-140865000D01*
X246000000Y-140865000D01*
X246000000Y-141805000D01*
G37*
X245600000Y-148695000D02*
X245280000Y-148695000D01*
X245280000Y-147755000D01*
X245600000Y-147755000D01*
X245600000Y-148695000D01*
G36*
X245600000Y-148695000D02*
G01*
X245280000Y-148695000D01*
X245280000Y-147755000D01*
X245600000Y-147755000D01*
X245600000Y-148695000D01*
G37*
X245600000Y-141805000D02*
X245280000Y-141805000D01*
X245280000Y-140865000D01*
X245600000Y-140865000D01*
X245600000Y-141805000D01*
G36*
X245600000Y-141805000D02*
G01*
X245280000Y-141805000D01*
X245280000Y-140865000D01*
X245600000Y-140865000D01*
X245600000Y-141805000D01*
G37*
X245200000Y-148695000D02*
X244880000Y-148695000D01*
X244880000Y-147755000D01*
X245200000Y-147755000D01*
X245200000Y-148695000D01*
G36*
X245200000Y-148695000D02*
G01*
X244880000Y-148695000D01*
X244880000Y-147755000D01*
X245200000Y-147755000D01*
X245200000Y-148695000D01*
G37*
X245200000Y-141805000D02*
X244880000Y-141805000D01*
X244880000Y-140865000D01*
X245200000Y-140865000D01*
X245200000Y-141805000D01*
G36*
X245200000Y-141805000D02*
G01*
X244880000Y-141805000D01*
X244880000Y-140865000D01*
X245200000Y-140865000D01*
X245200000Y-141805000D01*
G37*
X244800000Y-148695000D02*
X244480000Y-148695000D01*
X244480000Y-147755000D01*
X244800000Y-147755000D01*
X244800000Y-148695000D01*
G36*
X244800000Y-148695000D02*
G01*
X244480000Y-148695000D01*
X244480000Y-147755000D01*
X244800000Y-147755000D01*
X244800000Y-148695000D01*
G37*
X244800000Y-141805000D02*
X244480000Y-141805000D01*
X244480000Y-140865000D01*
X244800000Y-140865000D01*
X244800000Y-141805000D01*
G36*
X244800000Y-141805000D02*
G01*
X244480000Y-141805000D01*
X244480000Y-140865000D01*
X244800000Y-140865000D01*
X244800000Y-141805000D01*
G37*
X244400000Y-148695000D02*
X244080000Y-148695000D01*
X244080000Y-147755000D01*
X244400000Y-147755000D01*
X244400000Y-148695000D01*
G36*
X244400000Y-148695000D02*
G01*
X244080000Y-148695000D01*
X244080000Y-147755000D01*
X244400000Y-147755000D01*
X244400000Y-148695000D01*
G37*
X244400000Y-141805000D02*
X244080000Y-141805000D01*
X244080000Y-140865000D01*
X244400000Y-140865000D01*
X244400000Y-141805000D01*
G36*
X244400000Y-141805000D02*
G01*
X244080000Y-141805000D01*
X244080000Y-140865000D01*
X244400000Y-140865000D01*
X244400000Y-141805000D01*
G37*
X244000000Y-148695000D02*
X243680000Y-148695000D01*
X243680000Y-147755000D01*
X244000000Y-147755000D01*
X244000000Y-148695000D01*
G36*
X244000000Y-148695000D02*
G01*
X243680000Y-148695000D01*
X243680000Y-147755000D01*
X244000000Y-147755000D01*
X244000000Y-148695000D01*
G37*
X244000000Y-141805000D02*
X243680000Y-141805000D01*
X243680000Y-140865000D01*
X244000000Y-140865000D01*
X244000000Y-141805000D01*
G36*
X244000000Y-141805000D02*
G01*
X243680000Y-141805000D01*
X243680000Y-140865000D01*
X244000000Y-140865000D01*
X244000000Y-141805000D01*
G37*
X243600000Y-148695000D02*
X243280000Y-148695000D01*
X243280000Y-147755000D01*
X243600000Y-147755000D01*
X243600000Y-148695000D01*
G36*
X243600000Y-148695000D02*
G01*
X243280000Y-148695000D01*
X243280000Y-147755000D01*
X243600000Y-147755000D01*
X243600000Y-148695000D01*
G37*
X243600000Y-141805000D02*
X243280000Y-141805000D01*
X243280000Y-140865000D01*
X243600000Y-140865000D01*
X243600000Y-141805000D01*
G36*
X243600000Y-141805000D02*
G01*
X243280000Y-141805000D01*
X243280000Y-140865000D01*
X243600000Y-140865000D01*
X243600000Y-141805000D01*
G37*
X243200000Y-148695000D02*
X242880000Y-148695000D01*
X242880000Y-147755000D01*
X243200000Y-147755000D01*
X243200000Y-148695000D01*
G36*
X243200000Y-148695000D02*
G01*
X242880000Y-148695000D01*
X242880000Y-147755000D01*
X243200000Y-147755000D01*
X243200000Y-148695000D01*
G37*
X243200000Y-141805000D02*
X242880000Y-141805000D01*
X242880000Y-140865000D01*
X243200000Y-140865000D01*
X243200000Y-141805000D01*
G36*
X243200000Y-141805000D02*
G01*
X242880000Y-141805000D01*
X242880000Y-140865000D01*
X243200000Y-140865000D01*
X243200000Y-141805000D01*
G37*
X242800000Y-148695000D02*
X242480000Y-148695000D01*
X242480000Y-147755000D01*
X242800000Y-147755000D01*
X242800000Y-148695000D01*
G36*
X242800000Y-148695000D02*
G01*
X242480000Y-148695000D01*
X242480000Y-147755000D01*
X242800000Y-147755000D01*
X242800000Y-148695000D01*
G37*
X242800000Y-141805000D02*
X242480000Y-141805000D01*
X242480000Y-140865000D01*
X242800000Y-140865000D01*
X242800000Y-141805000D01*
G36*
X242800000Y-141805000D02*
G01*
X242480000Y-141805000D01*
X242480000Y-140865000D01*
X242800000Y-140865000D01*
X242800000Y-141805000D01*
G37*
X242400000Y-148695000D02*
X242080000Y-148695000D01*
X242080000Y-147755000D01*
X242400000Y-147755000D01*
X242400000Y-148695000D01*
G36*
X242400000Y-148695000D02*
G01*
X242080000Y-148695000D01*
X242080000Y-147755000D01*
X242400000Y-147755000D01*
X242400000Y-148695000D01*
G37*
X242400000Y-141805000D02*
X242080000Y-141805000D01*
X242080000Y-140865000D01*
X242400000Y-140865000D01*
X242400000Y-141805000D01*
G36*
X242400000Y-141805000D02*
G01*
X242080000Y-141805000D01*
X242080000Y-140865000D01*
X242400000Y-140865000D01*
X242400000Y-141805000D01*
G37*
X242000000Y-148695000D02*
X241680000Y-148695000D01*
X241680000Y-147755000D01*
X242000000Y-147755000D01*
X242000000Y-148695000D01*
G36*
X242000000Y-148695000D02*
G01*
X241680000Y-148695000D01*
X241680000Y-147755000D01*
X242000000Y-147755000D01*
X242000000Y-148695000D01*
G37*
X242000000Y-141805000D02*
X241680000Y-141805000D01*
X241680000Y-140865000D01*
X242000000Y-140865000D01*
X242000000Y-141805000D01*
G36*
X242000000Y-141805000D02*
G01*
X241680000Y-141805000D01*
X241680000Y-140865000D01*
X242000000Y-140865000D01*
X242000000Y-141805000D01*
G37*
X241600000Y-148695000D02*
X241280000Y-148695000D01*
X241280000Y-147755000D01*
X241600000Y-147755000D01*
X241600000Y-148695000D01*
G36*
X241600000Y-148695000D02*
G01*
X241280000Y-148695000D01*
X241280000Y-147755000D01*
X241600000Y-147755000D01*
X241600000Y-148695000D01*
G37*
X241600000Y-141805000D02*
X241280000Y-141805000D01*
X241280000Y-140865000D01*
X241600000Y-140865000D01*
X241600000Y-141805000D01*
G36*
X241600000Y-141805000D02*
G01*
X241280000Y-141805000D01*
X241280000Y-140865000D01*
X241600000Y-140865000D01*
X241600000Y-141805000D01*
G37*
X241200000Y-148695000D02*
X240880000Y-148695000D01*
X240880000Y-147755000D01*
X241200000Y-147755000D01*
X241200000Y-148695000D01*
G36*
X241200000Y-148695000D02*
G01*
X240880000Y-148695000D01*
X240880000Y-147755000D01*
X241200000Y-147755000D01*
X241200000Y-148695000D01*
G37*
X241200000Y-141805000D02*
X240880000Y-141805000D01*
X240880000Y-140865000D01*
X241200000Y-140865000D01*
X241200000Y-141805000D01*
G36*
X241200000Y-141805000D02*
G01*
X240880000Y-141805000D01*
X240880000Y-140865000D01*
X241200000Y-140865000D01*
X241200000Y-141805000D01*
G37*
X240865000Y-147740000D02*
X239925000Y-147740000D01*
X239925000Y-147420000D01*
X240865000Y-147420000D01*
X240865000Y-147740000D01*
G36*
X240865000Y-147740000D02*
G01*
X239925000Y-147740000D01*
X239925000Y-147420000D01*
X240865000Y-147420000D01*
X240865000Y-147740000D01*
G37*
X240865000Y-147340000D02*
X239925000Y-147340000D01*
X239925000Y-147020000D01*
X240865000Y-147020000D01*
X240865000Y-147340000D01*
G36*
X240865000Y-147340000D02*
G01*
X239925000Y-147340000D01*
X239925000Y-147020000D01*
X240865000Y-147020000D01*
X240865000Y-147340000D01*
G37*
X240865000Y-146940000D02*
X239925000Y-146940000D01*
X239925000Y-146620000D01*
X240865000Y-146620000D01*
X240865000Y-146940000D01*
G36*
X240865000Y-146940000D02*
G01*
X239925000Y-146940000D01*
X239925000Y-146620000D01*
X240865000Y-146620000D01*
X240865000Y-146940000D01*
G37*
X240865000Y-146540000D02*
X239925000Y-146540000D01*
X239925000Y-146220000D01*
X240865000Y-146220000D01*
X240865000Y-146540000D01*
G36*
X240865000Y-146540000D02*
G01*
X239925000Y-146540000D01*
X239925000Y-146220000D01*
X240865000Y-146220000D01*
X240865000Y-146540000D01*
G37*
X240865000Y-146140000D02*
X239925000Y-146140000D01*
X239925000Y-145820000D01*
X240865000Y-145820000D01*
X240865000Y-146140000D01*
G36*
X240865000Y-146140000D02*
G01*
X239925000Y-146140000D01*
X239925000Y-145820000D01*
X240865000Y-145820000D01*
X240865000Y-146140000D01*
G37*
X240865000Y-145740000D02*
X239925000Y-145740000D01*
X239925000Y-145420000D01*
X240865000Y-145420000D01*
X240865000Y-145740000D01*
G36*
X240865000Y-145740000D02*
G01*
X239925000Y-145740000D01*
X239925000Y-145420000D01*
X240865000Y-145420000D01*
X240865000Y-145740000D01*
G37*
X240865000Y-145340000D02*
X239925000Y-145340000D01*
X239925000Y-145020000D01*
X240865000Y-145020000D01*
X240865000Y-145340000D01*
G36*
X240865000Y-145340000D02*
G01*
X239925000Y-145340000D01*
X239925000Y-145020000D01*
X240865000Y-145020000D01*
X240865000Y-145340000D01*
G37*
X240865000Y-144940000D02*
X239925000Y-144940000D01*
X239925000Y-144620000D01*
X240865000Y-144620000D01*
X240865000Y-144940000D01*
G36*
X240865000Y-144940000D02*
G01*
X239925000Y-144940000D01*
X239925000Y-144620000D01*
X240865000Y-144620000D01*
X240865000Y-144940000D01*
G37*
X240865000Y-144540000D02*
X239925000Y-144540000D01*
X239925000Y-144220000D01*
X240865000Y-144220000D01*
X240865000Y-144540000D01*
G36*
X240865000Y-144540000D02*
G01*
X239925000Y-144540000D01*
X239925000Y-144220000D01*
X240865000Y-144220000D01*
X240865000Y-144540000D01*
G37*
X240865000Y-144140000D02*
X239925000Y-144140000D01*
X239925000Y-143820000D01*
X240865000Y-143820000D01*
X240865000Y-144140000D01*
G36*
X240865000Y-144140000D02*
G01*
X239925000Y-144140000D01*
X239925000Y-143820000D01*
X240865000Y-143820000D01*
X240865000Y-144140000D01*
G37*
X240865000Y-143740000D02*
X239925000Y-143740000D01*
X239925000Y-143420000D01*
X240865000Y-143420000D01*
X240865000Y-143740000D01*
G36*
X240865000Y-143740000D02*
G01*
X239925000Y-143740000D01*
X239925000Y-143420000D01*
X240865000Y-143420000D01*
X240865000Y-143740000D01*
G37*
X240865000Y-143340000D02*
X239925000Y-143340000D01*
X239925000Y-143020000D01*
X240865000Y-143020000D01*
X240865000Y-143340000D01*
G36*
X240865000Y-143340000D02*
G01*
X239925000Y-143340000D01*
X239925000Y-143020000D01*
X240865000Y-143020000D01*
X240865000Y-143340000D01*
G37*
X240865000Y-142940000D02*
X239925000Y-142940000D01*
X239925000Y-142620000D01*
X240865000Y-142620000D01*
X240865000Y-142940000D01*
G36*
X240865000Y-142940000D02*
G01*
X239925000Y-142940000D01*
X239925000Y-142620000D01*
X240865000Y-142620000D01*
X240865000Y-142940000D01*
G37*
X240865000Y-142540000D02*
X239925000Y-142540000D01*
X239925000Y-142220000D01*
X240865000Y-142220000D01*
X240865000Y-142540000D01*
G36*
X240865000Y-142540000D02*
G01*
X239925000Y-142540000D01*
X239925000Y-142220000D01*
X240865000Y-142220000D01*
X240865000Y-142540000D01*
G37*
X240865000Y-142140000D02*
X239925000Y-142140000D01*
X239925000Y-141820000D01*
X240865000Y-141820000D01*
X240865000Y-142140000D01*
G36*
X240865000Y-142140000D02*
G01*
X239925000Y-142140000D01*
X239925000Y-141820000D01*
X240865000Y-141820000D01*
X240865000Y-142140000D01*
G37*
%TO.C,U5*%
X98625000Y-98960000D02*
X97685000Y-98960000D01*
X97685000Y-98640000D01*
X98625000Y-98640000D01*
X98625000Y-98960000D01*
G36*
X98625000Y-98960000D02*
G01*
X97685000Y-98960000D01*
X97685000Y-98640000D01*
X98625000Y-98640000D01*
X98625000Y-98960000D01*
G37*
X98625000Y-99360000D02*
X97685000Y-99360000D01*
X97685000Y-99040000D01*
X98625000Y-99040000D01*
X98625000Y-99360000D01*
G36*
X98625000Y-99360000D02*
G01*
X97685000Y-99360000D01*
X97685000Y-99040000D01*
X98625000Y-99040000D01*
X98625000Y-99360000D01*
G37*
X98625000Y-99760000D02*
X97685000Y-99760000D01*
X97685000Y-99440000D01*
X98625000Y-99440000D01*
X98625000Y-99760000D01*
G36*
X98625000Y-99760000D02*
G01*
X97685000Y-99760000D01*
X97685000Y-99440000D01*
X98625000Y-99440000D01*
X98625000Y-99760000D01*
G37*
X98625000Y-100160000D02*
X97685000Y-100160000D01*
X97685000Y-99840000D01*
X98625000Y-99840000D01*
X98625000Y-100160000D01*
G36*
X98625000Y-100160000D02*
G01*
X97685000Y-100160000D01*
X97685000Y-99840000D01*
X98625000Y-99840000D01*
X98625000Y-100160000D01*
G37*
X98625000Y-100560000D02*
X97685000Y-100560000D01*
X97685000Y-100240000D01*
X98625000Y-100240000D01*
X98625000Y-100560000D01*
G36*
X98625000Y-100560000D02*
G01*
X97685000Y-100560000D01*
X97685000Y-100240000D01*
X98625000Y-100240000D01*
X98625000Y-100560000D01*
G37*
X98625000Y-100960000D02*
X97685000Y-100960000D01*
X97685000Y-100640000D01*
X98625000Y-100640000D01*
X98625000Y-100960000D01*
G36*
X98625000Y-100960000D02*
G01*
X97685000Y-100960000D01*
X97685000Y-100640000D01*
X98625000Y-100640000D01*
X98625000Y-100960000D01*
G37*
X98625000Y-101360000D02*
X97685000Y-101360000D01*
X97685000Y-101040000D01*
X98625000Y-101040000D01*
X98625000Y-101360000D01*
G36*
X98625000Y-101360000D02*
G01*
X97685000Y-101360000D01*
X97685000Y-101040000D01*
X98625000Y-101040000D01*
X98625000Y-101360000D01*
G37*
X98625000Y-101760000D02*
X97685000Y-101760000D01*
X97685000Y-101440000D01*
X98625000Y-101440000D01*
X98625000Y-101760000D01*
G36*
X98625000Y-101760000D02*
G01*
X97685000Y-101760000D01*
X97685000Y-101440000D01*
X98625000Y-101440000D01*
X98625000Y-101760000D01*
G37*
X98625000Y-102160000D02*
X97685000Y-102160000D01*
X97685000Y-101840000D01*
X98625000Y-101840000D01*
X98625000Y-102160000D01*
G36*
X98625000Y-102160000D02*
G01*
X97685000Y-102160000D01*
X97685000Y-101840000D01*
X98625000Y-101840000D01*
X98625000Y-102160000D01*
G37*
X98625000Y-102560000D02*
X97685000Y-102560000D01*
X97685000Y-102240000D01*
X98625000Y-102240000D01*
X98625000Y-102560000D01*
G36*
X98625000Y-102560000D02*
G01*
X97685000Y-102560000D01*
X97685000Y-102240000D01*
X98625000Y-102240000D01*
X98625000Y-102560000D01*
G37*
X98625000Y-102960000D02*
X97685000Y-102960000D01*
X97685000Y-102640000D01*
X98625000Y-102640000D01*
X98625000Y-102960000D01*
G36*
X98625000Y-102960000D02*
G01*
X97685000Y-102960000D01*
X97685000Y-102640000D01*
X98625000Y-102640000D01*
X98625000Y-102960000D01*
G37*
X98625000Y-103360000D02*
X97685000Y-103360000D01*
X97685000Y-103040000D01*
X98625000Y-103040000D01*
X98625000Y-103360000D01*
G36*
X98625000Y-103360000D02*
G01*
X97685000Y-103360000D01*
X97685000Y-103040000D01*
X98625000Y-103040000D01*
X98625000Y-103360000D01*
G37*
X98625000Y-103760000D02*
X97685000Y-103760000D01*
X97685000Y-103440000D01*
X98625000Y-103440000D01*
X98625000Y-103760000D01*
G36*
X98625000Y-103760000D02*
G01*
X97685000Y-103760000D01*
X97685000Y-103440000D01*
X98625000Y-103440000D01*
X98625000Y-103760000D01*
G37*
X98625000Y-104160000D02*
X97685000Y-104160000D01*
X97685000Y-103840000D01*
X98625000Y-103840000D01*
X98625000Y-104160000D01*
G36*
X98625000Y-104160000D02*
G01*
X97685000Y-104160000D01*
X97685000Y-103840000D01*
X98625000Y-103840000D01*
X98625000Y-104160000D01*
G37*
X98625000Y-104560000D02*
X97685000Y-104560000D01*
X97685000Y-104240000D01*
X98625000Y-104240000D01*
X98625000Y-104560000D01*
G36*
X98625000Y-104560000D02*
G01*
X97685000Y-104560000D01*
X97685000Y-104240000D01*
X98625000Y-104240000D01*
X98625000Y-104560000D01*
G37*
X98960000Y-98625000D02*
X98640000Y-98625000D01*
X98640000Y-97685000D01*
X98960000Y-97685000D01*
X98960000Y-98625000D01*
G36*
X98960000Y-98625000D02*
G01*
X98640000Y-98625000D01*
X98640000Y-97685000D01*
X98960000Y-97685000D01*
X98960000Y-98625000D01*
G37*
X98960000Y-105515000D02*
X98640000Y-105515000D01*
X98640000Y-104575000D01*
X98960000Y-104575000D01*
X98960000Y-105515000D01*
G36*
X98960000Y-105515000D02*
G01*
X98640000Y-105515000D01*
X98640000Y-104575000D01*
X98960000Y-104575000D01*
X98960000Y-105515000D01*
G37*
X99360000Y-98625000D02*
X99040000Y-98625000D01*
X99040000Y-97685000D01*
X99360000Y-97685000D01*
X99360000Y-98625000D01*
G36*
X99360000Y-98625000D02*
G01*
X99040000Y-98625000D01*
X99040000Y-97685000D01*
X99360000Y-97685000D01*
X99360000Y-98625000D01*
G37*
X99360000Y-105515000D02*
X99040000Y-105515000D01*
X99040000Y-104575000D01*
X99360000Y-104575000D01*
X99360000Y-105515000D01*
G36*
X99360000Y-105515000D02*
G01*
X99040000Y-105515000D01*
X99040000Y-104575000D01*
X99360000Y-104575000D01*
X99360000Y-105515000D01*
G37*
X99760000Y-98625000D02*
X99440000Y-98625000D01*
X99440000Y-97685000D01*
X99760000Y-97685000D01*
X99760000Y-98625000D01*
G36*
X99760000Y-98625000D02*
G01*
X99440000Y-98625000D01*
X99440000Y-97685000D01*
X99760000Y-97685000D01*
X99760000Y-98625000D01*
G37*
X99760000Y-105515000D02*
X99440000Y-105515000D01*
X99440000Y-104575000D01*
X99760000Y-104575000D01*
X99760000Y-105515000D01*
G36*
X99760000Y-105515000D02*
G01*
X99440000Y-105515000D01*
X99440000Y-104575000D01*
X99760000Y-104575000D01*
X99760000Y-105515000D01*
G37*
X100160000Y-98625000D02*
X99840000Y-98625000D01*
X99840000Y-97685000D01*
X100160000Y-97685000D01*
X100160000Y-98625000D01*
G36*
X100160000Y-98625000D02*
G01*
X99840000Y-98625000D01*
X99840000Y-97685000D01*
X100160000Y-97685000D01*
X100160000Y-98625000D01*
G37*
X100160000Y-105515000D02*
X99840000Y-105515000D01*
X99840000Y-104575000D01*
X100160000Y-104575000D01*
X100160000Y-105515000D01*
G36*
X100160000Y-105515000D02*
G01*
X99840000Y-105515000D01*
X99840000Y-104575000D01*
X100160000Y-104575000D01*
X100160000Y-105515000D01*
G37*
X100560000Y-98625000D02*
X100240000Y-98625000D01*
X100240000Y-97685000D01*
X100560000Y-97685000D01*
X100560000Y-98625000D01*
G36*
X100560000Y-98625000D02*
G01*
X100240000Y-98625000D01*
X100240000Y-97685000D01*
X100560000Y-97685000D01*
X100560000Y-98625000D01*
G37*
X100560000Y-105515000D02*
X100240000Y-105515000D01*
X100240000Y-104575000D01*
X100560000Y-104575000D01*
X100560000Y-105515000D01*
G36*
X100560000Y-105515000D02*
G01*
X100240000Y-105515000D01*
X100240000Y-104575000D01*
X100560000Y-104575000D01*
X100560000Y-105515000D01*
G37*
X100960000Y-98625000D02*
X100640000Y-98625000D01*
X100640000Y-97685000D01*
X100960000Y-97685000D01*
X100960000Y-98625000D01*
G36*
X100960000Y-98625000D02*
G01*
X100640000Y-98625000D01*
X100640000Y-97685000D01*
X100960000Y-97685000D01*
X100960000Y-98625000D01*
G37*
X100960000Y-105515000D02*
X100640000Y-105515000D01*
X100640000Y-104575000D01*
X100960000Y-104575000D01*
X100960000Y-105515000D01*
G36*
X100960000Y-105515000D02*
G01*
X100640000Y-105515000D01*
X100640000Y-104575000D01*
X100960000Y-104575000D01*
X100960000Y-105515000D01*
G37*
X101360000Y-98625000D02*
X101040000Y-98625000D01*
X101040000Y-97685000D01*
X101360000Y-97685000D01*
X101360000Y-98625000D01*
G36*
X101360000Y-98625000D02*
G01*
X101040000Y-98625000D01*
X101040000Y-97685000D01*
X101360000Y-97685000D01*
X101360000Y-98625000D01*
G37*
X101360000Y-105515000D02*
X101040000Y-105515000D01*
X101040000Y-104575000D01*
X101360000Y-104575000D01*
X101360000Y-105515000D01*
G36*
X101360000Y-105515000D02*
G01*
X101040000Y-105515000D01*
X101040000Y-104575000D01*
X101360000Y-104575000D01*
X101360000Y-105515000D01*
G37*
X101760000Y-98625000D02*
X101440000Y-98625000D01*
X101440000Y-97685000D01*
X101760000Y-97685000D01*
X101760000Y-98625000D01*
G36*
X101760000Y-98625000D02*
G01*
X101440000Y-98625000D01*
X101440000Y-97685000D01*
X101760000Y-97685000D01*
X101760000Y-98625000D01*
G37*
X101760000Y-105515000D02*
X101440000Y-105515000D01*
X101440000Y-104575000D01*
X101760000Y-104575000D01*
X101760000Y-105515000D01*
G36*
X101760000Y-105515000D02*
G01*
X101440000Y-105515000D01*
X101440000Y-104575000D01*
X101760000Y-104575000D01*
X101760000Y-105515000D01*
G37*
X102160000Y-98625000D02*
X101840000Y-98625000D01*
X101840000Y-97685000D01*
X102160000Y-97685000D01*
X102160000Y-98625000D01*
G36*
X102160000Y-98625000D02*
G01*
X101840000Y-98625000D01*
X101840000Y-97685000D01*
X102160000Y-97685000D01*
X102160000Y-98625000D01*
G37*
X102160000Y-105515000D02*
X101840000Y-105515000D01*
X101840000Y-104575000D01*
X102160000Y-104575000D01*
X102160000Y-105515000D01*
G36*
X102160000Y-105515000D02*
G01*
X101840000Y-105515000D01*
X101840000Y-104575000D01*
X102160000Y-104575000D01*
X102160000Y-105515000D01*
G37*
X102560000Y-98625000D02*
X102240000Y-98625000D01*
X102240000Y-97685000D01*
X102560000Y-97685000D01*
X102560000Y-98625000D01*
G36*
X102560000Y-98625000D02*
G01*
X102240000Y-98625000D01*
X102240000Y-97685000D01*
X102560000Y-97685000D01*
X102560000Y-98625000D01*
G37*
X102560000Y-105515000D02*
X102240000Y-105515000D01*
X102240000Y-104575000D01*
X102560000Y-104575000D01*
X102560000Y-105515000D01*
G36*
X102560000Y-105515000D02*
G01*
X102240000Y-105515000D01*
X102240000Y-104575000D01*
X102560000Y-104575000D01*
X102560000Y-105515000D01*
G37*
X102960000Y-98625000D02*
X102640000Y-98625000D01*
X102640000Y-97685000D01*
X102960000Y-97685000D01*
X102960000Y-98625000D01*
G36*
X102960000Y-98625000D02*
G01*
X102640000Y-98625000D01*
X102640000Y-97685000D01*
X102960000Y-97685000D01*
X102960000Y-98625000D01*
G37*
X102960000Y-105515000D02*
X102640000Y-105515000D01*
X102640000Y-104575000D01*
X102960000Y-104575000D01*
X102960000Y-105515000D01*
G36*
X102960000Y-105515000D02*
G01*
X102640000Y-105515000D01*
X102640000Y-104575000D01*
X102960000Y-104575000D01*
X102960000Y-105515000D01*
G37*
X103360000Y-98625000D02*
X103040000Y-98625000D01*
X103040000Y-97685000D01*
X103360000Y-97685000D01*
X103360000Y-98625000D01*
G36*
X103360000Y-98625000D02*
G01*
X103040000Y-98625000D01*
X103040000Y-97685000D01*
X103360000Y-97685000D01*
X103360000Y-98625000D01*
G37*
X103360000Y-105515000D02*
X103040000Y-105515000D01*
X103040000Y-104575000D01*
X103360000Y-104575000D01*
X103360000Y-105515000D01*
G36*
X103360000Y-105515000D02*
G01*
X103040000Y-105515000D01*
X103040000Y-104575000D01*
X103360000Y-104575000D01*
X103360000Y-105515000D01*
G37*
X103760000Y-98625000D02*
X103440000Y-98625000D01*
X103440000Y-97685000D01*
X103760000Y-97685000D01*
X103760000Y-98625000D01*
G36*
X103760000Y-98625000D02*
G01*
X103440000Y-98625000D01*
X103440000Y-97685000D01*
X103760000Y-97685000D01*
X103760000Y-98625000D01*
G37*
X103760000Y-105515000D02*
X103440000Y-105515000D01*
X103440000Y-104575000D01*
X103760000Y-104575000D01*
X103760000Y-105515000D01*
G36*
X103760000Y-105515000D02*
G01*
X103440000Y-105515000D01*
X103440000Y-104575000D01*
X103760000Y-104575000D01*
X103760000Y-105515000D01*
G37*
X104160000Y-98625000D02*
X103840000Y-98625000D01*
X103840000Y-97685000D01*
X104160000Y-97685000D01*
X104160000Y-98625000D01*
G36*
X104160000Y-98625000D02*
G01*
X103840000Y-98625000D01*
X103840000Y-97685000D01*
X104160000Y-97685000D01*
X104160000Y-98625000D01*
G37*
X104160000Y-105515000D02*
X103840000Y-105515000D01*
X103840000Y-104575000D01*
X104160000Y-104575000D01*
X104160000Y-105515000D01*
G36*
X104160000Y-105515000D02*
G01*
X103840000Y-105515000D01*
X103840000Y-104575000D01*
X104160000Y-104575000D01*
X104160000Y-105515000D01*
G37*
X104560000Y-98625000D02*
X104240000Y-98625000D01*
X104240000Y-97685000D01*
X104560000Y-97685000D01*
X104560000Y-98625000D01*
G36*
X104560000Y-98625000D02*
G01*
X104240000Y-98625000D01*
X104240000Y-97685000D01*
X104560000Y-97685000D01*
X104560000Y-98625000D01*
G37*
X104560000Y-105515000D02*
X104240000Y-105515000D01*
X104240000Y-104575000D01*
X104560000Y-104575000D01*
X104560000Y-105515000D01*
G36*
X104560000Y-105515000D02*
G01*
X104240000Y-105515000D01*
X104240000Y-104575000D01*
X104560000Y-104575000D01*
X104560000Y-105515000D01*
G37*
X105515000Y-98960000D02*
X104575000Y-98960000D01*
X104575000Y-98640000D01*
X105515000Y-98640000D01*
X105515000Y-98960000D01*
G36*
X105515000Y-98960000D02*
G01*
X104575000Y-98960000D01*
X104575000Y-98640000D01*
X105515000Y-98640000D01*
X105515000Y-98960000D01*
G37*
X105515000Y-99360000D02*
X104575000Y-99360000D01*
X104575000Y-99040000D01*
X105515000Y-99040000D01*
X105515000Y-99360000D01*
G36*
X105515000Y-99360000D02*
G01*
X104575000Y-99360000D01*
X104575000Y-99040000D01*
X105515000Y-99040000D01*
X105515000Y-99360000D01*
G37*
X105515000Y-99760000D02*
X104575000Y-99760000D01*
X104575000Y-99440000D01*
X105515000Y-99440000D01*
X105515000Y-99760000D01*
G36*
X105515000Y-99760000D02*
G01*
X104575000Y-99760000D01*
X104575000Y-99440000D01*
X105515000Y-99440000D01*
X105515000Y-99760000D01*
G37*
X105515000Y-100160000D02*
X104575000Y-100160000D01*
X104575000Y-99840000D01*
X105515000Y-99840000D01*
X105515000Y-100160000D01*
G36*
X105515000Y-100160000D02*
G01*
X104575000Y-100160000D01*
X104575000Y-99840000D01*
X105515000Y-99840000D01*
X105515000Y-100160000D01*
G37*
X105515000Y-100560000D02*
X104575000Y-100560000D01*
X104575000Y-100240000D01*
X105515000Y-100240000D01*
X105515000Y-100560000D01*
G36*
X105515000Y-100560000D02*
G01*
X104575000Y-100560000D01*
X104575000Y-100240000D01*
X105515000Y-100240000D01*
X105515000Y-100560000D01*
G37*
X105515000Y-100960000D02*
X104575000Y-100960000D01*
X104575000Y-100640000D01*
X105515000Y-100640000D01*
X105515000Y-100960000D01*
G36*
X105515000Y-100960000D02*
G01*
X104575000Y-100960000D01*
X104575000Y-100640000D01*
X105515000Y-100640000D01*
X105515000Y-100960000D01*
G37*
X105515000Y-101360000D02*
X104575000Y-101360000D01*
X104575000Y-101040000D01*
X105515000Y-101040000D01*
X105515000Y-101360000D01*
G36*
X105515000Y-101360000D02*
G01*
X104575000Y-101360000D01*
X104575000Y-101040000D01*
X105515000Y-101040000D01*
X105515000Y-101360000D01*
G37*
X105515000Y-101760000D02*
X104575000Y-101760000D01*
X104575000Y-101440000D01*
X105515000Y-101440000D01*
X105515000Y-101760000D01*
G36*
X105515000Y-101760000D02*
G01*
X104575000Y-101760000D01*
X104575000Y-101440000D01*
X105515000Y-101440000D01*
X105515000Y-101760000D01*
G37*
X105515000Y-102160000D02*
X104575000Y-102160000D01*
X104575000Y-101840000D01*
X105515000Y-101840000D01*
X105515000Y-102160000D01*
G36*
X105515000Y-102160000D02*
G01*
X104575000Y-102160000D01*
X104575000Y-101840000D01*
X105515000Y-101840000D01*
X105515000Y-102160000D01*
G37*
X105515000Y-102560000D02*
X104575000Y-102560000D01*
X104575000Y-102240000D01*
X105515000Y-102240000D01*
X105515000Y-102560000D01*
G36*
X105515000Y-102560000D02*
G01*
X104575000Y-102560000D01*
X104575000Y-102240000D01*
X105515000Y-102240000D01*
X105515000Y-102560000D01*
G37*
X105515000Y-102960000D02*
X104575000Y-102960000D01*
X104575000Y-102640000D01*
X105515000Y-102640000D01*
X105515000Y-102960000D01*
G36*
X105515000Y-102960000D02*
G01*
X104575000Y-102960000D01*
X104575000Y-102640000D01*
X105515000Y-102640000D01*
X105515000Y-102960000D01*
G37*
X105515000Y-103360000D02*
X104575000Y-103360000D01*
X104575000Y-103040000D01*
X105515000Y-103040000D01*
X105515000Y-103360000D01*
G36*
X105515000Y-103360000D02*
G01*
X104575000Y-103360000D01*
X104575000Y-103040000D01*
X105515000Y-103040000D01*
X105515000Y-103360000D01*
G37*
X105515000Y-103760000D02*
X104575000Y-103760000D01*
X104575000Y-103440000D01*
X105515000Y-103440000D01*
X105515000Y-103760000D01*
G36*
X105515000Y-103760000D02*
G01*
X104575000Y-103760000D01*
X104575000Y-103440000D01*
X105515000Y-103440000D01*
X105515000Y-103760000D01*
G37*
X105515000Y-104160000D02*
X104575000Y-104160000D01*
X104575000Y-103840000D01*
X105515000Y-103840000D01*
X105515000Y-104160000D01*
G36*
X105515000Y-104160000D02*
G01*
X104575000Y-104160000D01*
X104575000Y-103840000D01*
X105515000Y-103840000D01*
X105515000Y-104160000D01*
G37*
X105515000Y-104560000D02*
X104575000Y-104560000D01*
X104575000Y-104240000D01*
X105515000Y-104240000D01*
X105515000Y-104560000D01*
G36*
X105515000Y-104560000D02*
G01*
X104575000Y-104560000D01*
X104575000Y-104240000D01*
X105515000Y-104240000D01*
X105515000Y-104560000D01*
G37*
%TD*%
D11*
%TO.C,LED229*%
X315761600Y-164585600D03*
X315761600Y-163785600D03*
X314361600Y-163785600D03*
X314361600Y-164585600D03*
%TD*%
%TO.C,LED245*%
X269533600Y-89300000D03*
X269533600Y-88500000D03*
X268133600Y-88500000D03*
X268133600Y-89300000D03*
%TD*%
D12*
%TO.C,Q2*%
X32560500Y-172146000D03*
X32560500Y-170246000D03*
X30685500Y-171196000D03*
%TD*%
D11*
%TO.C,LED307*%
X354826800Y-157219600D03*
X354826800Y-156419600D03*
X353426800Y-156419600D03*
X353426800Y-157219600D03*
%TD*%
%TO.C,LED257*%
X304788800Y-78682800D03*
X304788800Y-77882800D03*
X303388800Y-77882800D03*
X303388800Y-78682800D03*
%TD*%
D13*
%TO.C,U3*%
X11562500Y-176850000D03*
X11562500Y-177800000D03*
X11562500Y-178750000D03*
X13837500Y-178750000D03*
X13837500Y-177800000D03*
X13837500Y-176850000D03*
%TD*%
D11*
%TO.C,LED330*%
X334049600Y-184042000D03*
X334049600Y-183242000D03*
X332649600Y-183242000D03*
X332649600Y-184042000D03*
%TD*%
D14*
%TO.C,R137*%
X10477000Y-166370000D03*
X8827000Y-166370000D03*
%TD*%
D11*
%TO.C,LED160*%
X254446000Y-116224000D03*
X254446000Y-115424000D03*
X253046000Y-115424000D03*
X253046000Y-116224000D03*
%TD*%
%TO.C,LED41*%
X145429200Y-75279200D03*
X145429200Y-74479200D03*
X144029200Y-74479200D03*
X144029200Y-75279200D03*
%TD*%
%TO.C,LED31*%
X111850400Y-58464400D03*
X111850400Y-57664400D03*
X110450400Y-57664400D03*
X110450400Y-58464400D03*
%TD*%
D15*
%TO.C,R119*%
X332359000Y-38352000D03*
X332359000Y-39372000D03*
%TD*%
D16*
%TO.C,C9*%
X60960000Y-159032000D03*
X60960000Y-159992000D03*
%TD*%
D15*
%TO.C,R129*%
X340741000Y-40384000D03*
X340741000Y-41404000D03*
%TD*%
D11*
%TO.C,LED212*%
X287567600Y-149650400D03*
X287567600Y-148850400D03*
X286167600Y-148850400D03*
X286167600Y-149650400D03*
%TD*%
%TO.C,LED1*%
X5729200Y-27425600D03*
X5729200Y-26625600D03*
X4329200Y-26625600D03*
X4329200Y-27425600D03*
%TD*%
%TO.C,LED295*%
X344108000Y-107638800D03*
X344108000Y-106838800D03*
X342708000Y-106838800D03*
X342708000Y-107638800D03*
%TD*%
D17*
%TO.C,R57*%
X238887000Y-138178000D03*
X238887000Y-137158000D03*
%TD*%
D11*
%TO.C,LED172*%
X261507200Y-69183200D03*
X261507200Y-68383200D03*
X260107200Y-68383200D03*
X260107200Y-69183200D03*
%TD*%
%TO.C,LED220*%
X315660000Y-160826400D03*
X315660000Y-160026400D03*
X314260000Y-160026400D03*
X314260000Y-160826400D03*
%TD*%
D18*
%TO.C,R12*%
X95760000Y-101473000D03*
X94740000Y-101473000D03*
%TD*%
D11*
%TO.C,LED5*%
X20562800Y-32150000D03*
X20562800Y-31350000D03*
X19162800Y-31350000D03*
X19162800Y-32150000D03*
%TD*%
%TO.C,LED182*%
X265469600Y-110839200D03*
X265469600Y-110039200D03*
X264069600Y-110039200D03*
X264069600Y-110839200D03*
%TD*%
D19*
%TO.C,R42*%
X108202000Y-96647000D03*
X109222000Y-96647000D03*
%TD*%
D11*
%TO.C,LED266*%
X302909200Y-104082800D03*
X302909200Y-103282800D03*
X301509200Y-103282800D03*
X301509200Y-104082800D03*
%TD*%
%TO.C,LED249*%
X283148000Y-95243600D03*
X283148000Y-94443600D03*
X281748000Y-94443600D03*
X281748000Y-95243600D03*
%TD*%
%TO.C,LED70*%
X198870800Y-60953600D03*
X198870800Y-60153600D03*
X197470800Y-60153600D03*
X197470800Y-60953600D03*
%TD*%
%TO.C,LED49*%
X153862000Y-67811600D03*
X153862000Y-67011600D03*
X152462000Y-67011600D03*
X152462000Y-67811600D03*
%TD*%
%TO.C,LED56*%
X147207200Y-82137200D03*
X147207200Y-81337200D03*
X145807200Y-81337200D03*
X145807200Y-82137200D03*
%TD*%
D15*
%TO.C,R122*%
X334645000Y-40384000D03*
X334645000Y-41404000D03*
%TD*%
D20*
%TO.C,C5*%
X8537000Y-175260000D03*
X9497000Y-175260000D03*
%TD*%
D19*
%TO.C,R83*%
X250442000Y-139827000D03*
X251462000Y-139827000D03*
%TD*%
D11*
%TO.C,LED116*%
X224270800Y-114192000D03*
X224270800Y-113392000D03*
X222870800Y-113392000D03*
X222870800Y-114192000D03*
%TD*%
%TO.C,LED113*%
X212637600Y-115614400D03*
X212637600Y-114814400D03*
X211237600Y-114814400D03*
X211237600Y-115614400D03*
%TD*%
%TO.C,LED57*%
X147207200Y-86099600D03*
X147207200Y-85299600D03*
X145807200Y-85299600D03*
X145807200Y-86099600D03*
%TD*%
%TO.C,LED137*%
X248400800Y-65017600D03*
X248400800Y-64217600D03*
X247000800Y-64217600D03*
X247000800Y-65017600D03*
%TD*%
%TO.C,LED183*%
X267450800Y-114192000D03*
X267450800Y-113392000D03*
X266050800Y-113392000D03*
X266050800Y-114192000D03*
%TD*%
%TO.C,LED86*%
X179109600Y-111042400D03*
X179109600Y-110242400D03*
X177709600Y-110242400D03*
X177709600Y-111042400D03*
%TD*%
%TO.C,LED45*%
X161329600Y-76396800D03*
X161329600Y-75596800D03*
X159929600Y-75596800D03*
X159929600Y-76396800D03*
%TD*%
%TO.C,LED107*%
X224016800Y-90214400D03*
X224016800Y-89414400D03*
X222616800Y-89414400D03*
X222616800Y-90214400D03*
%TD*%
D19*
%TO.C,R82*%
X252474000Y-140589000D03*
X253494000Y-140589000D03*
%TD*%
D15*
%TO.C,R133*%
X339217000Y-40384000D03*
X339217000Y-41404000D03*
%TD*%
D11*
%TO.C,LED139*%
X256325600Y-64154000D03*
X256325600Y-63354000D03*
X254925600Y-63354000D03*
X254925600Y-64154000D03*
%TD*%
D18*
%TO.C,R126*%
X327916000Y-35941000D03*
X326896000Y-35941000D03*
%TD*%
D11*
%TO.C,LED222*%
X323026000Y-162655200D03*
X323026000Y-161855200D03*
X321626000Y-161855200D03*
X321626000Y-162655200D03*
%TD*%
%TO.C,LED181*%
X263285200Y-107537200D03*
X263285200Y-106737200D03*
X261885200Y-106737200D03*
X261885200Y-107537200D03*
%TD*%
%TO.C,LED129*%
X245403600Y-42767200D03*
X245403600Y-41967200D03*
X244003600Y-41967200D03*
X244003600Y-42767200D03*
%TD*%
%TO.C,LED195*%
X274461200Y-136493200D03*
X274461200Y-135693200D03*
X273061200Y-135693200D03*
X273061200Y-136493200D03*
%TD*%
%TO.C,LED274*%
X304738000Y-110788400D03*
X304738000Y-109988400D03*
X303338000Y-109988400D03*
X303338000Y-110788400D03*
%TD*%
%TO.C,LED255*%
X297880000Y-74263200D03*
X297880000Y-73463200D03*
X296480000Y-73463200D03*
X296480000Y-74263200D03*
%TD*%
D21*
%TO.C,U4*%
X24511000Y-177546000D03*
D22*
X23011000Y-175096000D03*
X23511000Y-175096000D03*
X24011000Y-175096000D03*
X24511000Y-175096000D03*
X25011000Y-175096000D03*
X25511000Y-175096000D03*
X26011000Y-175096000D03*
D23*
X26961000Y-176046000D03*
X26961000Y-176546000D03*
X26961000Y-177046000D03*
X26961000Y-177546000D03*
X26961000Y-178046000D03*
X26961000Y-178546000D03*
X26961000Y-179046000D03*
D22*
X26011000Y-179996000D03*
X25511000Y-179996000D03*
X25011000Y-179996000D03*
X24511000Y-179996000D03*
X24011000Y-179996000D03*
X23511000Y-179996000D03*
X23011000Y-179996000D03*
D23*
X22061000Y-179046000D03*
X22061000Y-178546000D03*
X22061000Y-178046000D03*
X22061000Y-177546000D03*
X22061000Y-177046000D03*
X22061000Y-176546000D03*
X22061000Y-176046000D03*
%TD*%
D17*
%TO.C,R31*%
X105029000Y-92966000D03*
X105029000Y-91946000D03*
%TD*%
D19*
%TO.C,R39*%
X110234000Y-98933000D03*
X111254000Y-98933000D03*
%TD*%
D11*
%TO.C,LED24*%
X90108000Y-43935600D03*
X90108000Y-43135600D03*
X88708000Y-43135600D03*
X88708000Y-43935600D03*
%TD*%
D18*
%TO.C,R14*%
X93855000Y-97663000D03*
X92835000Y-97663000D03*
%TD*%
D11*
%TO.C,LED4*%
X16600400Y-32099200D03*
X16600400Y-31299200D03*
X15200400Y-31299200D03*
X15200400Y-32099200D03*
%TD*%
%TO.C,LED275*%
X304484000Y-114750800D03*
X304484000Y-113950800D03*
X303084000Y-113950800D03*
X303084000Y-114750800D03*
%TD*%
D24*
%TO.C,R142*%
X29845000Y-69405000D03*
X29845000Y-67755000D03*
%TD*%
D11*
%TO.C,LED283*%
X329071200Y-90925600D03*
X329071200Y-90125600D03*
X327671200Y-90125600D03*
X327671200Y-90925600D03*
%TD*%
%TO.C,LED14*%
X53887600Y-35096400D03*
X53887600Y-34296400D03*
X52487600Y-34296400D03*
X52487600Y-35096400D03*
%TD*%
%TO.C,LED272*%
X297626000Y-107130800D03*
X297626000Y-106330800D03*
X296226000Y-106330800D03*
X296226000Y-107130800D03*
%TD*%
%TO.C,LED174*%
X261354800Y-77260400D03*
X261354800Y-76460400D03*
X259954800Y-76460400D03*
X259954800Y-77260400D03*
%TD*%
%TO.C,LED13*%
X50738000Y-35452000D03*
X50738000Y-34652000D03*
X49338000Y-34652000D03*
X49338000Y-35452000D03*
%TD*%
%TO.C,LED83*%
X168543200Y-106572000D03*
X168543200Y-105772000D03*
X167143200Y-105772000D03*
X167143200Y-106572000D03*
%TD*%
%TO.C,LED111*%
X205017600Y-116935200D03*
X205017600Y-116135200D03*
X203617600Y-116135200D03*
X203617600Y-116935200D03*
%TD*%
%TO.C,LED65*%
X181446400Y-65474800D03*
X181446400Y-64674800D03*
X180046400Y-64674800D03*
X180046400Y-65474800D03*
%TD*%
%TO.C,LED168*%
X277763200Y-64712800D03*
X277763200Y-63912800D03*
X276363200Y-63912800D03*
X276363200Y-64712800D03*
%TD*%
D24*
%TO.C,R71*%
X235839000Y-151320000D03*
X235839000Y-149670000D03*
%TD*%
D11*
%TO.C,LED296*%
X348121200Y-107029200D03*
X348121200Y-106229200D03*
X346721200Y-106229200D03*
X346721200Y-107029200D03*
%TD*%
%TO.C,LED308*%
X351575600Y-154832000D03*
X351575600Y-154032000D03*
X350175600Y-154032000D03*
X350175600Y-154832000D03*
%TD*%
%TO.C,LED104*%
X213450400Y-91586000D03*
X213450400Y-90786000D03*
X212050400Y-90786000D03*
X212050400Y-91586000D03*
%TD*%
D18*
%TO.C,R11*%
X95760000Y-99949000D03*
X94740000Y-99949000D03*
%TD*%
D11*
%TO.C,LED294*%
X340196400Y-108045200D03*
X340196400Y-107245200D03*
X338796400Y-107245200D03*
X338796400Y-108045200D03*
%TD*%
%TO.C,LED287*%
X344412800Y-93567200D03*
X344412800Y-92767200D03*
X343012800Y-92767200D03*
X343012800Y-93567200D03*
%TD*%
D25*
%TO.C,C19*%
X335252000Y-24511000D03*
X334292000Y-24511000D03*
%TD*%
D11*
%TO.C,LED78*%
X183529200Y-83153200D03*
X183529200Y-82353200D03*
X182129200Y-82353200D03*
X182129200Y-83153200D03*
%TD*%
%TO.C,LED50*%
X157621200Y-66998800D03*
X157621200Y-66198800D03*
X156221200Y-66198800D03*
X156221200Y-66998800D03*
%TD*%
D18*
%TO.C,R102*%
X329948000Y-27559000D03*
X328928000Y-27559000D03*
%TD*%
D11*
%TO.C,LED271*%
X294171600Y-105556000D03*
X294171600Y-104756000D03*
X292771600Y-104756000D03*
X292771600Y-105556000D03*
%TD*%
%TO.C,LED151*%
X254700000Y-86150400D03*
X254700000Y-85350400D03*
X253300000Y-85350400D03*
X253300000Y-86150400D03*
%TD*%
D18*
%TO.C,R101*%
X327916000Y-23749000D03*
X326896000Y-23749000D03*
%TD*%
D11*
%TO.C,LED248*%
X279998400Y-92856000D03*
X279998400Y-92056000D03*
X278598400Y-92056000D03*
X278598400Y-92856000D03*
%TD*%
D26*
%TO.C,U7*%
X336550000Y-31750000D03*
%TD*%
D18*
%TO.C,R110*%
X329948000Y-29083000D03*
X328928000Y-29083000D03*
%TD*%
%TO.C,R114*%
X329948000Y-30607000D03*
X328928000Y-30607000D03*
%TD*%
%TO.C,R20*%
X56640000Y-168529000D03*
X57660000Y-168529000D03*
%TD*%
%TO.C,R105*%
X327916000Y-29845000D03*
X326896000Y-29845000D03*
%TD*%
D11*
%TO.C,LED85*%
X175655200Y-109061200D03*
X175655200Y-108261200D03*
X174255200Y-108261200D03*
X174255200Y-109061200D03*
%TD*%
%TO.C,LED259*%
X311240400Y-82137200D03*
X311240400Y-81337200D03*
X309840400Y-81337200D03*
X309840400Y-82137200D03*
%TD*%
%TO.C,LED126*%
X241136400Y-31845200D03*
X241136400Y-31045200D03*
X239736400Y-31045200D03*
X239736400Y-31845200D03*
%TD*%
%TO.C,LED310*%
X345022400Y-150717200D03*
X345022400Y-149917200D03*
X343622400Y-149917200D03*
X343622400Y-150717200D03*
%TD*%
%TO.C,LED55*%
X147156400Y-78327200D03*
X147156400Y-77527200D03*
X145756400Y-77527200D03*
X145756400Y-78327200D03*
%TD*%
%TO.C,LED211*%
X284011600Y-148024800D03*
X284011600Y-147224800D03*
X282611600Y-147224800D03*
X282611600Y-148024800D03*
%TD*%
%TO.C,LED150*%
X250737600Y-85794800D03*
X250737600Y-84994800D03*
X249337600Y-84994800D03*
X249337600Y-85794800D03*
%TD*%
D19*
%TO.C,R46*%
X110234000Y-105029000D03*
X111254000Y-105029000D03*
%TD*%
D11*
%TO.C,LED152*%
X258459200Y-87268000D03*
X258459200Y-86468000D03*
X257059200Y-86468000D03*
X257059200Y-87268000D03*
%TD*%
%TO.C,LED112*%
X208675200Y-116173200D03*
X208675200Y-115373200D03*
X207275200Y-115373200D03*
X207275200Y-116173200D03*
%TD*%
%TO.C,LED72*%
X206643200Y-62731600D03*
X206643200Y-61931600D03*
X205243200Y-61931600D03*
X205243200Y-62731600D03*
%TD*%
%TO.C,LED184*%
X269787600Y-117595600D03*
X269787600Y-116795600D03*
X268387600Y-116795600D03*
X268387600Y-117595600D03*
%TD*%
%TO.C,LED15*%
X57850000Y-34486800D03*
X57850000Y-33686800D03*
X56450000Y-33686800D03*
X56450000Y-34486800D03*
%TD*%
D27*
%TO.C,C7*%
X57404000Y-181343000D03*
X57404000Y-182893000D03*
%TD*%
D17*
%TO.C,R75*%
X244983000Y-138178000D03*
X244983000Y-137158000D03*
%TD*%
D11*
%TO.C,LED314*%
X355893600Y-95142000D03*
X355893600Y-94342000D03*
X354493600Y-94342000D03*
X354493600Y-95142000D03*
%TD*%
D18*
%TO.C,R70*%
X234948000Y-145034000D03*
X235968000Y-145034000D03*
%TD*%
D11*
%TO.C,LED316*%
X357417600Y-160318400D03*
X357417600Y-159518400D03*
X356017600Y-159518400D03*
X356017600Y-160318400D03*
%TD*%
%TO.C,LED215*%
X297676800Y-155035200D03*
X297676800Y-154235200D03*
X296276800Y-154235200D03*
X296276800Y-155035200D03*
%TD*%
%TO.C,LED154*%
X231941600Y-113531600D03*
X231941600Y-112731600D03*
X230541600Y-112731600D03*
X230541600Y-113531600D03*
%TD*%
%TO.C,LED201*%
X277763200Y-159251600D03*
X277763200Y-158451600D03*
X276363200Y-158451600D03*
X276363200Y-159251600D03*
%TD*%
%TO.C,LED153*%
X262116800Y-88487200D03*
X262116800Y-87687200D03*
X260716800Y-87687200D03*
X260716800Y-88487200D03*
%TD*%
%TO.C,LED173*%
X261405600Y-73145600D03*
X261405600Y-72345600D03*
X260005600Y-72345600D03*
X260005600Y-73145600D03*
%TD*%
D19*
%TO.C,R93*%
X252474000Y-146685000D03*
X253494000Y-146685000D03*
%TD*%
D11*
%TO.C,LED19*%
X73191600Y-35553600D03*
X73191600Y-34753600D03*
X71791600Y-34753600D03*
X71791600Y-35553600D03*
%TD*%
%TO.C,LED306*%
X341517200Y-148329600D03*
X341517200Y-147529600D03*
X340117200Y-147529600D03*
X340117200Y-148329600D03*
%TD*%
%TO.C,LED268*%
X309462400Y-109924800D03*
X309462400Y-109124800D03*
X308062400Y-109124800D03*
X308062400Y-109924800D03*
%TD*%
D17*
%TO.C,R66*%
X241935000Y-138178000D03*
X241935000Y-137158000D03*
%TD*%
D20*
%TO.C,C16*%
X245138000Y-151003000D03*
X246098000Y-151003000D03*
%TD*%
D11*
%TO.C,LED284*%
X333033600Y-90773200D03*
X333033600Y-89973200D03*
X331633600Y-89973200D03*
X331633600Y-90773200D03*
%TD*%
%TO.C,LED6*%
X24474400Y-31438800D03*
X24474400Y-30638800D03*
X23074400Y-30638800D03*
X23074400Y-31438800D03*
%TD*%
D16*
%TO.C,C18*%
X238760000Y-150015000D03*
X238760000Y-150975000D03*
%TD*%
D11*
%TO.C,LED44*%
X157316400Y-75990400D03*
X157316400Y-75190400D03*
X155916400Y-75190400D03*
X155916400Y-75990400D03*
%TD*%
%TO.C,LED251*%
X288278800Y-100831600D03*
X288278800Y-100031600D03*
X286878800Y-100031600D03*
X286878800Y-100831600D03*
%TD*%
D19*
%TO.C,R44*%
X110234000Y-106553000D03*
X111254000Y-106553000D03*
%TD*%
D11*
%TO.C,LED22*%
X84062800Y-39363600D03*
X84062800Y-38563600D03*
X82662800Y-38563600D03*
X82662800Y-39363600D03*
%TD*%
%TO.C,LED20*%
X76900000Y-36417200D03*
X76900000Y-35617200D03*
X75500000Y-35617200D03*
X75500000Y-36417200D03*
%TD*%
D19*
%TO.C,R52*%
X110234000Y-109601000D03*
X111254000Y-109601000D03*
%TD*%
D11*
%TO.C,LED3*%
X12892000Y-30930800D03*
X12892000Y-30130800D03*
X11492000Y-30130800D03*
X11492000Y-30930800D03*
%TD*%
%TO.C,LED53*%
X169508400Y-66998800D03*
X169508400Y-66198800D03*
X168108400Y-66198800D03*
X168108400Y-66998800D03*
%TD*%
%TO.C,LED155*%
X235904000Y-113633200D03*
X235904000Y-112833200D03*
X234504000Y-112833200D03*
X234504000Y-113633200D03*
%TD*%
%TO.C,LED297*%
X352134400Y-106622800D03*
X352134400Y-105822800D03*
X350734400Y-105822800D03*
X350734400Y-106622800D03*
%TD*%
D18*
%TO.C,R72*%
X235968000Y-140843000D03*
X234948000Y-140843000D03*
%TD*%
D11*
%TO.C,LED208*%
X279033200Y-137966400D03*
X279033200Y-137166400D03*
X277633200Y-137166400D03*
X277633200Y-137966400D03*
%TD*%
D19*
%TO.C,R85*%
X252474000Y-145161000D03*
X253494000Y-145161000D03*
%TD*%
D28*
%TO.C,C22*%
X341630000Y-27150000D03*
X341630000Y-26190000D03*
%TD*%
D11*
%TO.C,LED286*%
X340501200Y-93364000D03*
X340501200Y-92564000D03*
X339101200Y-92564000D03*
X339101200Y-93364000D03*
%TD*%
%TO.C,LED148*%
X243066800Y-86556800D03*
X243066800Y-85756800D03*
X241666800Y-85756800D03*
X241666800Y-86556800D03*
%TD*%
D17*
%TO.C,R17*%
X98171000Y-94998000D03*
X98171000Y-93978000D03*
%TD*%
D19*
%TO.C,R84*%
X250442000Y-145923000D03*
X251462000Y-145923000D03*
%TD*%
D11*
%TO.C,LED322*%
X341822000Y-174390000D03*
X341822000Y-173590000D03*
X340422000Y-173590000D03*
X340422000Y-174390000D03*
%TD*%
%TO.C,LED239*%
X281674800Y-76600000D03*
X281674800Y-75800000D03*
X280274800Y-75800000D03*
X280274800Y-76600000D03*
%TD*%
%TO.C,LED125*%
X237834400Y-29152800D03*
X237834400Y-28352800D03*
X236434400Y-28352800D03*
X236434400Y-29152800D03*
%TD*%
%TO.C,LED312*%
X356096800Y-106572000D03*
X356096800Y-105772000D03*
X354696800Y-105772000D03*
X354696800Y-106572000D03*
%TD*%
%TO.C,LED61*%
X157214800Y-97885200D03*
X157214800Y-97085200D03*
X155814800Y-97085200D03*
X155814800Y-97885200D03*
%TD*%
D18*
%TO.C,R106*%
X341882000Y-30226000D03*
X342902000Y-30226000D03*
%TD*%
D19*
%TO.C,R40*%
X108202000Y-98171000D03*
X109222000Y-98171000D03*
%TD*%
D15*
%TO.C,R131*%
X337693000Y-40384000D03*
X337693000Y-41404000D03*
%TD*%
D28*
%TO.C,C21*%
X342773000Y-27150000D03*
X342773000Y-26190000D03*
%TD*%
D11*
%TO.C,LED138*%
X252312400Y-64103200D03*
X252312400Y-63303200D03*
X250912400Y-63303200D03*
X250912400Y-64103200D03*
%TD*%
%TO.C,LED317*%
X360008400Y-163366400D03*
X360008400Y-162566400D03*
X358608400Y-162566400D03*
X358608400Y-163366400D03*
%TD*%
D29*
%TO.C,SW3*%
X8944999Y-56440000D03*
X8944999Y-50240000D03*
X12645001Y-56440000D03*
X12645001Y-50240000D03*
%TD*%
D11*
%TO.C,LED311*%
X360008400Y-106572000D03*
X360008400Y-105772000D03*
X358608400Y-105772000D03*
X358608400Y-106572000D03*
%TD*%
D15*
%TO.C,R135*%
X336169000Y-40384000D03*
X336169000Y-41404000D03*
%TD*%
D19*
%TO.C,R92*%
X252474000Y-142113000D03*
X253494000Y-142113000D03*
%TD*%
D17*
%TO.C,R76*%
X244221000Y-136146000D03*
X244221000Y-135126000D03*
%TD*%
D18*
%TO.C,R74*%
X235968000Y-142367000D03*
X234948000Y-142367000D03*
%TD*%
D11*
%TO.C,LED9*%
X36412400Y-30219600D03*
X36412400Y-29419600D03*
X35012400Y-29419600D03*
X35012400Y-30219600D03*
%TD*%
%TO.C,LED293*%
X336538800Y-107384800D03*
X336538800Y-106584800D03*
X335138800Y-106584800D03*
X335138800Y-107384800D03*
%TD*%
%TO.C,LED214*%
X294933600Y-152139600D03*
X294933600Y-151339600D03*
X293533600Y-151339600D03*
X293533600Y-152139600D03*
%TD*%
D18*
%TO.C,R125*%
X329948000Y-36703000D03*
X328928000Y-36703000D03*
%TD*%
D11*
%TO.C,LED146*%
X235396000Y-87674400D03*
X235396000Y-86874400D03*
X233996000Y-86874400D03*
X233996000Y-87674400D03*
%TD*%
D30*
%TO.C,D3*%
X5158500Y-166370000D03*
X7033500Y-166370000D03*
%TD*%
D15*
%TO.C,R130*%
X339979000Y-38352000D03*
X339979000Y-39372000D03*
%TD*%
D30*
%TO.C,D7*%
X21922500Y-60325000D03*
X23797500Y-60325000D03*
%TD*%
D11*
%TO.C,LED46*%
X144718000Y-61664800D03*
X144718000Y-60864800D03*
X143318000Y-60864800D03*
X143318000Y-61664800D03*
%TD*%
D17*
%TO.C,R9*%
X34163000Y-175262000D03*
X34163000Y-174242000D03*
%TD*%
D11*
%TO.C,LED71*%
X202884000Y-61360000D03*
X202884000Y-60560000D03*
X201484000Y-60560000D03*
X201484000Y-61360000D03*
%TD*%
%TO.C,LED64*%
X177433200Y-66236800D03*
X177433200Y-65436800D03*
X176033200Y-65436800D03*
X176033200Y-66236800D03*
%TD*%
%TO.C,LED223*%
X326124800Y-165246000D03*
X326124800Y-164446000D03*
X324724800Y-164446000D03*
X324724800Y-165246000D03*
%TD*%
D19*
%TO.C,R18*%
X94740000Y-102997000D03*
X95760000Y-102997000D03*
%TD*%
D11*
%TO.C,LED280*%
X317590400Y-90163600D03*
X317590400Y-89363600D03*
X316190400Y-89363600D03*
X316190400Y-90163600D03*
%TD*%
D18*
%TO.C,R112*%
X329948000Y-32131000D03*
X328928000Y-32131000D03*
%TD*%
D11*
%TO.C,LED76*%
X176366400Y-80003600D03*
X176366400Y-79203600D03*
X174966400Y-79203600D03*
X174966400Y-80003600D03*
%TD*%
%TO.C,LED269*%
X313221600Y-108705600D03*
X313221600Y-107905600D03*
X311821600Y-107905600D03*
X311821600Y-108705600D03*
%TD*%
%TO.C,LED159*%
X251042400Y-114192000D03*
X251042400Y-113392000D03*
X249642400Y-113392000D03*
X249642400Y-114192000D03*
%TD*%
%TO.C,LED147*%
X239104400Y-86302800D03*
X239104400Y-85502800D03*
X237704400Y-85502800D03*
X237704400Y-86302800D03*
%TD*%
D31*
%TO.C,J2*%
X1490000Y-182120000D03*
D32*
X5670000Y-182120000D03*
D31*
X1490000Y-173480000D03*
D32*
X5670000Y-173480000D03*
D33*
X6585000Y-174550000D03*
X6585000Y-175350000D03*
D34*
X6585000Y-176050000D03*
X6585000Y-177050000D03*
X6585000Y-178550000D03*
X6585000Y-179550000D03*
D33*
X6585000Y-180250000D03*
X6585000Y-181050000D03*
X6585000Y-181050000D03*
X6585000Y-180250000D03*
D34*
X6585000Y-179050000D03*
X6585000Y-178050000D03*
X6585000Y-177550000D03*
X6585000Y-176550000D03*
D33*
X6585000Y-175350000D03*
X6585000Y-174550000D03*
D35*
X5140000Y-180690000D03*
X5140000Y-174910000D03*
%TD*%
D11*
%TO.C,LED221*%
X319317600Y-161944000D03*
X319317600Y-161144000D03*
X317917600Y-161144000D03*
X317917600Y-161944000D03*
%TD*%
%TO.C,LED94*%
X222442000Y-63290400D03*
X222442000Y-62490400D03*
X221042000Y-62490400D03*
X221042000Y-63290400D03*
%TD*%
%TO.C,LED142*%
X266739600Y-66389200D03*
X266739600Y-65589200D03*
X265339600Y-65589200D03*
X265339600Y-66389200D03*
%TD*%
D19*
%TO.C,R81*%
X250442000Y-141351000D03*
X251462000Y-141351000D03*
%TD*%
D28*
%TO.C,C2*%
X9906000Y-188214000D03*
X9906000Y-187254000D03*
%TD*%
D17*
%TO.C,R34*%
X107315000Y-94998000D03*
X107315000Y-93978000D03*
%TD*%
D11*
%TO.C,LED101*%
X201817200Y-89249200D03*
X201817200Y-88449200D03*
X200417200Y-88449200D03*
X200417200Y-89249200D03*
%TD*%
%TO.C,LED97*%
X233262400Y-66338400D03*
X233262400Y-65538400D03*
X231862400Y-65538400D03*
X231862400Y-66338400D03*
%TD*%
D16*
%TO.C,C4*%
X19558000Y-179098000D03*
X19558000Y-180058000D03*
%TD*%
D11*
%TO.C,LED74*%
X169254400Y-77108000D03*
X169254400Y-76308000D03*
X167854400Y-76308000D03*
X167854400Y-77108000D03*
%TD*%
%TO.C,LED234*%
X328918800Y-178149200D03*
X328918800Y-177349200D03*
X327518800Y-177349200D03*
X327518800Y-178149200D03*
%TD*%
%TO.C,LED320*%
X336183200Y-168802000D03*
X336183200Y-168002000D03*
X334783200Y-168002000D03*
X334783200Y-168802000D03*
%TD*%
D17*
%TO.C,R140*%
X33909000Y-168023000D03*
X33909000Y-167003000D03*
%TD*%
D19*
%TO.C,R45*%
X108202000Y-105791000D03*
X109222000Y-105791000D03*
%TD*%
D11*
%TO.C,LED246*%
X273496000Y-89300000D03*
X273496000Y-88500000D03*
X272096000Y-88500000D03*
X272096000Y-89300000D03*
%TD*%
D16*
%TO.C,C8*%
X55880000Y-181130000D03*
X55880000Y-182090000D03*
%TD*%
D17*
%TO.C,R58*%
X247269000Y-136146000D03*
X247269000Y-135126000D03*
%TD*%
D11*
%TO.C,LED179*%
X260592800Y-100069600D03*
X260592800Y-99269600D03*
X259192800Y-99269600D03*
X259192800Y-100069600D03*
%TD*%
%TO.C,LED35*%
X125058400Y-66135200D03*
X125058400Y-65335200D03*
X123658400Y-65335200D03*
X123658400Y-66135200D03*
%TD*%
%TO.C,LED10*%
X40425600Y-30372000D03*
X40425600Y-29572000D03*
X39025600Y-29572000D03*
X39025600Y-30372000D03*
%TD*%
D25*
%TO.C,C20*%
X335252000Y-25527000D03*
X334292000Y-25527000D03*
%TD*%
D11*
%TO.C,LED40*%
X141974800Y-73653600D03*
X141974800Y-72853600D03*
X140574800Y-72853600D03*
X140574800Y-73653600D03*
%TD*%
%TO.C,LED189*%
X279287200Y-134054800D03*
X279287200Y-133254800D03*
X277887200Y-133254800D03*
X277887200Y-134054800D03*
%TD*%
D15*
%TO.C,R124*%
X333121000Y-40384000D03*
X333121000Y-41404000D03*
%TD*%
D11*
%TO.C,LED165*%
X268771600Y-57804000D03*
X268771600Y-57004000D03*
X267371600Y-57004000D03*
X267371600Y-57804000D03*
%TD*%
%TO.C,LED194*%
X274461200Y-132581600D03*
X274461200Y-131781600D03*
X273061200Y-131781600D03*
X273061200Y-132581600D03*
%TD*%
%TO.C,LED288*%
X348375200Y-93567200D03*
X348375200Y-92767200D03*
X346975200Y-92767200D03*
X346975200Y-93567200D03*
%TD*%
%TO.C,LED265*%
X300166000Y-101339600D03*
X300166000Y-100539600D03*
X298766000Y-100539600D03*
X298766000Y-101339600D03*
%TD*%
%TO.C,LED114*%
X216346000Y-114496800D03*
X216346000Y-113696800D03*
X214946000Y-113696800D03*
X214946000Y-114496800D03*
%TD*%
%TO.C,LED136*%
X244387600Y-65068400D03*
X244387600Y-64268400D03*
X242987600Y-64268400D03*
X242987600Y-65068400D03*
%TD*%
D15*
%TO.C,R123*%
X333883000Y-38352000D03*
X333883000Y-39372000D03*
%TD*%
D11*
%TO.C,LED80*%
X191250800Y-84321600D03*
X191250800Y-83521600D03*
X189850800Y-83521600D03*
X189850800Y-84321600D03*
%TD*%
%TO.C,LED37*%
X131916400Y-67303600D03*
X131916400Y-66503600D03*
X130516400Y-66503600D03*
X130516400Y-67303600D03*
%TD*%
%TO.C,LED254*%
X294171600Y-73145600D03*
X294171600Y-72345600D03*
X292771600Y-72345600D03*
X292771600Y-73145600D03*
%TD*%
D17*
%TO.C,R55*%
X240411000Y-138051000D03*
X240411000Y-137031000D03*
%TD*%
D11*
%TO.C,LED73*%
X165292000Y-76854000D03*
X165292000Y-76054000D03*
X163892000Y-76054000D03*
X163892000Y-76854000D03*
%TD*%
%TO.C,LED329*%
X331560400Y-180994000D03*
X331560400Y-180194000D03*
X330160400Y-180194000D03*
X330160400Y-180994000D03*
%TD*%
%TO.C,LED157*%
X243625600Y-113125200D03*
X243625600Y-112325200D03*
X242225600Y-112325200D03*
X242225600Y-113125200D03*
%TD*%
D17*
%TO.C,R139*%
X8636000Y-164340000D03*
X8636000Y-163320000D03*
%TD*%
D19*
%TO.C,R4*%
X21715000Y-181356000D03*
X22735000Y-181356000D03*
%TD*%
D11*
%TO.C,LED161*%
X257341600Y-118916400D03*
X257341600Y-118116400D03*
X255941600Y-118116400D03*
X255941600Y-118916400D03*
%TD*%
D18*
%TO.C,R3*%
X24767000Y-181356000D03*
X23747000Y-181356000D03*
%TD*%
D17*
%TO.C,R26*%
X98933000Y-92966000D03*
X98933000Y-91946000D03*
%TD*%
D11*
%TO.C,LED88*%
X186780400Y-112363200D03*
X186780400Y-111563200D03*
X185380400Y-111563200D03*
X185380400Y-112363200D03*
%TD*%
D16*
%TO.C,C6*%
X20701000Y-179098000D03*
X20701000Y-180058000D03*
%TD*%
D18*
%TO.C,R107*%
X342902000Y-32131000D03*
X341882000Y-32131000D03*
%TD*%
D11*
%TO.C,LED256*%
X301334400Y-76447600D03*
X301334400Y-75647600D03*
X299934400Y-75647600D03*
X299934400Y-76447600D03*
%TD*%
%TO.C,LED276*%
X307989200Y-116681200D03*
X307989200Y-115881200D03*
X306589200Y-115881200D03*
X306589200Y-116681200D03*
%TD*%
%TO.C,LED30*%
X108954800Y-55924400D03*
X108954800Y-55124400D03*
X107554800Y-55124400D03*
X107554800Y-55924400D03*
%TD*%
%TO.C,LED226*%
X303772800Y-164585600D03*
X303772800Y-163785600D03*
X302372800Y-163785600D03*
X302372800Y-164585600D03*
%TD*%
D36*
%TO.C,U1*%
X53200000Y-182240000D03*
X53200000Y-180970000D03*
X53200000Y-179700000D03*
X53200000Y-178430000D03*
X53200000Y-177160000D03*
X53200000Y-175890000D03*
X53200000Y-174620000D03*
X53200000Y-173350000D03*
X53200000Y-172080000D03*
X53200000Y-170810000D03*
X53200000Y-169540000D03*
X53200000Y-168270000D03*
X53200000Y-167000000D03*
X53200000Y-165730000D03*
D37*
X50160000Y-164480000D03*
X48890000Y-164480000D03*
X47620000Y-164480000D03*
X46350000Y-164480000D03*
X45080000Y-164480000D03*
X43810000Y-164480000D03*
X42540000Y-164480000D03*
X41270000Y-164480000D03*
X40000000Y-164480000D03*
X38730000Y-164480000D03*
D36*
X35700000Y-165730000D03*
X35700000Y-167000000D03*
X35700000Y-168270000D03*
X35700000Y-169540000D03*
X35700000Y-170810000D03*
X35700000Y-172080000D03*
X35700000Y-173350000D03*
X35700000Y-174620000D03*
X35700000Y-175890000D03*
X35700000Y-177160000D03*
X35700000Y-178430000D03*
X35700000Y-179700000D03*
X35700000Y-180970000D03*
X35700000Y-182240000D03*
D38*
X46655000Y-175662500D03*
X46655000Y-174137500D03*
X45892500Y-176425000D03*
X45892500Y-174900000D03*
X45892500Y-173375000D03*
X45130000Y-175662500D03*
D39*
X45130000Y-174900000D03*
D38*
X45130000Y-174137500D03*
X44367500Y-176425000D03*
X44367500Y-174900000D03*
X44367500Y-173375000D03*
X43605000Y-175662500D03*
X43605000Y-174137500D03*
%TD*%
D11*
%TO.C,LED324*%
X347613200Y-179774800D03*
X347613200Y-178974800D03*
X346213200Y-178974800D03*
X346213200Y-179774800D03*
%TD*%
%TO.C,LED298*%
X320232000Y-125774400D03*
X320232000Y-124974400D03*
X318832000Y-124974400D03*
X318832000Y-125774400D03*
%TD*%
%TO.C,LED236*%
X270956000Y-71977200D03*
X270956000Y-71177200D03*
X269556000Y-71177200D03*
X269556000Y-71977200D03*
%TD*%
%TO.C,LED108*%
X227979200Y-90570000D03*
X227979200Y-89770000D03*
X226579200Y-89770000D03*
X226579200Y-90570000D03*
%TD*%
%TO.C,LED134*%
X258408400Y-56381600D03*
X258408400Y-55581600D03*
X257008400Y-55581600D03*
X257008400Y-56381600D03*
%TD*%
%TO.C,LED163*%
X261862800Y-54806800D03*
X261862800Y-54006800D03*
X260462800Y-54006800D03*
X260462800Y-54806800D03*
%TD*%
%TO.C,LED289*%
X320638400Y-106673600D03*
X320638400Y-105873600D03*
X319238400Y-105873600D03*
X319238400Y-106673600D03*
%TD*%
%TO.C,LED149*%
X246775200Y-85744000D03*
X246775200Y-84944000D03*
X245375200Y-84944000D03*
X245375200Y-85744000D03*
%TD*%
D17*
%TO.C,R28*%
X102743000Y-94998000D03*
X102743000Y-93978000D03*
%TD*%
D19*
%TO.C,R51*%
X108202000Y-101219000D03*
X109222000Y-101219000D03*
%TD*%
D11*
%TO.C,LED202*%
X281166800Y-160978800D03*
X281166800Y-160178800D03*
X279766800Y-160178800D03*
X279766800Y-160978800D03*
%TD*%
D40*
%TO.C,R115*%
X344551000Y-25210000D03*
X344551000Y-26860000D03*
%TD*%
D11*
%TO.C,LED110*%
X201360000Y-117646400D03*
X201360000Y-116846400D03*
X199960000Y-116846400D03*
X199960000Y-117646400D03*
%TD*%
D24*
%TO.C,R143*%
X27940000Y-69405000D03*
X27940000Y-67755000D03*
%TD*%
D11*
%TO.C,LED224*%
X328309200Y-167684400D03*
X328309200Y-166884400D03*
X326909200Y-166884400D03*
X326909200Y-167684400D03*
%TD*%
D17*
%TO.C,R30*%
X101219000Y-94998000D03*
X101219000Y-93978000D03*
%TD*%
D11*
%TO.C,LED270*%
X316625200Y-107029200D03*
X316625200Y-106229200D03*
X315225200Y-106229200D03*
X315225200Y-107029200D03*
%TD*%
%TO.C,LED63*%
X161583600Y-103676400D03*
X161583600Y-102876400D03*
X160183600Y-102876400D03*
X160183600Y-103676400D03*
%TD*%
D14*
%TO.C,R138*%
X10477000Y-161290000D03*
X8827000Y-161290000D03*
%TD*%
D19*
%TO.C,R91*%
X250442000Y-142875000D03*
X251462000Y-142875000D03*
%TD*%
D11*
%TO.C,LED66*%
X185104000Y-64001600D03*
X185104000Y-63201600D03*
X183704000Y-63201600D03*
X183704000Y-64001600D03*
%TD*%
%TO.C,LED300*%
X324804000Y-132073600D03*
X324804000Y-131273600D03*
X323404000Y-131273600D03*
X323404000Y-132073600D03*
%TD*%
D20*
%TO.C,C12*%
X102898000Y-107823000D03*
X103858000Y-107823000D03*
%TD*%
D16*
%TO.C,C10*%
X52070000Y-159032000D03*
X52070000Y-159992000D03*
%TD*%
D11*
%TO.C,LED43*%
X153404800Y-75685600D03*
X153404800Y-74885600D03*
X152004800Y-74885600D03*
X152004800Y-75685600D03*
%TD*%
D16*
%TO.C,C13*%
X95377000Y-106200000D03*
X95377000Y-107160000D03*
%TD*%
D18*
%TO.C,R16*%
X95760000Y-98425000D03*
X94740000Y-98425000D03*
%TD*%
D11*
%TO.C,LED285*%
X337097600Y-91230400D03*
X337097600Y-90430400D03*
X335697600Y-90430400D03*
X335697600Y-91230400D03*
%TD*%
%TO.C,LED261*%
X315050400Y-88436400D03*
X315050400Y-87636400D03*
X313650400Y-87636400D03*
X313650400Y-88436400D03*
%TD*%
%TO.C,LED7*%
X28487600Y-30829200D03*
X28487600Y-30029200D03*
X27087600Y-30029200D03*
X27087600Y-30829200D03*
%TD*%
D18*
%TO.C,R111*%
X327916000Y-28321000D03*
X326896000Y-28321000D03*
%TD*%
D11*
%TO.C,LED169*%
X281674800Y-65322400D03*
X281674800Y-64522400D03*
X280274800Y-64522400D03*
X280274800Y-65322400D03*
%TD*%
D17*
%TO.C,R61*%
X242697000Y-136146000D03*
X242697000Y-135126000D03*
%TD*%
D12*
%TO.C,Q1*%
X32560500Y-175702000D03*
X32560500Y-173802000D03*
X30685500Y-174752000D03*
%TD*%
D19*
%TO.C,R98*%
X252474000Y-151257000D03*
X253494000Y-151257000D03*
%TD*%
D11*
%TO.C,LED39*%
X138825200Y-71266000D03*
X138825200Y-70466000D03*
X137425200Y-70466000D03*
X137425200Y-71266000D03*
%TD*%
%TO.C,LED25*%
X93867200Y-45104000D03*
X93867200Y-44304000D03*
X92467200Y-44304000D03*
X92467200Y-45104000D03*
%TD*%
%TO.C,LED258*%
X308598800Y-79140000D03*
X308598800Y-78340000D03*
X307198800Y-78340000D03*
X307198800Y-79140000D03*
%TD*%
%TO.C,LED87*%
X183021200Y-111956800D03*
X183021200Y-111156800D03*
X181621200Y-111156800D03*
X181621200Y-111956800D03*
%TD*%
%TO.C,LED164*%
X265825200Y-55060800D03*
X265825200Y-54260800D03*
X264425200Y-54260800D03*
X264425200Y-55060800D03*
%TD*%
%TO.C,LED277*%
X311596000Y-117595600D03*
X311596000Y-116795600D03*
X310196000Y-116795600D03*
X310196000Y-117595600D03*
%TD*%
D19*
%TO.C,R54*%
X110234000Y-108077000D03*
X111254000Y-108077000D03*
%TD*%
D16*
%TO.C,C17*%
X237617000Y-150015000D03*
X237617000Y-150975000D03*
%TD*%
D11*
%TO.C,LED263*%
X295492400Y-95091200D03*
X295492400Y-94291200D03*
X294092400Y-94291200D03*
X294092400Y-95091200D03*
%TD*%
%TO.C,LED187*%
X277052000Y-126841200D03*
X277052000Y-126041200D03*
X275652000Y-126041200D03*
X275652000Y-126841200D03*
%TD*%
%TO.C,LED122*%
X235243600Y-18129200D03*
X235243600Y-17329200D03*
X233843600Y-17329200D03*
X233843600Y-18129200D03*
%TD*%
D24*
%TO.C,R27*%
X93599000Y-108140000D03*
X93599000Y-106490000D03*
%TD*%
D11*
%TO.C,LED92*%
X214466400Y-63188800D03*
X214466400Y-62388800D03*
X213066400Y-62388800D03*
X213066400Y-63188800D03*
%TD*%
%TO.C,LED102*%
X205525600Y-90874800D03*
X205525600Y-90074800D03*
X204125600Y-90074800D03*
X204125600Y-90874800D03*
%TD*%
%TO.C,LED105*%
X217209600Y-92500400D03*
X217209600Y-91700400D03*
X215809600Y-91700400D03*
X215809600Y-92500400D03*
%TD*%
%TO.C,LED238*%
X278017200Y-74872800D03*
X278017200Y-74072800D03*
X276617200Y-74072800D03*
X276617200Y-74872800D03*
%TD*%
%TO.C,LED120*%
X231281200Y-11169600D03*
X231281200Y-10369600D03*
X229881200Y-10369600D03*
X229881200Y-11169600D03*
%TD*%
%TO.C,LED8*%
X32450000Y-30422800D03*
X32450000Y-29622800D03*
X31050000Y-29622800D03*
X31050000Y-30422800D03*
%TD*%
%TO.C,LED213*%
X291225200Y-150260000D03*
X291225200Y-149460000D03*
X289825200Y-149460000D03*
X289825200Y-150260000D03*
%TD*%
%TO.C,LED176*%
X262116800Y-84931200D03*
X262116800Y-84131200D03*
X260716800Y-84131200D03*
X260716800Y-84931200D03*
%TD*%
%TO.C,LED158*%
X247283200Y-113379200D03*
X247283200Y-112579200D03*
X245883200Y-112579200D03*
X245883200Y-113379200D03*
%TD*%
%TO.C,LED141*%
X263336000Y-66592400D03*
X263336000Y-65792400D03*
X261936000Y-65792400D03*
X261936000Y-66592400D03*
%TD*%
%TO.C,LED98*%
X236716800Y-64408000D03*
X236716800Y-63608000D03*
X235316800Y-63608000D03*
X235316800Y-64408000D03*
%TD*%
%TO.C,LED62*%
X158535600Y-101339600D03*
X158535600Y-100539600D03*
X157135600Y-100539600D03*
X157135600Y-101339600D03*
%TD*%
%TO.C,LED82*%
X165292000Y-104286000D03*
X165292000Y-103486000D03*
X163892000Y-103486000D03*
X163892000Y-104286000D03*
%TD*%
%TO.C,LED47*%
X147562800Y-64204800D03*
X147562800Y-63404800D03*
X146162800Y-63404800D03*
X146162800Y-64204800D03*
%TD*%
%TO.C,LED11*%
X43829200Y-31896000D03*
X43829200Y-31096000D03*
X42429200Y-31096000D03*
X42429200Y-31896000D03*
%TD*%
%TO.C,LED230*%
X319266800Y-165906400D03*
X319266800Y-165106400D03*
X317866800Y-165106400D03*
X317866800Y-165906400D03*
%TD*%
%TO.C,LED241*%
X286754800Y-82391200D03*
X286754800Y-81591200D03*
X285354800Y-81591200D03*
X285354800Y-82391200D03*
%TD*%
%TO.C,LED282*%
X325413600Y-90062000D03*
X325413600Y-89262000D03*
X324013600Y-89262000D03*
X324013600Y-90062000D03*
%TD*%
%TO.C,LED29*%
X105195600Y-55416400D03*
X105195600Y-54616400D03*
X103795600Y-54616400D03*
X103795600Y-55416400D03*
%TD*%
%TO.C,LED178*%
X260288000Y-96412000D03*
X260288000Y-95612000D03*
X258888000Y-95612000D03*
X258888000Y-96412000D03*
%TD*%
%TO.C,LED145*%
X231687600Y-89350800D03*
X231687600Y-88550800D03*
X230287600Y-88550800D03*
X230287600Y-89350800D03*
%TD*%
%TO.C,LED192*%
X269178000Y-128009600D03*
X269178000Y-127209600D03*
X267778000Y-127209600D03*
X267778000Y-128009600D03*
%TD*%
D18*
%TO.C,R116*%
X327916000Y-34417000D03*
X326896000Y-34417000D03*
%TD*%
D11*
%TO.C,LED318*%
X353963200Y-184397600D03*
X353963200Y-183597600D03*
X352563200Y-183597600D03*
X352563200Y-184397600D03*
%TD*%
D17*
%TO.C,R35*%
X105791000Y-94998000D03*
X105791000Y-93978000D03*
%TD*%
D11*
%TO.C,LED127*%
X243016000Y-35147200D03*
X243016000Y-34347200D03*
X241616000Y-34347200D03*
X241616000Y-35147200D03*
%TD*%
D17*
%TO.C,R56*%
X239649000Y-136146000D03*
X239649000Y-135126000D03*
%TD*%
D18*
%TO.C,R100*%
X329948000Y-24511000D03*
X328928000Y-24511000D03*
%TD*%
D11*
%TO.C,LED128*%
X244336800Y-39058800D03*
X244336800Y-38258800D03*
X242936800Y-38258800D03*
X242936800Y-39058800D03*
%TD*%
D41*
%TO.C,C3*%
X16015000Y-181356000D03*
X14465000Y-181356000D03*
%TD*%
D19*
%TO.C,R88*%
X252474000Y-149733000D03*
X253494000Y-149733000D03*
%TD*%
D20*
%TO.C,C11*%
X102898000Y-108839000D03*
X103858000Y-108839000D03*
%TD*%
%TO.C,C1*%
X55908000Y-178562000D03*
X56868000Y-178562000D03*
%TD*%
D11*
%TO.C,LED185*%
X272073600Y-120948400D03*
X272073600Y-120148400D03*
X270673600Y-120148400D03*
X270673600Y-120948400D03*
%TD*%
%TO.C,LED278*%
X315152000Y-119678400D03*
X315152000Y-118878400D03*
X313752000Y-118878400D03*
X313752000Y-119678400D03*
%TD*%
D18*
%TO.C,R69*%
X235968000Y-143891000D03*
X234948000Y-143891000D03*
%TD*%
D11*
%TO.C,LED216*%
X300470800Y-157168800D03*
X300470800Y-156368800D03*
X299070800Y-156368800D03*
X299070800Y-157168800D03*
%TD*%
D42*
%TO.C,U6*%
X243840000Y-144780000D03*
%TD*%
D15*
%TO.C,R128*%
X341503000Y-38352000D03*
X341503000Y-39372000D03*
%TD*%
D11*
%TO.C,LED188*%
X279084000Y-130041600D03*
X279084000Y-129241600D03*
X277684000Y-129241600D03*
X277684000Y-130041600D03*
%TD*%
D24*
%TO.C,R144*%
X26035000Y-69405000D03*
X26035000Y-67755000D03*
%TD*%
D11*
%TO.C,LED81*%
X195213200Y-85032800D03*
X195213200Y-84232800D03*
X193813200Y-84232800D03*
X193813200Y-85032800D03*
%TD*%
D17*
%TO.C,R60*%
X245745000Y-136146000D03*
X245745000Y-135126000D03*
%TD*%
D19*
%TO.C,R6*%
X8507000Y-179451000D03*
X9527000Y-179451000D03*
%TD*%
D11*
%TO.C,LED38*%
X135370800Y-69284800D03*
X135370800Y-68484800D03*
X133970800Y-68484800D03*
X133970800Y-69284800D03*
%TD*%
%TO.C,LED69*%
X195213200Y-61207600D03*
X195213200Y-60407600D03*
X193813200Y-60407600D03*
X193813200Y-61207600D03*
%TD*%
D19*
%TO.C,R62*%
X235968000Y-147320000D03*
X234948000Y-147320000D03*
%TD*%
%TO.C,R90*%
X252474000Y-143637000D03*
X253494000Y-143637000D03*
%TD*%
D11*
%TO.C,LED103*%
X209437200Y-91128800D03*
X209437200Y-90328800D03*
X208037200Y-90328800D03*
X208037200Y-91128800D03*
%TD*%
%TO.C,LED243*%
X292088800Y-88233200D03*
X292088800Y-87433200D03*
X290688800Y-87433200D03*
X290688800Y-88233200D03*
%TD*%
%TO.C,LED315*%
X352083600Y-94735600D03*
X352083600Y-93935600D03*
X350683600Y-93935600D03*
X350683600Y-94735600D03*
%TD*%
D17*
%TO.C,R67*%
X241173000Y-136146000D03*
X241173000Y-135126000D03*
%TD*%
D11*
%TO.C,LED77*%
X180176400Y-81273600D03*
X180176400Y-80473600D03*
X178776400Y-80473600D03*
X178776400Y-81273600D03*
%TD*%
%TO.C,LED299*%
X322060800Y-129228800D03*
X322060800Y-128428800D03*
X320660800Y-128428800D03*
X320660800Y-129228800D03*
%TD*%
%TO.C,LED227*%
X307887600Y-164585600D03*
X307887600Y-163785600D03*
X306487600Y-163785600D03*
X306487600Y-164585600D03*
%TD*%
D18*
%TO.C,R104*%
X329948000Y-26035000D03*
X328928000Y-26035000D03*
%TD*%
%TO.C,R21*%
X56640000Y-166751000D03*
X57660000Y-166751000D03*
%TD*%
D11*
%TO.C,LED156*%
X239612400Y-113277600D03*
X239612400Y-112477600D03*
X238212400Y-112477600D03*
X238212400Y-113277600D03*
%TD*%
D16*
%TO.C,C14*%
X96520000Y-106200000D03*
X96520000Y-107160000D03*
%TD*%
D19*
%TO.C,R47*%
X108202000Y-104267000D03*
X109222000Y-104267000D03*
%TD*%
D17*
%TO.C,R29*%
X101981000Y-92966000D03*
X101981000Y-91946000D03*
%TD*%
D11*
%TO.C,LED206*%
X296000400Y-164331600D03*
X296000400Y-163531600D03*
X294600400Y-163531600D03*
X294600400Y-164331600D03*
%TD*%
D17*
%TO.C,R79*%
X248793000Y-136146000D03*
X248793000Y-135126000D03*
%TD*%
D19*
%TO.C,R96*%
X252474000Y-152781000D03*
X253494000Y-152781000D03*
%TD*%
D11*
%TO.C,LED319*%
X350458000Y-182518000D03*
X350458000Y-181718000D03*
X349058000Y-181718000D03*
X349058000Y-182518000D03*
%TD*%
%TO.C,LED68*%
X192876400Y-63849200D03*
X192876400Y-63049200D03*
X191476400Y-63049200D03*
X191476400Y-63849200D03*
%TD*%
%TO.C,LED58*%
X149442400Y-89046000D03*
X149442400Y-88246000D03*
X148042400Y-88246000D03*
X148042400Y-89046000D03*
%TD*%
%TO.C,LED36*%
X128512800Y-67964000D03*
X128512800Y-67164000D03*
X127112800Y-67164000D03*
X127112800Y-67964000D03*
%TD*%
D17*
%TO.C,R77*%
X243459000Y-138178000D03*
X243459000Y-137158000D03*
%TD*%
D11*
%TO.C,LED60*%
X154979600Y-94583200D03*
X154979600Y-93783200D03*
X153579600Y-93783200D03*
X153579600Y-94583200D03*
%TD*%
%TO.C,LED95*%
X226404400Y-63442800D03*
X226404400Y-62642800D03*
X225004400Y-62642800D03*
X225004400Y-63442800D03*
%TD*%
%TO.C,LED115*%
X220359200Y-114293600D03*
X220359200Y-113493600D03*
X218959200Y-113493600D03*
X218959200Y-114293600D03*
%TD*%
%TO.C,LED290*%
X324550000Y-106622800D03*
X324550000Y-105822800D03*
X323150000Y-105822800D03*
X323150000Y-106622800D03*
%TD*%
D17*
%TO.C,R78*%
X249555000Y-138178000D03*
X249555000Y-137158000D03*
%TD*%
D18*
%TO.C,R118*%
X327916000Y-32893000D03*
X326896000Y-32893000D03*
%TD*%
D11*
%TO.C,LED144*%
X263539200Y-62630000D03*
X263539200Y-61830000D03*
X262139200Y-61830000D03*
X262139200Y-62630000D03*
%TD*%
%TO.C,LED313*%
X359246400Y-96513600D03*
X359246400Y-95713600D03*
X357846400Y-95713600D03*
X357846400Y-96513600D03*
%TD*%
D18*
%TO.C,R15*%
X93728000Y-99187000D03*
X92708000Y-99187000D03*
%TD*%
D11*
%TO.C,LED42*%
X149442400Y-75584000D03*
X149442400Y-74784000D03*
X148042400Y-74784000D03*
X148042400Y-75584000D03*
%TD*%
%TO.C,LED203*%
X284468800Y-163366400D03*
X284468800Y-162566400D03*
X283068800Y-162566400D03*
X283068800Y-163366400D03*
%TD*%
%TO.C,LED291*%
X328563200Y-106572000D03*
X328563200Y-105772000D03*
X327163200Y-105772000D03*
X327163200Y-106572000D03*
%TD*%
%TO.C,LED309*%
X348121200Y-152596800D03*
X348121200Y-151796800D03*
X346721200Y-151796800D03*
X346721200Y-152596800D03*
%TD*%
D19*
%TO.C,R89*%
X250442000Y-148971000D03*
X251462000Y-148971000D03*
%TD*%
D14*
%TO.C,R10*%
X10477000Y-168910000D03*
X8827000Y-168910000D03*
%TD*%
D19*
%TO.C,R95*%
X250442000Y-147447000D03*
X251462000Y-147447000D03*
%TD*%
D11*
%TO.C,LED23*%
X87212400Y-41598800D03*
X87212400Y-40798800D03*
X85812400Y-40798800D03*
X85812400Y-41598800D03*
%TD*%
%TO.C,LED75*%
X172962800Y-78733600D03*
X172962800Y-77933600D03*
X171562800Y-77933600D03*
X171562800Y-78733600D03*
%TD*%
D17*
%TO.C,R32*%
X104267000Y-94998000D03*
X104267000Y-93978000D03*
%TD*%
D11*
%TO.C,LED244*%
X265825200Y-89198400D03*
X265825200Y-88398400D03*
X264425200Y-88398400D03*
X264425200Y-89198400D03*
%TD*%
%TO.C,LED323*%
X344717600Y-177031600D03*
X344717600Y-176231600D03*
X343317600Y-176231600D03*
X343317600Y-177031600D03*
%TD*%
D19*
%TO.C,R49*%
X108202000Y-102743000D03*
X109222000Y-102743000D03*
%TD*%
D11*
%TO.C,LED253*%
X290260000Y-72536000D03*
X290260000Y-71736000D03*
X288860000Y-71736000D03*
X288860000Y-72536000D03*
%TD*%
D18*
%TO.C,R117*%
X329948000Y-33655000D03*
X328928000Y-33655000D03*
%TD*%
D29*
%TO.C,SW2*%
X46410000Y-159310000D03*
X46410000Y-153110000D03*
X50110000Y-159310000D03*
X50110000Y-153110000D03*
%TD*%
D19*
%TO.C,R94*%
X252474000Y-148209000D03*
X253494000Y-148209000D03*
%TD*%
D18*
%TO.C,R103*%
X327916000Y-26797000D03*
X326896000Y-26797000D03*
%TD*%
D15*
%TO.C,R120*%
X331597000Y-40384000D03*
X331597000Y-41404000D03*
%TD*%
D11*
%TO.C,LED217*%
X304484000Y-157270400D03*
X304484000Y-156470400D03*
X303084000Y-156470400D03*
X303084000Y-157270400D03*
%TD*%
%TO.C,LED100*%
X198616800Y-86912400D03*
X198616800Y-86112400D03*
X197216800Y-86112400D03*
X197216800Y-86912400D03*
%TD*%
%TO.C,LED27*%
X99404400Y-49980800D03*
X99404400Y-49180800D03*
X98004400Y-49180800D03*
X98004400Y-49980800D03*
%TD*%
%TO.C,LED210*%
X281522400Y-144773600D03*
X281522400Y-143973600D03*
X280122400Y-143973600D03*
X280122400Y-144773600D03*
%TD*%
%TO.C,LED180*%
X261151600Y-104082800D03*
X261151600Y-103282800D03*
X259751600Y-103282800D03*
X259751600Y-104082800D03*
%TD*%
D29*
%TO.C,SW1*%
X55300000Y-159310000D03*
X55300000Y-153110000D03*
X59000000Y-159310000D03*
X59000000Y-153110000D03*
%TD*%
D11*
%TO.C,LED262*%
X294425600Y-91230400D03*
X294425600Y-90430400D03*
X293025600Y-90430400D03*
X293025600Y-91230400D03*
%TD*%
%TO.C,LED93*%
X218479600Y-63239600D03*
X218479600Y-62439600D03*
X217079600Y-62439600D03*
X217079600Y-63239600D03*
%TD*%
%TO.C,LED79*%
X187542400Y-83407200D03*
X187542400Y-82607200D03*
X186142400Y-82607200D03*
X186142400Y-83407200D03*
%TD*%
%TO.C,LED177*%
X261608800Y-92754400D03*
X261608800Y-91954400D03*
X260208800Y-91954400D03*
X260208800Y-92754400D03*
%TD*%
%TO.C,LED17*%
X65520800Y-34486800D03*
X65520800Y-33686800D03*
X64120800Y-33686800D03*
X64120800Y-34486800D03*
%TD*%
D17*
%TO.C,R36*%
X106553000Y-92966000D03*
X106553000Y-91946000D03*
%TD*%
D19*
%TO.C,R41*%
X110234000Y-97409000D03*
X111254000Y-97409000D03*
%TD*%
D11*
%TO.C,LED281*%
X321400400Y-90062000D03*
X321400400Y-89262000D03*
X320000400Y-89262000D03*
X320000400Y-90062000D03*
%TD*%
%TO.C,LED99*%
X240425200Y-64763600D03*
X240425200Y-63963600D03*
X239025200Y-63963600D03*
X239025200Y-64763600D03*
%TD*%
%TO.C,LED186*%
X274207200Y-124199600D03*
X274207200Y-123399600D03*
X272807200Y-123399600D03*
X272807200Y-124199600D03*
%TD*%
D17*
%TO.C,R24*%
X100457000Y-92966000D03*
X100457000Y-91946000D03*
%TD*%
D11*
%TO.C,LED91*%
X210554800Y-63138000D03*
X210554800Y-62338000D03*
X209154800Y-62338000D03*
X209154800Y-63138000D03*
%TD*%
D19*
%TO.C,R37*%
X110234000Y-100457000D03*
X111254000Y-100457000D03*
%TD*%
D11*
%TO.C,LED84*%
X171896000Y-107791200D03*
X171896000Y-106991200D03*
X170496000Y-106991200D03*
X170496000Y-107791200D03*
%TD*%
D20*
%TO.C,C15*%
X245138000Y-152019000D03*
X246098000Y-152019000D03*
%TD*%
D11*
%TO.C,LED190*%
X263793200Y-122015200D03*
X263793200Y-121215200D03*
X262393200Y-121215200D03*
X262393200Y-122015200D03*
%TD*%
%TO.C,LED260*%
X314034400Y-84778800D03*
X314034400Y-83978800D03*
X312634400Y-83978800D03*
X312634400Y-84778800D03*
%TD*%
%TO.C,LED200*%
X276340800Y-156203600D03*
X276340800Y-155403600D03*
X274940800Y-155403600D03*
X274940800Y-156203600D03*
%TD*%
D17*
%TO.C,R59*%
X246507000Y-138178000D03*
X246507000Y-137158000D03*
%TD*%
D11*
%TO.C,LED264*%
X297118000Y-98494800D03*
X297118000Y-97694800D03*
X295718000Y-97694800D03*
X295718000Y-98494800D03*
%TD*%
%TO.C,LED106*%
X220867200Y-92348000D03*
X220867200Y-91548000D03*
X219467200Y-91548000D03*
X219467200Y-92348000D03*
%TD*%
D19*
%TO.C,R19*%
X92708000Y-102235000D03*
X93728000Y-102235000D03*
%TD*%
D11*
%TO.C,LED207*%
X299962800Y-164280800D03*
X299962800Y-163480800D03*
X298562800Y-163480800D03*
X298562800Y-164280800D03*
%TD*%
D18*
%TO.C,R127*%
X329948000Y-35179000D03*
X328928000Y-35179000D03*
%TD*%
D19*
%TO.C,R87*%
X250442000Y-150495000D03*
X251462000Y-150495000D03*
%TD*%
D11*
%TO.C,LED240*%
X284011600Y-79597200D03*
X284011600Y-78797200D03*
X282611600Y-78797200D03*
X282611600Y-79597200D03*
%TD*%
D42*
%TO.C,U5*%
X101600000Y-101600000D03*
%TD*%
D19*
%TO.C,R2*%
X8380000Y-172847000D03*
X9400000Y-172847000D03*
%TD*%
%TO.C,R53*%
X108202000Y-108839000D03*
X109222000Y-108839000D03*
%TD*%
D11*
%TO.C,LED273*%
X300826400Y-109772400D03*
X300826400Y-108972400D03*
X299426400Y-108972400D03*
X299426400Y-109772400D03*
%TD*%
%TO.C,LED292*%
X332474800Y-106521200D03*
X332474800Y-105721200D03*
X331074800Y-105721200D03*
X331074800Y-106521200D03*
%TD*%
%TO.C,LED130*%
X247283200Y-46424800D03*
X247283200Y-45624800D03*
X245883200Y-45624800D03*
X245883200Y-46424800D03*
%TD*%
D18*
%TO.C,R68*%
X238000000Y-143129000D03*
X236980000Y-143129000D03*
%TD*%
D43*
%TO.C,D8*%
X19050000Y-63197500D03*
X19050000Y-65072500D03*
%TD*%
D11*
%TO.C,LED237*%
X274054800Y-73907600D03*
X274054800Y-73107600D03*
X272654800Y-73107600D03*
X272654800Y-73907600D03*
%TD*%
%TO.C,LED250*%
X285281600Y-98799600D03*
X285281600Y-97999600D03*
X283881600Y-97999600D03*
X283881600Y-98799600D03*
%TD*%
%TO.C,LED143*%
X270397200Y-63849200D03*
X270397200Y-63049200D03*
X268997200Y-63049200D03*
X268997200Y-63849200D03*
%TD*%
%TO.C,LED167*%
X274054800Y-63696800D03*
X274054800Y-62896800D03*
X272654800Y-62896800D03*
X272654800Y-63696800D03*
%TD*%
%TO.C,LED175*%
X261253200Y-81172000D03*
X261253200Y-80372000D03*
X259853200Y-80372000D03*
X259853200Y-81172000D03*
%TD*%
%TO.C,LED228*%
X311900800Y-164585600D03*
X311900800Y-163785600D03*
X310500800Y-163785600D03*
X310500800Y-164585600D03*
%TD*%
D44*
%TO.C,D6*%
X19050000Y-57452500D03*
X19050000Y-55577500D03*
%TD*%
D11*
%TO.C,LED12*%
X47283600Y-33318400D03*
X47283600Y-32518400D03*
X45883600Y-32518400D03*
X45883600Y-33318400D03*
%TD*%
%TO.C,LED205*%
X291987200Y-164433200D03*
X291987200Y-163633200D03*
X290587200Y-163633200D03*
X290587200Y-164433200D03*
%TD*%
%TO.C,LED235*%
X268365200Y-69081600D03*
X268365200Y-68281600D03*
X266965200Y-68281600D03*
X266965200Y-69081600D03*
%TD*%
D17*
%TO.C,R23*%
X96647000Y-94998000D03*
X96647000Y-93978000D03*
%TD*%
D11*
%TO.C,LED247*%
X277458400Y-89757200D03*
X277458400Y-88957200D03*
X276058400Y-88957200D03*
X276058400Y-89757200D03*
%TD*%
%TO.C,LED267*%
X304992000Y-107029200D03*
X304992000Y-106229200D03*
X303592000Y-106229200D03*
X303592000Y-107029200D03*
%TD*%
D17*
%TO.C,R80*%
X248031000Y-138178000D03*
X248031000Y-137158000D03*
%TD*%
D11*
%TO.C,LED89*%
X190692000Y-113023600D03*
X190692000Y-112223600D03*
X189292000Y-112223600D03*
X189292000Y-113023600D03*
%TD*%
%TO.C,LED193*%
X271667200Y-130854400D03*
X271667200Y-130054400D03*
X270267200Y-130054400D03*
X270267200Y-130854400D03*
%TD*%
%TO.C,LED28*%
X102300000Y-52470000D03*
X102300000Y-51670000D03*
X100900000Y-51670000D03*
X100900000Y-52470000D03*
%TD*%
D30*
%TO.C,D2*%
X5158500Y-168910000D03*
X7033500Y-168910000D03*
%TD*%
D11*
%TO.C,LED121*%
X233059200Y-14674800D03*
X233059200Y-13874800D03*
X231659200Y-13874800D03*
X231659200Y-14674800D03*
%TD*%
%TO.C,LED242*%
X289498000Y-85236000D03*
X289498000Y-84436000D03*
X288098000Y-84436000D03*
X288098000Y-85236000D03*
%TD*%
D19*
%TO.C,R86*%
X250442000Y-144399000D03*
X251462000Y-144399000D03*
%TD*%
D11*
%TO.C,LED170*%
X285281600Y-67151200D03*
X285281600Y-66351200D03*
X283881600Y-66351200D03*
X283881600Y-67151200D03*
%TD*%
D15*
%TO.C,R132*%
X338455000Y-38352000D03*
X338455000Y-39372000D03*
%TD*%
D11*
%TO.C,LED252*%
X290615600Y-103727200D03*
X290615600Y-102927200D03*
X289215600Y-102927200D03*
X289215600Y-103727200D03*
%TD*%
D19*
%TO.C,R5*%
X8507000Y-176276000D03*
X9527000Y-176276000D03*
%TD*%
D45*
%TO.C,F1*%
X9271000Y-181099000D03*
X9271000Y-183899000D03*
%TD*%
D19*
%TO.C,R97*%
X250442000Y-152019000D03*
X251462000Y-152019000D03*
%TD*%
D11*
%TO.C,LED118*%
X225998000Y-5530800D03*
X225998000Y-4730800D03*
X224598000Y-4730800D03*
X224598000Y-5530800D03*
%TD*%
D46*
%TO.C,D9*%
X16177500Y-60325000D03*
X14302500Y-60325000D03*
%TD*%
D19*
%TO.C,R7*%
X21715000Y-182626000D03*
X22735000Y-182626000D03*
%TD*%
D11*
%TO.C,LED132*%
X252871200Y-51149200D03*
X252871200Y-50349200D03*
X251471200Y-50349200D03*
X251471200Y-51149200D03*
%TD*%
%TO.C,LED162*%
X260643600Y-119729200D03*
X260643600Y-118929200D03*
X259243600Y-118929200D03*
X259243600Y-119729200D03*
%TD*%
%TO.C,LED96*%
X229960400Y-64814400D03*
X229960400Y-64014400D03*
X228560400Y-64014400D03*
X228560400Y-64814400D03*
%TD*%
%TO.C,LED219*%
X311900800Y-159607200D03*
X311900800Y-158807200D03*
X310500800Y-158807200D03*
X310500800Y-159607200D03*
%TD*%
D17*
%TO.C,R25*%
X99695000Y-94998000D03*
X99695000Y-93978000D03*
%TD*%
D47*
%TO.C,D1*%
X2318000Y-185420000D03*
X6318000Y-185420000D03*
%TD*%
D11*
%TO.C,LED279*%
X317692000Y-122726400D03*
X317692000Y-121926400D03*
X316292000Y-121926400D03*
X316292000Y-122726400D03*
%TD*%
D19*
%TO.C,R38*%
X108202000Y-99695000D03*
X109222000Y-99695000D03*
%TD*%
D11*
%TO.C,LED191*%
X266739600Y-124758400D03*
X266739600Y-123958400D03*
X265339600Y-123958400D03*
X265339600Y-124758400D03*
%TD*%
D17*
%TO.C,R22*%
X97409000Y-92966000D03*
X97409000Y-91946000D03*
%TD*%
D11*
%TO.C,LED302*%
X328969600Y-138931600D03*
X328969600Y-138131600D03*
X327569600Y-138131600D03*
X327569600Y-138931600D03*
%TD*%
D18*
%TO.C,R113*%
X327916000Y-31369000D03*
X326896000Y-31369000D03*
%TD*%
D11*
%TO.C,LED16*%
X61609200Y-34791600D03*
X61609200Y-33991600D03*
X60209200Y-33991600D03*
X60209200Y-34791600D03*
%TD*%
%TO.C,LED301*%
X326785200Y-135578800D03*
X326785200Y-134778800D03*
X325385200Y-134778800D03*
X325385200Y-135578800D03*
%TD*%
%TO.C,LED59*%
X152642800Y-91433600D03*
X152642800Y-90633600D03*
X151242800Y-90633600D03*
X151242800Y-91433600D03*
%TD*%
%TO.C,LED131*%
X249467600Y-49117200D03*
X249467600Y-48317200D03*
X248067600Y-48317200D03*
X248067600Y-49117200D03*
%TD*%
D19*
%TO.C,R1*%
X55878000Y-179832000D03*
X56898000Y-179832000D03*
%TD*%
%TO.C,R50*%
X110234000Y-101981000D03*
X111254000Y-101981000D03*
%TD*%
%TO.C,R48*%
X110234000Y-103505000D03*
X111254000Y-103505000D03*
%TD*%
D11*
%TO.C,LED18*%
X69483200Y-34690000D03*
X69483200Y-33890000D03*
X68083200Y-33890000D03*
X68083200Y-34690000D03*
%TD*%
%TO.C,LED32*%
X114441200Y-61563200D03*
X114441200Y-60763200D03*
X113041200Y-60763200D03*
X113041200Y-61563200D03*
%TD*%
%TO.C,LED34*%
X121654800Y-64357200D03*
X121654800Y-63557200D03*
X120254800Y-63557200D03*
X120254800Y-64357200D03*
%TD*%
D15*
%TO.C,R136*%
X335407000Y-38352000D03*
X335407000Y-39372000D03*
%TD*%
D30*
%TO.C,D5*%
X5158500Y-163830000D03*
X7033500Y-163830000D03*
%TD*%
D11*
%TO.C,LED48*%
X150661600Y-66744800D03*
X150661600Y-65944800D03*
X149261600Y-65944800D03*
X149261600Y-66744800D03*
%TD*%
%TO.C,LED305*%
X338418400Y-146043600D03*
X338418400Y-145243600D03*
X337018400Y-145243600D03*
X337018400Y-146043600D03*
%TD*%
D19*
%TO.C,R63*%
X234948000Y-146177000D03*
X235968000Y-146177000D03*
%TD*%
D18*
%TO.C,R99*%
X327916000Y-25273000D03*
X326896000Y-25273000D03*
%TD*%
D11*
%TO.C,LED197*%
X274512000Y-144570400D03*
X274512000Y-143770400D03*
X273112000Y-143770400D03*
X273112000Y-144570400D03*
%TD*%
%TO.C,LED67*%
X189117200Y-63950800D03*
X189117200Y-63150800D03*
X187717200Y-63150800D03*
X187717200Y-63950800D03*
%TD*%
%TO.C,LED171*%
X287313600Y-70453200D03*
X287313600Y-69653200D03*
X285913600Y-69653200D03*
X285913600Y-70453200D03*
%TD*%
D18*
%TO.C,R73*%
X238000000Y-141605000D03*
X236980000Y-141605000D03*
%TD*%
D15*
%TO.C,R134*%
X336931000Y-38352000D03*
X336931000Y-39372000D03*
%TD*%
D11*
%TO.C,LED52*%
X165546000Y-66998800D03*
X165546000Y-66198800D03*
X164146000Y-66198800D03*
X164146000Y-66998800D03*
%TD*%
%TO.C,LED303*%
X331814400Y-141573200D03*
X331814400Y-140773200D03*
X330414400Y-140773200D03*
X330414400Y-141573200D03*
%TD*%
%TO.C,LED199*%
X275782000Y-152342800D03*
X275782000Y-151542800D03*
X274382000Y-151542800D03*
X274382000Y-152342800D03*
%TD*%
%TO.C,LED21*%
X80354400Y-37941200D03*
X80354400Y-37141200D03*
X78954400Y-37141200D03*
X78954400Y-37941200D03*
%TD*%
%TO.C,LED218*%
X308446400Y-157981600D03*
X308446400Y-157181600D03*
X307046400Y-157181600D03*
X307046400Y-157981600D03*
%TD*%
D15*
%TO.C,R8*%
X34163000Y-170686000D03*
X34163000Y-171706000D03*
%TD*%
D19*
%TO.C,R43*%
X108202000Y-107315000D03*
X109222000Y-107315000D03*
%TD*%
D11*
%TO.C,LED2*%
X8878800Y-29813200D03*
X8878800Y-29013200D03*
X7478800Y-29013200D03*
X7478800Y-29813200D03*
%TD*%
D17*
%TO.C,R33*%
X103505000Y-92966000D03*
X103505000Y-91946000D03*
%TD*%
D11*
%TO.C,LED90*%
X194705200Y-113684000D03*
X194705200Y-112884000D03*
X193305200Y-112884000D03*
X193305200Y-113684000D03*
%TD*%
%TO.C,LED109*%
X198362800Y-115208000D03*
X198362800Y-114408000D03*
X196962800Y-114408000D03*
X196962800Y-115208000D03*
%TD*%
%TO.C,LED54*%
X173470800Y-66948000D03*
X173470800Y-66148000D03*
X172070800Y-66148000D03*
X172070800Y-66948000D03*
%TD*%
%TO.C,LED209*%
X278982400Y-142132000D03*
X278982400Y-141332000D03*
X277582400Y-141332000D03*
X277582400Y-142132000D03*
%TD*%
%TO.C,LED225*%
X332525600Y-167735200D03*
X332525600Y-166935200D03*
X331125600Y-166935200D03*
X331125600Y-167735200D03*
%TD*%
%TO.C,LED198*%
X274867600Y-148532800D03*
X274867600Y-147732800D03*
X273467600Y-147732800D03*
X273467600Y-148532800D03*
%TD*%
%TO.C,LED304*%
X335116400Y-143859200D03*
X335116400Y-143059200D03*
X333716400Y-143059200D03*
X333716400Y-143859200D03*
%TD*%
%TO.C,LED135*%
X260948400Y-59785200D03*
X260948400Y-58985200D03*
X259548400Y-58985200D03*
X259548400Y-59785200D03*
%TD*%
%TO.C,LED51*%
X161583600Y-67049600D03*
X161583600Y-66249600D03*
X160183600Y-66249600D03*
X160183600Y-67049600D03*
%TD*%
D18*
%TO.C,R13*%
X93728000Y-100711000D03*
X92708000Y-100711000D03*
%TD*%
D11*
%TO.C,LED33*%
X117895600Y-63392000D03*
X117895600Y-62592000D03*
X116495600Y-62592000D03*
X116495600Y-63392000D03*
%TD*%
D48*
%TO.C,U2*%
X12344000Y-183628000D03*
X12344000Y-185928000D03*
D49*
X18644000Y-185928000D03*
D48*
X12344000Y-188228000D03*
%TD*%
D11*
%TO.C,LED123*%
X237123200Y-21685200D03*
X237123200Y-20885200D03*
X235723200Y-20885200D03*
X235723200Y-21685200D03*
%TD*%
%TO.C,LED232*%
X323940400Y-172510400D03*
X323940400Y-171710400D03*
X322540400Y-171710400D03*
X322540400Y-172510400D03*
%TD*%
%TO.C,LED124*%
X237021600Y-25647600D03*
X237021600Y-24847600D03*
X235621600Y-24847600D03*
X235621600Y-25647600D03*
%TD*%
%TO.C,LED26*%
X96508800Y-47948800D03*
X96508800Y-47148800D03*
X95108800Y-47148800D03*
X95108800Y-47948800D03*
%TD*%
%TO.C,LED166*%
X271464000Y-60750400D03*
X271464000Y-59950400D03*
X270064000Y-59950400D03*
X270064000Y-60750400D03*
%TD*%
%TO.C,LED196*%
X274512000Y-140506400D03*
X274512000Y-139706400D03*
X273112000Y-139706400D03*
X273112000Y-140506400D03*
%TD*%
D15*
%TO.C,R121*%
X330835000Y-38352000D03*
X330835000Y-39372000D03*
%TD*%
D11*
%TO.C,LED233*%
X326480400Y-174999600D03*
X326480400Y-174199600D03*
X325080400Y-174199600D03*
X325080400Y-174999600D03*
%TD*%
%TO.C,LED119*%
X228538000Y-8324800D03*
X228538000Y-7524800D03*
X227138000Y-7524800D03*
X227138000Y-8324800D03*
%TD*%
%TO.C,LED117*%
X227979200Y-113328400D03*
X227979200Y-112528400D03*
X226579200Y-112528400D03*
X226579200Y-113328400D03*
%TD*%
%TO.C,LED204*%
X288024800Y-164687200D03*
X288024800Y-163887200D03*
X286624800Y-163887200D03*
X286624800Y-164687200D03*
%TD*%
D24*
%TO.C,R141*%
X31750000Y-69405000D03*
X31750000Y-67755000D03*
%TD*%
D30*
%TO.C,D4*%
X5158500Y-161290000D03*
X7033500Y-161290000D03*
%TD*%
D11*
%TO.C,LED133*%
X255919200Y-53536800D03*
X255919200Y-52736800D03*
X254519200Y-52736800D03*
X254519200Y-53536800D03*
%TD*%
%TO.C,LED231*%
X322111600Y-168954400D03*
X322111600Y-168154400D03*
X320711600Y-168154400D03*
X320711600Y-168954400D03*
%TD*%
%TO.C,LED140*%
X259576800Y-66236800D03*
X259576800Y-65436800D03*
X258176800Y-65436800D03*
X258176800Y-66236800D03*
%TD*%
%TO.C,LED321*%
X338875600Y-171443600D03*
X338875600Y-170643600D03*
X337475600Y-170643600D03*
X337475600Y-171443600D03*
%TD*%
M02*
