%TF.GenerationSoftware,KiCad,Pcbnew,8.0.4*%
%TF.CreationDate,2025-03-15T10:33:54-07:00*%
%TF.ProjectId,traffic_paradise,74726166-6669-4635-9f70-617261646973,rev?*%
%TF.SameCoordinates,Original*%
%TF.FileFunction,Paste,Top*%
%TF.FilePolarity,Positive*%
%FSLAX46Y46*%
G04 Gerber Fmt 4.6, Leading zero omitted, Abs format (unit mm)*
G04 Created by KiCad (PCBNEW 8.0.4) date 2025-03-15 10:33:54*
%MOMM*%
%LPD*%
G01*
G04 APERTURE LIST*
G04 Aperture macros list*
%AMRoundRect*
0 Rectangle with rounded corners*
0 $1 Rounding radius*
0 $2 $3 $4 $5 $6 $7 $8 $9 X,Y pos of 4 corners*
0 Add a 4 corners polygon primitive as box body*
4,1,4,$2,$3,$4,$5,$6,$7,$8,$9,$2,$3,0*
0 Add four circle primitives for the rounded corners*
1,1,$1+$1,$2,$3*
1,1,$1+$1,$4,$5*
1,1,$1+$1,$6,$7*
1,1,$1+$1,$8,$9*
0 Add four rect primitives between the rounded corners*
20,1,$1+$1,$2,$3,$4,$5,0*
20,1,$1+$1,$4,$5,$6,$7,0*
20,1,$1+$1,$6,$7,$8,$9,0*
20,1,$1+$1,$8,$9,$2,$3,0*%
G04 Aperture macros list end*
%ADD10C,0.010000*%
%ADD11RoundRect,0.080000X-0.220000X-0.120000X0.220000X-0.120000X0.220000X0.120000X-0.220000X0.120000X0*%
%ADD12RoundRect,0.135000X0.135000X0.185000X-0.135000X0.185000X-0.135000X-0.185000X0.135000X-0.185000X0*%
%ADD13RoundRect,0.150000X-0.512500X-0.150000X0.512500X-0.150000X0.512500X0.150000X-0.512500X0.150000X0*%
%ADD14RoundRect,0.135000X-0.185000X0.135000X-0.185000X-0.135000X0.185000X-0.135000X0.185000X0.135000X0*%
%ADD15RoundRect,0.140000X-0.170000X0.140000X-0.170000X-0.140000X0.170000X-0.140000X0.170000X0.140000X0*%
%ADD16RoundRect,0.135000X0.185000X-0.135000X0.185000X0.135000X-0.185000X0.135000X-0.185000X-0.135000X0*%
%ADD17RoundRect,0.135000X-0.135000X-0.185000X0.135000X-0.185000X0.135000X0.185000X-0.135000X0.185000X0*%
%ADD18RoundRect,0.140000X-0.140000X-0.170000X0.140000X-0.170000X0.140000X0.170000X-0.140000X0.170000X0*%
%ADD19RoundRect,0.200000X0.275000X-0.200000X0.275000X0.200000X-0.275000X0.200000X-0.275000X-0.200000X0*%
%ADD20RoundRect,0.140000X0.140000X0.170000X-0.140000X0.170000X-0.140000X-0.170000X0.140000X-0.170000X0*%
%ADD21R,0.840000X0.220000*%
%ADD22R,0.220000X0.840000*%
%ADD23RoundRect,0.200000X0.200000X0.275000X-0.200000X0.275000X-0.200000X-0.275000X0.200000X-0.275000X0*%
%ADD24RoundRect,0.140000X0.170000X-0.140000X0.170000X0.140000X-0.170000X0.140000X-0.170000X-0.140000X0*%
%ADD25RoundRect,0.200000X-0.275000X0.200000X-0.275000X-0.200000X0.275000X-0.200000X0.275000X0.200000X0*%
%ADD26R,0.900000X0.900000*%
%ADD27R,1.500000X0.900000*%
%ADD28R,0.900000X1.500000*%
%ADD29RoundRect,0.200000X-0.200000X-0.275000X0.200000X-0.275000X0.200000X0.275000X-0.200000X0.275000X0*%
%ADD30R,1.100000X1.800000*%
%ADD31R,1.092200X0.990600*%
%ADD32RoundRect,0.243750X-0.243750X-0.456250X0.243750X-0.456250X0.243750X0.456250X-0.243750X0.456250X0*%
%ADD33R,1.450000X0.600000*%
%ADD34R,1.450000X0.300000*%
%ADD35RoundRect,0.225000X0.225000X0.250000X-0.225000X0.250000X-0.225000X-0.250000X0.225000X-0.250000X0*%
%ADD36R,1.800000X1.100000*%
%ADD37RoundRect,0.250000X0.375000X0.625000X-0.375000X0.625000X-0.375000X-0.625000X0.375000X-0.625000X0*%
%ADD38RoundRect,0.250000X-0.625000X0.375000X-0.625000X-0.375000X0.625000X-0.375000X0.625000X0.375000X0*%
%ADD39R,1.473200X0.355600*%
%ADD40RoundRect,0.375000X-0.625000X-0.375000X0.625000X-0.375000X0.625000X0.375000X-0.625000X0.375000X0*%
%ADD41RoundRect,0.500000X-0.500000X-1.400000X0.500000X-1.400000X0.500000X1.400000X-0.500000X1.400000X0*%
G04 APERTURE END LIST*
D10*
%TO.C,U7*%
X152688000Y63987000D02*
X151028000Y63987000D01*
X151028000Y65647000D01*
X152688000Y65647000D01*
X152688000Y63987000D01*
G36*
X152688000Y63987000D02*
G01*
X151028000Y63987000D01*
X151028000Y65647000D01*
X152688000Y65647000D01*
X152688000Y63987000D01*
G37*
X152688000Y61357000D02*
X151028000Y61357000D01*
X151028000Y63017000D01*
X152688000Y63017000D01*
X152688000Y61357000D01*
G36*
X152688000Y61357000D02*
G01*
X151028000Y61357000D01*
X151028000Y63017000D01*
X152688000Y63017000D01*
X152688000Y61357000D01*
G37*
X155318000Y63987000D02*
X153658000Y63987000D01*
X153658000Y65647000D01*
X155318000Y65647000D01*
X155318000Y63987000D01*
G36*
X155318000Y63987000D02*
G01*
X153658000Y63987000D01*
X153658000Y65647000D01*
X155318000Y65647000D01*
X155318000Y63987000D01*
G37*
X155318000Y61357000D02*
X153658000Y61357000D01*
X153658000Y63017000D01*
X155318000Y63017000D01*
X155318000Y61357000D01*
G36*
X155318000Y61357000D02*
G01*
X153658000Y61357000D01*
X153658000Y63017000D01*
X155318000Y63017000D01*
X155318000Y61357000D01*
G37*
%TO.C,U6*%
X59978000Y-49043000D02*
X58318000Y-49043000D01*
X58318000Y-47383000D01*
X59978000Y-47383000D01*
X59978000Y-49043000D01*
G36*
X59978000Y-49043000D02*
G01*
X58318000Y-49043000D01*
X58318000Y-47383000D01*
X59978000Y-47383000D01*
X59978000Y-49043000D01*
G37*
X59978000Y-51673000D02*
X58318000Y-51673000D01*
X58318000Y-50013000D01*
X59978000Y-50013000D01*
X59978000Y-51673000D01*
G36*
X59978000Y-51673000D02*
G01*
X58318000Y-51673000D01*
X58318000Y-50013000D01*
X59978000Y-50013000D01*
X59978000Y-51673000D01*
G37*
X62608000Y-49043000D02*
X60948000Y-49043000D01*
X60948000Y-47383000D01*
X62608000Y-47383000D01*
X62608000Y-49043000D01*
G36*
X62608000Y-49043000D02*
G01*
X60948000Y-49043000D01*
X60948000Y-47383000D01*
X62608000Y-47383000D01*
X62608000Y-49043000D01*
G37*
X62608000Y-51673000D02*
X60948000Y-51673000D01*
X60948000Y-50013000D01*
X62608000Y-50013000D01*
X62608000Y-51673000D01*
G36*
X62608000Y-51673000D02*
G01*
X60948000Y-51673000D01*
X60948000Y-50013000D01*
X62608000Y-50013000D01*
X62608000Y-51673000D01*
G37*
%TO.C,U12*%
X12638000Y77237000D02*
X10978000Y77237000D01*
X10978000Y78897000D01*
X12638000Y78897000D01*
X12638000Y77237000D01*
G36*
X12638000Y77237000D02*
G01*
X10978000Y77237000D01*
X10978000Y78897000D01*
X12638000Y78897000D01*
X12638000Y77237000D01*
G37*
X12638000Y74607000D02*
X10978000Y74607000D01*
X10978000Y76267000D01*
X12638000Y76267000D01*
X12638000Y74607000D01*
G36*
X12638000Y74607000D02*
G01*
X10978000Y74607000D01*
X10978000Y76267000D01*
X12638000Y76267000D01*
X12638000Y74607000D01*
G37*
X15268000Y77237000D02*
X13608000Y77237000D01*
X13608000Y78897000D01*
X15268000Y78897000D01*
X15268000Y77237000D01*
G36*
X15268000Y77237000D02*
G01*
X13608000Y77237000D01*
X13608000Y78897000D01*
X15268000Y78897000D01*
X15268000Y77237000D01*
G37*
X15268000Y74607000D02*
X13608000Y74607000D01*
X13608000Y76267000D01*
X15268000Y76267000D01*
X15268000Y74607000D01*
G36*
X15268000Y74607000D02*
G01*
X13608000Y74607000D01*
X13608000Y76267000D01*
X15268000Y76267000D01*
X15268000Y74607000D01*
G37*
%TO.C,U5*%
X-82262000Y-5863000D02*
X-83922000Y-5863000D01*
X-83922000Y-4203000D01*
X-82262000Y-4203000D01*
X-82262000Y-5863000D01*
G36*
X-82262000Y-5863000D02*
G01*
X-83922000Y-5863000D01*
X-83922000Y-4203000D01*
X-82262000Y-4203000D01*
X-82262000Y-5863000D01*
G37*
X-82262000Y-8493000D02*
X-83922000Y-8493000D01*
X-83922000Y-6833000D01*
X-82262000Y-6833000D01*
X-82262000Y-8493000D01*
G36*
X-82262000Y-8493000D02*
G01*
X-83922000Y-8493000D01*
X-83922000Y-6833000D01*
X-82262000Y-6833000D01*
X-82262000Y-8493000D01*
G37*
X-79632000Y-5863000D02*
X-81292000Y-5863000D01*
X-81292000Y-4203000D01*
X-79632000Y-4203000D01*
X-79632000Y-5863000D01*
G36*
X-79632000Y-5863000D02*
G01*
X-81292000Y-5863000D01*
X-81292000Y-4203000D01*
X-79632000Y-4203000D01*
X-79632000Y-5863000D01*
G37*
X-79632000Y-8493000D02*
X-81292000Y-8493000D01*
X-81292000Y-6833000D01*
X-79632000Y-6833000D01*
X-79632000Y-8493000D01*
G36*
X-79632000Y-8493000D02*
G01*
X-81292000Y-8493000D01*
X-81292000Y-6833000D01*
X-79632000Y-6833000D01*
X-79632000Y-8493000D01*
G37*
%TD*%
D11*
%TO.C,LED229*%
X132384600Y-69333600D03*
X132384600Y-68533600D03*
X130984600Y-68533600D03*
X130984600Y-69333600D03*
%TD*%
%TO.C,LED245*%
X86156600Y5952000D03*
X86156600Y6752000D03*
X84756600Y6752000D03*
X84756600Y5952000D03*
%TD*%
%TO.C,LED307*%
X171449800Y-61967600D03*
X171449800Y-61167600D03*
X170049800Y-61167600D03*
X170049800Y-61967600D03*
%TD*%
D12*
%TO.C,R183*%
X4333000Y78652000D03*
X3313000Y78652000D03*
%TD*%
D11*
%TO.C,LED257*%
X121411800Y16569200D03*
X121411800Y17369200D03*
X120011800Y17369200D03*
X120011800Y16569200D03*
%TD*%
D13*
%TO.C,U3*%
X-171814500Y-81598000D03*
X-171814500Y-82548000D03*
X-171814500Y-83498000D03*
X-169539500Y-83498000D03*
X-169539500Y-82548000D03*
X-169539500Y-81598000D03*
%TD*%
D11*
%TO.C,LED383*%
X109623000Y-75348000D03*
X109623000Y-74548000D03*
X108223000Y-74548000D03*
X108223000Y-75348000D03*
%TD*%
D14*
%TO.C,R162*%
X11723000Y70052000D03*
X11723000Y69032000D03*
%TD*%
D11*
%TO.C,LED398*%
X114773000Y77202000D03*
X114773000Y78002000D03*
X113373000Y78002000D03*
X113373000Y77202000D03*
%TD*%
%TO.C,LED330*%
X150672600Y-88790000D03*
X150672600Y-87990000D03*
X149272600Y-87990000D03*
X149272600Y-88790000D03*
%TD*%
%TO.C,LED375*%
X110623000Y-41748000D03*
X110623000Y-40948000D03*
X109223000Y-40948000D03*
X109223000Y-41748000D03*
%TD*%
%TO.C,LED336*%
X-29977000Y39952000D03*
X-29977000Y40752000D03*
X-31377000Y40752000D03*
X-31377000Y39952000D03*
%TD*%
%TO.C,LED160*%
X71069000Y-20972000D03*
X71069000Y-20172000D03*
X69669000Y-20172000D03*
X69669000Y-20972000D03*
%TD*%
%TO.C,LED41*%
X-37947800Y19972800D03*
X-37947800Y20772800D03*
X-39347800Y20772800D03*
X-39347800Y19972800D03*
%TD*%
%TO.C,LED31*%
X-71526600Y36787600D03*
X-71526600Y37587600D03*
X-72926600Y37587600D03*
X-72926600Y36787600D03*
%TD*%
D14*
%TO.C,R119*%
X148982000Y56900000D03*
X148982000Y55880000D03*
%TD*%
D15*
%TO.C,C9*%
X-150484000Y-77242000D03*
X-150484000Y-78202000D03*
%TD*%
D14*
%TO.C,R129*%
X157364000Y54868000D03*
X157364000Y53848000D03*
%TD*%
D11*
%TO.C,LED212*%
X104190600Y-54398400D03*
X104190600Y-53598400D03*
X102790600Y-53598400D03*
X102790600Y-54398400D03*
%TD*%
%TO.C,LED1*%
X-177647800Y67826400D03*
X-177647800Y68626400D03*
X-179047800Y68626400D03*
X-179047800Y67826400D03*
%TD*%
%TO.C,LED295*%
X160731000Y-12386800D03*
X160731000Y-11586800D03*
X159331000Y-11586800D03*
X159331000Y-12386800D03*
%TD*%
D16*
%TO.C,R57*%
X55510000Y-42926000D03*
X55510000Y-41906000D03*
%TD*%
D12*
%TO.C,R174*%
X4323000Y73852000D03*
X3303000Y73852000D03*
%TD*%
D11*
%TO.C,LED172*%
X78130200Y26068800D03*
X78130200Y26868800D03*
X76730200Y26868800D03*
X76730200Y26068800D03*
%TD*%
%TO.C,LED220*%
X132283000Y-65574400D03*
X132283000Y-64774400D03*
X130883000Y-64774400D03*
X130883000Y-65574400D03*
%TD*%
%TO.C,LED371*%
X110823000Y-28348000D03*
X110823000Y-27548000D03*
X109423000Y-27548000D03*
X109423000Y-28348000D03*
%TD*%
D12*
%TO.C,R12*%
X-87617000Y-6221000D03*
X-88637000Y-6221000D03*
%TD*%
D11*
%TO.C,LED5*%
X-162814200Y63102000D03*
X-162814200Y63902000D03*
X-164214200Y63902000D03*
X-164214200Y63102000D03*
%TD*%
%TO.C,LED182*%
X82092600Y-15587200D03*
X82092600Y-14787200D03*
X80692600Y-14787200D03*
X80692600Y-15587200D03*
%TD*%
D17*
%TO.C,R42*%
X-75175000Y-1395000D03*
X-74155000Y-1395000D03*
%TD*%
D11*
%TO.C,LED266*%
X119532200Y-8830800D03*
X119532200Y-8030800D03*
X118132200Y-8030800D03*
X118132200Y-8830800D03*
%TD*%
%TO.C,LED335*%
X-33177000Y37552000D03*
X-33177000Y38352000D03*
X-34577000Y38352000D03*
X-34577000Y37552000D03*
%TD*%
%TO.C,LED249*%
X99771000Y8400D03*
X99771000Y808400D03*
X98371000Y808400D03*
X98371000Y8400D03*
%TD*%
%TO.C,LED70*%
X15493800Y34298400D03*
X15493800Y35098400D03*
X14093800Y35098400D03*
X14093800Y34298400D03*
%TD*%
D14*
%TO.C,R164*%
X13323000Y70052000D03*
X13323000Y69032000D03*
%TD*%
D11*
%TO.C,LED49*%
X-29515000Y27440400D03*
X-29515000Y28240400D03*
X-30915000Y28240400D03*
X-30915000Y27440400D03*
%TD*%
%TO.C,LED341*%
X-13177000Y51252000D03*
X-13177000Y52052000D03*
X-14577000Y52052000D03*
X-14577000Y51252000D03*
%TD*%
%TO.C,LED56*%
X-36169800Y13114800D03*
X-36169800Y13914800D03*
X-37569800Y13914800D03*
X-37569800Y13114800D03*
%TD*%
D14*
%TO.C,R122*%
X151268000Y54868000D03*
X151268000Y53848000D03*
%TD*%
D18*
%TO.C,C5*%
X-174840000Y-80008000D03*
X-173880000Y-80008000D03*
%TD*%
D17*
%TO.C,R83*%
X67065000Y-44575000D03*
X68085000Y-44575000D03*
%TD*%
D11*
%TO.C,LED116*%
X40893800Y-18940000D03*
X40893800Y-18140000D03*
X39493800Y-18140000D03*
X39493800Y-18940000D03*
%TD*%
D12*
%TO.C,R176*%
X4323000Y72252000D03*
X3303000Y72252000D03*
%TD*%
D11*
%TO.C,LED368*%
X117323000Y-21148000D03*
X117323000Y-20348000D03*
X115923000Y-20348000D03*
X115923000Y-21148000D03*
%TD*%
%TO.C,LED113*%
X29260600Y-20362400D03*
X29260600Y-19562400D03*
X27860600Y-19562400D03*
X27860600Y-20362400D03*
%TD*%
%TO.C,LED57*%
X-36169800Y9152400D03*
X-36169800Y9952400D03*
X-37569800Y9952400D03*
X-37569800Y9152400D03*
%TD*%
%TO.C,LED137*%
X65023800Y30234400D03*
X65023800Y31034400D03*
X63623800Y31034400D03*
X63623800Y30234400D03*
%TD*%
%TO.C,LED183*%
X84073800Y-18940000D03*
X84073800Y-18140000D03*
X82673800Y-18140000D03*
X82673800Y-18940000D03*
%TD*%
%TO.C,LED86*%
X-4267400Y-15790400D03*
X-4267400Y-14990400D03*
X-5667400Y-14990400D03*
X-5667400Y-15790400D03*
%TD*%
%TO.C,LED45*%
X-22047400Y18855200D03*
X-22047400Y19655200D03*
X-23447400Y19655200D03*
X-23447400Y18855200D03*
%TD*%
%TO.C,LED107*%
X40639800Y5037600D03*
X40639800Y5837600D03*
X39239800Y5837600D03*
X39239800Y5037600D03*
%TD*%
D17*
%TO.C,R82*%
X69097000Y-45337000D03*
X70117000Y-45337000D03*
%TD*%
D14*
%TO.C,R133*%
X155840000Y54868000D03*
X155840000Y53848000D03*
%TD*%
D11*
%TO.C,LED139*%
X72948600Y31098000D03*
X72948600Y31898000D03*
X71548600Y31898000D03*
X71548600Y31098000D03*
%TD*%
D12*
%TO.C,R126*%
X144539000Y59311000D03*
X143519000Y59311000D03*
%TD*%
D11*
%TO.C,LED222*%
X139649000Y-67403200D03*
X139649000Y-66603200D03*
X138249000Y-66603200D03*
X138249000Y-67403200D03*
%TD*%
D14*
%TO.C,R161*%
X15723000Y68052000D03*
X15723000Y67032000D03*
%TD*%
D11*
%TO.C,LED181*%
X79908200Y-12285200D03*
X79908200Y-11485200D03*
X78508200Y-11485200D03*
X78508200Y-12285200D03*
%TD*%
%TO.C,LED129*%
X62026600Y52484800D03*
X62026600Y53284800D03*
X60626600Y53284800D03*
X60626600Y52484800D03*
%TD*%
%TO.C,LED195*%
X91084200Y-41241200D03*
X91084200Y-40441200D03*
X89684200Y-40441200D03*
X89684200Y-41241200D03*
%TD*%
%TO.C,LED387*%
X78198000Y54952000D03*
X78198000Y55752000D03*
X76798000Y55752000D03*
X76798000Y54952000D03*
%TD*%
%TO.C,LED274*%
X121361000Y-15536400D03*
X121361000Y-14736400D03*
X119961000Y-14736400D03*
X119961000Y-15536400D03*
%TD*%
D14*
%TO.C,R167*%
X10923000Y68062000D03*
X10923000Y67042000D03*
%TD*%
D11*
%TO.C,LED255*%
X114503000Y20988800D03*
X114503000Y21788800D03*
X113103000Y21788800D03*
X113103000Y20988800D03*
%TD*%
D14*
%TO.C,R158*%
X18123000Y70052000D03*
X18123000Y69032000D03*
%TD*%
D11*
%TO.C,LED380*%
X109723000Y-62948000D03*
X109723000Y-62148000D03*
X108323000Y-62148000D03*
X108323000Y-62948000D03*
%TD*%
D16*
%TO.C,R31*%
X-78348000Y2286000D03*
X-78348000Y3306000D03*
%TD*%
D17*
%TO.C,R39*%
X-73143000Y-3681000D03*
X-72123000Y-3681000D03*
%TD*%
D11*
%TO.C,LED24*%
X-93269000Y51316400D03*
X-93269000Y52116400D03*
X-94669000Y52116400D03*
X-94669000Y51316400D03*
%TD*%
D12*
%TO.C,R14*%
X-89522000Y-2411000D03*
X-90542000Y-2411000D03*
%TD*%
D11*
%TO.C,LED4*%
X-166776600Y63152800D03*
X-166776600Y63952800D03*
X-168176600Y63952800D03*
X-168176600Y63152800D03*
%TD*%
%TO.C,LED275*%
X121107000Y-19498800D03*
X121107000Y-18698800D03*
X119707000Y-18698800D03*
X119707000Y-19498800D03*
%TD*%
D12*
%TO.C,R180*%
X6333000Y80952000D03*
X5313000Y80952000D03*
%TD*%
D11*
%TO.C,LED283*%
X145694200Y4326400D03*
X145694200Y5126400D03*
X144294200Y5126400D03*
X144294200Y4326400D03*
%TD*%
%TO.C,LED14*%
X-129489400Y60155600D03*
X-129489400Y60955600D03*
X-130889400Y60955600D03*
X-130889400Y60155600D03*
%TD*%
%TO.C,LED272*%
X114249000Y-11878800D03*
X114249000Y-11078800D03*
X112849000Y-11078800D03*
X112849000Y-11878800D03*
%TD*%
%TO.C,LED174*%
X77977800Y17991600D03*
X77977800Y18791600D03*
X76577800Y18791600D03*
X76577800Y17991600D03*
%TD*%
%TO.C,LED13*%
X-132639000Y59800000D03*
X-132639000Y60600000D03*
X-134039000Y60600000D03*
X-134039000Y59800000D03*
%TD*%
%TO.C,LED83*%
X-14833800Y-11320000D03*
X-14833800Y-10520000D03*
X-16233800Y-10520000D03*
X-16233800Y-11320000D03*
%TD*%
%TO.C,LED111*%
X21640600Y-21683200D03*
X21640600Y-20883200D03*
X20240600Y-20883200D03*
X20240600Y-21683200D03*
%TD*%
%TO.C,LED65*%
X-1930600Y29777200D03*
X-1930600Y30577200D03*
X-3330600Y30577200D03*
X-3330600Y29777200D03*
%TD*%
%TO.C,LED168*%
X94386200Y30539200D03*
X94386200Y31339200D03*
X92986200Y31339200D03*
X92986200Y30539200D03*
%TD*%
D19*
%TO.C,R71*%
X52462000Y-56068000D03*
X52462000Y-54418000D03*
%TD*%
D11*
%TO.C,LED394*%
X100573000Y69402000D03*
X100573000Y70202000D03*
X99173000Y70202000D03*
X99173000Y69402000D03*
%TD*%
D14*
%TO.C,R170*%
X7723000Y68052000D03*
X7723000Y67032000D03*
%TD*%
D11*
%TO.C,LED296*%
X164744200Y-11777200D03*
X164744200Y-10977200D03*
X163344200Y-10977200D03*
X163344200Y-11777200D03*
%TD*%
%TO.C,LED308*%
X168198600Y-59580000D03*
X168198600Y-58780000D03*
X166798600Y-58780000D03*
X166798600Y-59580000D03*
%TD*%
%TO.C,LED326*%
X-164008000Y4978000D03*
X-164008000Y5778000D03*
X-165408000Y5778000D03*
X-165408000Y4978000D03*
%TD*%
%TO.C,LED104*%
X30073400Y3666000D03*
X30073400Y4466000D03*
X28673400Y4466000D03*
X28673400Y3666000D03*
%TD*%
D12*
%TO.C,R11*%
X-87617000Y-4697000D03*
X-88637000Y-4697000D03*
%TD*%
D11*
%TO.C,LED294*%
X156819400Y-12793200D03*
X156819400Y-11993200D03*
X155419400Y-11993200D03*
X155419400Y-12793200D03*
%TD*%
%TO.C,LED287*%
X161035800Y1684800D03*
X161035800Y2484800D03*
X159635800Y2484800D03*
X159635800Y1684800D03*
%TD*%
D20*
%TO.C,C19*%
X151875000Y70741000D03*
X150915000Y70741000D03*
%TD*%
D11*
%TO.C,LED78*%
X152200Y12098800D03*
X152200Y12898800D03*
X-1247800Y12898800D03*
X-1247800Y12098800D03*
%TD*%
%TO.C,LED50*%
X-25755800Y28253200D03*
X-25755800Y29053200D03*
X-27155800Y29053200D03*
X-27155800Y28253200D03*
%TD*%
D12*
%TO.C,R102*%
X146571000Y67693000D03*
X145551000Y67693000D03*
%TD*%
D11*
%TO.C,LED271*%
X110794600Y-10304000D03*
X110794600Y-9504000D03*
X109394600Y-9504000D03*
X109394600Y-10304000D03*
%TD*%
%TO.C,LED151*%
X71323000Y9101600D03*
X71323000Y9901600D03*
X69923000Y9901600D03*
X69923000Y9101600D03*
%TD*%
%TO.C,LED391*%
X91448000Y63102000D03*
X91448000Y63902000D03*
X90048000Y63902000D03*
X90048000Y63102000D03*
%TD*%
%TO.C,LED374*%
X110923000Y-38348000D03*
X110923000Y-37548000D03*
X109523000Y-37548000D03*
X109523000Y-38348000D03*
%TD*%
D12*
%TO.C,R101*%
X144539000Y71503000D03*
X143519000Y71503000D03*
%TD*%
D11*
%TO.C,LED248*%
X96621400Y2396000D03*
X96621400Y3196000D03*
X95221400Y3196000D03*
X95221400Y2396000D03*
%TD*%
D21*
%TO.C,U7*%
X156618000Y60702000D03*
X156618000Y61102000D03*
X156618000Y61502000D03*
X156618000Y61902000D03*
X156618000Y62302000D03*
X156618000Y62702000D03*
X156618000Y63102000D03*
X156618000Y63502000D03*
X156618000Y63902000D03*
X156618000Y64302000D03*
X156618000Y64702000D03*
X156618000Y65102000D03*
X156618000Y65502000D03*
X156618000Y65902000D03*
X156618000Y66302000D03*
D22*
X155973000Y66947000D03*
X155573000Y66947000D03*
X155173000Y66947000D03*
X154773000Y66947000D03*
X154373000Y66947000D03*
X153973000Y66947000D03*
X153573000Y66947000D03*
X153173000Y66947000D03*
X152773000Y66947000D03*
X152373000Y66947000D03*
X151973000Y66947000D03*
X151573000Y66947000D03*
X151173000Y66947000D03*
X150773000Y66947000D03*
X150373000Y66947000D03*
D21*
X149728000Y66302000D03*
X149728000Y65902000D03*
X149728000Y65502000D03*
X149728000Y65102000D03*
X149728000Y64702000D03*
X149728000Y64302000D03*
X149728000Y63902000D03*
X149728000Y63502000D03*
X149728000Y63102000D03*
X149728000Y62702000D03*
X149728000Y62302000D03*
X149728000Y61902000D03*
X149728000Y61502000D03*
X149728000Y61102000D03*
X149728000Y60702000D03*
D22*
X150373000Y60057000D03*
X150773000Y60057000D03*
X151173000Y60057000D03*
X151573000Y60057000D03*
X151973000Y60057000D03*
X152373000Y60057000D03*
X152773000Y60057000D03*
X153173000Y60057000D03*
X153573000Y60057000D03*
X153973000Y60057000D03*
X154373000Y60057000D03*
X154773000Y60057000D03*
X155173000Y60057000D03*
X155573000Y60057000D03*
X155973000Y60057000D03*
%TD*%
D12*
%TO.C,R110*%
X146571000Y66169000D03*
X145551000Y66169000D03*
%TD*%
%TO.C,R114*%
X146571000Y64645000D03*
X145551000Y64645000D03*
%TD*%
%TO.C,R171*%
X6323000Y76252000D03*
X5303000Y76252000D03*
%TD*%
D14*
%TO.C,R20*%
X-133720000Y-66163000D03*
X-133720000Y-67183000D03*
%TD*%
D12*
%TO.C,R105*%
X144539000Y65407000D03*
X143519000Y65407000D03*
%TD*%
D11*
%TO.C,LED379*%
X109823000Y-59548000D03*
X109823000Y-58748000D03*
X108423000Y-58748000D03*
X108423000Y-59548000D03*
%TD*%
%TO.C,LED85*%
X-7721800Y-13809200D03*
X-7721800Y-13009200D03*
X-9121800Y-13009200D03*
X-9121800Y-13809200D03*
%TD*%
%TO.C,LED259*%
X127863400Y13114800D03*
X127863400Y13914800D03*
X126463400Y13914800D03*
X126463400Y13114800D03*
%TD*%
%TO.C,LED126*%
X57759400Y63406800D03*
X57759400Y64206800D03*
X56359400Y64206800D03*
X56359400Y63406800D03*
%TD*%
%TO.C,LED310*%
X161645400Y-55465200D03*
X161645400Y-54665200D03*
X160245400Y-54665200D03*
X160245400Y-55465200D03*
%TD*%
%TO.C,LED55*%
X-36220600Y16924800D03*
X-36220600Y17724800D03*
X-37620600Y17724800D03*
X-37620600Y16924800D03*
%TD*%
%TO.C,LED211*%
X100634600Y-52772800D03*
X100634600Y-51972800D03*
X99234600Y-51972800D03*
X99234600Y-52772800D03*
%TD*%
%TO.C,LED150*%
X67360600Y9457200D03*
X67360600Y10257200D03*
X65960600Y10257200D03*
X65960600Y9457200D03*
%TD*%
D17*
%TO.C,R46*%
X-73143000Y-9777000D03*
X-72123000Y-9777000D03*
%TD*%
D11*
%TO.C,LED152*%
X75082200Y7984000D03*
X75082200Y8784000D03*
X73682200Y8784000D03*
X73682200Y7984000D03*
%TD*%
D12*
%TO.C,R182*%
X6333000Y79352000D03*
X5313000Y79352000D03*
%TD*%
D23*
%TO.C,R7*%
X-168052000Y-67848000D03*
X-169702000Y-67848000D03*
%TD*%
D24*
%TO.C,C27*%
X19023000Y79572000D03*
X19023000Y80532000D03*
%TD*%
D25*
%TO.C,R149*%
X20923000Y81302000D03*
X20923000Y79652000D03*
%TD*%
D14*
%TO.C,R156*%
X16523000Y70052000D03*
X16523000Y69032000D03*
%TD*%
D11*
%TO.C,LED112*%
X25298200Y-20921200D03*
X25298200Y-20121200D03*
X23898200Y-20121200D03*
X23898200Y-20921200D03*
%TD*%
%TO.C,LED184*%
X86410600Y-22343600D03*
X86410600Y-21543600D03*
X85010600Y-21543600D03*
X85010600Y-22343600D03*
%TD*%
%TO.C,LED15*%
X-125527000Y60765200D03*
X-125527000Y61565200D03*
X-126927000Y61565200D03*
X-126927000Y60765200D03*
%TD*%
D16*
%TO.C,R75*%
X61606000Y-42926000D03*
X61606000Y-41906000D03*
%TD*%
D11*
%TO.C,LED314*%
X172516600Y110000D03*
X172516600Y910000D03*
X171116600Y910000D03*
X171116600Y110000D03*
%TD*%
D12*
%TO.C,R70*%
X52591000Y-49782000D03*
X51571000Y-49782000D03*
%TD*%
D11*
%TO.C,LED316*%
X174040600Y-65066400D03*
X174040600Y-64266400D03*
X172640600Y-64266400D03*
X172640600Y-65066400D03*
%TD*%
D12*
%TO.C,R64*%
X-125717000Y-74293000D03*
X-126737000Y-74293000D03*
%TD*%
D11*
%TO.C,LED215*%
X114299800Y-59783200D03*
X114299800Y-58983200D03*
X112899800Y-58983200D03*
X112899800Y-59783200D03*
%TD*%
%TO.C,LED406*%
X139573000Y82552000D03*
X139573000Y83352000D03*
X138173000Y83352000D03*
X138173000Y82552000D03*
%TD*%
%TO.C,LED154*%
X48564600Y-18279600D03*
X48564600Y-17479600D03*
X47164600Y-17479600D03*
X47164600Y-18279600D03*
%TD*%
D17*
%TO.C,R150*%
X19413000Y75352000D03*
X20433000Y75352000D03*
%TD*%
D11*
%TO.C,LED201*%
X94386200Y-63999600D03*
X94386200Y-63199600D03*
X92986200Y-63199600D03*
X92986200Y-63999600D03*
%TD*%
%TO.C,LED153*%
X78739800Y6764800D03*
X78739800Y7564800D03*
X77339800Y7564800D03*
X77339800Y6764800D03*
%TD*%
%TO.C,LED173*%
X78028600Y22106400D03*
X78028600Y22906400D03*
X76628600Y22906400D03*
X76628600Y22106400D03*
%TD*%
D15*
%TO.C,C31*%
X-126354000Y-85878000D03*
X-126354000Y-86838000D03*
%TD*%
D17*
%TO.C,R93*%
X69097000Y-51433000D03*
X70117000Y-51433000D03*
%TD*%
D11*
%TO.C,LED19*%
X-110185400Y59698400D03*
X-110185400Y60498400D03*
X-111585400Y60498400D03*
X-111585400Y59698400D03*
%TD*%
%TO.C,LED306*%
X158140200Y-53077600D03*
X158140200Y-52277600D03*
X156740200Y-52277600D03*
X156740200Y-53077600D03*
%TD*%
D26*
%TO.C,U13*%
X-135227000Y-80738000D03*
X-135227000Y-79338000D03*
X-135227000Y-77938000D03*
X-136627000Y-80738000D03*
X-136627000Y-79338000D03*
X-136627000Y-77938000D03*
X-138027000Y-80738000D03*
X-138027000Y-79338000D03*
X-138027000Y-77938000D03*
D27*
X-129377000Y-87058000D03*
X-129377000Y-85788000D03*
X-129377000Y-84518000D03*
X-129377000Y-83248000D03*
X-129377000Y-81978000D03*
X-129377000Y-80708000D03*
X-129377000Y-79438000D03*
X-129377000Y-78168000D03*
X-129377000Y-76898000D03*
X-129377000Y-75628000D03*
X-129377000Y-74358000D03*
X-129377000Y-73088000D03*
X-129377000Y-71818000D03*
X-129377000Y-70548000D03*
D28*
X-131142000Y-69298000D03*
X-132412000Y-69298000D03*
X-133682000Y-69298000D03*
X-134952000Y-69298000D03*
X-136222000Y-69298000D03*
X-137492000Y-69298000D03*
X-138762000Y-69298000D03*
X-140032000Y-69298000D03*
X-141302000Y-69298000D03*
X-142572000Y-69298000D03*
X-143842000Y-69298000D03*
X-145112000Y-69298000D03*
D27*
X-146877000Y-70548000D03*
X-146877000Y-71818000D03*
X-146877000Y-73088000D03*
X-146877000Y-74358000D03*
X-146877000Y-75628000D03*
X-146877000Y-76898000D03*
X-146877000Y-78168000D03*
X-146877000Y-79438000D03*
X-146877000Y-80708000D03*
X-146877000Y-81978000D03*
X-146877000Y-83248000D03*
X-146877000Y-84518000D03*
X-146877000Y-85788000D03*
X-146877000Y-87058000D03*
%TD*%
D11*
%TO.C,LED327*%
X-154483000Y4978000D03*
X-154483000Y5778000D03*
X-155883000Y5778000D03*
X-155883000Y4978000D03*
%TD*%
%TO.C,LED409*%
X-163977000Y23252000D03*
X-163977000Y24052000D03*
X-165377000Y24052000D03*
X-165377000Y23252000D03*
%TD*%
%TO.C,LED268*%
X126085400Y-14672800D03*
X126085400Y-13872800D03*
X124685400Y-13872800D03*
X124685400Y-14672800D03*
%TD*%
D16*
%TO.C,R66*%
X58558000Y-42926000D03*
X58558000Y-41906000D03*
%TD*%
D20*
%TO.C,C25*%
X11143000Y84522000D03*
X10183000Y84522000D03*
%TD*%
D18*
%TO.C,C16*%
X61761000Y-55751000D03*
X62721000Y-55751000D03*
%TD*%
D11*
%TO.C,LED284*%
X149656600Y4478800D03*
X149656600Y5278800D03*
X148256600Y5278800D03*
X148256600Y4478800D03*
%TD*%
%TO.C,LED6*%
X-158902600Y63813200D03*
X-158902600Y64613200D03*
X-160302600Y64613200D03*
X-160302600Y63813200D03*
%TD*%
D15*
%TO.C,C18*%
X55383000Y-54763000D03*
X55383000Y-55723000D03*
%TD*%
D11*
%TO.C,LED44*%
X-26060600Y19261600D03*
X-26060600Y20061600D03*
X-27460600Y20061600D03*
X-27460600Y19261600D03*
%TD*%
D20*
%TO.C,C26*%
X11123000Y83452000D03*
X10163000Y83452000D03*
%TD*%
D11*
%TO.C,LED251*%
X104901800Y-5579600D03*
X104901800Y-4779600D03*
X103501800Y-4779600D03*
X103501800Y-5579600D03*
%TD*%
%TO.C,LED361*%
X88223000Y-19748000D03*
X88223000Y-18948000D03*
X86823000Y-18948000D03*
X86823000Y-19748000D03*
%TD*%
D17*
%TO.C,R44*%
X-73143000Y-11301000D03*
X-72123000Y-11301000D03*
%TD*%
D11*
%TO.C,LED22*%
X-99314200Y55888400D03*
X-99314200Y56688400D03*
X-100714200Y56688400D03*
X-100714200Y55888400D03*
%TD*%
%TO.C,LED20*%
X-106477000Y58834800D03*
X-106477000Y59634800D03*
X-107877000Y59634800D03*
X-107877000Y58834800D03*
%TD*%
D29*
%TO.C,R3*%
X-169702000Y-64748000D03*
X-168052000Y-64748000D03*
%TD*%
D12*
%TO.C,R175*%
X6323000Y73052000D03*
X5303000Y73052000D03*
%TD*%
D17*
%TO.C,R52*%
X-73143000Y-14349000D03*
X-72123000Y-14349000D03*
%TD*%
D11*
%TO.C,LED3*%
X-170485000Y64321200D03*
X-170485000Y65121200D03*
X-171885000Y65121200D03*
X-171885000Y64321200D03*
%TD*%
%TO.C,LED350*%
X22123000Y56852000D03*
X22123000Y57652000D03*
X20723000Y57652000D03*
X20723000Y56852000D03*
%TD*%
%TO.C,LED53*%
X-13868600Y28253200D03*
X-13868600Y29053200D03*
X-15268600Y29053200D03*
X-15268600Y28253200D03*
%TD*%
%TO.C,LED155*%
X52527000Y-18381200D03*
X52527000Y-17581200D03*
X51127000Y-17581200D03*
X51127000Y-18381200D03*
%TD*%
%TO.C,LED297*%
X168757400Y-11370800D03*
X168757400Y-10570800D03*
X167357400Y-10570800D03*
X167357400Y-11370800D03*
%TD*%
D12*
%TO.C,R72*%
X52591000Y-45591000D03*
X51571000Y-45591000D03*
%TD*%
D11*
%TO.C,LED208*%
X95656200Y-42714400D03*
X95656200Y-41914400D03*
X94256200Y-41914400D03*
X94256200Y-42714400D03*
%TD*%
D17*
%TO.C,R85*%
X69097000Y-49909000D03*
X70117000Y-49909000D03*
%TD*%
D24*
%TO.C,C22*%
X158253000Y68102000D03*
X158253000Y69062000D03*
%TD*%
D11*
%TO.C,LED286*%
X157124200Y1888000D03*
X157124200Y2688000D03*
X155724200Y2688000D03*
X155724200Y1888000D03*
%TD*%
%TO.C,LED148*%
X59689800Y8695200D03*
X59689800Y9495200D03*
X58289800Y9495200D03*
X58289800Y8695200D03*
%TD*%
D16*
%TO.C,R17*%
X-85206000Y254000D03*
X-85206000Y1274000D03*
%TD*%
D17*
%TO.C,R84*%
X67065000Y-50671000D03*
X68085000Y-50671000D03*
%TD*%
D11*
%TO.C,LED322*%
X158445000Y-79138000D03*
X158445000Y-78338000D03*
X157045000Y-78338000D03*
X157045000Y-79138000D03*
%TD*%
%TO.C,LED239*%
X98297800Y18652000D03*
X98297800Y19452000D03*
X96897800Y19452000D03*
X96897800Y18652000D03*
%TD*%
%TO.C,LED376*%
X109823000Y-45348000D03*
X109823000Y-44548000D03*
X108423000Y-44548000D03*
X108423000Y-45348000D03*
%TD*%
%TO.C,LED125*%
X54457400Y66099200D03*
X54457400Y66899200D03*
X53057400Y66899200D03*
X53057400Y66099200D03*
%TD*%
%TO.C,LED312*%
X172719800Y-11320000D03*
X172719800Y-10520000D03*
X171319800Y-10520000D03*
X171319800Y-11320000D03*
%TD*%
%TO.C,LED372*%
X110923000Y-31548000D03*
X110923000Y-30748000D03*
X109523000Y-30748000D03*
X109523000Y-31548000D03*
%TD*%
%TO.C,LED61*%
X-26162200Y-2633200D03*
X-26162200Y-1833200D03*
X-27562200Y-1833200D03*
X-27562200Y-2633200D03*
%TD*%
D12*
%TO.C,R106*%
X-125717000Y-81913000D03*
X-126737000Y-81913000D03*
%TD*%
D11*
%TO.C,LED367*%
X113623000Y-19148000D03*
X113623000Y-18348000D03*
X112223000Y-18348000D03*
X112223000Y-19148000D03*
%TD*%
D17*
%TO.C,R40*%
X-75175000Y-2919000D03*
X-74155000Y-2919000D03*
%TD*%
D11*
%TO.C,LED381*%
X109523000Y-66148000D03*
X109523000Y-65348000D03*
X108123000Y-65348000D03*
X108123000Y-66148000D03*
%TD*%
D14*
%TO.C,R131*%
X154316000Y54868000D03*
X154316000Y53848000D03*
%TD*%
D24*
%TO.C,C21*%
X159396000Y68102000D03*
X159396000Y69062000D03*
%TD*%
D11*
%TO.C,LED138*%
X68935400Y31148800D03*
X68935400Y31948800D03*
X67535400Y31948800D03*
X67535400Y31148800D03*
%TD*%
%TO.C,LED317*%
X176631400Y-68114400D03*
X176631400Y-67314400D03*
X175231400Y-67314400D03*
X175231400Y-68114400D03*
%TD*%
D30*
%TO.C,SW3*%
X-174813001Y31742000D03*
X-174813001Y37942000D03*
X-171112999Y31742000D03*
X-171112999Y37942000D03*
%TD*%
D11*
%TO.C,LED311*%
X176631400Y-11320000D03*
X176631400Y-10520000D03*
X175231400Y-10520000D03*
X175231400Y-11320000D03*
%TD*%
D14*
%TO.C,R135*%
X152792000Y54868000D03*
X152792000Y53848000D03*
%TD*%
D11*
%TO.C,LED413*%
X-176577000Y-69048000D03*
X-176577000Y-68248000D03*
X-177977000Y-68248000D03*
X-177977000Y-69048000D03*
%TD*%
D17*
%TO.C,R92*%
X69097000Y-46861000D03*
X70117000Y-46861000D03*
%TD*%
D16*
%TO.C,R76*%
X60844000Y-40894000D03*
X60844000Y-39874000D03*
%TD*%
D12*
%TO.C,R74*%
X52591000Y-47115000D03*
X51571000Y-47115000D03*
%TD*%
D31*
%TO.C,D4*%
X-123903800Y-64948000D03*
X-126850200Y-64948000D03*
%TD*%
D11*
%TO.C,LED386*%
X75198000Y52452000D03*
X75198000Y53252000D03*
X73798000Y53252000D03*
X73798000Y52452000D03*
%TD*%
%TO.C,LED9*%
X-146964600Y65032400D03*
X-146964600Y65832400D03*
X-148364600Y65832400D03*
X-148364600Y65032400D03*
%TD*%
D12*
%TO.C,R186*%
X6333000Y85752000D03*
X5313000Y85752000D03*
%TD*%
D11*
%TO.C,LED293*%
X153161800Y-12132800D03*
X153161800Y-11332800D03*
X151761800Y-11332800D03*
X151761800Y-12132800D03*
%TD*%
%TO.C,LED214*%
X111556600Y-56887600D03*
X111556600Y-56087600D03*
X110156600Y-56087600D03*
X110156600Y-56887600D03*
%TD*%
%TO.C,LED385*%
X73023000Y49427000D03*
X73023000Y50227000D03*
X71623000Y50227000D03*
X71623000Y49427000D03*
%TD*%
D12*
%TO.C,R125*%
X146571000Y58549000D03*
X145551000Y58549000D03*
%TD*%
D11*
%TO.C,LED146*%
X52019000Y7577600D03*
X52019000Y8377600D03*
X50619000Y8377600D03*
X50619000Y7577600D03*
%TD*%
D32*
%TO.C,D3*%
X-178218500Y-71118000D03*
X-176343500Y-71118000D03*
%TD*%
D15*
%TO.C,C1*%
X-127624000Y-85878000D03*
X-127624000Y-86838000D03*
%TD*%
D14*
%TO.C,R130*%
X156602000Y56900000D03*
X156602000Y55880000D03*
%TD*%
D11*
%TO.C,LED332*%
X-43677000Y30752000D03*
X-43677000Y31552000D03*
X-45077000Y31552000D03*
X-45077000Y30752000D03*
%TD*%
D12*
%TO.C,R168*%
X6323000Y71452000D03*
X5303000Y71452000D03*
%TD*%
D11*
%TO.C,LED71*%
X19507000Y33892000D03*
X19507000Y34692000D03*
X18107000Y34692000D03*
X18107000Y33892000D03*
%TD*%
%TO.C,LED334*%
X-36477000Y34952000D03*
X-36477000Y35752000D03*
X-37877000Y35752000D03*
X-37877000Y34952000D03*
%TD*%
%TO.C,LED64*%
X-5943800Y29015200D03*
X-5943800Y29815200D03*
X-7343800Y29815200D03*
X-7343800Y29015200D03*
%TD*%
%TO.C,LED346*%
X6523000Y55852000D03*
X6523000Y56652000D03*
X5123000Y56652000D03*
X5123000Y55852000D03*
%TD*%
%TO.C,LED223*%
X142747800Y-69994000D03*
X142747800Y-69194000D03*
X141347800Y-69194000D03*
X141347800Y-69994000D03*
%TD*%
D12*
%TO.C,R18*%
X-125717000Y-76833000D03*
X-126737000Y-76833000D03*
%TD*%
D11*
%TO.C,LED280*%
X134213400Y5088400D03*
X134213400Y5888400D03*
X132813400Y5888400D03*
X132813400Y5088400D03*
%TD*%
D12*
%TO.C,R112*%
X146571000Y63121000D03*
X145551000Y63121000D03*
%TD*%
D11*
%TO.C,LED76*%
X-7010600Y15248400D03*
X-7010600Y16048400D03*
X-8410600Y16048400D03*
X-8410600Y15248400D03*
%TD*%
%TO.C,LED269*%
X129844600Y-13453600D03*
X129844600Y-12653600D03*
X128444600Y-12653600D03*
X128444600Y-13453600D03*
%TD*%
%TO.C,LED366*%
X109023000Y-18548000D03*
X109023000Y-17748000D03*
X107623000Y-17748000D03*
X107623000Y-18548000D03*
%TD*%
D20*
%TO.C,C24*%
X-125797000Y-84348000D03*
X-126757000Y-84348000D03*
%TD*%
D11*
%TO.C,LED159*%
X67665400Y-18940000D03*
X67665400Y-18140000D03*
X66265400Y-18140000D03*
X66265400Y-18940000D03*
%TD*%
%TO.C,LED147*%
X55727400Y8949200D03*
X55727400Y9749200D03*
X54327400Y9749200D03*
X54327400Y8949200D03*
%TD*%
D33*
%TO.C,J2*%
X-176792000Y-79298000D03*
X-176792000Y-80098000D03*
D34*
X-176792000Y-81298000D03*
X-176792000Y-82298000D03*
X-176792000Y-82798000D03*
X-176792000Y-83798000D03*
D33*
X-176792000Y-84998000D03*
X-176792000Y-85798000D03*
X-176792000Y-85798000D03*
X-176792000Y-84998000D03*
D34*
X-176792000Y-84298000D03*
X-176792000Y-83298000D03*
X-176792000Y-81798000D03*
X-176792000Y-80798000D03*
D33*
X-176792000Y-80098000D03*
X-176792000Y-79298000D03*
%TD*%
D11*
%TO.C,LED221*%
X135940600Y-66692000D03*
X135940600Y-65892000D03*
X134540600Y-65892000D03*
X134540600Y-66692000D03*
%TD*%
%TO.C,LED94*%
X39065000Y31961600D03*
X39065000Y32761600D03*
X37665000Y32761600D03*
X37665000Y31961600D03*
%TD*%
%TO.C,LED142*%
X83362600Y28862800D03*
X83362600Y29662800D03*
X81962600Y29662800D03*
X81962600Y28862800D03*
%TD*%
D17*
%TO.C,R81*%
X67065000Y-46099000D03*
X68085000Y-46099000D03*
%TD*%
D24*
%TO.C,C2*%
X-173471000Y-92962000D03*
X-173471000Y-92002000D03*
%TD*%
D16*
%TO.C,R34*%
X-76062000Y254000D03*
X-76062000Y1274000D03*
%TD*%
D11*
%TO.C,LED101*%
X18440200Y6002800D03*
X18440200Y6802800D03*
X17040200Y6802800D03*
X17040200Y6002800D03*
%TD*%
%TO.C,LED97*%
X49885400Y28913600D03*
X49885400Y29713600D03*
X48485400Y29713600D03*
X48485400Y28913600D03*
%TD*%
%TO.C,LED388*%
X81573000Y57302000D03*
X81573000Y58102000D03*
X80173000Y58102000D03*
X80173000Y57302000D03*
%TD*%
%TO.C,LED74*%
X-14122600Y18144000D03*
X-14122600Y18944000D03*
X-15522600Y18944000D03*
X-15522600Y18144000D03*
%TD*%
%TO.C,LED234*%
X145541800Y-82897200D03*
X145541800Y-82097200D03*
X144141800Y-82097200D03*
X144141800Y-82897200D03*
%TD*%
%TO.C,LED320*%
X152806200Y-73550000D03*
X152806200Y-72750000D03*
X151406200Y-72750000D03*
X151406200Y-73550000D03*
%TD*%
D14*
%TO.C,R140*%
X-143880000Y-66163000D03*
X-143880000Y-67183000D03*
%TD*%
D17*
%TO.C,R45*%
X-75175000Y-10539000D03*
X-74155000Y-10539000D03*
%TD*%
D11*
%TO.C,LED246*%
X90119000Y5952000D03*
X90119000Y6752000D03*
X88719000Y6752000D03*
X88719000Y5952000D03*
%TD*%
D16*
%TO.C,R58*%
X63892000Y-40894000D03*
X63892000Y-39874000D03*
%TD*%
D11*
%TO.C,LED179*%
X77215800Y-4817600D03*
X77215800Y-4017600D03*
X75815800Y-4017600D03*
X75815800Y-4817600D03*
%TD*%
%TO.C,LED35*%
X-58318600Y29116800D03*
X-58318600Y29916800D03*
X-59718600Y29916800D03*
X-59718600Y29116800D03*
%TD*%
%TO.C,LED328*%
X-173477000Y4952000D03*
X-173477000Y5752000D03*
X-174877000Y5752000D03*
X-174877000Y4952000D03*
%TD*%
%TO.C,LED10*%
X-142951400Y64880000D03*
X-142951400Y65680000D03*
X-144351400Y65680000D03*
X-144351400Y64880000D03*
%TD*%
D20*
%TO.C,C20*%
X151875000Y69725000D03*
X150915000Y69725000D03*
%TD*%
D11*
%TO.C,LED40*%
X-41402200Y21598400D03*
X-41402200Y22398400D03*
X-42802200Y22398400D03*
X-42802200Y21598400D03*
%TD*%
%TO.C,LED189*%
X95910200Y-38802800D03*
X95910200Y-38002800D03*
X94510200Y-38002800D03*
X94510200Y-38802800D03*
%TD*%
D14*
%TO.C,R124*%
X149744000Y54868000D03*
X149744000Y53848000D03*
%TD*%
D11*
%TO.C,LED165*%
X85394600Y37448000D03*
X85394600Y38248000D03*
X83994600Y38248000D03*
X83994600Y37448000D03*
%TD*%
%TO.C,LED194*%
X91084200Y-37329600D03*
X91084200Y-36529600D03*
X89684200Y-36529600D03*
X89684200Y-37329600D03*
%TD*%
%TO.C,LED288*%
X164998200Y1684800D03*
X164998200Y2484800D03*
X163598200Y2484800D03*
X163598200Y1684800D03*
%TD*%
%TO.C,LED265*%
X116789000Y-6087600D03*
X116789000Y-5287600D03*
X115389000Y-5287600D03*
X115389000Y-6087600D03*
%TD*%
%TO.C,LED351*%
X25423000Y58552000D03*
X25423000Y59352000D03*
X24023000Y59352000D03*
X24023000Y58552000D03*
%TD*%
%TO.C,LED114*%
X32969000Y-19244800D03*
X32969000Y-18444800D03*
X31569000Y-18444800D03*
X31569000Y-19244800D03*
%TD*%
%TO.C,LED136*%
X61010600Y30183600D03*
X61010600Y30983600D03*
X59610600Y30983600D03*
X59610600Y30183600D03*
%TD*%
D14*
%TO.C,R123*%
X150506000Y56900000D03*
X150506000Y55880000D03*
%TD*%
D11*
%TO.C,LED80*%
X7873800Y10930400D03*
X7873800Y11730400D03*
X6473800Y11730400D03*
X6473800Y10930400D03*
%TD*%
%TO.C,LED37*%
X-51277000Y27948400D03*
X-51277000Y28748400D03*
X-52677000Y28748400D03*
X-52677000Y27948400D03*
%TD*%
%TO.C,LED254*%
X110794600Y22106400D03*
X110794600Y22906400D03*
X109394600Y22906400D03*
X109394600Y22106400D03*
%TD*%
D16*
%TO.C,R55*%
X57034000Y-42799000D03*
X57034000Y-41779000D03*
%TD*%
D11*
%TO.C,LED73*%
X-18085000Y18398000D03*
X-18085000Y19198000D03*
X-19485000Y19198000D03*
X-19485000Y18398000D03*
%TD*%
%TO.C,LED329*%
X148183400Y-85742000D03*
X148183400Y-84942000D03*
X146783400Y-84942000D03*
X146783400Y-85742000D03*
%TD*%
%TO.C,LED157*%
X60248600Y-17873200D03*
X60248600Y-17073200D03*
X58848600Y-17073200D03*
X58848600Y-17873200D03*
%TD*%
%TO.C,LED161*%
X73964600Y-23664400D03*
X73964600Y-22864400D03*
X72564600Y-22864400D03*
X72564600Y-23664400D03*
%TD*%
%TO.C,LED357*%
X49023000Y61452000D03*
X49023000Y62252000D03*
X47623000Y62252000D03*
X47623000Y61452000D03*
%TD*%
%TO.C,LED396*%
X107498000Y72602000D03*
X107498000Y73402000D03*
X106098000Y73402000D03*
X106098000Y72602000D03*
%TD*%
D16*
%TO.C,R26*%
X-84444000Y2286000D03*
X-84444000Y3306000D03*
%TD*%
D11*
%TO.C,LED88*%
X3403400Y-17111200D03*
X3403400Y-16311200D03*
X2003400Y-16311200D03*
X2003400Y-17111200D03*
%TD*%
%TO.C,LED359*%
X77623000Y-21748000D03*
X77623000Y-20948000D03*
X76223000Y-20948000D03*
X76223000Y-21748000D03*
%TD*%
%TO.C,LED382*%
X111023000Y-71948000D03*
X111023000Y-71148000D03*
X109623000Y-71148000D03*
X109623000Y-71948000D03*
%TD*%
D12*
%TO.C,R107*%
X-125717000Y-80643000D03*
X-126737000Y-80643000D03*
%TD*%
D11*
%TO.C,LED256*%
X117957400Y18804400D03*
X117957400Y19604400D03*
X116557400Y19604400D03*
X116557400Y18804400D03*
%TD*%
%TO.C,LED362*%
X92323000Y-19548000D03*
X92323000Y-18748000D03*
X90923000Y-18748000D03*
X90923000Y-19548000D03*
%TD*%
%TO.C,LED344*%
X-1677000Y55152000D03*
X-1677000Y55952000D03*
X-3077000Y55952000D03*
X-3077000Y55152000D03*
%TD*%
%TO.C,LED411*%
X-163977000Y31652000D03*
X-163977000Y32452000D03*
X-165377000Y32452000D03*
X-165377000Y31652000D03*
%TD*%
%TO.C,LED276*%
X124423000Y-21348000D03*
X124423000Y-20548000D03*
X123023000Y-20548000D03*
X123023000Y-21348000D03*
%TD*%
%TO.C,LED30*%
X-74422200Y39327600D03*
X-74422200Y40127600D03*
X-75822200Y40127600D03*
X-75822200Y39327600D03*
%TD*%
%TO.C,LED226*%
X120395800Y-69333600D03*
X120395800Y-68533600D03*
X118995800Y-68533600D03*
X118995800Y-69333600D03*
%TD*%
%TO.C,LED324*%
X164236200Y-84522800D03*
X164236200Y-83722800D03*
X162836200Y-83722800D03*
X162836200Y-84522800D03*
%TD*%
%TO.C,LED298*%
X136855000Y-30522400D03*
X136855000Y-29722400D03*
X135455000Y-29722400D03*
X135455000Y-30522400D03*
%TD*%
D17*
%TO.C,R151*%
X19413000Y76952000D03*
X20433000Y76952000D03*
%TD*%
D11*
%TO.C,LED414*%
X-176577000Y-66448000D03*
X-176577000Y-65648000D03*
X-177977000Y-65648000D03*
X-177977000Y-66448000D03*
%TD*%
%TO.C,LED236*%
X87579000Y23274800D03*
X87579000Y24074800D03*
X86179000Y24074800D03*
X86179000Y23274800D03*
%TD*%
%TO.C,LED108*%
X44602200Y4682000D03*
X44602200Y5482000D03*
X43202200Y5482000D03*
X43202200Y4682000D03*
%TD*%
%TO.C,LED392*%
X95098000Y64002000D03*
X95098000Y64802000D03*
X93698000Y64802000D03*
X93698000Y64002000D03*
%TD*%
%TO.C,LED134*%
X75031400Y38870400D03*
X75031400Y39670400D03*
X73631400Y39670400D03*
X73631400Y38870400D03*
%TD*%
%TO.C,LED405*%
X139548000Y78977000D03*
X139548000Y79777000D03*
X138148000Y79777000D03*
X138148000Y78977000D03*
%TD*%
%TO.C,LED163*%
X78485800Y40445200D03*
X78485800Y41245200D03*
X77085800Y41245200D03*
X77085800Y40445200D03*
%TD*%
D17*
%TO.C,R145*%
X159013000Y61089000D03*
X160033000Y61089000D03*
%TD*%
D12*
%TO.C,R177*%
X4333000Y83352000D03*
X3313000Y83352000D03*
%TD*%
D11*
%TO.C,LED395*%
X104173000Y70777000D03*
X104173000Y71577000D03*
X102773000Y71577000D03*
X102773000Y70777000D03*
%TD*%
%TO.C,LED289*%
X137261400Y-11421600D03*
X137261400Y-10621600D03*
X135861400Y-10621600D03*
X135861400Y-11421600D03*
%TD*%
D17*
%TO.C,R155*%
X19413000Y73752000D03*
X20433000Y73752000D03*
%TD*%
D12*
%TO.C,R179*%
X4333000Y81752000D03*
X3313000Y81752000D03*
%TD*%
D11*
%TO.C,LED149*%
X63398200Y9508000D03*
X63398200Y10308000D03*
X61998200Y10308000D03*
X61998200Y9508000D03*
%TD*%
D16*
%TO.C,R28*%
X-80634000Y254000D03*
X-80634000Y1274000D03*
%TD*%
D17*
%TO.C,R51*%
X-75175000Y-5967000D03*
X-74155000Y-5967000D03*
%TD*%
D11*
%TO.C,LED384*%
X72698000Y45752000D03*
X72698000Y46552000D03*
X71298000Y46552000D03*
X71298000Y45752000D03*
%TD*%
%TO.C,LED202*%
X97789800Y-65726800D03*
X97789800Y-64926800D03*
X96389800Y-64926800D03*
X96389800Y-65726800D03*
%TD*%
%TO.C,LED393*%
X98023000Y66577000D03*
X98023000Y67377000D03*
X96623000Y67377000D03*
X96623000Y66577000D03*
%TD*%
%TO.C,LED355*%
X42023000Y57852000D03*
X42023000Y58652000D03*
X40623000Y58652000D03*
X40623000Y57852000D03*
%TD*%
%TO.C,LED389*%
X84048000Y60277000D03*
X84048000Y61077000D03*
X82648000Y61077000D03*
X82648000Y60277000D03*
%TD*%
D25*
%TO.C,R115*%
X161174000Y70042000D03*
X161174000Y68392000D03*
%TD*%
D12*
%TO.C,R172*%
X4323000Y75452000D03*
X3303000Y75452000D03*
%TD*%
D11*
%TO.C,LED110*%
X17983000Y-22394400D03*
X17983000Y-21594400D03*
X16583000Y-21594400D03*
X16583000Y-22394400D03*
%TD*%
%TO.C,LED224*%
X144932200Y-72432400D03*
X144932200Y-71632400D03*
X143532200Y-71632400D03*
X143532200Y-72432400D03*
%TD*%
D16*
%TO.C,R30*%
X-82158000Y254000D03*
X-82158000Y1274000D03*
%TD*%
D11*
%TO.C,LED270*%
X133248200Y-11777200D03*
X133248200Y-10977200D03*
X131848200Y-10977200D03*
X131848200Y-11777200D03*
%TD*%
%TO.C,LED63*%
X-21793400Y-8424400D03*
X-21793400Y-7624400D03*
X-23193400Y-7624400D03*
X-23193400Y-8424400D03*
%TD*%
D17*
%TO.C,R91*%
X67065000Y-47623000D03*
X68085000Y-47623000D03*
%TD*%
D11*
%TO.C,LED66*%
X1727000Y31250400D03*
X1727000Y32050400D03*
X327000Y32050400D03*
X327000Y31250400D03*
%TD*%
%TO.C,LED300*%
X141427000Y-36821600D03*
X141427000Y-36021600D03*
X140027000Y-36021600D03*
X140027000Y-36821600D03*
%TD*%
D18*
%TO.C,C12*%
X-80479000Y-12571000D03*
X-79519000Y-12571000D03*
%TD*%
D15*
%TO.C,C10*%
X-150484000Y-69622000D03*
X-150484000Y-70582000D03*
%TD*%
D11*
%TO.C,LED43*%
X-29972200Y19566400D03*
X-29972200Y20366400D03*
X-31372200Y20366400D03*
X-31372200Y19566400D03*
%TD*%
D15*
%TO.C,C13*%
X-88000000Y-10948000D03*
X-88000000Y-11908000D03*
%TD*%
D12*
%TO.C,R16*%
X-87617000Y-3173000D03*
X-88637000Y-3173000D03*
%TD*%
D11*
%TO.C,LED117*%
X44723000Y-18048000D03*
X44723000Y-17248000D03*
X43323000Y-17248000D03*
X43323000Y-18048000D03*
%TD*%
%TO.C,LED285*%
X153720600Y4021600D03*
X153720600Y4821600D03*
X152320600Y4821600D03*
X152320600Y4021600D03*
%TD*%
%TO.C,LED261*%
X131673400Y6815600D03*
X131673400Y7615600D03*
X130273400Y7615600D03*
X130273400Y6815600D03*
%TD*%
%TO.C,LED7*%
X-154889400Y64422800D03*
X-154889400Y65222800D03*
X-156289400Y65222800D03*
X-156289400Y64422800D03*
%TD*%
%TO.C,LED397*%
X110673000Y75577000D03*
X110673000Y76377000D03*
X109273000Y76377000D03*
X109273000Y75577000D03*
%TD*%
D12*
%TO.C,R111*%
X144539000Y66931000D03*
X143519000Y66931000D03*
%TD*%
D11*
%TO.C,LED169*%
X98297800Y29929600D03*
X98297800Y30729600D03*
X96897800Y30729600D03*
X96897800Y29929600D03*
%TD*%
D16*
%TO.C,R61*%
X59320000Y-40894000D03*
X59320000Y-39874000D03*
%TD*%
D17*
%TO.C,R98*%
X69097000Y-56005000D03*
X70117000Y-56005000D03*
%TD*%
D11*
%TO.C,LED39*%
X-44551800Y23986000D03*
X-44551800Y24786000D03*
X-45951800Y24786000D03*
X-45951800Y23986000D03*
%TD*%
%TO.C,LED25*%
X-89509800Y50148000D03*
X-89509800Y50948000D03*
X-90909800Y50948000D03*
X-90909800Y50148000D03*
%TD*%
%TO.C,LED258*%
X125221800Y16112000D03*
X125221800Y16912000D03*
X123821800Y16912000D03*
X123821800Y16112000D03*
%TD*%
%TO.C,LED87*%
X-355800Y-16704800D03*
X-355800Y-15904800D03*
X-1755800Y-15904800D03*
X-1755800Y-16704800D03*
%TD*%
%TO.C,LED164*%
X82448200Y40191200D03*
X82448200Y40991200D03*
X81048200Y40991200D03*
X81048200Y40191200D03*
%TD*%
%TO.C,LED277*%
X128219000Y-22343600D03*
X128219000Y-21543600D03*
X126819000Y-21543600D03*
X126819000Y-22343600D03*
%TD*%
D17*
%TO.C,R54*%
X-73143000Y-12825000D03*
X-72123000Y-12825000D03*
%TD*%
D15*
%TO.C,C17*%
X54240000Y-54763000D03*
X54240000Y-55723000D03*
%TD*%
D11*
%TO.C,LED263*%
X112115400Y160800D03*
X112115400Y960800D03*
X110715400Y960800D03*
X110715400Y160800D03*
%TD*%
D24*
%TO.C,C28*%
X18023000Y79572000D03*
X18023000Y80532000D03*
%TD*%
D11*
%TO.C,LED187*%
X93675000Y-31589200D03*
X93675000Y-30789200D03*
X92275000Y-30789200D03*
X92275000Y-31589200D03*
%TD*%
%TO.C,LED378*%
X110323000Y-52548000D03*
X110323000Y-51748000D03*
X108923000Y-51748000D03*
X108923000Y-52548000D03*
%TD*%
%TO.C,LED122*%
X51866600Y77122800D03*
X51866600Y77922800D03*
X50466600Y77922800D03*
X50466600Y77122800D03*
%TD*%
D19*
%TO.C,R27*%
X-89778000Y-12888000D03*
X-89778000Y-11238000D03*
%TD*%
D11*
%TO.C,LED92*%
X31089400Y32063200D03*
X31089400Y32863200D03*
X29689400Y32863200D03*
X29689400Y32063200D03*
%TD*%
%TO.C,LED102*%
X22148600Y4377200D03*
X22148600Y5177200D03*
X20748600Y5177200D03*
X20748600Y4377200D03*
%TD*%
%TO.C,LED105*%
X33832600Y2751600D03*
X33832600Y3551600D03*
X32432600Y3551600D03*
X32432600Y2751600D03*
%TD*%
%TO.C,LED238*%
X94640200Y20379200D03*
X94640200Y21179200D03*
X93240200Y21179200D03*
X93240200Y20379200D03*
%TD*%
%TO.C,LED120*%
X47904200Y84082400D03*
X47904200Y84882400D03*
X46504200Y84882400D03*
X46504200Y84082400D03*
%TD*%
%TO.C,LED8*%
X-150927000Y64829200D03*
X-150927000Y65629200D03*
X-152327000Y65629200D03*
X-152327000Y64829200D03*
%TD*%
%TO.C,LED213*%
X107848200Y-55008000D03*
X107848200Y-54208000D03*
X106448200Y-54208000D03*
X106448200Y-55008000D03*
%TD*%
%TO.C,LED176*%
X78739800Y10320800D03*
X78739800Y11120800D03*
X77339800Y11120800D03*
X77339800Y10320800D03*
%TD*%
%TO.C,LED158*%
X63906200Y-18127200D03*
X63906200Y-17327200D03*
X62506200Y-17327200D03*
X62506200Y-18127200D03*
%TD*%
%TO.C,LED141*%
X79959000Y28659600D03*
X79959000Y29459600D03*
X78559000Y29459600D03*
X78559000Y28659600D03*
%TD*%
%TO.C,LED331*%
X-47777000Y29952000D03*
X-47777000Y30752000D03*
X-49177000Y30752000D03*
X-49177000Y29952000D03*
%TD*%
%TO.C,LED333*%
X-39877000Y32652000D03*
X-39877000Y33452000D03*
X-41277000Y33452000D03*
X-41277000Y32652000D03*
%TD*%
%TO.C,LED407*%
X137498000Y85852000D03*
X137498000Y86652000D03*
X136098000Y86652000D03*
X136098000Y85852000D03*
%TD*%
%TO.C,LED98*%
X53339800Y30844000D03*
X53339800Y31644000D03*
X51939800Y31644000D03*
X51939800Y30844000D03*
%TD*%
%TO.C,LED62*%
X-24841400Y-6087600D03*
X-24841400Y-5287600D03*
X-26241400Y-5287600D03*
X-26241400Y-6087600D03*
%TD*%
%TO.C,LED353*%
X33923000Y58352000D03*
X33923000Y59152000D03*
X32523000Y59152000D03*
X32523000Y58352000D03*
%TD*%
%TO.C,LED82*%
X-18085000Y-9034000D03*
X-18085000Y-8234000D03*
X-19485000Y-8234000D03*
X-19485000Y-9034000D03*
%TD*%
%TO.C,LED47*%
X-35814200Y31047200D03*
X-35814200Y31847200D03*
X-37214200Y31847200D03*
X-37214200Y31047200D03*
%TD*%
%TO.C,LED11*%
X-139547800Y63356000D03*
X-139547800Y64156000D03*
X-140947800Y64156000D03*
X-140947800Y63356000D03*
%TD*%
D16*
%TO.C,R138*%
X-149341000Y-80391000D03*
X-149341000Y-79371000D03*
%TD*%
D11*
%TO.C,LED230*%
X135889800Y-70654400D03*
X135889800Y-69854400D03*
X134489800Y-69854400D03*
X134489800Y-70654400D03*
%TD*%
%TO.C,LED241*%
X103377800Y12860800D03*
X103377800Y13660800D03*
X101977800Y13660800D03*
X101977800Y12860800D03*
%TD*%
%TO.C,LED282*%
X142036600Y5190000D03*
X142036600Y5990000D03*
X140636600Y5990000D03*
X140636600Y5190000D03*
%TD*%
%TO.C,LED29*%
X-78181400Y39835600D03*
X-78181400Y40635600D03*
X-79581400Y40635600D03*
X-79581400Y39835600D03*
%TD*%
%TO.C,LED178*%
X76911000Y-1160000D03*
X76911000Y-360000D03*
X75511000Y-360000D03*
X75511000Y-1160000D03*
%TD*%
%TO.C,LED145*%
X48310600Y5901200D03*
X48310600Y6701200D03*
X46910600Y6701200D03*
X46910600Y5901200D03*
%TD*%
%TO.C,LED402*%
X130223000Y75277000D03*
X130223000Y76077000D03*
X128823000Y76077000D03*
X128823000Y75277000D03*
%TD*%
%TO.C,LED358*%
X52423000Y63052000D03*
X52423000Y63852000D03*
X51023000Y63852000D03*
X51023000Y63052000D03*
%TD*%
%TO.C,LED192*%
X85801000Y-32757600D03*
X85801000Y-31957600D03*
X84401000Y-31957600D03*
X84401000Y-32757600D03*
%TD*%
D12*
%TO.C,R116*%
X144539000Y60835000D03*
X143519000Y60835000D03*
%TD*%
D14*
%TO.C,R147*%
X-137530000Y-66163000D03*
X-137530000Y-67183000D03*
%TD*%
D11*
%TO.C,LED318*%
X170586200Y-89145600D03*
X170586200Y-88345600D03*
X169186200Y-88345600D03*
X169186200Y-89145600D03*
%TD*%
D16*
%TO.C,R35*%
X-77586000Y254000D03*
X-77586000Y1274000D03*
%TD*%
D11*
%TO.C,LED127*%
X59639000Y60104800D03*
X59639000Y60904800D03*
X58239000Y60904800D03*
X58239000Y60104800D03*
%TD*%
D16*
%TO.C,R56*%
X56272000Y-40894000D03*
X56272000Y-39874000D03*
%TD*%
D12*
%TO.C,R100*%
X146571000Y70741000D03*
X145551000Y70741000D03*
%TD*%
D11*
%TO.C,LED128*%
X60959800Y56193200D03*
X60959800Y56993200D03*
X59559800Y56993200D03*
X59559800Y56193200D03*
%TD*%
D35*
%TO.C,C3*%
X-167362000Y-86104000D03*
X-168912000Y-86104000D03*
%TD*%
D17*
%TO.C,R88*%
X69097000Y-54481000D03*
X70117000Y-54481000D03*
%TD*%
D18*
%TO.C,C11*%
X-80479000Y-13587000D03*
X-79519000Y-13587000D03*
%TD*%
D11*
%TO.C,LED185*%
X88696600Y-25696400D03*
X88696600Y-24896400D03*
X87296600Y-24896400D03*
X87296600Y-25696400D03*
%TD*%
%TO.C,LED278*%
X131775000Y-24426400D03*
X131775000Y-23626400D03*
X130375000Y-23626400D03*
X130375000Y-24426400D03*
%TD*%
D12*
%TO.C,R69*%
X52591000Y-48639000D03*
X51571000Y-48639000D03*
%TD*%
D23*
%TO.C,R4*%
X-164177000Y-67748000D03*
X-165827000Y-67748000D03*
%TD*%
D11*
%TO.C,LED408*%
X136123000Y89402000D03*
X136123000Y90202000D03*
X134723000Y90202000D03*
X134723000Y89402000D03*
%TD*%
%TO.C,LED401*%
X126398000Y75602000D03*
X126398000Y76402000D03*
X124998000Y76402000D03*
X124998000Y75602000D03*
%TD*%
%TO.C,LED216*%
X117093800Y-61916800D03*
X117093800Y-61116800D03*
X115693800Y-61116800D03*
X115693800Y-61916800D03*
%TD*%
D21*
%TO.C,U6*%
X57018000Y-46728000D03*
X57018000Y-47128000D03*
X57018000Y-47528000D03*
X57018000Y-47928000D03*
X57018000Y-48328000D03*
X57018000Y-48728000D03*
X57018000Y-49128000D03*
X57018000Y-49528000D03*
X57018000Y-49928000D03*
X57018000Y-50328000D03*
X57018000Y-50728000D03*
X57018000Y-51128000D03*
X57018000Y-51528000D03*
X57018000Y-51928000D03*
X57018000Y-52328000D03*
D22*
X57663000Y-52973000D03*
X58063000Y-52973000D03*
X58463000Y-52973000D03*
X58863000Y-52973000D03*
X59263000Y-52973000D03*
X59663000Y-52973000D03*
X60063000Y-52973000D03*
X60463000Y-52973000D03*
X60863000Y-52973000D03*
X61263000Y-52973000D03*
X61663000Y-52973000D03*
X62063000Y-52973000D03*
X62463000Y-52973000D03*
X62863000Y-52973000D03*
X63263000Y-52973000D03*
D21*
X63908000Y-52328000D03*
X63908000Y-51928000D03*
X63908000Y-51528000D03*
X63908000Y-51128000D03*
X63908000Y-50728000D03*
X63908000Y-50328000D03*
X63908000Y-49928000D03*
X63908000Y-49528000D03*
X63908000Y-49128000D03*
X63908000Y-48728000D03*
X63908000Y-48328000D03*
X63908000Y-47928000D03*
X63908000Y-47528000D03*
X63908000Y-47128000D03*
X63908000Y-46728000D03*
D22*
X63263000Y-46083000D03*
X62863000Y-46083000D03*
X62463000Y-46083000D03*
X62063000Y-46083000D03*
X61663000Y-46083000D03*
X61263000Y-46083000D03*
X60863000Y-46083000D03*
X60463000Y-46083000D03*
X60063000Y-46083000D03*
X59663000Y-46083000D03*
X59263000Y-46083000D03*
X58863000Y-46083000D03*
X58463000Y-46083000D03*
X58063000Y-46083000D03*
X57663000Y-46083000D03*
%TD*%
D14*
%TO.C,R128*%
X158126000Y56900000D03*
X158126000Y55880000D03*
%TD*%
D11*
%TO.C,LED188*%
X95707000Y-34789600D03*
X95707000Y-33989600D03*
X94307000Y-33989600D03*
X94307000Y-34789600D03*
%TD*%
D23*
%TO.C,R1*%
X-164186801Y-64748000D03*
X-165836801Y-64748000D03*
%TD*%
D11*
%TO.C,LED81*%
X11836200Y10219200D03*
X11836200Y11019200D03*
X10436200Y11019200D03*
X10436200Y10219200D03*
%TD*%
D16*
%TO.C,R60*%
X62368000Y-40894000D03*
X62368000Y-39874000D03*
%TD*%
D17*
%TO.C,R6*%
X-174870000Y-84199000D03*
X-173850000Y-84199000D03*
%TD*%
D11*
%TO.C,LED38*%
X-48006200Y25967200D03*
X-48006200Y26767200D03*
X-49406200Y26767200D03*
X-49406200Y25967200D03*
%TD*%
%TO.C,LED347*%
X10523000Y55652000D03*
X10523000Y56452000D03*
X9123000Y56452000D03*
X9123000Y55652000D03*
%TD*%
D12*
%TO.C,R181*%
X4333000Y80152000D03*
X3313000Y80152000D03*
%TD*%
D11*
%TO.C,LED69*%
X11836200Y34044400D03*
X11836200Y34844400D03*
X10436200Y34844400D03*
X10436200Y34044400D03*
%TD*%
D12*
%TO.C,R139*%
X-125717000Y-73023000D03*
X-126737000Y-73023000D03*
%TD*%
%TO.C,R62*%
X-125717000Y-79373000D03*
X-126737000Y-79373000D03*
%TD*%
D17*
%TO.C,R90*%
X69097000Y-48385000D03*
X70117000Y-48385000D03*
%TD*%
D11*
%TO.C,LED103*%
X26060200Y4123200D03*
X26060200Y4923200D03*
X24660200Y4923200D03*
X24660200Y4123200D03*
%TD*%
%TO.C,LED243*%
X108711800Y7018800D03*
X108711800Y7818800D03*
X107311800Y7818800D03*
X107311800Y7018800D03*
%TD*%
%TO.C,LED315*%
X168706600Y516400D03*
X168706600Y1316400D03*
X167306600Y1316400D03*
X167306600Y516400D03*
%TD*%
D16*
%TO.C,R67*%
X57796000Y-40894000D03*
X57796000Y-39874000D03*
%TD*%
D11*
%TO.C,LED77*%
X-3200600Y13978400D03*
X-3200600Y14778400D03*
X-4600600Y14778400D03*
X-4600600Y13978400D03*
%TD*%
%TO.C,LED340*%
X-16777000Y49752000D03*
X-16777000Y50552000D03*
X-18177000Y50552000D03*
X-18177000Y49752000D03*
%TD*%
%TO.C,LED299*%
X138683800Y-33976800D03*
X138683800Y-33176800D03*
X137283800Y-33176800D03*
X137283800Y-33976800D03*
%TD*%
%TO.C,LED227*%
X124510600Y-69333600D03*
X124510600Y-68533600D03*
X123110600Y-68533600D03*
X123110600Y-69333600D03*
%TD*%
D12*
%TO.C,R104*%
X146571000Y69217000D03*
X145551000Y69217000D03*
%TD*%
D14*
%TO.C,R21*%
X-134990000Y-66163000D03*
X-134990000Y-67183000D03*
%TD*%
D11*
%TO.C,LED348*%
X14523000Y55952000D03*
X14523000Y56752000D03*
X13123000Y56752000D03*
X13123000Y55952000D03*
%TD*%
%TO.C,LED156*%
X56235400Y-18025600D03*
X56235400Y-17225600D03*
X54835400Y-17225600D03*
X54835400Y-18025600D03*
%TD*%
D15*
%TO.C,C14*%
X-86857000Y-10948000D03*
X-86857000Y-11908000D03*
%TD*%
D17*
%TO.C,R47*%
X-75175000Y-9015000D03*
X-74155000Y-9015000D03*
%TD*%
D16*
%TO.C,R29*%
X-81396000Y2286000D03*
X-81396000Y3306000D03*
%TD*%
D11*
%TO.C,LED206*%
X112623400Y-69079600D03*
X112623400Y-68279600D03*
X111223400Y-68279600D03*
X111223400Y-69079600D03*
%TD*%
D16*
%TO.C,R79*%
X65416000Y-40894000D03*
X65416000Y-39874000D03*
%TD*%
D17*
%TO.C,R96*%
X69097000Y-57529000D03*
X70117000Y-57529000D03*
%TD*%
D11*
%TO.C,LED319*%
X167081000Y-87266000D03*
X167081000Y-86466000D03*
X165681000Y-86466000D03*
X165681000Y-87266000D03*
%TD*%
%TO.C,LED68*%
X9499400Y31402800D03*
X9499400Y32202800D03*
X8099400Y32202800D03*
X8099400Y31402800D03*
%TD*%
%TO.C,LED363*%
X96623000Y-19148000D03*
X96623000Y-18348000D03*
X95223000Y-18348000D03*
X95223000Y-19148000D03*
%TD*%
D14*
%TO.C,R163*%
X12523000Y68052000D03*
X12523000Y67032000D03*
%TD*%
D11*
%TO.C,LED342*%
X-9177000Y52252000D03*
X-9177000Y53052000D03*
X-10577000Y53052000D03*
X-10577000Y52252000D03*
%TD*%
%TO.C,LED58*%
X-33934600Y6206000D03*
X-33934600Y7006000D03*
X-35334600Y7006000D03*
X-35334600Y6206000D03*
%TD*%
%TO.C,LED36*%
X-54864200Y27288000D03*
X-54864200Y28088000D03*
X-56264200Y28088000D03*
X-56264200Y27288000D03*
%TD*%
D16*
%TO.C,R77*%
X60082000Y-42926000D03*
X60082000Y-41906000D03*
%TD*%
D11*
%TO.C,LED60*%
X-28397400Y668800D03*
X-28397400Y1468800D03*
X-29797400Y1468800D03*
X-29797400Y668800D03*
%TD*%
%TO.C,LED400*%
X122523000Y75927000D03*
X122523000Y76727000D03*
X121123000Y76727000D03*
X121123000Y75927000D03*
%TD*%
%TO.C,LED95*%
X43027400Y31809200D03*
X43027400Y32609200D03*
X41627400Y32609200D03*
X41627400Y31809200D03*
%TD*%
D12*
%TO.C,R187*%
X4333000Y84952000D03*
X3313000Y84952000D03*
%TD*%
D11*
%TO.C,LED115*%
X36982200Y-19041600D03*
X36982200Y-18241600D03*
X35582200Y-18241600D03*
X35582200Y-19041600D03*
%TD*%
%TO.C,LED290*%
X141173000Y-11370800D03*
X141173000Y-10570800D03*
X139773000Y-10570800D03*
X139773000Y-11370800D03*
%TD*%
D16*
%TO.C,R78*%
X66178000Y-42926000D03*
X66178000Y-41906000D03*
%TD*%
D12*
%TO.C,R118*%
X144539000Y62359000D03*
X143519000Y62359000D03*
%TD*%
D11*
%TO.C,LED144*%
X80162200Y32622000D03*
X80162200Y33422000D03*
X78762200Y33422000D03*
X78762200Y32622000D03*
%TD*%
%TO.C,LED313*%
X175869400Y-1261600D03*
X175869400Y-461600D03*
X174469400Y-461600D03*
X174469400Y-1261600D03*
%TD*%
D12*
%TO.C,R15*%
X-89649000Y-3935000D03*
X-90669000Y-3935000D03*
%TD*%
D11*
%TO.C,LED42*%
X-33934600Y19668000D03*
X-33934600Y20468000D03*
X-35334600Y20468000D03*
X-35334600Y19668000D03*
%TD*%
%TO.C,LED203*%
X101091800Y-68114400D03*
X101091800Y-67314400D03*
X99691800Y-67314400D03*
X99691800Y-68114400D03*
%TD*%
%TO.C,LED291*%
X145186200Y-11320000D03*
X145186200Y-10520000D03*
X143786200Y-10520000D03*
X143786200Y-11320000D03*
%TD*%
%TO.C,LED309*%
X164744200Y-57344800D03*
X164744200Y-56544800D03*
X163344200Y-56544800D03*
X163344200Y-57344800D03*
%TD*%
D17*
%TO.C,R89*%
X67065000Y-53719000D03*
X68085000Y-53719000D03*
%TD*%
%TO.C,R95*%
X67065000Y-52195000D03*
X68085000Y-52195000D03*
%TD*%
D11*
%TO.C,LED23*%
X-96164600Y53653200D03*
X-96164600Y54453200D03*
X-97564600Y54453200D03*
X-97564600Y53653200D03*
%TD*%
%TO.C,LED75*%
X-10414200Y16518400D03*
X-10414200Y17318400D03*
X-11814200Y17318400D03*
X-11814200Y16518400D03*
%TD*%
D16*
%TO.C,R32*%
X-79110000Y254000D03*
X-79110000Y1274000D03*
%TD*%
D11*
%TO.C,LED244*%
X82448200Y6053600D03*
X82448200Y6853600D03*
X81048200Y6853600D03*
X81048200Y6053600D03*
%TD*%
%TO.C,LED323*%
X161340600Y-81779600D03*
X161340600Y-80979600D03*
X159940600Y-80979600D03*
X159940600Y-81779600D03*
%TD*%
D17*
%TO.C,R49*%
X-75175000Y-7491000D03*
X-74155000Y-7491000D03*
%TD*%
D11*
%TO.C,LED253*%
X106883000Y22716000D03*
X106883000Y23516000D03*
X105483000Y23516000D03*
X105483000Y22716000D03*
%TD*%
%TO.C,LED339*%
X-19977000Y47252000D03*
X-19977000Y48052000D03*
X-21377000Y48052000D03*
X-21377000Y47252000D03*
%TD*%
D12*
%TO.C,R117*%
X146571000Y61597000D03*
X145551000Y61597000D03*
%TD*%
D36*
%TO.C,SW2*%
X-152337000Y-74238000D03*
X-158537000Y-74238000D03*
X-152337000Y-70538000D03*
X-158537000Y-70538000D03*
%TD*%
D17*
%TO.C,R94*%
X69097000Y-52957000D03*
X70117000Y-52957000D03*
%TD*%
D12*
%TO.C,R103*%
X144539000Y68455000D03*
X143519000Y68455000D03*
%TD*%
D14*
%TO.C,R120*%
X148220000Y54868000D03*
X148220000Y53848000D03*
%TD*%
D11*
%TO.C,LED217*%
X121107000Y-62018400D03*
X121107000Y-61218400D03*
X119707000Y-61218400D03*
X119707000Y-62018400D03*
%TD*%
D21*
%TO.C,U12*%
X16568000Y73952000D03*
X16568000Y74352000D03*
X16568000Y74752000D03*
X16568000Y75152000D03*
X16568000Y75552000D03*
X16568000Y75952000D03*
X16568000Y76352000D03*
X16568000Y76752000D03*
X16568000Y77152000D03*
X16568000Y77552000D03*
X16568000Y77952000D03*
X16568000Y78352000D03*
X16568000Y78752000D03*
X16568000Y79152000D03*
X16568000Y79552000D03*
D22*
X15923000Y80197000D03*
X15523000Y80197000D03*
X15123000Y80197000D03*
X14723000Y80197000D03*
X14323000Y80197000D03*
X13923000Y80197000D03*
X13523000Y80197000D03*
X13123000Y80197000D03*
X12723000Y80197000D03*
X12323000Y80197000D03*
X11923000Y80197000D03*
X11523000Y80197000D03*
X11123000Y80197000D03*
X10723000Y80197000D03*
X10323000Y80197000D03*
D21*
X9678000Y79552000D03*
X9678000Y79152000D03*
X9678000Y78752000D03*
X9678000Y78352000D03*
X9678000Y77952000D03*
X9678000Y77552000D03*
X9678000Y77152000D03*
X9678000Y76752000D03*
X9678000Y76352000D03*
X9678000Y75952000D03*
X9678000Y75552000D03*
X9678000Y75152000D03*
X9678000Y74752000D03*
X9678000Y74352000D03*
X9678000Y73952000D03*
D22*
X10323000Y73307000D03*
X10723000Y73307000D03*
X11123000Y73307000D03*
X11523000Y73307000D03*
X11923000Y73307000D03*
X12323000Y73307000D03*
X12723000Y73307000D03*
X13123000Y73307000D03*
X13523000Y73307000D03*
X13923000Y73307000D03*
X14323000Y73307000D03*
X14723000Y73307000D03*
X15123000Y73307000D03*
X15523000Y73307000D03*
X15923000Y73307000D03*
%TD*%
D11*
%TO.C,LED100*%
X15239800Y8339600D03*
X15239800Y9139600D03*
X13839800Y9139600D03*
X13839800Y8339600D03*
%TD*%
D12*
%TO.C,R173*%
X6323000Y74652000D03*
X5303000Y74652000D03*
%TD*%
D11*
%TO.C,LED27*%
X-83972600Y45271200D03*
X-83972600Y46071200D03*
X-85372600Y46071200D03*
X-85372600Y45271200D03*
%TD*%
D17*
%TO.C,R146*%
X161045000Y60327000D03*
X162065000Y60327000D03*
%TD*%
D11*
%TO.C,LED210*%
X98145400Y-49521600D03*
X98145400Y-48721600D03*
X96745400Y-48721600D03*
X96745400Y-49521600D03*
%TD*%
%TO.C,LED338*%
X-23677000Y45052000D03*
X-23677000Y45852000D03*
X-25077000Y45852000D03*
X-25077000Y45052000D03*
%TD*%
D14*
%TO.C,R169*%
X8523000Y70052000D03*
X8523000Y69032000D03*
%TD*%
D11*
%TO.C,LED180*%
X77774600Y-8830800D03*
X77774600Y-8030800D03*
X76374600Y-8030800D03*
X76374600Y-8830800D03*
%TD*%
D36*
%TO.C,SW1*%
X-152337000Y-81858000D03*
X-158537000Y-81858000D03*
X-152337000Y-78158000D03*
X-158537000Y-78158000D03*
%TD*%
D11*
%TO.C,LED262*%
X111048600Y4021600D03*
X111048600Y4821600D03*
X109648600Y4821600D03*
X109648600Y4021600D03*
%TD*%
%TO.C,LED93*%
X35102600Y32012400D03*
X35102600Y32812400D03*
X33702600Y32812400D03*
X33702600Y32012400D03*
%TD*%
%TO.C,LED79*%
X4165400Y11844800D03*
X4165400Y12644800D03*
X2765400Y12644800D03*
X2765400Y11844800D03*
%TD*%
%TO.C,LED177*%
X78231800Y2497600D03*
X78231800Y3297600D03*
X76831800Y3297600D03*
X76831800Y2497600D03*
%TD*%
%TO.C,LED17*%
X-117856200Y60765200D03*
X-117856200Y61565200D03*
X-119256200Y61565200D03*
X-119256200Y60765200D03*
%TD*%
D16*
%TO.C,R36*%
X-76824000Y2286000D03*
X-76824000Y3306000D03*
%TD*%
D17*
%TO.C,R41*%
X-73143000Y-2157000D03*
X-72123000Y-2157000D03*
%TD*%
D11*
%TO.C,LED281*%
X138023400Y5190000D03*
X138023400Y5990000D03*
X136623400Y5990000D03*
X136623400Y5190000D03*
%TD*%
%TO.C,LED369*%
X111323000Y-21948000D03*
X111323000Y-21148000D03*
X109923000Y-21148000D03*
X109923000Y-21948000D03*
%TD*%
%TO.C,LED99*%
X57048200Y30488400D03*
X57048200Y31288400D03*
X55648200Y31288400D03*
X55648200Y30488400D03*
%TD*%
%TO.C,LED360*%
X81223000Y-20548000D03*
X81223000Y-19748000D03*
X79823000Y-19748000D03*
X79823000Y-20548000D03*
%TD*%
%TO.C,LED186*%
X90830200Y-28947600D03*
X90830200Y-28147600D03*
X89430200Y-28147600D03*
X89430200Y-28947600D03*
%TD*%
%TO.C,LED410*%
X-168177000Y27452000D03*
X-168177000Y28252000D03*
X-169577000Y28252000D03*
X-169577000Y27452000D03*
%TD*%
D16*
%TO.C,R24*%
X-82920000Y2286000D03*
X-82920000Y3306000D03*
%TD*%
D14*
%TO.C,R148*%
X-136260000Y-66163000D03*
X-136260000Y-67183000D03*
%TD*%
D11*
%TO.C,LED91*%
X27177800Y32114000D03*
X27177800Y32914000D03*
X25777800Y32914000D03*
X25777800Y32114000D03*
%TD*%
D17*
%TO.C,R37*%
X-73143000Y-5205000D03*
X-72123000Y-5205000D03*
%TD*%
D11*
%TO.C,LED84*%
X-11481000Y-12539200D03*
X-11481000Y-11739200D03*
X-12881000Y-11739200D03*
X-12881000Y-12539200D03*
%TD*%
D18*
%TO.C,C15*%
X61761000Y-56767000D03*
X62721000Y-56767000D03*
%TD*%
D11*
%TO.C,LED190*%
X80416200Y-26763200D03*
X80416200Y-25963200D03*
X79016200Y-25963200D03*
X79016200Y-26763200D03*
%TD*%
%TO.C,LED260*%
X130657400Y10473200D03*
X130657400Y11273200D03*
X129257400Y11273200D03*
X129257400Y10473200D03*
%TD*%
%TO.C,LED200*%
X92963800Y-60951600D03*
X92963800Y-60151600D03*
X91563800Y-60151600D03*
X91563800Y-60951600D03*
%TD*%
D16*
%TO.C,R59*%
X63130000Y-42926000D03*
X63130000Y-41906000D03*
%TD*%
D11*
%TO.C,LED264*%
X113741000Y-3242800D03*
X113741000Y-2442800D03*
X112341000Y-2442800D03*
X112341000Y-3242800D03*
%TD*%
%TO.C,LED106*%
X37490200Y2904000D03*
X37490200Y3704000D03*
X36090200Y3704000D03*
X36090200Y2904000D03*
%TD*%
D12*
%TO.C,R19*%
X-125717000Y-75563000D03*
X-126737000Y-75563000D03*
%TD*%
D11*
%TO.C,LED207*%
X116585800Y-69028800D03*
X116585800Y-68228800D03*
X115185800Y-68228800D03*
X115185800Y-69028800D03*
%TD*%
%TO.C,LED399*%
X119098000Y77402000D03*
X119098000Y78202000D03*
X117698000Y78202000D03*
X117698000Y77402000D03*
%TD*%
D12*
%TO.C,R127*%
X146571000Y60073000D03*
X145551000Y60073000D03*
%TD*%
D17*
%TO.C,R87*%
X67065000Y-55243000D03*
X68085000Y-55243000D03*
%TD*%
D11*
%TO.C,LED240*%
X100634600Y15654800D03*
X100634600Y16454800D03*
X99234600Y16454800D03*
X99234600Y15654800D03*
%TD*%
D21*
%TO.C,U5*%
X-85222000Y-3548000D03*
X-85222000Y-3948000D03*
X-85222000Y-4348000D03*
X-85222000Y-4748000D03*
X-85222000Y-5148000D03*
X-85222000Y-5548000D03*
X-85222000Y-5948000D03*
X-85222000Y-6348000D03*
X-85222000Y-6748000D03*
X-85222000Y-7148000D03*
X-85222000Y-7548000D03*
X-85222000Y-7948000D03*
X-85222000Y-8348000D03*
X-85222000Y-8748000D03*
X-85222000Y-9148000D03*
D22*
X-84577000Y-9793000D03*
X-84177000Y-9793000D03*
X-83777000Y-9793000D03*
X-83377000Y-9793000D03*
X-82977000Y-9793000D03*
X-82577000Y-9793000D03*
X-82177000Y-9793000D03*
X-81777000Y-9793000D03*
X-81377000Y-9793000D03*
X-80977000Y-9793000D03*
X-80577000Y-9793000D03*
X-80177000Y-9793000D03*
X-79777000Y-9793000D03*
X-79377000Y-9793000D03*
X-78977000Y-9793000D03*
D21*
X-78332000Y-9148000D03*
X-78332000Y-8748000D03*
X-78332000Y-8348000D03*
X-78332000Y-7948000D03*
X-78332000Y-7548000D03*
X-78332000Y-7148000D03*
X-78332000Y-6748000D03*
X-78332000Y-6348000D03*
X-78332000Y-5948000D03*
X-78332000Y-5548000D03*
X-78332000Y-5148000D03*
X-78332000Y-4748000D03*
X-78332000Y-4348000D03*
X-78332000Y-3948000D03*
X-78332000Y-3548000D03*
D22*
X-78977000Y-2903000D03*
X-79377000Y-2903000D03*
X-79777000Y-2903000D03*
X-80177000Y-2903000D03*
X-80577000Y-2903000D03*
X-80977000Y-2903000D03*
X-81377000Y-2903000D03*
X-81777000Y-2903000D03*
X-82177000Y-2903000D03*
X-82577000Y-2903000D03*
X-82977000Y-2903000D03*
X-83377000Y-2903000D03*
X-83777000Y-2903000D03*
X-84177000Y-2903000D03*
X-84577000Y-2903000D03*
%TD*%
D17*
%TO.C,R2*%
X-174997000Y-77595000D03*
X-173977000Y-77595000D03*
%TD*%
%TO.C,R53*%
X-75175000Y-13587000D03*
X-74155000Y-13587000D03*
%TD*%
D11*
%TO.C,LED373*%
X110923000Y-34948000D03*
X110923000Y-34148000D03*
X109523000Y-34148000D03*
X109523000Y-34948000D03*
%TD*%
%TO.C,LED273*%
X117449400Y-14520400D03*
X117449400Y-13720400D03*
X116049400Y-13720400D03*
X116049400Y-14520400D03*
%TD*%
%TO.C,LED292*%
X149097800Y-11269200D03*
X149097800Y-10469200D03*
X147697800Y-10469200D03*
X147697800Y-11269200D03*
%TD*%
D14*
%TO.C,R165*%
X9323000Y68052000D03*
X9323000Y67032000D03*
%TD*%
D11*
%TO.C,LED130*%
X63906200Y48827200D03*
X63906200Y49627200D03*
X62506200Y49627200D03*
X62506200Y48827200D03*
%TD*%
D12*
%TO.C,R68*%
X54623000Y-47877000D03*
X53603000Y-47877000D03*
%TD*%
D37*
%TO.C,F2*%
X-123977000Y-68248000D03*
X-126777000Y-68248000D03*
%TD*%
D11*
%TO.C,LED404*%
X137248000Y75927000D03*
X137248000Y76727000D03*
X135848000Y76727000D03*
X135848000Y75927000D03*
%TD*%
%TO.C,LED237*%
X90677800Y21344400D03*
X90677800Y22144400D03*
X89277800Y22144400D03*
X89277800Y21344400D03*
%TD*%
%TO.C,LED250*%
X101904600Y-3547600D03*
X101904600Y-2747600D03*
X100504600Y-2747600D03*
X100504600Y-3547600D03*
%TD*%
%TO.C,LED143*%
X87020200Y31402800D03*
X87020200Y32202800D03*
X85620200Y32202800D03*
X85620200Y31402800D03*
%TD*%
%TO.C,LED167*%
X90677800Y31555200D03*
X90677800Y32355200D03*
X89277800Y32355200D03*
X89277800Y31555200D03*
%TD*%
%TO.C,LED175*%
X77876200Y14080000D03*
X77876200Y14880000D03*
X76476200Y14880000D03*
X76476200Y14080000D03*
%TD*%
%TO.C,LED228*%
X128523800Y-69333600D03*
X128523800Y-68533600D03*
X127123800Y-68533600D03*
X127123800Y-69333600D03*
%TD*%
%TO.C,LED12*%
X-136093400Y61933600D03*
X-136093400Y62733600D03*
X-137493400Y62733600D03*
X-137493400Y61933600D03*
%TD*%
%TO.C,LED390*%
X87473000Y62027000D03*
X87473000Y62827000D03*
X86073000Y62827000D03*
X86073000Y62027000D03*
%TD*%
%TO.C,LED365*%
X104823000Y-18548000D03*
X104823000Y-17748000D03*
X103423000Y-17748000D03*
X103423000Y-18548000D03*
%TD*%
%TO.C,LED337*%
X-26877000Y42552000D03*
X-26877000Y43352000D03*
X-28277000Y43352000D03*
X-28277000Y42552000D03*
%TD*%
D12*
%TO.C,R185*%
X4323000Y77052000D03*
X3303000Y77052000D03*
%TD*%
D11*
%TO.C,LED205*%
X108610200Y-69181200D03*
X108610200Y-68381200D03*
X107210200Y-68381200D03*
X107210200Y-69181200D03*
%TD*%
%TO.C,LED235*%
X84988200Y26170400D03*
X84988200Y26970400D03*
X83588200Y26970400D03*
X83588200Y26170400D03*
%TD*%
%TO.C,LED403*%
X133998000Y74227000D03*
X133998000Y75027000D03*
X132598000Y75027000D03*
X132598000Y74227000D03*
%TD*%
D16*
%TO.C,R23*%
X-86730000Y254000D03*
X-86730000Y1274000D03*
%TD*%
D11*
%TO.C,LED247*%
X94081400Y5494800D03*
X94081400Y6294800D03*
X92681400Y6294800D03*
X92681400Y5494800D03*
%TD*%
%TO.C,LED267*%
X121615000Y-11777200D03*
X121615000Y-10977200D03*
X120215000Y-10977200D03*
X120215000Y-11777200D03*
%TD*%
%TO.C,LED343*%
X-5277000Y53552000D03*
X-5277000Y54352000D03*
X-6677000Y54352000D03*
X-6677000Y53552000D03*
%TD*%
D16*
%TO.C,R80*%
X64654000Y-42926000D03*
X64654000Y-41906000D03*
%TD*%
D11*
%TO.C,LED356*%
X45623000Y59452000D03*
X45623000Y60252000D03*
X44223000Y60252000D03*
X44223000Y59452000D03*
%TD*%
%TO.C,LED89*%
X7315000Y-17771600D03*
X7315000Y-16971600D03*
X5915000Y-16971600D03*
X5915000Y-17771600D03*
%TD*%
%TO.C,LED193*%
X88290200Y-35602400D03*
X88290200Y-34802400D03*
X86890200Y-34802400D03*
X86890200Y-35602400D03*
%TD*%
%TO.C,LED28*%
X-81077000Y42782000D03*
X-81077000Y43582000D03*
X-82477000Y43582000D03*
X-82477000Y42782000D03*
%TD*%
D32*
%TO.C,D2*%
X-178218500Y-73658000D03*
X-176343500Y-73658000D03*
%TD*%
D11*
%TO.C,LED121*%
X49682200Y80577200D03*
X49682200Y81377200D03*
X48282200Y81377200D03*
X48282200Y80577200D03*
%TD*%
D17*
%TO.C,R152*%
X21413000Y76152000D03*
X22433000Y76152000D03*
%TD*%
D11*
%TO.C,LED242*%
X106121000Y10016000D03*
X106121000Y10816000D03*
X104721000Y10816000D03*
X104721000Y10016000D03*
%TD*%
D17*
%TO.C,R86*%
X67065000Y-49147000D03*
X68085000Y-49147000D03*
%TD*%
D11*
%TO.C,LED170*%
X101904600Y28100800D03*
X101904600Y28900800D03*
X100504600Y28900800D03*
X100504600Y28100800D03*
%TD*%
D14*
%TO.C,R132*%
X155078000Y56900000D03*
X155078000Y55880000D03*
%TD*%
D24*
%TO.C,C29*%
X-149341000Y-78202000D03*
X-149341000Y-77242000D03*
%TD*%
D11*
%TO.C,LED252*%
X107238600Y-8475200D03*
X107238600Y-7675200D03*
X105838600Y-7675200D03*
X105838600Y-8475200D03*
%TD*%
D17*
%TO.C,R5*%
X-174870000Y-81024000D03*
X-173850000Y-81024000D03*
%TD*%
D12*
%TO.C,R188*%
X6333000Y84152000D03*
X5313000Y84152000D03*
%TD*%
D38*
%TO.C,F1*%
X-174106000Y-85847000D03*
X-174106000Y-88647000D03*
%TD*%
D17*
%TO.C,R97*%
X67065000Y-56767000D03*
X68085000Y-56767000D03*
%TD*%
D11*
%TO.C,LED118*%
X42621000Y89721200D03*
X42621000Y90521200D03*
X41221000Y90521200D03*
X41221000Y89721200D03*
%TD*%
%TO.C,LED377*%
X110023000Y-48948000D03*
X110023000Y-48148000D03*
X108623000Y-48148000D03*
X108623000Y-48948000D03*
%TD*%
%TO.C,LED132*%
X69494200Y44102800D03*
X69494200Y44902800D03*
X68094200Y44902800D03*
X68094200Y44102800D03*
%TD*%
%TO.C,LED162*%
X77423000Y-24748000D03*
X77423000Y-23948000D03*
X76023000Y-23948000D03*
X76023000Y-24748000D03*
%TD*%
%TO.C,LED96*%
X46583400Y30437600D03*
X46583400Y31237600D03*
X45183400Y31237600D03*
X45183400Y30437600D03*
%TD*%
D14*
%TO.C,R160*%
X14923000Y70052000D03*
X14923000Y69032000D03*
%TD*%
D11*
%TO.C,LED219*%
X128523800Y-64355200D03*
X128523800Y-63555200D03*
X127123800Y-63555200D03*
X127123800Y-64355200D03*
%TD*%
D16*
%TO.C,R25*%
X-83682000Y254000D03*
X-83682000Y1274000D03*
%TD*%
D31*
%TO.C,D1*%
X-180532200Y-90168000D03*
X-177585800Y-90168000D03*
%TD*%
D11*
%TO.C,LED279*%
X134315000Y-27474400D03*
X134315000Y-26674400D03*
X132915000Y-26674400D03*
X132915000Y-27474400D03*
%TD*%
D17*
%TO.C,R38*%
X-75175000Y-4443000D03*
X-74155000Y-4443000D03*
%TD*%
D11*
%TO.C,LED191*%
X83362600Y-29506400D03*
X83362600Y-28706400D03*
X81962600Y-28706400D03*
X81962600Y-29506400D03*
%TD*%
D16*
%TO.C,R22*%
X-85968000Y2286000D03*
X-85968000Y3306000D03*
%TD*%
D11*
%TO.C,LED302*%
X145592600Y-43679600D03*
X145592600Y-42879600D03*
X144192600Y-42879600D03*
X144192600Y-43679600D03*
%TD*%
D12*
%TO.C,R113*%
X144539000Y63883000D03*
X143519000Y63883000D03*
%TD*%
D11*
%TO.C,LED16*%
X-121767800Y60460400D03*
X-121767800Y61260400D03*
X-123167800Y61260400D03*
X-123167800Y60460400D03*
%TD*%
%TO.C,LED301*%
X143408200Y-40326800D03*
X143408200Y-39526800D03*
X142008200Y-39526800D03*
X142008200Y-40326800D03*
%TD*%
%TO.C,LED59*%
X-30734200Y3818400D03*
X-30734200Y4618400D03*
X-32134200Y4618400D03*
X-32134200Y3818400D03*
%TD*%
%TO.C,LED412*%
X-159677000Y27452000D03*
X-159677000Y28252000D03*
X-161077000Y28252000D03*
X-161077000Y27452000D03*
%TD*%
%TO.C,LED131*%
X66090600Y46134800D03*
X66090600Y46934800D03*
X64690600Y46934800D03*
X64690600Y46134800D03*
%TD*%
D12*
%TO.C,R65*%
X-125717000Y-83183000D03*
X-126737000Y-83183000D03*
%TD*%
D17*
%TO.C,R50*%
X-73143000Y-6729000D03*
X-72123000Y-6729000D03*
%TD*%
%TO.C,R48*%
X-73143000Y-8253000D03*
X-72123000Y-8253000D03*
%TD*%
D11*
%TO.C,LED18*%
X-113893800Y60562000D03*
X-113893800Y61362000D03*
X-115293800Y61362000D03*
X-115293800Y60562000D03*
%TD*%
%TO.C,LED325*%
X-176577000Y-63848000D03*
X-176577000Y-63048000D03*
X-177977000Y-63048000D03*
X-177977000Y-63848000D03*
%TD*%
%TO.C,LED32*%
X-68935800Y33688800D03*
X-68935800Y34488800D03*
X-70335800Y34488800D03*
X-70335800Y33688800D03*
%TD*%
%TO.C,LED34*%
X-61722200Y30894800D03*
X-61722200Y31694800D03*
X-63122200Y31694800D03*
X-63122200Y30894800D03*
%TD*%
D12*
%TO.C,R184*%
X6323000Y77852000D03*
X5303000Y77852000D03*
%TD*%
D14*
%TO.C,R136*%
X152030000Y56900000D03*
X152030000Y55880000D03*
%TD*%
D11*
%TO.C,LED48*%
X-32715400Y28507200D03*
X-32715400Y29307200D03*
X-34115400Y29307200D03*
X-34115400Y28507200D03*
%TD*%
%TO.C,LED305*%
X155041400Y-50791600D03*
X155041400Y-49991600D03*
X153641400Y-49991600D03*
X153641400Y-50791600D03*
%TD*%
D12*
%TO.C,R63*%
X-125717000Y-78103000D03*
X-126737000Y-78103000D03*
%TD*%
%TO.C,R99*%
X144539000Y69979000D03*
X143519000Y69979000D03*
%TD*%
D11*
%TO.C,LED197*%
X91135000Y-49318400D03*
X91135000Y-48518400D03*
X89735000Y-48518400D03*
X89735000Y-49318400D03*
%TD*%
%TO.C,LED67*%
X5740200Y31301200D03*
X5740200Y32101200D03*
X4340200Y32101200D03*
X4340200Y31301200D03*
%TD*%
%TO.C,LED171*%
X103936600Y24798800D03*
X103936600Y25598800D03*
X102536600Y25598800D03*
X102536600Y24798800D03*
%TD*%
D14*
%TO.C,R159*%
X14123000Y68052000D03*
X14123000Y67032000D03*
%TD*%
D12*
%TO.C,R73*%
X54623000Y-46353000D03*
X53603000Y-46353000D03*
%TD*%
D14*
%TO.C,R134*%
X153554000Y56900000D03*
X153554000Y55880000D03*
%TD*%
D11*
%TO.C,LED52*%
X-17831000Y28253200D03*
X-17831000Y29053200D03*
X-19231000Y29053200D03*
X-19231000Y28253200D03*
%TD*%
%TO.C,LED303*%
X148437400Y-46321200D03*
X148437400Y-45521200D03*
X147037400Y-45521200D03*
X147037400Y-46321200D03*
%TD*%
D14*
%TO.C,R157*%
X17323000Y68052000D03*
X17323000Y67032000D03*
%TD*%
D11*
%TO.C,LED199*%
X92405000Y-57090800D03*
X92405000Y-56290800D03*
X91005000Y-56290800D03*
X91005000Y-57090800D03*
%TD*%
%TO.C,LED21*%
X-103022600Y57310800D03*
X-103022600Y58110800D03*
X-104422600Y58110800D03*
X-104422600Y57310800D03*
%TD*%
%TO.C,LED218*%
X125069400Y-62729600D03*
X125069400Y-61929600D03*
X123669400Y-61929600D03*
X123669400Y-62729600D03*
%TD*%
D17*
%TO.C,R153*%
X21413000Y72952000D03*
X22433000Y72952000D03*
%TD*%
%TO.C,R43*%
X-75175000Y-12063000D03*
X-74155000Y-12063000D03*
%TD*%
D11*
%TO.C,LED2*%
X-174498200Y65438800D03*
X-174498200Y66238800D03*
X-175898200Y66238800D03*
X-175898200Y65438800D03*
%TD*%
D12*
%TO.C,R178*%
X6333000Y82552000D03*
X5313000Y82552000D03*
%TD*%
D16*
%TO.C,R33*%
X-79872000Y2286000D03*
X-79872000Y3306000D03*
%TD*%
D11*
%TO.C,LED90*%
X11328200Y-18432000D03*
X11328200Y-17632000D03*
X9928200Y-17632000D03*
X9928200Y-18432000D03*
%TD*%
D39*
%TO.C,U1*%
X-163957999Y-74498001D03*
X-163957999Y-73848000D03*
X-163957999Y-73197999D03*
X-163957999Y-72548000D03*
X-163957999Y-71898001D03*
X-163957999Y-71248000D03*
X-163957999Y-70598001D03*
X-169596001Y-70597999D03*
X-169596001Y-71248000D03*
X-169596001Y-71897999D03*
X-169596001Y-72548000D03*
X-169596001Y-73197999D03*
X-169596001Y-73848000D03*
X-169596001Y-74497999D03*
%TD*%
D11*
%TO.C,LED370*%
X110923000Y-25148000D03*
X110923000Y-24348000D03*
X109523000Y-24348000D03*
X109523000Y-25148000D03*
%TD*%
%TO.C,LED109*%
X14985800Y-19956000D03*
X14985800Y-19156000D03*
X13585800Y-19156000D03*
X13585800Y-19956000D03*
%TD*%
D17*
%TO.C,R154*%
X21413000Y74552000D03*
X22433000Y74552000D03*
%TD*%
D11*
%TO.C,LED54*%
X-9906200Y28304000D03*
X-9906200Y29104000D03*
X-11306200Y29104000D03*
X-11306200Y28304000D03*
%TD*%
%TO.C,LED209*%
X95605400Y-46880000D03*
X95605400Y-46080000D03*
X94205400Y-46080000D03*
X94205400Y-46880000D03*
%TD*%
%TO.C,LED225*%
X149148600Y-72483200D03*
X149148600Y-71683200D03*
X147748600Y-71683200D03*
X147748600Y-72483200D03*
%TD*%
%TO.C,LED198*%
X91490600Y-53280800D03*
X91490600Y-52480800D03*
X90090600Y-52480800D03*
X90090600Y-53280800D03*
%TD*%
%TO.C,LED304*%
X151739400Y-48607200D03*
X151739400Y-47807200D03*
X150339400Y-47807200D03*
X150339400Y-48607200D03*
%TD*%
%TO.C,LED135*%
X77571400Y35466800D03*
X77571400Y36266800D03*
X76171400Y36266800D03*
X76171400Y35466800D03*
%TD*%
%TO.C,LED51*%
X-21793400Y28202400D03*
X-21793400Y29002400D03*
X-23193400Y29002400D03*
X-23193400Y28202400D03*
%TD*%
D12*
%TO.C,R13*%
X-89649000Y-5459000D03*
X-90669000Y-5459000D03*
%TD*%
D11*
%TO.C,LED33*%
X-65481400Y31860000D03*
X-65481400Y32660000D03*
X-66881400Y32660000D03*
X-66881400Y31860000D03*
%TD*%
D17*
%TO.C,R109*%
X161045000Y61851000D03*
X162065000Y61851000D03*
%TD*%
D11*
%TO.C,LED345*%
X2423000Y55652000D03*
X2423000Y56452000D03*
X1023000Y56452000D03*
X1023000Y55652000D03*
%TD*%
D40*
%TO.C,U2*%
X-171033000Y-88376000D03*
X-171033000Y-90676000D03*
D41*
X-164733000Y-90676000D03*
D40*
X-171033000Y-92976000D03*
%TD*%
D11*
%TO.C,LED123*%
X53746200Y73566800D03*
X53746200Y74366800D03*
X52346200Y74366800D03*
X52346200Y73566800D03*
%TD*%
%TO.C,LED232*%
X140563400Y-77258400D03*
X140563400Y-76458400D03*
X139163400Y-76458400D03*
X139163400Y-77258400D03*
%TD*%
%TO.C,LED124*%
X53644600Y69604400D03*
X53644600Y70404400D03*
X52244600Y70404400D03*
X52244600Y69604400D03*
%TD*%
%TO.C,LED26*%
X-86868200Y47303200D03*
X-86868200Y48103200D03*
X-88268200Y48103200D03*
X-88268200Y47303200D03*
%TD*%
%TO.C,LED166*%
X88087000Y34501600D03*
X88087000Y35301600D03*
X86687000Y35301600D03*
X86687000Y34501600D03*
%TD*%
%TO.C,LED196*%
X91135000Y-45254400D03*
X91135000Y-44454400D03*
X89735000Y-44454400D03*
X89735000Y-45254400D03*
%TD*%
%TO.C,LED364*%
X100623000Y-18948000D03*
X100623000Y-18148000D03*
X99223000Y-18148000D03*
X99223000Y-18948000D03*
%TD*%
D14*
%TO.C,R166*%
X10123000Y70052000D03*
X10123000Y69032000D03*
%TD*%
D11*
%TO.C,LED354*%
X38023000Y56852000D03*
X38023000Y57652000D03*
X36623000Y57652000D03*
X36623000Y56852000D03*
%TD*%
D14*
%TO.C,R121*%
X147458000Y56900000D03*
X147458000Y55880000D03*
%TD*%
D11*
%TO.C,LED233*%
X143103400Y-79747600D03*
X143103400Y-78947600D03*
X141703400Y-78947600D03*
X141703400Y-79747600D03*
%TD*%
%TO.C,LED119*%
X45161000Y86927200D03*
X45161000Y87727200D03*
X43761000Y87727200D03*
X43761000Y86927200D03*
%TD*%
%TO.C,LED72*%
X23223000Y32452000D03*
X23223000Y33252000D03*
X21823000Y33252000D03*
X21823000Y32452000D03*
%TD*%
%TO.C,LED204*%
X104647800Y-69435200D03*
X104647800Y-68635200D03*
X103247800Y-68635200D03*
X103247800Y-69435200D03*
%TD*%
%TO.C,LED352*%
X29723000Y57752000D03*
X29723000Y58552000D03*
X28323000Y58552000D03*
X28323000Y57752000D03*
%TD*%
%TO.C,LED133*%
X72542200Y41715200D03*
X72542200Y42515200D03*
X71142200Y42515200D03*
X71142200Y41715200D03*
%TD*%
%TO.C,LED231*%
X138734600Y-73702400D03*
X138734600Y-72902400D03*
X137334600Y-72902400D03*
X137334600Y-73702400D03*
%TD*%
%TO.C,LED349*%
X18323000Y56452000D03*
X18323000Y57252000D03*
X16923000Y57252000D03*
X16923000Y56452000D03*
%TD*%
%TO.C,LED140*%
X76199800Y29015200D03*
X76199800Y29815200D03*
X74799800Y29815200D03*
X74799800Y29015200D03*
%TD*%
%TO.C,LED321*%
X155498600Y-76191600D03*
X155498600Y-75391600D03*
X154098600Y-75391600D03*
X154098600Y-76191600D03*
%TD*%
M02*
