M48
; DRILL file {KiCad 8.0.4} date 2025-01-21T20:17:32-0800
; FORMAT={-:-/ absolute / metric / decimal}
; #@! TF.CreationDate,2025-01-21T20:17:32-08:00
; #@! TF.GenerationSoftware,Kicad,Pcbnew,8.0.4
; #@! TF.FileFunction,Plated,1,4,PTH
FMAT,2
METRIC
; #@! TA.AperFunction,Plated,PTH,ViaDrill
T1C0.300
; #@! TA.AperFunction,Plated,PTH,ComponentDrill
T2C0.300
; #@! TA.AperFunction,Plated,PTH,ComponentDrill
T3C0.600
; #@! TA.AperFunction,Plated,PTH,ComponentDrill
T4C0.762
%
G90
G05
T1
X3.3Y-159.7
X3.3Y-162.8
X3.9Y-30.2
X4.2Y-157.4
X4.325Y-26.0
X4.325Y-28.05
X4.425Y-159.75
X4.455Y-160.409
X4.475Y-164.675
X4.55Y-162.45
X4.55Y-163.11
X5.7Y-24.5
X5.725Y-26.0
X5.725Y-28.05
X5.838Y-154.8
X6.361Y-155.389
X6.725Y-157.2
X6.8Y-89.0
X6.843Y-155.84
X7.263Y-160.085
X7.475Y-28.375
X7.475Y-30.45
X7.6Y-89.6
X7.6Y-90.4
X7.775Y-160.875
X7.8Y-155.5
X7.8Y-164.3
X7.8Y-181.9
X7.825Y-161.7
X7.9Y-158.1
X8.3Y-174.2
X8.3Y-189.1
X8.763Y-188.228
X8.8Y-162.7
X8.8Y-163.8
X8.875Y-28.375
X8.875Y-30.45
X10.287Y-175.768
X10.318Y-28.371
X10.5Y-33.3
X10.598Y-90.014
X11.0Y-88.0
X11.263Y-89.956
X11.5Y-29.5
X11.5Y-31.8
X11.6Y-167.7
X11.684Y-166.37
X11.684Y-168.91
X11.8Y-93.4
X11.9Y-90.5
X12.2Y-181.5
X12.25Y-65.0
X12.264Y-61.575
X12.875Y-29.475
X12.9Y-31.55
X13.208Y-180.594
X13.4Y-69.8
X13.6Y-63.3
X13.775Y-68.525
X13.825Y-66.3
X14.4Y-65.3
X14.9Y-90.5
X14.9Y-159.9
X15.2Y-30.65
X15.2Y-32.725
X15.2Y-68.6
X15.225Y-66.325
X15.3Y-88.1
X16.3Y-72.7
X16.5Y-176.6
X16.5Y-179.0
X16.51Y-177.45
X16.51Y-178.15
X16.6Y-30.65
X16.6Y-32.725
X16.63Y-89.974
X16.8Y-62.6
X17.018Y-181.254
X17.082Y-89.493
X17.9Y-182.2
X17.975Y-64.375
X18.0Y-61.925
X18.0Y-70.4
X18.05Y-72.775
X19.15Y-30.7
X19.175Y-32.8
X19.2Y-27.5
X19.3Y-72.75
X19.35Y-62.075
X19.35Y-70.425
X19.4Y-64.325
X20.0Y-34.8
X20.0Y-89.474
X20.55Y-30.7
X20.558Y-90.042
X20.575Y-32.775
X21.1Y-72.2
X21.6Y-90.3
X21.999Y-88.715
X22.275Y-68.525
X22.3Y-66.15
X22.819Y-91.724
X23.0Y-65.2
X23.075Y-29.975
X23.1Y-32.1
X23.248Y-88.27
X23.3Y-70.0
X23.3Y-92.7
X23.522Y-90.0
X23.7Y-66.275
X23.725Y-68.5
X24.223Y-89.977
X24.247Y-92.087
X24.475Y-29.975
X24.475Y-32.075
X24.889Y-89.911
X25.169Y-88.231
X25.727Y-91.473
X25.769Y-88.831
X26.3Y-88.212
X26.675Y-89.475
X26.7Y-90.275
X26.718Y-91.017
X27.075Y-31.475
X27.1Y-29.325
X27.9Y-29.1
X28.3Y-33.6
X28.5Y-29.375
X28.5Y-31.475
X28.9Y-159.9
X29.7Y-90.275
X29.775Y-89.475
X30.2Y-88.7
X31.05Y-28.975
X31.05Y-31.075
X31.472Y-92.106
X32.249Y-91.743
X32.45Y-28.975
X32.45Y-31.05
X32.8Y-91.38
X33.6Y-182.7
X34.036Y-181.254
X34.7Y-33.7
X34.796Y-174.623
X34.9Y-173.4
X35.025Y-28.75
X35.025Y-30.875
X36.4Y-28.725
X36.4Y-30.9
X37.138Y-30.263
X37.8Y-31.1
X38.0Y-160.9
X38.6Y-26.601
X38.737Y-161.415
X39.05Y-28.875
X39.05Y-31.0
X39.5Y-166.5
X39.535Y-165.646
X40.4Y-31.0
X40.425Y-28.9
X41.321Y-28.598
X41.7Y-33.4
X42.425Y-32.575
X42.475Y-30.425
X43.825Y-32.55
X43.85Y-30.425
X44.8Y-160.4
X45.214Y-161.415
X45.85Y-33.95
X45.875Y-31.875
X45.885Y-165.646
X46.5Y-166.6
X47.155Y-165.646
X47.275Y-31.85
X47.3Y-33.975
X48.0Y-35.8
X48.3Y-39.0
X48.425Y-165.646
X49.1Y-166.4
X49.325Y-33.975
X49.325Y-36.1
X49.4Y-38.5
X49.695Y-165.646
X50.078Y-36.602
X50.419Y-161.417
X50.75Y-33.975
X50.75Y-36.075
X50.8Y-160.5
X50.8Y-166.5
X51.062Y-28.964
X51.562Y-166.085
X51.562Y-166.785
X51.75Y-34.0
X51.75Y-34.925
X52.0Y-172.5
X52.0Y-174.5
X52.0Y-179.2
X52.1Y-176.4
X52.235Y-163.36
X52.818Y-28.49
X53.1Y-163.2
X53.376Y-27.979
X53.875Y-35.75
X53.888Y-33.6
X55.626Y-168.34
X55.626Y-169.61
X55.626Y-170.88
X55.626Y-172.15
X55.626Y-173.42
X55.626Y-174.69
X55.626Y-175.96
X55.626Y-177.23
X55.626Y-178.5
X55.626Y-179.77
X56.3Y-31.9
X56.425Y-35.175
X56.45Y-33.025
X57.66Y-166.3
X57.8Y-32.63
X57.9Y-35.2
X58.6Y-179.6
X58.7Y-166.0
X58.7Y-171.7
X58.8Y-169.4
X59.4Y-165.3
X59.4Y-181.3
X60.175Y-35.45
X60.225Y-33.275
X61.1Y-180.594
X61.1Y-181.4
X61.6Y-33.25
X61.6Y-35.475
X64.1Y-32.975
X64.125Y-35.15
X65.55Y-32.975
X65.575Y-35.175
X66.472Y-34.569
X68.075Y-33.125
X68.103Y-36.602
X68.15Y-35.4
X69.4Y-35.425
X69.45Y-33.175
X69.9Y-27.3
X70.996Y-27.747
X71.702Y-27.938
X71.75Y-34.025
X71.825Y-36.25
X72.65Y-29.658
X72.65Y-34.0
X73.15Y-36.275
X74.1Y-29.2
X74.5Y-38.2
X74.675Y-35.875
X74.744Y-36.531
X77.6Y-37.8
X77.625Y-35.725
X77.815Y-36.357
X79.05Y-36.325
X79.15Y-38.675
X79.8Y-34.2
X80.125Y-36.375
X80.15Y-38.675
X81.373Y-39.192
X81.6Y-35.1
X81.9Y-39.75
X82.825Y-37.725
X83.6Y-105.1
X83.6Y-112.3
X83.7Y-95.8
X83.825Y-37.775
X84.675Y-107.075
X84.8Y-113.4
X85.0Y-39.0
X85.5Y-94.3
X85.825Y-42.3
X85.95Y-39.95
X86.2Y-114.9
X86.24Y-109.195
X86.315Y-91.885
X86.6Y-87.9
X86.913Y-88.785
X86.977Y-91.823
X87.15Y-42.325
X87.25Y-40.0
X87.3Y-115.9
X87.582Y-88.838
X87.6Y-114.2
X87.617Y-109.761
X87.626Y-108.652
X87.629Y-113.09
X87.63Y-110.871
X87.63Y-111.981
X87.708Y-91.832
X87.918Y-43.417
X87.95Y-42.725
X88.138Y-109.207
X88.138Y-110.316
X88.138Y-111.426
X88.138Y-112.535
X88.2Y-113.602
X88.2Y-114.8
X88.4Y-91.8
X88.425Y-88.838
X88.6Y-183.0
X89.0Y-182.0
X89.192Y-88.838
X89.2Y-90.9
X89.908Y-88.838
X90.424Y-105.664
X90.825Y-44.275
X90.9Y-42.8
X90.9Y-87.9
X91.1Y-115.7
X91.3Y-107.8
X91.313Y-105.664
X91.5Y-102.0
X91.6Y-113.6
X91.6Y-114.26
X91.6Y-114.92
X91.675Y-44.65
X92.075Y-97.663
X92.075Y-99.187
X92.075Y-100.711
X92.3Y-96.7
X92.6Y-51.6
X92.7Y-43.375
X92.9Y-48.7
X92.9Y-182.1
X93.1Y-54.0
X93.12Y-178.185
X93.12Y-180.594
X93.218Y-98.425
X93.218Y-99.949
X93.218Y-101.473
X93.361Y-40.513
X93.8Y-43.425
X93.8Y-51.6
X93.8Y-85.0
X94.2Y-104.1
X94.5Y-115.2
X94.632Y-52.211
X94.643Y-106.2
X94.7Y-39.9
X94.7Y-45.075
X94.7Y-178.1
X94.8Y-182.3
X94.904Y-84.006
X94.911Y-51.539
X95.25Y-102.235
X95.378Y-84.978
X95.429Y-51.948
X95.5Y-46.25
X95.575Y-48.7
X95.8Y-91.5
X95.89Y-84.467
X95.9Y-82.8
X95.947Y-52.466
X96.084Y-53.145
X96.2Y-44.075
X96.2Y-46.2
X96.4Y-103.8
X96.622Y-102.438
X96.647Y-92.456
X96.74Y-53.259
X96.952Y-101.778
X97.155Y-102.997
X97.35Y-48.875
X97.4Y-47.2
X97.409Y-91.313
X98.171Y-92.456
X98.933Y-91.313
X99.175Y-50.825
X99.4Y-48.4
X99.695Y-92.456
X100.175Y-49.525
X100.175Y-51.55
X100.33Y-100.33
X100.33Y-101.6
X100.33Y-102.87
X100.457Y-91.313
X101.2Y-49.1
X101.219Y-92.456
X101.312Y-54.991
X101.312Y-55.651
X101.6Y-100.33
X101.6Y-101.6
X101.6Y-102.87
X101.981Y-91.313
X102.0Y-53.275
X102.25Y-50.85
X102.398Y-58.428
X102.743Y-92.456
X102.87Y-100.33
X102.87Y-101.6
X102.87Y-102.87
X102.87Y-109.601
X102.9Y-59.7
X103.075Y-52.025
X103.352Y-47.487
X103.505Y-91.313
X103.7Y-109.9
X103.9Y-64.942
X104.009Y-59.853
X104.2Y-64.1
X104.25Y-53.725
X104.267Y-92.456
X104.45Y-56.125
X104.5Y-49.5
X104.7Y-46.1
X104.9Y-63.5
X105.029Y-91.313
X105.035Y-82.94
X105.035Y-83.6
X105.035Y-84.4
X105.1Y-85.8
X105.1Y-88.1
X105.2Y-53.725
X105.2Y-81.9
X105.791Y-92.456
X105.835Y-51.365
X105.95Y-55.675
X105.977Y-52.231
X106.2Y-49.7
X106.4Y-65.2
X106.553Y-91.313
X106.85Y-55.675
X107.2Y-65.2
X107.315Y-92.456
X108.1Y-54.325
X108.1Y-60.8
X108.1Y-93.0
X108.4Y-65.5
X108.825Y-56.775
X108.975Y-54.35
X109.725Y-57.65
X110.744Y-96.647
X110.744Y-98.171
X110.744Y-99.695
X110.744Y-101.219
X110.744Y-102.743
X110.744Y-104.267
X110.744Y-105.791
X110.744Y-107.315
X110.744Y-108.839
X110.9Y-110.6
X111.2Y-95.9
X111.325Y-59.3
X111.887Y-97.409
X111.887Y-98.933
X111.887Y-100.457
X111.887Y-101.981
X111.887Y-103.505
X111.887Y-105.029
X111.887Y-106.553
X111.887Y-108.077
X111.887Y-109.601
X112.125Y-56.85
X112.25Y-60.6
X112.5Y-108.8
X112.675Y-58.025
X113.8Y-53.7
X113.842Y-62.403
X114.007Y-97.8
X114.278Y-58.538
X114.5Y-62.35
X114.667Y-97.8
X115.15Y-60.45
X115.327Y-97.8
X115.573Y-62.887
X116.2Y-97.8
X116.7Y-61.775
X116.975Y-64.2
X117.7Y-61.725
X117.875Y-64.2
X120.325Y-65.15
X120.45Y-62.75
X121.5Y-68.2
X121.575Y-62.75
X121.65Y-65.15
X122.875Y-65.8
X124.0Y-64.5
X124.475Y-66.95
X124.852Y-63.421
X125.0Y-64.55
X125.781Y-60.644
X126.7Y-59.9
X127.15Y-68.825
X127.225Y-66.325
X128.275Y-66.3
X128.475Y-68.725
X130.1Y-73.6
X130.65Y-65.475
X130.75Y-68.1
X132.075Y-68.1
X132.9Y-66.4
X133.2Y-69.6
X133.975Y-70.1
X134.0Y-67.675
X134.2Y-66.1
X134.225Y-63.675
X134.6Y-62.5
X135.3Y-70.125
X135.35Y-67.7
X135.575Y-66.1
X135.6Y-63.675
X136.44Y-65.41
X136.7Y-73.8
X137.164Y-64.292
X137.45Y-69.625
X137.475Y-72.075
X137.789Y-75.291
X137.983Y-72.919
X138.3Y-65.35
X138.35Y-62.85
X138.8Y-69.625
X138.825Y-72.1
X139.725Y-65.325
X139.725Y-72.85
X139.75Y-62.875
X139.775Y-73.675
X141.8Y-56.6
X142.075Y-60.975
X142.375Y-63.475
X142.375Y-69.113
X142.6Y-82.6
X142.775Y-72.6
X142.775Y-73.425
X142.8Y-80.1
X143.0Y-90.8
X143.2Y-60.9
X143.55Y-63.475
X144.0Y-73.6
X144.0Y-76.0
X144.6Y-76.999
X144.825Y-82.125
X144.975Y-81.325
X144.975Y-85.3
X145.0Y-86.1
X145.35Y-64.175
X145.425Y-76.025
X145.45Y-73.675
X145.55Y-58.65
X145.6Y-61.2
X145.618Y-71.163
X145.75Y-79.15
X146.1Y-68.4
X146.48Y-65.788
X146.55Y-58.55
X146.6Y-62.575
X146.9Y-61.175
X147.15Y-76.7
X147.175Y-79.1
X147.575Y-62.525
X147.6Y-56.9
X147.8Y-60.6
X147.975Y-89.95
X148.0Y-73.975
X148.0Y-76.4
X148.05Y-82.15
X148.05Y-85.275
X148.1Y-81.4
X148.125Y-86.125
X148.2Y-49.9
X148.45Y-64.075
X148.475Y-65.95
X148.68Y-76.273
X148.7Y-89.95
X148.75Y-87.35
X148.8Y-56.025
X149.25Y-58.6
X149.375Y-67.525
X149.45Y-73.975
X149.5Y-76.425
X149.6Y-87.275
X150.0Y-56.025
X150.0Y-72.4
X150.1Y-58.55
X150.188Y-75.047
X150.375Y-91.5
X150.425Y-90.65
X150.5Y-62.4
X150.5Y-94.6
X150.525Y-65.125
X150.917Y-56.261
X151.19Y-63.97
X151.475Y-66.625
X152.025Y-74.1
X152.05Y-76.475
X152.075Y-53.625
X152.35Y-56.1
X152.45Y-66.175
X152.675Y-94.6
X152.725Y-76.397
X152.725Y-93.825
X153.075Y-68.55
X153.35Y-53.65
X153.375Y-66.175
X153.4Y-56.125
X153.4Y-74.075
X153.4Y-76.5
X153.55Y-91.425
X153.575Y-90.65
X153.6Y-72.9
X153.875Y-68.6
X154.0Y-57.3
X154.5Y-62.6
X154.615Y-60.477
X154.875Y-92.925
X154.925Y-97.075
X154.95Y-97.9
X155.075Y-51.0
X155.2Y-79.1
X155.332Y-62.928
X155.7Y-53.525
X155.825Y-74.425
X155.875Y-94.35
X155.9Y-45.6
X155.925Y-76.725
X155.975Y-51.05
X156.2Y-65.425
X156.225Y-100.475
X156.25Y-101.275
X156.3Y-67.75
X156.55Y-53.525
X156.742Y-71.163
X157.0Y-107.3
X157.325Y-76.675
X157.35Y-74.35
X157.5Y-84.0
X157.55Y-67.7
X157.6Y-65.3
X158.075Y-97.925
X158.125Y-97.05
X158.3Y-48.525
X158.675Y-51.025
X159.0Y-89.1
X159.2Y-76.8
X159.3Y-95.1
X159.3Y-103.325
X159.425Y-101.25
X159.45Y-100.525
X159.475Y-48.575
X159.725Y-51.075
X159.9Y-74.85
X160.175Y-65.45
X160.3Y-67.775
X160.419Y-82.335
X160.7Y-102.075
X161.1Y-53.5
X161.25Y-74.925
X161.327Y-83.283
X161.575Y-102.0
X161.6Y-65.475
X161.625Y-67.825
X161.9Y-46.275
X161.9Y-104.35
X162.0Y-76.8
X162.45Y-48.9
X162.8Y-46.3
X162.9Y-76.875
X163.05Y-104.275
X163.1Y-39.9
X163.296Y-81.4
X163.375Y-48.925
X163.825Y-75.15
X163.875Y-102.575
X164.1Y-50.6
X164.175Y-65.425
X164.25Y-67.75
X164.5Y-85.7
X164.975Y-75.2
X165.2Y-105.1
X165.25Y-102.625
X165.375Y-46.375
X165.525Y-67.825
X165.525Y-77.65
X165.55Y-43.925
X165.55Y-65.475
X166.45Y-43.9
X166.55Y-46.325
X166.949Y-86.388
X166.994Y-58.769
X167.3Y-100.7
X167.85Y-77.85
X167.9Y-75.5
X167.95Y-107.175
X168.125Y-65.4
X168.15Y-67.775
X168.2Y-104.8
X168.875Y-42.425
X169.1Y-44.875
X169.1Y-84.2
X169.2Y-36.5
X169.25Y-75.525
X169.25Y-77.8
X169.325Y-106.0
X169.4Y-105.0
X169.5Y-65.475
X169.575Y-67.7
X169.6Y-94.1
X169.675Y-108.025
X169.9Y-47.5
X170.025Y-42.325
X170.3Y-44.875
X170.5Y-106.15
X170.6Y-90.6
X170.675Y-78.825
X171.0Y-80.5
X171.779Y-51.361
X171.825Y-106.225
X171.925Y-108.475
X172.025Y-65.2
X172.175Y-77.175
X172.2Y-103.5
X172.3Y-68.0
X172.85Y-79.475
X172.925Y-41.375
X173.0Y-43.8
X173.2Y-75.9
X173.425Y-109.025
X173.45Y-65.275
X173.575Y-67.825
X173.675Y-77.55
X174.025Y-43.775
X174.15Y-41.35
X174.2Y-107.55
X174.388Y-87.275
X174.95Y-80.775
X175.025Y-78.35
X175.55Y-107.55
X175.6Y-109.775
X175.975Y-66.975
X176.075Y-64.725
X176.325Y-78.425
X176.375Y-80.775
X176.5Y-117.1
X176.775Y-40.075
X176.925Y-42.525
X176.925Y-110.8
X177.4Y-48.0
X177.425Y-66.975
X177.475Y-64.675
X177.55Y-40.075
X177.725Y-109.475
X177.9Y-36.373
X178.05Y-42.5
X178.2Y-72.5
X178.264Y-39.05
X178.264Y-54.91
X178.264Y-59.306
X178.4Y-82.05
X178.7Y-103.9
X179.05Y-109.5
X179.1Y-111.75
X179.4Y-79.7
X179.418Y-42.151
X179.525Y-82.025
X180.0Y-66.2
X180.125Y-63.825
X180.294Y-43.269
X180.325Y-38.525
X180.325Y-40.875
X180.725Y-79.8
X181.025Y-49.483
X181.45Y-63.925
X181.5Y-66.225
X181.55Y-83.875
X181.6Y-34.9
X181.65Y-110.4
X181.65Y-112.625
X181.725Y-38.525
X181.725Y-40.875
X182.003Y-51.874
X182.7Y-67.0
X182.825Y-83.875
X182.85Y-81.625
X182.975Y-110.475
X183.0Y-19.0
X183.028Y-38.2
X183.6Y-24.8
X183.725Y-64.85
X183.775Y-62.3
X183.9Y-44.9
X183.975Y-112.25
X184.375Y-82.025
X184.375Y-92.651
X184.4Y-38.075
X184.4Y-40.35
X184.5Y-8.7
X184.5Y-20.8
X184.587Y-70.39
X185.1Y-61.136
X185.1Y-62.325
X185.125Y-64.8
X185.35Y-110.775
X185.425Y-113.125
X185.775Y-38.05
X185.8Y-40.4
X185.9Y-10.3
X185.9Y-11.9
X185.9Y-13.5
X185.9Y-15.1
X185.9Y-16.6
X185.9Y-18.2
X185.9Y-19.8
X185.9Y-21.4
X185.9Y-23.0
X186.0Y-71.1
X186.125Y-81.7
X186.175Y-84.2
X186.5Y-24.6
X186.75Y-97.528
X186.75Y-110.875
X186.75Y-113.075
X187.2Y-8.6
X187.2Y-9.5
X187.2Y-11.1
X187.2Y-12.7
X187.2Y-14.3
X187.2Y-15.9
X187.2Y-17.4
X187.2Y-19.0
X187.2Y-20.6
X187.2Y-22.2
X187.2Y-23.8
X187.425Y-81.85
X187.5Y-73.7
X187.525Y-84.15
X187.75Y-62.35
X187.75Y-64.8
X187.8Y-24.7
X188.242Y-44.008
X188.242Y-60.477
X188.4Y-31.7
X188.5Y-37.825
X188.525Y-40.15
X188.9Y-34.2
X189.125Y-64.75
X189.15Y-62.35
X189.275Y-111.5
X189.3Y-101.4
X189.3Y-113.675
X189.4Y-42.4
X189.575Y-85.1
X189.654Y-45.411
X189.715Y-46.654
X189.875Y-40.2
X189.9Y-27.1
X189.9Y-37.8
X190.1Y-35.287
X190.4Y-25.9
X190.425Y-82.675
X190.6Y-85.125
X190.64Y-42.96
X190.675Y-113.7
X190.7Y-111.5
X190.8Y-8.5
X190.8Y-37.4
X190.9Y-31.8
X191.1Y-29.0
X191.288Y-38.1
X191.412Y-32.312
X191.45Y-82.7
X191.475Y-64.75
X191.5Y-62.225
X191.7Y-46.5
X191.9Y-27.7
X192.0Y-32.9
X192.0Y-37.6
X192.059Y-42.312
X192.5Y-40.375
X192.525Y-38.1
X192.7Y-33.412
X192.8Y-29.0
X192.8Y-42.312
X192.875Y-62.15
X192.9Y-64.725
X192.925Y-61.225
X193.212Y-34.135
X193.275Y-112.2
X193.35Y-114.375
X193.5Y-27.7
X193.5Y-83.45
X193.8Y-9.0
X193.8Y-59.65
X193.85Y-40.4
X193.9Y-85.85
X193.95Y-38.025
X194.3Y-29.0
X194.469Y-36.6
X194.6Y-9.7
X194.675Y-112.2
X194.8Y-114.375
X195.088Y-37.0
X195.1Y-27.7
X195.2Y-85.875
X195.213Y-59.65
X195.275Y-62.025
X195.3Y-17.7
X195.3Y-19.3
X195.4Y-11.8
X195.688Y-36.6
X195.775Y-83.35
X195.9Y-29.0
X196.0Y-114.8
X196.2Y-37.513
X196.525Y-40.05
X196.7Y-27.7
X196.9Y-44.865
X197.008Y-64.178
X197.05Y-113.675
X197.4Y-17.7
X197.4Y-19.2
X197.45Y-59.375
X197.45Y-61.725
X197.5Y-29.0
X197.875Y-85.375
X197.9Y-37.513
X197.925Y-40.1
X197.925Y-87.6
X198.0Y-36.2
X198.15Y-113.65
X198.3Y-27.7
X198.4Y-122.2
X198.589Y-35.903
X198.7Y-87.825
X198.784Y-37.702
X198.8Y-41.888
X198.85Y-59.325
X198.888Y-37.051
X198.95Y-61.775
X198.962Y-35.358
X199.1Y-29.0
X199.1Y-85.35
X199.175Y-114.8
X199.419Y-41.505
X199.8Y-33.1
X199.9Y-27.7
X200.1Y-56.6
X200.3Y-13.5
X200.4Y-32.4
X200.5Y-53.3
X200.5Y-86.0
X200.686Y-43.494
X200.7Y-29.0
X200.75Y-118.45
X200.775Y-116.05
X200.776Y-39.776
X200.9Y-63.9
X201.075Y-87.85
X201.075Y-89.95
X201.2Y-102.0
X201.4Y-18.388
X201.425Y-118.45
X201.5Y-27.7
X201.525Y-59.65
X201.6Y-62.2
X201.7Y-37.225
X201.7Y-39.575
X201.775Y-116.025
X202.125Y-17.985
X202.5Y-33.199
X202.625Y-88.1
X202.7Y-8.2
X202.8Y-29.5
X202.825Y-89.0
X202.95Y-62.15
X203.0Y-51.361
X203.0Y-59.7
X203.25Y-15.375
X203.353Y-105.018
X203.464Y-80.359
X203.507Y-23.266
X203.625Y-117.7
X203.65Y-115.35
X203.962Y-8.288
X203.967Y-11.358
X203.981Y-10.335
X203.989Y-9.312
X204.075Y-89.275
X204.1Y-12.381
X204.15Y-36.8
X204.2Y-24.7
X204.2Y-28.3
X204.2Y-91.675
X204.275Y-39.225
X204.55Y-10.846
X204.56Y-11.87
X204.564Y-8.8
X204.565Y-9.823
X204.728Y-106.851
X204.925Y-115.3
X204.975Y-117.725
X205.0Y-78.6
X205.1Y-74.7
X205.163Y-23.284
X205.2Y-59.1
X205.25Y-63.65
X205.3Y-18.3
X205.3Y-19.9
X205.3Y-21.5
X205.425Y-39.2
X205.45Y-36.8
X205.5Y-89.3
X205.625Y-91.575
X205.696Y-65.454
X205.7Y-16.515
X205.75Y-61.05
X205.8Y-8.3
X205.869Y-107.55
X205.9Y-50.3
X206.0Y-12.8
X206.0Y-93.2
X206.2Y-23.2
X206.235Y-90.472
X206.4Y-35.6
X206.521Y-17.752
X206.548Y-115.373
X206.55Y-63.625
X206.6Y-19.1
X206.6Y-20.7
X206.6Y-22.3
X206.925Y-17.23
X206.925Y-61.1
X207.08Y-49.483
X207.325Y-116.95
X207.375Y-37.45
X208.075Y-89.525
X208.175Y-91.925
X208.182Y-92.663
X208.7Y-116.875
X208.75Y-37.45
X209.15Y-63.95
X209.216Y-44.075
X209.225Y-61.5
X209.3Y-14.8
X209.35Y-89.5
X209.45Y-91.9
X209.55Y-115.05
X209.6Y-8.3
X209.7Y-35.9
X209.9Y-71.9
X209.972Y-44.1
X210.0Y-32.0
X210.1Y-93.8
X210.1Y-93.8
X210.261Y-79.8
X210.319Y-109.5
X210.4Y-28.2
X210.403Y-70.39
X210.461Y-55.609
X210.6Y-63.925
X210.625Y-116.25
X210.918Y-58.044
X211.054Y-45.14
X211.25Y-114.1
X211.4Y-8.3
X211.4Y-35.9
X211.561Y-61.2
X211.561Y-61.923
X211.6Y-35.2
X211.612Y-38.288
X211.7Y-166.5
X211.8Y-88.3
X211.85Y-116.25
X211.86Y-112.885
X211.866Y-38.966
X211.9Y-63.774
X211.911Y-69.113
X212.025Y-89.975
X212.125Y-92.275
X212.164Y-59.282
X212.2Y-60.7
X212.2Y-168.7
X212.238Y-59.938
X212.26Y-167.302
X212.342Y-110.875
X212.394Y-84.198
X212.425Y-113.975
X212.5Y-14.5
X212.598Y-168.003
X212.8Y-8.3
X212.825Y-93.503
X213.2Y-42.5
X213.35Y-90.05
X213.525Y-92.4
X213.549Y-111.5
X213.899Y-84.422
X214.0Y-97.3
X214.1Y-96.1
X214.122Y-167.302
X214.122Y-168.003
X214.2Y-8.2
X214.225Y-113.225
X214.325Y-115.125
X214.368Y-95.292
X214.4Y-64.2
X214.4Y-94.6
X214.4Y-166.4
X214.431Y-83.782
X214.435Y-93.59
X214.464Y-61.6
X214.8Y-169.0
X215.028Y-40.651
X215.3Y-8.3
X215.625Y-113.05
X215.65Y-115.025
X216.1Y-37.9
X216.1Y-93.5
X216.125Y-35.125
X216.185Y-30.816
X216.185Y-32.831
X216.196Y-94.452
X216.2Y-95.4
X216.2Y-96.2
X216.2Y-90.6
X216.294Y-75.326
X216.337Y-61.963
X216.4Y-85.23
X216.523Y-8.37
X216.98Y-78.606
X217.125Y-90.9
X217.213Y-8.337
X217.225Y-61.525
X217.225Y-93.325
X217.25Y-64.125
X217.325Y-35.4
X217.325Y-37.575
X217.4Y-96.8
X217.9Y-8.3
X217.9Y-76.7
X217.997Y-38.941
X218.3Y-33.6
X218.3Y-61.55
X218.327Y-58.774
X218.375Y-64.05
X218.455Y-56.833
X218.5Y-29.4
X218.512Y-38.412
X218.565Y-8.235
X218.846Y-50.162
X218.875Y-112.775
X218.928Y-57.787
X218.979Y-55.826
X219.075Y-115.025
X219.276Y-8.223
X219.3Y-39.3
X219.5Y-90.825
X219.525Y-93.175
X219.546Y-56.375
X219.988Y-8.212
X220.008Y-35.432
X220.2Y-120.4
X220.25Y-112.8
X220.3Y-36.688
X220.4Y-39.4
X220.475Y-114.975
X220.7Y-8.2
X220.725Y-90.8
X220.8Y-96.6
X220.875Y-93.125
X221.05Y-61.65
X221.275Y-64.125
X221.479Y-7.401
X221.7Y-39.4
X221.9Y-36.7
X222.006Y-93.557
X222.028Y-7.913
X222.3Y-61.65
X222.4Y-6.823
X222.4Y-64.1
X222.575Y-88.65
X222.673Y-54.799
X222.7Y-70.7
X222.85Y-112.625
X222.85Y-114.875
X222.9Y-3.3
X222.9Y-36.6
X223.0Y-4.55
X223.0Y-5.286
X223.0Y-6.312
X223.0Y-7.335
X223.15Y-90.95
X223.2Y-54.1
X223.48Y-12.299
X223.6Y-4.219
X223.8Y-14.2
X223.8Y-47.6
X223.95Y-88.6
X223.975Y-35.875
X224.0Y-38.075
X224.14Y-12.299
X224.175Y-112.65
X224.2Y-90.975
X224.225Y-114.925
X224.77Y-88.566
X224.8Y-12.299
X224.8Y-101.9
X224.975Y-61.85
X225.125Y-64.225
X225.156Y-85.23
X225.264Y-6.264
X225.35Y-35.875
X225.375Y-38.1
X225.4Y-84.1
X225.411Y-87.1
X225.5Y-3.3
X225.661Y-49.648
X225.9Y-92.9
X226.15Y-8.325
X226.2Y-7.525
X226.25Y-114.0
X226.3Y-61.825
X226.414Y-88.082
X226.425Y-64.35
X226.675Y-88.95
X226.675Y-111.8
X226.725Y-91.375
X226.9Y-5.4
X227.2Y-43.2
X227.575Y-34.15
X227.6Y-147.0
X227.7Y-36.6
X227.7Y-64.1
X227.725Y-65.125
X227.825Y-9.025
X227.925Y-88.975
X228.1Y-111.8
X228.2Y-91.325
X228.3Y-3.5
X228.667Y-88.961
X228.75Y-34.175
X228.9Y-10.4
X228.9Y-113.8
X229.0Y-11.175
X229.025Y-36.55
X229.1Y-31.1
X229.226Y-112.944
X229.362Y-145.288
X229.362Y-148.844
X229.4Y-107.7
X229.425Y-88.675
X229.525Y-7.3
X229.625Y-63.075
X229.75Y-113.75
X229.925Y-65.7
X230.2Y-4.6
X230.347Y-107.547
X230.525Y-90.125
X230.575Y-111.9
X230.65Y-59.333
X230.7Y-13.875
X230.725Y-14.7
X231.025Y-34.525
X231.075Y-32.225
X231.1Y-108.0
X231.125Y-87.75
X231.2Y-29.0
X231.65Y-90.15
X231.9Y-6.9
X231.9Y-9.3
X231.9Y-112.0
X231.925Y-67.275
X232.0Y-64.55
X232.14Y-36.757
X232.325Y-11.225
X232.35Y-32.2
X232.35Y-34.525
X232.4Y-26.8
X232.5Y-22.3
X232.675Y-114.15
X232.7Y-178.2
X233.0Y-52.4
X233.025Y-17.325
X233.2Y-46.2
X233.2Y-64.525
X233.3Y-67.15
X233.412Y-11.0
X233.5Y-8.2
X233.5Y-72.0
X233.613Y-12.037
X233.825Y-114.05
X233.925Y-19.2
X233.995Y-12.575
X234.013Y-11.512
X234.075Y-13.875
X234.075Y-14.675
X234.2Y-98.2
X234.275Y-88.475
X234.315Y-140.843
X234.315Y-142.367
X234.315Y-143.891
X234.315Y-145.034
X234.35Y-30.575
X234.4Y-139.5
X234.4Y-182.4
X234.525Y-112.0
X234.66Y-13.569
X234.69Y-12.795
X234.7Y-20.2
X234.7Y-86.125
X234.9Y-32.95
X235.037Y-26.7
X235.1Y-22.7
X235.2Y-30.575
X235.275Y-62.7
X235.28Y-178.998
X235.28Y-180.594
X235.3Y-90.3
X235.35Y-65.15
X235.375Y-24.0
X235.4Y-88.525
X235.458Y-141.605
X235.458Y-143.129
X235.55Y-29.175
X235.6Y-28.4
X235.625Y-86.025
X235.688Y-13.988
X235.7Y-13.328
X235.8Y-32.975
X235.898Y-14.623
X235.975Y-112.025
X236.125Y-17.375
X236.175Y-18.175
X236.347Y-148.336
X236.625Y-114.025
X236.725Y-54.162
X236.75Y-65.2
X236.775Y-62.775
X236.883Y-150.015
X236.982Y-147.32
X237.0Y-178.8
X237.033Y-144.915
X237.038Y-16.782
X237.075Y-84.8
X237.1Y-26.475
X237.1Y-152.1
X237.125Y-19.95
X237.125Y-23.6
X237.125Y-87.1
X237.15Y-22.5
X237.2Y-182.4
X237.592Y-145.394
X237.65Y-113.9
X237.7Y-139.9
X237.775Y-27.475
X237.8Y-155.3
X238.1Y-134.1
X238.275Y-111.675
X238.366Y-57.61
X238.6Y-36.3
X238.725Y-28.575
X238.85Y-31.2
X238.887Y-135.636
X238.9Y-32.075
X238.975Y-87.15
X239.075Y-63.05
X239.075Y-65.6
X239.2Y-21.9
X239.3Y-88.8
X239.394Y-25.869
X239.403Y-25.125
X239.625Y-84.65
X239.625Y-111.65
X239.649Y-134.493
X239.9Y-151.9
X240.1Y-16.8
X240.2Y-30.1
X240.3Y-41.4
X240.375Y-63.15
X240.411Y-135.636
X240.45Y-65.65
X240.5Y-113.7
X240.725Y-35.125
X240.775Y-34.35
X241.173Y-134.493
X241.2Y-117.9
X241.525Y-113.6
X241.55Y-111.6
X241.65Y-87.375
X241.675Y-84.85
X241.935Y-135.636
X242.025Y-31.925
X242.025Y-39.075
X242.075Y-38.225
X242.3Y-22.4
X242.57Y-143.51
X242.57Y-144.78
X242.57Y-146.05
X242.697Y-134.493
X242.7Y-88.7
X242.8Y-31.9
X243.1Y-41.975
X243.1Y-63.45
X243.1Y-84.825
X243.124Y-97.597
X243.125Y-42.8
X243.15Y-65.9
X243.175Y-87.225
X243.459Y-135.636
X243.84Y-143.51
X243.84Y-144.78
X243.84Y-146.05
X243.875Y-35.2
X244.15Y-111.55
X244.221Y-134.493
X244.312Y-33.9
X244.425Y-65.925
X244.45Y-113.3
X244.9Y-63.2
X244.95Y-46.425
X244.975Y-45.625
X244.983Y-135.636
X245.1Y-33.2
X245.105Y-113.382
X245.11Y-143.51
X245.11Y-144.78
X245.11Y-146.05
X245.138Y-152.88
X245.2Y-38.25
X245.2Y-39.05
X245.4Y-84.175
X245.4Y-86.5
X245.401Y-58.124
X245.7Y-153.7
X245.745Y-134.493
X245.95Y-111.75
X246.11Y-152.88
X246.325Y-42.75
X246.425Y-41.975
X246.507Y-135.636
X246.75Y-84.125
X246.9Y-86.525
X246.913Y-98.754
X247.0Y-63.275
X247.0Y-65.8
X247.0Y-92.6
X247.1Y-30.3
X247.2Y-48.55
X247.25Y-49.425
X247.269Y-134.493
X247.275Y-111.7
X247.471Y-41.937
X248.031Y-135.636
X248.05Y-113.7
X248.15Y-46.425
X248.225Y-45.65
X248.401Y-65.825
X248.425Y-63.3
X248.6Y-89.0
X248.648Y-44.464
X248.793Y-134.493
X248.85Y-113.975
X249.2Y-153.5
X249.375Y-84.2
X249.425Y-86.5
X249.555Y-135.636
X249.925Y-112.475
X250.19Y-154.647
X250.19Y-155.757
X250.19Y-156.866
X250.19Y-157.976
X250.27Y-42.855
X250.275Y-48.725
X250.35Y-47.75
X250.5Y-134.4
X250.607Y-105.018
X250.698Y-156.312
X250.698Y-157.421
X250.699Y-158.531
X250.702Y-154.092
X250.711Y-155.202
X250.725Y-86.55
X250.825Y-84.2
X250.975Y-62.425
X251.0Y-64.95
X251.05Y-112.525
X251.425Y-49.35
X251.45Y-52.0
X251.875Y-113.875
X251.9Y-44.3
X252.0Y-46.0
X252.275Y-115.95
X252.3Y-62.425
X252.3Y-64.925
X252.7Y-38.7
X252.8Y-73.2
X252.825Y-49.325
X252.9Y-52.0
X252.984Y-139.827
X252.984Y-141.351
X252.984Y-142.875
X252.984Y-144.399
X252.984Y-145.923
X252.984Y-147.447
X252.984Y-148.971
X252.984Y-150.495
X252.984Y-152.019
X253.102Y-82.717
X253.102Y-110.361
X253.2Y-118.7
X253.25Y-86.975
X253.306Y-105.669
X253.325Y-84.625
X253.4Y-114.4
X253.5Y-153.9
X253.65Y-52.75
X253.714Y-119.386
X253.725Y-53.6
X253.775Y-48.15
X254.0Y-139.0
X254.125Y-45.75
X254.127Y-140.589
X254.127Y-142.113
X254.127Y-143.637
X254.127Y-145.161
X254.127Y-146.685
X254.127Y-148.209
X254.127Y-149.733
X254.127Y-151.257
X254.127Y-152.781
X254.15Y-50.325
X254.5Y-88.7
X254.6Y-114.5
X254.7Y-118.012
X254.725Y-84.575
X254.725Y-86.825
X254.95Y-62.45
X255.0Y-64.975
X255.05Y-44.175
X255.167Y-55.313
X255.213Y-47.908
X255.3Y-115.6
X256.2Y-62.525
X256.225Y-56.375
X256.25Y-55.525
X256.3Y-42.45
X256.325Y-64.95
X256.475Y-46.65
X256.575Y-117.175
X256.7Y-127.2
X256.725Y-119.75
X256.8Y-52.75
X256.8Y-95.6
X256.85Y-53.575
X257.05Y-49.475
X257.1Y-48.55
X257.1Y-102.5
X257.15Y-88.1
X257.275Y-41.225
X257.275Y-45.125
X257.275Y-85.675
X257.925Y-96.375
X258.0Y-49.1
X258.075Y-95.6
X258.1Y-117.4
X258.2Y-119.05
X258.225Y-67.0
X258.325Y-99.275
X258.325Y-100.125
X258.35Y-64.475
X258.425Y-88.075
X258.425Y-120.1
X258.475Y-85.7
X258.5Y-43.6
X258.675Y-58.95
X258.775Y-59.8
X258.8Y-106.9
X259.225Y-69.15
X259.3Y-55.6
X259.325Y-68.375
X259.35Y-56.4
X259.375Y-91.95
X259.4Y-64.45
X259.425Y-42.45
X259.475Y-92.8
X259.6Y-79.5
X259.6Y-90.1
X259.6Y-102.425
X259.625Y-82.0
X259.65Y-67.025
X259.775Y-78.075
X259.8Y-71.45
X259.8Y-104.875
X259.825Y-74.0
X259.85Y-75.625
X259.875Y-84.1
X259.9Y-87.7
X259.925Y-88.475
X260.2Y-120.95
X260.225Y-38.625
X260.262Y-109.944
X260.275Y-117.65
X260.3Y-122.1
X260.325Y-115.475
X260.425Y-53.125
X260.45Y-55.625
X260.6Y-85.725
X260.65Y-41.15
X260.775Y-118.375
X260.925Y-106.7
X260.925Y-107.55
X261.125Y-38.65
X261.15Y-95.65
X261.175Y-102.55
X261.175Y-115.375
X261.225Y-96.425
X261.45Y-41.15
X261.5Y-119.5
X261.525Y-100.125
X261.55Y-79.4
X261.55Y-99.25
X261.65Y-71.475
X261.675Y-74.025
X261.675Y-75.475
X261.75Y-58.95
X261.775Y-81.875
X261.8Y-53.125
X261.825Y-59.8
X261.825Y-78.075
X261.875Y-55.65
X261.9Y-116.975
X262.025Y-64.925
X262.05Y-67.375
X262.1Y-98.1
X262.1Y-104.075
X262.15Y-63.525
X262.175Y-86.85
X262.182Y-110.638
X262.375Y-68.375
X262.375Y-69.225
X262.375Y-122.75
X262.425Y-89.325
X262.5Y-32.1
X262.5Y-91.975
X262.5Y-92.75
X262.55Y-120.325
X262.6Y-119.3
X262.7Y-43.7
X262.75Y-60.925
X262.825Y-63.475
X262.9Y-110.3
X262.925Y-85.0
X263.0Y-109.5
X263.025Y-84.125
X263.2Y-126.0
X263.275Y-64.925
X263.275Y-114.175
X263.35Y-36.4
X263.4Y-103.4
X263.45Y-67.425
X263.6Y-55.175
X263.6Y-60.95
X263.675Y-89.25
X263.675Y-122.8
X263.95Y-120.375
X264.175Y-38.8
X264.2Y-36.4
X264.25Y-107.5
X264.275Y-106.75
X264.4Y-116.7
X264.45Y-87.45
X264.475Y-65.475
X264.5Y-85.9
X264.525Y-124.8
X264.6Y-124.0
X264.65Y-114.225
X264.9Y-59.0
X265.025Y-38.8
X265.125Y-112.775
X265.175Y-53.475
X265.175Y-113.75
X265.275Y-67.2
X265.3Y-55.825
X265.4Y-61.3
X265.425Y-109.2
X265.5Y-122.4
X265.725Y-125.625
X265.8Y-68.682
X265.8Y-87.475
X265.8Y-115.9
X265.925Y-90.0
X266.15Y-33.375
X266.15Y-68.075
X266.25Y-64.825
X266.296Y-119.609
X266.4Y-56.8
X266.4Y-92.0
X266.475Y-110.15
X266.7Y-53.1
X266.7Y-123.1
X266.725Y-54.375
X266.775Y-35.7
X266.9Y-128.05
X266.925Y-127.2
X267.131Y-112.763
X267.225Y-33.4
X267.5Y-117.275
X267.55Y-118.025
X267.581Y-120.346
X267.6Y-66.375
X267.6Y-69.75
X267.7Y-38.6
X267.8Y-35.65
X268.05Y-58.5
X268.075Y-67.525
X268.125Y-63.85
X268.125Y-87.675
X268.125Y-90.05
X268.2Y-56.3
X268.425Y-113.65
X268.575Y-70.95
X268.6Y-112.7
X268.65Y-71.9
X268.7Y-136.3
X269.0Y-85.7
X269.0Y-125.8
X269.125Y-31.675
X269.2Y-59.775
X269.2Y-62.175
X269.2Y-140.7
X269.25Y-68.775
X269.3Y-130.0
X269.325Y-130.925
X269.534Y-87.7
X269.625Y-90.05
X269.7Y-57.925
X269.725Y-120.125
X269.775Y-115.725
X269.8Y-133.3
X269.825Y-120.925
X269.9Y-142.9
X270.0Y-148.2
X270.1Y-34.0
X270.125Y-128.05
X270.2Y-122.5
X270.25Y-31.725
X270.275Y-113.275
X270.275Y-127.225
X270.388Y-149.5
X270.4Y-61.5
X270.5Y-10.0
X270.5Y-152.2
X270.575Y-116.4
X270.625Y-117.175
X270.686Y-124.225
X270.7Y-56.7
X270.7Y-142.8
X270.8Y-69.0
X270.8Y-75.8
X270.85Y-59.125
X270.9Y-70.45
X271.025Y-34.0
X271.2Y-65.9
X271.255Y-142.2
X271.275Y-63.05
X271.325Y-63.85
X271.6Y-113.35
X271.6Y-131.75
X271.725Y-71.925
X271.85Y-62.65
X271.9Y-17.1
X271.925Y-115.775
X272.05Y-122.85
X272.1Y-87.775
X272.125Y-90.05
X272.125Y-135.6
X272.2Y-136.4
X272.2Y-143.6
X272.258Y-131.803
X272.275Y-139.675
X272.3Y-130.054
X272.325Y-140.575
X272.4Y-60.8
X272.4Y-154.3
X272.55Y-147.575
X272.675Y-72.25
X272.7Y-126.0
X272.728Y-11.941
X272.825Y-74.7
X272.85Y-125.125
X272.95Y-64.475
X272.95Y-120.15
X272.975Y-120.95
X273.0Y-15.9
X273.0Y-142.7
X273.075Y-133.475
X273.325Y-30.6
X273.372Y-12.304
X273.45Y-113.55
X273.475Y-87.725
X273.5Y-149.5
X273.5Y-151.8
X273.575Y-90.0
X273.6Y-36.2
X273.625Y-32.875
X273.7Y-76.6
X273.727Y-15.872
X273.8Y-69.8
X273.9Y-12.725
X273.9Y-24.9
X273.9Y-62.15
X273.95Y-64.475
X274.025Y-74.65
X274.025Y-150.725
X274.05Y-72.2
X274.4Y-91.6
X274.425Y-130.825
X274.461Y-15.839
X274.475Y-153.15
X274.525Y-30.625
X274.525Y-133.4
X274.55Y-126.225
X274.6Y-60.3
X274.6Y-142.8
X274.653Y-125.151
X274.7Y-12.7
X274.7Y-153.8
X274.775Y-32.925
X274.775Y-154.5
X274.8Y-126.875
X275.0Y-113.25
X275.0Y-120.1
X275.064Y-67.525
X275.1Y-157.125
X275.125Y-115.575
X275.125Y-123.325
X275.15Y-124.225
X275.3Y-15.7
X275.316Y-127.838
X275.35Y-140.525
X275.375Y-135.875
X275.4Y-12.7
X275.4Y-136.625
X275.5Y-139.725
X275.5Y-159.4
X275.504Y-143.604
X275.675Y-88.15
X275.825Y-147.675
X276.0Y-110.6
X276.05Y-73.425
X276.075Y-90.55
X276.1Y-12.7
X276.1Y-153.2
X276.2Y-15.6
X276.266Y-143.501
X276.3Y-148.3
X276.325Y-154.525
X276.4Y-157.125
X276.45Y-142.1
X276.475Y-115.225
X276.475Y-141.375
X276.475Y-160.075
X276.5Y-11.1
X276.55Y-63.075
X276.575Y-152.425
X276.6Y-65.475
X276.75Y-130.075
X276.775Y-29.725
X276.775Y-137.15
X276.8Y-124.8
X276.9Y-138.025
X276.9Y-151.1
X277.0Y-15.577
X277.025Y-90.575
X277.1Y-134.0
X277.275Y-32.0
X277.275Y-128.35
X277.3Y-108.1
X277.351Y-136.41
X277.375Y-73.425
X277.4Y-75.6
X277.45Y-88.1
X277.45Y-132.4
X277.7Y-65.475
X277.7Y-116.7
X277.7Y-160.125
X277.75Y-63.15
X277.8Y-92.85
X277.8Y-95.3
X277.825Y-29.75
X277.85Y-92.125
X277.875Y-157.675
X277.9Y-125.625
X277.95Y-126.475
X278.2Y-78.1
X278.297Y-152.847
X278.35Y-31.975
X278.448Y-136.214
X278.55Y-112.775
X278.55Y-115.15
X278.6Y-16.3
X278.8Y-87.3
X278.925Y-74.35
X279.0Y-154.1
X279.05Y-128.35
X279.1Y-140.237
X279.2Y-63.8
X279.2Y-144.3
X279.3Y-104.8
X279.3Y-132.425
X279.325Y-145.375
X279.45Y-76.075
X279.632Y-125.351
X279.825Y-137.1
X279.875Y-27.125
X279.9Y-138.075
X279.925Y-91.15
X279.95Y-115.075
X279.975Y-112.85
X279.975Y-159.3
X280.0Y-141.0
X280.0Y-161.9
X280.15Y-130.05
X280.225Y-133.9
X280.4Y-66.125
X280.58Y-153.428
X280.65Y-27.175
X280.672Y-136.208
X280.775Y-29.375
X280.8Y-62.5
X280.8Y-92.425
X280.8Y-94.475
X280.825Y-159.3
X280.9Y-164.3
X280.913Y-97.43
X280.95Y-75.1
X280.95Y-95.325
X281.0Y-77.3
X281.075Y-161.85
X281.2Y-99.1
X281.2Y-143.125
X281.468Y-20.507
X281.575Y-63.85
X281.6Y-70.9
X281.6Y-126.4
X281.675Y-66.075
X281.725Y-78.65
X281.875Y-29.4
X281.95Y-24.4
X282.15Y-162.625
X282.2Y-137.0
X282.225Y-163.425
X282.375Y-144.4
X282.574Y-76.449
X282.615Y-145.159
X282.675Y-112.65
X282.73Y-152.857
X282.775Y-114.975
X282.85Y-148.95
X282.877Y-100.21
X282.975Y-97.95
X283.0Y-98.775
X283.05Y-80.375
X283.1Y-66.4
X283.125Y-93.475
X283.15Y-24.3
X283.25Y-26.575
X283.303Y-22.248
X283.383Y-133.032
X283.5Y-28.9
X283.55Y-78.1
X283.575Y-146.3
X283.7Y-143.6
X283.775Y-112.625
X283.775Y-148.925
X283.775Y-164.25
X284.0Y-67.9
X284.025Y-114.95
X284.054Y-17.967
X284.1Y-84.1
X284.1Y-95.2
X284.125Y-161.85
X284.475Y-81.6
X284.525Y-26.525
X284.6Y-155.6
X284.65Y-146.375
X284.7Y-110.3
X284.842Y-157.675
X284.9Y-29.2
X284.925Y-79.925
X284.942Y-148.024
X284.95Y-65.55
X285.125Y-69.7
X285.127Y-23.56
X285.175Y-97.15
X285.925Y-71.3
X285.943Y-127.295
X286.0Y-21.5
X286.0Y-83.1
X286.05Y-22.9
X286.1Y-80.825
X286.1Y-100.825
X286.175Y-98.55
X286.25Y-25.425
X286.275Y-67.125
X286.3Y-148.025
X286.3Y-150.4
X286.625Y-163.025
X286.8Y-112.275
X286.9Y-114.5
X287.0Y-152.0
X287.0Y-165.4
X287.1Y-22.825
X287.275Y-99.15
X287.3Y-84.125
X287.325Y-68.825
X287.475Y-150.3
X287.5Y-148.05
X287.575Y-25.375
X287.7Y-73.3
X287.7Y-82.375
X287.8Y-97.5
X287.825Y-163.075
X287.975Y-165.475
X288.075Y-112.325
X288.075Y-114.525
X288.175Y-70.475
X288.2Y-88.0
X288.2Y-124.1
X288.246Y-149.211
X288.325Y-102.95
X288.375Y-103.75
X288.425Y-99.15
X288.5Y-86.025
X288.5Y-105.2
X288.7Y-81.8
X288.7Y-143.7
X288.8Y-134.4
X288.839Y-67.191
X288.9Y-131.0
X288.9Y-168.4
X288.925Y-83.65
X288.931Y-165.399
X288.95Y-73.3
X289.0Y-161.3
X289.2Y-100.775
X289.279Y-155.479
X289.3Y-19.9
X289.3Y-19.9
X289.3Y-121.6
X289.3Y-150.975
X289.35Y-21.025
X289.4Y-148.65
X289.5Y-165.987
X289.525Y-70.975
X289.616Y-85.897
X289.619Y-146.699
X289.775Y-23.475
X289.8Y-87.225
X289.825Y-88.075
X290.012Y-157.325
X290.066Y-135.462
X290.066Y-136.575
X290.2Y-68.1
X290.225Y-73.4
X290.3Y-21.075
X290.425Y-85.375
X290.578Y-140.787
X290.6Y-141.488
X290.6Y-148.65
X290.6Y-150.95
X290.6Y-160.575
X290.675Y-161.425
X290.675Y-169.825
X290.75Y-170.575
X290.825Y-23.55
X290.875Y-154.05
X290.875Y-158.15
X290.875Y-162.875
X290.9Y-157.375
X290.925Y-154.925
X290.975Y-165.175
X291.025Y-112.2
X291.066Y-166.844
X291.125Y-114.55
X291.125Y-142.975
X291.15Y-144.225
X291.2Y-71.2
X291.4Y-119.8
X291.5Y-110.8
X291.504Y-158.861
X291.596Y-23.127
X291.625Y-103.625
X291.675Y-102.9
X291.7Y-86.525
X291.7Y-136.575
X291.7Y-162.875
X291.825Y-165.2
X291.925Y-137.625
X291.925Y-146.0
X291.925Y-148.6
X291.975Y-122.825
X291.975Y-123.65
X292.0Y-126.025
X292.0Y-126.775
X292.025Y-120.35
X292.1Y-75.5
X292.1Y-90.45
X292.158Y-107.379
X292.175Y-91.25
X292.2Y-166.45
X292.225Y-167.2
X292.275Y-114.525
X292.3Y-112.25
X292.4Y-117.225
X292.425Y-116.375
X292.425Y-134.4
X292.575Y-128.5
X292.6Y-132.0
X292.625Y-18.0
X292.625Y-131.0
X292.725Y-103.825
X292.772Y-71.336
X292.825Y-73.9
X292.975Y-88.25
X293.016Y-109.2
X293.15Y-106.4
X293.25Y-94.35
X293.25Y-95.125
X293.45Y-20.525
X293.5Y-142.425
X293.675Y-18.05
X293.7Y-161.425
X293.725Y-103.75
X293.75Y-148.6
X293.75Y-160.6
X293.9Y-71.336
X293.925Y-157.4
X293.95Y-169.85
X293.975Y-170.675
X294.0Y-158.25
X294.09Y-141.466
X294.1Y-154.825
X294.125Y-154.0
X294.15Y-146.075
X294.2Y-73.95
X294.2Y-139.9
X294.225Y-150.6
X294.225Y-152.85
X294.25Y-106.375
X294.3Y-85.6
X294.3Y-99.9
X294.375Y-144.45
X294.625Y-162.725
X294.685Y-149.381
X294.7Y-128.5
X294.725Y-134.425
X294.725Y-137.675
X294.75Y-130.95
X294.75Y-132.05
X294.775Y-97.7
X294.825Y-20.175
X294.9Y-136.675
X294.924Y-122.8
X295.0Y-165.1
X295.025Y-123.625
X295.15Y-120.375
X295.175Y-119.6
X295.175Y-126.025
X295.2Y-126.8
X295.251Y-91.149
X295.275Y-166.45
X295.3Y-16.4
X295.35Y-167.225
X295.375Y-106.675
X295.5Y-107.6
X295.5Y-117.225
X295.525Y-115.175
X295.6Y-158.9
X295.6Y-171.4
X295.65Y-116.35
X295.7Y-99.225
X295.8Y-90.4
X295.8Y-162.75
X295.825Y-150.925
X295.875Y-17.175
X295.9Y-152.125
X296.175Y-75.025
X296.25Y-165.0
X296.325Y-112.775
X296.325Y-115.125
X296.475Y-94.3
X296.475Y-95.125
X296.6Y-92.2
X296.7Y-145.5
X296.725Y-99.325
X296.8Y-155.875
X296.875Y-105.675
X296.9Y-132.2
X296.975Y-153.425
X297.0Y-72.65
X297.0Y-118.6
X297.05Y-96.875
X297.175Y-74.975
X297.225Y-19.05
X297.275Y-107.9
X297.3Y-151.4
X297.4Y-161.1
X297.416Y-60.496
X297.424Y-59.753
X297.6Y-123.9
X297.6Y-127.6
X297.6Y-136.9
X298.125Y-164.95
X298.2Y-157.3
X298.25Y-153.55
X298.3Y-113.1
X298.3Y-158.5
X298.3Y-162.825
X298.475Y-19.0
X298.5Y-168.8
X298.524Y-72.6
X298.575Y-154.7
X298.65Y-109.625
X298.802Y-147.536
X299.025Y-17.8
X299.2Y-102.288
X299.3Y-155.575
X299.3Y-164.95
X299.475Y-114.825
X299.525Y-110.65
X299.575Y-162.75
X299.65Y-117.25
X299.8Y-104.3
X299.805Y-161.472
X299.875Y-99.675
X299.9Y-90.3
X300.0Y-103.4
X300.1Y-71.3
X300.1Y-86.3
X300.1Y-95.7
X300.125Y-77.25
X300.15Y-157.95
X300.6Y-114.75
X300.625Y-155.575
X300.65Y-74.85
X300.725Y-117.225
X300.75Y-110.525
X300.8Y-108.025
X301.0Y-77.2
X301.025Y-101.375
X301.075Y-100.525
X301.125Y-16.1
X301.125Y-18.675
X301.3Y-118.2
X301.65Y-74.85
X301.975Y-165.25
X302.0Y-10.4
X302.375Y-16.1
X302.375Y-162.775
X302.4Y-154.8
X302.45Y-110.85
X302.5Y-78.639
X302.55Y-18.675
X302.75Y-106.275
X302.775Y-12.644
X302.9Y-113.0
X302.95Y-158.05
X302.994Y-11.028
X302.994Y-88.65
X303.125Y-105.1
X303.35Y-109.1
X303.575Y-115.6
X303.65Y-108.0
X303.725Y-165.25
X303.875Y-155.7
X304.1Y-11.8
X304.15Y-77.1
X304.15Y-158.05
X304.2Y-102.5
X304.4Y-96.8
X304.475Y-20.1
X304.5Y-115.525
X304.525Y-17.65
X304.549Y-80.024
X304.557Y-92.651
X304.6Y-24.6
X304.793Y-88.65
X304.875Y-105.275
X304.875Y-155.7
X305.075Y-79.5
X305.175Y-77.05
X305.3Y-113.45
X305.3Y-163.2
X305.45Y-116.275
X305.55Y-111.25
X305.6Y-110.5
X305.671Y-25.4
X305.75Y-107.575
X305.77Y-21.072
X305.8Y-17.575
X305.8Y-119.2
X305.85Y-20.175
X306.35Y-117.525
X306.591Y-108.902
X306.6Y-16.9
X307.05Y-158.775
X307.075Y-163.1
X307.1Y-165.375
X307.125Y-79.875
X307.156Y-81.027
X307.2Y-77.3
X307.496Y-90.562
X307.6Y-168.5
X307.675Y-156.375
X307.8Y-86.0
X307.825Y-117.5
X307.9Y-57.4
X307.9Y-73.3
X307.975Y-165.35
X308.0Y-43.3
X308.1Y-108.2
X308.1Y-158.8
X308.15Y-110.75
X308.175Y-79.925
X308.2Y-83.4
X308.375Y-163.1
X308.475Y-17.925
X308.475Y-20.425
X308.775Y-115.625
X308.85Y-81.375
X309.0Y-82.125
X309.2Y-155.4
X309.35Y-157.1
X309.381Y-87.738
X309.4Y-108.3
X309.425Y-110.7
X309.675Y-17.95
X309.724Y-122.332
X309.775Y-20.375
X309.9Y-90.0
X309.9Y-93.578
X310.15Y-115.875
X310.25Y-118.4
X310.443Y-94.055
X310.449Y-89.634
X310.45Y-165.425
X310.5Y-163.0
X310.55Y-157.95
X310.6Y-78.5
X310.964Y-90.046
X311.0Y-93.7
X311.05Y-160.375
X311.15Y-115.85
X311.275Y-118.4
X311.319Y-102.285
X311.324Y-104.33
X311.338Y-103.08
X311.361Y-106.107
X311.4Y-106.8
X311.434Y-114.239
X311.6Y-80.1
X311.7Y-17.2
X311.725Y-85.05
X311.8Y-158.05
X311.875Y-163.025
X311.875Y-165.45
X311.9Y-105.2
X311.95Y-160.375
X312.225Y-82.1
X312.25Y-109.6
X312.3Y-18.325
X312.35Y-20.725
X312.425Y-107.15
X312.528Y-166.45
X313.1Y-122.6
X313.147Y-112.31
X313.148Y-109.333
X313.165Y-134.944
X313.2Y-116.6
X313.3Y-81.1
X313.3Y-85.45
X313.325Y-83.175
X313.425Y-20.775
X313.5Y-18.375
X313.55Y-86.775
X313.7Y-89.275
X313.725Y-120.375
X313.9Y-169.0
X314.075Y-117.975
X314.15Y-109.075
X314.2Y-23.6
X314.35Y-162.95
X314.4Y-165.45
X314.425Y-161.575
X314.5Y-120.35
X314.6Y-83.275
X314.6Y-111.0
X314.675Y-159.275
X315.05Y-105.475
X315.05Y-117.95
X315.081Y-168.396
X315.275Y-86.775
X315.3Y-126.5
X315.425Y-121.975
X315.466Y-120.773
X315.475Y-122.75
X315.675Y-159.25
X315.7Y-90.925
X315.7Y-161.575
X315.75Y-165.425
X315.85Y-88.15
X315.85Y-163.0
X316.0Y-107.775
X316.025Y-105.6
X316.075Y-19.375
X316.1Y-21.825
X316.1Y-133.5
X316.5Y-115.3
X316.7Y-87.1
X316.8Y-7.6
X316.875Y-88.55
X316.95Y-165.15
X317.075Y-4.95
X317.1Y-2.8
X317.2Y-5.775
X317.325Y-19.475
X317.325Y-21.75
X317.45Y-107.525
X317.5Y-35.2
X317.5Y-108.7
X317.722Y-126.058
X317.9Y-13.5
X317.925Y-166.775
X318.0Y-162.675
X318.145Y-106.664
X318.225Y-88.575
X318.325Y-90.375
X318.45Y-8.525
X318.5Y-9.375
X318.575Y-160.45
X318.6Y-121.925
X318.6Y-122.725
X318.631Y-124.171
X318.725Y-17.85
X318.728Y-91.826
X319.125Y-164.25
X319.2Y-85.8
X319.325Y-90.325
X319.35Y-162.8
X319.375Y-126.575
X319.4Y-107.45
X319.4Y-157.8
X319.6Y-124.15
X319.75Y-168.1
X319.775Y-17.75
X319.8Y-129.3
X319.8Y-168.925
X319.875Y-128.425
X319.925Y-20.075
X319.925Y-105.175
X319.925Y-160.6
X320.0Y-88.45
X320.0Y-93.9
X320.2Y-165.85
X320.3Y-26.062
X320.307Y-122.537
X320.32Y-33.625
X320.4Y-5.025
X320.4Y-5.825
X320.45Y-16.55
X320.45Y-124.1
X320.575Y-12.7
X320.575Y-107.45
X320.6Y-11.825
X320.8Y-3.0
X320.98Y-26.062
X320.98Y-33.625
X321.0Y-125.7
X321.075Y-20.05
X321.1Y-130.05
X321.3Y-105.25
X321.3Y-160.1
X321.35Y-88.5
X321.4Y-14.525
X321.575Y-171.6
X321.64Y-26.062
X321.64Y-33.625
X321.65Y-163.5
X321.775Y-127.55
X321.9Y-9.275
X321.975Y-8.55
X322.0Y-116.7
X322.1Y-90.35
X322.2Y-161.05
X322.3Y-26.062
X322.3Y-33.625
X322.4Y-163.45
X322.525Y-173.3
X322.8Y-19.7
X322.824Y-40.327
X322.868Y-128.736
X322.9Y-103.8
X322.925Y-132.775
X323.0Y-91.6
X323.025Y-168.975
X323.05Y-11.05
X323.075Y-161.0
X323.1Y-168.2
X323.175Y-105.075
X323.177Y-136.956
X323.2Y-90.275
X323.2Y-93.8
X323.25Y-107.3
X323.4Y-178.1
X323.739Y-127.665
X323.775Y-16.625
X323.775Y-164.55
X323.825Y-132.85
X323.85Y-12.575
X323.9Y-86.9
X323.925Y-165.225
X324.0Y-15.625
X324.025Y-88.5
X324.275Y-130.425
X324.4Y-9.4
X324.4Y-108.9
X324.5Y-105.05
X324.7Y-171.3
X324.775Y-107.4
X324.9Y-162.6
X324.925Y-172.45
X325.0Y-130.4
X325.025Y-136.375
X325.2Y-14.9
X325.225Y-175.775
X325.275Y-173.35
X325.4Y-88.4
X326.025Y-136.4
X326.1Y-90.475
X326.263Y-23.749
X326.263Y-25.273
X326.263Y-26.797
X326.263Y-28.321
X326.263Y-29.845
X326.263Y-31.369
X326.263Y-32.893
X326.263Y-34.417
X326.263Y-35.941
X326.275Y-134.0
X326.3Y-172.1
X326.375Y-173.375
X326.55Y-177.25
X326.8Y-37.8
X326.8Y-137.675
X326.881Y-91.681
X326.925Y-168.375
X326.975Y-165.25
X327.05Y-164.425
X327.075Y-105.025
X327.3Y-174.925
X327.325Y-107.35
X327.325Y-166.175
X327.35Y-133.95
X327.375Y-139.925
X327.406Y-24.511
X327.406Y-26.035
X327.406Y-27.559
X327.406Y-29.083
X327.406Y-30.607
X327.406Y-32.131
X327.406Y-33.655
X327.406Y-35.179
X327.406Y-36.703
X327.65Y-89.375
X327.8Y-93.7
X328.125Y-178.85
X328.3Y-104.975
X328.3Y-168.4
X328.5Y-144.5
X328.5Y-183.2
X328.6Y-107.4
X328.6Y-174.7
X328.675Y-137.15
X328.8Y-176.5
X328.875Y-166.275
X328.909Y-108.286
X329.05Y-89.35
X329.35Y-180.025
X329.4Y-88.6
X329.6Y-118.3
X329.679Y-21.328
X329.688Y-22.438
X329.691Y-17.999
X329.692Y-19.109
X329.692Y-20.218
X329.7Y-105.1
X329.8Y-38.5
X329.825Y-178.125
X329.925Y-91.225
X329.95Y-138.475
X330.2Y-18.554
X330.2Y-19.664
X330.2Y-20.773
X330.2Y-21.883
X330.3Y-42.0
X330.4Y-125.3
X330.5Y-129.5
X330.6Y-178.7
X330.7Y-142.375
X330.8Y-132.9
X330.835Y-40.894
X330.85Y-181.8
X331.0Y-86.8
X331.075Y-104.925
X331.15Y-107.225
X331.175Y-139.95
X331.175Y-168.4
X331.4Y-164.1
X331.4Y-179.375
X331.597Y-42.037
X331.65Y-91.475
X331.7Y-165.6
X331.775Y-182.8
X331.8Y-22.9
X332.181Y-103.08
X332.3Y-95.5
X332.341Y-89.197
X332.359Y-40.894
X332.45Y-104.95
X332.475Y-181.025
X332.525Y-107.275
X332.525Y-140.05
X332.55Y-168.5
X332.675Y-141.175
X332.948Y-102.285
X332.988Y-145.389
X333.0Y-89.225
X333.05Y-91.475
X333.083Y-80.528
X333.1Y-166.0
X333.121Y-42.037
X333.475Y-184.725
X333.8Y-108.9
X333.819Y-87.219
X333.883Y-40.894
X333.9Y-22.6
X333.95Y-182.45
X334.0Y-84.4
X334.0Y-142.075
X334.0Y-168.075
X334.075Y-144.7
X334.268Y-130.95
X334.301Y-86.736
X334.541Y-84.022
X334.645Y-42.037
X334.725Y-169.55
X334.767Y-86.27
X334.95Y-142.175
X334.95Y-144.725
X335.008Y-83.555
X335.075Y-105.775
X335.125Y-184.15
X335.2Y-182.0
X335.225Y-108.175
X335.28Y-23.749
X335.28Y-30.48
X335.28Y-31.75
X335.28Y-33.02
X335.407Y-40.894
X335.7Y-117.9
X335.725Y-89.725
X335.75Y-91.875
X335.925Y-169.575
X336.169Y-42.037
X336.475Y-105.8
X336.55Y-30.48
X336.55Y-31.75
X336.55Y-33.02
X336.575Y-93.16
X336.575Y-108.2
X336.7Y-88.9
X336.931Y-40.894
X337.05Y-89.7
X337.075Y-168.15
X337.1Y-91.95
X337.1Y-146.825
X337.225Y-172.275
X337.525Y-144.375
X337.584Y-126.905
X337.693Y-42.037
X337.7Y-125.3
X337.82Y-30.48
X337.82Y-31.75
X337.82Y-33.02
X338.0Y-105.4
X338.0Y-146.725
X338.075Y-169.875
X338.1Y-94.8
X338.1Y-141.6
X338.175Y-172.2
X338.4Y-97.2
X338.455Y-40.894
X338.5Y-144.4
X338.85Y-106.475
X338.875Y-108.85
X338.9Y-174.9
X339.1Y-94.1
X339.175Y-91.85
X339.217Y-42.037
X339.25Y-169.925
X339.6Y-168.4
X339.979Y-40.894
X340.225Y-106.45
X340.275Y-91.875
X340.275Y-108.825
X340.3Y-25.95
X340.325Y-149.1
X340.375Y-175.175
X340.4Y-146.65
X340.413Y-139.645
X340.445Y-137.15
X340.5Y-94.05
X340.6Y-132.3
X340.741Y-42.037
X340.975Y-172.775
X340.976Y-32.15
X341.0Y-119.0
X341.05Y-149.025
X341.122Y-30.353
X341.125Y-175.15
X341.2Y-21.95
X341.275Y-146.675
X341.503Y-40.894
X341.6Y-30.9
X341.8Y-172.725
X342.069Y-128.736
X342.2Y-110.5
X342.2Y-137.3
X342.25Y-29.25
X342.3Y-31.5
X342.3Y-126.4
X342.325Y-176.95
X342.4Y-97.2
X342.5Y-41.8
X342.6Y-37.1
X342.7Y-108.325
X342.725Y-106.05
X342.77Y-130.4
X342.908Y-134.698
X343.0Y-94.3
X343.025Y-92.05
X343.2Y-95.4
X343.535Y-27.15
X343.6Y-123.2
X343.7Y-22.0
X343.7Y-147.2
X343.75Y-151.425
X343.975Y-175.575
X344.15Y-106.075
X344.15Y-108.375
X344.25Y-30.0
X344.3Y-149.175
X344.323Y-127.55
X344.325Y-92.1
X344.4Y-94.275
X344.529Y-122.106
X344.61Y-109.442
X344.9Y-154.1
X344.932Y-34.163
X345.05Y-151.45
X345.349Y-179.251
X345.4Y-149.225
X345.4Y-180.4
X345.5Y-175.725
X345.525Y-176.75
X345.6Y-35.9
X345.9Y-181.7
X345.925Y-152.125
X346.0Y-22.2
X346.202Y-33.401
X346.202Y-34.925
X346.418Y-109.964
X346.425Y-104.478
X346.5Y-94.7
X346.5Y-174.5
X346.7Y-105.45
X346.7Y-147.5
X346.75Y-27.75
X346.775Y-107.775
X346.85Y-153.45
X346.9Y-92.025
X347.425Y-178.05
X347.65Y-153.325
X348.1Y-107.8
X348.1Y-181.7
X348.125Y-182.55
X348.15Y-105.45
X348.2Y-92.05
X348.45Y-179.3
X349.0Y-151.8
X349.1Y-108.4
X349.2Y-94.7
X349.2Y-105.5
X349.4Y-96.4
X349.675Y-183.35
X350.075Y-155.575
X350.15Y-180.9
X350.65Y-95.55
X350.725Y-93.05
X350.75Y-105.125
X350.8Y-107.3
X350.825Y-153.325
X350.95Y-155.525
X351.0Y-151.8
X351.65Y-184.3
X351.85Y-153.3
X352.0Y-93.15
X352.05Y-95.475
X352.15Y-107.275
X352.2Y-105.075
X352.5Y-160.2
X352.525Y-156.325
X352.525Y-157.125
X352.975Y-182.85
X353.1Y-153.8
X353.5Y-92.7
X353.55Y-95.25
X353.6Y-107.8
X353.84Y-96.276
X354.075Y-157.925
X354.5Y-98.1
X354.575Y-93.55
X354.625Y-107.325
X354.625Y-155.575
X354.75Y-105.025
X354.9Y-181.1
X354.9Y-183.1
X355.025Y-95.9
X355.125Y-159.55
X355.15Y-160.35
X355.238Y-183.893
X355.353Y-104.278
X355.85Y-93.525
X356.075Y-105.0
X356.125Y-107.3
X356.3Y-103.8
X357.6Y-162.55
X357.65Y-163.35
X357.8Y-165.0
X358.275Y-94.875
X358.325Y-97.375
X358.35Y-160.275
X358.425Y-159.575
X358.6Y-107.3
X358.625Y-105.0
X359.325Y-164.0
X359.4Y-160.1
X359.525Y-94.9
X359.6Y-97.3
X360.0Y-105.0
X360.025Y-107.325
X360.025Y-161.55
X361.188Y-30.853
X361.696Y-31.462
T2
X45.35Y-173.89
X45.35Y-175.29
X46.05Y-173.19
X46.05Y-174.59
X46.05Y-175.99
X46.75Y-173.89
X46.75Y-175.29
X47.45Y-173.19
X47.45Y-174.59
X47.45Y-175.99
X48.15Y-173.89
X48.15Y-175.29
T4
X71.96Y-185.42
X75.36Y-185.42
T3
X1.79Y-173.48G85X1.19Y-173.48
G05
X1.79Y-182.12G85X1.19Y-182.12
G05
X6.22Y-173.48G85X5.12Y-173.48
G05
X6.22Y-182.12G85X5.12Y-182.12
G05
M30
